<svg viewBox="0 0 63 30" xmlns="http://www.w3.org/2000/svg">
  <linearGradient id="a" gradientUnits="userSpaceOnUse" x1="31.41" x2="31.41" y1="30">
    <stop offset="0" stop-color="#0d67b2" />
    <stop offset="1" stop-color="#29aae2" />
  </linearGradient>
  <path d="m0 30h32.81l30-30h-62.81z" fill="url(#a)" fill-rule="evenodd" />
  <path
    d="m36.28 6h-5.74v13.7l-5.1-13.7h-4.93l-4.31 11.48c-.64-2.86-3.5-4-5.89-4.62-1.6-.47-3.19-1.27-3.19-2.07 0-.64 1-1.27 2.55-1.27a9.43 9.43 0 0 1 4.33 1.11l1.91-3.34a15.71 15.71 0 0 0 -6.53-1.6 8.15 8.15 0 0 0 -5.77 2.07 4.63 4.63 0 0 0 -1.43 3.35 4.66 4.66 0 0 0 1.91 4 12.88 12.88 0 0 0 4 1.75c1.59.48 2.87.95 2.87 1.91a2.27 2.27 0 0 1 -.32 1 2.37 2.37 0 0 1 -1.92.64 7.49 7.49 0 0 1 -4.78-1.44l-1.76 3.46a13 13 0 0 0 6.53 1.75h.29a8 8 0 0 0 5-1.59l.16-.16-.67 1.57h5.26l1-2.71a9.77 9.77 0 0 0 6.05 0l.8 2.71h8.61v-5.56h1.91c4.46 0 7.17-2.23 7.17-6.21.12-4.31-2.43-6.23-8.01-6.23zm-13.38 11.8a8.54 8.54 0 0 1 -1.9-.31l1.92-5.74 1.75 5.74a6.07 6.07 0 0 1 -1.77.31zm13.7-3.34h-1.28v-4.78h1.28c1.75 0 3 .64 3 2.23.03 1.91-1.25 2.55-3 2.55z"
    fill-rule="evenodd"
    fill="#fff"
  />
</svg>