<svg id="svg" version="1.1" xmlns="http://www.w3.org/2000/svg" xmlns:xlink="http://www.w3.org/1999/xlink" viewBox="0, 0, 120, 38"><g id="svgg"><path id="path0" d="M48.547 118.956 C 48.629 135.558,48.682 137.468,49.088 138.749 C 49.335 139.529,49.639 140.554,49.763 141.027 C 50.462 143.698,54.105 148.553,55.999 149.338 C 56.405 149.506,56.738 149.717,56.738 149.807 C 56.738 149.897,57.115 150.132,57.576 150.328 C 58.037 150.525,58.879 150.892,59.448 151.143 C 62.102 152.317,72.990 153.290,73.850 152.430 C 73.998 152.281,74.457 152.160,74.869 152.160 C 79.746 152.160,86.371 147.227,88.080 142.324 C 88.296 141.705,88.634 140.851,88.832 140.426 C 89.620 138.730,89.749 135.593,89.749 118.099 L 89.749 100.580 84.078 100.580 L 78.408 100.580 78.340 117.924 C 78.273 134.758,78.255 135.319,77.726 137.009 C 77.220 138.624,75.993 140.813,75.467 141.038 C 75.343 141.091,75.028 141.349,74.766 141.611 C 73.435 142.942,67.158 143.372,64.963 142.282 C 63.413 141.512,61.643 139.446,61.385 138.104 C 61.358 137.963,61.240 137.730,61.124 137.589 C 60.474 136.799,60.348 133.519,60.348 117.425 L 60.348 100.580 54.402 100.580 L 48.457 100.580 48.547 118.956 M99.549 126.112 L 99.549 151.644 105.480 151.644 L 111.412 151.644 111.412 126.112 L 111.412 100.580 105.480 100.580 L 99.549 100.580 99.549 126.112 M122.129 100.903 C 122.075 101.080,121.900 103.836,121.741 107.028 C 121.581 110.219,121.334 113.643,121.191 114.636 C 120.818 117.233,120.184 128.015,120.392 128.216 C 120.670 128.484,125.314 129.981,125.869 129.981 C 126.145 129.981,126.370 130.083,126.370 130.208 C 126.370 131.146,127.833 130.622,129.294 129.161 C 134.011 124.444,141.528 124.717,144.316 129.706 C 145.475 131.779,145.754 137.738,144.726 138.483 C 144.623 138.559,144.331 139.090,144.078 139.664 C 143.580 140.794,142.326 141.935,141.000 142.466 C 140.542 142.649,139.936 142.897,139.652 143.016 C 139.011 143.284,133.299 143.385,132.946 143.134 C 132.805 143.033,132.131 142.814,131.449 142.647 C 130.767 142.481,129.782 142.116,129.260 141.837 C 128.739 141.557,128.221 141.328,128.111 141.328 C 127.827 141.328,125.106 139.510,124.348 138.814 C 123.531 138.063,123.198 138.082,122.602 138.913 C 121.130 140.966,120.315 142.022,119.887 142.434 C 119.623 142.688,119.407 142.978,119.406 143.079 C 119.406 143.180,119.057 143.669,118.631 144.165 C 117.245 145.781,117.584 146.691,120.100 148.103 C 120.411 148.278,121.402 148.840,122.303 149.353 C 123.204 149.866,124.227 150.373,124.575 150.480 C 124.924 150.587,125.694 150.891,126.286 151.156 C 126.878 151.422,128.212 151.769,129.252 151.928 C 130.291 152.087,131.408 152.321,131.734 152.447 C 132.562 152.767,140.999 152.741,141.199 152.418 C 141.287 152.276,141.647 152.160,142.000 152.160 C 142.760 152.160,146.043 151.371,146.228 151.143 C 146.299 151.056,146.879 150.761,147.518 150.488 C 148.156 150.214,148.981 149.753,149.352 149.463 C 149.722 149.173,150.289 148.762,150.612 148.549 C 151.242 148.135,151.738 147.661,153.248 146.035 C 154.241 144.965,156.025 141.765,156.027 141.049 C 156.028 140.824,156.109 140.560,156.208 140.461 C 156.400 140.269,156.403 140.256,156.786 138.491 C 157.266 136.277,157.072 130.302,156.455 128.304 C 156.411 128.162,156.186 127.433,155.955 126.684 C 155.724 125.934,155.298 124.988,155.008 124.581 C 154.718 124.174,154.479 123.742,154.477 123.622 C 154.456 122.531,149.164 118.370,147.131 117.847 C 146.564 117.702,145.555 117.413,144.890 117.205 C 141.640 116.191,135.153 116.877,132.041 118.563 L 130.620 119.334 130.929 115.179 C 131.099 112.895,131.246 110.590,131.254 110.058 L 131.270 109.091 142.231 109.091 L 153.191 109.091 153.191 107.971 C 153.191 107.355,153.267 105.440,153.360 103.716 L 153.529 100.580 137.878 100.580 C 125.582 100.580,122.206 100.649,122.129 100.903 M236.557 117.276 C 237.373 117.328,238.707 117.328,239.523 117.276 C 240.338 117.225,239.671 117.183,238.040 117.183 C 236.409 117.183,235.741 117.225,236.557 117.276 " stroke="none" fill="#f46c34" fill-rule="evenodd"></path><path id="path1" d="M173.243 116.742 C 172.853 116.808,172.534 116.990,172.534 117.146 C 172.534 117.302,172.465 117.360,172.380 117.276 C 172.220 117.116,169.406 118.095,169.181 118.390 C 169.110 118.482,168.748 118.720,168.376 118.918 C 165.561 120.417,162.633 124.758,161.954 128.440 C 161.785 129.358,161.543 130.311,161.416 130.557 C 161.111 131.151,161.119 137.857,161.426 138.430 C 161.557 138.677,161.785 139.542,161.931 140.352 C 162.077 141.163,162.437 142.353,162.729 142.995 C 163.022 143.638,163.372 144.454,163.507 144.809 C 163.642 145.164,163.871 145.455,164.017 145.455 C 164.162 145.455,164.281 145.630,164.281 145.844 C 164.281 147.212,169.563 151.140,172.405 151.886 C 173.767 152.244,179.367 152.236,181.096 151.874 C 184.287 151.206,188.630 147.599,189.835 144.616 C 189.992 144.226,190.217 143.907,190.334 143.907 C 190.450 143.907,190.622 143.560,190.715 143.135 C 190.933 142.146,190.577 141.793,188.776 141.208 C 187.999 140.955,187.253 140.647,187.118 140.523 C 186.558 140.006,185.750 140.295,185.405 141.135 C 185.216 141.596,184.854 142.198,184.600 142.473 C 184.347 142.748,184.139 143.058,184.139 143.161 C 184.139 143.371,182.487 145.076,181.601 145.781 C 180.065 147.003,174.747 147.082,172.774 145.912 C 170.706 144.686,168.433 141.736,168.413 140.254 C 168.410 140.017,168.291 139.785,168.149 139.738 C 167.319 139.461,167.302 128.949,168.132 128.949 C 168.232 128.949,168.505 128.339,168.740 127.594 C 169.349 125.665,172.175 122.760,173.444 122.760 C 173.629 122.760,173.829 122.614,173.888 122.437 C 174.059 121.925,179.811 121.991,180.437 122.513 C 180.700 122.732,181.264 123.080,181.689 123.286 C 182.115 123.493,182.596 123.836,182.759 124.049 C 182.922 124.262,183.286 124.700,183.568 125.023 C 183.851 125.345,184.225 125.955,184.400 126.377 C 184.575 126.799,184.807 127.144,184.916 127.144 C 185.026 127.144,185.188 127.434,185.277 127.789 C 185.483 128.610,186.049 128.614,187.811 127.809 C 188.562 127.465,189.503 127.102,189.902 127.002 C 190.302 126.902,190.689 126.661,190.763 126.467 C 190.882 126.157,189.483 123.097,189.068 122.760 C 188.981 122.689,188.751 122.323,188.558 121.947 C 187.894 120.657,185.952 118.979,183.822 117.855 L 181.689 116.729 177.821 116.675 C 175.693 116.645,173.633 116.675,173.243 116.742 M207.608 116.726 C 207.395 116.804,207.047 116.937,206.834 117.019 C 206.622 117.102,206.389 117.185,206.319 117.203 C 203.790 117.856,198.582 121.573,198.582 122.724 C 198.582 122.871,198.378 123.105,198.130 123.244 C 197.882 123.383,197.705 123.562,197.736 123.641 C 197.768 123.720,197.402 124.631,196.924 125.666 C 193.177 133.779,195.735 145.121,202.334 149.653 C 208.180 153.667,218.910 152.814,222.689 148.034 C 222.969 147.679,223.503 147.078,223.875 146.699 C 224.246 146.320,224.698 145.652,224.879 145.216 C 225.060 144.780,225.291 144.423,225.392 144.423 C 225.494 144.423,225.794 143.756,226.060 142.940 C 226.325 142.124,226.621 141.341,226.716 141.199 C 227.719 139.711,227.708 128.827,226.703 127.531 C 226.593 127.389,226.296 126.634,226.044 125.854 C 225.791 125.074,225.514 124.378,225.427 124.307 C 225.340 124.236,224.946 123.680,224.552 123.071 C 223.935 122.120,223.200 121.335,221.277 119.577 C 220.952 119.280,218.893 118.159,217.075 117.289 C 216.821 117.168,216.512 117.131,216.388 117.208 C 216.264 117.284,216.114 117.202,216.055 117.024 C 215.943 116.689,208.426 116.424,207.608 116.726 M249.452 116.741 C 249.133 116.808,248.872 116.972,248.872 117.104 C 248.872 117.236,248.785 117.316,248.678 117.282 C 248.353 117.179,245.261 118.389,245.261 118.619 C 245.261 118.738,245.000 118.903,244.681 118.985 C 244.110 119.133,243.197 119.819,241.887 121.084 C 240.922 122.016,240.877 121.948,240.877 119.551 L 240.877 117.375 237.911 117.295 L 234.944 117.215 234.945 134.429 L 234.945 151.644 237.911 151.644 L 240.877 151.644 240.877 139.394 C 240.877 132.656,240.965 127.144,241.073 127.144 C 241.181 127.144,241.732 126.731,242.298 126.226 C 242.864 125.721,243.791 124.996,244.358 124.614 C 244.926 124.233,245.520 123.799,245.678 123.651 C 245.837 123.502,246.475 123.217,247.097 123.016 C 247.718 122.816,248.310 122.531,248.411 122.383 C 248.704 121.955,254.128 121.869,254.579 122.286 C 254.783 122.476,255.289 122.806,255.702 123.020 C 257.526 123.965,257.497 123.737,257.640 138.362 L 257.769 151.515 260.799 151.588 L 263.830 151.660 263.830 137.700 C 263.830 126.381,263.762 123.586,263.473 122.927 C 263.277 122.480,262.963 121.709,262.776 121.212 C 262.331 120.033,260.236 118.014,258.715 117.298 C 257.531 116.741,251.237 116.362,249.452 116.741 M215.206 122.584 C 215.445 122.822,215.779 123.017,215.949 123.017 C 216.408 123.017,218.698 125.082,218.698 125.496 C 218.698 125.693,218.790 125.854,218.902 125.854 C 220.857 125.854,222.110 139.522,220.273 140.811 C 220.171 140.883,219.935 141.316,219.750 141.773 C 219.209 143.111,217.496 145.000,216.374 145.497 C 215.950 145.685,215.603 145.912,215.603 146.003 C 215.603 147.055,207.968 146.881,206.889 145.804 C 206.707 145.622,206.243 145.285,205.858 145.055 C 205.473 144.826,204.753 144.096,204.257 143.434 C 203.761 142.772,203.280 142.173,203.187 142.102 C 203.093 142.031,202.824 141.277,202.589 140.426 C 202.353 139.574,202.022 138.599,201.854 138.259 C 201.452 137.448,201.443 131.311,201.841 130.471 C 202.003 130.130,202.275 129.329,202.445 128.691 C 203.228 125.751,205.580 123.363,208.897 122.137 C 209.824 121.795,214.767 122.145,215.206 122.584 " stroke="none" fill="#f49c34" fill-rule="evenodd"></path><path id="path2" d="M260.854 81.784 C 260.520 82.839,261.158 83.453,262.927 83.779 C 265.350 84.225,268.148 85.713,270.390 87.748 C 270.665 87.997,270.984 88.201,271.100 88.201 C 271.215 88.201,271.309 88.328,271.309 88.483 C 271.309 88.637,271.715 89.238,272.211 89.818 C 272.708 90.398,273.114 91.018,273.114 91.195 C 273.114 91.372,273.277 91.680,273.476 91.879 C 273.830 92.233,274.662 94.387,274.662 94.950 C 274.662 95.796,276.332 96.486,276.931 95.887 C 277.417 95.400,276.872 91.742,276.249 91.304 C 276.141 91.229,275.839 90.703,275.578 90.135 C 275.317 89.568,274.946 89.011,274.753 88.898 C 274.561 88.784,274.404 88.553,274.404 88.385 C 274.404 87.958,270.079 83.817,269.634 83.817 C 269.434 83.817,269.178 83.661,269.065 83.470 C 268.952 83.279,268.279 82.908,267.569 82.645 C 266.860 82.382,266.222 82.093,266.151 82.002 C 265.508 81.180,261.103 80.999,260.854 81.784 M260.413 86.417 C 259.219 87.112,260.210 88.541,262.082 88.822 C 262.723 88.918,263.788 89.340,264.450 89.759 C 265.112 90.179,265.727 90.522,265.817 90.522 C 265.959 90.522,266.395 90.969,268.590 93.361 C 268.786 93.575,269.100 94.242,269.288 94.844 C 269.475 95.446,269.717 95.938,269.824 95.938 C 269.932 95.938,270.019 96.166,270.019 96.445 C 270.019 97.408,271.201 97.734,272.043 97.004 C 272.594 96.526,272.805 95.680,272.373 95.680 C 272.250 95.680,272.076 95.229,271.988 94.677 C 271.900 94.125,271.421 93.069,270.923 92.330 C 270.426 91.591,270.019 90.944,270.019 90.892 C 270.019 90.547,267.551 88.439,266.390 87.791 C 265.904 87.520,265.448 87.227,265.377 87.140 C 264.905 86.559,261.116 86.007,260.413 86.417 M259.755 91.348 C 258.974 92.128,259.566 93.617,260.658 93.617 C 260.984 93.617,261.251 93.733,261.251 93.875 C 261.251 94.017,261.469 94.133,261.735 94.133 C 262.001 94.133,262.364 94.307,262.540 94.520 C 262.717 94.732,262.992 94.910,263.152 94.914 C 263.509 94.923,265.119 97.534,265.119 98.105 C 265.119 98.422,265.388 98.517,266.280 98.517 L 267.440 98.517 267.440 97.357 C 267.440 96.718,267.334 96.196,267.203 96.196 C 267.072 96.196,266.895 95.877,266.808 95.487 C 266.322 93.296,260.956 90.147,259.755 91.348 M203.224 96.305 C 202.869 96.517,202.325 96.805,202.014 96.946 C 201.704 97.087,201.309 97.470,201.138 97.796 C 200.966 98.121,200.746 98.446,200.648 98.517 C 199.631 99.258,199.639 106.512,200.657 106.512 C 200.792 106.512,200.903 106.664,200.903 106.851 C 200.903 107.709,203.060 109.091,204.401 109.091 C 204.746 109.091,205.029 109.207,205.029 109.349 C 205.029 109.491,205.435 109.607,205.932 109.607 C 206.428 109.607,206.834 109.506,206.834 109.383 C 206.834 109.260,207.293 109.097,207.854 109.022 C 210.236 108.703,211.730 106.719,211.923 103.621 C 212.069 101.281,211.641 98.564,211.093 98.354 C 210.906 98.282,210.695 98.001,210.624 97.729 C 210.553 97.456,210.167 97.109,209.766 96.957 C 209.365 96.804,208.952 96.542,208.848 96.373 C 208.546 95.885,204.021 95.830,203.224 96.305 M214.829 102.501 L 214.829 109.091 215.861 109.091 L 216.892 109.091 216.900 104.384 C 216.906 100.741,216.974 99.794,217.201 100.193 C 217.361 100.477,217.570 100.767,217.664 100.838 C 217.758 100.909,218.014 101.315,218.233 101.741 C 219.172 103.565,220.053 105.103,220.230 105.222 C 220.334 105.293,220.635 105.845,220.898 106.447 C 221.161 107.050,221.476 107.544,221.598 107.544 C 221.719 107.544,221.941 107.892,222.089 108.317 C 222.344 109.048,222.436 109.091,223.752 109.091 L 225.145 109.091 225.145 102.515 L 225.145 95.938 224.113 95.938 L 223.082 95.938 223.082 100.451 C 223.082 105.273,222.994 105.574,222.084 103.868 C 220.911 101.672,220.523 101.009,220.322 100.861 C 220.209 100.777,219.884 100.245,219.600 99.678 C 219.317 99.110,218.989 98.530,218.872 98.388 C 218.755 98.246,218.403 97.666,218.091 97.099 C 217.554 96.122,217.452 96.063,216.176 95.989 L 214.829 95.911 214.829 102.501 M237.421 96.570 C 237.331 96.932,237.143 97.228,237.003 97.228 C 236.864 97.228,236.750 97.388,236.750 97.585 C 236.750 98.183,235.886 100.689,235.566 101.019 C 235.401 101.189,235.185 101.770,235.086 102.308 C 234.988 102.847,234.760 103.520,234.580 103.804 C 234.400 104.088,234.039 105.016,233.777 105.867 C 233.515 106.718,233.225 107.473,233.131 107.544 C 232.226 108.231,232.661 109.091,233.915 109.091 C 235.154 109.091,235.223 109.054,235.371 108.317 C 235.456 107.892,235.613 107.544,235.719 107.544 C 235.825 107.544,235.982 107.195,236.067 106.770 L 236.222 105.996 238.797 105.996 L 241.373 105.996 241.656 107.092 C 241.812 107.695,241.998 108.391,242.070 108.640 C 242.173 108.992,242.485 109.091,243.501 109.091 C 244.431 109.091,244.767 108.999,244.684 108.769 C 244.620 108.591,244.409 107.895,244.214 107.221 C 244.019 106.547,243.768 105.996,243.657 105.996 C 243.547 105.996,243.456 105.835,243.456 105.639 C 243.456 105.168,242.623 102.551,242.421 102.386 C 242.334 102.315,242.051 101.560,241.792 100.709 C 241.534 99.858,241.233 99.046,241.124 98.904 C 241.015 98.762,240.759 98.066,240.553 97.357 L 240.180 96.067 238.883 95.990 C 237.680 95.919,237.574 95.961,237.421 96.570 M246.809 102.515 L 246.809 109.091 248.098 109.091 L 249.387 109.091 249.387 102.515 L 249.387 95.938 248.098 95.938 L 246.809 95.938 246.809 102.515 M252.998 102.515 L 252.998 109.091 254.030 109.091 L 255.061 109.091 255.061 106.512 L 255.061 103.933 256.222 103.933 C 257.092 103.933,257.382 104.032,257.382 104.328 C 257.382 104.545,257.532 104.780,257.714 104.850 C 257.897 104.920,258.274 105.496,258.552 106.129 C 258.831 106.763,259.140 107.282,259.240 107.283 C 259.340 107.285,259.614 107.692,259.850 108.188 C 260.262 109.057,260.331 109.091,261.684 109.091 C 263.345 109.091,263.367 108.801,261.863 106.735 C 261.384 106.078,260.993 105.416,260.993 105.265 C 260.993 105.114,260.839 104.897,260.651 104.784 C 260.062 104.428,259.917 103.675,260.438 103.675 C 262.573 103.675,263.376 98.974,261.538 97.226 C 260.357 96.102,259.650 95.945,255.770 95.941 L 252.998 95.938 252.998 102.515 M208.233 99.085 C 208.885 99.662,209.213 100.206,209.323 100.890 C 209.409 101.429,209.580 101.870,209.704 101.870 C 209.828 101.870,209.929 102.218,209.929 102.643 C 209.929 103.069,209.813 103.417,209.671 103.417 C 209.529 103.417,209.413 103.645,209.413 103.924 C 209.413 104.665,208.598 106.254,208.218 106.254 C 208.038 106.254,207.780 106.453,207.644 106.696 C 207.167 107.548,204.803 107.294,203.801 106.283 C 199.935 102.385,204.178 95.495,208.233 99.085 M259.142 98.540 C 260.773 99.108,260.360 101.612,258.575 101.976 C 258.167 102.060,257.210 102.128,256.447 102.128 L 255.061 102.128 255.061 100.193 L 255.061 98.259 256.699 98.259 C 257.600 98.259,258.699 98.385,259.142 98.540 M239.345 100.645 C 239.506 101.248,239.726 101.857,239.835 101.999 C 239.943 102.141,240.108 102.576,240.201 102.966 L 240.371 103.675 238.801 103.675 C 237.428 103.675,237.248 103.618,237.362 103.224 C 237.435 102.975,237.623 102.250,237.782 101.612 C 238.264 99.676,238.320 99.549,238.692 99.549 C 238.897 99.549,239.178 100.020,239.345 100.645 " stroke="none" fill="#1c1c1c" fill-rule="evenodd"></path><path id="path3" d="M121.014 114.507 C 121.014 115.003,121.067 115.206,121.132 114.958 C 121.197 114.710,121.197 114.304,121.132 114.055 C 121.067 113.807,121.014 114.010,121.014 114.507 M135.203 143.321 C 135.735 143.377,136.605 143.377,137.137 143.321 C 137.669 143.266,137.234 143.220,136.170 143.220 C 135.106 143.220,134.671 143.266,135.203 143.321 " stroke="none" fill="#f84428" fill-rule="evenodd"></path><path id="path4" d="M121.014 114.507 C 121.014 115.003,121.067 115.206,121.132 114.958 C 121.197 114.710,121.197 114.304,121.132 114.055 C 121.067 113.807,121.014 114.010,121.014 114.507 M135.203 143.321 C 135.735 143.377,136.605 143.377,137.137 143.321 C 137.669 143.266,137.234 143.220,136.170 143.220 C 135.106 143.220,134.671 143.266,135.203 143.321 " stroke="none" fill="#f84428" fill-rule="evenodd"></path></g></svg>
