<svg viewBox="0 0 120 38" xmlns="http://www.w3.org/2000/svg"><g fill="#f16a36"><path d="m0 27.3v-16.4h5.9v16.3a7.46 7.46 0 0 0 1.2 4.5 4.49 4.49 0 0 0 3.8 1.5 4.28 4.28 0 0 0 3.7-1.5 7.11 7.11 0 0 0 1.2-4.5v-16.3h5.8v16.4a16.33 16.33 0 0 1 -.6 4.4 9 9 0 0 1 -2 3.4 7.54 7.54 0 0 1 -3.4 2.1 14.22 14.22 0 0 1 -4.8.7 14.22 14.22 0 0 1 -4.8-.7 8.34 8.34 0 0 1 -5.3-5.5 13.16 13.16 0 0 1 -.7-4.4z"></path><path d="m26.8 37.5v-26.6h5.8v26.6z"></path><path d="m36.3 34.5 3-3.8a12.09 12.09 0 0 0 3 2 9.12 9.12 0 0 0 3.6.8c1.8 0 3.1-.4 3.9-1.3a4.87 4.87 0 0 0 1.2-3.4 4.82 4.82 0 0 0 -1.2-3.5 4.25 4.25 0 0 0 -3.4-1.3 5.87 5.87 0 0 0 -2.6.6 7 7 0 0 0 -2.3 1.9l-3.8-1.2 1.1-14.3h16.2l-.3 4.3h-11.4l-.5 6a8.64 8.64 0 0 1 2-1.2 10.61 10.61 0 0 1 3.4-.5 9.37 9.37 0 0 1 3.7.7 7.37 7.37 0 0 1 4.4 4.7 9 9 0 0 1 .5 3.6 10.85 10.85 0 0 1 -.7 3.9 9.1 9.1 0 0 1 -2.1 3 11.26 11.26 0 0 1 -3.3 2 13.16 13.16 0 0 1 -4.4.7 14.24 14.24 0 0 1 -5.7-1 20.86 20.86 0 0 1 -4.3-2.7z"></path></g><g fill="#f79b36"><path d="m59.2 28.5a10.76 10.76 0 0 1 .7-4.2 8.25 8.25 0 0 1 1.9-2.9 10.7 10.7 0 0 1 2.6-1.7 7.89 7.89 0 0 1 3-.5 7.44 7.44 0 0 1 2.6.4 8 8 0 0 1 2 1.1 6.89 6.89 0 0 1 1.4 1.6 11.48 11.48 0 0 1 1 1.9l-2.5 1a5.78 5.78 0 0 0 -1.8-2.6 4.29 4.29 0 0 0 -2.8-.9 4 4 0 0 0 -1.9.4 6.54 6.54 0 0 0 -1.7 1.2 7.2 7.2 0 0 0 -1.2 2.1 11.19 11.19 0 0 0 -.5 3.2 8.31 8.31 0 0 0 1.4 5.1 4.92 4.92 0 0 0 3.7 1.8 4.65 4.65 0 0 0 2.8-.8 7.25 7.25 0 0 0 2-2.8l2.4.9a11.18 11.18 0 0 1 -1.2 2.1 6.09 6.09 0 0 1 -1.6 1.6 8 8 0 0 1 -2 1.1 7.44 7.44 0 0 1 -2.6.4 7.73 7.73 0 0 1 -3-.6 6.42 6.42 0 0 1 -2.5-1.8 7.87 7.87 0 0 1 -1.8-2.9 29.56 29.56 0 0 1 -.4-4.2z"></path><path d="m77.1 28.5a11.45 11.45 0 0 1 .7-4.1 7.87 7.87 0 0 1 1.8-2.9 8 8 0 0 1 2.7-1.8 8.57 8.57 0 0 1 6.3 0 8 8 0 0 1 2.7 1.8 7.87 7.87 0 0 1 1.8 2.9 11.45 11.45 0 0 1 .7 4.1 11.45 11.45 0 0 1 -.7 4.1 7.87 7.87 0 0 1 -1.8 2.9 8 8 0 0 1 -2.7 1.8 8.57 8.57 0 0 1 -6.3 0 8 8 0 0 1 -2.7-1.8 7.87 7.87 0 0 1 -1.8-2.9 12.44 12.44 0 0 1 -.7-4.1zm3 0a12.28 12.28 0 0 0 .3 2.7 6.36 6.36 0 0 0 1 2.2 5 5 0 0 0 1.7 1.5 4 4 0 0 0 2.4.5 5.91 5.91 0 0 0 2.3-.5 3.87 3.87 0 0 0 1.7-1.4 9.06 9.06 0 0 0 1.1-2.2 12.61 12.61 0 0 0 .4-2.8 11.33 11.33 0 0 0 -.3-2.6 8.75 8.75 0 0 0 -1-2.2 5 5 0 0 0 -1.7-1.5 3.87 3.87 0 0 0 -2.4-.5 5.91 5.91 0 0 0 -2.3.5 3.87 3.87 0 0 0 -1.7 1.4 8.58 8.58 0 0 0 -1.1 2.1 8.87 8.87 0 0 0 -.4 2.8z"></path><path d="m98 37.5v-17.9h2.9v2.7a6.83 6.83 0 0 1 1.3-1.1 8.57 8.57 0 0 1 1.6-1 12.66 12.66 0 0 1 1.8-.7 7.46 7.46 0 0 1 2.1-.3 5.74 5.74 0 0 1 4 1.4 5.54 5.54 0 0 1 1.4 4v12.9h-2.9v-12.3a4.14 4.14 0 0 0 -.8-2.7 3.14 3.14 0 0 0 -2.5-.8 6.07 6.07 0 0 0 -3 .8 15.06 15.06 0 0 0 -2.8 2.1v12.9z"></path></g><g fill="#000"><path d="m81 14.1a3.25 3.25 0 0 1 -1.1-1.2 3.4 3.4 0 0 1 -.4-1.8 4 4 0 0 1 .4-1.8 2.56 2.56 0 0 1 1.1-1.2 3.82 3.82 0 0 1 3.3 0 3.25 3.25 0 0 1 1.1 1.2 4.25 4.25 0 0 1 0 3.6 2.56 2.56 0 0 1 -1.1 1.2 3 3 0 0 1 -1.6.4 2.44 2.44 0 0 1 -1.7-.4zm2.8-.7a1.54 1.54 0 0 0 .7-.9 2.18 2.18 0 0 0 .2-1.4 2.79 2.79 0 0 0 -.3-1.3 1.8 1.8 0 0 0 -.8-.9 2 2 0 0 0 -1.1-.3 2.63 2.63 0 0 0 -1.2.3 1.54 1.54 0 0 0 -.7.9 3.09 3.09 0 0 0 -.3 1.3 2.79 2.79 0 0 0 .3 1.3 1.8 1.8 0 0 0 .8.9 2 2 0 0 0 1.1.3 1.47 1.47 0 0 0 1.3-.2z"></path><path d="m87.5 7.9h1l3.3 5.6v-5.6h.8v6.6h-1.1l-3.3-5.5v5.6h-.8z"></path><path d="m101.3 12.7h-2.9l-.6 1.8h-.9l2.5-6.6h1l2.4 6.6h-.9zm-.3-.8-.8-2.2a1.42 1.42 0 0 1 -.2-.6 1.07 1.07 0 0 1 -.1-.4 1.69 1.69 0 0 1 -.2.5 1.42 1.42 0 0 0 -.2.6l-.8 2.2h2.3z"></path><path d="m104.3 7.9h.9v6.6h-.9z"></path><path d="m107.4 7.9h2.5a5.68 5.68 0 0 1 1.3.2 1.81 1.81 0 0 1 .8.7 2 2 0 0 1 .3 1 1.86 1.86 0 0 1 -.2.8 1.84 1.84 0 0 1 -.5.7 3.64 3.64 0 0 1 -.9.4l1.9 2.7h-1l-1.7-2.6h-1.5v2.6h-.9v-6.5zm2.5 3.1a1.09 1.09 0 0 0 .8-.2 1 1 0 0 0 .5-.4 1.42 1.42 0 0 0 .2-.6.91.91 0 0 0 -.4-.8 2 2 0 0 0 -1.1-.3h-1.5v2.3z"></path><path d="m113.8 8.5a3.84 3.84 0 0 0 -.9-1.5 3 3 0 0 0 -1.6-.8.47.47 0 0 1 -.5-.44v-.16c0-.3.3-.4.5-.4a4.43 4.43 0 0 1 2.2 1 3.76 3.76 0 0 1 1.2 2 .5.5 0 0 1 -.3.6c-.2.2-.5 0-.6-.3.1.1.1 0 0 0z"></path><path d="m116.5 7.9a5.7 5.7 0 0 0 -1.7-2.8 5 5 0 0 0 -3-1.4.47.47 0 0 1 -.5-.44v-.06c0-.3.3-.4.5-.4a7.05 7.05 0 0 1 3.6 1.7 6.55 6.55 0 0 1 2 3.4.5.5 0 0 1 -.3.6c-.3-.2-.6-.3-.6-.6z"></path><path d="m119.1 7.2a8.13 8.13 0 0 0 -2.6-4.2 9 9 0 0 0 -4.4-2.1.47.47 0 0 1 -.5-.44v-.06c0-.3.3-.4.5-.4a9.55 9.55 0 0 1 7.8 7 .5.5 0 0 1 -.3.6c-.2.1-.5-.1-.5-.4z"></path></g></svg>