<svg id="Layer_1" data-name="Layer 1" xmlns="http://www.w3.org/2000/svg" viewBox="0 0 709.34 221.16"><defs><style>.cls-1{fill:#f16a36;}.cls-2{fill:#f79b36;}.cls-3{fill:#fff;}</style></defs><path class="cls-1" d="M0,157.82V60.47H34.74v96.59q0,17.28,6.91,26.44t22.52,9.16q15.28,0,22.1-9.16t6.81-26.44V60.47H127.4v97.14a85.8,85.8,0,0,1-3.75,26.26,51.47,51.47,0,0,1-11.53,19.92,50.27,50.27,0,0,1-19.88,12.58q-12.1,4.38-28.59,4.37-16.33,0-28.39-4.37A49.15,49.15,0,0,1,3.74,184,85.14,85.14,0,0,1,0,157.82Z"/><path class="cls-1" d="M158.71,218.14V60.47H193V218.14Z"/><path class="cls-1" d="M214.56,200.33,232,177.55A65.5,65.5,0,0,0,250,189.12a52.59,52.59,0,0,0,21.48,4.58q15.71,0,22.83-7.87t7.12-20.06q0-13.44-6.91-21t-20.34-7.55a33,33,0,0,0-15.44,3.8,43.2,43.2,0,0,0-13.47,11.3l-22.36-7,6.34-84.88h95.55L323,86.16H255.72l-3,35.27q4.06-3.89,11.86-6.89t20-3a57.32,57.32,0,0,1,22.1,4,43.86,43.86,0,0,1,25.84,27.64,67.1,67.1,0,0,1,3.25,21.36,60.38,60.38,0,0,1-4.23,23,49.91,49.91,0,0,1-12.25,17.87A56,56,0,0,1,299.6,217a77,77,0,0,1-26.07,4.16q-19.56,0-33.85-5.65A84.33,84.33,0,0,1,214.56,200.33Z"/><path class="cls-2" d="M350.05,165q0-14.4,4.18-24.84A48.5,48.5,0,0,1,365.32,123a44.37,44.37,0,0,1,15.65-10,50.4,50.4,0,0,1,17.57-3.23,46,46,0,0,1,15.65,2.41,39.68,39.68,0,0,1,11.68,6.55,38.41,38.41,0,0,1,8.44,9.6,81.84,81.84,0,0,1,5.84,11.26l-14.72,6q-4-10.23-10.45-15.59t-16.84-5.36a31,31,0,0,0-11.28,2.09,26.47,26.47,0,0,0-9.82,6.87A34.78,34.78,0,0,0,370,146.18,58.15,58.15,0,0,0,367.33,165q0,19.57,8.44,30.06a26.89,26.89,0,0,0,22,10.47q10.2,0,16.73-4.77t11.73-16.37l14.33,5.55a71.61,71.61,0,0,1-7.06,12.33,45.87,45.87,0,0,1-9.23,9.61,41,41,0,0,1-11.83,6.29,47.12,47.12,0,0,1-15.36,2.28,45.92,45.92,0,0,1-17.76-3.54,42.73,42.73,0,0,1-15-10.47,51.36,51.36,0,0,1-10.36-17.3A68.91,68.91,0,0,1,350.05,165Z"/><path class="cls-2" d="M456.05,165a66.1,66.1,0,0,1,4-24,50,50,0,0,1,10.81-17.24,45.16,45.16,0,0,1,15.76-10.43,51,51,0,0,1,37.28,0,45,45,0,0,1,15.75,10.43A50,50,0,0,1,550.48,141a66.1,66.1,0,0,1,4,24,66.75,66.75,0,0,1-4,24.13,50.14,50.14,0,0,1-10.82,17.31,45,45,0,0,1-15.75,10.47,50.35,50.35,0,0,1-37.09,0,45,45,0,0,1-15.75-10.47,51.21,51.21,0,0,1-10.91-17.31Q456.05,178.76,456.05,165Zm17.27,0a60.19,60.19,0,0,0,2,15.86,38.58,38.58,0,0,0,5.94,12.82,29.2,29.2,0,0,0,10,8.62,29.53,29.53,0,0,0,14.11,3.23,30.21,30.21,0,0,0,13.41-2.89,28,28,0,0,0,10.08-8.22,37.26,37.26,0,0,0,6.24-12.88A61.07,61.07,0,0,0,537.21,165a58.14,58.14,0,0,0-2-15.52,40.6,40.6,0,0,0-6-12.83,28.18,28.18,0,0,0-10-8.71,29.45,29.45,0,0,0-13.91-3.18,30.74,30.74,0,0,0-13.62,2.89,28.05,28.05,0,0,0-10.07,8.22,37,37,0,0,0-6.24,12.73A59.5,59.5,0,0,0,473.32,165Z"/><path class="cls-2" d="M579.32,218.18V112.09h17.27v15.8a86.92,86.92,0,0,1,7.67-6.58,63,63,0,0,1,9.24-5.84,53,53,0,0,1,10.77-4.12,47.45,47.45,0,0,1,12.14-1.52q15.33,0,23.38,8.34t8.05,23.46v76.55H650.57V145.46q0-10.69-4.67-15.71t-14.9-5a35.59,35.59,0,0,0-17.79,4.61,89.93,89.93,0,0,0-16.62,12.46v76.36Z"/><path class="cls-3" d="M703.85,42.65A49.06,49.06,0,0,0,688.77,17.9,50.14,50.14,0,0,0,662.56,5.54a2.8,2.8,0,0,1-2.69-3.15A2.81,2.81,0,0,1,663.18,0,56.27,56.27,0,0,1,709.25,41.4a2.83,2.83,0,0,1-2,3.54A2.79,2.79,0,0,1,703.85,42.65Zm-15.39,3.9a33.64,33.64,0,0,0-10.32-16.82,34.1,34.1,0,0,0-17.85-8.47,2.82,2.82,0,0,1-2.71-3.12,2.79,2.79,0,0,1,3.23-2.38,38.18,38.18,0,0,1,21.05,9.83,38.46,38.46,0,0,1,12,19.86,2.79,2.79,0,0,1-2,3.47A2.82,2.82,0,0,1,688.46,46.55ZM673,50.46a17.72,17.72,0,0,0-5.5-8.9A17.54,17.54,0,0,0,658.11,37a2.85,2.85,0,0,1-2.82-3.3,2.77,2.77,0,0,1,3.14-2.33,23.52,23.52,0,0,1,12.83,6,23.16,23.16,0,0,1,7.32,12.08,2.79,2.79,0,0,1-2,3.38A2.9,2.9,0,0,1,673,50.46Z"/><path class="cls-3" d="M478.6,83.52a16.72,16.72,0,0,1-6.25-7.14A24.07,24.07,0,0,1,470.19,66a23.45,23.45,0,0,1,2.21-10.48,16,16,0,0,1,6.33-6.9,20.2,20.2,0,0,1,19.23,0,16.08,16.08,0,0,1,6.31,6.93A23.39,23.39,0,0,1,506.48,66a23.67,23.67,0,0,1-2.26,10.58,16.73,16.73,0,0,1-6.38,7.07,18,18,0,0,1-9.52,2.49A17.85,17.85,0,0,1,478.6,83.52Zm16.7-4.22a12,12,0,0,0,4.36-5.4,20.13,20.13,0,0,0,1.47-8,18.46,18.46,0,0,0-1.57-7.85,12.09,12.09,0,0,0-4.45-5.24A12.23,12.23,0,0,0,488.37,51a12.38,12.38,0,0,0-6.84,1.84,12,12,0,0,0-4.43,5.23A18.72,18.72,0,0,0,475.56,66a19,19,0,0,0,1.57,7.94,12.58,12.58,0,0,0,4.46,5.41,11.75,11.75,0,0,0,6.73,2A12.16,12.16,0,0,0,495.3,79.3Z"/><path class="cls-3" d="M517.14,46.72h6.2l19.64,33c0-.48-.05-1.52-.09-3.11s-.07-3.08-.07-4.44V46.72h4.74V85.54h-6.51L521.71,52.75c0,.5,0,1.43.07,2.79s0,2.76,0,4.21V85.54h-4.68Z"/><path class="cls-3" d="M598.88,75.05h-17l-3.66,10.49h-5.49l14.63-38.82h6.2l14.33,38.82h-5.37Zm-1.59-4.58-4.61-13.2c-.49-1.28-1-2.54-1.4-3.76s-.73-2.09-.86-2.6q-.24.89-.9,2.73c-.45,1.23-.91,2.46-1.41,3.69l-4.6,13.14Z"/><path class="cls-3" d="M616.6,46.72h5.32V85.54H616.6Z"/><path class="cls-3" d="M635.11,46.72H650a18.13,18.13,0,0,1,7.41,1.36A10.1,10.1,0,0,1,662.07,52a11.5,11.5,0,0,1,1.59,6.16,12.27,12.27,0,0,1-1,4.92,10.3,10.3,0,0,1-3.12,4,12.16,12.16,0,0,1-5.35,2.29l11.08,16.14h-6.12L649.05,70h-8.7V85.54h-5.24Zm14.55,18.57a11.65,11.65,0,0,0,4.92-.92,6.47,6.47,0,0,0,2.91-2.51,7,7,0,0,0,.93-3.62,5.8,5.8,0,0,0-2.34-5,11.17,11.17,0,0,0-6.64-1.7h-9.09V65.29Z"/></svg>