<svg xmlns="http://www.w3.org/2000/svg" xmlns:xlink="http://www.w3.org/1999/xlink" viewBox="0 0 493 208"><defs><style>.cls-1{fill:none;}.cls-2{isolation:isolate;}.cls-3{clip-path:url(#clip-path);}.cls-4{clip-path:url(#clip-path-2);}.cls-5{fill:#ff640a;}.cls-11,.cls-13,.cls-6,.cls-7{fill:#ffa522;}.cls-6{opacity:0.4;}.cls-11,.cls-6,.cls-7{mix-blend-mode:lighten;}.cls-7{opacity:0.6;}.cls-12,.cls-8{mix-blend-mode:overlay;}.cls-8{fill:url(#orange);}.cls-9{clip-path:url(#clip-path-3);}.cls-10{clip-path:url(#clip-path-4);}.cls-12{fill:url(#orange-2);}.cls-14{fill:#070707;}</style><clipPath id="clip-path"><path class="cls-1" d="M649.44,106.64,633.13,123h-45l-16.31-16.28V43.94H565.7v-23H606v23h-6.13V96.79l3.31,3.18h14.95l3.19-3.18V43.94h-6.13v-23h40.34v23h-6.13ZM702.76,123H662.43V100h6.13v-56h-6.13v-23h40.33v23h-6.13v56h6.13ZM737.7,49.74,741,52.89h30.9l15.32,15.32v38.5L770.93,123h-45l-16.3-16.24V88.57H737.7v8.12L741,100h15l3.19-3.18V79.23L756,75.94h-30l-16.3-16.31V20.89h77.6v23H737.7Z"/></clipPath><clipPath id="clip-path-2"><path class="cls-1" d="M556.06-291.37s-.5,22.46,56.73,56.21c67,39.49,96.6,83,96.6,117.53,0,46.6-42,68.77-70,38.47,0,0,27.44-20.37,27.44-51.68,0,0-20.12,13.26-30.64,15.55,0,0,13.72-24.24,7.32-66.77,0,0-11,21.49-46.19,38.87,0,0,13.72-30.64.91-59.91,0,0,2.75,36.59-80.49,75.46s-57.62,77.75-57.62,77.75,16.59-17.62,44.76-5.25c38.11,16.74,27,94-34.28,94-59.67,0-77.06-50.77-71.77-94.21,5.49-45.07,37.59-76.43,64.3-95.36,34.86-24.7,72.06-60.94,67.16-95.35-47.7,75.8-219.2,77-219.2,253.82,0,137.25,111.27,248.52,248.52,248.52S808.17,145,808.17,7.73C808.17-222.2,612.06-246.43,556.06-291.37ZM516.24-84c-4.43,1-8.66-.82-15.74-3-6.61-2-8.95-1.62-8.95-1.62a113,113,0,0,1,14-8c7-3.23,13-3.4,15.82,3C523.19-89.37,519.87-84.86,516.24-84Z"/></clipPath><linearGradient id="orange" x1="687.46" y1="220.95" x2="432.77" y2="-220.19" gradientUnits="userSpaceOnUse"><stop offset="0" stop-color="#ff640a"/><stop offset="1" stop-color="#ffa522"/></linearGradient><clipPath id="clip-path-3"><path class="cls-1" d="M110.44,109.64,94.13,126h-45L32.83,109.73V46.94H26.7v-23H67v23H60.91V99.79L64.22,103h15l3.19-3.18V46.94H76.23v-23h40.34v23h-6.13ZM163.76,126H123.43V103h6.13v-56h-6.13v-23h40.33v23h-6.13v56h6.13ZM198.7,52.74,202,55.89h30.9l15.32,15.32v38.5L231.93,126h-45l-16.3-16.24V91.57H198.7v8.12L202,103h15l3.19-3.18V82.23L217,78.94h-30l-16.3-16.31V23.89h77.6v23H198.7Z"/></clipPath><clipPath id="clip-path-4"><path class="cls-1" d="M17.06-288.37s-.5,22.46,56.73,56.21c67,39.49,96.6,83,96.6,117.53,0,46.6-42,68.77-70,38.47,0,0,27.44-20.37,27.44-51.68,0,0-20.12,13.26-30.64,15.55,0,0,13.72-24.24,7.32-66.77,0,0-11,21.49-46.19,38.87,0,0,13.72-30.64.91-59.91,0,0,2.75,36.59-80.49,75.46S-78.84-46.89-78.84-46.89s16.59-17.62,44.76-5.25c38.11,16.74,27,94-34.28,94-59.67,0-77.06-50.77-71.77-94.21,5.49-45.07,37.59-76.43,64.3-95.36C-41-172.44-3.77-208.68-8.67-243.09c-47.7,75.8-219.2,77-219.2,253.82,0,137.25,111.27,248.52,248.52,248.52S269.17,148,269.17,10.73C269.17-219.2,73.06-243.43,17.06-288.37ZM-22.76-81c-4.43,1-8.66-.82-15.74-3-6.61-2-9-1.62-9-1.62a113,113,0,0,1,14-8c7-3.23,13-3.4,15.82,3C-15.81-86.37-19.13-81.86-22.76-81Z"/></clipPath><linearGradient id="orange-2" x1="148.46" y1="223.95" x2="-106.23" y2="-217.19" xlink:href="#orange"/></defs><g class="cls-2"><g id="Layer_1" data-name="Layer 1"><g class="cls-3"><g class="cls-4"><path class="cls-5" d="M556.06-291.37s-.5,22.46,56.73,56.21c67,39.49,96.6,83,96.6,117.53,0,46.6-42,68.77-70,38.47,0,0,27.44-20.37,27.44-51.68,0,0-20.12,13.26-30.64,15.55,0,0,13.72-24.24,7.32-66.77,0,0-11,21.49-46.19,38.87,0,0,13.72-30.64.91-59.91,0,0,2.75,36.59-80.49,75.46s-57.62,77.75-57.62,77.75,16.59-17.62,44.76-5.25c38.11,16.74,27,94-34.28,94-59.67,0-77.06-50.77-71.77-94.21,5.49-45.07,37.59-76.43,64.3-95.36,34.86-24.7,72.06-60.94,67.16-95.35-47.7,75.8-219.2,77-219.2,253.82,0,137.25,111.27,248.52,248.52,248.52S808.17,145,808.17,7.73C808.17-222.2,612.06-246.43,556.06-291.37Z"/><path class="cls-6" d="M610.89.6s-5.46,127.15-142.35,127.15C342.57,127.75,314,16.93,314-29.88c0,0-76,468.24,393,279.47,224.49-90.36,68.69-381.08,68.69-381.08s26,71.16-26.4,123.53C714.54,26.75,658.38,38.56,610.89.6Z"/><path class="cls-7" d="M801,67.65S698.92,121.31,610.89.6c0,0,40.26,186-137.17,240.4,0,0,78.37,50.09,219.46-12.78C738.45,208.05,796.1,143.46,801,67.65Z"/><path class="cls-8" d="M556.06-291.37s-.5,22.46,56.73,56.21c67,39.49,96.6,83,96.6,117.53,0,46.6-42,68.77-70,38.47,0,0,27.44-20.37,27.44-51.68,0,0-20.12,13.26-30.64,15.55,0,0,13.72-24.24,7.32-66.77,0,0-11,21.49-46.19,38.87,0,0,13.72-30.64.91-59.91,0,0,2.75,36.59-80.49,75.46s-57.62,77.75-57.62,77.75,16.59-17.62,44.76-5.25c38.11,16.74,27,94-34.28,94-59.67,0-77.06-50.77-71.77-94.21,5.49-45.07,37.59-76.43,64.3-95.36,34.86-24.7,72.06-60.94,67.16-95.35-47.7,75.8-219.2,77-219.2,253.82,0,137.25,111.27,248.52,248.52,248.52S808.17,145,808.17,7.73C808.17-222.2,612.06-246.43,556.06-291.37Z"/></g></g><g class="cls-9"><g class="cls-10"><path class="cls-5" d="M17.06-288.37s-.5,22.46,56.73,56.21c67,39.49,96.6,83,96.6,117.53,0,46.6-42,68.77-70,38.47,0,0,27.44-20.37,27.44-51.68,0,0-20.12,13.26-30.64,15.55,0,0,13.72-24.24,7.32-66.77,0,0-11,21.49-46.19,38.87,0,0,13.72-30.64.91-59.91,0,0,2.75,36.59-80.49,75.46S-78.84-46.89-78.84-46.89s16.59-17.62,44.76-5.25c38.11,16.74,27,94-34.28,94-59.67,0-77.06-50.77-71.77-94.21,5.49-45.07,37.59-76.43,64.3-95.36C-41-172.44-3.77-208.68-8.67-243.09c-47.7,75.8-219.2,77-219.2,253.82,0,137.25,111.27,248.52,248.52,248.52S269.17,148,269.17,10.73C269.17-219.2,73.06-243.43,17.06-288.37Z"/><path class="cls-6" d="M71.89,3.6S66.43,130.75-70.46,130.75C-196.43,130.75-225,19.93-225-26.88c0,0-76,468.24,393,279.47,224.49-90.36,68.69-381.08,68.69-381.08s26,71.16-26.4,123.53C175.54,29.75,119.38,41.56,71.89,3.6Z"/><path class="cls-7" d="M262,70.65S159.92,124.31,71.89,3.6c0,0,40.26,186-137.17,240.4,0,0,78.37,50.09,219.46-12.78C199.45,211.05,257.1,146.46,262,70.65Z"/><path class="cls-11" d="M70.73,253.81S129.87,172.73,71.89,3.6c0,0,58.58,120.5,147.06,156.84C219,160.44,167.32,256.89,70.73,253.81Z"/><path class="cls-12" d="M17.06-288.37s-.5,22.46,56.73,56.21c67,39.49,96.6,83,96.6,117.53,0,46.6-42,68.77-70,38.47,0,0,27.44-20.37,27.44-51.68,0,0-20.12,13.26-30.64,15.55,0,0,13.72-24.24,7.32-66.77,0,0-11,21.49-46.19,38.87,0,0,13.72-30.64.91-59.91,0,0,2.75,36.59-80.49,75.46S-78.84-46.89-78.84-46.89s16.59-17.62,44.76-5.25c38.11,16.74,27,94-34.28,94-59.67,0-77.06-50.77-71.77-94.21,5.49-45.07,37.59-76.43,64.3-95.36C-41-172.44-3.77-208.68-8.67-243.09c-47.7,75.8-219.2,77-219.2,253.82,0,137.25,111.27,248.52,248.52,248.52S269.17,148,269.17,10.73C269.17-219.2,73.06-243.43,17.06-288.37Z"/></g></g><path class="cls-13" d="M274,114.22h10.16v-2.34h13v15.37H254.64v-13h3.48V82.44h-3.48v-13h42.55V84.79h-13V82.44H274v9.38h2.34V89.56h13v17.63h-13v-2.34H274Z"/><path class="cls-13" d="M321.41,114.22h3.48v13H302.05v-13h3.47V82.44h-3.47v-13h35.86l9.2,9.26v14.8l-3.82,3.81,3.82,3.74v13.19h3.48v13H331.22V105.71l-1.82-1.91h-8Zm0-23.44h8l1.82-1.89V84.33l-1.82-1.89h-8Z"/><path class="cls-13" d="M381.67,104.93H364.74l-9.38-9.18V78.69l9.29-9.27h25.44l9.29,9.25V90.08H383.49V84.33l-1.91-1.89h-8.42l-1.91,1.9V90.1l1.91,1.81h16.93l9.29,9.29V118l-9.29,9.29H364.65L355.36,118V106.84h15.89v5.47l1.91,1.91h8.42l1.91-1.91v-5.47Z"/><path class="cls-14" d="M348,182.46a5.49,5.49,0,0,0,2.16-2.33,50.46,50.46,0,0,0,2.68-5q1.42-3,2.91-6.48t2.77-6.65c.86-2.12,1.65-4,2.35-5.57a34.75,34.75,0,0,1,1.62-3.29,3.32,3.32,0,0,1,1.41-1.35,1.48,1.48,0,0,1,1.17,0c1,.26,1.34,1.13,1.18,2.63a29.87,29.87,0,0,1-.73,2.92q-.65,2.31-1.75,5.43t-2.42,6.82q-1.33,3.71-2.82,7.17t-3,6.37a20.76,20.76,0,0,1-2.9,4.38,8.28,8.28,0,0,1-3.69,2.71,6,6,0,0,1-4.39-.16,9.12,9.12,0,0,1-3.75-3,17,17,0,0,1-2.5-6.43,67.68,67.68,0,0,1-1.08-8.44c-.19-3-.27-5.91-.22-8.87s.1-5.44.18-7.49q.46-11.27,2-22.34T343,111.3c.14-.72.33-1.55.59-2.51a22.15,22.15,0,0,1,.88-2.68,10.32,10.32,0,0,1,1.3-2.32,3.82,3.82,0,0,1,1.82-1.42,3.54,3.54,0,0,1,3.37.36,3.24,3.24,0,0,1,1.28,3.1c0,.58-.37,2.92-1.13,7s-1.53,9.37-2.31,15.8-1.42,13.71-1.9,21.86-.56,16.49-.23,25c.06.46.11,1.09.15,1.9a20.67,20.67,0,0,0,.23,2.37,11.21,11.21,0,0,0,.45,1.94C347.67,182.29,347.85,182.51,348,182.46Z"/><path class="cls-14" d="M362.6,170.68a24.69,24.69,0,0,1-.81-7q0-4.12.45-8.59t1.12-8.75c.46-2.86.83-5.29,1.1-7.31q.45-3.33,2.91-4.17a3.56,3.56,0,0,1,1.51-.23,3.41,3.41,0,0,1,3.43,2.65,19.24,19.24,0,0,1,.16,6.59c-.31,2.75-.74,5.92-1.28,9.53a82.89,82.89,0,0,0-.9,11.49c0,.57,0,1.15,0,1.72a9.79,9.79,0,0,0,.19,1.82c.09.83.52,1.11,1.3.85,1.12-.38,2.57-1.68,4.37-3.88s3.63-4.71,5.51-7.51,3.61-5.54,5.2-8.2,2.74-4.64,3.45-6a2.43,2.43,0,0,1,1.46-1.22,1.41,1.41,0,0,1,1.55.34,2.28,2.28,0,0,1,.33,2.19,13.71,13.71,0,0,1-1,2.49c-.52,1.15-1.07,2.3-1.63,3.45q-1.19,2.43-2.87,6t-3.67,7.17a76.06,76.06,0,0,1-4.18,6.77,19.56,19.56,0,0,1-4.49,4.79,13,13,0,0,1-2.71,1.36,7,7,0,0,1-6.2-.62A11,11,0,0,1,362.6,170.68Zm7-55.06a2.71,2.71,0,0,1,2.78.35,3.07,3.07,0,0,1,1.34,2.86,10.27,10.27,0,0,1-1.17,4.58,5.48,5.48,0,0,1-3,3,2.59,2.59,0,0,1-2.07-.16,3,3,0,0,1-1.88-3,5.51,5.51,0,0,1,.82-3.09,10,10,0,0,0,1.38-3.15C368,116.47,368.55,116,369.59,115.62Z"/><path class="cls-14" d="M401.92,158.23a8.91,8.91,0,0,0,1.46-3.1q.83-2.44,1.86-6c.68-2.35,1.39-4.92,2.11-7.72s1.46-5.6,2.18-8.4,1.46-5.42,2.2-7.89,1.46-4.54,2.13-6.22a8.94,8.94,0,0,1,1.07-2,3.14,3.14,0,0,1,1.46-1.22,1.49,1.49,0,0,1,1.16,0,2,2,0,0,1,1.33,2,8.89,8.89,0,0,1-.43,2.75q-2.38,9.48-4,16.65t-2.82,12.44c-.82,3.5-1.6,6.42-2.34,8.74A18,18,0,0,1,406.5,164a6.69,6.69,0,0,1-3.3,2.58q-3.49,1.18-7-3t-4.61-13.07q-.64-4.83-.9-9.58c-.17-3.16-.25-6.07-.24-8.71a68.08,68.08,0,0,1,.31-6.89,31.17,31.17,0,0,1,.67-4.35,3.83,3.83,0,0,1,2.31-3,2.56,2.56,0,0,1,2.4.47,3.26,3.26,0,0,1,1.21,2.91q.48,10.23.77,17.63a75.55,75.55,0,0,0,1.77,13.82A16.47,16.47,0,0,0,401.92,158.23Z"/><path class="cls-14" d="M420.3,140.69a51.2,51.2,0,0,1,2.8-12.07,57.48,57.48,0,0,1,4.6-9.73,35.74,35.74,0,0,1,5.38-7,23,23,0,0,1,5.13-4,3.88,3.88,0,0,0,.56-.26,3.67,3.67,0,0,1,.69-.31,7.94,7.94,0,0,1,4.62-.21,9.07,9.07,0,0,1,4,2.17,9.48,9.48,0,0,1,2.51,4,8.82,8.82,0,0,1,.06,5.25,42.17,42.17,0,0,1-2.28,6.19,32.19,32.19,0,0,1-3.36,5.77,29.54,29.54,0,0,1-4.2,4.61,13.79,13.79,0,0,1-4.59,2.8,12.25,12.25,0,0,1-2.16.45,9.2,9.2,0,0,1-2.61-.26,2.32,2.32,0,0,0-1.28-.14c-.34.11-.57.63-.7,1.53a25.09,25.09,0,0,0-.19,3c0,1.11,0,2.2.12,3.28a10.08,10.08,0,0,0,.34,2.26c.56,1.64,1.29,2.59,2.2,2.86a6.13,6.13,0,0,0,3.56-.36,23.75,23.75,0,0,0,5.75-4.49,101.18,101.18,0,0,0,7-7.68q3.53-4.23,6.54-8.3t4.29-6.23a42.78,42.78,0,0,1,2.34-4.12,3.36,3.36,0,0,1,1.54-1.39,1.94,1.94,0,0,1,1.9.29,2,2,0,0,1,.84,1.8,11.07,11.07,0,0,1-1.25,3.75c-.8,1.72-1.86,3.69-3.16,5.92s-2.8,4.56-4.46,7-3.36,4.81-5.08,7.08-3.39,4.36-5,6.26a43.78,43.78,0,0,1-4.3,4.5,18.65,18.65,0,0,1-5.85,3.59,10.82,10.82,0,0,1-8.55-.32,13.11,13.11,0,0,1-6-5.82l-.55-1.62a24.79,24.79,0,0,1-.78-2.91,30.55,30.55,0,0,1-.53-3.64A15.81,15.81,0,0,1,420.3,140.69Zm13.35-9.05a1.94,1.94,0,0,0,.82-.13,7.19,7.19,0,0,0,2.47-1.64,26.35,26.35,0,0,0,2.66-3,24.06,24.06,0,0,0,2.4-3.93,28.55,28.55,0,0,0,1.74-4.42q.54-2.2-.09-3a1.28,1.28,0,0,0-1.54-.48l-.39.13a12.7,12.7,0,0,0-2.33,2.24,32.33,32.33,0,0,0-2.22,3q-1.05,1.59-2,3.27c-.63,1.13-1.17,2.16-1.62,3.08a7.85,7.85,0,0,0-.8,2.51A3.25,3.25,0,0,0,433.65,131.64Z"/></g></g></svg>