<svg id="Ebene_1" data-name="Ebene 1" xmlns="http://www.w3.org/2000/svg" viewBox="0 0 50 50"><defs><style>.cls-1{fill:#1873b4;}</style></defs><title>Consume_50x50px</title><path class="cls-1" d="M1.18,11.85a.85.85,0,0,1-1-.95V1.34a.85.85,0,0,1,1-.95h9.55a.85.85,0,0,1,1,1V10.9a.85.85,0,0,1-1,.95Zm17.19,7.76a.85.85,0,0,1,1,1V30a.85.85,0,0,1-1,.95H1.18a.85.85,0,0,1-1-.95V20.57a.85.85,0,0,1,1-1Zm-3.82,19a.85.85,0,0,1,1,1V49.1a.85.85,0,0,1-1,1H1.18a.85.85,0,0,1-1-1V39.55a.85.85,0,0,1,1-1Zm8.6-27.69a.85.85,0,0,1-1,.95H16.46a.84.84,0,0,1-1-.95V1.34a.84.84,0,0,1,1-.95h5.73a.85.85,0,0,1,1,1Zm0,9.55a.85.85,0,0,1,1-1H41.3a.85.85,0,0,1,1,1V30a.84.84,0,0,1-1,.95H24.1a.84.84,0,0,1-1-.95Zm10.5,18.14a.85.85,0,0,1,1,1V49a.85.85,0,0,1-1,1H24.1a.85.85,0,0,1-1-1V39.55a.85.85,0,0,1,1-1ZM27.92,11.85a.84.84,0,0,1-1-.95V1.34a.84.84,0,0,1,1-.95h9.55a.85.85,0,0,1,1,1V10.9a.85.85,0,0,1-1,.95ZM52.76,38.59a.85.85,0,0,1,1,1V49a.85.85,0,0,1-1,1H39.38a.85.85,0,0,1-1-1V39.55a.85.85,0,0,1,1-1Zm0-19.1a.85.85,0,0,1,1,1V30a.84.84,0,0,1-1,.95H47a.85.85,0,0,1-1-.95V20.45a.85.85,0,0,1,1-1Z"/></svg>