<svg viewBox="0 0 48 48" xmlns="http://www.w3.org/2000/svg"><g fill="#1875b6"><path d="m12 10h-7a4 4 0 0 1 0-8h7a4 4 0 0 1 0 8zm-7-6a2 2 0 0 0 0 4h7a2 2 0 0 0 0-4z"/><path d="m34 10h-12a4 4 0 0 1 0-8h12a4 4 0 0 1 0 8zm-12-6a2 2 0 0 0 0 4h12a2 2 0 0 0 0-4z"/><path d="m5 22a4 4 0 1 1 4-4 4 4 0 0 1 -4 4zm0-6a2 2 0 1 0 2 2 2 2 0 0 0 -2-2z"/><path d="m22 22h-7a4 4 0 0 1 0-8h7a4 4 0 0 1 0 8zm-7-6a2 2 0 0 0 0 4h7a2 2 0 0 0 0-4z"/><path d="m43 22h-11a4 4 0 0 1 0-8h11a4 4 0 0 1 0 8zm-11-6a2 2 0 0 0 0 4h11a2 2 0 0 0 0-4z"/><path d="m18 34h-13a4 4 0 0 1 0-8h13a4 4 0 0 1 0 8zm-13-6a2 2 0 0 0 0 4h13a2 2 0 0 0 0-4z"/><path d="m37 34h-9a4 4 0 0 1 0-8h9a4 4 0 0 1 0 8zm-9-6a2 2 0 0 0 0 4h9a2 2 0 0 0 0-4z"/><path d="m25 46h-20a4 4 0 0 1 0-8h20a4 4 0 0 1 0 8zm-20-6a2 2 0 0 0 0 4h20a2 2 0 0 0 0-4z"/></g></svg>