<svg id="Ebene_1" data-name="Ebene 1" xmlns="http://www.w3.org/2000/svg" viewBox="0 0 50 50"><defs><style>.cls-1{fill:#1873b4;}</style></defs><title>code_completion_50x50px</title><path class="cls-1" d="M5.87.53A3.54,3.54,0,0,1,6.7.19L7.63,0H9.88V3.54H6.75a14.4,14.4,0,0,1-.39,3.74,8.37,8.37,0,0,1-.88,2.18,2.4,2.4,0,0,1-1,1,2.37,2.37,0,0,1-.83.22,2.15,2.15,0,0,1,.83.28,3,3,0,0,1,1,1,7.33,7.33,0,0,1,.88,2.12,14.35,14.35,0,0,1,.39,3.74H9.88V21.4H7.63l-.93-.22a3.54,3.54,0,0,1-.83-.34,5,5,0,0,1-1.22-1.17,3.86,3.86,0,0,1-.54-2.29c0-2-.37-3.18-1.12-3.51A6,6,0,0,0,.5,13.36V8.12q.69,0,1.32-.06A2.34,2.34,0,0,0,3,7.62a2.47,2.47,0,0,0,.83-1.23A7.51,7.51,0,0,0,4.11,4,3.86,3.86,0,0,1,4.65,1.7,5,5,0,0,1,5.87.53ZM36.34,10.68c1,0,1.56.6,1.56,1.79a1.9,1.9,0,0,1-.44,1.23,1.36,1.36,0,0,1-1.12.56H14.47a1.45,1.45,0,0,1-1.08-.56,1.85,1.85,0,0,1-.49-1.23,1.77,1.77,0,0,1,.49-1.28,1.49,1.49,0,0,1,1.08-.51Zm0,10.72c1,0,1.56.59,1.56,1.78a1.9,1.9,0,0,1-.44,1.23,1.36,1.36,0,0,1-1.12.56H14.47a1.45,1.45,0,0,1-1.08-.56,1.85,1.85,0,0,1-.49-1.23,1.79,1.79,0,0,1,.49-1.28,1.51,1.51,0,0,1,1.08-.5Zm0,10.71c1,0,1.56.6,1.56,1.79a1.92,1.92,0,0,1-.44,1.23,1.35,1.35,0,0,1-1.12.55H14.47a1.43,1.43,0,0,1-1.08-.55,1.87,1.87,0,0,1-.49-1.23,1.77,1.77,0,0,1,.49-1.28,1.49,1.49,0,0,1,1.08-.51Z"/><path class="cls-1" d="M49.06,45.23H50V49a.87.87,0,0,1-.28.68.94.94,0,0,1-.67.27H36.65a.93.93,0,0,1-.68-.27A.9.9,0,0,1,35.7,49V37.63A.94.94,0,0,1,36,37a.9.9,0,0,1,.68-.28h3.81v1H36.65V49H49.06Zm.65-8.76a.35.35,0,0,1,.06.47L44.27,45a.36.36,0,0,1-.29.21.4.4,0,0,1-.36-.12L39.91,41a.33.33,0,0,1,0-.53l.62-.62a.35.35,0,0,1,.57,0l2.37,2.37a.37.37,0,0,0,.34.12.37.37,0,0,0,.29-.24l4.33-6.14a.37.37,0,0,1,.28-.21.39.39,0,0,1,.35.12Z"/></svg>