<svg xmlns="http://www.w3.org/2000/svg" viewBox="0 0 50 50"><path d="M9.73 12.4v3.12H3.5v21.84h28.08v3.12H3.5a3 3 0 0 1-2.24-.93 3.1 3.1 0 0 1-.87-2.19V15.53a3 3 0 0 1 3.11-3.12zM16 6.17V24.9h12.45V28H16a3 3 0 0 1-3.12-3.12V6.17A3 3 0 0 1 16 3.06h25a3.11 3.11 0 0 1 2.2.87 2.94 2.94 0 0 1 .8 2.24v12.48h-3.08V6.17zm7.8 37.43a1.57 1.57 0 0 1 1.07.44 1.44 1.44 0 0 1 .49 1.12 1.67 1.67 0 0 1-1.56 1.56h-9.4a1.45 1.45 0 0 1-1.12-.48 1.61 1.61 0 0 1-.44-1.08 1.38 1.38 0 0 1 1.56-1.56zm23.36-21.83a3.07 3.07 0 0 1 2.2.88 3 3 0 0 1 .92 2.24v18.7a3 3 0 0 1-.92 2.25 3.11 3.11 0 0 1-2.2.87H37.8a3 3 0 0 1-3.12-3.12V24.9a3 3 0 0 1 3.12-3.12zm0 21.83V24.9H37.8v18.7z" fill="#1873b4"/></svg>