<svg id="Ebene_1" data-name="Ebene 1" xmlns="http://www.w3.org/2000/svg" viewBox="0 0 50 50"><defs><style>.cls-1{fill:#1873b4;}</style></defs><title>demos_50x50px-22</title><path class="cls-1" d="M9.73,12.41v3.12H3.49V37.37H31.57v3.12H3.49a3,3,0,0,1-2.24-.93,3.1,3.1,0,0,1-.87-2.19V15.53a3,3,0,0,1,3.11-3.12ZM16,6.17V24.89H28.45V28H16a3,3,0,0,1-3.12-3.12V6.17A3,3,0,0,1,16,3.06h25a3.11,3.11,0,0,1,2.2.87A2.94,2.94,0,0,1,44,6.17V18.65H40.92V6.17Zm7.8,37.43a1.57,1.57,0,0,1,1.07.44,1.44,1.44,0,0,1,.49,1.12,1.67,1.67,0,0,1-1.56,1.56H14.41a1.45,1.45,0,0,1-1.12-.48,1.61,1.61,0,0,1-.44-1.08,1.38,1.38,0,0,1,1.56-1.56ZM47.16,21.77a3.07,3.07,0,0,1,2.2.88,3,3,0,0,1,.92,2.24V43.6a3,3,0,0,1-.92,2.25,3.11,3.11,0,0,1-2.2.87H37.81a3,3,0,0,1-3.12-3.12V24.89a3,3,0,0,1,3.12-3.12Zm0,21.83V24.89H37.81V43.6Z"/></svg>