<svg viewBox="0 0 48 48" xmlns="http://www.w3.org/2000/svg"><g fill="#1875b6"><path d="m46 19a5 5 0 0 0 -2-4v-6a5 5 0 0 0 -5-5h-34a5 5 0 0 0 -5 5v24a5 5 0 0 0 5 5h6v1a5 5 0 0 0 5 5h27a5 5 0 0 0 5-5v-16a5 5 0 0 0 -2-4zm-41 17a3 3 0 0 1 -3-3v-.3h9v3.3zm6-17v11.7h-9v-21.7a3 3 0 0 1 3-3h34a3 3 0 0 1 3 3v5.1a5.56 5.56 0 0 0 -1-.1h-25a5 5 0 0 0 -5 5zm2 20v-20a3 3 0 0 1 3-3h25a3 3 0 0 1 2.84 2.09 4 4 0 0 0 -.84-.09h-26a2 2 0 0 0 -2 2v18a2 2 0 0 0 2 2h13.1a4.78 4.78 0 0 0 .9 2h-15a3 3 0 0 1 -3-3zm17-16v15h-13v-18h14a4.92 4.92 0 0 0 -1 3zm16 16a3 3 0 0 1 -3 3h-8a3 3 0 0 1 -3-3v-16a3 3 0 0 1 3-3h8a3 3 0 0 1 3 3z"/><path d="m40 38h-2a1 1 0 0 0 0 2h2a1 1 0 0 0 0-2z"/></g></svg>