<svg viewBox="0 0 48 48" xmlns="http://www.w3.org/2000/svg"><path d="m24 2.54a22 22 0 0 0 -7 42.88c1.1.19 1.51-.47 1.51-1.05s0-2.25 0-4.1c-5.53 1-7-1.34-7.4-2.58a8.07 8.07 0 0 0 -2.25-3.11c-.77-.41-1.87-1.43 0-1.46s3 1.6 3.38 2.26c2 3.33 5.14 2.39 6.41 1.81a4.62 4.62 0 0 1 1.35-2.94c-4.89-.55-10-2.45-10-10.86a8.53 8.53 0 0 1 2.26-5.91 7.94 7.94 0 0 1 .21-5.83s1.85-.58 6.05 2.25a20.85 20.85 0 0 1 11 0c4.2-2.86 6.05-2.25 6.05-2.25a8 8 0 0 1 .22 5.83 8.51 8.51 0 0 1 2.25 5.91c0 8.44-5.14 10.31-10 10.86a5.21 5.21 0 0 1 1.49 4.07v6c0 .58.41 1.27 1.51 1.05a22 22 0 0 0 -7.04-42.83z" fill="#1875b6"/></svg>