<svg viewBox="0 0 64 64" xmlns="http://www.w3.org/2000/svg"><path d="m59.73 4.1a4 4 0 0 1 3.16 1.21 4.7 4.7 0 0 1 1.11 3.21v43.54a3.78 3.78 0 0 1 -1.2 2.87 4 4 0 0 1 -2.8 1.07h-19.27a10 10 0 0 0 -5.26 1.5 25.75 25.75 0 0 0 -3.47 2.42 11.91 11.91 0 0 0 -1.44-1.1 19 19 0 0 0 -2.43-1.31 21.92 21.92 0 0 0 -2.88-1.11 10.35 10.35 0 0 0 -2.87-.4h-18.38q-4 .09-4-3.9v-44a4.52 4.52 0 0 1 .92-2.73 3.49 3.49 0 0 1 3.08-1.27h1.35a2.94 2.94 0 0 1 1.65 1.52 8.62 8.62 0 0 1 1 2.43h-4v40h20.3a4.83 4.83 0 0 1 2.21.5 7.47 7.47 0 0 1 1.76 1.19 9.84 9.84 0 0 1 1.19 1.31 8.65 8.65 0 0 0 .8 1v-40a4.87 4.87 0 0 0 -1.18-2.69 3.22 3.22 0 0 0 -2.57-1.32 3 3 0 0 0 -.37-1.36 5.08 5.08 0 0 0 -.93-1.32 8.87 8.87 0 0 0 -1.1-.93 2 2 0 0 0 -.6-.34 11.45 11.45 0 0 1 5.43 1.11 6.17 6.17 0 0 1 2.54 2.1 7.8 7.8 0 0 1 2.21-2.11 8.65 8.65 0 0 1 4.93-1.09zm-47.73 3.7a3.24 3.24 0 0 0 -1.1-2.43 5.17 5.17 0 0 0 -2-1.27h10.18a5.12 5.12 0 0 1 3.06 1.32 4 4 0 0 1 1.86 2.68v23.95l-6-7.88-6 7.88zm48 .25h-22.28a2.85 2.85 0 0 0 -2.93 1.57 9.94 9.94 0 0 0 -.79 2.56l-.12 39.88a5.63 5.63 0 0 0 .75-1 8 8 0 0 1 1-1.31 7.75 7.75 0 0 1 1.37-1.2 3.38 3.38 0 0 1 1.88-.5h21.12z" fill="#1873b4"/></svg>