<svg id="Ebene_1" data-name="Ebene 1" xmlns="http://www.w3.org/2000/svg" viewBox="0 0 50 50"><defs><style>.cls-1{fill:#1873b4;}</style></defs><title>inspection_50x50px</title><path class="cls-1" d="M22.12,50H3.5a3.19,3.19,0,0,1-2.29-.88,2.93,2.93,0,0,1-.93-2.24V12.53L12.76.06H34.59A2.93,2.93,0,0,1,36.83,1a3.07,3.07,0,0,1,.88,2.19V17.31H34.59V3.17H15.88v9.36A2.93,2.93,0,0,1,15,14.77a3.05,3.05,0,0,1-2.19.88H3.4V46.84H22.12ZM49.7,47.33a1.36,1.36,0,0,1,0,2.24,1.52,1.52,0,0,1-1.07.49,1.5,1.5,0,0,1-1.07-.49l-8-8A10.76,10.76,0,0,1,33,43.72a10.39,10.39,0,0,1-4.24-.88A11,11,0,0,1,23,37a10.77,10.77,0,0,1,0-8.48,11.48,11.48,0,0,1,2.34-3.46,11.27,11.27,0,0,1,3.46-2.33,10.65,10.65,0,0,1,8.48,0,11,11,0,0,1,5.8,5.79,10.69,10.69,0,0,1,.29,7.75,10.55,10.55,0,0,1-1.65,3ZM33,40.6a7.82,7.82,0,0,0,7.8-7.8A7.82,7.82,0,0,0,33,25a7.82,7.82,0,0,0-7.79,7.79A7.82,7.82,0,0,0,33,40.6Z"/></svg>