<svg viewBox="0 0 50 50" xmlns="http://www.w3.org/2000/svg"><path d="m22.12 50h-18.62a3.19 3.19 0 0 1 -2.29-.88 2.93 2.93 0 0 1 -.93-2.24v-34.35l12.48-12.47h21.83a2.93 2.93 0 0 1 2.24.94 3.07 3.07 0 0 1 .88 2.19v14.12h-3.12v-14.14h-18.71v9.36a2.93 2.93 0 0 1 -.88 2.24 3.05 3.05 0 0 1 -2.19.88h-9.41v31.19h18.72zm27.58-2.67a1.36 1.36 0 0 1 0 2.24 1.52 1.52 0 0 1 -1.07.49 1.5 1.5 0 0 1 -1.07-.49l-8-8a10.76 10.76 0 0 1 -6.56 2.15 10.39 10.39 0 0 1 -4.24-.88 11 11 0 0 1 -5.76-5.84 10.77 10.77 0 0 1 0-8.48 11.48 11.48 0 0 1 2.34-3.46 11.27 11.27 0 0 1 3.46-2.33 10.65 10.65 0 0 1 8.48 0 11 11 0 0 1 5.8 5.79 10.69 10.69 0 0 1 .29 7.75 10.55 10.55 0 0 1 -1.65 3zm-16.7-6.73a7.82 7.82 0 0 0 7.8-7.8 7.82 7.82 0 0 0 -7.8-7.8 7.82 7.82 0 0 0 -7.79 7.79 7.82 7.82 0 0 0 7.79 7.81z" fill="#1873b4"/></svg>