<svg id="Ebene_1" data-name="Ebene 1" xmlns="http://www.w3.org/2000/svg" viewBox="0 0 50 50"><defs><style>.cls-1{fill:#1873b4;}</style></defs><title>npm_50x50px-27</title><path class="cls-1" d="M49.83,43.32a3.67,3.67,0,0,1-3.61,3.61H3.48A3.46,3.46,0,0,1,.94,45.86,3.48,3.48,0,0,1-.13,43.32L7,34.45H42.7Zm-40.59-12A3,3,0,0,1,7,30.4a3.12,3.12,0,0,1-.88-2.2V6.34A3.06,3.06,0,0,1,7,4.1a3,3,0,0,1,2.25-.88H40.46a3.05,3.05,0,0,1,2.19.88,3,3,0,0,1,.93,2.24V28.2a3.16,3.16,0,0,1-3.12,3.12Zm0-3.12H40.46V6.34H9.24ZM31.09,43.81,28,40.69H21.72L18.6,43.81Z"/></svg>