<svg viewBox="0 0 64 64" xmlns="http://www.w3.org/2000/svg"><path d="m42.7 18.12-3.14-8s-15-.5-18.35.07c-3.63.63-8 2.15-10.45 10.46-2.24 7.66 2.8 13.1 6.59 14.1 1.08.29 25.13 0 25.13 0s8 5.24.36 11.46h-20.12l-2.22 7.14s20.77.51 25.2 0c2.58-.29 7.09-4.23 7.53-7.31a14.06 14.06 0 0 0 0-9.15 2.47 2.47 0 0 0 -.1-.29c-1.86-5.16-4.81-7.6-7.52-8-3.86-.5-23.42 0-23.42 0s-4.19-1.67-4.43-4.83c-.13-1.79.5-5.65 3.87-5.65z" fill="#6f6f6e"/><path d="m49.49 0c-8.76 0-7.58 9.17-7.58 9.17l7.52 19.83 7.73-19.67s1.09-9.41-7.67-9.33zm-.27 11.76a4.09 4.09 0 1 1 4.08-4.1 4.08 4.08 0 0 1 -4.08 4.07z" fill="#469cd1"/><path d="m14.47 35c-8.75 0-7.63 9.19-7.63 9.19l7.53 19.81 7.73-19.66s1.12-9.34-7.63-9.34zm-.27 11.77a4.09 4.09 0 1 1 4.09-4.09 4.09 4.09 0 0 1 -4.09 4.09z" fill="#469cd1"/><path d="m23.73 48.34h3.08v1.79h-3.08z"/><path d="m23.73 48.34h3.08v1.79h-3.08z"/><path d="m23.73 48.34h3.08v1.79h-3.08z"/><g fill="#fff"><path d="m23.73 48.34h3.08v1.79h-3.08z"/><path d="m28.66 48.26h3.08v1.79h-3.08z"/><path d="m34.26 48.42h3.58v1.79h-3.58z"/><path d="m39.79 48.2h3.58v1.79h-3.58z"/><path d="m22.5 30.77h3.08v1.79h-3.08z"/><path d="m27.45 30.77h3.08v1.79h-3.08z"/><path d="m33.03 30.77h3.58v1.79h-3.58z"/><path d="m38.56 30.77h3.58v1.79h-3.58z"/><path d="m45.25 31.29h1.79v3.58h-1.79z" transform="matrix(.60571069 -.79568496 .79568496 .60571069 -8.13 49.76)"/><path d="m48.11 40.73h1.79v3.58h-1.79z"/><path d="m45.28 47.16h3.58v1.79h-3.58z" transform="matrix(.63216455 -.77483417 .77483417 .63216455 -19.92 54.15)"/><path d="m48.22 35.94h1.79v3.58h-1.79z"/><path d="m20.47 13.48h3.08v1.79h-3.08z"/><path d="m25.4 13.48h3.08v1.79h-3.08z"/><path d="m31 13.48h3.58v1.79h-3.58z"/><path d="m36.53 13.48h3.58v1.79h-3.58z"/><path d="m17.01 28.2h1.79v3.58h-1.79z" transform="matrix(.60571069 -.79568496 .79568496 .60571069 -16.81 26.07)"/><path d="m13.58 19.18h1.79v3.58h-1.79z"/><path d="m15.41 15.03h3.58v1.79h-3.58z" transform="matrix(.63216455 -.77483417 .77483417 .63216455 -6.01 19.19)"/><path d="m13.47 23.96h1.79v3.58h-1.79z"/></g></svg>