<svg viewBox="0 0 64 64" xmlns="http://www.w3.org/2000/svg" xmlns:xlink="http://www.w3.org/1999/xlink"><linearGradient id="a" gradientUnits="userSpaceOnUse" x1="32" x2="32" y1="16.17" y2="47.83"><stop offset="0" stop-color="#00b8f1"/><stop offset=".02" stop-color="#01b6f0"/><stop offset=".31" stop-color="#0d90d9"/><stop offset=".58" stop-color="#1775c8"/><stop offset=".82" stop-color="#1c65bf"/><stop offset="1" stop-color="#1e5fbb"/></linearGradient><g fill-rule="evenodd"><path d="m0 47.83h32.34l31.66-31.66h-64z" fill="url(#a)"/><path d="m38 22.12h-6.3v15l-5.5-15h-5.48l-4.72 12.53c-.5-3.16-3.77-4.25-6.34-5.07-1.66-.58-3.47-1.35-3.46-2.23s1-1.41 2.85-1.31a10.26 10.26 0 0 1 4.61 1.25l2.19-3.81a16.86 16.86 0 0 0 -7.13-1.69 8.68 8.68 0 0 0 -6.3 2.3 5.38 5.38 0 0 0 -1.53 3.67 4.94 4.94 0 0 0 2.17 4.4 14.78 14.78 0 0 0 4.28 2c1.75.54 3.18 1 3.16 2a1.49 1.49 0 0 1 -.41 1 2.79 2.79 0 0 1 -2 .64 8.74 8.74 0 0 1 -5.22-1.49l-1.98 3.82a14.56 14.56 0 0 0 7.11 1.87h.32a8.58 8.58 0 0 0 5.42-1.82 2.31 2.31 0 0 0 .26-.18l-.64 1.69h5.74l1-2.92a10.52 10.52 0 0 0 3.36.53 10.64 10.64 0 0 0 3.28-.5l.93 2.89h9.33v-6.04h2c4.92 0 7.83-2.5 7.83-6.7 0-4.68-2.83-6.83-8.83-6.83zm-14.58 12.82a5.9 5.9 0 0 1 -2-.35l2-6.3 2 6.31a5.91 5.91 0 0 1 -2 .34zm14.93-3.62h-1.35v-5.08h1.39c1.85 0 3.33.62 3.33 2.51s-1.48 2.57-3.33 2.57" fill="#fff"/></g></svg>