<svg viewBox="0 0 64 64" xmlns="http://www.w3.org/2000/svg"><path d="m5.31 33.87a5.31 5.31 0 0 1 -5.2-3.64l-.11-.23a5.6 5.6 0 0 1 3.61-6.81l45.61-15.27a5.67 5.67 0 0 1 7 3.48l.06.21a5.49 5.49 0 0 1 -3.81 6.5l-45.32 15.46a5.77 5.77 0 0 1 -1.84.3z" fill="#70cadb"/><path d="m12.89 56.3a5.31 5.31 0 0 1 -5.19-3.6l-.08-.21a5.59 5.59 0 0 1 3.59-6.88l45.57-15.46a6.12 6.12 0 0 1 1.8-.3 5.49 5.49 0 0 1 5.31 3.69l.08.23a5.79 5.79 0 0 1 -.7 4.64 7.74 7.74 0 0 1 -2.68 1.91l-45.74 15.68a6.14 6.14 0 0 1 -1.95.33z" fill="#e01765"/><path d="m50.83 56.39a5.61 5.61 0 0 1 -5.36-3.81l-15.25-45.19-.07-.25a5.58 5.58 0 0 1 3.64-6.84 6.05 6.05 0 0 1 1.74-.3 5.63 5.63 0 0 1 5.35 3.82l15.25 45.18v.14a5.64 5.64 0 0 1 -3.57 7 6 6 0 0 1 -1.74.29z" fill="#e8a723"/><path d="m28.23 64a5.61 5.61 0 0 1 -5.36-3.81l-15.21-45.19a5.59 5.59 0 0 1 3.5-7.09 5.44 5.44 0 0 1 1.74-.3 5.61 5.61 0 0 1 5.37 3.82l15.24 45.17a5.58 5.58 0 0 1 -3.51 7.09 6.34 6.34 0 0 1 -1.73.3z" fill="#3eb890"/><path d="m43.34 46.21 10.59-3.62-3.5-10.29-10.63 3.58z" fill="#cc2027"/><path d="m20.76 53.94 10.61-3.64-3.5-10.37-10.61 3.59z" fill="#361238"/><path d="m35.79 23.79 10.59-3.63-3.38-10.16-10.67 3.56z" fill="#65863a"/><path d="m13.21 31.5 10.61-3.62-3.47-10.31-10.58 3.56z" fill="#1a937d"/></svg>