<svg id="Ebene_1" data-name="Ebene 1" xmlns="http://www.w3.org/2000/svg" viewBox="0 0 50 50"><defs><style>.cls-1{fill:#1873b4;}</style></defs><title>tutorials_50x50px</title><path class="cls-1" d="M46.85,34.43H50v6.25a3.07,3.07,0,0,1-.88,2.2,3,3,0,0,1-2.25.93H3.1a3,3,0,0,1-2.19-.93A3,3,0,0,1,0,40.68V9.43A3,3,0,0,1,.91,7.18,3.1,3.1,0,0,1,3.1,6.31h9.38V9.43H3.1V40.68H46.85ZM35.92,46.93a1.38,1.38,0,0,1,1.56,1.56A1.61,1.61,0,0,1,37,49.57a1.46,1.46,0,0,1-1.12.49H14a1.69,1.69,0,0,1-1.56-1.57A1.43,1.43,0,0,1,13,47.37,1.57,1.57,0,0,1,14,46.93ZM46.85.06a2.93,2.93,0,0,1,1.81.48,3.32,3.32,0,0,1,.93,1.08A3.06,3.06,0,0,1,50,3.18v25A2.91,2.91,0,0,1,49.49,30a3.14,3.14,0,0,1-1.07.92,3,3,0,0,1-1.57.4H40.6a9.44,9.44,0,0,0-2.05.24,12.53,12.53,0,0,0-2.1.68c-.68.3-1.3.59-1.85.88a9.07,9.07,0,0,0-1.32.83,1.16,1.16,0,0,0-.24.3.6.6,0,0,1-.25.19v-.1l-.1.1a.77.77,0,0,1-.14-.19.6.6,0,0,0-.25-.2,21.81,21.81,0,0,0-3.22-1.81,8.48,8.48,0,0,0-4.1-.92H18.73a3,3,0,0,1-1.56-.4A3.17,3.17,0,0,1,16.09,30a3,3,0,0,1-.49-1.81v-25A3.06,3.06,0,0,1,16,1.62,3.52,3.52,0,0,1,16.87.54,2.92,2.92,0,0,1,18.73.06H28.1a4,4,0,0,1,3.13,1.17,22.31,22.31,0,0,1,1.56,1.85c.33-.45.85-1.07,1.56-1.85a3.92,3.92,0,0,1,3-1.17h9.47ZM31.23,6.31a4,4,0,0,0-1-1.57,6,6,0,0,0-1.85-1A11.59,11.59,0,0,0,25,3.18H18.73V25.06H25a7.94,7.94,0,0,1,2.29.53,11.12,11.12,0,0,1,2,1,11.31,11.31,0,0,1,1.95,1.56ZM46.85,3.18H40.6a12.74,12.74,0,0,0-3.51.54,4.84,4.84,0,0,0-1.86,1,3.21,3.21,0,0,0-.88,1.57V28.18a11,11,0,0,1,2-1.56,10.7,10.7,0,0,1,2-1,8,8,0,0,1,2.29-.53h6.25V3.18Z"/></svg>