<svg viewBox="0 0 48 48" xmlns="http://www.w3.org/2000/svg"><g fill="#1875b6"><path d="m40 32.5h-36v-20a3 3 0 0 1 3-3h9v-2h-9a5 5 0 0 0 -5 5v23a5 5 0 0 0 5 5h30a5 5 0 0 0 5-5v-5h-2zm-3 6h-30a3 3 0 0 1 -3-3v-1h36v1a3 3 0 0 1 -3 3z"/><path d="m34.63 6.18-2.63 1.32-.92-.5a26.44 26.44 0 0 0 -13.08-3.5v24a26.44 26.44 0 0 1 13.08 3.5l.92.53 2.63-1.32a25.51 25.51 0 0 1 11.37-2.71v-24a25.48 25.48 0 0 0 -11.37 2.68zm-14.63-.6a24.64 24.64 0 0 1 10.09 3.13l.91.52v19.43a28.57 28.57 0 0 0 -11-3.09zm24 20a27.84 27.84 0 0 0 -10.26 2.82l-.74.37v-19.53l2.53-1.24a23.47 23.47 0 0 1 8.47-2.41z"/><path d="m16 42.5h12v2h-12z"/></g></svg>