<svg id="Ebene_1" data-name="Ebene 1" xmlns="http://www.w3.org/2000/svg" viewBox="0 0 50 50"><defs><style>.cls-1{fill:#2088c9;}.cls-2{fill:#fff;}.cls-12,.cls-3{fill:#c3e2e3;}.cls-10,.cls-3,.cls-4,.cls-9{stroke:#fff;}.cls-10,.cls-3,.cls-4,.cls-7,.cls-9{stroke-miterlimit:10;}.cls-13,.cls-4{fill:#8dcbcb;}.cls-5{fill:#ffcf0d;}.cls-6{fill:#db9901;}.cls-7,.cls-8{fill:#e53c1e;}.cls-7{stroke:#e53b20;stroke-width:0.25px;}.cls-9{fill:none;}.cls-10{fill:#ececec;}.cls-11{fill:#10928e;}</style></defs><title>Rakete_Zeichenfläche 1-28</title><ellipse class="cls-1" cx="25.08" cy="25.68" rx="23.47" ry="22.46"/><polygon class="cls-2" points="15.98 13.06 15.4 10.88 9.28 12.5 9.28 12.5 7.1 13.08 7.1 13.08 7.08 13.08 7.66 15.26 7.67 15.26 9.29 21.39 11.47 20.82 9.85 14.68 15.98 13.06"/><polygon class="cls-2" points="37.15 34.22 37.72 36.39 43.85 34.77 43.85 34.78 46.02 34.2 46.02 34.2 46.04 34.19 45.46 32.02 45.45 32.02 43.83 25.88 41.65 26.46 43.27 32.59 37.15 34.22"/><path class="cls-3" d="M16.81,23.86a15.1,15.1,0,0,0-8.67,8s-.46,1.18.27,1.72a1,1,0,0,0,1,.09c1-.39,3.92-1.45,6.18-1.07Z"/><path class="cls-4" d="M32.11,31.18s-.18,5.41-.37,7.21a11.91,11.91,0,0,1-1.41,4.77c-.81,1.08-1.64,0-1.82-.4-.27-.67-.38-2.16-.67-2.82a10.38,10.38,0,0,0-1.86-2Z"/><path class="cls-5" d="M17,35.75l-2.22-2.22s-4.19,5.09-1.31,15.79l4.19-8.38S14.46,39.43,17,35.75Z"/><path class="cls-6" d="M17.64,40.94s3.44,1.82,4.55-2.55l3,.27A17.63,17.63,0,0,1,13.45,49.32Z"/><path class="cls-7" d="M29.05,3.89,30.87,5.5l3.5,2.29L37.93,1S34,.32,29.05,3.89Z"/><path class="cls-8" d="M34.37,7.79s3.47,1.75,6.09,1.75c0,0,0-6.26-2.53-8.55Z"/><circle class="cls-5" cx="30.5" cy="15.57" r="2.62"/><path class="cls-4" d="M26.06,28.69,24.64,28a.35.35,0,0,1-.17-.48l10-19.74,6,1.79a18.17,18.17,0,0,1-.3,3.86A36,36,0,0,1,38.39,19c-2.44,5.9-6.28,12.33-9.1,15,0,0-4.47-.12-5.42-.73Z"/><path class="cls-9" d="M17.08,23.79s4-13.45,12-19.9A14,14,0,0,1,37.93,1s2,1.15,2.69,8.68S32.08,31,32.08,31l-6.19,6.79-3.7-.53s-1.38,2.85-2.26,3.11-3-.27-3.05-1.89A11.2,11.2,0,0,1,18,35.29L15.6,32.6Z"/><path class="cls-10" d="M22.58,26.92l1.49.89a.19.19,0,0,0,.26-.08l9.91-19.9a.19.19,0,0,0-.06-.23L29.42,4a.18.18,0,0,0-.22,0,16.81,16.81,0,0,0-2.82,2.45A36.17,36.17,0,0,0,23,11.12c-3.29,5.42-6.06,12.11-6.59,16a.18.18,0,0,0,0,.13A22.26,22.26,0,0,0,20,31a.18.18,0,0,0,.25-.07l2.07-4A.19.19,0,0,1,22.58,26.92Z"/><circle class="cls-11" cx="30.55" cy="15.42" r="4.04"/><circle class="cls-5" cx="30.55" cy="15.57" r="2.62"/><path class="cls-2" d="M29,5.6l-.19-.23L29,5.18l.18.24A2.69,2.69,0,0,0,29,5.6Z"/><path class="cls-2" d="M27.25,7.24,27,7l.42-.44.22.22C27.53,6.94,27.4,7.08,27.25,7.24Zm.84-.85-.21-.22c.16-.16.31-.29.45-.41l.2.23Z"/><path class="cls-2" d="M17.71,26.27l-.29-.07.15-.58.3.07C17.81,25.88,17.76,26.08,17.71,26.27ZM18,25.12,17.73,25c.05-.2.11-.39.16-.58l.29.08C18.13,24.73,18.07,24.92,18,25.12ZM18.35,24l-.29-.09c.06-.19.12-.39.17-.58l.29.09C18.47,23.58,18.41,23.77,18.35,24Zm.35-1.15-.29-.09c.07-.19.13-.38.19-.57l.29.09C18.82,22.44,18.76,22.63,18.7,22.82Zm.38-1.13-.29-.1L19,21l.28.1C19.21,21.31,19.14,21.5,19.08,21.69Zm.4-1.13-.29-.1.21-.57.29.11Zm.42-1.12-.28-.11c.08-.19.15-.37.22-.56l.28.12C20.05,19.07,20,19.26,19.9,19.44Zm.45-1.1-.28-.12.24-.55.28.12Zm.48-1.1-.28-.12c.09-.19.17-.37.26-.55l.27.13Zm.51-1.08L21.06,16q.14-.29.27-.54l.27.13C21.51,15.8,21.42,16,21.34,16.16Zm.53-1.07L21.6,15c.09-.18.18-.36.28-.53l.26.14ZM22.43,14l-.27-.14.3-.53.26.15ZM23,13l-.26-.15.31-.52.26.16Zm.62-1-.25-.16c.1-.17.21-.34.32-.5l.25.16C23.86,11.64,23.75,11.8,23.64,12Zm.66-1L24,10.81c.12-.17.23-.34.35-.5l.24.17ZM25,10l-.24-.18.36-.48.24.18Q25.16,9.75,25,10Zm.72-.95-.24-.19.38-.47.24.19C26,8.73,25.83,8.89,25.7,9.05Zm.76-.93-.23-.19c.13-.16.27-.31.4-.46l.22.21Z"/><polygon class="cls-2" points="17.49 27.43 17.18 27.17 17.27 26.78 17.57 26.86 17.52 27.06 17.68 27.19 17.49 27.43"/><path class="cls-2" d="M19.13,28.79l-.41-.34.2-.23.41.34Zm-.82-.68-.41-.34.19-.24.41.34Z"/><path class="cls-2" d="M19.92,29.44l-.37-.31.19-.23.1.08s0-.07.06-.11l.26.16-.15.25Z"/><path class="cls-2" d="M20.34,28.72l-.26-.15.18-.3.26.15Zm.37-.6L20.45,28l.19-.3.25.17Z"/><path class="cls-2" d="M21.08,27.53l-.25-.16.19-.3.25.17Zm.39-.58-.25-.18c.07-.1.14-.19.2-.29l.25.18C21.6,26.75,21.54,26.85,21.47,27Zm.4-.57-.24-.19.23-.28.23.2Z"/><path class="cls-2" d="M22.32,25.86l-.21-.22a.53.53,0,0,1,.35-.2v.3h0A1.66,1.66,0,0,0,22.32,25.86Z"/><path class="cls-2" d="M19.6,40.39l-1.43-.22a.6.6,0,0,1-.38-.21l-.71-.85c-.21-.11-.2-1.06-.09-1.27l1.07-2.67,0-.06,4.11-7.76c.26-.74.79-.13,1,0l2.55,1.39c.3,0,.18.25,0,.44a.64.64,0,0,0-.08.14l-3.63,7.86a.6.6,0,0,0-.06.19C22,37.92,20.23,40.53,19.6,40.39Z"/><rect class="cls-12" x="20" y="27.22" width="1.39" height="11.92" rx="0.62" transform="translate(17.35 -5.78) rotate(27.04)"/><rect class="cls-13" x="21.22" y="27.87" width="1.39" height="11.92" rx="0.62" transform="translate(17.78 -6.26) rotate(27.04)"/><path class="cls-4" d="M23.67,33.28l-1.8,3.83,4,.58L29,34.16S25.32,34.19,23.67,33.28Z"/><path class="cls-3" d="M20.26,31.34a23,23,0,0,1-3.68-3.71l-.81,5,2.42,2.67Z"/><rect class="cls-2" x="23.29" y="28.04" width="2.73" height="0.35" transform="translate(15.99 -8.24) rotate(27.78)"/></svg>