<svg id="Ebene_1" data-name="Ebene 1" xmlns="http://www.w3.org/2000/svg" xmlns:xlink="http://www.w3.org/1999/xlink" viewBox="0 0 50 50"><defs><style>.cls-1{fill:none;}.cls-2{fill:#004289;}.cls-3{fill:#af1280;}.cls-4,.cls-5,.cls-6{fill:#fbba00;}.cls-4{opacity:0.4;}.cls-5{opacity:0.7;}.cls-7{clip-path:url(#clip-path);}.cls-8{clip-path:url(#clip-path-2);}.cls-9{clip-path:url(#clip-path-3);}</style><clipPath id="clip-path"><path class="cls-1" d="M42,17.6a11,11,0,0,0-9-8.83L33.31,7A12.77,12.77,0,0,1,43.78,17.28Z"/></clipPath><clipPath id="clip-path-2"><path class="cls-1" d="M45.3,15.14a11,11,0,0,0-9-8.83l.29-1.77A12.77,12.77,0,0,1,47.06,14.82Z"/></clipPath><clipPath id="clip-path-3"><path class="cls-1" d="M39.1,20.24a11,11,0,0,0-9-8.82l.29-1.78A12.78,12.78,0,0,1,40.87,19.92Z"/></clipPath></defs><title>education</title><path class="cls-2" d="M18,12.32V9.87a4,4,0,0,1-2.16-.59A1.75,1.75,0,0,1,15,7.81V4.71a1.76,1.76,0,0,1,.87-1.45A3.54,3.54,0,0,1,18,2.65h7.39a3.49,3.49,0,0,1,2.07.61,1.75,1.75,0,0,1,.88,1.45v3.1a1.74,1.74,0,0,1-.88,1.47,3.62,3.62,0,0,1-2.07.59l-5.3,0-2,4Z"/><path class="cls-2" d="M16.45,25.55a6.25,6.25,0,0,1,2.46.5A6.41,6.41,0,0,1,21,27.42a6.54,6.54,0,0,1,1.37,2,6.26,6.26,0,0,1,.49,2.47V38.3H3.69V31.93a6.27,6.27,0,0,1,.5-2.47,6.37,6.37,0,0,1,1.37-2,6.51,6.51,0,0,1,2-1.37,6.19,6.19,0,0,1,2.49-.5h6.38Zm3.19-6.38a6.19,6.19,0,0,1-.5,2.49,6.41,6.41,0,0,1-5.88,3.89,6.19,6.19,0,0,1-2.49-.5,6.48,6.48,0,0,1-3.39-3.39,6.19,6.19,0,0,1-.5-2.49,6.25,6.25,0,0,1,.5-2.46,6.41,6.41,0,0,1,1.37-2.05,6.56,6.56,0,0,1,2-1.37,6.19,6.19,0,0,1,2.49-.5,6.34,6.34,0,0,1,2.47.5,6.54,6.54,0,0,1,2,1.37,6.41,6.41,0,0,1,1.37,2.05A6.25,6.25,0,0,1,19.64,19.17Z"/><path class="cls-3" d="M32.81,30.47a7.76,7.76,0,0,1,3.09.63,7.88,7.88,0,0,1,4.27,4.27,7.71,7.71,0,0,1,.62,3.08v8H16.85v-8a7.72,7.72,0,0,1,.63-3.08,7.88,7.88,0,0,1,1.71-2.56,8.13,8.13,0,0,1,2.53-1.71,7.62,7.62,0,0,1,3.11-.63h8Zm4-8a7.66,7.66,0,0,1-.62,3.12,8.31,8.31,0,0,1-1.71,2.53,8,8,0,0,1-2.56,1.71,7.75,7.75,0,0,1-3.09.62,7.61,7.61,0,0,1-3.11-.62,8.13,8.13,0,0,1-2.53-1.71,8,8,0,0,1-1.71-2.53,7.94,7.94,0,0,1,0-6.2,7.88,7.88,0,0,1,1.71-2.56,8,8,0,0,1,2.53-1.71,7.62,7.62,0,0,1,3.11-.63,7.76,7.76,0,0,1,3.09.63,7.88,7.88,0,0,1,2.56,1.71,8.21,8.21,0,0,1,1.71,2.56A7.67,7.67,0,0,1,36.8,22.49Z"/><path class="cls-4" d="M16.84,40.94V38.58a8.93,8.93,0,0,1,.47-2.81h23a8.53,8.53,0,0,1,.43,2.12c0,.72,0,3.21,0,3.21H16.84Z"/><path class="cls-5" d="M40.35,35.77h-23s1.66-6.26,10.12-5.3c0,0,4.38-.12,5.84,0A7.78,7.78,0,0,1,40.35,35.77Z"/><circle class="cls-6" cx="28.76" cy="22.46" r="8.04"/><g class="cls-7"><path class="cls-3" d="M36.14,20.89A8,8,0,0,1,28,17.36a7.75,7.75,0,0,1-1.16-2.92l-1.4-7.86L49,2.36l1.41,7.86a7.72,7.72,0,0,1-.07,3.14,8.11,8.11,0,0,1-3.42,5,7.88,7.88,0,0,1-3,1.16l-3.93.7Z"/><path class="cls-4" d="M50,7.77l.42,2.32a9.19,9.19,0,0,1,0,2.85L27.79,17a8.81,8.81,0,0,1-.8-2c-.15-.7-.58-3.16-.58-3.16L50,7.61Z"/><path class="cls-5" d="M27.79,17l22.69-4.06s-.54,6.46-9,7c0,0-4.29.89-5.74,1A7.79,7.79,0,0,1,27.79,17Z"/></g><g class="cls-8"><path class="cls-3" d="M39.43,18.43a7.94,7.94,0,0,1-3.15-.07,8,8,0,0,1-5-3.46A7.75,7.75,0,0,1,30.16,12l-1.4-7.86L52.32-.1l1.41,7.86a7.72,7.72,0,0,1-.07,3.14,8.11,8.11,0,0,1-3.42,5,7.88,7.88,0,0,1-3,1.16l-3.93.7Z"/><path class="cls-4" d="M53.3,5.31l.42,2.32a9.19,9.19,0,0,1,0,2.85L31.07,14.54a8.81,8.81,0,0,1-.8-2c-.15-.7-.57-3.16-.57-3.16L53.27,5.15Z"/><path class="cls-5" d="M31.07,14.54l22.69-4.06s-.54,6.46-9,7c0,0-4.29.89-5.74,1A7.77,7.77,0,0,1,31.07,14.54Z"/></g><g class="cls-9"><path class="cls-3" d="M33.23,23.53a8,8,0,0,1-3.15-.07,8.13,8.13,0,0,1-2.82-1.24A8.34,8.34,0,0,1,25.12,20,7.85,7.85,0,0,1,24,17.08L22.56,9.22,46.13,5l1.4,7.86A7.77,7.77,0,0,1,47.46,16a7.92,7.92,0,0,1-1.23,2.82A8.22,8.22,0,0,1,44,21a7.65,7.65,0,0,1-3,1.16l-3.92.7Z"/><path class="cls-4" d="M47.11,10.41l.41,2.33a8.78,8.78,0,0,1,0,2.84L24.87,19.64a9,9,0,0,1-.79-2c-.15-.7-.58-3.16-.58-3.16l23.58-4.22Z"/><path class="cls-5" d="M24.87,19.64l22.69-4.06s-.53,6.46-9,7c0,0-4.28.89-5.74,1A7.8,7.8,0,0,1,24.87,19.64Z"/></g></svg>