<svg version="1.1" id="Ebene_1" xmlns="http://www.w3.org/2000/svg" x="0" y="0" viewBox="0 0 1077.2 651.5" style="enable-background:new 0 0 1077.2 651.5;" xml:space="preserve">
  <style>
    .st0{fill:#7D7D7D;}
		.st1{fill:none;stroke:#E60064;stroke-width:65.8014;stroke-linecap:round;stroke-linejoin:round;stroke-miterlimit:10;}
		.st2{fill:none;stroke:#E60064;stroke-width:71.7264;stroke-linecap:round;stroke-linejoin:round;stroke-miterlimit:10;}
  </style>
  <path class="st0" d="M7 619c3-3.7 8.5-4.2 12.1-1.2 7.3 6 19.9 13.1 31.7 12.9 8.3 0 15.8-2.5 20.8-6.2s7.1-7.9 7.1-12c0-2.2-.5-3.7-1.5-5.4-1-1.7-2.5-3.4-5-5-4.8-3.2-13-6-22.8-7.9h-.3c-7.8-1.5-15.1-3.5-21.4-6.5s-11.8-7.2-15.4-13.1c-2.5-4-3.8-8.7-3.8-13.7 0-10 5.6-18.7 13.3-24.4 7.8-5.7 17.9-8.9 28.7-8.9 15.9 0 27.7 7.9 36.2 13.4 3.8 2.7 5 8 2.3 11.9-2.5 4-7.8 5.2-11.8 2.5-8.5-5.7-16.6-10.7-26.7-10.7-7.5 0-14.1 2.3-18.6 5.7-4.5 3.4-6.3 7-6.3 10.5 0 2 .3 3.4 1.2 4.7.8 1.3 2.3 2.8 4.5 4.4 4.3 3 11.8 5.7 20.7 7.4h.3c8.5 1.7 16.3 3.9 22.9 7 6.8 3.4 12.8 7.7 16.6 13.9 2.5 4 4 9 4 14.2 0 10.7-6 19.9-14.3 25.9-8.1 6-18.9 9.5-30.7 9.5-17.9-.2-33-9.2-42.5-16.7-3.7-3-4.2-8.5-1.3-12.2zM223.9 545.5c10.3 11 16.8 25.8 16.8 42.3 0 16.6-6.5 31.5-16.8 42.3-9.8 10.9-24.4 17.9-39.7 17.9-15.9 0-30.5-7-40.7-17.9-10.3-10.9-16.4-25.8-16.4-42.3 0-16.6 6.1-31.3 16.4-42.3 10.1-11.1 24.7-17.9 40.7-17.9 15.3 0 29.9 6.9 39.7 17.9zm-2.2 42.4c0-11.4-4.5-21.9-11.3-29.3-7-7.5-16.3-11.9-26.2-11.9-10.6 0-19.9 4.4-26.9 11.9-7 7.4-11.3 17.9-11.3 29.3s4.3 21.9 11.3 29.1c7 7.5 16.3 12.1 26.9 12.1 10 0 19.3-4.5 26.2-12.1 6.8-7.2 11.3-17.8 11.3-29.1zM283.4 638.8V538.6c0-5.1 4-9.3 9.1-9.3s9.3 4.2 9.3 9.3v90.7h45c4.8 0 9.1 4.3 9.1 9.5 0 5.1-4.3 9.3-9.1 9.3h-54.3c-5.1 0-9.1-4.2-9.1-9.3zM432.6 648.1c-26.7 0-48-22.1-48-49.1v-60.5c0-5.3 4-9.3 9.1-9.3 5 0 9.3 4.1 9.3 9.3V599c0 16.6 13.3 30.2 29.6 30.2 16.4 0 29.5-13.6 29.5-30.2v-60.5c0-5.3 4.2-9.3 9.3-9.3 5.2 0 9.1 4.1 9.1 9.3V599c0 27-21.4 49.1-47.9 49.1zM596.5 548.1h-26.4v90.7c0 5.3-4 9.3-9.1 9.3-5 0-9.1-4.1-9.1-9.3v-90.7h-26.2c-5.1 0-9.1-4.4-9.1-9.5 0-5.3 4-9.3 9.1-9.3h70.9c5 0 9.1 4.1 9.1 9.3-.1 5.1-4.2 9.5-9.2 9.5zM645.1 538.6c0-5.3 4-9.3 9.1-9.3 5 0 9.3 4.1 9.3 9.3v100.2c0 5.3-4.3 9.3-9.3 9.3-5.2 0-9.1-4.1-9.1-9.3V538.6zM797.1 545.5c10.3 11 16.8 25.8 16.8 42.3 0 16.6-6.5 31.5-16.8 42.3-9.8 10.9-24.4 17.9-39.7 17.9-15.9 0-30.5-7-40.7-17.9-10.3-10.9-16.4-25.8-16.4-42.3 0-16.6 6.1-31.3 16.4-42.3 10.1-11.1 24.7-17.9 40.7-17.9 15.3 0 29.9 6.9 39.7 17.9zm-2.2 42.4c0-11.4-4.5-21.9-11.3-29.3-7-7.5-16.3-11.9-26.2-11.9-10.6 0-19.9 4.4-26.9 11.9-7 7.4-11.3 17.9-11.3 29.3s4.3 21.9 11.3 29.1c7 7.5 16.3 12.1 26.9 12.1 10 0 19.3-4.5 26.2-12.1 6.9-7.2 11.3-17.8 11.3-29.1zM871.4 638.7c0 5.1-4.1 9.4-9 9.4-5.2 0-9.1-4.3-9.1-9.4v-99.9c-.2-2.9 1.2-6 3.7-7.9 4.1-2.9 9.8-2 12.6 2.1l53.6 76.7V539c0-5 4-9.3 9-9.3s9.1 4.3 9.1 9.3v99.7c0 5.1-4.2 9.4-9.1 9.4-2.7 0-5.2-1.4-6.8-3.4-.3-.3-.7-.7-.8-1l-53.1-76.1v71.1zM988.3 619c3-3.7 8.5-4.2 12.1-1.2 7.3 6 19.9 13.1 31.7 12.9 8.3 0 15.8-2.5 20.8-6.2s7.1-7.9 7.1-12c0-2.2-.5-3.7-1.5-5.4-1-1.7-2.5-3.4-5-5-4.8-3.2-13-6-22.8-7.9h-.3c-7.8-1.5-15.1-3.5-21.4-6.5-6.3-3-11.8-7.2-15.4-13.1-2.5-4-3.8-8.7-3.8-13.7 0-10 5.6-18.7 13.3-24.4 7.8-5.7 17.9-8.9 28.7-8.9 15.9 0 27.7 7.9 36.2 13.4 3.8 2.7 5 8 2.3 11.9-2.5 4-7.8 5.2-11.8 2.5-8.5-5.7-16.6-10.7-26.7-10.7-7.5 0-14.1 2.3-18.6 5.7-4.5 3.4-6.3 7-6.3 10.5 0 2 .3 3.4 1.2 4.7.8 1.3 2.3 2.8 4.5 4.4 4.3 3 11.8 5.7 20.7 7.4h.3c8.5 1.7 16.3 3.9 22.9 7 6.8 3.4 12.8 7.7 16.6 13.9 2.5 4 4 9 4 14.2 0 10.7-6 19.9-14.3 25.9-8.1 6-18.9 9.5-30.7 9.5-17.9-.2-33-9.2-42.5-16.7-3.6-3-4.1-8.5-1.3-12.2z"/>
  <path class="st1" d="M629.7 441.4V36.6h235.8M865.5 250.3H649.4M1042.1 37.2v404.5"/>
  <path class="st2" d="M44.1 439.5 249.9 39.8l206.4 399.7"/>
</svg>