<svg xml:space="preserve" xmlns="http://www.w3.org/2000/svg" viewBox="0 0 377.953 119.176">
  <defs>
    <clipPath clipPathUnits="userSpaceOnUse" id="a">
      <path d="M.015 89.37h283.45V0H.015Z"/>
    </clipPath>
    <clipPath clipPathUnits="userSpaceOnUse" id="b">
      <path d="M.015 89.37h283.45V0H.015Z"/>
    </clipPath>
  </defs>
  <path d="M19.125 96.601h2.987l6.53 14.439 5.315-14.439h4.067l5.319 14.439 6.53-14.439h2.986l-7.615 16.735H41.34l-5.348-14.435-5.348 14.435H26.74l-7.615-16.735M53.297 96.601h2.987l6.53 14.439 5.317-14.439h4.065l5.317 14.439 6.532-14.439h2.986l-7.615 16.735h-3.904l-5.35-14.435-5.346 14.435h-3.905l-7.614-16.735M87.47 96.601h2.986l6.53 14.439 5.317-14.439h4.068l5.314 14.439 6.531-14.439h2.985l-7.613 16.735h-3.904l-5.348-14.435-5.348 14.435h-3.905l-7.614-16.735M127.484 113.337h3.674v-4.067h-3.674ZM140.27 89.579h2.825v3.086h-2.824Zm-2.755 27.301c2.198 0 2.756-.36 2.756-2.035V96.604h2.824v18.67c0 2.362-1.576 3.902-4.463 3.902h-1.117v-2.296M148.173 107.561h2.626v.82c0 2.067 1.084 2.92 3.969 2.92h6.04c4.23 0 5.577-.164 5.577-2.658v-.129c0-1.61-.46-2.493-3.838-2.493h-8.696c-3.971 0-5.447-1.281-5.447-4.464v-.985c0-2.723 1.543-4.23 8.497-4.23h4.331c6.368 0 7.253 1.834 7.253 4.198v.883h-2.625v-.16c0-2.562-1.705-2.627-4.792-2.627h-4.92c-4.035 0-4.924.393-4.924 2.297v.624c0 1.376.461 2.166 3.413 2.166h7.451c4.23 0 7.12.426 7.12 4.954v.067c0 4.69-4.333 4.856-7.78 4.856h-5.181c-4.17 0-8.074 0-8.074-5.022v-1.017M173.919 105.952h9.185v-2.623h-9.185zM187.821 107.561h2.628v.82c0 2.067 1.082 2.92 3.968 2.92h6.039c4.23 0 5.576-.164 5.576-2.658v-.129c0-1.61-.46-2.493-3.836-2.493h-8.697c-3.97 0-5.447-1.281-5.447-4.464v-.985c0-2.723 1.543-4.23 8.5-4.23h4.328c6.368 0 7.252 1.834 7.252 4.198v.883h-2.623v-.16c0-2.562-1.706-2.627-4.792-2.627h-4.921c-4.035 0-4.924.393-4.924 2.297v.624c0 1.376.463 2.166 3.416 2.166h7.448c4.23 0 7.12.426 7.12 4.954v.067c0 4.69-4.332 4.856-7.779 4.856h-5.181c-4.17 0-8.075 0-8.075-5.022v-1.017M232.697 103.296c0-3.905-2.297-4.659-5.578-4.659h-5.743c-3.279 0-5.579.754-5.579 4.659v3.346c0 3.905 2.3 4.66 5.579 4.66h5.743c3.281 0 5.578-.755 5.578-4.66zm-19.721-.165c0-5.511 3.905-6.791 9.255-6.791h4.033c5.35 0 9.253 1.28 9.253 6.79v3.676c0 5.515-3.904 6.793-9.253 6.793h-4.033c-5.35 0-9.255-1.278-9.255-6.793v-3.675M242.167 98.9h-3.643v-2.299h3.643v-1.476c0-3.97 2.426-5.546 5.512-5.546h5.281v2.298h-5.052c-2.101 0-2.921 1.182-2.921 2.659v2.065h7.973V98.9h-7.973v14.436h-2.82V98.9M257.973 98.9h-3.677v-2.299h3.677v-3.969h2.82v3.97h11.191V98.9h-11.19v8.332c0 3.119 1.085 4.068 4.169 4.068h.882c3.74 0 4.335-.785 4.335-4.296v-1.248h2.295v1.838c0 3.348-.328 6.006-6.431 6.006h-1.543c-5.281 0-6.528-2.56-6.528-5.283V98.9M279.324 113.337h3.673v-4.067h-3.673zM290.961 103.099c0-6.072 4.268-6.759 8.402-6.759h4.722c5.251 0 7.32 2.132 7.32 5.676v.459h-2.624v-.395c0-2.787-1.84-3.445-4.658-3.445h-5.188c-2.655 0-5.148.394-5.148 4.564v3.508c0 3.742 2.294 4.594 5.706 4.594h4.758c2.625 0 4.824-.787 4.824-3.51v-.558h2.625v.49c0 4.236-2.1 5.877-7.35 5.877h-6.366c-2.528 0-7.023-.69-7.023-6.762v-3.74M335.179 103.296c0-3.905-2.298-4.659-5.579-4.659h-5.741c-3.283 0-5.578.754-5.578 4.659v3.346c0 3.905 2.295 4.66 5.578 4.66h5.741c3.281 0 5.579-.755 5.579-4.66zm-19.723-.165c0-5.511 3.907-6.791 9.256-6.791h4.033c5.35 0 9.255 1.28 9.255 6.79v3.676c0 5.515-3.905 6.793-9.255 6.793h-4.033c-5.35 0-9.256-1.278-9.256-6.793v-3.675M342.745 96.601h2.623v1.971h.068c1.18-1.741 2.788-2.232 5.61-2.232h4.56c2.56 0 4.53 1.016 5.413 3.084 1.05-2.265 3.317-3.084 6.204-3.084h3.41c4.528 0 7.32 1.967 7.32 5.775v11.221h-2.822v-10.893c0-1.936-.854-3.808-5.348-3.808h-2.003c-5.085 0-5.773 2.101-5.773 4.793v9.908h-2.824v-10.137c0-3.25-1.016-4.564-5.514-4.564h-2.821c-3.608 0-5.283 1.51-5.283 4.2v10.501h-2.82V96.601M19.125 80.212h358.828M19.125 81.157h358.828v-1.89H19.125Z" fill="#6a6f77"/>
  <g clip-path="url(#a)" transform="matrix(1.33333 0 0 -1.33333 0 119.176)">
    <path d="M0 28.491h2.295c5.94 0 9.18 3.175 9.18 8.034v38.412H5.67V37.4c0-3.439-1.149-4.183-5.67-4.183Zm5.67 54.545h5.804v6.345H5.67Z" fill="#223262"/>
  </g>
  <path d="m61.227 65.445 1.534-2.844-6.221-2.956c.128-.688.212-1.377.212-1.992V51.78h-3.917v6.216L29.057 46.668c-1.449-.687-1.492-1.532-1.492-3.336 0-1.804.682-2.92 3.964-2.92h13.846c2.261 0 4.052.81 4.052 3.381v2.067h3.921v-2.3c0-3.797-2.048-6.219-8.015-6.219H30.295c-4.051 0-6.904 1.615-6.904 5.61 0 3.948.553 4.332 3.364 5.985v.077c-6.094 0-7.543 2.494-7.543 7.602 0 6.37 2.263 9.134 11.168 9.134h14.91c4.177 0 8.267-.382 10.187-2.994zm-9.586-4.34c-.469 1.154-2.898 1.575-6.905 1.575H30.464c-6.135 0-7.073-1.995-7.073-5.184v-1.879c0-4.454 3.964-4.834 5.068-4.834h1.278l21.904 10.322M316.544 56.259v2.581h4.476v.637c0 3.366-.996 3.436-4.241 3.436-3.787 0-4.355-.377-4.402-4.1v-4.07c.047-3.435.431-4.052 4.402-4.052 2.964 0 4.241-.022 4.241 2.582h3.383c.118-5.705-3.284-5.489-7.624-5.489-5.49 0-7.804 1.039-7.804 6.959v4.07c0 6.012 2.126 7.011 7.804 7.011 6.325 0 7.646-1.088 7.646-6.347V56.26zm10.323-3.007v12.427h2.981v-7.006c0-2.204.477-3.294 2.89-3.294 1.634 0 2.013.617 2.086 2.178v8.122h2.983v-7.006c0-2.204.47-3.294 2.888-3.294 1.63 0 2.012.617 2.081 2.178v8.122h2.983v-8.402c0-3.052-1.063-4.165-4.284-4.165-1.66 0-3.363.47-3.932 2.196h-.09c-.334-1.795-2.13-2.196-3.694-2.196-1.566 0-3.248.355-3.911 1.936h-.096v-1.796Zm27.724 2.127c2.057 0 2.648.594 2.648 3.722 0 2.819.077 4.455-2.648 4.455-3.058 0-2.984-1.496-2.984-4.455 0-2.653.4-3.722 2.984-3.722m-5.966 10.3h2.982l-.12-1.866h.096c.758 1.632 2.133 2.011 3.884 2.011 4.613 0 4.756-2.91 4.756-6.723 0-3.649-.494-5.989-4.756-5.989-1.516 0-3.104.285-3.743 1.793h-.117v-6.977h-2.982Zm29.327-17.751h-3.404v7.27h-8.263v-7.27h-3.409v17.75h3.41v-7.575h8.262v7.576h3.404V47.928" fill="#6a6f77"/>
  <g clip-path="url(#b)" transform="matrix(1.33333 0 0 -1.33333 0 119.176)">
    <path d="M47.935 50.296c0-10.329 8.034-10.329 16.609-10.329h10.663c7.088 0 15.998.336 15.998 9.993v.132c0 9.317-5.939 10.196-14.648 10.196H61.234c-6.076 0-7.019 1.617-7.019 4.454v1.282c0 3.913 1.822 4.723 10.125 4.723h10.126c6.342 0 9.854-.134 9.854-5.398v-.338h5.398v1.825c0 4.857-1.822 8.64-14.914 8.64h-8.911c-14.311 0-17.485-3.106-17.485-8.71v-2.024c0-6.55 3.039-9.18 11.208-9.18h17.886c6.951 0 7.899-1.826 7.899-5.131v-.27c0-5.131-2.768-5.467-11.477-5.467h-12.42c-5.939 0-8.168 1.756-8.168 6.006v1.687h-5.401Zm47.253 5.402h18.901v5.399H95.188Zm24.231-5.402c0-10.329 8.031-10.329 16.607-10.329h10.663c7.088 0 15.998.336 15.998 9.993v.132c0 9.317-5.938 10.196-14.648 10.196h-15.322c-6.075 0-7.02 1.617-7.02 4.454v1.282c0 3.913 1.822 4.723 10.126 4.723h10.124c6.347 0 9.856-.134 9.856-5.398v-.338h5.399v1.825c0 4.857-1.82 8.64-14.917 8.64h-8.91c-14.311 0-17.483-3.106-17.483-8.71v-2.024c0-6.55 3.037-9.18 11.205-9.18h17.89c6.95 0 7.896-1.826 7.896-5.131v-.27c0-5.131-2.765-5.467-11.477-5.467h-12.417c-5.943 0-8.169 1.756-8.169 6.006v1.687h-5.401zm47.385 3.646c0-11.343 8.035-13.975 19.038-13.975h8.301c11.007 0 19.038 2.632 19.038 13.975v7.561c0 11.337-8.031 13.973-19.038 13.973h-8.301c-11.003 0-19.038-2.636-19.038-13.973zm40.573.336c0-8.033-4.722-9.584-11.478-9.584h-11.812c-6.751 0-11.475 1.551-11.475 9.584v6.887c0 8.032 4.724 9.582 11.475 9.582h11.812c6.756 0 11.478-1.55 11.478-9.582zm14.446-13.772h5.805v29.702h16.403v4.726h-16.403v4.253c0 3.038 1.686 5.468 6.009 5.468h10.394v4.724h-10.869c-6.342 0-11.339-3.239-11.339-11.407v-3.038h-7.492v-4.726h7.492V40.506" fill="#223262"/>
  </g>
  <path d="M347.261 25.565h30.691v-6.298h-30.69V8.375h-7.737v10.892h-10.084v6.298h10.084v22.363h7.736" fill="#223262"/>
</svg>
