<?xml version="1.0" encoding="UTF-8" standalone="no"?>
<!DOCTYPE svg PUBLIC "-//W3C//DTD SVG 1.1//EN" "http://www.w3.org/Graphics/SVG/1.1/DTD/svg11.dtd">
<svg width="100%" height="100%" viewBox="0 0 158 33" version="1.1" xmlns="http://www.w3.org/2000/svg" xmlns:xlink="http://www.w3.org/1999/xlink" xml:space="preserve" xmlns:serif="http://www.serif.com/" style="fill-rule:evenodd;clip-rule:evenodd;stroke-linejoin:round;stroke-miterlimit:2;">
    <g transform="matrix(0.486639,0,0,0.486639,-8.71676,-10.4112)">
        <circle cx="53.9" cy="58.9" r="21.3" style="fill:white;"/>
    </g>
    <g transform="matrix(0.486639,0,0,0.486639,-8.71676,-10.4112)">
        <path d="M109.2,66.9C109.2,67.1 109.2,67.4 109.1,67.6C109,67.8 108.9,68 108.7,68.1C108.5,68.2 108.4,68.3 108.2,68.4C108,68.5 107.8,68.5 107.6,68.5L105.8,68.5C105.4,68.5 105.1,68.5 104.8,68.4C104.5,68.3 104.3,68.2 104,68C103.8,67.8 103.5,67.5 103.3,67.2C103.1,66.9 102.8,66.4 102.6,65.9L97.4,56.1C97.1,55.5 96.8,54.9 96.5,54.2C96.2,53.5 95.9,52.9 95.7,52.2C95.7,53 95.8,53.8 95.8,54.5L95.8,67.9C95.8,68 95.8,68.1 95.7,68.2C95.6,68.3 95.5,68.4 95.4,68.4C95.3,68.5 95.1,68.5 94.8,68.5L92.9,68.5C92.7,68.5 92.5,68.4 92.3,68.4C92.2,68.3 92.1,68.3 92,68.2C91.9,68.1 91.9,68 91.9,67.9L91.9,48.9C91.9,48.4 92,48 92.3,47.8C92.6,47.5 93,47.4 93.4,47.4L95.7,47.4C96.1,47.4 96.5,47.4 96.7,47.5C97,47.6 97.2,47.7 97.5,47.8C97.7,48 97.9,48.2 98.1,48.5C98.3,48.8 98.5,49.1 98.7,49.6L102.8,57.3C103,57.8 103.3,58.2 103.5,58.7C103.7,59.1 104,59.6 104.2,60C104.4,60.4 104.6,60.9 104.8,61.3C105,61.7 105.2,62.2 105.4,62.6C105.4,61.8 105.3,61.1 105.3,60.2L105.3,48C105.3,47.9 105.3,47.8 105.4,47.7C105.5,47.6 105.6,47.5 105.7,47.5C105.9,47.4 106.1,47.4 106.3,47.4L108.2,47.4C108.4,47.4 108.6,47.5 108.8,47.5C108.9,47.6 109,47.6 109.1,47.7C109.2,47.8 109.2,47.9 109.2,48L109.2,66.9Z" style="fill:rgb(0,62,82);fill-rule:nonzero;"/>
    </g>
    <g transform="matrix(0.486639,0,0,0.486639,-8.71676,-10.4112)">
        <path d="M123.1,59C123.1,57.9 122.9,57 122.4,56.3C121.9,55.6 121.1,55.3 120.1,55.3C119.6,55.3 119.1,55.4 118.7,55.6C118.3,55.8 118,56.1 117.7,56.4C117.4,56.7 117.3,57.1 117.1,57.6C117,58 116.9,58.5 116.9,59L123.1,59ZM127.1,60.1C127.1,60.6 127,61 126.8,61.2C126.6,61.4 126.3,61.6 125.9,61.6L117,61.6C117,62.2 117.1,62.8 117.2,63.3C117.3,63.8 117.6,64.2 117.9,64.6C118.2,65 118.6,65.2 119.1,65.4C119.6,65.6 120.2,65.7 120.9,65.7C121.6,65.7 122.2,65.6 122.8,65.5C123.3,65.4 123.8,65.3 124.2,65.2C124.6,65.1 124.9,65 125.2,64.9C125.5,64.8 125.7,64.7 125.8,64.7C125.9,64.7 126,64.7 126,64.8C126.1,64.8 126.1,64.9 126.2,65C126.2,65.1 126.3,65.2 126.3,65.4L126.3,67.1C126.3,67.2 126.2,67.3 126.2,67.4C126.2,67.5 126.1,67.6 126,67.6C125.9,67.7 125.7,67.8 125.4,67.9C125.1,68 124.7,68.2 124.2,68.3C123.7,68.4 123.2,68.5 122.5,68.6C121.9,68.7 121.2,68.7 120.5,68.7C119.2,68.7 118.1,68.5 117.1,68.2C116.1,67.9 115.3,67.4 114.7,66.7C114.1,66 113.6,65.2 113.2,64.2C112.9,63.2 112.7,62 112.7,60.7C112.7,59.4 112.9,58.2 113.2,57.2C113.5,56.2 114,55.3 114.7,54.6C115.4,53.9 116.1,53.3 117,53C117.9,52.6 118.9,52.4 120.1,52.4C121.3,52.4 122.3,52.6 123.2,52.9C124.1,53.3 124.8,53.8 125.3,54.4C125.9,55 126.3,55.8 126.5,56.7C126.8,57.6 126.9,58.5 126.9,59.5L126.9,60.1L127.1,60.1Z" style="fill:rgb(0,62,82);fill-rule:nonzero;"/>
    </g>
    <g transform="matrix(0.486639,0,0,0.486639,-8.71676,-10.4112)">
        <path d="M139.9,60.7C139.9,60.1 139.9,59.5 139.8,58.9C139.7,58.3 139.6,57.8 139.3,57.4C139.1,57 138.8,56.6 138.4,56.3C138,56 137.6,55.9 137,55.9C136.7,55.9 136.5,55.9 136.2,56C135.9,56.1 135.7,56.2 135.4,56.4C135.1,56.6 134.8,56.8 134.5,57.1C134.2,57.4 133.9,57.8 133.6,58.2L133.6,63C134.2,63.7 134.7,64.3 135.2,64.7C135.7,65.1 136.3,65.3 136.8,65.3C137.3,65.3 137.8,65.2 138.2,64.9C138.6,64.6 138.9,64.3 139.1,63.8C139.3,63.4 139.5,62.9 139.6,62.3C139.9,61.8 139.9,61.2 139.9,60.7M144.2,60.4C144.2,61.7 144.1,62.9 143.8,63.9C143.5,64.9 143.1,65.8 142.6,66.5C142.1,67.2 141.4,67.8 140.6,68.2C139.8,68.6 138.9,68.8 137.9,68.8C137.5,68.8 137.1,68.8 136.7,68.7C136.3,68.6 136,68.5 135.7,68.3C135.4,68.1 135,67.9 134.7,67.7C134.4,67.5 134,67.2 133.7,66.8L133.7,73.6C133.7,73.7 133.7,73.8 133.6,73.9C133.5,74 133.4,74.1 133.3,74.1C133.1,74.2 132.9,74.2 132.7,74.2L130.7,74.2C130.4,74.2 130.2,74.1 130.1,74.1C129.9,74 129.8,74 129.8,73.9C129.7,73.8 129.7,73.7 129.7,73.6L129.7,53.3C129.7,53.2 129.7,53.1 129.8,53C129.9,52.9 129.9,52.9 130.1,52.8C130.2,52.7 130.4,52.7 130.6,52.7L132.2,52.7C132.4,52.7 132.6,52.8 132.7,52.8C132.8,52.9 132.9,52.9 133,53C133.1,53.1 133.1,53.2 133.1,53.3L133.1,55C133.5,54.6 133.9,54.2 134.3,53.9C134.7,53.6 135.1,53.3 135.5,53.1C135.9,52.9 136.4,52.7 136.8,52.6C137.2,52.5 137.7,52.4 138.2,52.4C139.3,52.4 140.2,52.6 140.9,53C141.6,53.4 142.3,54 142.7,54.7C143.2,55.4 143.5,56.3 143.7,57.2C144.1,58.2 144.2,59.3 144.2,60.4" style="fill:rgb(0,62,82);fill-rule:nonzero;"/>
    </g>
    <g transform="matrix(0.486639,0,0,0.486639,-8.71676,-10.4112)">
        <path d="M156,66.4C156,66.9 156,67.2 155.9,67.5C155.8,67.8 155.8,67.9 155.7,68C155.6,68.1 155.5,68.2 155.3,68.3C155.1,68.4 154.9,68.5 154.6,68.5C154.3,68.6 154.1,68.6 153.8,68.6L152.9,68.6C152.1,68.6 151.4,68.5 150.8,68.3C150.2,68.1 149.7,67.8 149.3,67.3C148.9,66.9 148.6,66.3 148.4,65.7C148.2,65.1 148.1,64.3 148.1,63.4L148.1,56L146.4,56C146.2,56 146,55.9 145.9,55.6C145.8,55.3 145.7,54.9 145.7,54.3L145.7,53.5C145.7,53.3 145.8,53.1 145.8,53C145.9,52.9 145.9,52.8 146,52.7C146.1,52.6 146.2,52.6 146.3,52.6L148,52.6L148,49.4C148,49.3 148,49.2 148.1,49.1C148.2,49 148.3,48.9 148.4,48.9C148.6,48.8 148.8,48.8 149,48.8L151,48.8C151.3,48.8 151.5,48.9 151.6,48.9C151.8,49 151.9,49 151.9,49.1C152,49.2 152,49.3 152,49.4L152,52.6L155.1,52.6C155.2,52.6 155.3,52.6 155.4,52.7C155.5,52.8 155.5,52.8 155.6,53C155.7,53.1 155.7,53.3 155.7,53.5L155.7,54.3C155.7,54.9 155.6,55.3 155.5,55.6C155.4,55.9 155.2,56 155,56L151.8,56L151.8,62.8C151.8,63.6 151.9,64.2 152.2,64.6C152.4,65 152.9,65.2 153.5,65.2C153.7,65.2 153.9,65.2 154.1,65.1C154.3,65.1 154.4,65 154.6,65C154.7,65 154.8,64.9 154.9,64.9C155,64.9 155.1,64.8 155.2,64.8C155.3,64.8 155.3,64.8 155.4,64.9C155.5,65 155.5,65 155.5,65.1C155.5,65.2 155.6,65.4 155.6,65.6C156,65.8 156,66.1 156,66.4" style="fill:rgb(0,62,82);fill-rule:nonzero;"/>
    </g>
    <g transform="matrix(0.486639,0,0,0.486639,-8.71676,-10.4112)">
        <path d="M172.8,67.8C172.8,67.9 172.8,68 172.7,68.1C172.6,68.2 172.6,68.2 172.4,68.3C172.3,68.4 172.1,68.4 171.9,68.4L170.2,68.4C170,68.4 169.8,68.3 169.7,68.3C169.6,68.2 169.5,68.2 169.4,68.1C169.3,68 169.3,67.9 169.3,67.8L169.3,66.1C168.5,67 167.7,67.6 166.9,68.1C166.1,68.6 165.2,68.7 164.3,68.7C163.3,68.7 162.5,68.5 161.8,68.2C161.1,67.9 160.6,67.4 160.2,66.9C159.8,66.3 159.5,65.7 159.3,64.9C159.1,64.2 159,63.2 159,62.1L159,53.2C159,53.1 159,53 159.1,52.9C159.2,52.8 159.3,52.8 159.4,52.7C159.6,52.6 159.8,52.6 160,52.6L162,52.6C162.3,52.6 162.5,52.7 162.6,52.7C162.8,52.8 162.9,52.8 162.9,52.9C163,53 163,53.1 163,53.2L163,61.4C163,62.2 163,62.7 163.1,63.1C163.2,63.5 163.3,63.8 163.5,64.1C163.7,64.4 164,64.6 164.3,64.8C164.6,65 165,65 165.4,65C165.9,65 166.4,64.8 167,64.4C167.5,64 168.1,63.5 168.7,62.7L168.7,53.1C168.7,53 168.7,52.9 168.8,52.8C168.9,52.7 169,52.7 169.1,52.6C169.3,52.5 169.5,52.5 169.7,52.5L171.7,52.5C172,52.5 172.2,52.6 172.3,52.6C172.5,52.7 172.6,52.7 172.6,52.8C172.7,52.9 172.7,53 172.7,53.1L172.7,67.8L172.8,67.8Z" style="fill:rgb(0,62,82);fill-rule:nonzero;"/>
    </g>
    <g transform="matrix(0.486639,0,0,0.486639,-8.71676,-10.4112)">
        <path d="M190.9,67.8C190.9,67.9 190.9,68 190.8,68.1C190.7,68.2 190.6,68.2 190.5,68.3C190.3,68.4 190.1,68.4 189.9,68.4L187.9,68.4C187.6,68.4 187.4,68.3 187.3,68.3C187.1,68.2 187,68.2 187,68.1C186.9,68 186.9,67.9 186.9,67.8L186.9,59.5C186.9,58.8 186.8,58.2 186.7,57.8C186.6,57.4 186.4,57.1 186.3,56.8C186.1,56.5 185.9,56.3 185.5,56.1C185.2,55.9 184.8,55.9 184.4,55.9C183.9,55.9 183.4,56.1 182.8,56.5C182.3,56.9 181.7,57.4 181.1,58.2L181.1,67.8C181.1,67.9 181.1,68 181,68.1C180.9,68.2 180.8,68.2 180.7,68.3C180.5,68.4 180.3,68.4 180.1,68.4L178.1,68.4C177.8,68.4 177.6,68.3 177.5,68.3C177.3,68.2 177.2,68.2 177.2,68.1C177.1,68 177.1,67.9 177.1,67.8L177.1,53.3C177.1,53.2 177.1,53.1 177.2,53C177.3,52.9 177.4,52.9 177.5,52.8C177.6,52.7 177.8,52.7 178,52.7L179.7,52.7C179.9,52.7 180.1,52.8 180.2,52.8C180.3,52.9 180.4,52.9 180.5,53C180.6,53.1 180.6,53.2 180.6,53.3L180.6,55C181.4,54.1 182.2,53.5 183,53.1C183.8,52.7 184.7,52.5 185.6,52.5C186.6,52.5 187.4,52.7 188.1,53C188.8,53.3 189.3,53.8 189.7,54.3C190.1,54.9 190.4,55.5 190.6,56.3C190.8,57 190.9,57.9 190.9,59L190.9,67.8Z" style="fill:rgb(0,62,82);fill-rule:nonzero;"/>
    </g>
    <g transform="matrix(0.486639,0,0,0.486639,-8.71676,-10.4112)">
        <path d="M204.4,59C204.4,57.9 204.2,57 203.7,56.3C203.2,55.6 202.4,55.3 201.4,55.3C200.9,55.3 200.4,55.4 200,55.6C199.6,55.8 199.3,56.1 199,56.4C198.7,56.7 198.6,57.1 198.4,57.6C198.3,58 198.2,58.5 198.2,59L204.4,59ZM208.4,60.1C208.4,60.6 208.3,61 208.1,61.2C207.9,61.4 207.6,61.6 207.2,61.6L198.4,61.6C198.4,62.2 198.5,62.8 198.6,63.3C198.7,63.8 199,64.2 199.3,64.6C199.6,65 200,65.2 200.5,65.4C201,65.6 201.6,65.7 202.3,65.7C203,65.7 203.6,65.6 204.2,65.5C204.7,65.4 205.2,65.3 205.6,65.2C206,65.1 206.3,65 206.6,64.9C206.9,64.8 207.1,64.7 207.2,64.7C207.3,64.7 207.4,64.7 207.4,64.8C207.5,64.8 207.5,64.9 207.6,65C207.6,65.1 207.7,65.2 207.7,65.4L207.7,67.1C207.7,67.2 207.6,67.3 207.6,67.4C207.6,67.5 207.5,67.6 207.4,67.6C207.3,67.7 207.1,67.8 206.8,67.9C206.5,68 206.1,68.2 205.6,68.3C205.1,68.4 204.6,68.5 203.9,68.6C203.3,68.7 202.6,68.7 201.9,68.7C200.6,68.7 199.5,68.5 198.5,68.2C197.5,67.9 196.7,67.4 196.1,66.7C195.5,66 195,65.2 194.6,64.2C194.3,63.2 194.1,62 194.1,60.7C194.1,59.4 194.3,58.2 194.6,57.2C194.9,56.2 195.4,55.3 196.1,54.6C196.7,53.9 197.5,53.3 198.4,53C199.3,52.6 200.3,52.4 201.5,52.4C202.7,52.4 203.7,52.6 204.6,52.9C205.5,53.3 206.2,53.8 206.7,54.4C207.2,55 207.7,55.8 207.9,56.7C208.2,57.6 208.3,58.5 208.3,59.5L208.3,60.1L208.4,60.1Z" style="fill:rgb(0,62,82);fill-rule:nonzero;"/>
    </g>
    <g transform="matrix(0.486639,0,0,0.486639,-8.71676,-10.4112)">
        <path d="M232.2,62.1C232.2,63.2 232,64.2 231.6,65C231.2,65.8 230.6,66.5 229.9,67.1C229.2,67.7 228.4,68.1 227.4,68.4C226.5,68.7 225.5,68.8 224.4,68.8C223.7,68.8 223,68.7 222.4,68.6C221.8,68.5 221.2,68.3 220.8,68.2C220.3,68 219.9,67.9 219.6,67.7C219.3,67.5 219.1,67.4 218.9,67.2C218.8,67.1 218.7,66.9 218.6,66.6C218.5,66.3 218.5,66 218.5,65.5L218.5,64.7C218.5,64.5 218.6,64.3 218.6,64.1C218.6,64 218.7,63.9 218.8,63.8C218.9,63.7 219,63.7 219.1,63.7C219.3,63.7 219.5,63.8 219.7,64C220,64.2 220.3,64.4 220.8,64.6C221.2,64.8 221.7,65 222.3,65.2C222.9,65.4 223.6,65.5 224.4,65.5C224.9,65.5 225.4,65.4 225.8,65.3C226.2,65.2 226.6,65 226.8,64.8C227.1,64.6 227.3,64.3 227.5,64C227.7,63.7 227.7,63.3 227.7,62.9C227.7,62.4 227.6,62 227.3,61.7C227,61.4 226.7,61.1 226.3,60.8C225.9,60.5 225.4,60.3 224.9,60.1C224.4,59.9 223.8,59.6 223.3,59.4C222.8,59.2 222.2,58.8 221.7,58.5C221.2,58.2 220.7,57.8 220.3,57.3C219.9,56.8 219.5,56.3 219.3,55.7C219,55.1 218.9,54.3 218.9,53.4C218.9,52.4 219.1,51.5 219.5,50.7C219.9,49.9 220.4,49.3 221,48.8C221.6,48.3 222.4,47.9 223.2,47.7C224.1,47.5 225,47.3 225.9,47.3C226.4,47.3 226.9,47.3 227.4,47.4C227.9,47.5 228.4,47.6 228.8,47.7C229.2,47.8 229.6,48 230,48.1C230.3,48.3 230.6,48.4 230.7,48.5C230.8,48.6 230.9,48.7 230.9,48.8C230.9,48.9 231,49 231,49.1C231,49.2 231,49.4 231.1,49.6L231.1,51.1C231.1,51.3 231.1,51.5 231,51.6C231,51.7 230.9,51.8 230.8,51.9C230.7,52 230.6,52 230.5,52C230.4,52 230.2,51.9 229.9,51.8C229.6,51.6 229.3,51.5 228.9,51.3C228.5,51.1 228.1,51 227.6,50.8C227.1,50.7 226.6,50.6 226,50.6C225.5,50.6 225.1,50.7 224.8,50.8C224.5,50.9 224.2,51.1 223.9,51.3C223.7,51.5 223.5,51.7 223.4,52C223.3,52.3 223.2,52.6 223.2,52.9C223.2,53.4 223.3,53.8 223.6,54.1C223.9,54.4 224.2,54.7 224.6,55C225,55.3 225.5,55.5 226.1,55.7C226.6,55.9 227.2,56.2 227.8,56.4C228.4,56.7 228.9,57 229.5,57.3C230,57.6 230.5,58 230.9,58.5C231.3,59 231.7,59.5 231.9,60.1C232.1,60.5 232.2,61.2 232.2,62.1" style="fill:rgb(0,62,82);fill-rule:nonzero;"/>
    </g>
    <g transform="matrix(0.486639,0,0,0.486639,-8.71676,-10.4112)">
        <path d="M245.8,60.6C245.8,59.9 245.7,59.2 245.6,58.6C245.5,58 245.3,57.5 245,57C244.7,56.6 244.4,56.2 243.9,56C243.5,55.8 242.9,55.6 242.2,55.6C241.6,55.6 241.1,55.7 240.6,55.9C240.1,56.1 239.8,56.4 239.5,56.9C239.2,57.3 239,57.8 238.8,58.4C238.7,59 238.6,59.7 238.6,60.5C238.6,61.2 238.7,61.9 238.8,62.5C238.9,63.1 239.1,63.6 239.4,64.1C239.7,64.5 240,64.9 240.5,65.1C241,65.3 241.5,65.5 242.2,65.5C242.8,65.5 243.4,65.4 243.8,65.2C244.3,65 244.6,64.7 244.9,64.2C245.2,63.8 245.4,63.3 245.5,62.7C245.7,62 245.8,61.4 245.8,60.6M250,60.4C250,61.6 249.8,62.8 249.5,63.8C249.2,64.8 248.7,65.7 248,66.4C247.3,67.1 246.5,67.7 245.5,68.1C244.5,68.5 243.3,68.7 242,68.7C240.7,68.7 239.6,68.5 238.6,68.2C237.6,67.8 236.9,67.3 236.2,66.6C235.6,65.9 235.1,65.1 234.8,64.1C234.5,63.1 234.3,62 234.3,60.7C234.3,59.5 234.5,58.3 234.8,57.3C235.1,56.3 235.6,55.4 236.3,54.7C237,54 237.8,53.4 238.8,53C239.8,52.6 240.9,52.4 242.3,52.4C243.6,52.4 244.7,52.6 245.7,52.9C246.7,53.3 247.4,53.8 248.1,54.5C248.7,55.2 249.2,56 249.5,57C249.9,58 250,59.1 250,60.4" style="fill:rgb(0,62,82);fill-rule:nonzero;"/>
    </g>
    <g transform="matrix(0.486639,0,0,0.486639,-8.71676,-10.4112)">
        <path d="M262.1,47.8L262.1,48.6C262.1,48.8 262,48.9 262,49C262,49.1 261.9,49.2 261.9,49.2C261.8,49.2 261.8,49.3 261.7,49.3C261.6,49.3 261.5,49.3 261.4,49.2C261.3,49.2 261.2,49.1 261.1,49.1C261,49.1 260.8,49 260.6,49C260.4,49 260.2,48.9 260,48.9C259.7,48.9 259.5,48.9 259.2,49C259,49.1 258.8,49.2 258.7,49.4C258.6,49.6 258.5,49.9 258.4,50.2C258.3,50.5 258.3,50.9 258.3,51.4L258.3,52.7L260.9,52.7C261,52.7 261.1,52.7 261.2,52.8C261.3,52.9 261.3,52.9 261.4,53.1C261.5,53.2 261.5,53.4 261.5,53.6L261.5,54.4C261.5,55 261.4,55.4 261.3,55.7C261.2,56 261,56.1 260.8,56.1L258.2,56.1L258.2,67.8C258.2,67.9 258.2,68 258.1,68.1C258,68.2 257.9,68.2 257.8,68.3C257.6,68.4 257.4,68.4 257.2,68.4L255.2,68.4C254.9,68.4 254.7,68.3 254.6,68.3C254.4,68.2 254.3,68.2 254.3,68.1C254.2,68 254.2,67.9 254.2,67.8L254.2,56.1L252.4,56.1C252.2,56.1 252,56 251.9,55.7C251.8,55.4 251.7,55 251.7,54.4L251.7,53.6C251.7,53.4 251.8,53.2 251.8,53.1C251.8,53 251.9,52.9 252,52.8C252.1,52.7 252.2,52.7 252.3,52.7L254.1,52.7L254.1,51.5C254.1,50.5 254.2,49.7 254.4,48.9C254.6,48.2 254.9,47.5 255.3,47C255.7,46.5 256.2,46.1 256.9,45.9C257.6,45.7 258.3,45.5 259.2,45.5C259.6,45.5 260,45.5 260.4,45.6C260.8,45.7 261.1,45.7 261.3,45.8C261.5,45.9 261.7,46 261.7,46C261.8,46.1 261.8,46.2 261.9,46.3C261.9,46.4 262,46.6 262,46.8C262.1,47.2 262.1,47.5 262.1,47.8" style="fill:rgb(0,62,82);fill-rule:nonzero;"/>
    </g>
    <g transform="matrix(0.486639,0,0,0.486639,-8.71676,-10.4112)">
        <path d="M273.4,66.4C273.4,66.9 273.4,67.2 273.3,67.5C273.2,67.8 273.2,67.9 273.1,68C273,68.1 272.9,68.2 272.7,68.3C272.5,68.4 272.3,68.5 272,68.5C271.7,68.6 271.5,68.6 271.2,68.6L270.3,68.6C269.5,68.6 268.8,68.5 268.2,68.3C267.6,68.1 267.1,67.8 266.7,67.3C266.3,66.9 266,66.3 265.8,65.7C265.6,65.1 265.5,64.3 265.5,63.4L265.5,56L263.8,56C263.6,56 263.4,55.9 263.3,55.6C263.2,55.3 263.1,54.9 263.1,54.3L263.1,53.5C263.1,53.3 263.2,53.1 263.2,53C263.3,52.9 263.3,52.8 263.4,52.7C263.5,52.6 263.6,52.6 263.7,52.6L265.4,52.6L265.4,49.4C265.4,49.3 265.4,49.2 265.5,49.1C265.6,49 265.7,48.9 265.8,48.9C266,48.8 266.2,48.8 266.4,48.8L268.4,48.8C268.7,48.8 268.9,48.9 269,48.9C269.2,49 269.3,49 269.3,49.1C269.4,49.2 269.4,49.3 269.4,49.4L269.4,52.6L272.5,52.6C272.6,52.6 272.7,52.6 272.8,52.7C272.9,52.8 272.9,52.8 273,53C273.1,53.1 273.1,53.3 273.1,53.5L273.1,54.3C273.1,54.9 273,55.3 272.9,55.6C272.8,55.9 272.6,56 272.4,56L269.2,56L269.2,62.8C269.2,63.6 269.3,64.2 269.6,64.6C269.8,65 270.3,65.2 270.9,65.2C271.1,65.2 271.3,65.2 271.5,65.1C271.7,65.1 271.8,65 272,65C272.1,65 272.2,64.9 272.3,64.9C272.4,64.9 272.5,64.8 272.6,64.8C272.7,64.8 272.7,64.8 272.8,64.9C272.9,64.9 272.9,65 272.9,65.1C272.9,65.2 273,65.4 273,65.6C273.4,65.8 273.4,66.1 273.4,66.4" style="fill:rgb(0,62,82);fill-rule:nonzero;"/>
    </g>
    <g transform="matrix(0.486639,0,0,0.486639,-8.71676,-10.4112)">
        <path d="M298.6,53.3L298.6,53.7C298.6,53.9 298.5,54.1 298.4,54.4L294.5,67.5C294.4,67.7 294.4,67.8 294.3,67.9C294.2,68 294.1,68.1 293.9,68.2C293.7,68.3 293.5,68.3 293.1,68.3L290.5,68.3C290.2,68.3 289.9,68.2 289.7,68.2C289.5,68.1 289.4,68 289.3,67.9C289.2,67.8 289.1,67.6 289.1,67.5L286.7,58.7L286.7,58.6L286.7,58.7L284.5,67.5C284.5,67.7 284.4,67.8 284.3,67.9C284.2,68 284.1,68.1 283.9,68.2C283.7,68.3 283.4,68.3 283.1,68.3L280.5,68.3C280.2,68.3 279.9,68.2 279.7,68.2C279.5,68.1 279.4,68 279.3,67.9C279.2,67.8 279.1,67.6 279.1,67.5L275.3,54.4C275.2,54.1 275.1,53.8 275.1,53.7L275.1,53.3C275.1,53.2 275.1,53.1 275.2,53C275.3,52.9 275.4,52.9 275.5,52.8C275.7,52.8 275.9,52.7 276.1,52.7L278.2,52.7C278.5,52.7 278.7,52.8 278.8,52.8C279,52.9 279.1,52.9 279.1,53C279.2,53.1 279.2,53.2 279.2,53.3L282.1,63.9L282.1,64.1L282.1,63.9L284.8,53.3C284.8,53.2 284.9,53.1 285,53C285.1,52.9 285.2,52.8 285.3,52.8C285.4,52.7 285.6,52.7 285.9,52.7L287.9,52.7C288.1,52.7 288.3,52.8 288.5,52.8C288.6,52.8 288.7,52.9 288.8,53C288.9,53.1 288.9,53.2 288.9,53.3L291.8,64L291.8,64.2L291.8,64L294.6,53.4C294.6,53.3 294.7,53.2 294.7,53.1C294.8,53 294.9,52.9 295,52.9C295.2,52.8 295.4,52.8 295.6,52.8L297.6,52.8C297.9,52.8 298.1,52.9 298.2,52.9C298.3,52.9 298.4,53 298.5,53.1C298.6,53.1 298.6,53.2 298.6,53.3" style="fill:rgb(0,62,82);fill-rule:nonzero;"/>
    </g>
    <g transform="matrix(0.486639,0,0,0.486639,-8.71676,-10.4112)">
        <path d="M308.5,61.7L306.8,61.7C306.1,61.7 305.6,61.7 305.1,61.8C304.6,61.9 304.3,62 304,62.2C303.7,62.4 303.5,62.6 303.4,62.9C303.3,63.2 303.2,63.5 303.2,63.9C303.2,64.5 303.4,65 303.8,65.3C304.2,65.6 304.7,65.8 305.4,65.8C306,65.8 306.5,65.7 307,65.4C307.5,65.1 308,64.7 308.5,64.1L308.5,61.7ZM312.4,67.9C312.4,68.1 312.3,68.2 312.2,68.3C312.1,68.4 311.9,68.4 311.7,68.5C311.5,68.5 311.1,68.6 310.7,68.6C310.2,68.6 309.9,68.6 309.6,68.5C309.4,68.5 309.2,68.4 309.1,68.3C309,68.2 309,68.1 309,67.9L309,66.7C308.4,67.3 307.7,67.8 307,68.2C306.2,68.6 305.4,68.7 304.5,68.7C303.7,68.7 303,68.6 302.4,68.4C301.8,68.2 301.2,67.9 300.7,67.5C300.2,67.1 299.9,66.6 299.6,66C299.3,65.4 299.2,64.7 299.2,64C299.2,63.2 299.4,62.4 299.7,61.8C300,61.2 300.5,60.7 301.2,60.3C301.9,59.9 302.7,59.6 303.6,59.4C304.6,59.2 305.7,59.1 307,59.1L308.4,59.1L308.4,58.2C308.4,57.7 308.4,57.3 308.3,57C308.2,56.7 308.1,56.4 307.8,56.1C307.6,55.9 307.3,55.7 307,55.6C306.6,55.5 306.2,55.4 305.7,55.4C305,55.4 304.4,55.5 303.9,55.6C303.4,55.8 302.9,55.9 302.5,56.1C302.1,56.3 301.7,56.5 301.5,56.6C301.2,56.8 301,56.8 300.8,56.8C300.7,56.8 300.6,56.8 300.5,56.7C300.4,56.6 300.3,56.5 300.3,56.4C300.2,56.3 300.2,56.1 300.2,55.9L300.2,55.2C300.2,54.9 300.2,54.6 300.3,54.4C300.4,54.2 300.5,54 300.6,53.9C300.8,53.7 301,53.6 301.4,53.4C301.8,53.2 302.2,53 302.7,52.9C303.2,52.7 303.8,52.6 304.4,52.5C305,52.4 305.6,52.3 306.3,52.3C307.4,52.3 308.4,52.4 309.2,52.6C310,52.8 310.7,53.2 311.2,53.6C311.7,54.1 312.1,54.7 312.3,55.4C312.5,56.1 312.7,57 312.7,58L312.7,67.9L312.4,67.9Z" style="fill:rgb(0,62,82);fill-rule:nonzero;"/>
    </g>
    <g transform="matrix(0.486639,0,0,0.486639,-8.71676,-10.4112)">
        <path d="M324.8,54.7L324.8,55.7C324.8,56 324.7,56.1 324.7,56.3C324.7,56.4 324.6,56.5 324.5,56.6C324.4,56.7 324.3,56.7 324.2,56.7C324.1,56.7 324,56.7 323.9,56.6C323.8,56.6 323.7,56.5 323.5,56.5C323.4,56.5 323.2,56.4 323.1,56.4C322.9,56.4 322.8,56.3 322.6,56.3C322.4,56.3 322.1,56.3 321.9,56.4C321.7,56.5 321.4,56.6 321.2,56.8C321,57 320.7,57.3 320.4,57.6C320.1,57.9 319.9,58.3 319.5,58.8L319.5,67.8C319.5,67.9 319.5,68 319.4,68.1C319.3,68.2 319.2,68.2 319.1,68.3C318.9,68.4 318.7,68.4 318.5,68.4L316.5,68.4C316.2,68.4 316,68.3 315.9,68.3C315.7,68.2 315.6,68.2 315.6,68.1C315.5,68 315.5,67.9 315.5,67.8L315.5,53.3C315.5,53.2 315.5,53.1 315.6,53C315.7,52.9 315.8,52.9 315.9,52.8C316,52.7 316.2,52.7 316.4,52.7L318.1,52.7C318.3,52.7 318.5,52.8 318.6,52.8C318.7,52.9 318.8,52.9 318.9,53C319,53.1 319,53.2 319,53.3L319,55.1C319.4,54.6 319.7,54.1 320.1,53.8C320.4,53.4 320.8,53.2 321.1,53C321.4,52.8 321.7,52.7 322,52.6C322.3,52.5 322.6,52.5 322.9,52.5L323.4,52.5C323.6,52.5 323.7,52.5 323.9,52.6C324.1,52.6 324.2,52.7 324.4,52.7C324.6,52.7 324.6,52.8 324.7,52.9C324.8,53 324.8,53 324.8,53.1C324.8,53.2 324.9,53.3 324.9,53.4L324.9,53.9C324.8,54 324.8,54.3 324.8,54.7" style="fill:rgb(0,62,82);fill-rule:nonzero;"/>
    </g>
    <g transform="matrix(0.486639,0,0,0.486639,-8.71676,-10.4112)">
        <path d="M335.4,59C335.4,57.9 335.2,57 334.7,56.3C334.2,55.6 333.4,55.3 332.4,55.3C331.9,55.3 331.4,55.4 331,55.6C330.6,55.8 330.3,56.1 330,56.4C329.7,56.7 329.6,57.1 329.4,57.6C329.3,58 329.2,58.5 329.2,59L335.4,59ZM339.3,60.1C339.3,60.6 339.2,61 339,61.2C338.8,61.4 338.5,61.6 338.1,61.6L329.3,61.6C329.3,62.2 329.4,62.8 329.5,63.3C329.6,63.8 329.9,64.2 330.2,64.6C330.5,65 330.9,65.2 331.4,65.4C331.9,65.6 332.5,65.7 333.2,65.7C333.9,65.7 334.5,65.6 335.1,65.5C335.6,65.4 336.1,65.3 336.5,65.2C336.9,65.1 337.2,65 337.5,64.9C337.8,64.8 338,64.7 338.1,64.7C338.2,64.7 338.3,64.7 338.3,64.8C338.4,64.8 338.4,64.9 338.5,65C338.5,65.1 338.6,65.2 338.6,65.4L338.6,67.1C338.6,67.2 338.5,67.3 338.5,67.4C338.5,67.5 338.4,67.6 338.3,67.6C338.2,67.7 338,67.8 337.7,67.9C337.4,68 337,68.2 336.5,68.3C336,68.4 335.5,68.5 334.8,68.6C334.2,68.7 333.5,68.7 332.8,68.7C331.5,68.7 330.4,68.5 329.4,68.2C328.4,67.9 327.6,67.4 327,66.7C326.4,66 325.9,65.2 325.5,64.2C325.2,63.2 325,62 325,60.7C325,59.4 325.2,58.2 325.5,57.2C325.8,56.2 326.3,55.3 327,54.6C327.6,53.9 328.4,53.3 329.3,53C330.2,52.6 331.2,52.4 332.4,52.4C333.6,52.4 334.6,52.6 335.5,52.9C336.4,53.3 337.1,53.8 337.6,54.4C338.1,55 338.6,55.8 338.8,56.7C339.1,57.6 339.2,58.5 339.2,59.5L339.2,60.1L339.3,60.1Z" style="fill:rgb(0,62,82);fill-rule:nonzero;"/>
    </g>
    <g transform="matrix(0.486639,0,0,0.486639,-8.71676,-10.4112)">
        <path d="M59.2,68.3C52.5,68.3 47,62.8 47,56.1C47,49.4 52.5,43.9 59.2,43.9C65.9,43.9 71.4,49.4 71.4,56.1C71.4,62.8 66,68.3 59.2,68.3M51.5,25C34.8,25 21.2,38.6 21.2,55.3C21.2,72 34.8,85.6 51.5,85.6C68.2,85.6 81.8,72 81.8,55.3C81.8,38.6 68.2,25 51.5,25" style="fill:rgb(244,178,35);fill-rule:nonzero;"/>
    </g>
    <g transform="matrix(0.486639,0,0,0.486639,-8.71676,-10.4112)">
        <path d="M59.2,46C53.7,46 49.2,50.5 49.2,56.1C49.2,61.6 53.7,66.2 59.2,66.2C64.7,66.2 69.2,61.7 69.2,56.1C69.3,50.6 64.8,46 59.2,46" style="fill:rgb(244,178,35);fill-rule:nonzero;"/>
    </g>
</svg>
