<svg id="Layer_1" data-name="Layer 1" xmlns="http://www.w3.org/2000/svg" viewBox="0 0 318.18 60.69"><defs><style>.cls-1{fill:#fff;}.cls-2{fill:#f4b223;}</style></defs><circle class="cls-1" cx="32.71" cy="33.94" r="21.27"/><path class="cls-1" d="M121.74,82.94a1.6,1.6,0,0,1-.13.67,1.33,1.33,0,0,1-.35.49,1.31,1.31,0,0,1-.52.28,2.08,2.08,0,0,1-.6.09h-1.82a4,4,0,0,1-1-.11,2.08,2.08,0,0,1-.77-.42,3.8,3.8,0,0,1-.67-.81,14.17,14.17,0,0,1-.73-1.32L109.94,72c-.3-.58-.61-1.21-.92-1.89s-.6-1.33-.84-2h0c0,.78.08,1.56.1,2.33s0,1.57,0,2.4v11a.52.52,0,0,1-.09.29.73.73,0,0,1-.3.22,2.47,2.47,0,0,1-.6.13,9,9,0,0,1-1.9,0,2.28,2.28,0,0,1-.58-.13.63.63,0,0,1-.29-.22.51.51,0,0,1-.08-.29V64.94a1.46,1.46,0,0,1,.44-1.15,1.67,1.67,0,0,1,1.1-.38h2.29a4.27,4.27,0,0,1,1,.11,2.12,2.12,0,0,1,.76.35,2.53,2.53,0,0,1,.62.67,7.3,7.3,0,0,1,.6,1.07l4.09,7.68.71,1.37c.23.45.46.9.67,1.35l.64,1.33.6,1.3h0c0-.76,0-1.55-.07-2.37s0-1.61,0-2.36V64.05a.53.53,0,0,1,.09-.3.86.86,0,0,1,.33-.22,2,2,0,0,1,.6-.14,8.5,8.5,0,0,1,1,0,8.08,8.08,0,0,1,.92,0,1.82,1.82,0,0,1,.58.14.65.65,0,0,1,.28.22.61.61,0,0,1,.08.3Z" transform="translate(-33.67 -41.05)"/><path class="cls-1" d="M135.62,75.05a4.26,4.26,0,0,0-.69-2.71,2.67,2.67,0,0,0-2.28-1,3.06,3.06,0,0,0-1.36.29,2.81,2.81,0,0,0-.95.79,3.58,3.58,0,0,0-.59,1.17,6,6,0,0,0-.23,1.44Zm4,1.17a1.59,1.59,0,0,1-.33,1.1,1.21,1.21,0,0,1-.92.36h-8.81a5.84,5.84,0,0,0,.22,1.68,3.13,3.13,0,0,0,.7,1.28,2.91,2.91,0,0,0,1.23.81,5.35,5.35,0,0,0,1.81.27,10.45,10.45,0,0,0,1.88-.15,12.56,12.56,0,0,0,1.4-.34c.4-.13.73-.24,1-.34a1.7,1.7,0,0,1,.63-.16.45.45,0,0,1,.24.06.41.41,0,0,1,.16.2,1.1,1.1,0,0,1,.09.42,6.19,6.19,0,0,1,0,.67c0,.24,0,.44,0,.61a4,4,0,0,1,0,.43.81.81,0,0,1-.1.3.89.89,0,0,1-.17.24A2.1,2.1,0,0,1,138,84a10.2,10.2,0,0,1-1.2.38c-.49.12-1,.23-1.67.32a14.24,14.24,0,0,1-2,.14,10.51,10.51,0,0,1-3.38-.49,5.78,5.78,0,0,1-2.42-1.48,6.13,6.13,0,0,1-1.46-2.5,11.7,11.7,0,0,1-.48-3.54,11.07,11.07,0,0,1,.51-3.48,7.19,7.19,0,0,1,1.46-2.64A6.27,6.27,0,0,1,129.66,69a8.14,8.14,0,0,1,3.09-.56,8,8,0,0,1,3.1.53A5.68,5.68,0,0,1,138,70.49a6,6,0,0,1,1.22,2.25,9.78,9.78,0,0,1,.39,2.83Z" transform="translate(-33.67 -41.05)"/><path class="cls-1" d="M152.43,76.72a11.36,11.36,0,0,0-.14-1.78,5.31,5.31,0,0,0-.47-1.52,2.79,2.79,0,0,0-.88-1.06,2.18,2.18,0,0,0-1.35-.4,2.84,2.84,0,0,0-.81.12,3,3,0,0,0-.81.4,5.7,5.7,0,0,0-.85.71,11.1,11.1,0,0,0-.92,1.09v4.78a9.4,9.4,0,0,0,1.64,1.68,2.61,2.61,0,0,0,1.62.59,2.23,2.23,0,0,0,1.35-.4,3.1,3.1,0,0,0,.92-1.07,5.51,5.51,0,0,0,.53-1.48,8.58,8.58,0,0,0,.17-1.66m4.25-.29a13.73,13.73,0,0,1-.41,3.48,7.85,7.85,0,0,1-1.21,2.64,5.34,5.34,0,0,1-2,1.68,6.06,6.06,0,0,1-2.71.58,5.23,5.23,0,0,1-1.16-.12,4.88,4.88,0,0,1-1-.37,6.73,6.73,0,0,1-1-.63,10.87,10.87,0,0,1-1-.88v6.83a.53.53,0,0,1-.1.29.86.86,0,0,1-.33.22,3.34,3.34,0,0,1-.63.14,12.27,12.27,0,0,1-2,0,3,3,0,0,1-.62-.14.73.73,0,0,1-.33-.22.46.46,0,0,1-.1-.29V69.39a.44.44,0,0,1,.08-.28.64.64,0,0,1,.28-.21,2.75,2.75,0,0,1,.54-.12c.22,0,.5,0,.83,0s.6,0,.82,0a2.59,2.59,0,0,1,.54.12.64.64,0,0,1,.28.21.44.44,0,0,1,.08.28V71.1A14.26,14.26,0,0,1,146.81,70a7.45,7.45,0,0,1,1.24-.83,5.69,5.69,0,0,1,1.3-.49,6.05,6.05,0,0,1,1.44-.16,5.46,5.46,0,0,1,2.71.62,5.08,5.08,0,0,1,1.82,1.72,7.36,7.36,0,0,1,1,2.53,13.81,13.81,0,0,1,.33,3.09" transform="translate(-33.67 -41.05)"/><path class="cls-1" d="M168.51,82.45a5.06,5.06,0,0,1-.09,1.1,1.19,1.19,0,0,1-.23.54,1.33,1.33,0,0,1-.43.27,3.31,3.31,0,0,1-.67.21,6.35,6.35,0,0,1-.82.14,6.85,6.85,0,0,1-.91.05,6.38,6.38,0,0,1-2.11-.31,3.44,3.44,0,0,1-1.47-1,3.83,3.83,0,0,1-.86-1.61,8.3,8.3,0,0,1-.28-2.31V72.15h-1.73a.52.52,0,0,1-.48-.38,3.74,3.74,0,0,1-.16-1.27c0-.32,0-.58,0-.8a2.13,2.13,0,0,1,.12-.51.67.67,0,0,1,.21-.27.51.51,0,0,1,.28-.08h1.72V65.61a.53.53,0,0,1,.09-.3.73.73,0,0,1,.33-.22,2.6,2.6,0,0,1,.63-.12,8.7,8.7,0,0,1,1,0,9.09,9.09,0,0,1,1,0,2.61,2.61,0,0,1,.62.12.79.79,0,0,1,.33.22.54.54,0,0,1,.1.3v3.23h3.14a.55.55,0,0,1,.29.08.58.58,0,0,1,.2.27,2.13,2.13,0,0,1,.12.51,6.07,6.07,0,0,1,0,.8,3.5,3.5,0,0,1-.16,1.27c-.11.26-.27.38-.47.38h-3.16V79a3.37,3.37,0,0,0,.37,1.78,1.43,1.43,0,0,0,1.33.59,3.3,3.3,0,0,0,.58,0,3.9,3.9,0,0,0,.47-.13l.34-.13a.61.61,0,0,1,.25-.06.35.35,0,0,1,.19.06.38.38,0,0,1,.13.22c0,.12.06.27.09.47a5,5,0,0,1,0,.74" transform="translate(-33.67 -41.05)"/><path class="cls-1" d="M185.33,83.88a.55.55,0,0,1-.08.29.6.6,0,0,1-.29.2,1.66,1.66,0,0,1-.53.12,6.64,6.64,0,0,1-.84,0,6.85,6.85,0,0,1-.87,0,1.66,1.66,0,0,1-.53-.12.58.58,0,0,1-.27-.2.55.55,0,0,1-.08-.29V82.21a9.16,9.16,0,0,1-2.44,2,5.55,5.55,0,0,1-2.58.65,5.66,5.66,0,0,1-2.5-.49A4.23,4.23,0,0,1,172.68,83a5.34,5.34,0,0,1-.9-2,12.58,12.58,0,0,1-.26-2.77V69.39a.45.45,0,0,1,.09-.28.61.61,0,0,1,.32-.2,2.76,2.76,0,0,1,.63-.13c.27,0,.6,0,1,0s.73,0,1,0a2.66,2.66,0,0,1,.62.13.64.64,0,0,1,.33.2.4.4,0,0,1,.1.28v8.19a7.64,7.64,0,0,0,.15,1.74,2.92,2.92,0,0,0,.44,1A2.07,2.07,0,0,0,177,81a2.38,2.38,0,0,0,1.07.23,2.66,2.66,0,0,0,1.57-.57A9.18,9.18,0,0,0,181.27,79V69.39a.45.45,0,0,1,.09-.28.65.65,0,0,1,.32-.2,2.76,2.76,0,0,1,.63-.13c.26,0,.59,0,1,0s.73,0,1,0a2.66,2.66,0,0,1,.62.13.65.65,0,0,1,.32.2.45.45,0,0,1,.1.28Z" transform="translate(-33.67 -41.05)"/><path class="cls-1" d="M203.39,83.88a.43.43,0,0,1-.1.29.65.65,0,0,1-.32.2,2.2,2.2,0,0,1-.63.12,9,9,0,0,1-1,0,9.41,9.41,0,0,1-1,0,2.19,2.19,0,0,1-.62-.12.65.65,0,0,1-.32-.2.43.43,0,0,1-.1-.29V75.61a6.53,6.53,0,0,0-.16-1.65,3.24,3.24,0,0,0-.44-1,2,2,0,0,0-.76-.67,2.29,2.29,0,0,0-1.08-.24,2.71,2.71,0,0,0-1.57.57,8.34,8.34,0,0,0-1.65,1.66v9.63a.48.48,0,0,1-.1.29.74.74,0,0,1-.33.2,2.35,2.35,0,0,1-.63.12,12.27,12.27,0,0,1-2,0,2.19,2.19,0,0,1-.62-.12.73.73,0,0,1-.34-.2.48.48,0,0,1-.09-.29V69.39a.44.44,0,0,1,.08-.28.55.55,0,0,1,.29-.2,2.14,2.14,0,0,1,.54-.13c.23,0,.5,0,.84,0s.63,0,.86,0a1.86,1.86,0,0,1,.53.13.55.55,0,0,1,.26.2.44.44,0,0,1,.08.28v1.68a9.19,9.19,0,0,1,2.45-1.95,5.44,5.44,0,0,1,2.59-.65,5.82,5.82,0,0,1,2.49.48,4.48,4.48,0,0,1,1.64,1.33,5.64,5.64,0,0,1,.9,2,11.71,11.71,0,0,1,.27,2.7Z" transform="translate(-33.67 -41.05)"/><path class="cls-1" d="M217,75.05a4.26,4.26,0,0,0-.69-2.71,2.7,2.7,0,0,0-2.28-1,3,3,0,0,0-1.36.29,3,3,0,0,0-1,.79,3.56,3.56,0,0,0-.58,1.17,6,6,0,0,0-.24,1.44Zm4,1.17a1.59,1.59,0,0,1-.33,1.1,1.17,1.17,0,0,1-.91.36h-8.82a6.21,6.21,0,0,0,.22,1.68,3.25,3.25,0,0,0,.7,1.28,3,3,0,0,0,1.23.81,5.43,5.43,0,0,0,1.81.27,10.57,10.57,0,0,0,1.89-.15,13.13,13.13,0,0,0,1.4-.34l1-.34a1.7,1.7,0,0,1,.63-.16.49.49,0,0,1,.25.06.47.47,0,0,1,.16.2,1.67,1.67,0,0,1,.09.42,6.54,6.54,0,0,1,0,.67c0,.24,0,.44,0,.61a4,4,0,0,1-.05.43.81.81,0,0,1-.1.3,1.18,1.18,0,0,1-.17.24,2.06,2.06,0,0,1-.58.31,9.63,9.63,0,0,1-1.2.38,16.65,16.65,0,0,1-1.67.32,14.2,14.2,0,0,1-2,.14,10.43,10.43,0,0,1-3.38-.49,5.88,5.88,0,0,1-2.43-1.48,6.12,6.12,0,0,1-1.45-2.5,11.7,11.7,0,0,1-.48-3.54,11.38,11.38,0,0,1,.5-3.48,7.49,7.49,0,0,1,1.46-2.64A6.35,6.35,0,0,1,211,69a8.22,8.22,0,0,1,3.09-.56,8.06,8.06,0,0,1,3.11.53,5.68,5.68,0,0,1,2.12,1.49,6,6,0,0,1,1.22,2.25,10.14,10.14,0,0,1,.38,2.83Z" transform="translate(-33.67 -41.05)"/><path class="cls-1" d="M244.73,78.13a6.5,6.5,0,0,1-.61,2.91,6,6,0,0,1-1.68,2.09A7.16,7.16,0,0,1,240,84.39a11.21,11.21,0,0,1-5,.24,11.56,11.56,0,0,1-1.65-.43,7.11,7.11,0,0,1-1.19-.53,3.3,3.3,0,0,1-.69-.48,1.25,1.25,0,0,1-.3-.61,5.6,5.6,0,0,1-.09-1.15c0-.33,0-.62,0-.84a2.3,2.3,0,0,1,.11-.56.62.62,0,0,1,.19-.3.48.48,0,0,1,.29-.09,1.36,1.36,0,0,1,.64.27,11.14,11.14,0,0,0,1.06.6,10.33,10.33,0,0,0,1.55.59,7.31,7.31,0,0,0,2.09.27,5,5,0,0,0,1.39-.19,3.05,3.05,0,0,0,1-.53,2.35,2.35,0,0,0,.66-.84,2.73,2.73,0,0,0,.22-1.12,2,2,0,0,0-.39-1.23,3.73,3.73,0,0,0-1-.91,9.91,9.91,0,0,0-1.42-.75l-1.64-.74a15.23,15.23,0,0,1-1.64-.88A6.75,6.75,0,0,1,232.78,73a5.68,5.68,0,0,1-1-1.63,6.66,6.66,0,0,1,.17-4.92,5.42,5.42,0,0,1,1.51-1.9,6.48,6.48,0,0,1,2.24-1.13,9.73,9.73,0,0,1,2.73-.37,10.56,10.56,0,0,1,1.49.11,10.72,10.72,0,0,1,1.4.31,7.92,7.92,0,0,1,1.15.44,2.55,2.55,0,0,1,.67.41,1.45,1.45,0,0,1,.22.27,1.54,1.54,0,0,1,.09.3,2.85,2.85,0,0,1,.06.47c0,.19,0,.43,0,.71s0,.58,0,.8a3.15,3.15,0,0,1-.08.53.64.64,0,0,1-.16.31.39.39,0,0,1-.29.1,1.37,1.37,0,0,1-.56-.23c-.26-.15-.58-.31-1-.49a9.77,9.77,0,0,0-1.31-.49,5.71,5.71,0,0,0-1.64-.22,4,4,0,0,0-1.22.17,2.41,2.41,0,0,0-.87.47,1.85,1.85,0,0,0-.52.72,2.48,2.48,0,0,0-.17.9,2,2,0,0,0,.38,1.21,4,4,0,0,0,1,.91,12.35,12.35,0,0,0,1.46.75c.54.23,1.09.48,1.65.74a16.54,16.54,0,0,1,1.66.88,6.62,6.62,0,0,1,1.44,1.19,5.58,5.58,0,0,1,1,1.62,5.72,5.72,0,0,1,.39,2.2" transform="translate(-33.67 -41.05)"/><path class="cls-1" d="M258.32,76.65a11,11,0,0,0-.17-2,4.87,4.87,0,0,0-.58-1.57,2.91,2.91,0,0,0-1.08-1,3.44,3.44,0,0,0-1.69-.37,3.58,3.58,0,0,0-1.59.33,2.79,2.79,0,0,0-1.12,1,4.6,4.6,0,0,0-.66,1.54,8.56,8.56,0,0,0-.22,2.06,10.08,10.08,0,0,0,.18,2,4.87,4.87,0,0,0,.58,1.57,2.68,2.68,0,0,0,1.08,1,3.54,3.54,0,0,0,1.68.36,3.64,3.64,0,0,0,1.61-.33,2.88,2.88,0,0,0,1.12-1,4.59,4.59,0,0,0,.65-1.54,9.13,9.13,0,0,0,.21-2.06m4.2-.16a11.22,11.22,0,0,1-.48,3.38,7.14,7.14,0,0,1-1.48,2.63,6.56,6.56,0,0,1-2.48,1.71,9.34,9.34,0,0,1-3.49.6,9.47,9.47,0,0,1-3.36-.54,5.92,5.92,0,0,1-2.37-1.56,6.47,6.47,0,0,1-1.4-2.51,11.91,11.91,0,0,1-.45-3.42,11,11,0,0,1,.49-3.38A7.2,7.2,0,0,1,249,70.76a6.59,6.59,0,0,1,2.47-1.69,9.25,9.25,0,0,1,3.48-.6,9.8,9.8,0,0,1,3.38.52,6,6,0,0,1,2.36,1.55,6.7,6.7,0,0,1,1.39,2.52,11.93,11.93,0,0,1,.45,3.43" transform="translate(-33.67 -41.05)"/><path class="cls-1" d="M274.61,63.87a7.48,7.48,0,0,1,0,.75,1.36,1.36,0,0,1-.1.44.45.45,0,0,1-.14.21.3.3,0,0,1-.18.06.61.61,0,0,1-.25-.06l-.34-.12-.48-.12a3.13,3.13,0,0,0-.65-.06,2,2,0,0,0-.76.14,1.22,1.22,0,0,0-.52.44,2,2,0,0,0-.31.78,5.64,5.64,0,0,0-.1,1.18v1.33h2.65a.5.5,0,0,1,.26.08.59.59,0,0,1,.21.27,2.13,2.13,0,0,1,.12.51,6.07,6.07,0,0,1,0,.8,3.5,3.5,0,0,1-.16,1.27c-.11.26-.27.38-.47.38h-2.65V83.88a.43.43,0,0,1-.1.29.65.65,0,0,1-.32.2,2.2,2.2,0,0,1-.63.12,9.33,9.33,0,0,1-1,0,9,9,0,0,1-1,0,2.35,2.35,0,0,1-.64-.12.61.61,0,0,1-.32-.2.48.48,0,0,1-.09-.29V72.15h-1.82a.49.49,0,0,1-.46-.38,3.5,3.5,0,0,1-.16-1.27c0-.32,0-.58,0-.8a2.13,2.13,0,0,1,.12-.51.57.57,0,0,1,.19-.27.55.55,0,0,1,.29-.08h1.8V67.62A10.5,10.5,0,0,1,267,65a4.66,4.66,0,0,1,.92-1.85,3.74,3.74,0,0,1,1.59-1.12,6.48,6.48,0,0,1,2.28-.37,6.61,6.61,0,0,1,1.2.11,5.74,5.74,0,0,1,.89.22,1.42,1.42,0,0,1,.44.23.91.91,0,0,1,.19.31,2.83,2.83,0,0,1,.1.52c0,.21,0,.47,0,.79" transform="translate(-33.67 -41.05)"/><path class="cls-1" d="M285.9,82.45a5.06,5.06,0,0,1-.09,1.1,1.31,1.31,0,0,1-.23.54,1.45,1.45,0,0,1-.43.27,3.31,3.31,0,0,1-.67.21,6.23,6.23,0,0,1-.83.14,6.7,6.7,0,0,1-.9.05,6.38,6.38,0,0,1-2.11-.31,3.44,3.44,0,0,1-1.47-1,3.83,3.83,0,0,1-.86-1.61,8.3,8.3,0,0,1-.28-2.31V72.15h-1.74c-.2,0-.36-.12-.47-.38a3.5,3.5,0,0,1-.16-1.27,6.07,6.07,0,0,1,0-.8,2.13,2.13,0,0,1,.12-.51.59.59,0,0,1,.21-.27.51.51,0,0,1,.28-.08H278V65.61a.53.53,0,0,1,.09-.3.75.75,0,0,1,.32-.22,2.81,2.81,0,0,1,.64-.12,8.7,8.7,0,0,1,1,0,9.09,9.09,0,0,1,1,0,2.61,2.61,0,0,1,.62.12.86.86,0,0,1,.33.22.53.53,0,0,1,.09.3v3.23h3.15a.49.49,0,0,1,.28.08.59.59,0,0,1,.21.27,2.13,2.13,0,0,1,.12.51,6.07,6.07,0,0,1,0,.8,3.5,3.5,0,0,1-.16,1.27c-.11.26-.27.38-.47.38H282.1V79a3.36,3.36,0,0,0,.38,1.78,1.43,1.43,0,0,0,1.33.59,3.39,3.39,0,0,0,.58,0,3.71,3.71,0,0,0,.46-.13l.35-.13a.61.61,0,0,1,.25-.06.32.32,0,0,1,.18.06.34.34,0,0,1,.14.22c0,.12.06.27.09.47a5,5,0,0,1,0,.74" transform="translate(-33.67 -41.05)"/><path class="cls-1" d="M311.14,69.36a2.69,2.69,0,0,1-.05.44q0,.26-.18.75l-3.86,13.11a1.64,1.64,0,0,1-.21.44.79.79,0,0,1-.4.27,2.62,2.62,0,0,1-.76.13q-.49,0-1.29,0c-.53,0-1,0-1.3,0a3.3,3.3,0,0,1-.79-.13.86.86,0,0,1-.41-.27,1.32,1.32,0,0,1-.2-.43l-2.43-8.81,0-.14,0,.14L297,83.66a1.19,1.19,0,0,1-.18.44.73.73,0,0,1-.42.27,2.93,2.93,0,0,1-.79.13c-.34,0-.77,0-1.3,0s-1,0-1.31,0a3.2,3.2,0,0,1-.77-.13,1,1,0,0,1-.42-.27,1.13,1.13,0,0,1-.19-.43l-3.83-13.11a6.22,6.22,0,0,1-.19-.74,2.74,2.74,0,0,1,0-.45.45.45,0,0,1,.09-.28.59.59,0,0,1,.32-.2,3.62,3.62,0,0,1,.64-.11c.26,0,.59,0,1,0s.78,0,1.05,0a2.6,2.6,0,0,1,.63.12.61.61,0,0,1,.32.22,1.26,1.26,0,0,1,.14.33l2.87,10.64,0,.2,0-.2,2.7-10.64a.84.84,0,0,1,.15-.33.7.7,0,0,1,.32-.22,2.33,2.33,0,0,1,.59-.12c.25,0,.58,0,1,0s.73,0,1,0a3,3,0,0,1,.59.12.66.66,0,0,1,.31.19.86.86,0,0,1,.13.29l2.89,10.72.05.18,0-.2,2.76-10.64a.82.82,0,0,1,.13-.33.69.69,0,0,1,.33-.22,2.51,2.51,0,0,1,.61-.12q.39,0,1,0t1,0a3.25,3.25,0,0,1,.6.11.57.57,0,0,1,.3.2.51.51,0,0,1,.08.28" transform="translate(-33.67 -41.05)"/><path class="cls-1" d="M320.89,77.73h-1.56a9.06,9.06,0,0,0-1.69.14,3.37,3.37,0,0,0-1.13.44,1.83,1.83,0,0,0-.65.71,2.18,2.18,0,0,0-.2,1,1.81,1.81,0,0,0,.58,1.43,2.27,2.27,0,0,0,1.6.52,3,3,0,0,0,1.58-.44,6.65,6.65,0,0,0,1.47-1.28Zm4,6.2a.43.43,0,0,1-.17.36,1.11,1.11,0,0,1-.51.19,8.39,8.39,0,0,1-1,0,8.49,8.49,0,0,1-1.06,0,.9.9,0,0,1-.47-.19.47.47,0,0,1-.14-.36V82.78a6.54,6.54,0,0,1-2,1.49,5.87,5.87,0,0,1-2.54.54,7.15,7.15,0,0,1-2.12-.3,4.86,4.86,0,0,1-1.67-.89,4.1,4.1,0,0,1-1.09-1.47,5,5,0,0,1-.39-2.05,4.61,4.61,0,0,1,.49-2.2,4.14,4.14,0,0,1,1.48-1.55,7.67,7.67,0,0,1,2.44-.9,17.93,17.93,0,0,1,3.39-.29h1.42v-.88a4.68,4.68,0,0,0-.14-1.19,1.94,1.94,0,0,0-.46-.85,1.87,1.87,0,0,0-.84-.51,4.46,4.46,0,0,0-1.31-.16,6.7,6.7,0,0,0-1.82.23,10.55,10.55,0,0,0-1.42.5c-.41.18-.76.35-1,.5a1.43,1.43,0,0,1-.68.23.51.51,0,0,1-.31-.11.92.92,0,0,1-.23-.33,2.56,2.56,0,0,1-.14-.52,4.61,4.61,0,0,1-.05-.68,2.89,2.89,0,0,1,.09-.8,1.15,1.15,0,0,1,.3-.52,3.14,3.14,0,0,1,.8-.52A9,9,0,0,1,315,69a12.24,12.24,0,0,1,1.66-.4,11.3,11.3,0,0,1,1.86-.15,11.11,11.11,0,0,1,2.91.33,4.87,4.87,0,0,1,2,1,4,4,0,0,1,1.14,1.78,8.28,8.28,0,0,1,.36,2.58Z" transform="translate(-33.67 -41.05)"/><path class="cls-1" d="M337.3,70.74q0,.58,0,1a2.36,2.36,0,0,1-.1.58.57.57,0,0,1-.17.3.46.46,0,0,1-.27.08.88.88,0,0,1-.29-.06l-.36-.12c-.14,0-.29-.09-.45-.12a2.2,2.2,0,0,0-.53-.06,1.89,1.89,0,0,0-.69.14,2.71,2.71,0,0,0-.7.43,4.36,4.36,0,0,0-.76.78,11.91,11.91,0,0,0-.86,1.2v9a.48.48,0,0,1-.09.29.73.73,0,0,1-.34.2,2.19,2.19,0,0,1-.62.12,12.27,12.27,0,0,1-2,0,2.35,2.35,0,0,1-.63-.12.74.74,0,0,1-.33-.2.48.48,0,0,1-.1-.29V69.39a.45.45,0,0,1,.09-.28.62.62,0,0,1,.29-.21,2.75,2.75,0,0,1,.54-.12c.22,0,.5,0,.84,0s.63,0,.86,0a2.47,2.47,0,0,1,.53.12.63.63,0,0,1,.26.21.44.44,0,0,1,.08.28V71.2a11.37,11.37,0,0,1,1.07-1.34,5.75,5.75,0,0,1,1-.84,3,3,0,0,1,.91-.43,3.9,3.9,0,0,1,1.36-.1,4.88,4.88,0,0,1,.51.08,3.52,3.52,0,0,1,.45.13.85.85,0,0,1,.29.16.38.38,0,0,1,.12.17,1.25,1.25,0,0,1,.08.27,4.35,4.35,0,0,1,.05.51c0,.23,0,.54,0,.93" transform="translate(-33.67 -41.05)"/><path class="cls-1" d="M347.89,75.05a4.26,4.26,0,0,0-.69-2.71,2.67,2.67,0,0,0-2.28-1,3,3,0,0,0-1.35.29,2.76,2.76,0,0,0-1,.79,3.56,3.56,0,0,0-.58,1.17,5.56,5.56,0,0,0-.24,1.44Zm4,1.17a1.59,1.59,0,0,1-.33,1.1,1.19,1.19,0,0,1-.92.36h-8.81a5.84,5.84,0,0,0,.22,1.68,3.25,3.25,0,0,0,.7,1.28,3,3,0,0,0,1.23.81,5.39,5.39,0,0,0,1.81.27,10.45,10.45,0,0,0,1.88-.15,13.37,13.37,0,0,0,1.41-.34l1-.34a1.7,1.7,0,0,1,.63-.16.43.43,0,0,1,.24.06.49.49,0,0,1,.17.2,1.67,1.67,0,0,1,.09.42c0,.18,0,.4,0,.67a5.54,5.54,0,0,1,0,.61,4.23,4.23,0,0,1,0,.43,1.5,1.5,0,0,1-.1.3,1.18,1.18,0,0,1-.17.24,2.23,2.23,0,0,1-.58.31,9.63,9.63,0,0,1-1.2.38c-.49.12-1,.23-1.67.32a14.2,14.2,0,0,1-2,.14,10.54,10.54,0,0,1-3.39-.49,5.85,5.85,0,0,1-2.42-1.48,6,6,0,0,1-1.45-2.5,11.7,11.7,0,0,1-.48-3.54,11.08,11.08,0,0,1,.5-3.48,7.34,7.34,0,0,1,1.46-2.64A6.35,6.35,0,0,1,341.93,69a8.14,8.14,0,0,1,3.09-.56,8.06,8.06,0,0,1,3.11.53,5.76,5.76,0,0,1,2.12,1.49,6,6,0,0,1,1.21,2.25,9.78,9.78,0,0,1,.39,2.83Z" transform="translate(-33.67 -41.05)"/><path class="cls-2" d="M71.76,84.36A12.19,12.19,0,1,1,83.93,72.17,12.2,12.2,0,0,1,71.76,84.36M64,41.05A30.35,30.35,0,1,0,94.29,71.4,30.33,30.33,0,0,0,64,41.05" transform="translate(-33.67 -41.05)"/><path class="cls-2" d="M71.76,62.12a10.05,10.05,0,1,0,10,10.05,10,10,0,0,0-10-10.05" transform="translate(-33.67 -41.05)"/></svg>