<?xml version="1.0" encoding="UTF-8"?>
<svg id="Layer_1" data-name="Layer 1" xmlns="http://www.w3.org/2000/svg" viewBox="0 0 155.15 40.64">
  <defs>
    <style>
      .cls-1 {
        fill: #fff;
        stroke-width: 0px;
      }
    </style>
  </defs>
  <g>
    <path class="cls-1" d="M73.18,31.79c.13-.27.31-.49.53-.66.22-.17.49-.3.79-.38.3-.08.63-.12,1-.12.28,0,.55.03.83.08.28.05.52.15.74.3s.4.35.54.62c.14.26.21.61.21,1.03v3.34c0,.31.15.46.45.46.09,0,.17-.02.24-.05v.65c-.09.02-.17.03-.24.04-.07,0-.16.01-.26.01-.2,0-.35-.03-.47-.08-.12-.05-.21-.13-.27-.23-.07-.1-.11-.21-.13-.35-.02-.13-.03-.28-.03-.44h-.02c-.14.2-.28.38-.42.54-.14.16-.3.29-.48.4-.17.11-.37.19-.6.24-.22.06-.49.09-.8.09-.29,0-.57-.03-.82-.1s-.48-.18-.67-.33c-.19-.15-.34-.34-.45-.57s-.16-.51-.16-.82c0-.44.1-.78.29-1.03.19-.25.45-.44.77-.57s.68-.22,1.09-.27c.4-.05.81-.1,1.23-.15.16-.02.3-.04.43-.06.12-.02.22-.07.3-.13.08-.06.14-.14.19-.25.05-.11.07-.24.07-.41,0-.26-.04-.47-.13-.64-.09-.17-.2-.3-.35-.4s-.33-.16-.52-.2-.41-.05-.64-.05c-.49,0-.89.12-1.19.35-.31.23-.47.6-.49,1.12h-.77c.02-.37.1-.68.23-.95ZM77.02,33.67c-.05.09-.14.15-.28.2-.14.04-.26.07-.37.09-.33.06-.66.11-1.01.15-.35.05-.66.11-.94.2-.28.09-.52.22-.7.38-.18.17-.27.4-.27.71,0,.2.04.37.12.52.08.15.18.28.31.39.13.11.28.19.45.25s.35.09.52.09c.29,0,.57-.04.84-.13.27-.09.5-.22.7-.39.2-.17.36-.38.48-.62.12-.24.18-.52.18-.83v-1h-.02Z"/>
    <path class="cls-1" d="M80.02,30.82v1.09h.02c.15-.38.41-.69.78-.92.37-.23.78-.35,1.23-.35s.81.06,1.1.17c.3.11.53.27.71.48.18.21.31.46.38.76.07.3.11.64.11,1.01v4.05h-.77v-3.93c0-.27-.02-.52-.07-.75-.05-.23-.13-.43-.26-.6-.12-.17-.29-.3-.49-.4-.21-.1-.47-.15-.77-.15s-.58.05-.82.16-.44.26-.61.45-.3.42-.39.68c-.09.26-.14.55-.15.86v3.67h-.77v-6.29h.77Z"/>
    <path class="cls-1" d="M92.13,28.4c.39,0,.74.06,1.05.19.31.13.58.3.8.52s.39.47.51.76c.12.29.18.6.18.93,0,.51-.11.96-.32,1.33s-.57.66-1.05.85v.02c.24.07.43.16.59.3.15.13.28.29.38.48.1.18.17.38.21.6.05.22.07.44.09.66,0,.14.02.3.02.49,0,.19.02.38.04.57.02.2.05.38.1.55.05.18.11.32.2.45h-1.91c-.11-.28-.17-.61-.19-.99-.02-.38-.06-.75-.11-1.1-.07-.46-.2-.79-.42-1-.21-.21-.56-.32-1.04-.32h-1.91v3.4h-1.91v-8.71h4.69ZM91.44,32.34c.44,0,.77-.1.99-.29s.33-.51.33-.95-.11-.73-.33-.92-.55-.29-.99-.29h-2.1v2.45h2.1Z"/>
    <path class="cls-1" d="M97.29,34.96c.11.2.24.37.42.49.18.13.38.22.62.28.24.06.48.09.73.09.17,0,.35-.01.55-.04.2-.03.38-.08.55-.16.17-.08.31-.19.43-.34.11-.14.17-.32.17-.54,0-.24-.08-.43-.23-.57-.15-.15-.35-.27-.59-.37-.24-.1-.52-.18-.83-.26-.31-.07-.62-.15-.94-.24-.33-.08-.64-.18-.95-.3-.31-.12-.59-.27-.83-.46-.24-.19-.44-.42-.59-.7s-.23-.62-.23-1.02c0-.45.1-.84.29-1.16.19-.33.44-.6.75-.82.31-.22.66-.38,1.05-.49.39-.11.78-.16,1.17-.16.46,0,.89.05,1.31.15s.79.27,1.12.49c.32.23.58.52.77.87.19.35.29.78.29,1.29h-1.85c-.02-.26-.07-.48-.16-.65-.09-.17-.22-.3-.37-.4-.15-.1-.33-.17-.53-.21-.2-.04-.42-.06-.65-.06-.15,0-.31.02-.46.05-.15.03-.3.09-.42.17s-.23.18-.31.3c-.08.12-.12.28-.12.46,0,.17.03.31.1.41.06.11.19.2.38.29.19.09.46.18.79.27.34.09.78.2,1.32.34.16.03.39.09.68.18.29.09.57.22.86.41.28.19.53.44.74.75.21.31.31.71.31,1.2,0,.4-.08.77-.23,1.11-.15.34-.38.64-.69.88-.31.25-.68.44-1.13.58-.45.14-.97.21-1.57.21-.48,0-.94-.06-1.4-.18-.45-.12-.85-.3-1.19-.55-.35-.25-.62-.57-.82-.96-.2-.39-.3-.85-.29-1.39h1.85c0,.29.05.54.16.74Z"/>
    <path class="cls-1" d="M108.91,30.73c-.11-.18-.26-.34-.43-.48-.17-.14-.36-.25-.58-.32s-.44-.12-.68-.12c-.43,0-.8.08-1.1.25-.3.17-.54.39-.73.67-.19.28-.32.6-.41.96s-.13.73-.13,1.11.04.72.13,1.07c.09.35.22.66.41.93.19.28.43.5.73.66.3.17.67.25,1.1.25.59,0,1.04-.18,1.37-.54.33-.36.53-.83.6-1.41h1.85c-.05.54-.17,1.04-.38,1.48-.2.44-.47.81-.8,1.12-.33.31-.72.54-1.17.71-.45.16-.94.24-1.47.24-.67,0-1.27-.12-1.8-.35-.53-.23-.98-.55-1.35-.96s-.65-.88-.84-1.43c-.2-.55-.29-1.14-.29-1.77s.1-1.25.29-1.81c.19-.56.48-1.04.84-1.46s.81-.74,1.35-.98c.53-.24,1.13-.35,1.8-.35.48,0,.93.07,1.36.21s.81.34,1.15.6c.34.26.62.59.84.98.22.39.36.84.41,1.34h-1.85c-.03-.22-.11-.42-.22-.6Z"/>
    <path class="cls-1" d="M117.63,32.04c-.09-.17-.21-.32-.36-.43s-.32-.2-.52-.25c-.2-.05-.4-.08-.62-.08-.17,0-.34.02-.52.05-.17.04-.34.1-.48.18s-.26.2-.35.34c-.09.14-.13.31-.13.51,0,.17.04.32.13.43.09.12.19.22.32.3s.27.15.43.2c.15.05.3.1.43.13l1.02.23c.22.03.44.09.65.18.22.09.41.2.57.34.17.14.3.31.41.51.11.2.16.44.16.72,0,.34-.08.63-.23.87-.15.24-.35.44-.59.59-.24.15-.51.26-.81.32s-.6.1-.89.1c-.74,0-1.34-.17-1.8-.52s-.72-.91-.79-1.68h.77c.03.52.22.91.57,1.18s.77.4,1.29.4c.19,0,.38-.02.58-.06.2-.04.38-.11.55-.21.17-.1.31-.22.42-.37.11-.15.16-.34.16-.55,0-.19-.04-.34-.12-.47s-.18-.23-.31-.32c-.13-.09-.28-.16-.44-.21-.17-.06-.34-.11-.51-.15l-.99-.22c-.25-.06-.48-.14-.69-.23-.21-.09-.4-.19-.56-.32-.16-.13-.28-.28-.37-.46s-.13-.41-.13-.68c0-.32.07-.59.21-.82s.33-.41.56-.55c.23-.14.48-.24.76-.3.28-.07.56-.1.84-.1.32,0,.61.04.88.12s.51.21.72.38c.21.17.37.38.49.63.12.25.19.55.21.89h-.77c0-.24-.06-.44-.15-.62Z"/>
    <path class="cls-1" d="M123.72,30.9c.37.18.68.42.93.72s.44.65.57,1.05.19.83.19,1.29-.06.88-.19,1.29c-.13.4-.32.75-.57,1.05s-.56.54-.93.71c-.37.17-.8.26-1.27.26s-.9-.09-1.27-.26-.68-.41-.93-.71c-.25-.3-.44-.65-.57-1.05-.13-.4-.2-.83-.2-1.29s.07-.88.2-1.29.32-.75.57-1.05c.25-.3.56-.54.93-.72.37-.18.79-.27,1.27-.27s.9.09,1.27.27ZM121.48,31.51c-.28.15-.51.36-.69.61-.18.25-.32.54-.42.86s-.14.65-.14.98.05.66.14.98.23.61.42.86c.18.25.41.46.69.61s.6.23.96.23.69-.08.96-.23.51-.36.69-.61c.18-.25.32-.54.41-.86s.14-.65.14-.98-.05-.66-.14-.98-.23-.61-.41-.86c-.18-.25-.41-.46-.69-.61s-.6-.23-.96-.23-.69.08-.96.23Z"/>
    <path class="cls-1" d="M127.26,28.4v8.71h-.77v-8.71h.77Z"/>
    <path class="cls-1" d="M133.04,37.11v-1.13h-.02c-.2.42-.5.75-.88.97-.39.22-.81.34-1.29.34-.4,0-.74-.05-1.02-.16-.28-.11-.51-.27-.68-.47-.18-.2-.3-.45-.38-.74-.08-.29-.12-.63-.12-1v-4.08h.77v4.1c.02.57.15,1,.4,1.29.25.29.68.44,1.29.44.33,0,.62-.07.85-.21.24-.14.43-.33.59-.57.15-.24.27-.51.34-.81s.11-.62.11-.93v-3.3h.77v6.29h-.71Z"/>
    <path class="cls-1" d="M137.61,30.82v.65h-1.28v4.24c0,.25.03.45.1.59.07.14.24.22.52.24.22,0,.44-.01.66-.04v.65c-.11,0-.23,0-.34.01-.11,0-.23.01-.34.01-.51,0-.87-.1-1.07-.3-.2-.2-.3-.57-.29-1.1v-4.3h-1.1v-.65h1.1v-1.89h.77v1.89h1.28Z"/>
    <path class="cls-1" d="M139.41,28.4v1.23h-.77v-1.23h.77ZM139.41,30.82v6.29h-.77v-6.29h.77Z"/>
    <path class="cls-1" d="M144.73,30.9c.37.18.68.42.93.72s.44.65.57,1.05.19.83.19,1.29-.06.88-.19,1.29c-.13.4-.32.75-.57,1.05s-.56.54-.93.71c-.37.17-.8.26-1.27.26s-.9-.09-1.27-.26-.68-.41-.93-.71c-.25-.3-.44-.65-.57-1.05-.13-.4-.2-.83-.2-1.29s.07-.88.2-1.29.32-.75.57-1.05c.25-.3.56-.54.93-.72.37-.18.79-.27,1.27-.27s.9.09,1.27.27ZM142.5,31.51c-.28.15-.51.36-.69.61-.18.25-.32.54-.42.86s-.14.65-.14.98.05.66.14.98.23.61.42.86c.18.25.41.46.69.61s.6.23.96.23.69-.08.96-.23.51-.36.69-.61c.18-.25.32-.54.41-.86s.14-.65.14-.98-.05-.66-.14-.98-.23-.61-.41-.86c-.18-.25-.41-.46-.69-.61s-.6-.23-.96-.23-.69.08-.96.23Z"/>
    <path class="cls-1" d="M148.25,30.82v1.09h.02c.15-.38.41-.69.78-.92.37-.23.78-.35,1.23-.35s.81.06,1.1.17c.3.11.53.27.71.48.18.21.31.46.38.76.07.3.11.64.11,1.01v4.05h-.77v-3.93c0-.27-.02-.52-.07-.75-.05-.23-.13-.43-.26-.6-.12-.17-.29-.3-.49-.4-.21-.1-.47-.15-.77-.15s-.58.05-.82.16-.44.26-.61.45-.3.42-.39.68c-.09.26-.14.55-.15.86v3.67h-.77v-6.29h.77Z"/>
  </g>
  <g>
    <path class="cls-1" d="M76.18,12.45v2.31h.05c.16-.39.38-.74.65-1.07.27-.33.59-.61.94-.84.35-.23.73-.41,1.13-.54.4-.13.82-.19,1.25-.19.22,0,.47.04.75.12v3.18c-.16-.03-.35-.06-.58-.09-.22-.02-.44-.04-.65-.04-.63,0-1.16.1-1.59.31-.43.21-.78.49-1.05.85-.27.36-.45.78-.57,1.26-.11.48-.17,1-.17,1.57v5.61h-3.42v-12.45h3.25Z"/>
    <path class="cls-1" d="M88.86,15.36c-.41-.45-1.03-.67-1.87-.67-.55,0-1,.09-1.36.28-.36.18-.65.41-.87.69-.22.27-.37.56-.46.87-.09.3-.14.58-.16.82h5.56c-.16-.87-.45-1.53-.86-1.97h0ZM84.99,21.91c.51.5,1.25.75,2.22.75.69,0,1.28-.17,1.78-.52.5-.35.8-.71.91-1.1h3.01c-.48,1.49-1.22,2.56-2.21,3.2-1,.64-2.2.96-3.61.96-.98,0-1.86-.16-2.65-.47-.79-.31-1.45-.76-2-1.34-.55-.58-.97-1.27-1.26-2.07-.3-.8-.45-1.69-.45-2.65s.15-1.8.46-2.6c.31-.8.74-1.5,1.3-2.08.56-.59,1.23-1.05,2.01-1.39.78-.34,1.64-.51,2.59-.51,1.06,0,1.98.21,2.77.61.79.41,1.43.96,1.94,1.65.51.69.87,1.48,1.1,2.36.23.88.31,1.81.24,2.77h-8.98c.05,1.11.33,1.91.84,2.41h0Z"/>
    <polygon class="cls-1" points="96.79 24.9 92.53 12.45 96.12 12.45 98.75 20.95 98.79 20.95 101.42 12.45 104.81 12.45 100.6 24.9 96.79 24.9 96.79 24.9"/>
    <path class="cls-1" d="M118.76,12.45v2.29h-2.5v6.17c0,.58.1.96.29,1.16.19.19.58.29,1.16.29.19,0,.38,0,.55-.02.18-.02.34-.04.5-.07v2.65c-.29.05-.61.08-.96.1-.35.01-.7.02-1.04.02-.53,0-1.03-.04-1.51-.11-.47-.07-.89-.21-1.25-.42-.36-.21-.65-.5-.85-.89-.21-.39-.31-.89-.31-1.52v-7.35h-2.07v-2.29h2.07v-3.73h3.42v3.73h2.5Z"/>
    <path class="cls-1" d="M123.16,12.45v2.31h.05c.16-.39.38-.74.65-1.07.27-.33.59-.61.94-.84.35-.23.73-.41,1.13-.54.4-.13.82-.19,1.25-.19.22,0,.47.04.75.12v3.18c-.16-.03-.35-.06-.58-.09-.22-.02-.44-.04-.65-.04-.63,0-1.16.1-1.59.31-.43.21-.78.49-1.05.85-.27.36-.45.78-.57,1.26-.11.48-.17,1-.17,1.57v5.61h-3.42v-12.45h3.25Z"/>
    <path class="cls-1" d="M136.07,18.81c-.14.13-.33.23-.54.3-.22.07-.45.13-.7.18-.25.05-.51.09-.78.12-.27.03-.55.07-.82.12-.26.05-.51.11-.76.19-.25.08-.47.19-.65.32-.19.14-.33.31-.45.52-.11.21-.17.47-.17.8s.06.56.17.77c.11.21.26.37.46.49.19.12.42.2.68.25.26.05.52.07.79.07.67,0,1.2-.11,1.57-.34.37-.23.64-.49.82-.81.18-.31.28-.63.33-.95.04-.32.06-.58.06-.77v-1.28h0ZM128.17,16.28c.05-.8.25-1.47.6-2,.35-.53.8-.95,1.35-1.28.55-.32,1.16-.55,1.84-.69.68-.14,1.37-.21,2.06-.21.63,0,1.26.05,1.9.13.64.09,1.23.26,1.76.52.53.26.96.61,1.3,1.07.34.46.51,1.06.51,1.82v6.48c0,.56.03,1.1.1,1.61.07.51.18.9.34,1.16h-3.47c-.06-.19-.12-.39-.16-.59-.04-.2-.07-.41-.08-.61-.55.56-1.19.96-1.93,1.18-.74.22-1.49.34-2.26.34-.59,0-1.15-.07-1.66-.22-.51-.14-.96-.37-1.35-.67-.39-.31-.69-.69-.9-1.16-.22-.47-.33-1.02-.33-1.66,0-.71.12-1.29.37-1.75.25-.46.57-.82.96-1.1.39-.27.84-.48,1.35-.61.51-.14,1.02-.24,1.53-.32.51-.08,1.02-.15,1.52-.19.5-.05.94-.12,1.32-.22.39-.1.69-.24.92-.42.22-.19.33-.45.31-.81,0-.37-.06-.66-.18-.88-.12-.22-.28-.39-.48-.51-.2-.12-.43-.2-.7-.24-.27-.04-.55-.06-.86-.06-.67,0-1.2.14-1.59.43-.39.29-.61.77-.67,1.44h-3.42Z"/>
    <path class="cls-1" d="M146.64,14.69c-.55,0-1,.12-1.37.37-.37.25-.67.57-.9.96-.23.39-.4.83-.49,1.3-.1.47-.14.94-.14,1.41s.05.91.14,1.37c.1.47.25.89.47,1.26.22.38.51.69.88.93.37.24.82.36,1.35.36.82,0,1.45-.23,1.89-.69.44-.46.72-1.07.83-1.84h3.3c-.22,1.65-.87,2.91-1.93,3.78-1.06.87-2.42,1.3-4.07,1.3-.93,0-1.79-.16-2.56-.47-.78-.31-1.44-.75-1.99-1.31-.55-.56-.97-1.23-1.28-2.01-.31-.78-.46-1.63-.46-2.56s.14-1.86.42-2.69c.28-.83.69-1.54,1.24-2.14.55-.6,1.21-1.07,2-1.41.79-.34,1.69-.51,2.7-.51.74,0,1.45.1,2.13.29.68.19,1.29.49,1.83.88.54.39.97.88,1.31,1.47.34.59.53,1.28.58,2.08h-3.35c-.22-1.43-1.07-2.14-2.53-2.14h0Z"/>
    <polygon class="cls-1" points="110.78 20.27 110.78 16.79 105.51 16.79 104.32 20.27 110.78 20.27 110.78 20.27"/>
    <path class="cls-1" d="M153.86,11.57s.09,0,.13,0c.04,0,.08-.01.11-.03.03-.02.06-.04.07-.07.02-.03.03-.07.03-.13,0-.04-.01-.08-.03-.11-.02-.03-.05-.05-.08-.06-.03-.01-.07-.02-.1-.03-.04,0-.08,0-.11,0h-.29v.43h.27ZM153.59,12.41h-.24v-1.48h.56c.18,0,.31.03.4.1.09.07.14.18.14.32,0,.13-.04.23-.11.29-.07.06-.17.1-.27.11l.41.65h-.27l-.38-.63h-.23v.63h0ZM154.87,11.65c0-.16-.03-.31-.08-.45-.05-.14-.12-.25-.22-.35-.09-.1-.2-.17-.32-.23-.12-.05-.26-.08-.4-.08s-.28.03-.4.08c-.12.05-.23.13-.33.23-.09.1-.16.21-.22.35-.05.14-.08.28-.08.45,0,.15.02.3.07.43.05.13.12.25.2.35.09.1.2.18.32.24.13.06.27.09.43.09.14,0,.28-.03.4-.08.12-.05.23-.13.32-.23.09-.1.17-.21.22-.35.05-.13.08-.28.08-.45h0ZM155.15,11.65c0,.2-.03.38-.1.55-.07.16-.17.3-.29.42-.12.12-.26.21-.42.27-.16.06-.32.1-.5.1-.19,0-.37-.03-.53-.1-.16-.07-.3-.16-.42-.28-.11-.12-.21-.26-.27-.42-.06-.16-.1-.34-.1-.53,0-.2.04-.38.11-.55.07-.16.16-.3.29-.42.12-.12.26-.21.42-.27.16-.06.33-.1.5-.1s.34.03.5.1c.16.06.3.15.42.27.12.12.21.26.29.42.07.16.1.35.1.55h0Z"/>
  </g>
  <g>
    <g>
      <polygon class="cls-1" points="59.56 10.06 30.39 11.74 42.25 16.32 60.85 14.08 59.56 10.06"/>
      <polygon class="cls-1" points="61.94 17.49 61.1 14.86 44.18 17.06 53.85 20.8 62.51 19.24 61.94 17.49"/>
      <polygon class="cls-1" points="55.64 21.49 64.3 24.83 62.79 20.13 55.64 21.49"/>
      <polygon class="cls-1" points="0 0 28.63 11.06 56.12 9.47 0 0"/>
      <rect class="cls-1" x="30.37" y="10.89" width="29.21" height="0" transform="translate(18.5 48.85) rotate(-68.71)"/>
    </g>
    <g>
      <polygon class="cls-1" points="21.98 12.22 16.28 19.44 40.6 16.51 28.51 11.85 21.98 12.22"/>
      <rect class="cls-1" x="36.32" y="7.67" width="0" height="12.71" transform="translate(10.15 42.86) rotate(-68.88)"/>
      <rect class="cls-1" x="49.02" y="13.74" width="0" height="10.37" transform="translate(13.7 57.83) rotate(-68.88)"/>
      <polygon class="cls-1" points="15.2 20.83 9.07 28.83 52.37 21.06 42.56 17.27 15.2 20.83"/>
      <polygon class="cls-1" points="7.73 30.57 0 40.64 62.97 25.15 54.18 21.76 7.73 30.57"/>
      <polygon class="cls-1" points="55.64 21.49 55.64 21.49 64.3 24.83 55.64 21.49"/>
    </g>
  </g>
</svg>