<?xml version="1.0" encoding="UTF-8"?>
<svg xmlns="http://www.w3.org/2000/svg" xmlns:xlink="http://www.w3.org/1999/xlink" width="0" height="0">

	<symbol id="uniorg-logo" x="0px" y="0px"
		viewBox="0 0 600 122.03" style="enable-background:new 0 0 600 122.03;" xml:space="preserve">
		<style type="text/css">
			.st0{fill: currentColor;}
		</style>
		<g>
		<path class="st0" d="M72.94,11.87h30.03V69.9c0,5.76-0.9,11.19-2.69,16.3c-1.8,5.11-4.61,9.58-8.44,13.41
				c-3.83,3.83-7.85,6.51-12.06,8.07c-5.85,2.17-12.87,3.25-21.06,3.25c-4.74,0-9.91-0.33-15.52-0.99c-5.6-0.66-10.29-1.98-14.05-3.95
				c-3.77-1.97-7.21-4.77-10.33-8.4c-3.12-3.63-5.26-7.37-6.41-11.22c-1.86-6.2-2.79-11.69-2.79-16.47V11.87h30.03v59.41
				c0,5.31,1.47,9.46,4.42,12.45c2.95,2.99,7.03,4.48,12.26,4.48c5.18,0,9.25-1.47,12.19-4.42c2.95-2.94,4.42-7.11,4.42-12.51V11.87z"
				/>
		<path class="st0" d="M123.11,11.87h28.11l36.68,53.89V11.87h28.37v97.4h-28.37l-36.48-53.48v53.48h-28.3V11.87z"/>
		<path class="st0" d="M237.46,11.87h30.16v97.4h-30.16V11.87z"/>
		<path class="st0" d="M281.35,60.64c0-15.9,4.43-28.28,13.29-37.14c8.86-8.86,21.2-13.29,37.01-13.29c16.21,0,28.7,4.35,37.47,13.06
				c8.77,8.7,13.16,20.9,13.16,36.58c0,11.39-1.91,20.72-5.75,28.01s-9.37,12.95-16.61,17.01c-7.24,4.05-16.27,6.08-27.08,6.08
				c-10.99,0-20.08-1.75-27.27-5.25c-7.2-3.5-13.04-9.04-17.51-16.61C283.58,81.5,281.35,72.02,281.35,60.64z M311.44,60.77
				c0,9.83,1.83,16.9,5.48,21.19c3.66,4.3,8.63,6.45,14.92,6.45c6.47,0,11.47-2.1,15.02-6.31c3.54-4.21,5.31-11.76,5.31-22.66
				c0-9.17-1.85-15.87-5.55-20.1c-3.7-4.23-8.72-6.35-15.05-6.35c-6.07,0-10.94,2.15-14.62,6.44
				C313.28,43.74,311.44,50.85,311.44,60.77z"/>
		<path class="st0" d="M394.8,109.27v-97.4h50.16c9.3,0,16.41,0.8,21.33,2.39s8.88,4.55,11.89,8.87c3.01,4.32,4.52,9.58,4.52,15.78
				c0,5.41-1.15,10.07-3.46,13.99c-2.31,3.92-5.47,7.1-9.51,9.54c-2.57,1.55-6.09,2.83-10.57,3.85c3.58,1.2,6.2,2.4,7.84,3.59
				c1.11,0.8,2.71,2.51,4.81,5.12c2.1,2.62,3.51,4.63,4.22,6.05l14.57,28.23H456.6l-16.09-29.77c-2.04-3.85-3.85-6.36-5.45-7.51
				c-2.17-1.51-4.63-2.26-7.38-2.26h-2.66v39.54H394.8z M425.03,51.34h12.69c1.37,0,4.03-0.44,7.97-1.33c1.99-0.4,3.62-1.42,4.88-3.06
				c1.26-1.64,1.89-3.52,1.89-5.65c0-3.14-0.99-5.56-2.99-7.24c-1.99-1.68-5.74-2.52-11.23-2.52h-13.22V51.34z"/>
		<path class="st0" d="M545.26,73.99V53.73h46.51v41.52c-8.9,6.07-16.78,10.2-23.62,12.39c-6.85,2.19-14.96,3.29-24.35,3.29
				c-11.56,0-20.99-1.97-28.27-5.91c-7.29-3.94-12.94-9.81-16.94-17.61c-4.01-7.8-6.01-16.74-6.01-26.84
				c0-10.63,2.19-19.88,6.58-27.74c4.38-7.86,10.8-13.83,19.26-17.91c6.6-3.15,15.48-4.72,26.65-4.72c10.76,0,18.82,0.98,24.15,2.92
				c5.34,1.95,9.77,4.97,13.29,9.07c3.52,4.1,6.17,9.29,7.94,15.58l-29.03,5.18c-1.2-3.68-3.22-6.49-6.08-8.44
				c-2.86-1.95-6.5-2.92-10.93-2.92c-6.6,0-11.86,2.29-15.78,6.87c-3.92,4.59-5.88,11.84-5.88,21.76c0,10.54,1.98,18.07,5.95,22.59
				c3.96,4.52,9.49,6.78,16.57,6.78c3.37,0,6.58-0.49,9.64-1.46c3.06-0.97,6.55-2.64,10.5-4.98v-9.17H545.26z"/>
		</g>
	</symbol>

	<symbol id="agilita" xmlns="http://www.w3.org/2000/svg" viewBox="0 0 533.38 152.14">
		<defs>
			<style>
				.cls-1{stroke-width:0;fill:currentColor}
			</style>
		</defs>
		<path d="M110.64 9.9c-.84-1.96-2.02-3.71-3.5-5.19a17.059 17.059 0 0 0-5.21-3.53C99.88.4 97.84 0 95.85 0H15.99c-2.01 0-4.04.4-6.09 1.2-1.96.84-3.71 2.01-5.19 3.5a16.657 16.657 0 0 0-3.52 5.24C.41 11.93.01 13.96.01 15.98v79.87c0 2 .4 4.04 1.21 6.16.86 1.94 2.03 3.66 3.49 5.12 1.48 1.49 3.23 2.66 5.24 3.52 1.99.79 4.03 1.18 6.04 1.18h76.33l-5.69-10.7H15.99c-.68 0-1.35-.13-2.03-.42-.64-.26-1.19-.63-1.67-1.11l-.47-.56a5.236 5.236 0 0 1-1.12-3.21V15.99c0-.68.14-1.35.42-2.03.24-.58.63-1.14 1.16-1.68.54-.54 1.1-.93 1.68-1.17.68-.27 1.34-.42 2.03-.42h79.87c.69 0 1.35.14 1.97.39.52.24.92.46 1.23.72l.56.47c.49.49.85 1.04 1.12 1.68.28.68.42 1.34.42 2.02v29.99l10.7 19.35V15.99c0-2.02-.4-4.06-1.2-6.09Z" fill="#922428" stroke-width="0"/>
		<path class="cls-1" d="M211.14 35.13c-.25-.18-.66-.49-1.07-.57-.44-.14-.95-.21-1.49-.21h-3.81c-.6 0-1.09.07-1.36.17-.58.12-.99.42-1.45.79-.37.38-.56.84-.72 1.24-.15.45-.22.96-.22 1.5v47.73c0 .55.07 1.05.26 1.59.12.31.31.78.91 1.35.25.18.66.48 1.05.55.46.15.95.22 1.54.22h3.81c1.2 0 2.12-.32 2.76-.95.63-.63.95-1.56.95-2.76V38.05c0-.55-.07-1.05-.26-1.6-.13-.32-.31-.77-.89-1.33ZM184.83 35.29a2.82 2.82 0 0 0-1.32-.74c-.49-.16-1.04-.2-1.43-.2h-39.09c-1.38 0-2.68.1-3.91.29-1.18.14-2.4.42-3.75.87-1.33.46-2.39.93-3.27 1.43-1 .5-1.99 1.15-3.25 2.17-.84.65-1.66 1.43-2.41 2.3-.83.94-1.42 1.92-1.92 2.82-.47.94-.84 1.95-1.1 2.97-.25.96-.38 2.06-.38 3.26v22.91c0 1.18.13 2.29.38 3.31.27 1.02.64 2 1.11 2.95a13.92 13.92 0 0 0 1.86 2.75c.69.84 1.56 1.67 2.58 2.47 1.07.85 2.07 1.52 3.02 2.02.99.55 2.06 1.01 3.37 1.46 1.14.39 2.37.7 3.75.92 1.43.16 2.67.24 3.91.24h39.09c.45 0 1.81 0 2.58-.8.56-.42.78-.98.95-1.41.15-.45.22-.95.22-1.5v-25.1l-.03-.34c-.06-.34-.12-.72-.34-1.25-.13-.25-.31-.57-.63-.89-.33-.33-.71-.58-1.2-.77-.46-.16-.97-.23-1.56-.23l-23.57.05c-.39 0-.93.04-1.42.2-.5.11-.93.35-1.14.59-.57.42-.8.99-.96 1.41-.15.45-.23.96-.23 1.51v1.9c0 .59.07 1.1.26 1.65.14.36.34.77.74 1.12.41.45.88.64 1.2.77.46.16.95.23 1.56.23h16v13.49h-31.52c-.62 0-1.23-.04-1.81-.12-.64-.09-1.13-.21-1.65-.41a6.24 6.24 0 0 1-1.46-.64c-.42-.21-.88-.51-1.32-.87-.44-.36-.8-.72-1.06-1-.31-.39-.58-.77-.82-1.2-.19-.35-.33-.74-.42-1.06-.08-.47-.16-.98-.16-1.44V50.47c0-.46.08-.96.13-1.27.13-.51.27-.91.42-1.18.23-.38.49-.8.85-1.21.31-.39.71-.74 1.06-1.05.44-.36.93-.64 1.31-.87.48-.23.96-.48 1.47-.64.52-.16 1.08-.33 1.65-.4.57-.08 1.19-.12 1.81-.12h39.09c.59 0 1.09-.07 1.65-.26.32-.13.74-.33 1.12-.7.4-.41.6-.81.76-1.25.15-.45.22-.95.22-1.5v-1.95c0-.55-.07-1.05-.26-1.6-.14-.34-.33-.75-.75-1.17ZM110.92 84.64 87.09 41.13c-.04-.12-.13-.32-.25-.57l-.74-1.46c-1.49-2.82-1.86-3.46-2.2-3.79l-.3-.25c-.15-.12-.35-.29-.63-.42l-.36-.14c-.23-.05-.57-.14-1-.14H77.8c-.44 0-.78.08-1 .14l-.36.14c-.28.14-.48.31-.74.51l-.29.27c-.48.58-2.6 4.68-2.62 4.74L49.36 82.55l-.15.31c-.07.15-.14.3-.21.42l-.15.32c-.06.19-.12.35-.19.48l-.36 1.77c0 .55.07 1.05.26 1.59.13.33.33.75.91 1.3.25.18.66.49 1.06.55.45.15.96.22 1.54.22h2.83c.86 0 1.74-.33 2.37-.84.39-.25.76-.61 1.25-1.18.3-.35.63-.74 1.02-1.33l2.56-4.82c4.71-8.85 9.81-18.43 14.87-28l2.75-5.19L81 50.6c5.92 11.1 11.8 22.17 16.86 31.68L100 86.3c.3.45.64.85 1 1.27.42.49.79.84.92.89.35.36.8.64 1.61.92.34.06.68.12 1.01.12h2.84c1.24 0 2.16-.31 2.81-.96.38-.38.56-.83.72-1.26.15-.45.22-.95.22-1.5 0-.23 0-.47-.13-.91-.01-.06-.03-.14-.06-.25ZM384.68 42.94l.37-.37c.21-.29.36-.57.55-1.05.15-.45.23-.96.23-1.51v-1.95c0-.55-.08-1.06-.27-1.61-.11-.27-.26-.6-.51-.95l-.38-.38c-.26-.19-.66-.48-1.05-.55-.45-.14-.96-.21-1.54-.21h-55.31c-.39 0-.94.03-1.43.2-.5.12-.95.37-1.34.77-.4.4-.63.9-.76 1.24-.15.46-.23.96-.23 1.51v1.95c0 1.13.35 2.11 1 2.76.4.4.87.6 1.16.7.53.21 1.16.25 1.59.25h22.03v42.07c0 1.22.31 2.12.96 2.76.95.95 2.31.95 2.76.95h3.81c.45 0 1.81 0 2.76-.95.66-.66 1-1.59 1-2.76V43.74h21.99c.58 0 1.09-.07 1.66-.27.25-.1.59-.26.94-.51ZM445.71 84.31c-.08-.29-.2-.57-.34-.85-.1-.26-.23-.54-.43-.94l-23.13-41.84c-.08-.14-.2-.37-.38-.72l-.53-1c-1.46-2.75-1.8-3.34-2.13-3.67-.27-.27-.59-.5-.92-.68l-.38-.14c-.23-.05-.56-.13-.98-.13h-3.81c-.4 0-.74.08-.96.14l-.34.13c-.4.2-.72.47-.94.68-.38.38-1.31 2.01-2.77 4.84l-23.42 42.38c-.16.32-.33.7-.38.85-.19.38-.32.72-.33.82-.1.23-.21.57-.25.98-.05.28-.05.51-.05.67 0 .55.07 1.06.17 1.3.1.52.36 1 .79 1.43.4.38.92.66 1.26.72.44.14.94.22 1.49.22h2.88c.83 0 1.62-.29 2.37-.84.38-.25.75-.6 1.17-1.09.32-.37.64-.79 1.04-1.41 5.43-10.13 11.42-21.46 17.42-32.82l2.79-5.19 9.43 17.72c3.84 7.23 7.51 14.14 10.87 20.42.32.48.64.9.96 1.27.42.48.78.83 1.04.99.4.33.78.57 1.48.81.34.06.68.12 1.02.12h2.88c.77 0 1.91-.1 2.75-.94.41-.4.65-.92.76-1.19l.09-.34c.06-.36.12-.77.12-1.24v-.86l-.27-.62ZM311.29 35.13c-.25-.18-.65-.48-1.06-.56-.44-.14-.95-.21-1.49-.21h-3.81c-.59 0-1.09.07-1.36.17-.57.12-.98.41-1.24.61l-.38.38c-.2.28-.36.57-.56 1.07-.14.44-.21.94-.21 1.49v47.73c0 .54.07 1.05.25 1.59.13.33.31.77.94 1.36.24.18.64.47 1.03.53.45.15.95.22 1.54.22h3.81c1.2 0 2.13-.33 2.75-.94.64-.63.96-1.56.96-2.77V38.07c0-.55-.08-1.05-.29-1.67-.13-.3-.31-.72-.87-1.26ZM289.65 81.13c-.41-.41-.83-.61-1.25-.77-.46-.16-.95-.23-1.56-.23h-39.09c-.61 0-1.23-.04-1.8-.12-.64-.09-1.13-.21-1.65-.41a6.24 6.24 0 0 1-1.46-.64c-.23-.12-.45-.25-.66-.39l-.68-.54c-.34-.24-.7-.59-1.03-.94a8.8 8.8 0 0 1-.76-1.09c-.19-.43-.37-.83-.46-1.31-.12-.46-.18-.92-.18-1.31V38.06c0-.55-.08-1.05-.18-1.31-.1-.52-.38-1.04-.79-1.46-.39-.38-.91-.66-1.25-.72-.45-.14-.95-.21-1.49-.21h-3.81c-.58 0-1.09.07-1.36.17-.51.1-.97.36-1.24.64-.54.42-.77.98-.93 1.4-.15.45-.22.96-.22 1.5v35.32c0 .96.11 1.99.38 3.31.27 1.02.64 2 1.11 2.95.48.92 1.07 1.79 1.86 2.75.7.85 1.57 1.68 2.77 2.63 1.03.8 1.99 1.42 2.84 1.85.96.55 1.99 1 3.35 1.48 1.13.39 2.37.7 3.75.92 1.43.16 2.67.24 3.91.24h39.09c1.26 0 2.17-.31 2.81-.95.38-.39.57-.84.73-1.26.15-.45.23-.95.23-1.5V83.9c0-.59-.08-1.09-.26-1.65-.14-.34-.33-.75-.7-1.11Z"/>
		<text class="cls-1" transform="translate(97.67 111.72)" font-family="Montserrat-Regular,Montserrat" font-size="23" letter-spacing=".13em" fill="currentColor"><tspan x="0" y="0">BERLIN • BERN • ZÜRICH</tspan></text>

	</symbol>

	<symbol id="jssoft" xml:space="preserve" xmlns="http://www.w3.org/2000/svg" viewBox="0 0 377.953 119.176">
			<defs>
			<clipPath clipPathUnits="userSpaceOnUse" id="a">
				<path d="M.015 89.37h283.45V0H.015Z"/>
			</clipPath>
			<clipPath clipPathUnits="userSpaceOnUse" id="b">
				<path d="M.015 89.37h283.45V0H.015Z"/>
			</clipPath>
		</defs>
		<path d="M19.125 96.601h2.987l6.53 14.439 5.315-14.439h4.067l5.319 14.439 6.53-14.439h2.986l-7.615 16.735H41.34l-5.348-14.435-5.348 14.435H26.74l-7.615-16.735M53.297 96.601h2.987l6.53 14.439 5.317-14.439h4.065l5.317 14.439 6.532-14.439h2.986l-7.615 16.735h-3.904l-5.35-14.435-5.346 14.435h-3.905l-7.614-16.735M87.47 96.601h2.986l6.53 14.439 5.317-14.439h4.068l5.314 14.439 6.531-14.439h2.985l-7.613 16.735h-3.904l-5.348-14.435-5.348 14.435h-3.905l-7.614-16.735M127.484 113.337h3.674v-4.067h-3.674ZM140.27 89.579h2.825v3.086h-2.824Zm-2.755 27.301c2.198 0 2.756-.36 2.756-2.035V96.604h2.824v18.67c0 2.362-1.576 3.902-4.463 3.902h-1.117v-2.296M148.173 107.561h2.626v.82c0 2.067 1.084 2.92 3.969 2.92h6.04c4.23 0 5.577-.164 5.577-2.658v-.129c0-1.61-.46-2.493-3.838-2.493h-8.696c-3.971 0-5.447-1.281-5.447-4.464v-.985c0-2.723 1.543-4.23 8.497-4.23h4.331c6.368 0 7.253 1.834 7.253 4.198v.883h-2.625v-.16c0-2.562-1.705-2.627-4.792-2.627h-4.92c-4.035 0-4.924.393-4.924 2.297v.624c0 1.376.461 2.166 3.413 2.166h7.451c4.23 0 7.12.426 7.12 4.954v.067c0 4.69-4.333 4.856-7.78 4.856h-5.181c-4.17 0-8.074 0-8.074-5.022v-1.017M173.919 105.952h9.185v-2.623h-9.185zM187.821 107.561h2.628v.82c0 2.067 1.082 2.92 3.968 2.92h6.039c4.23 0 5.576-.164 5.576-2.658v-.129c0-1.61-.46-2.493-3.836-2.493h-8.697c-3.97 0-5.447-1.281-5.447-4.464v-.985c0-2.723 1.543-4.23 8.5-4.23h4.328c6.368 0 7.252 1.834 7.252 4.198v.883h-2.623v-.16c0-2.562-1.706-2.627-4.792-2.627h-4.921c-4.035 0-4.924.393-4.924 2.297v.624c0 1.376.463 2.166 3.416 2.166h7.448c4.23 0 7.12.426 7.12 4.954v.067c0 4.69-4.332 4.856-7.779 4.856h-5.181c-4.17 0-8.075 0-8.075-5.022v-1.017M232.697 103.296c0-3.905-2.297-4.659-5.578-4.659h-5.743c-3.279 0-5.579.754-5.579 4.659v3.346c0 3.905 2.3 4.66 5.579 4.66h5.743c3.281 0 5.578-.755 5.578-4.66zm-19.721-.165c0-5.511 3.905-6.791 9.255-6.791h4.033c5.35 0 9.253 1.28 9.253 6.79v3.676c0 5.515-3.904 6.793-9.253 6.793h-4.033c-5.35 0-9.255-1.278-9.255-6.793v-3.675M242.167 98.9h-3.643v-2.299h3.643v-1.476c0-3.97 2.426-5.546 5.512-5.546h5.281v2.298h-5.052c-2.101 0-2.921 1.182-2.921 2.659v2.065h7.973V98.9h-7.973v14.436h-2.82V98.9M257.973 98.9h-3.677v-2.299h3.677v-3.969h2.82v3.97h11.191V98.9h-11.19v8.332c0 3.119 1.085 4.068 4.169 4.068h.882c3.74 0 4.335-.785 4.335-4.296v-1.248h2.295v1.838c0 3.348-.328 6.006-6.431 6.006h-1.543c-5.281 0-6.528-2.56-6.528-5.283V98.9M279.324 113.337h3.673v-4.067h-3.673zM290.961 103.099c0-6.072 4.268-6.759 8.402-6.759h4.722c5.251 0 7.32 2.132 7.32 5.676v.459h-2.624v-.395c0-2.787-1.84-3.445-4.658-3.445h-5.188c-2.655 0-5.148.394-5.148 4.564v3.508c0 3.742 2.294 4.594 5.706 4.594h4.758c2.625 0 4.824-.787 4.824-3.51v-.558h2.625v.49c0 4.236-2.1 5.877-7.35 5.877h-6.366c-2.528 0-7.023-.69-7.023-6.762v-3.74M335.179 103.296c0-3.905-2.298-4.659-5.579-4.659h-5.741c-3.283 0-5.578.754-5.578 4.659v3.346c0 3.905 2.295 4.66 5.578 4.66h5.741c3.281 0 5.579-.755 5.579-4.66zm-19.723-.165c0-5.511 3.907-6.791 9.256-6.791h4.033c5.35 0 9.255 1.28 9.255 6.79v3.676c0 5.515-3.905 6.793-9.255 6.793h-4.033c-5.35 0-9.256-1.278-9.256-6.793v-3.675M342.745 96.601h2.623v1.971h.068c1.18-1.741 2.788-2.232 5.61-2.232h4.56c2.56 0 4.53 1.016 5.413 3.084 1.05-2.265 3.317-3.084 6.204-3.084h3.41c4.528 0 7.32 1.967 7.32 5.775v11.221h-2.822v-10.893c0-1.936-.854-3.808-5.348-3.808h-2.003c-5.085 0-5.773 2.101-5.773 4.793v9.908h-2.824v-10.137c0-3.25-1.016-4.564-5.514-4.564h-2.821c-3.608 0-5.283 1.51-5.283 4.2v10.501h-2.82V96.601M19.125 80.212h358.828M19.125 81.157h358.828v-1.89H19.125Z" fill="#6a6f77"/>
		<g clip-path="url(#a)" transform="matrix(1.33333 0 0 -1.33333 0 119.176)">
			<path d="M0 28.491h2.295c5.94 0 9.18 3.175 9.18 8.034v38.412H5.67V37.4c0-3.439-1.149-4.183-5.67-4.183Zm5.67 54.545h5.804v6.345H5.67Z" fill="#223262"/>
		</g>
		<path d="m61.227 65.445 1.534-2.844-6.221-2.956c.128-.688.212-1.377.212-1.992V51.78h-3.917v6.216L29.057 46.668c-1.449-.687-1.492-1.532-1.492-3.336 0-1.804.682-2.92 3.964-2.92h13.846c2.261 0 4.052.81 4.052 3.381v2.067h3.921v-2.3c0-3.797-2.048-6.219-8.015-6.219H30.295c-4.051 0-6.904 1.615-6.904 5.61 0 3.948.553 4.332 3.364 5.985v.077c-6.094 0-7.543 2.494-7.543 7.602 0 6.37 2.263 9.134 11.168 9.134h14.91c4.177 0 8.267-.382 10.187-2.994zm-9.586-4.34c-.469 1.154-2.898 1.575-6.905 1.575H30.464c-6.135 0-7.073-1.995-7.073-5.184v-1.879c0-4.454 3.964-4.834 5.068-4.834h1.278l21.904 10.322M316.544 56.259v2.581h4.476v.637c0 3.366-.996 3.436-4.241 3.436-3.787 0-4.355-.377-4.402-4.1v-4.07c.047-3.435.431-4.052 4.402-4.052 2.964 0 4.241-.022 4.241 2.582h3.383c.118-5.705-3.284-5.489-7.624-5.489-5.49 0-7.804 1.039-7.804 6.959v4.07c0 6.012 2.126 7.011 7.804 7.011 6.325 0 7.646-1.088 7.646-6.347V56.26zm10.323-3.007v12.427h2.981v-7.006c0-2.204.477-3.294 2.89-3.294 1.634 0 2.013.617 2.086 2.178v8.122h2.983v-7.006c0-2.204.47-3.294 2.888-3.294 1.63 0 2.012.617 2.081 2.178v8.122h2.983v-8.402c0-3.052-1.063-4.165-4.284-4.165-1.66 0-3.363.47-3.932 2.196h-.09c-.334-1.795-2.13-2.196-3.694-2.196-1.566 0-3.248.355-3.911 1.936h-.096v-1.796Zm27.724 2.127c2.057 0 2.648.594 2.648 3.722 0 2.819.077 4.455-2.648 4.455-3.058 0-2.984-1.496-2.984-4.455 0-2.653.4-3.722 2.984-3.722m-5.966 10.3h2.982l-.12-1.866h.096c.758 1.632 2.133 2.011 3.884 2.011 4.613 0 4.756-2.91 4.756-6.723 0-3.649-.494-5.989-4.756-5.989-1.516 0-3.104.285-3.743 1.793h-.117v-6.977h-2.982Zm29.327-17.751h-3.404v7.27h-8.263v-7.27h-3.409v17.75h3.41v-7.575h8.262v7.576h3.404V47.928" fill="#6a6f77"/>
		<g clip-path="url(#b)" transform="matrix(1.33333 0 0 -1.33333 0 119.176)">
			<path d="M47.935 50.296c0-10.329 8.034-10.329 16.609-10.329h10.663c7.088 0 15.998.336 15.998 9.993v.132c0 9.317-5.939 10.196-14.648 10.196H61.234c-6.076 0-7.019 1.617-7.019 4.454v1.282c0 3.913 1.822 4.723 10.125 4.723h10.126c6.342 0 9.854-.134 9.854-5.398v-.338h5.398v1.825c0 4.857-1.822 8.64-14.914 8.64h-8.911c-14.311 0-17.485-3.106-17.485-8.71v-2.024c0-6.55 3.039-9.18 11.208-9.18h17.886c6.951 0 7.899-1.826 7.899-5.131v-.27c0-5.131-2.768-5.467-11.477-5.467h-12.42c-5.939 0-8.168 1.756-8.168 6.006v1.687h-5.401Zm47.253 5.402h18.901v5.399H95.188Zm24.231-5.402c0-10.329 8.031-10.329 16.607-10.329h10.663c7.088 0 15.998.336 15.998 9.993v.132c0 9.317-5.938 10.196-14.648 10.196h-15.322c-6.075 0-7.02 1.617-7.02 4.454v1.282c0 3.913 1.822 4.723 10.126 4.723h10.124c6.347 0 9.856-.134 9.856-5.398v-.338h5.399v1.825c0 4.857-1.82 8.64-14.917 8.64h-8.91c-14.311 0-17.483-3.106-17.483-8.71v-2.024c0-6.55 3.037-9.18 11.205-9.18h17.89c6.95 0 7.896-1.826 7.896-5.131v-.27c0-5.131-2.765-5.467-11.477-5.467h-12.417c-5.943 0-8.169 1.756-8.169 6.006v1.687h-5.401zm47.385 3.646c0-11.343 8.035-13.975 19.038-13.975h8.301c11.007 0 19.038 2.632 19.038 13.975v7.561c0 11.337-8.031 13.973-19.038 13.973h-8.301c-11.003 0-19.038-2.636-19.038-13.973zm40.573.336c0-8.033-4.722-9.584-11.478-9.584h-11.812c-6.751 0-11.475 1.551-11.475 9.584v6.887c0 8.032 4.724 9.582 11.475 9.582h11.812c6.756 0 11.478-1.55 11.478-9.582zm14.446-13.772h5.805v29.702h16.403v4.726h-16.403v4.253c0 3.038 1.686 5.468 6.009 5.468h10.394v4.724h-10.869c-6.342 0-11.339-3.239-11.339-11.407v-3.038h-7.492v-4.726h7.492V40.506" fill="#223262"/>
		</g>
		<path d="M347.261 25.565h30.691v-6.298h-30.69V8.375h-7.737v10.892h-10.084v6.298h10.084v22.363h7.736" fill="#223262"/>

	</symbol>

	<symbol id="cbs" xmlns="http://www.w3.org/2000/svg" viewBox="0 0 523.02 190.78">
		<defs></defs>
		<path d="M306.21,534.07q-16.71,0-26.56-9.56t-9.85-25.82q0-15.44,9.1-25.4t23.28-10q13.59,0,29.5,10.14V451.1a95.57,95.57,0,0,0-16.08-5.81,63.17,63.17,0,0,0-14.69-1.56q-23.51,0-37.91,15.33t-14.4,40.33q0,24.76,14.8,39.52t39.7,14.75A88.13,88.13,0,0,0,334,547.78V527q-15.68,7-27.77,7" transform="translate(-248.6 -364)"></path>
		<path d="M475.53,552.76a63.62,63.62,0,0,0,16.82,2q16,0,26.22-8.35a26.39,26.39,0,0,0,10.19-21.37q0-18.19-26.51-33.18l-7.49-4.26q-8.53-4.72-11.92-8.06c-2.26-2.24-3.39-4.58-3.39-7a8,8,0,0,1,3.74-6.87q3.75-2.59,9.85-2.59,11.86,0,30.54,11.29V453.61q-16.37-8.76-31.92-8.76-15,0-24.49,7.72a24.53,24.53,0,0,0-9.5,19.94A27.65,27.65,0,0,0,464,490q6.27,8,26.56,19.3,10.14,5.78,13.19,8.82a10.39,10.39,0,0,1,3.06,7.66q0,4.5-4.73,7.72a19.53,19.53,0,0,1-11.29,3.23q-6.35,0-15.61-3.86A95.5,95.5,0,0,1,457,522.75v22.58a112.69,112.69,0,0,0,18.55,7.43" transform="translate(-248.6 -364)"></path>
		<path d="M396.71,464.21q13.25,0,21.49,9.91t8.24,25.7q0,15.56-8.81,25.46t-22.76,9.91a75.61,75.61,0,0,1-22-3.23V474.58q12.11-10.36,23.85-10.37m-44.82,82.85q6.67,3.35,18,5.53a114.2,114.2,0,0,0,21.61,2.19q25.58,0,40.85-15.15t15.26-40.74q0-23.85-12.79-39.06t-33-15.21q-15.45,0-29,9.91V392l-21,17.45Z" transform="translate(-248.6 -364)"></path>
		<path d="M639.62,545.87a94.74,94.74,0,0,0,127-117.59c-15,42.83-96,110.46-127,117.59m-40.5-141.22a94.66,94.66,0,0,0,3,112.24c-6.2-27.77-6.9-88.25-3-112.24m139.11-18.07A94.65,94.65,0,0,0,613.93,388c47.44-11,102.26-4.74,124.3-1.38" transform="translate(-248.6 -364)" fill="#F07D00"></path>
		<path d="M626.05,418.56c-2.07,6.59-4.14,23.63-4.14,43.3s1.8,41.28,4.14,49.6,4,10.28,11.91,8.3,44.73-28.32,57.18-39.87c15.69-14.61,31.21-30.84,52.49-59,7.76-11.37-4.87-13.35-4.87-13.35s-24.44-5.77-58.8-5.05c-24.53,1.08-41.13,3.07-47.26,4.87s-8.57,4.6-10.65,11.18" fill="#F07D00" transform="translate(-248.6 -364)"></path>
	</symbol>
</svg>
