<?xml version="1.0" encoding="UTF-8"?>
<svg xmlns="http://www.w3.org/2000/svg" xmlns:xlink="http://www.w3.org/1999/xlink" width="0" height="0">

	<symbol id="uniorg-logo" x="0px" y="0px"
		viewBox="0 0 600 122.03" style="enable-background:new 0 0 600 122.03;" xml:space="preserve">
		<style type="text/css">
			.st0{fill: currentColor;}
		</style>
		<g>
		<path class="st0" d="M72.94,11.87h30.03V69.9c0,5.76-0.9,11.19-2.69,16.3c-1.8,5.11-4.61,9.58-8.44,13.41
				c-3.83,3.83-7.85,6.51-12.06,8.07c-5.85,2.17-12.87,3.25-21.06,3.25c-4.74,0-9.91-0.33-15.52-0.99c-5.6-0.66-10.29-1.98-14.05-3.95
				c-3.77-1.97-7.21-4.77-10.33-8.4c-3.12-3.63-5.26-7.37-6.41-11.22c-1.86-6.2-2.79-11.69-2.79-16.47V11.87h30.03v59.41
				c0,5.31,1.47,9.46,4.42,12.45c2.95,2.99,7.03,4.48,12.26,4.48c5.18,0,9.25-1.47,12.19-4.42c2.95-2.94,4.42-7.11,4.42-12.51V11.87z"
				/>
		<path class="st0" d="M123.11,11.87h28.11l36.68,53.89V11.87h28.37v97.4h-28.37l-36.48-53.48v53.48h-28.3V11.87z"/>
		<path class="st0" d="M237.46,11.87h30.16v97.4h-30.16V11.87z"/>
		<path class="st0" d="M281.35,60.64c0-15.9,4.43-28.28,13.29-37.14c8.86-8.86,21.2-13.29,37.01-13.29c16.21,0,28.7,4.35,37.47,13.06
				c8.77,8.7,13.16,20.9,13.16,36.58c0,11.39-1.91,20.72-5.75,28.01s-9.37,12.95-16.61,17.01c-7.24,4.05-16.27,6.08-27.08,6.08
				c-10.99,0-20.08-1.75-27.27-5.25c-7.2-3.5-13.04-9.04-17.51-16.61C283.58,81.5,281.35,72.02,281.35,60.64z M311.44,60.77
				c0,9.83,1.83,16.9,5.48,21.19c3.66,4.3,8.63,6.45,14.92,6.45c6.47,0,11.47-2.1,15.02-6.31c3.54-4.21,5.31-11.76,5.31-22.66
				c0-9.17-1.85-15.87-5.55-20.1c-3.7-4.23-8.72-6.35-15.05-6.35c-6.07,0-10.94,2.15-14.62,6.44
				C313.28,43.74,311.44,50.85,311.44,60.77z"/>
		<path class="st0" d="M394.8,109.27v-97.4h50.16c9.3,0,16.41,0.8,21.33,2.39s8.88,4.55,11.89,8.87c3.01,4.32,4.52,9.58,4.52,15.78
				c0,5.41-1.15,10.07-3.46,13.99c-2.31,3.92-5.47,7.1-9.51,9.54c-2.57,1.55-6.09,2.83-10.57,3.85c3.58,1.2,6.2,2.4,7.84,3.59
				c1.11,0.8,2.71,2.51,4.81,5.12c2.1,2.62,3.51,4.63,4.22,6.05l14.57,28.23H456.6l-16.09-29.77c-2.04-3.85-3.85-6.36-5.45-7.51
				c-2.17-1.51-4.63-2.26-7.38-2.26h-2.66v39.54H394.8z M425.03,51.34h12.69c1.37,0,4.03-0.44,7.97-1.33c1.99-0.4,3.62-1.42,4.88-3.06
				c1.26-1.64,1.89-3.52,1.89-5.65c0-3.14-0.99-5.56-2.99-7.24c-1.99-1.68-5.74-2.52-11.23-2.52h-13.22V51.34z"/>
		<path class="st0" d="M545.26,73.99V53.73h46.51v41.52c-8.9,6.07-16.78,10.2-23.62,12.39c-6.85,2.19-14.96,3.29-24.35,3.29
				c-11.56,0-20.99-1.97-28.27-5.91c-7.29-3.94-12.94-9.81-16.94-17.61c-4.01-7.8-6.01-16.74-6.01-26.84
				c0-10.63,2.19-19.88,6.58-27.74c4.38-7.86,10.8-13.83,19.26-17.91c6.6-3.15,15.48-4.72,26.65-4.72c10.76,0,18.82,0.98,24.15,2.92
				c5.34,1.95,9.77,4.97,13.29,9.07c3.52,4.1,6.17,9.29,7.94,15.58l-29.03,5.18c-1.2-3.68-3.22-6.49-6.08-8.44
				c-2.86-1.95-6.5-2.92-10.93-2.92c-6.6,0-11.86,2.29-15.78,6.87c-3.92,4.59-5.88,11.84-5.88,21.76c0,10.54,1.98,18.07,5.95,22.59
				c3.96,4.52,9.49,6.78,16.57,6.78c3.37,0,6.58-0.49,9.64-1.46c3.06-0.97,6.55-2.64,10.5-4.98v-9.17H545.26z"/>
		</g>
	</symbol>

	<symbol id="agilita" xmlns="http://www.w3.org/2000/svg" viewBox="0 0 533.38 152.14">
		<defs>
			<style>
				.cls-1{stroke-width:0;fill:currentColor}
			</style>
		</defs>
		<path d="M110.64 9.9c-.84-1.96-2.02-3.71-3.5-5.19a17.059 17.059 0 0 0-5.21-3.53C99.88.4 97.84 0 95.85 0H15.99c-2.01 0-4.04.4-6.09 1.2-1.96.84-3.71 2.01-5.19 3.5a16.657 16.657 0 0 0-3.52 5.24C.41 11.93.01 13.96.01 15.98v79.87c0 2 .4 4.04 1.21 6.16.86 1.94 2.03 3.66 3.49 5.12 1.48 1.49 3.23 2.66 5.24 3.52 1.99.79 4.03 1.18 6.04 1.18h76.33l-5.69-10.7H15.99c-.68 0-1.35-.13-2.03-.42-.64-.26-1.19-.63-1.67-1.11l-.47-.56a5.236 5.236 0 0 1-1.12-3.21V15.99c0-.68.14-1.35.42-2.03.24-.58.63-1.14 1.16-1.68.54-.54 1.1-.93 1.68-1.17.68-.27 1.34-.42 2.03-.42h79.87c.69 0 1.35.14 1.97.39.52.24.92.46 1.23.72l.56.47c.49.49.85 1.04 1.12 1.68.28.68.42 1.34.42 2.02v29.99l10.7 19.35V15.99c0-2.02-.4-4.06-1.2-6.09Z" fill="#922428" stroke-width="0"/>
		<path class="cls-1" d="M211.14 35.13c-.25-.18-.66-.49-1.07-.57-.44-.14-.95-.21-1.49-.21h-3.81c-.6 0-1.09.07-1.36.17-.58.12-.99.42-1.45.79-.37.38-.56.84-.72 1.24-.15.45-.22.96-.22 1.5v47.73c0 .55.07 1.05.26 1.59.12.31.31.78.91 1.35.25.18.66.48 1.05.55.46.15.95.22 1.54.22h3.81c1.2 0 2.12-.32 2.76-.95.63-.63.95-1.56.95-2.76V38.05c0-.55-.07-1.05-.26-1.6-.13-.32-.31-.77-.89-1.33ZM184.83 35.29a2.82 2.82 0 0 0-1.32-.74c-.49-.16-1.04-.2-1.43-.2h-39.09c-1.38 0-2.68.1-3.91.29-1.18.14-2.4.42-3.75.87-1.33.46-2.39.93-3.27 1.43-1 .5-1.99 1.15-3.25 2.17-.84.65-1.66 1.43-2.41 2.3-.83.94-1.42 1.92-1.92 2.82-.47.94-.84 1.95-1.1 2.97-.25.96-.38 2.06-.38 3.26v22.91c0 1.18.13 2.29.38 3.31.27 1.02.64 2 1.11 2.95a13.92 13.92 0 0 0 1.86 2.75c.69.84 1.56 1.67 2.58 2.47 1.07.85 2.07 1.52 3.02 2.02.99.55 2.06 1.01 3.37 1.46 1.14.39 2.37.7 3.75.92 1.43.16 2.67.24 3.91.24h39.09c.45 0 1.81 0 2.58-.8.56-.42.78-.98.95-1.41.15-.45.22-.95.22-1.5v-25.1l-.03-.34c-.06-.34-.12-.72-.34-1.25-.13-.25-.31-.57-.63-.89-.33-.33-.71-.58-1.2-.77-.46-.16-.97-.23-1.56-.23l-23.57.05c-.39 0-.93.04-1.42.2-.5.11-.93.35-1.14.59-.57.42-.8.99-.96 1.41-.15.45-.23.96-.23 1.51v1.9c0 .59.07 1.1.26 1.65.14.36.34.77.74 1.12.41.45.88.64 1.2.77.46.16.95.23 1.56.23h16v13.49h-31.52c-.62 0-1.23-.04-1.81-.12-.64-.09-1.13-.21-1.65-.41a6.24 6.24 0 0 1-1.46-.64c-.42-.21-.88-.51-1.32-.87-.44-.36-.8-.72-1.06-1-.31-.39-.58-.77-.82-1.2-.19-.35-.33-.74-.42-1.06-.08-.47-.16-.98-.16-1.44V50.47c0-.46.08-.96.13-1.27.13-.51.27-.91.42-1.18.23-.38.49-.8.85-1.21.31-.39.71-.74 1.06-1.05.44-.36.93-.64 1.31-.87.48-.23.96-.48 1.47-.64.52-.16 1.08-.33 1.65-.4.57-.08 1.19-.12 1.81-.12h39.09c.59 0 1.09-.07 1.65-.26.32-.13.74-.33 1.12-.7.4-.41.6-.81.76-1.25.15-.45.22-.95.22-1.5v-1.95c0-.55-.07-1.05-.26-1.6-.14-.34-.33-.75-.75-1.17ZM110.92 84.64 87.09 41.13c-.04-.12-.13-.32-.25-.57l-.74-1.46c-1.49-2.82-1.86-3.46-2.2-3.79l-.3-.25c-.15-.12-.35-.29-.63-.42l-.36-.14c-.23-.05-.57-.14-1-.14H77.8c-.44 0-.78.08-1 .14l-.36.14c-.28.14-.48.31-.74.51l-.29.27c-.48.58-2.6 4.68-2.62 4.74L49.36 82.55l-.15.31c-.07.15-.14.3-.21.42l-.15.32c-.06.19-.12.35-.19.48l-.36 1.77c0 .55.07 1.05.26 1.59.13.33.33.75.91 1.3.25.18.66.49 1.06.55.45.15.96.22 1.54.22h2.83c.86 0 1.74-.33 2.37-.84.39-.25.76-.61 1.25-1.18.3-.35.63-.74 1.02-1.33l2.56-4.82c4.71-8.85 9.81-18.43 14.87-28l2.75-5.19L81 50.6c5.92 11.1 11.8 22.17 16.86 31.68L100 86.3c.3.45.64.85 1 1.27.42.49.79.84.92.89.35.36.8.64 1.61.92.34.06.68.12 1.01.12h2.84c1.24 0 2.16-.31 2.81-.96.38-.38.56-.83.72-1.26.15-.45.22-.95.22-1.5 0-.23 0-.47-.13-.91-.01-.06-.03-.14-.06-.25ZM384.68 42.94l.37-.37c.21-.29.36-.57.55-1.05.15-.45.23-.96.23-1.51v-1.95c0-.55-.08-1.06-.27-1.61-.11-.27-.26-.6-.51-.95l-.38-.38c-.26-.19-.66-.48-1.05-.55-.45-.14-.96-.21-1.54-.21h-55.31c-.39 0-.94.03-1.43.2-.5.12-.95.37-1.34.77-.4.4-.63.9-.76 1.24-.15.46-.23.96-.23 1.51v1.95c0 1.13.35 2.11 1 2.76.4.4.87.6 1.16.7.53.21 1.16.25 1.59.25h22.03v42.07c0 1.22.31 2.12.96 2.76.95.95 2.31.95 2.76.95h3.81c.45 0 1.81 0 2.76-.95.66-.66 1-1.59 1-2.76V43.74h21.99c.58 0 1.09-.07 1.66-.27.25-.1.59-.26.94-.51ZM445.71 84.31c-.08-.29-.2-.57-.34-.85-.1-.26-.23-.54-.43-.94l-23.13-41.84c-.08-.14-.2-.37-.38-.72l-.53-1c-1.46-2.75-1.8-3.34-2.13-3.67-.27-.27-.59-.5-.92-.68l-.38-.14c-.23-.05-.56-.13-.98-.13h-3.81c-.4 0-.74.08-.96.14l-.34.13c-.4.2-.72.47-.94.68-.38.38-1.31 2.01-2.77 4.84l-23.42 42.38c-.16.32-.33.7-.38.85-.19.38-.32.72-.33.82-.1.23-.21.57-.25.98-.05.28-.05.51-.05.67 0 .55.07 1.06.17 1.3.1.52.36 1 .79 1.43.4.38.92.66 1.26.72.44.14.94.22 1.49.22h2.88c.83 0 1.62-.29 2.37-.84.38-.25.75-.6 1.17-1.09.32-.37.64-.79 1.04-1.41 5.43-10.13 11.42-21.46 17.42-32.82l2.79-5.19 9.43 17.72c3.84 7.23 7.51 14.14 10.87 20.42.32.48.64.9.96 1.27.42.48.78.83 1.04.99.4.33.78.57 1.48.81.34.06.68.12 1.02.12h2.88c.77 0 1.91-.1 2.75-.94.41-.4.65-.92.76-1.19l.09-.34c.06-.36.12-.77.12-1.24v-.86l-.27-.62ZM311.29 35.13c-.25-.18-.65-.48-1.06-.56-.44-.14-.95-.21-1.49-.21h-3.81c-.59 0-1.09.07-1.36.17-.57.12-.98.41-1.24.61l-.38.38c-.2.28-.36.57-.56 1.07-.14.44-.21.94-.21 1.49v47.73c0 .54.07 1.05.25 1.59.13.33.31.77.94 1.36.24.18.64.47 1.03.53.45.15.95.22 1.54.22h3.81c1.2 0 2.13-.33 2.75-.94.64-.63.96-1.56.96-2.77V38.07c0-.55-.08-1.05-.29-1.67-.13-.3-.31-.72-.87-1.26ZM289.65 81.13c-.41-.41-.83-.61-1.25-.77-.46-.16-.95-.23-1.56-.23h-39.09c-.61 0-1.23-.04-1.8-.12-.64-.09-1.13-.21-1.65-.41a6.24 6.24 0 0 1-1.46-.64c-.23-.12-.45-.25-.66-.39l-.68-.54c-.34-.24-.7-.59-1.03-.94a8.8 8.8 0 0 1-.76-1.09c-.19-.43-.37-.83-.46-1.31-.12-.46-.18-.92-.18-1.31V38.06c0-.55-.08-1.05-.18-1.31-.1-.52-.38-1.04-.79-1.46-.39-.38-.91-.66-1.25-.72-.45-.14-.95-.21-1.49-.21h-3.81c-.58 0-1.09.07-1.36.17-.51.1-.97.36-1.24.64-.54.42-.77.98-.93 1.4-.15.45-.22.96-.22 1.5v35.32c0 .96.11 1.99.38 3.31.27 1.02.64 2 1.11 2.95.48.92 1.07 1.79 1.86 2.75.7.85 1.57 1.68 2.77 2.63 1.03.8 1.99 1.42 2.84 1.85.96.55 1.99 1 3.35 1.48 1.13.39 2.37.7 3.75.92 1.43.16 2.67.24 3.91.24h39.09c1.26 0 2.17-.31 2.81-.95.38-.39.57-.84.73-1.26.15-.45.23-.95.23-1.5V83.9c0-.59-.08-1.09-.26-1.65-.14-.34-.33-.75-.7-1.11Z"/>
		<text class="cls-1" transform="translate(97.67 111.72)" font-family="Montserrat-Regular,Montserrat" font-size="23" letter-spacing=".13em" fill="currentColor"><tspan x="0" y="0">BERLIN • BERN • ZÜRICH</tspan></text>

	</symbol>
</svg>
