<?xml version="1.0" encoding="UTF-8"?>
<svg xmlns="http://www.w3.org/2000/svg" xmlns:xlink="http://www.w3.org/1999/xlink" width="0" height="0">

	<symbol id="uniorg-logo" x="0px" y="0px"
		viewBox="0 0 600 122.03" style="enable-background:new 0 0 600 122.03;" xml:space="preserve">
		<style type="text/css">
			.st0{fill: currentColor;}
		</style>
		<g>
		<path class="st0" d="M72.94,11.87h30.03V69.9c0,5.76-0.9,11.19-2.69,16.3c-1.8,5.11-4.61,9.58-8.44,13.41
				c-3.83,3.83-7.85,6.51-12.06,8.07c-5.85,2.17-12.87,3.25-21.06,3.25c-4.74,0-9.91-0.33-15.52-0.99c-5.6-0.66-10.29-1.98-14.05-3.95
				c-3.77-1.97-7.21-4.77-10.33-8.4c-3.12-3.63-5.26-7.37-6.41-11.22c-1.86-6.2-2.79-11.69-2.79-16.47V11.87h30.03v59.41
				c0,5.31,1.47,9.46,4.42,12.45c2.95,2.99,7.03,4.48,12.26,4.48c5.18,0,9.25-1.47,12.19-4.42c2.95-2.94,4.42-7.11,4.42-12.51V11.87z"
				/>
		<path class="st0" d="M123.11,11.87h28.11l36.68,53.89V11.87h28.37v97.4h-28.37l-36.48-53.48v53.48h-28.3V11.87z"/>
		<path class="st0" d="M237.46,11.87h30.16v97.4h-30.16V11.87z"/>
		<path class="st0" d="M281.35,60.64c0-15.9,4.43-28.28,13.29-37.14c8.86-8.86,21.2-13.29,37.01-13.29c16.21,0,28.7,4.35,37.47,13.06
				c8.77,8.7,13.16,20.9,13.16,36.58c0,11.39-1.91,20.72-5.75,28.01s-9.37,12.95-16.61,17.01c-7.24,4.05-16.27,6.08-27.08,6.08
				c-10.99,0-20.08-1.75-27.27-5.25c-7.2-3.5-13.04-9.04-17.51-16.61C283.58,81.5,281.35,72.02,281.35,60.64z M311.44,60.77
				c0,9.83,1.83,16.9,5.48,21.19c3.66,4.3,8.63,6.45,14.92,6.45c6.47,0,11.47-2.1,15.02-6.31c3.54-4.21,5.31-11.76,5.31-22.66
				c0-9.17-1.85-15.87-5.55-20.1c-3.7-4.23-8.72-6.35-15.05-6.35c-6.07,0-10.94,2.15-14.62,6.44
				C313.28,43.74,311.44,50.85,311.44,60.77z"/>
		<path class="st0" d="M394.8,109.27v-97.4h50.16c9.3,0,16.41,0.8,21.33,2.39s8.88,4.55,11.89,8.87c3.01,4.32,4.52,9.58,4.52,15.78
				c0,5.41-1.15,10.07-3.46,13.99c-2.31,3.92-5.47,7.1-9.51,9.54c-2.57,1.55-6.09,2.83-10.57,3.85c3.58,1.2,6.2,2.4,7.84,3.59
				c1.11,0.8,2.71,2.51,4.81,5.12c2.1,2.62,3.51,4.63,4.22,6.05l14.57,28.23H456.6l-16.09-29.77c-2.04-3.85-3.85-6.36-5.45-7.51
				c-2.17-1.51-4.63-2.26-7.38-2.26h-2.66v39.54H394.8z M425.03,51.34h12.69c1.37,0,4.03-0.44,7.97-1.33c1.99-0.4,3.62-1.42,4.88-3.06
				c1.26-1.64,1.89-3.52,1.89-5.65c0-3.14-0.99-5.56-2.99-7.24c-1.99-1.68-5.74-2.52-11.23-2.52h-13.22V51.34z"/>
		<path class="st0" d="M545.26,73.99V53.73h46.51v41.52c-8.9,6.07-16.78,10.2-23.62,12.39c-6.85,2.19-14.96,3.29-24.35,3.29
				c-11.56,0-20.99-1.97-28.27-5.91c-7.29-3.94-12.94-9.81-16.94-17.61c-4.01-7.8-6.01-16.74-6.01-26.84
				c0-10.63,2.19-19.88,6.58-27.74c4.38-7.86,10.8-13.83,19.26-17.91c6.6-3.15,15.48-4.72,26.65-4.72c10.76,0,18.82,0.98,24.15,2.92
				c5.34,1.95,9.77,4.97,13.29,9.07c3.52,4.1,6.17,9.29,7.94,15.58l-29.03,5.18c-1.2-3.68-3.22-6.49-6.08-8.44
				c-2.86-1.95-6.5-2.92-10.93-2.92c-6.6,0-11.86,2.29-15.78,6.87c-3.92,4.59-5.88,11.84-5.88,21.76c0,10.54,1.98,18.07,5.95,22.59
				c3.96,4.52,9.49,6.78,16.57,6.78c3.37,0,6.58-0.49,9.64-1.46c3.06-0.97,6.55-2.64,10.5-4.98v-9.17H545.26z"/>
		</g>
	</symbol>

	<symbol id="agilita" xmlns="http://www.w3.org/2000/svg" viewBox="0 0 533.38 152.14">
		<defs>
			<style>
				.cls-1{stroke-width:0;fill:currentColor}
			</style>
		</defs>
		<path d="M110.64 9.9c-.84-1.96-2.02-3.71-3.5-5.19a17.059 17.059 0 0 0-5.21-3.53C99.88.4 97.84 0 95.85 0H15.99c-2.01 0-4.04.4-6.09 1.2-1.96.84-3.71 2.01-5.19 3.5a16.657 16.657 0 0 0-3.52 5.24C.41 11.93.01 13.96.01 15.98v79.87c0 2 .4 4.04 1.21 6.16.86 1.94 2.03 3.66 3.49 5.12 1.48 1.49 3.23 2.66 5.24 3.52 1.99.79 4.03 1.18 6.04 1.18h76.33l-5.69-10.7H15.99c-.68 0-1.35-.13-2.03-.42-.64-.26-1.19-.63-1.67-1.11l-.47-.56a5.236 5.236 0 0 1-1.12-3.21V15.99c0-.68.14-1.35.42-2.03.24-.58.63-1.14 1.16-1.68.54-.54 1.1-.93 1.68-1.17.68-.27 1.34-.42 2.03-.42h79.87c.69 0 1.35.14 1.97.39.52.24.92.46 1.23.72l.56.47c.49.49.85 1.04 1.12 1.68.28.68.42 1.34.42 2.02v29.99l10.7 19.35V15.99c0-2.02-.4-4.06-1.2-6.09Z" fill="#922428" stroke-width="0"/>
		<path class="cls-1" d="M211.14 35.13c-.25-.18-.66-.49-1.07-.57-.44-.14-.95-.21-1.49-.21h-3.81c-.6 0-1.09.07-1.36.17-.58.12-.99.42-1.45.79-.37.38-.56.84-.72 1.24-.15.45-.22.96-.22 1.5v47.73c0 .55.07 1.05.26 1.59.12.31.31.78.91 1.35.25.18.66.48 1.05.55.46.15.95.22 1.54.22h3.81c1.2 0 2.12-.32 2.76-.95.63-.63.95-1.56.95-2.76V38.05c0-.55-.07-1.05-.26-1.6-.13-.32-.31-.77-.89-1.33ZM184.83 35.29a2.82 2.82 0 0 0-1.32-.74c-.49-.16-1.04-.2-1.43-.2h-39.09c-1.38 0-2.68.1-3.91.29-1.18.14-2.4.42-3.75.87-1.33.46-2.39.93-3.27 1.43-1 .5-1.99 1.15-3.25 2.17-.84.65-1.66 1.43-2.41 2.3-.83.94-1.42 1.92-1.92 2.82-.47.94-.84 1.95-1.1 2.97-.25.96-.38 2.06-.38 3.26v22.91c0 1.18.13 2.29.38 3.31.27 1.02.64 2 1.11 2.95a13.92 13.92 0 0 0 1.86 2.75c.69.84 1.56 1.67 2.58 2.47 1.07.85 2.07 1.52 3.02 2.02.99.55 2.06 1.01 3.37 1.46 1.14.39 2.37.7 3.75.92 1.43.16 2.67.24 3.91.24h39.09c.45 0 1.81 0 2.58-.8.56-.42.78-.98.95-1.41.15-.45.22-.95.22-1.5v-25.1l-.03-.34c-.06-.34-.12-.72-.34-1.25-.13-.25-.31-.57-.63-.89-.33-.33-.71-.58-1.2-.77-.46-.16-.97-.23-1.56-.23l-23.57.05c-.39 0-.93.04-1.42.2-.5.11-.93.35-1.14.59-.57.42-.8.99-.96 1.41-.15.45-.23.96-.23 1.51v1.9c0 .59.07 1.1.26 1.65.14.36.34.77.74 1.12.41.45.88.64 1.2.77.46.16.95.23 1.56.23h16v13.49h-31.52c-.62 0-1.23-.04-1.81-.12-.64-.09-1.13-.21-1.65-.41a6.24 6.24 0 0 1-1.46-.64c-.42-.21-.88-.51-1.32-.87-.44-.36-.8-.72-1.06-1-.31-.39-.58-.77-.82-1.2-.19-.35-.33-.74-.42-1.06-.08-.47-.16-.98-.16-1.44V50.47c0-.46.08-.96.13-1.27.13-.51.27-.91.42-1.18.23-.38.49-.8.85-1.21.31-.39.71-.74 1.06-1.05.44-.36.93-.64 1.31-.87.48-.23.96-.48 1.47-.64.52-.16 1.08-.33 1.65-.4.57-.08 1.19-.12 1.81-.12h39.09c.59 0 1.09-.07 1.65-.26.32-.13.74-.33 1.12-.7.4-.41.6-.81.76-1.25.15-.45.22-.95.22-1.5v-1.95c0-.55-.07-1.05-.26-1.6-.14-.34-.33-.75-.75-1.17ZM110.92 84.64 87.09 41.13c-.04-.12-.13-.32-.25-.57l-.74-1.46c-1.49-2.82-1.86-3.46-2.2-3.79l-.3-.25c-.15-.12-.35-.29-.63-.42l-.36-.14c-.23-.05-.57-.14-1-.14H77.8c-.44 0-.78.08-1 .14l-.36.14c-.28.14-.48.31-.74.51l-.29.27c-.48.58-2.6 4.68-2.62 4.74L49.36 82.55l-.15.31c-.07.15-.14.3-.21.42l-.15.32c-.06.19-.12.35-.19.48l-.36 1.77c0 .55.07 1.05.26 1.59.13.33.33.75.91 1.3.25.18.66.49 1.06.55.45.15.96.22 1.54.22h2.83c.86 0 1.74-.33 2.37-.84.39-.25.76-.61 1.25-1.18.3-.35.63-.74 1.02-1.33l2.56-4.82c4.71-8.85 9.81-18.43 14.87-28l2.75-5.19L81 50.6c5.92 11.1 11.8 22.17 16.86 31.68L100 86.3c.3.45.64.85 1 1.27.42.49.79.84.92.89.35.36.8.64 1.61.92.34.06.68.12 1.01.12h2.84c1.24 0 2.16-.31 2.81-.96.38-.38.56-.83.72-1.26.15-.45.22-.95.22-1.5 0-.23 0-.47-.13-.91-.01-.06-.03-.14-.06-.25ZM384.68 42.94l.37-.37c.21-.29.36-.57.55-1.05.15-.45.23-.96.23-1.51v-1.95c0-.55-.08-1.06-.27-1.61-.11-.27-.26-.6-.51-.95l-.38-.38c-.26-.19-.66-.48-1.05-.55-.45-.14-.96-.21-1.54-.21h-55.31c-.39 0-.94.03-1.43.2-.5.12-.95.37-1.34.77-.4.4-.63.9-.76 1.24-.15.46-.23.96-.23 1.51v1.95c0 1.13.35 2.11 1 2.76.4.4.87.6 1.16.7.53.21 1.16.25 1.59.25h22.03v42.07c0 1.22.31 2.12.96 2.76.95.95 2.31.95 2.76.95h3.81c.45 0 1.81 0 2.76-.95.66-.66 1-1.59 1-2.76V43.74h21.99c.58 0 1.09-.07 1.66-.27.25-.1.59-.26.94-.51ZM445.71 84.31c-.08-.29-.2-.57-.34-.85-.1-.26-.23-.54-.43-.94l-23.13-41.84c-.08-.14-.2-.37-.38-.72l-.53-1c-1.46-2.75-1.8-3.34-2.13-3.67-.27-.27-.59-.5-.92-.68l-.38-.14c-.23-.05-.56-.13-.98-.13h-3.81c-.4 0-.74.08-.96.14l-.34.13c-.4.2-.72.47-.94.68-.38.38-1.31 2.01-2.77 4.84l-23.42 42.38c-.16.32-.33.7-.38.85-.19.38-.32.72-.33.82-.1.23-.21.57-.25.98-.05.28-.05.51-.05.67 0 .55.07 1.06.17 1.3.1.52.36 1 .79 1.43.4.38.92.66 1.26.72.44.14.94.22 1.49.22h2.88c.83 0 1.62-.29 2.37-.84.38-.25.75-.6 1.17-1.09.32-.37.64-.79 1.04-1.41 5.43-10.13 11.42-21.46 17.42-32.82l2.79-5.19 9.43 17.72c3.84 7.23 7.51 14.14 10.87 20.42.32.48.64.9.96 1.27.42.48.78.83 1.04.99.4.33.78.57 1.48.81.34.06.68.12 1.02.12h2.88c.77 0 1.91-.1 2.75-.94.41-.4.65-.92.76-1.19l.09-.34c.06-.36.12-.77.12-1.24v-.86l-.27-.62ZM311.29 35.13c-.25-.18-.65-.48-1.06-.56-.44-.14-.95-.21-1.49-.21h-3.81c-.59 0-1.09.07-1.36.17-.57.12-.98.41-1.24.61l-.38.38c-.2.28-.36.57-.56 1.07-.14.44-.21.94-.21 1.49v47.73c0 .54.07 1.05.25 1.59.13.33.31.77.94 1.36.24.18.64.47 1.03.53.45.15.95.22 1.54.22h3.81c1.2 0 2.13-.33 2.75-.94.64-.63.96-1.56.96-2.77V38.07c0-.55-.08-1.05-.29-1.67-.13-.3-.31-.72-.87-1.26ZM289.65 81.13c-.41-.41-.83-.61-1.25-.77-.46-.16-.95-.23-1.56-.23h-39.09c-.61 0-1.23-.04-1.8-.12-.64-.09-1.13-.21-1.65-.41a6.24 6.24 0 0 1-1.46-.64c-.23-.12-.45-.25-.66-.39l-.68-.54c-.34-.24-.7-.59-1.03-.94a8.8 8.8 0 0 1-.76-1.09c-.19-.43-.37-.83-.46-1.31-.12-.46-.18-.92-.18-1.31V38.06c0-.55-.08-1.05-.18-1.31-.1-.52-.38-1.04-.79-1.46-.39-.38-.91-.66-1.25-.72-.45-.14-.95-.21-1.49-.21h-3.81c-.58 0-1.09.07-1.36.17-.51.1-.97.36-1.24.64-.54.42-.77.98-.93 1.4-.15.45-.22.96-.22 1.5v35.32c0 .96.11 1.99.38 3.31.27 1.02.64 2 1.11 2.95.48.92 1.07 1.79 1.86 2.75.7.85 1.57 1.68 2.77 2.63 1.03.8 1.99 1.42 2.84 1.85.96.55 1.99 1 3.35 1.48 1.13.39 2.37.7 3.75.92 1.43.16 2.67.24 3.91.24h39.09c1.26 0 2.17-.31 2.81-.95.38-.39.57-.84.73-1.26.15-.45.23-.95.23-1.5V83.9c0-.59-.08-1.09-.26-1.65-.14-.34-.33-.75-.7-1.11Z"/>
		<text class="cls-1" transform="translate(97.67 111.72)" font-family="Montserrat-Regular,Montserrat" font-size="23" letter-spacing=".13em" fill="currentColor"><tspan x="0" y="0">BERLIN • BERN • ZÜRICH</tspan></text>

	</symbol>

	<symbol id="jssoft" xmlns="http://www.w3.org/2000/svg" viewBox="0 0 283.5 89.4">
		<path class="js0" fill="#878887" style="fill: var(--js-color-1);" d="M14.3 72.4h2.3l4.9 10.9 4-10.9h3l4 10.9 4.9-10.9h2.2L33.9 85H31l-4-10.8L23 85h-3zM40 72.4h2.2l4.9 10.9 4-10.9h3.1l3.9 10.9L63 72.4h2.3L59.6 85h-3l-4-10.8-4 10.8h-2.9zM65.6 72.4h2.2l4.9 10.9 4-10.9h3.1l4 10.9 4.9-10.9h2.2L85.2 85h-2.9l-4.1-10.8-4 10.8h-2.9zM95.6 81.9h2.8V85h-2.8zM103.1 87.7c1.7 0 2.1-.3 2.1-1.5V72.5h2.1v14c0 1.8-1.2 2.9-3.3 2.9h-.8l-.1-1.7zm2.1-20.5h2.1v2.3h-2.1v-2.3zM111.1 80.7h2v.6c0 1.6.8 2.2 3 2.2h4.5c3.2 0 4.2-.1 4.2-2v-.1c0-1.2-.3-1.9-2.9-1.9h-6.5c-3 0-4.1-1-4.1-3.3v-.7c0-2 1.2-3.2 6.4-3.2h3.2c4.8 0 5.4 1.4 5.4 3.2v.7h-2v-.1c0-1.9-1.3-2-3.6-2H117c-3 0-3.7.3-3.7 1.7v.5c0 1 .3 1.6 2.6 1.6h5.6c3.2 0 5.3.3 5.3 3.7v.1c0 3.5-3.2 3.6-5.8 3.6h-3.9c-3.1 0-6.1 0-6.1-3.8l.1-.8zM130.4 77.5h6.9v2h-6.9zM140.9 80.7h2v.6c0 1.6.8 2.2 3 2.2h4.5c3.2 0 4.2-.1 4.2-2v-.1c0-1.2-.4-1.9-2.9-1.9h-6.5c-3 0-4.1-1-4.1-3.3v-.7c0-2 1.2-3.2 6.4-3.2h3.2c4.8 0 5.4 1.4 5.4 3.2v.7h-2v-.1c0-1.9-1.3-2-3.6-2h-3.7c-3 0-3.7.3-3.7 1.7v.5c0 1 .4 1.6 2.6 1.6h5.6c3.2 0 5.3.3 5.3 3.7v.1c0 3.5-3.2 3.6-5.8 3.6h-3.9c-3.1 0-6.1 0-6.1-3.8l.1-.8zM159.7 77.3c0-4.1 2.9-5.1 6.9-5.1h3c4 0 6.9 1 6.9 5.1v2.8c0 4.1-2.9 5.1-6.9 5.1h-3c-4 0-6.9-1-6.9-5.1v-2.8zm14.8.2c0-2.9-1.7-3.5-4.2-3.5H166c-2.5 0-4.2.6-4.2 3.5V80c0 2.9 1.7 3.5 4.2 3.5h4.3c2.5 0 4.2-.6 4.2-3.5v-2.5zM181.6 74.2h-2.7v-1.7h2.7v-1.1c0-3 1.8-4.2 4.1-4.2h4v1.7h-3.8c-1.6 0-2.2.9-2.2 2v1.6h6v1.7h-6V85h-2.1V74.2zM193.5 74.2h-2.8v-1.7h2.8v-3h2.1v3h8.4v1.7h-8.4v6.2c0 2.3.8 3.1 3.1 3.1h.7c2.8 0 3.2-.6 3.2-3.2v-.9h1.7v1.4c0 2.5-.2 4.5-4.8 4.5h-1.2c-4 0-4.9-1.9-4.9-4l.1-7.1zM209.5 81.9h2.8V85h-2.8zM218.2 77.3c0-4.6 3.2-5.1 6.3-5.1h3.5c3.9 0 5.5 1.6 5.5 4.3v.3h-2v-.3c0-2.1-1.4-2.6-3.5-2.6h-3.9c-2 0-3.9.3-3.9 3.4V80c0 2.8 1.7 3.4 4.3 3.4h3.6c2 0 3.6-.6 3.6-2.6v-.4h2v.4c0 3.2-1.6 4.4-5.5 4.4h-4.8c-1.9 0-5.3-.5-5.3-5.1l.1-2.8zM236.6 77.3c0-4.1 2.9-5.1 6.9-5.1h3c4 0 6.9 1 6.9 5.1v2.8c0 4.1-2.9 5.1-6.9 5.1h-3c-4 0-6.9-1-6.9-5.1v-2.8zm14.8.2c0-2.9-1.7-3.5-4.2-3.5h-4.3c-2.5 0-4.2.6-4.2 3.5V80c0 2.9 1.7 3.5 4.2 3.5h4.3c2.5 0 4.2-.6 4.2-3.5v-2.5zM257.1 72.4h2v1.5c.9-1.3 2.1-1.7 4.2-1.7h3.4c1.9 0 3.4.8 4.1 2.3.8-1.7 2.5-2.3 4.6-2.3h2.6c3.4 0 5.5 1.5 5.5 4.3V85h-2.1v-8.2c0-1.4-.6-2.9-4-2.9h-1.5c-3.8 0-4.3 1.6-4.3 3.6V85h-2.1v-7.6c0-2.4-.8-3.4-4.1-3.4h-2.1c-2.7 0-4 1.1-4 3.2V85h-2.1l-.1-12.6zM14.3 59.5h269.1v1.4H14.3z"/>
		<path class="js1" fill="#333366" style="fill: var(--js-color-2);" d="M5.7 6.3h5.8V0H5.7v6.3zM0 60.9h2.3c5.9 0 9.2-3.2 9.2-8V14.4H5.7V52c0 3.4-1.2 4.2-5.7 4.2v4.7z"/>
		<path class="js0" fill="#878887" style="fill: var(--js-color-1);" d="M38.7 45.8c-.3.9-2.2 1.2-5.2 1.2H22.8c-4.6 0-5.3-1.5-5.3-3.9v-1.4c0-3.3 3-3.6 3.8-3.6h1l16.4 7.7zm7.2 3.3 1.2-2.1-4.7-2.2c.1-.5.2-1 .2-1.5v-4.4h-2.9v4.7L21.8 35c-1.1-.5-1.1-1.2-1.1-2.5s.5-2.2 3-2.2H34c1.7 0 3 .6 3 2.5v1.5h3v-1.7c0-2.9-1.5-4.7-6-4.7H22.7c-3 0-5.2 1.2-5.2 4.2s.4 3.2 2.5 4.5v.1c-4.6 0-5.7 1.9-5.7 5.7 0 4.8 1.7 6.8 8.4 6.8H34c3.1 0 6.2-.3 7.6-2.2l4.3 2.1z"/>
		<path class="js1" fill="#333366" style="fill: var(--js-color-2);" d="M221.9 49.4h5.8l-.1-30.2H244v-4.7h-16.4v-4.2c0-3 1.7-5.5 6-5.5H244V0h-10.9c-6.3 0-11.3 3.2-11.3 11.4v3h-7.5v4.7h7.5l.1 30.3zm-14.5-14.3c0 8-4.7 9.6-11.5 9.6h-11.8c-6.8 0-11.5-1.5-11.5-9.6v-6.9c0-8 4.7-9.6 11.5-9.6h11.8c6.8 0 11.5 1.5 11.5 9.6v6.9zm-40.6.4c0 11.3 8 14 19 14h8.3c11 0 19-2.6 19-14v-7.6c0-11.3-8-14-19-14h-8.3c-11 0-19 2.6-19 14v7.6zm-47.4 3.6c0 10.3 8 10.3 16.6 10.3h10.7c7.1 0 16-.3 16-10v-.1c0-9.3-5.9-10.2-14.6-10.2h-15.3c-6.1 0-7-1.6-7-4.5v-1.3c0-3.9 1.8-4.7 10.1-4.7H146c6.4 0 9.9.1 9.9 5.4v.3h5.4v-1.8c0-4.9-1.8-8.6-14.9-8.6h-8.9c-14.3 0-17.5 3.1-17.5 8.7v2c0 6.5 3 9.2 11.2 9.2H149c6.9 0 7.9 1.8 7.9 5.1v.3c0 5.1-2.8 5.5-11.5 5.5H133c-5.9 0-8.2-1.8-8.2-6V37h-5.4v2.1zm-24.2-5.4h18.9v-5.4H95.2v5.4zm-47.3 5.4c0 10.3 8 10.3 16.6 10.3h10.7c7.1 0 16-.3 16-10v-.1c0-9.3-5.9-10.2-14.7-10.2H61.2c-6.1 0-7-1.6-7-4.5v-1.3c0-3.9 1.8-4.7 10.1-4.7h10.1c6.3 0 9.8.1 9.8 5.4v.3h5.4v-1.8c0-4.9-1.8-8.6-14.9-8.6h-8.9c-14.3 0-17.5 3.1-17.5 8.7v2c0 6.5 3 9.2 11.2 9.2h17.9c6.9 0 7.9 1.8 7.9 5.1v.3c0 5.1-2.8 5.5-11.5 5.5H61.5c-5.9 0-8.2-1.8-8.2-6V37h-5.4v2.1zM260.5 19.2h23v-4.8h-23V6.3h-5.9v8.1h-7.5v4.8h7.5v30.2h5.9"/>
	</symbol>

	<symbol id="cbs" xmlns="http://www.w3.org/2000/svg" viewBox="0 0 523.02 190.78">
		<defs></defs>
		<path d="M306.21,534.07q-16.71,0-26.56-9.56t-9.85-25.82q0-15.44,9.1-25.4t23.28-10q13.59,0,29.5,10.14V451.1a95.57,95.57,0,0,0-16.08-5.81,63.17,63.17,0,0,0-14.69-1.56q-23.51,0-37.91,15.33t-14.4,40.33q0,24.76,14.8,39.52t39.7,14.75A88.13,88.13,0,0,0,334,547.78V527q-15.68,7-27.77,7" transform="translate(-248.6 -364)"></path>
		<path d="M475.53,552.76a63.62,63.62,0,0,0,16.82,2q16,0,26.22-8.35a26.39,26.39,0,0,0,10.19-21.37q0-18.19-26.51-33.18l-7.49-4.26q-8.53-4.72-11.92-8.06c-2.26-2.24-3.39-4.58-3.39-7a8,8,0,0,1,3.74-6.87q3.75-2.59,9.85-2.59,11.86,0,30.54,11.29V453.61q-16.37-8.76-31.92-8.76-15,0-24.49,7.72a24.53,24.53,0,0,0-9.5,19.94A27.65,27.65,0,0,0,464,490q6.27,8,26.56,19.3,10.14,5.78,13.19,8.82a10.39,10.39,0,0,1,3.06,7.66q0,4.5-4.73,7.72a19.53,19.53,0,0,1-11.29,3.23q-6.35,0-15.61-3.86A95.5,95.5,0,0,1,457,522.75v22.58a112.69,112.69,0,0,0,18.55,7.43" transform="translate(-248.6 -364)"></path>
		<path d="M396.71,464.21q13.25,0,21.49,9.91t8.24,25.7q0,15.56-8.81,25.46t-22.76,9.91a75.61,75.61,0,0,1-22-3.23V474.58q12.11-10.36,23.85-10.37m-44.82,82.85q6.67,3.35,18,5.53a114.2,114.2,0,0,0,21.61,2.19q25.58,0,40.85-15.15t15.26-40.74q0-23.85-12.79-39.06t-33-15.21q-15.45,0-29,9.91V392l-21,17.45Z" transform="translate(-248.6 -364)"></path>
		<path d="M639.62,545.87a94.74,94.74,0,0,0,127-117.59c-15,42.83-96,110.46-127,117.59m-40.5-141.22a94.66,94.66,0,0,0,3,112.24c-6.2-27.77-6.9-88.25-3-112.24m139.11-18.07A94.65,94.65,0,0,0,613.93,388c47.44-11,102.26-4.74,124.3-1.38" transform="translate(-248.6 -364)" fill="#F07D00"></path>
		<path d="M626.05,418.56c-2.07,6.59-4.14,23.63-4.14,43.3s1.8,41.28,4.14,49.6,4,10.28,11.91,8.3,44.73-28.32,57.18-39.87c15.69-14.61,31.21-30.84,52.49-59,7.76-11.37-4.87-13.35-4.87-13.35s-24.44-5.77-58.8-5.05c-24.53,1.08-41.13,3.07-47.26,4.87s-8.57,4.6-10.65,11.18" fill="#F07D00" transform="translate(-248.6 -364)"></path>
	</symbol>

	<symbol id="neptune" xmlns="http://www.w3.org/2000/svg" viewBox="20 20 210 42">

		<path style="fill: var(--neptune-color-0);" d="m38.216 46.109 -8.772 -17.675h-5.875v23.509h4.098V33.431l9.256 18.512h5.39V28.435h-4.098zm18.957 -10.821c-1.191 -0.686 -2.554 -1.03 -4.098 -1.03 -1.595 0 -3.018 0.363 -4.28 1.09s-2.241 1.777 -2.958 3.149 -1.07 2.988 -1.07 4.845c0 2.009 0.353 3.694 1.05 5.047s1.666 2.362 2.907 3.038c1.231 0.666 2.685 0.999 4.34 0.999 1.474 0 2.776 -0.252 3.886 -0.767 1.11 -0.505 2.009 -1.231 2.675 -2.16s1.08 -2.019 1.231 -3.281h-4.179c-0.151 0.959 -0.535 1.706 -1.161 2.221 -0.616 0.515 -1.393 0.777 -2.332 0.777 -0.878 0 -1.635 -0.202 -2.271 -0.616s-1.131 -1.019 -1.464 -1.827q-0.409 -0.984 -0.485 -2.362h11.961c0.01 -0.373 0.02 -0.828 0.02 -1.363 0 -1.847 -0.323 -3.432 -0.979 -4.754 -0.686 -1.312 -1.605 -2.322 -2.796 -3.008m-6.319 2.725c0.616 -0.414 1.322 -0.616 2.13 -0.616 0.777 0 1.433 0.172 1.989 0.515 0.545 0.343 0.959 0.868 1.242 1.565 0.222 0.535 0.353 1.181 0.404 1.918h-7.611q0.121 -0.878 0.424 -1.575c0.343 -0.787 0.818 -1.393 1.423 -1.807m35.813 -8.398H83.275l-0.081 1.686c-0.04 0.828 -0.182 1.494 -0.414 1.999s-0.585 0.868 -1.05 1.09 -1.06 0.333 -1.797 0.333h-0.363v3.21h2.947v9.327c0 1.191 0.212 2.15 0.636 2.887s1.03 1.262 1.807 1.595 1.706 0.505 2.806 0.505c0.434 0 0.848 -0.03 1.242 -0.081s0.767 -0.131 1.11 -0.232v-3.2c-0.404 0.101 -0.838 0.151 -1.312 0.151 -0.686 0 -1.221 -0.162 -1.595 -0.474s-0.555 -0.848 -0.555 -1.595v-8.883h3.755V34.723h-3.755v-5.108zm56.113 13.445c0 -1.847 -0.323 -3.432 -0.979 -4.754s-1.575 -2.332 -2.776 -3.018c-1.191 -0.686 -2.554 -1.03 -4.098 -1.03 -1.595 0 -3.018 0.363 -4.28 1.09s-2.241 1.777 -2.958 3.149 -1.07 2.988 -1.07 4.845c0 2.009 0.353 3.694 1.05 5.047s1.666 2.362 2.907 3.038c1.231 0.666 2.685 0.999 4.34 0.999 1.474 0 2.776 -0.252 3.886 -0.767 1.11 -0.505 2.009 -1.231 2.675 -2.16s1.08 -2.019 1.231 -3.281h-4.179c-0.151 0.959 -0.535 1.706 -1.161 2.221 -0.616 0.515 -1.393 0.777 -2.332 0.777 -0.878 0 -1.635 -0.202 -2.271 -0.616s-1.131 -1.019 -1.464 -1.827q-0.409 -0.984 -0.485 -2.362h11.961zm-10.064 -5.047c0.616 -0.414 1.322 -0.616 2.13 -0.616 0.777 0 1.433 0.172 1.989 0.515 0.545 0.343 0.959 0.868 1.242 1.565 0.222 0.535 0.353 1.181 0.404 1.918h-7.611q0.121 -0.878 0.424 -1.575c0.333 -0.787 0.808 -1.393 1.423 -1.807m-56.678 -2.665c-1.04 -0.737 -2.281 -1.1 -3.694 -1.1 -0.939 0 -1.797 0.182 -2.564 0.545s-1.423 0.878 -1.948 1.565c-0.202 0.262 -0.373 0.545 -0.535 0.838V34.723h-4.169v22.318h4.169v-7.813l0.495 0.858c0.444 0.777 1.1 1.433 1.918 1.807 0.01 0 0.01 0.01 0.02 0.01 0.747 0.343 1.575 0.505 2.513 0.505 1.433 0 2.675 -0.373 3.735 -1.11s1.877 -1.787 2.443 -3.159c0.565 -1.363 0.848 -2.978 0.848 -4.825 0 -1.857 -0.273 -3.472 -0.828 -4.835 -0.565 -1.343 -1.363 -2.392 -2.402 -3.129m-1.514 11.043c-0.283 0.868 -0.707 1.544 -1.282 2.029 -0.565 0.485 -1.272 0.717 -2.1 0.717 -0.818 0 -1.524 -0.242 -2.1 -0.717 -0.575 -0.485 -1.019 -1.161 -1.312 -2.029s-0.444 -1.888 -0.444 -3.038c0 -1.161 0.151 -2.17 0.444 -3.048s0.737 -1.554 1.312 -2.049 1.282 -0.737 2.1 -0.737c0.828 0 1.534 0.242 2.1 0.737s0.999 1.171 1.282 2.039q0.424 1.302 0.424 3.058c0 1.161 -0.141 2.17 -0.424 3.038m28.203 -1.726q0 1.423 -0.454 2.423c-0.303 0.666 -0.717 1.171 -1.242 1.524 -0.535 0.353 -1.151 0.525 -1.857 0.525 -0.929 0 -1.635 -0.262 -2.13 -0.797s-0.737 -1.272 -0.737 -2.221V34.723h-4.169v11.891c0 1.201 0.222 2.241 0.656 3.109q0.651 1.302 1.908 1.999c0.838 0.464 1.837 0.696 3.008 0.696 0.999 0 1.888 -0.182 2.665 -0.555 0.01 0 0.01 -0.01 0.02 -0.01 0.919 -0.444 1.645 -1.181 2.15 -2.059l0.313 -0.545v2.695h4.017V34.723h-4.149zm19.401 -9.68c-0.818 -0.485 -1.787 -0.727 -2.927 -0.727q-1.529 0 -2.725 0.545c-0.01 0 -0.01 0.01 -0.02 0.01 -0.929 0.434 -1.676 1.181 -2.18 2.069l-0.323 0.555V34.723h-4.068v17.22h4.169v-9.842c0 -0.969 0.151 -1.807 0.454 -2.493s0.727 -1.211 1.282 -1.554c0.555 -0.353 1.191 -0.525 1.928 -0.525 0.908 0 1.595 0.252 2.059 0.767q0.696 0.772 0.696 2.211v11.426h4.169V40.154q0 -1.787 -0.636 -3.119c-0.444 -0.878 -1.06 -1.565 -1.877 -2.049" />
		<path style="fill: var(--neptune-color-1);" d="M162.786 24.538c-2.513 0.989 -4.835 2.614 -6.702 4.875 -2.574 3.109 -3.846 6.945 -3.846 10.76s1.272 7.651 3.846 10.76c1.867 2.261 4.179 3.876 6.702 4.875 7.631 3.018 16.322 -0.212 20.43 -7.318l4.795 -8.317 -4.795 -8.317c-4.108 -7.096 -12.799 -10.326 -20.43 -7.318"/>
		<path style="fill: var(--neptune-color-1);" d="M214.558 24.841h-17.695L188.011 40.174l8.852 15.333 8.842 -15.333h17.705z" />
	</symbol>

	<symbol id="integrtr" xmlns="http://www.w3.org/2000/svg" viewBox="0 0 429.74 133.52">

		<path style="fill: var(--integrtr-color-1);" d="M18.23 42.34h12.64v56.62H18.23V42.34zM80.99 42.34h12.64v56.62H80.99L54.02 63.48v35.48H41.38V42.34h11.83l27.78 36.45V42.34zM126.94 53.28v45.68H114.3V53.28H98.26V42.34h44.71v10.94h-16.03zM188.49 42.34V53.6H160.3v11.66h25.35v10.77H160.3v11.74h29.08v11.18h-41.72V42.33h40.83v.01zM233.23 70.12h12.72v20.09c-5.62 6.26-13.39 9.4-23.33 9.4-8.32 0-15.3-2.75-20.94-8.26s-8.46-12.46-8.46-20.86 2.88-15.4 8.63-21.02 12.69-8.42 20.82-8.42 15.19 2.67 21.18 8.02l-6.56 9.48c-2.54-2.21-4.87-3.74-7.01-4.58-2.13-.84-4.44-1.26-6.92-1.26-4.81 0-8.86 1.63-12.15 4.9s-4.94 7.57-4.94 12.92 1.58 9.63 4.74 12.84 6.93 4.82 11.3 4.82 8.02-.84 10.94-2.51V70.12h-.02zM300.17 61.13c0 9.07-3.59 14.93-10.77 17.58l14.34 20.25h-15.55L275.63 80.9h-8.75v18.06h-12.64V42.34h21.46c8.8 0 15.08 1.49 18.83 4.46 3.76 2.97 5.64 7.75 5.64 14.33zm-15.23 6.73c1.57-1.4 2.35-3.63 2.35-6.68s-.81-5.14-2.43-6.28c-1.62-1.13-4.46-1.7-8.5-1.7h-9.48v16.77h9.23c4.32-.01 7.26-.71 8.83-2.11zM332.6 53.28v45.68h-12.64V53.28h-16.04V42.34h44.71v10.94H332.6zM399.25 61.13c0 9.07-3.59 14.93-10.77 17.58l14.34 20.25h-15.56L374.7 80.9h-8.75v18.06h-12.64V42.34h21.46c8.8 0 15.08 1.49 18.83 4.46 3.78 2.97 5.65 7.75 5.65 14.33zm-15.23 6.73c1.57-1.4 2.35-3.63 2.35-6.68s-.81-5.14-2.43-6.28c-1.62-1.13-4.46-1.7-8.5-1.7h-9.48v16.77h9.23c4.32-.01 7.27-.71 8.83-2.11zM421.84 44.8c2.13 2.14 3.2 4.72 3.2 7.73s-1.07 5.59-3.2 7.75c-2.13 2.15-4.72 3.23-7.78 3.23s-5.63-1.07-7.75-3.2-3.17-4.7-3.17-7.72c0-3.01 1.07-5.6 3.2-7.76s4.71-3.24 7.75-3.24 5.61 1.07 7.75 3.21zm-1.47 13.77c1.62-1.68 2.42-3.7 2.42-6.06s-.85-4.4-2.55-6.09c-1.7-1.7-3.74-2.55-6.14-2.55-2.39 0-4.45.86-6.15 2.58-1.71 1.72-2.56 3.77-2.56 6.15s.84 4.43 2.52 6.12 3.74 2.55 6.18 2.55 4.52-.88 6.21-2.64h-3.52l-2.64-3.79h-1.33v3.79h-3.33V46.32h4.88c1.94 0 3.32.33 4.15 1s1.24 1.74 1.24 3.21c0 1.8-.82 3.05-2.46 3.76l3.08 4.28zm-4.34-6.84c.28-.25.42-.66.42-1.21 0-.56-.15-.94-.44-1.15s-.8-.32-1.53-.32h-1.67v3.06h1.61c.79 0 1.33-.13 1.61-.38z" class="st0"/>
		<path style="fill: var(--integrtr-color-2);" d="M119.13 127.51h-4.9v-11.18h4.35c.76 0 1.41.09 1.96.27s.96.43 1.22.74c.51.58.77 1.23.77 1.95 0 .88-.28 1.53-.83 1.95-.2.15-.34.24-.42.28s-.21.1-.4.18c.69.15 1.25.46 1.66.94s.62 1.06.62 1.77c0 .78-.27 1.47-.8 2.06-.62.7-1.7 1.04-3.23 1.04zm-3-6.54h2.4c1.37 0 2.05-.46 2.05-1.39 0-.53-.17-.92-.5-1.15-.33-.23-.84-.35-1.54-.35h-2.42l.01 2.89zm0 4.8h2.96c.69 0 1.22-.11 1.59-.33s.55-.63.55-1.24c0-.99-.79-1.49-2.38-1.49h-2.72v3.06zM144.28 119.96c0 1.84-.81 3.01-2.42 3.49l2.93 4.06h-2.4l-2.67-3.76h-2.48v3.76h-1.89v-11.18h4.16c1.71 0 2.93.29 3.66.86s1.11 1.5 1.11 2.77zm-2.51 1.59c.38-.33.58-.86.58-1.59s-.2-1.23-.59-1.5c-.4-.27-1.1-.41-2.11-.41h-2.4v4h2.35c1.06-.01 1.78-.17 2.17-.5zM156.71 116.33h1.89v11.18h-1.89v-11.18zM179.92 117.79c1.08.98 1.62 2.33 1.62 4.07 0 1.74-.52 3.12-1.57 4.13-1.05 1.01-2.65 1.52-4.8 1.52h-3.71v-11.18h3.84c2 0 3.54.49 4.62 1.46zm-.29 4.12c0-2.56-1.47-3.84-4.4-3.84h-1.89v7.66h2.1c1.35 0 2.39-.32 3.11-.97.72-.64 1.08-1.59 1.08-2.85zM201.5 122.07h1.89v3.82c-1.06 1.16-2.57 1.74-4.53 1.74-1.65 0-3.04-.54-4.15-1.63s-1.67-2.46-1.67-4.13.57-3.05 1.7-4.16c1.14-1.11 2.51-1.66 4.12-1.66s2.95.47 4.02 1.41l-1.01 1.44c-.44-.37-.88-.63-1.32-.78-.44-.14-.96-.22-1.54-.22-1.13 0-2.08.37-2.85 1.1s-1.15 1.69-1.15 2.88.37 2.14 1.12 2.86c.75.72 1.65 1.08 2.71 1.08s1.95-.23 2.66-.69v-3.06zM215.79 116.33h1.89v11.18h-1.89v-11.18zM238.92 116.33h1.89v11.18h-2.05l-6.34-8.16v8.16h-1.89v-11.18h1.89l6.5 8.35v-8.35zM261.46 122.07h1.89v3.82c-1.06 1.16-2.57 1.74-4.53 1.74-1.65 0-3.04-.54-4.15-1.63-1.12-1.09-1.67-2.46-1.67-4.13s.57-3.05 1.7-4.16c1.14-1.11 2.51-1.66 4.12-1.66s2.95.47 4.02 1.41l-1.01 1.44c-.44-.37-.88-.63-1.32-.78-.44-.14-.96-.22-1.54-.22-1.13 0-2.08.37-2.85 1.1-.77.73-1.15 1.69-1.15 2.88s.37 2.14 1.12 2.86c.75.72 1.65 1.08 2.71 1.08s1.95-.23 2.66-.69v-3.06zM294.99 125.8c.65 0 1.21-.11 1.68-.33s.96-.57 1.47-1.05l1.22 1.25c-1.18 1.31-2.62 1.97-4.31 1.97s-3.09-.54-4.21-1.63-1.67-2.46-1.67-4.13.57-3.05 1.7-4.16c1.14-1.11 2.57-1.66 4.3-1.66s3.18.64 4.34 1.92l-1.2 1.31c-.53-.51-1.04-.87-1.51-1.07s-1.03-.3-1.67-.3c-1.13 0-2.08.37-2.85 1.1-.77.73-1.15 1.66-1.15 2.8s.38 2.08 1.14 2.85 1.68 1.13 2.72 1.13zM311.28 127.51v-11.18h1.89v9.39h5.1v1.79h-6.99zM339.08 125.97c-1.13 1.1-2.53 1.66-4.19 1.66s-3.06-.55-4.19-1.66c-1.13-1.1-1.7-2.48-1.7-4.13s.57-3.02 1.7-4.13c1.13-1.1 2.53-1.66 4.19-1.66s3.06.55 4.19 1.66c1.13 1.1 1.7 2.48 1.7 4.13-.01 1.65-.57 3.03-1.7 4.13zm-1.39-7c-.76-.79-1.7-1.18-2.81-1.18s-2.04.4-2.81 1.18-1.14 1.75-1.14 2.87.38 2.08 1.14 2.87 1.7 1.18 2.81 1.18 2.05-.39 2.81-1.18c.76-.79 1.14-1.75 1.14-2.87.01-1.12-.38-2.08-1.14-2.87zM355.45 124.95c.51.6 1.21.9 2.08.9.88 0 1.57-.3 2.08-.9.51-.6.77-1.41.77-2.43v-6.19h1.88v6.27c0 1.61-.44 2.85-1.33 3.72-.89.87-2.02 1.3-3.41 1.3s-2.52-.43-3.41-1.3-1.33-2.11-1.33-3.72v-6.27h1.89v6.19c.01 1.03.26 1.84.78 2.43zM383.48 117.79c1.08.98 1.62 2.33 1.62 4.07 0 1.74-.52 3.12-1.57 4.13-1.05 1.01-2.65 1.52-4.8 1.52h-3.71v-11.18h3.84c2 0 3.54.49 4.62 1.46zm-.29 4.12c0-2.56-1.47-3.84-4.4-3.84h-1.89v7.66h2.1c1.35 0 2.39-.32 3.11-.97.72-.64 1.08-1.59 1.08-2.85zM400.6 117.8c-.55 0-1 .11-1.35.34-.35.22-.53.56-.53 1.02s.18.8.53 1.04 1.1.5 2.25.78 2.01.67 2.59 1.17.87 1.24.87 2.22-.37 1.77-1.1 2.38c-.74.61-1.7.91-2.9.91-1.75 0-3.3-.6-4.66-1.81l1.18-1.42c1.13.98 2.3 1.47 3.52 1.47.61 0 1.09-.13 1.45-.39.36-.26.54-.61.54-1.04 0-.43-.17-.77-.5-1.01s-.92-.46-1.74-.66-1.45-.38-1.87-.54c-.43-.17-.81-.38-1.14-.65-.66-.5-.99-1.27-.99-2.3s.38-1.83 1.13-2.39 1.68-.84 2.79-.84c.71 0 1.42.12 2.13.35.7.24 1.31.57 1.82.99l-1.01 1.42c-.33-.3-.78-.54-1.34-.74-.56-.2-1.12-.3-1.67-.3z"/>
		<path fill="#37b18c" d="M24.64 4.33 7.2 27.4h34.87z"/>
	</symbol>
</svg>
