<svg enable-background="new 0 0 40 40" viewBox="0 0 40 40" width="40px" height="40px" xmlns="http://www.w3.org/2000/svg"><g fill="#fff"><path d="m7.1.9h24.1v34h-24.1z"/><path d="m10.6 1.5c.3 0 .6-.1.9.1.4.2.7.6.8 1 0 .3 0 .6-.1.9-.3.6-1 .9-1.6.8-.6-.2-1.1-.8-1.1-1.5 0-.6.5-1.2 1.1-1.3z"/><path d="m28.7 1.5c.3 0 .6 0 .9.1.5.2.8.7.8 1.2 0 .4-.1.8-.4 1.1-.2.3-.6.4-1 .4-.5 0-1.1-.3-1.3-.8-.1-.3-.1-.6-.1-.9.2-.6.6-1 1.1-1.1z"/><path d="m26.9 22.9h2.1v8.5c-.7 0-1.4 0-2.1 0 0-2.8 0-5.7 0-8.5z"/></g><path d="m3.7.2c.4-.2.9-.2 1.4-.2h30.1c1.1 0 2.2.7 2.6 1.7.2.4.3.8.3 1.3v2.9c-.3-.1-.7-.2-1-.2-11.4 0-22.7 0-34.1 0-.4 0-.7 0-1.1.2 0-1 0-2 0-3 0-1.2.7-2.3 1.8-2.7zm6.9 1.3c-.6.1-1.1.7-1.1 1.3s.5 1.3 1.1 1.4c.6.2 1.3-.2 1.6-.8.1-.3.2-.6.1-.9-.1-.4-.4-.8-.8-1-.3-.1-.6-.1-.9 0zm18.1 0c-.5.1-1 .6-1.1 1.1 0 .3 0 .6.1.9.2.5.8.8 1.3.8.4 0 .7-.2 1-.4.3-.3.4-.7.4-1.1 0-.5-.4-1-.8-1.2-.2-.2-.6-.2-.9-.1z" fill="#c8c7c6"/><path d="m28.6 14.3c.2-.1.3-.1.5 0v8.6c-.7 0-1.4 0-2.1 0 0-2 0-4 0-5.9-1.4.5-2.9 1-4.3 1.4 0-.6 0-1.3 0-1.9 1.9-.8 3.9-1.5 5.9-2.2z" fill="#c8c7c6"/><path d="m11.1 15.4c.9-.7 2-1 3.1-1.1 1.1 0 2.3.1 3.2.7.8.4 1.4 1.1 1.7 2 .3.8.4 1.7.3 2.6-.2 1.4-1.3 2.5-2.6 3.1.2.1.4.1.5.2-.1 0-.2 0-.3 0-1.5 0-3 0-4.5 0 0-.3 0-.6 0-1 1.1 0 2.2.1 3.2-.4.8-.3 1.4-1.1 1.6-2 .1-.9 0-1.8-.5-2.5-.4-.6-1.1-.9-1.7-1-.9-.1-1.9 0-2.7.5-.7.5-1.1 1.5-1.1 2.4-.7 0-1.4 0-2.1 0 0-.4 0-.8.1-1.1.4-1 1-1.9 1.8-2.4z" fill="#c8c7c6"/><path d="m1.9 5.9c.4-.2.7-.2 1.1-.2h34.1c.3 0 .7 0 1 .2 1 .4 1.8 1.3 1.9 2.3-.2-.7-.6-1.4-1.3-1.8-.5-.3-1-.5-1.6-.5-11.4 0-22.8 0-34.2 0-.9 0-1.7.4-2.3 1-.3.3-.4.7-.6 1 .3-.9 1-1.7 1.9-2z" fill="#557cbe"/><path d="m26.9 22.9c.1 2.9 0 5.7 0 8.6h2.1c0-2.8 0-5.7 0-8.5h.9 8.1c.3 4.5.6 9 .9 13.5 0 .5.1 1 0 1.5-.1.1-.2.3-.3.5-.5.8-1.4 1.4-2.4 1.4-10.7 0-21.4 0-32.1 0-.3 0-.7 0-1-.1-.7-.2-1.4-.7-1.8-1.4-.1-.1-.2-.3-.3-.4-.2-.7 0-1.4 0-2.1.3-4.3.6-8.6.9-13h10.7v.6c1.1 0 2.3-.1 3.4.3.7.3 1.3.9 1.5 1.6.3.8.2 1.7-.1 2.6-.3.8-.9 1.3-1.7 1.6-.9.3-2 .3-2.9-.1-.7-.3-1.3-.9-1.5-1.6-.1-.3-.1-.7-.1-1-.7 0-1.4 0-2.1 0 0 .9.2 1.7.7 2.5s1.3 1.4 2.2 1.7c1.1.4 2.3.5 3.5.3 1.1-.2 2.3-.7 3-1.6.7-.8 1.1-1.8 1.1-2.9.1-1-.2-2.1-.8-2.9-.4-.5-.9-.8-1.4-1.1h.7 7.6z" fill="#557cbe"/><path d="m.7 7c.5-.7 1.4-1 2.3-1h34.2c.6 0 1.1.2 1.6.5.6.4 1.1 1.1 1.3 1.8-.1.1-.1.4-.1.7-.6 4.6-1.3 9.3-1.9 13.9-2.6 0-5.2 0-7.7 0-.4 0-.9 0-1.3 0 0-2.9 0-5.7 0-8.6-.2 0-.3 0-.5 0-2 .7-4 1.4-5.9 2.1v1.9c1.4-.5 2.9-1 4.3-1.4v5.9c-3 0-6 0-9 0-.1 0-.3 0-.4 0-.2-.1-.3-.2-.5-.2 1.3-.6 2.3-1.7 2.6-3.1.1-.9 0-1.8-.3-2.6s-.9-1.5-1.7-2c-1-.6-2.1-.7-3.2-.7s-2.2.4-3.1 1.1c-.8.6-1.4 1.5-1.6 2.4-.1.4-.1.7-.1 1.1h2.1c0-.9.4-1.8 1.1-2.4.8-.6 1.8-.6 2.7-.5.7.1 1.3.4 1.7 1 .5.7.6 1.7.5 2.5-.1.9-.7 1.7-1.6 2-1 .5-2.1.3-3.2.4v1c-3.6 0-7.1 0-10.7 0-.6-4.5-1.2-9.1-1.8-13.6-.5-.4-.5-.8-.4-1.3.2-.3.3-.7.6-.9z" fill="#4466b0"/><path d="m1.1 37.9c.1.1.2.3.3.4.4.7 1 1.2 1.8 1.4.3.1.7.1 1 .1h32.1c1 0 1.9-.5 2.4-1.4.1-.2.2-.4.3-.5-.2.9-1 1.7-1.9 2-.5.1-1.1.1-1.6.1-10.4 0-20.9 0-31.3 0-.4 0-.8 0-1.2-.1-.9-.3-1.7-1.1-1.9-2z" fill="#4466b0"/></svg>