<svg height="40" viewBox="0 0 33.373 40" width="33.373" xmlns="http://www.w3.org/2000/svg"><path d="m21.483 0c-.05 0-21.443 8.026-21.472 8.056-.011.01-.011 5.422-.011 12.025l.014 12.006 2.667-1.043 3.634-1.424.967-.379v-9.774c0-6.741.014-9.782.047-9.8.081-.05 14.107-3.392 14.143-3.371s.044 28.718 0 28.745c-.018.011-4.8-.638-10.634-1.44s-10.616-1.459-10.632-1.453 4.732 1.774 10.557 3.93 10.637 3.922 10.698 3.922 2.767-.731 6.012-1.628l5.9-1.632-.011-16.664-.011-16.665-5.912-1.705c-3.25-.938-5.931-1.706-5.956-1.706z" fill="#eb3c00"/></svg>