<svg id="Ebene_1" data-name="Ebene 1" xmlns="http://www.w3.org/2000/svg" viewBox="0 0 58.44 50"><defs><style>.cls-1{fill:#1873b4;}.cls-2{fill:none;stroke:#bfbfbf;stroke-miterlimit:10;}.cls-3{fill:#fff;}</style></defs><title>enterprise_grade_50x50px-33</title><rect class="cls-1" x="4.34" y="3.66" width="49.77" height="35.71"/><path class="cls-2" d="M54.11.13A3.44,3.44,0,0,1,57.67,3.7V39.42a3.58,3.58,0,0,1-1,2.51A3.36,3.36,0,0,1,54.11,43H4.34a3.41,3.41,0,0,1-2.5-1.06,3.46,3.46,0,0,1-1-2.51V3.7A3.37,3.37,0,0,1,1.84,1.14a3.52,3.52,0,0,1,2.5-1Zm0,3.57H4.34V39.42H54.11ZM41.67,46.56a1.58,1.58,0,0,1,1.78,1.79,1.81,1.81,0,0,1-.5,1.22,1.63,1.63,0,0,1-1.28.56H16.79a1.67,1.67,0,0,1-1.23-.56A1.7,1.7,0,0,1,15,48.35a1.67,1.67,0,0,1,.55-1.29,1.81,1.81,0,0,1,1.23-.5Z"/><path class="cls-3" d="M41.89,5.41A7,7,0,0,1,44.67,6a7,7,0,0,1,2.26,1.52A7.1,7.1,0,0,1,49,12.55a7,7,0,0,1-.55,2.78,7.36,7.36,0,0,1-1.52,2.27,6.87,6.87,0,0,1-2.26,1.54,7,7,0,0,1-2.78.56,6.91,6.91,0,0,1-2.76-.56,7.25,7.25,0,0,1-3.79-3.81,7,7,0,0,1-.56-2.78,7.13,7.13,0,0,1,.56-2.79,7,7,0,0,1,1.53-2.27A7.31,7.31,0,0,1,39.13,6,6.91,6.91,0,0,1,41.89,5.41ZM36,10.77a6,6,0,0,0-.21.86,7,7,0,0,0-.07.92,6.74,6.74,0,0,0,.07.92,6.13,6.13,0,0,0,.21.87h2.56a8.77,8.77,0,0,1-.17-1.79c0-.31,0-.62,0-.92s.08-.58.12-.86Zm4.81-4.36a6.12,6.12,0,0,0-2.67,1.2,6.41,6.41,0,0,0-1.81,2.26h2.45A6.77,6.77,0,0,1,40.76,6.41Zm-4.48,8.82a6.29,6.29,0,0,0,1.81,2.25,6.38,6.38,0,0,0,2.67,1.21,7.15,7.15,0,0,1-2.06-3.46Zm8.28-2.68a9.19,9.19,0,0,0-.17-1.78h-5c-.05.28-.1.56-.14.86s-.05.61-.05.92a8.76,8.76,0,0,0,.05.91c0,.29.09.58.14.88h5A9.53,9.53,0,0,0,44.56,12.55Zm-.39-2.68a6.94,6.94,0,0,0-.94-1.93,4.15,4.15,0,0,0-1.34-1.25,4.42,4.42,0,0,0-1.32,1.25,6.66,6.66,0,0,0-.93,1.93Zm-2.28,8.54a4.15,4.15,0,0,0,1.34-1.25,7.37,7.37,0,0,0,.94-1.93H39.64a7.06,7.06,0,0,0,.93,1.93A4.42,4.42,0,0,0,41.89,18.41ZM47.5,9.87a6.27,6.27,0,0,0-1.8-2.26A6.12,6.12,0,0,0,43,6.41a6.84,6.84,0,0,1,2.06,3.46Zm-4.44,8.82a6.21,6.21,0,0,0,4.44-3.46H45.09A7.08,7.08,0,0,1,43.06,18.69Zm4.8-4.35a6.5,6.5,0,0,0,0-3.57H45.28a9.19,9.19,0,0,1,.17,1.78,9.53,9.53,0,0,1-.17,1.79Z"/><path class="cls-3" d="M24.21,6.36c.51,0,.76.28.76.84V20.39c0,.56-.25.83-.76.83H11.27a.73.73,0,0,1-.83-.83V7.2a.74.74,0,0,1,.83-.84ZM22.16,9.71H13.32v1.73h8.84Zm0,3.21H13.32v1.81h8.84Zm0,3.22H13.32v1.8h8.84Z"/><path class="cls-3" d="M48.43,22.85c.51,0,.77.28.77.84V36.88c0,.56-.26.84-.77.84H35.37a.74.74,0,0,1-.84-.84V23.69a.74.74,0,0,1,.84-.84Zm-1.15,3.54-2.11-1.48-5.32,7.6-2.24-1.74-1.54,2.06,3.27,2.51a1,1,0,0,0,.7.32,1.49,1.49,0,0,0,1.15-.58Z"/><path class="cls-3" d="M11.46,27.44h3v9h-3Zm4.61-2.38h3.14V36.45H16.07Zm4.74,6.57H24v4.82H20.81Z"/></svg>