<svg id="Ebene_1" data-name="Ebene 1" xmlns="http://www.w3.org/2000/svg" viewBox="0 0 94.22 50"><defs><style>.cls-1{fill:none;}.cls-1,.cls-5{stroke:#bfbfbf;stroke-miterlimit:10;}.cls-2{fill:#1873b4;}.cls-3,.cls-5{fill:#fff;}.cls-4{fill:#53b8de;}</style></defs><title>responsive_50x50px_Zeichenfläche 1 Kopie</title><path class="cls-1" d="M73.32.45a3.4,3.4,0,0,1,2.5,1,3.36,3.36,0,0,1,1,2.5V38.77a3.42,3.42,0,0,1-1,2.45,3.29,3.29,0,0,1-2.5,1H24.55a3.53,3.53,0,0,1-3.49-3.48V3.93a3.3,3.3,0,0,1,1-2.5,3.45,3.45,0,0,1,2.45-1Zm0,3.48H24.55V38.77H73.32ZM61.13,45.74a1.54,1.54,0,0,1,1.74,1.74,1.78,1.78,0,0,1-.49,1.2,1.63,1.63,0,0,1-1.25.54H36.74A1.86,1.86,0,0,1,35,47.48a1.6,1.6,0,0,1,.54-1.25,1.73,1.73,0,0,1,1.2-.49Z"/><rect class="cls-2" x="24.55" y="7.51" width="48.77" height="31.26"/><rect class="cls-3" x="27.11" y="26.66" width="35.16" height="2.19"/><rect class="cls-3" x="27.11" y="22.51" width="35.16" height="2.19"/><rect class="cls-3" x="27.11" y="18.46" width="35.16" height="2.19"/><rect class="cls-3" x="32.98" y="14.59" width="10.67" height="2.19"/><rect class="cls-3" x="27.11" y="30.72" width="23.13" height="2.19"/><rect class="cls-3" x="27.11" y="14.59" width="4.65" height="2.19"/><rect class="cls-4" x="24.55" y="3.93" width="48.77" height="4.42"/><path class="cls-5" d="M89.88,17.22A4.15,4.15,0,0,1,94,21.32V45.9a3.9,3.9,0,0,1-1.21,2.91A4,4,0,0,1,89.88,50H77.65a4,4,0,0,1-2.86-1.19,3.9,3.9,0,0,1-1.21-2.91V21.32a4.15,4.15,0,0,1,4.07-4.1Zm2,4.1H75.62V43.85h16.3ZM83.77,48a1.53,1.53,0,0,0,1.08-.42,1.48,1.48,0,0,0,.44-1.12,1.53,1.53,0,0,0-.44-1.09,1.53,1.53,0,0,0-2.17,0,1.53,1.53,0,0,0-.44,1.09,1.48,1.48,0,0,0,.44,1.12A1.53,1.53,0,0,0,83.77,48Z"/><rect class="cls-4" x="75.62" y="21.32" width="16.3" height="3.11"/><rect class="cls-2" x="75.62" y="24.43" width="16.3" height="19.42"/><rect class="cls-3" x="77.11" y="31.09" width="12.98" height="1.49"/><rect class="cls-3" x="77.11" y="28.28" width="12.98" height="1.49"/><rect class="cls-3" x="80.33" y="25.54" width="3.94" height="1.49"/><rect class="cls-3" x="76.98" y="41.29" width="8.54" height="1.49"/><rect class="cls-3" x="77.11" y="25.54" width="1.71" height="1.49"/><rect class="cls-3" x="77" y="33.73" width="12.98" height="1.49"/><rect class="cls-3" x="77" y="36.35" width="12.98" height="1.49"/><rect class="cls-3" x="77" y="38.97" width="12.98" height="1.49"/><path class="cls-5" d="M26.1,12a2.2,2.2,0,0,1,1.67.69,2.27,2.27,0,0,1,.66,1.63V46.89a2.24,2.24,0,0,1-2.33,2.33H2.82A2.24,2.24,0,0,1,.49,46.89V14.3a2.27,2.27,0,0,1,.66-1.63A2.19,2.19,0,0,1,2.82,12Zm0,4.65H2.82V42.24H26.1ZM14.46,46.89a1.75,1.75,0,0,0,1.24-.47,1.67,1.67,0,0,0,.5-1.27,1.72,1.72,0,0,0-1.74-1.75,1.74,1.74,0,0,0-1.75,1.75,1.64,1.64,0,0,0,.51,1.27A1.73,1.73,0,0,0,14.46,46.89Z"/><rect class="cls-4" x="2.82" y="16.7" width="23.28" height="3.53"/><rect class="cls-2" x="2.82" y="20.23" width="23.28" height="22.01"/><rect class="cls-3" x="4.96" y="27.78" width="18.54" height="1.68"/><rect class="cls-3" x="4.96" y="24.59" width="18.54" height="1.68"/><rect class="cls-3" x="9.55" y="21.48" width="5.63" height="1.68"/><rect class="cls-3" x="4.77" y="39.33" width="12.19" height="1.68"/><rect class="cls-3" x="4.96" y="21.48" width="2.45" height="1.68"/><rect class="cls-3" x="4.8" y="30.77" width="18.54" height="1.68"/><rect class="cls-3" x="4.8" y="33.74" width="18.54" height="1.68"/><rect class="cls-3" x="4.8" y="36.71" width="18.54" height="1.68"/></svg>