<svg id="Ebene_1" data-name="Ebene 1" xmlns="http://www.w3.org/2000/svg" viewBox="0 0 58.42 51.25"><defs><style>.cls-1{fill:#53b8de;}.cls-2{fill:#1873b4;}.cls-3{fill:none;stroke:#bfbfbf;stroke-miterlimit:10;}.cls-4{fill:#fff;}</style></defs><title>free_open_source_50x50px_39</title><polygon class="cls-1" points="16.44 39.51 4.9 39.55 4.88 4.6 16.43 4.6 16.44 39.51"/><rect class="cls-2" x="16.45" y="4.2" width="37.82" height="35.71"/><path class="cls-3" d="M54.27.63A3.44,3.44,0,0,1,57.82,4.2V39.92a3.54,3.54,0,0,1-1,2.51,3.34,3.34,0,0,1-2.55,1.06H4.5A3.4,3.4,0,0,1,2,42.43,3.47,3.47,0,0,1,.94,39.92V4.2A3.38,3.38,0,0,1,2,1.64a3.51,3.51,0,0,1,2.5-1Zm0,3.57H4.5V39.92H54.27ZM41.83,47.06a1.57,1.57,0,0,1,1.77,1.79,1.76,1.76,0,0,1-.5,1.22,1.61,1.61,0,0,1-1.27.56H16.94a1.67,1.67,0,0,1-1.22-.56,1.71,1.71,0,0,1-.56-1.22,1.68,1.68,0,0,1,.56-1.29,1.81,1.81,0,0,1,1.22-.5Z"/><ellipse class="cls-4" cx="6.42" cy="6.67" rx="1.12" ry="1.12"/><ellipse class="cls-4" cx="10.37" cy="6.67" rx="1.12" ry="1.12"/><ellipse class="cls-4" cx="14.32" cy="6.67" rx="1.12" ry="1.12"/><rect class="cls-4" x="5.61" y="19.5" width="9.48" height="2.25"/><rect class="cls-4" x="5.61" y="23.47" width="9.48" height="2.25"/><rect class="cls-4" x="5.61" y="27.43" width="9.48" height="2.25"/><rect class="cls-4" x="5.61" y="31.4" width="9.48" height="2.25"/><rect class="cls-4" x="5.61" y="35.37" width="9.48" height="2.25"/><rect class="cls-4" x="5.61" y="14.93" width="9.48" height="2.25"/><path class="cls-4" d="M27.63,9.09a7.93,7.93,0,0,1,3.12.61,8.44,8.44,0,0,1,2.55,1.68A7.47,7.47,0,0,1,35.05,14a8.41,8.41,0,0,1,.64,3.28,5.84,5.84,0,0,1-.38,2.17,9.83,9.83,0,0,1-.92,1.73,12.62,12.62,0,0,1-1.09,1.42,5.06,5.06,0,0,0-.81,1.2,5.71,5.71,0,0,0-.3.81c-.17.51-.36,1.07-.56,1.68s-.49,1.51-.76,2.39H24.39l-.81-2.44c-.21-.61-.39-1.16-.56-1.65s-.25-.76-.25-.79a5.06,5.06,0,0,0-.81-1.2,13.3,13.3,0,0,1-1.09-1.4,8.87,8.87,0,0,1-.94-1.73,5.74,5.74,0,0,1-.41-2.24,8.2,8.2,0,0,1,.64-3.28,7.59,7.59,0,0,1,1.74-2.57,8.09,8.09,0,0,1,2.59-1.66A8.42,8.42,0,0,1,27.63,9.09ZM32.19,21.3a16.37,16.37,0,0,0,1.29-1.8,4.21,4.21,0,0,0,.58-2.27,6.87,6.87,0,0,0-.48-2.57,6.12,6.12,0,0,0-1.37-2.09,6.2,6.2,0,0,0-2.05-1.37,6.55,6.55,0,0,0-2.53-.48,7,7,0,0,0-2.56.46A5.66,5.66,0,0,0,23,12.5a6.26,6.26,0,0,0-1.88,4.68,4.25,4.25,0,0,0,.56,2.24A15.25,15.25,0,0,0,23,21.2a8.13,8.13,0,0,1,.71.92,9.1,9.1,0,0,1,.56,1,.19.19,0,0,0,.05.12,2.94,2.94,0,0,1,.15.46c.07.26.19.64.38,1.15s.43,1.23.73,2.19h4.11c.3-1,.54-1.68.73-2.19s.32-.89.41-1.15.14-.41.17-.48A.32.32,0,0,0,31,23c.17-.3.35-.59.54-.86S32,21.61,32.19,21.3Zm-1.67,8.15a.7.7,0,0,1,.53.23.8.8,0,0,1,.23.58v1.63a.82.82,0,0,1-.23.59.74.74,0,0,1-.53.23H24.69c-.47,0-.71-.28-.71-.82V30.26c0-.54.24-.81.71-.81Zm-6.13,4.07h6.48l-.5.51a4,4,0,0,1-5.52,0Zm4-1.63q.69,0,.69-.81c0-.55-.23-.82-.69-.82s-.68.27-.68.82S27.91,31.89,28.36,31.89Z"/><path class="cls-4" d="M47.35,29.54a.62.62,0,0,1,.47.2.73.73,0,0,1,.19.52v1.45a.72.72,0,0,1-.19.51.57.57,0,0,1-.47.22h-.58l-.12.34-.13.31.41.46a.69.69,0,0,1,.19.51.72.72,0,0,1-.19.51l-1,1a.59.59,0,0,1-.45.2.66.66,0,0,1-.48-.2l-.41-.48a1.64,1.64,0,0,1-.29.16l-.31.14v.63a.76.76,0,0,1-.18.51.64.64,0,0,1-.48.22H42.06a.64.64,0,0,1-.48-.22.76.76,0,0,1-.18-.51v-.63l-.31-.14a2.09,2.09,0,0,1-.29-.16l-.41.48a.66.66,0,0,1-.48.2.59.59,0,0,1-.45-.2l-1-1a.72.72,0,0,1-.19-.51.69.69,0,0,1,.19-.51l.41-.46c0-.1-.09-.21-.14-.31a3.38,3.38,0,0,1-.11-.34h-.58a.57.57,0,0,1-.47-.22.72.72,0,0,1-.19-.51V30.26a.73.73,0,0,1,.19-.52.62.62,0,0,1,.47-.2h.58a2.72,2.72,0,0,1,.11-.34c0-.11.1-.21.14-.32l-.41-.45a.78.78,0,0,1-.19-.52.68.68,0,0,1,.19-.5l1-1a.57.57,0,0,1,.45-.21.63.63,0,0,1,.48.21l.41.45.29-.15a1.43,1.43,0,0,1,.31-.12v-.64a.77.77,0,0,1,.18-.52.66.66,0,0,1,.48-.2h1.32a.66.66,0,0,1,.48.2.77.77,0,0,1,.18.52v.64a1.43,1.43,0,0,1,.31.12l.29.15.41-.45a.63.63,0,0,1,.48-.21.57.57,0,0,1,.45.21l1,1a.68.68,0,0,1,.19.5.78.78,0,0,1-.19.52l-.41.45.13.32c0,.1.08.22.12.34Zm0,.72H46.27l-.14-.5L46,29.48l-.12-.28-.22-.45.35-.39.41-.45-.93-1-.41.45-.35.36-.44-.22-.25-.13-.24-.1-.46-.18V25.91H42.06v1.16l-.46.18-.25.1a2.1,2.1,0,0,0-.26.13l-.42.22-.35-.36-.41-.45-.93,1,.41.45.33.39-.2.45-.12.28-.09.28-.16.5H38.09v1.45h1.06l.16.5.09.27.12.27.2.48-.33.39-.41.45.93,1,.41-.46.35-.38.42.25a2.06,2.06,0,0,0,.26.12l.25.1.46.16v1.18h1.32V34.88l.46-.16.24-.1a1.92,1.92,0,0,0,.25-.12l.44-.25.35.38.41.46.93-1-.41-.45-.35-.39.22-.48.12-.27.09-.27.14-.5h1.08Zm-4.63-1.45a1.83,1.83,0,0,1,1.41.64,2.37,2.37,0,0,1,0,3.08,1.86,1.86,0,0,1-1.41.63,1.82,1.82,0,0,1-1.4-.63,2.33,2.33,0,0,1,0-3.08A1.8,1.8,0,0,1,42.72,28.81Zm0,3.63a1.24,1.24,0,0,0,.93-.43,1.53,1.53,0,0,0,0-2,1.22,1.22,0,0,0-1.86,0,1.53,1.53,0,0,0,0,2A1.24,1.24,0,0,0,42.72,32.44Z"/><path class="cls-4" d="M51.19,19.27a.45.45,0,0,1,.33.14.52.52,0,0,1,.12.36v1a.5.5,0,0,1-.12.34.43.43,0,0,1-.33.15H50.8c0,.08,0,.16-.08.23l-.09.22.28.3a.49.49,0,0,1,.13.35.45.45,0,0,1-.13.34l-.64.71a.43.43,0,0,1-.31.14.42.42,0,0,1-.32-.14l-.28-.32-.2.11-.21.09v.43a.5.5,0,0,1-.12.34.43.43,0,0,1-.33.15h-.89a.43.43,0,0,1-.33-.15.5.5,0,0,1-.12-.34v-.43L47,23.18l-.2-.11-.28.32a.42.42,0,0,1-.32.14.41.41,0,0,1-.31-.14l-.64-.71a.45.45,0,0,1-.13-.34A.49.49,0,0,1,45.2,22l.28-.3a1.47,1.47,0,0,0-.1-.22,1.55,1.55,0,0,1-.07-.23h-.39a.41.41,0,0,1-.33-.15.5.5,0,0,1-.12-.34v-1a.52.52,0,0,1,.12-.36.44.44,0,0,1,.33-.14h.39a1.55,1.55,0,0,1,.07-.23,2,2,0,0,0,.1-.21l-.28-.31a.51.51,0,0,1-.13-.35.45.45,0,0,1,.13-.34l.64-.71a.41.41,0,0,1,.31-.14.42.42,0,0,1,.32.14l.28.31.2-.1a.66.66,0,0,1,.21-.08v-.43a.52.52,0,0,1,.12-.36.45.45,0,0,1,.33-.14h.89a.45.45,0,0,1,.33.14.52.52,0,0,1,.12.36v.43a.66.66,0,0,1,.21.08l.2.1.28-.31A.42.42,0,0,1,50,17a.43.43,0,0,1,.31.14l.64.71a.45.45,0,0,1,.13.34.51.51,0,0,1-.13.35l-.28.31.09.21c0,.07.05.15.08.23Zm0,.5h-.73l-.09-.34a1.46,1.46,0,0,0-.07-.19c0-.07,0-.14-.07-.2l-.16-.3.24-.27.28-.3L50,17.48l-.28.3-.24.25-.29-.15L49,17.79l-.17-.07-.31-.12v-.78h-.89v.78l-.31.12-.18.07a.91.91,0,0,0-.17.09l-.28.15-.24-.25-.28-.3-.63.69.28.3.22.27-.14.3c0,.06-.05.13-.08.2l-.06.19-.11.34h-.71v1h.71l.11.34.06.18c0,.06.05.12.08.19l.14.32L45.8,22l-.28.31.63.69.28-.31.24-.26.28.17.17.08.18.07.31.11v.8h.89v-.8l.31-.11.17-.07.17-.08.29-.17.24.26L50,23l.63-.69L50.31,22l-.24-.26.16-.32c0-.07.05-.13.07-.19a1.34,1.34,0,0,0,.07-.18l.09-.34h.73Zm-3.14-1a1.27,1.27,0,0,1,1,.43,1.52,1.52,0,0,1,.39,1.05,1.49,1.49,0,0,1-.39,1,1.28,1.28,0,0,1-1.91,0,1.49,1.49,0,0,1-.39-1,1.52,1.52,0,0,1,.39-1.05A1.26,1.26,0,0,1,48.05,18.78Zm0,2.46a.82.82,0,0,0,.63-.29,1,1,0,0,0,.27-.69,1,1,0,0,0-.27-.69.8.8,0,0,0-.63-.3.82.82,0,0,0-.63.3,1,1,0,0,0-.26.69,1,1,0,0,0,.26.69A.85.85,0,0,0,48.05,21.24Z"/></svg>