<svg xmlns="http://www.w3.org/2000/svg" viewBox="0 0 57.56 50"><style>.D{fill:#d9d9d9}.E{fill:#fff}</style><path d="M15.96 3.87h37.62v35.36H15.96z" fill="#1873b4"/><path d="M53.57.34a3.47 3.47 0 0 1 2.55 1 3.44 3.44 0 0 1 1 2.54v35.35a3.51 3.51 0 0 1-1 2.49 3.36 3.36 0 0 1-2.55 1.05H4.07a3.4 3.4 0 0 1-2.49-1.05 3.4 3.4 0 0 1-1-2.49V3.87a3.34 3.34 0 0 1 1-2.54 3.51 3.51 0 0 1 2.49-1zm0 3.53H4.07v35.36h49.5zM41.2 46.3a1.56 1.56 0 0 1 1.8 1.77 1.78 1.78 0 0 1-.5 1.21 1.63 1.63 0 0 1-1.27.55h-24.8a1.89 1.89 0 0 1-1.76-1.76 1.65 1.65 0 0 1 .55-1.28 1.77 1.77 0 0 1 1.21-.49z" fill="none" stroke="#bfbfbf" stroke-miterlimit="10"/><path d="M16 38.72H4.07V4.4h11.9L16 38.72z" fill="#9c9b9b"/><circle class="D" cx="5.98" cy="6.31" r="1.11"/><circle class="D" cx="9.9" cy="6.31" r="1.11"/><circle class="D" cx="13.83" cy="6.31" r="1.11"/><path class="D" d="M5.18 19.02h9.43v2.23H5.18zm0 3.93h9.43v2.23H5.18zm0 3.93h9.43v2.23H5.18zm0 3.92h9.43v2.23H5.18zm0 3.93h9.43v2.23H5.18zm0-20.23h9.43v2.23H5.18z"/><path class="E" d="M27.08 8.7a7.79 7.79 0 0 1 3.1.61A8.27 8.27 0 0 1 32.72 11a7.46 7.46 0 0 1 1.74 2.54 8.3 8.3 0 0 1 .63 3.25 5.77 5.77 0 0 1-.38 2.15 9.24 9.24 0 0 1-.9 1.71A15.33 15.33 0 0 1 32.72 22a5 5 0 0 0-1.11 2l-.55 1.66-.76 2.37h-6.45l-.8-2.42-.56-1.63a7.06 7.06 0 0 1-.25-.79 5.2 5.2 0 0 0-.81-1.19 14.55 14.55 0 0 1-1.08-1.39 9.22 9.22 0 0 1-.93-1.71 5.67 5.67 0 0 1-.42-2.18 8.26 8.26 0 0 1 .63-3.25 7.46 7.46 0 0 1 1.74-2.54A8 8 0 0 1 24 9.29a8.37 8.37 0 0 1 3.08-.58zm4.53 12.1A18.4 18.4 0 0 0 32.9 19a4.23 4.23 0 0 0 .58-2.25 6.71 6.71 0 0 0-.48-2.52 6.16 6.16 0 0 0-1.36-2.07 6.4 6.4 0 0 0-2-1.36 6.57 6.57 0 0 0-2.52-.48 6.92 6.92 0 0 0-2.55.46 5.73 5.73 0 0 0-2 1.31 6.19 6.19 0 0 0-1.86 4.63 4.15 4.15 0 0 0 .55 2.22 15 15 0 0 0 1.26 1.76 10.79 10.79 0 0 1 .71.91 8.89 8.89 0 0 1 .55 1 .31.31 0 0 0 .05.13 2.67 2.67 0 0 1 .15.45 13.5 13.5 0 0 0 .38 1.13l.73 2.17h4.08l.73-2.17.57-1.6a.32.32 0 0 0 .05-.15l.53-.86c.18-.27.32-.6.55-.9zM30 28.87a.7.7 0 0 1 .53.23.78.78 0 0 1 .23.58v1.6a.8.8 0 0 1-.23.58.73.73 0 0 1-.53.22h-5.8c-.47 0-.7-.26-.7-.8v-1.6c0-.54.23-.8.7-.8zm-6.1 4h6.4l-.5.5a3.73 3.73 0 0 1-2.72 1.1 3.78 3.78 0 0 1-2.77-1.1zm3.95-1.6c.45 0 .68-.27.68-.8s-.23-.8-.68-.8-.68.26-.68.8.17.84.63.84zM46.7 29a.62.62 0 0 1 .47.2.71.71 0 0 1 .19.52v1.43a.74.74 0 0 1-.19.51.59.59 0 0 1-.47.21h-.57c0 .12-.1.23-.13.34l-.12.3.4.45a.72.72 0 0 1 .19.5.76.76 0 0 1-.19.51l-.94 1a.63.63 0 0 1-.46.2.62.62 0 0 1-.47-.2l-.4-.48a2 2 0 0 1-.29.15l-.3.14v.63a.75.75 0 0 1-.18.5.59.59 0 0 1-.47.21h-1.32a.59.59 0 0 1-.47-.21.71.71 0 0 1-.19-.5v-.63l-.3-.14a1.91 1.91 0 0 1-.28-.15l-.4.47a.66.66 0 0 1-.48.2.59.59 0 0 1-.45-.2l-.94-1a.72.72 0 0 1-.19-.51.68.68 0 0 1 .19-.5l.4-.45a2.92 2.92 0 0 0-.14-.31 3.38 3.38 0 0 1-.11-.34h-.58a.61.61 0 0 1-.47-.21.78.78 0 0 1-.18-.51v-1.46a.75.75 0 0 1 .18-.52.63.63 0 0 1 .47-.2h.58a3.38 3.38 0 0 1 .11-.34c0-.1.1-.2.14-.3l-.4-.45a.76.76 0 0 1-.19-.52.67.67 0 0 1 .19-.49l.94-1a.56.56 0 0 1 .45-.2.62.62 0 0 1 .48.2l.4.45.28-.15a1.66 1.66 0 0 1 .31-.12v-.63a.73.73 0 0 1 .19-.52.62.62 0 0 1 .47-.2h1.32a.62.62 0 0 1 .47.2.77.77 0 0 1 .18.52v.6a1.43 1.43 0 0 1 .31.12l.3.15.4-.45a.59.59 0 0 1 .47-.2.59.59 0 0 1 .46.2l.94 1a.71.71 0 0 1 .19.49.81.81 0 0 1-.19.52l-.4.45.12.3c0 .1.1.22.13.34zm0 .72h-1.07l-.14-.5-.1-.28-.12-.28-.22-.45.35-.38.4-.45-.93-1-.4.45-.35.36-.43-.22-.25-.13-.24-.1-.45-.18v-1.2h-1.32v1.14l-.45.18-.26.1-.26.13-.4.22-.35-.36-.4-.45-.92 1 .4.45.33.38-.2.45c0 .1-.08.2-.1.28l-.1.28-.17.5H37.5v1.43h1.05l.17.5c0 .1.06.18.1.27s.07.18.1.27l.2.47-.33.4-.4.44.92 1 .4-.43.35-.38.4.25c.1 0 .17.1.26.12l.26.1.45.16v1.17h1.32v-1.17l.45-.16.24-.1a1.92 1.92 0 0 0 .25-.12l.43-.25.35.38.4.45.93-1-.4-.45-.35-.4.22-.47.12-.27.1-.27.14-.5h1.07zm-4.6-1.44a1.83 1.83 0 0 1 1.4.63 2.33 2.33 0 0 1 0 3.05 1.87 1.87 0 0 1-2.8 0 2.33 2.33 0 0 1 0-3.05 1.82 1.82 0 0 1 1.4-.67zm0 3.6a1.2 1.2 0 0 0 .91-.47 1.44 1.44 0 0 0 .39-1 1.45 1.45 0 0 0-.39-1 1.23 1.23 0 0 0-1.85 0 1.45 1.45 0 0 0-.39 1 1.44 1.44 0 0 0 .39 1 1.2 1.2 0 0 0 .94.43zm8.42-13.08a.42.42 0 0 1 .32.13.51.51 0 0 1 .12.35v1a.52.52 0 0 1-.12.34.43.43 0 0 1-.32.14h-.4L50 21l-.08.2.28.3a.54.54 0 0 1 0 .68l-.64.7a.43.43 0 0 1-.31.14.42.42 0 0 1-.32-.14l-.28-.32-.4.2v.43a.53.53 0 0 1-.13.34.42.42 0 0 1-.32.14H47a.42.42 0 0 1-.32-.14.48.48 0 0 1-.13-.34v-.43l-.4-.2-.28.32a.42.42 0 0 1-.32.14.43.43 0 0 1-.31-.14l-.64-.7a.51.51 0 0 1 0-.68l.28-.3-.14-.2a1.55 1.55 0 0 1-.08-.23h-.4a.42.42 0 0 1-.27-.17.52.52 0 0 1-.12-.34v-1a.51.51 0 0 1 .12-.35.41.41 0 0 1 .32-.13h.4a1.23 1.23 0 0 1 .08-.23l.1-.22-.28-.3a.56.56 0 0 1-.13-.35.49.49 0 0 1 .13-.33l.64-.7a.39.39 0 0 1 .31-.14.39.39 0 0 1 .32.14l.28.3.2-.1.2-.08v-.43a.48.48 0 0 1 .13-.35.42.42 0 0 1 .32-.14h.9a.42.42 0 0 1 .32.14.52.52 0 0 1 .13.35v.43l.2.08.2.1.28-.3a.39.39 0 0 1 .32-.14.39.39 0 0 1 .31.14l.64.7a.48.48 0 0 1 .12.33.55.55 0 0 1-.12.35l-.28.3.08.22c0 .07.06.14.1.23zm0 .48h-.73l-.1-.33a1.39 1.39 0 0 0-.06-.19c0-.07-.05-.13-.07-.2l-.16-.3.24-.26.28-.3-.63-.7-.28.3-.24.24-.3-.15-.17-.08-.16-.07-.3-.12v-.78H47v.78l-.3.12-.17.07-.18.08-.28.15-.23-.24-.33-.3-.63.68.28.3.22.26-.14.3c0 .06 0 .12-.07.2a1.46 1.46 0 0 0-.07.19l-.1.33h-.7v1h.7l.1.33a1.34 1.34 0 0 0 .07.18c0 .06.05.12.07.2l.14.3-.22.26-.28.3.63.68.28-.3.2-.22.28.17.18.08.17.07.3.1v.8h.9v-.8l.3-.1.16-.07.17-.08.3-.17.24.26.28.3.63-.68-.28-.3-.24-.26.16-.3c0-.07 0-.13.07-.2a1.27 1.27 0 0 0 .06-.18l.1-.33h.73zm-3.13-1a1.24 1.24 0 0 1 1 .42 1.49 1.49 0 0 1 .39 1 1.47 1.47 0 0 1-.39 1 1.25 1.25 0 0 1-1.89 0 1.47 1.47 0 0 1-.39-1 1.49 1.49 0 0 1 .39-1 1.23 1.23 0 0 1 .89-.39zm0 2.43a.8.8 0 0 0 .63-.29 1 1 0 0 0 0-1.37.82.82 0 0 0-.63-.28.8.8 0 0 0-.62.28 1 1 0 0 0 0 1.37.78.78 0 0 0 .62.32z"/></svg>
