<svg xmlns="http://www.w3.org/2000/svg" viewBox="0 0 58.42 51.25"><path d="M16.44 39.5l-11.54.04L4.88 4.6h11.55l.01 34.9z" fill="#53b8de"/><path d="M16.45 4.2h37.82v35.7H16.45z" fill="#1873b4"/><path d="M54.27.63A3.44,3.44,0,0,1,57.82,4.2V39.92a3.54,3.54,0,0,1-1,2.51,3.34,3.34,0,0,1-2.55,1.06H4.5A3.4,3.4,0,0,1,2,42.43,3.47,3.47,0,0,1,.94,39.92V4.2A3.38,3.38,0,0,1,2,1.64a3.51,3.51,0,0,1,2.5-1Zm0,3.57H4.5V39.92H54.27ZM41.83,47.06a1.57,1.57,0,0,1,1.77,1.79,1.76,1.76,0,0,1-.5,1.22,1.61,1.61,0,0,1-1.27.56H16.94a1.67,1.67,0,0,1-1.22-.56,1.71,1.71,0,0,1-.56-1.22,1.68,1.68,0,0,1,.56-1.29,1.81,1.81,0,0,1,1.22-.5Z" fill="none" stroke="#bfbfbf" stroke-miterlimit="10"/><g fill="#fff"><circle cx="6.42" cy="6.67" r="1.12"/><circle cx="10.37" cy="6.67" r="1.12"/><circle cx="14.32" cy="6.67" r="1.12"/><path d="M5.6 19.5h9.48v2.25H5.6zm0 3.97h9.48v2.25H5.6zm0 3.96h9.48v2.25H5.6zm0 3.97h9.48v2.25H5.6zm0 3.97h9.48v2.25H5.6zm0-20.44h9.48v2.25H5.6zM27.63 9.1a7.93 7.93 0 0 1 3.12.61 8.44 8.44 0 0 1 2.55 1.68A7.47 7.47 0 0 1 35.05 14a8.41 8.41 0 0 1 .64 3.28 5.84 5.84 0 0 1-.38 2.17 9.83 9.83 0 0 1-.92 1.73 12.62 12.62 0 0 1-1.09 1.42 5.06 5.06 0 0 0-.81 1.2 5.71 5.71 0 0 0-.3.81l-.56 1.68-.76 2.4H24.4l-.8-2.44-.56-1.65-.25-.8a5.06 5.06 0 0 0-.81-1.2 13.3 13.3 0 0 1-1.09-1.4 8.87 8.87 0 0 1-.94-1.73 5.74 5.74 0 0 1-.41-2.24 8.2 8.2 0 0 1 .64-3.28 7.59 7.59 0 0 1 1.74-2.57 8.09 8.09 0 0 1 2.59-1.66 8.42 8.42 0 0 1 3.14-.63zm4.56 12.2a16.37 16.37 0 0 0 1.29-1.8 4.21 4.21 0 0 0 .58-2.27 6.87 6.87 0 0 0-.48-2.57 6.12 6.12 0 0 0-1.37-2.09 6.2 6.2 0 0 0-2.05-1.37 6.55 6.55 0 0 0-2.53-.48 7 7 0 0 0-2.56.46A5.66 5.66 0 0 0 23 12.5a6.26 6.26 0 0 0-1.88 4.68 4.25 4.25 0 0 0 .56 2.24A15.25 15.25 0 0 0 23 21.2a8.13 8.13 0 0 1 .71.92 9.1 9.1 0 0 1 .56 1 .19.19 0 0 0 .05.12 2.94 2.94 0 0 1 .15.46 13.38 13.38 0 0 0 .38 1.15l.73 2.2h4.1l.73-2.2.4-1.15.17-.48a.32.32 0 0 0 0-.22l.54-.86c.2-.27.46-.53.65-.84zm-1.67 8.15a.7.7 0 0 1 .53.23.8.8 0 0 1 .23.58v1.63a.82.82 0 0 1-.23.59.74.74 0 0 1-.53.23H24.7c-.47 0-.7-.28-.7-.82v-1.63c0-.54.24-.8.7-.8zm-6.13 4.07h6.48l-.5.5a4 4 0 0 1-5.52 0zm4-1.63q.7 0 .7-.8c0-.55-.23-.82-.7-.82s-.68.27-.68.82.2.8.65.8zm18.96-2.35a.62.62 0 0 1 .47.2.73.73 0 0 1 .19.52v1.45a.72.72 0 0 1-.19.51.57.57 0 0 1-.47.22h-.58l-.12.34-.13.3.4.46a.69.69 0 0 1 .19.51.72.72 0 0 1-.19.51l-1 1a.59.59 0 0 1-.45.2.66.66 0 0 1-.48-.2l-.4-.48a1.64 1.64 0 0 1-.29.16l-.3.14V36a.76.76 0 0 1-.18.51.64.64 0 0 1-.48.22h-1.27a.64.64 0 0 1-.48-.22.76.76 0 0 1-.18-.51v-.63l-.3-.14a2.09 2.09 0 0 1-.29-.16l-.4.48a.66.66 0 0 1-.48.2.59.59 0 0 1-.45-.2l-1-1a.72.72 0 0 1-.19-.51.69.69 0 0 1 .19-.51l.4-.46c0-.1-.1-.2-.14-.3a3.38 3.38 0 0 1-.11-.34h-.58a.57.57 0 0 1-.47-.22.72.72 0 0 1-.19-.51v-1.45a.73.73 0 0 1 .19-.52.62.62 0 0 1 .47-.2h.58a2.72 2.72 0 0 1 .11-.34c0-.1.1-.2.14-.32l-.4-.45a.78.78 0 0 1-.19-.52.68.68 0 0 1 .19-.5l1-1a.57.57 0 0 1 .45-.21.63.63 0 0 1 .48.21l.4.45.3-.15a1.43 1.43 0 0 1 .31-.12v-.64a.77.77 0 0 1 .18-.52.66.66 0 0 1 .48-.2h1.32a.66.66 0 0 1 .48.2.77.77 0 0 1 .18.52v.64a1.43 1.43 0 0 1 .31.12l.3.15.4-.45a.63.63 0 0 1 .48-.21.57.57 0 0 1 .45.21l1 1a.68.68 0 0 1 .19.5.78.78 0 0 1-.19.52l-.4.45.13.32c0 .1.08.22.12.34zm0 .72h-1.08l-.14-.5-.13-.28-.12-.28-.22-.45.35-.4.4-.45-.93-1-.4.45-.35.36-.44-.22-.25-.13-.24-.1-.46-.18V25.9h-1.28v1.16l-.46.18-.25.1a2.1 2.1 0 0 0-.26.13l-.42.22-.35-.36-.4-.45-.93 1 .4.45.33.4-.2.45-.12.28-.1.28-.16.5H38.1v1.45h1.06l.16.5.1.27.12.27.2.48-.33.4-.4.45.93 1 .4-.46.35-.38.42.25a2.06 2.06 0 0 0 .26.12l.25.1.46.16v1.18h1.32V34.9l.46-.16.24-.1a1.92 1.92 0 0 0 .25-.12l.44-.25.35.38.4.46.93-1-.4-.45-.35-.4.22-.48.12-.27.1-.27.14-.5h1.08zm-4.63-1.45a1.83 1.83 0 0 1 1.41.64 2.37 2.37 0 0 1 0 3.08 1.86 1.86 0 0 1-1.41.63 1.82 1.82 0 0 1-1.4-.63 2.33 2.33 0 0 1 0-3.08 1.8 1.8 0 0 1 1.4-.64zm0 3.63a1.24 1.24 0 0 0 .93-.43 1.53 1.53 0 0 0 0-2 1.22 1.22 0 0 0-1.86 0 1.53 1.53 0 0 0 0 2 1.24 1.24 0 0 0 .93.43zm8.48-13.17a.45.45 0 0 1 .33.14.52.52 0 0 1 .12.36v1a.5.5 0 0 1-.12.34.43.43 0 0 1-.33.15h-.4c0 .08 0 .16-.08.23l-.1.22.28.3a.49.49 0 0 1 .13.35.45.45 0 0 1-.13.34l-.64.7a.43.43 0 0 1-.31.14.42.42 0 0 1-.32-.14l-.28-.32-.4.2v.43a.5.5 0 0 1-.12.34.43.43 0 0 1-.33.15h-.9a.43.43 0 0 1-.33-.15.5.5 0 0 1-.12-.34v-.43l-.16-.1-.2-.1-.28.32a.42.42 0 0 1-.32.14.41.41 0 0 1-.31-.14l-.64-.7a.45.45 0 0 1-.13-.34.49.49 0 0 1 .08-.34l.28-.3a1.47 1.47 0 0 0-.1-.22 1.55 1.55 0 0 1-.07-.23h-.4a.41.41 0 0 1-.33-.15.5.5 0 0 1-.12-.34v-1a.52.52 0 0 1 .12-.36.44.44 0 0 1 .33-.14h.4a1.55 1.55 0 0 1 .07-.23 2 2 0 0 0 .1-.21l-.28-.3a.51.51 0 0 1-.13-.35.45.45 0 0 1 .13-.34l.64-.7a.41.41 0 0 1 .31-.14.42.42 0 0 1 .32.14l.28.3.2-.1a.66.66 0 0 1 .21-.08v-.43a.52.52 0 0 1 .12-.36.45.45 0 0 1 .33-.14h.9a.45.45 0 0 1 .33.14.52.52 0 0 1 .12.36v.43a.66.66 0 0 1 .21.08l.2.1.28-.3A.42.42 0 0 1 50 17a.43.43 0 0 1 .31.14l.64.7a.45.45 0 0 1 .13.34.51.51 0 0 1-.13.35l-.28.3.1.2c0 .07.05.15.08.23zm0 .5h-.73l-.1-.34a1.46 1.46 0 0 0-.07-.19c0-.07 0-.14-.07-.2l-.16-.3.24-.27.28-.3-.6-.7-.28.3-.24.25-.5-.25-.17-.07-.3-.12v-.78h-.9v.78l-.5.2a.91.91 0 0 0-.17.09l-.28.15-.24-.25-.28-.3-.63.7.28.3.22.27-.14.3c0 .06-.05.13-.08.2l-.06.2-.1.34h-.7v1h.7l.1.34.06.18c0 .06.05.12.08.2l.14.32-.24.2-.28.3.63.7.28-.3.24-.26.28.17.17.08.18.07.3.1v.8h.9v-.8l.3-.1.17-.07.17-.08.3-.17.24.26.32.3.63-.7-.32-.3-.24-.26.16-.32c0-.07.05-.13.07-.2a1.34 1.34 0 0 0 .07-.18l.1-.34h.73zm-3.14-1a1.27 1.27 0 0 1 1 .43 1.52 1.52 0 0 1 .39 1.05 1.49 1.49 0 0 1-.39 1 1.28 1.28 0 0 1-1.91 0 1.49 1.49 0 0 1-.39-1 1.52 1.52 0 0 1 .39-1.05 1.26 1.26 0 0 1 .91-.42zm0 2.46a.82.82 0 0 0 .63-.29 1 1 0 0 0 .27-.69 1 1 0 0 0-.27-.69.8.8 0 0 0-.63-.3.82.82 0 0 0-.63.3 1 1 0 0 0-.26.69 1 1 0 0 0 .26.69.85.85 0 0 0 .63.3z"/></g></svg>