<svg xmlns="http://www.w3.org/2000/svg" viewBox="0 0 179 50">
  <path d="M146.32 31.59c0 4.07 3.09 6.35 8.06 6.35 4.36 0 7.91-1.49 7.91-5.63 0-3.41-2.54-4.21-5.63-5.15-2.98-.91-4.46-1.2-4.46-2.47 0-1.05.94-1.56 2.07-1.56 1.52 0 2.29.83 2.29 2.29h5.48c0-3.34-2.47-5.92-7.55-5.92-4.72 0-7.73 1.71-7.73 5.33 0 3.38 2.54 4.14 5.41 5.12 3.3 1.13 4.68 1.27 4.68 2.61 0 1.16-.94 1.63-2.29 1.63-1.63 0-2.79-.73-2.79-2.58l-5.45-.02zm-11.65-8.17c2.1 0 3.59 1.34 3.59 3.59H131c0-2.35 1.56-3.59 3.67-3.59m3.37 8.53c-.4 1.13-1.31 2-3.23 2-2.83 0-3.81-1.78-3.81-3.88h12.52c.18-1.05.18-1.85.18-2.58 0-4.28-3.52-7.98-9-7.98-6.06 0-9.29 4.1-9.29 9.22 0 5.15 3.3 9.22 9.44 9.22 5.01 0 8.06-2.69 8.64-5.99h-5.45zm-21.78-9.47c-.83-1.6-3.08-2.94-5.33-2.94-5.04 0-8.53 3.96-8.53 9.18 0 5.23 3.48 9.18 8.53 9.18 2.25 0 4.5-1.31 5.33-2.9v2.47h5.55V12.06h-5.55v10.42zm-4.17 10.7c-2.5 0-4.17-2.03-4.17-4.46 0-2.4 1.67-4.46 4.17-4.46 2.51 0 4.17 2.07 4.17 4.46 0 2.43-1.66 4.46-4.17 4.46m-18.87-10.7c-.83-1.6-3.08-2.94-5.34-2.94-5.04 0-8.53 3.96-8.53 9.18 0 5.23 3.48 9.18 8.53 9.18 2.25 0 4.5-1.31 5.34-2.9v2.47h5.55v-17.5h-5.55v2.51zm-4.18 10.7c-2.5 0-4.17-2.03-4.17-4.46 0-2.4 1.67-4.46 4.17-4.46s4.17 2.07 4.17 4.46c.01 2.43-1.66 4.46-4.17 4.46M58.92 19.97l7.8 17.49h4.43l7.91-17.49h-5.81l-4.28 11-4.25-11h-5.8zm-8.38 2.51c-.83-1.6-3.08-2.94-5.33-2.94-5.05 0-8.53 3.96-8.53 9.18 0 5.23 3.48 9.18 8.53 9.18 2.25 0 4.5-1.31 5.33-2.9v2.47h5.55V12.06h-5.55v10.42zm-4.18 10.7c-2.5 0-4.17-2.03-4.17-4.46 0-2.4 1.67-4.46 4.17-4.46 2.51 0 4.17 2.07 4.17 4.46.01 2.43-1.66 4.46-4.17 4.46m-18.83-10.7c-.84-1.6-3.09-2.94-5.34-2.94-5.05 0-8.53 3.96-8.53 9.18 0 5.23 3.48 9.18 8.53 9.18 2.25 0 4.5-1.31 5.34-2.9v2.47h5.55v-17.5h-5.55v2.51zm-4.17 10.7c-2.5 0-4.17-2.03-4.17-4.46 0-2.4 1.67-4.46 4.17-4.46s4.17 2.07 4.17 4.46c0 2.43-1.67 4.46-4.17 4.46" style="fill:#13a538"/>
</svg>