<svg xmlns="http://www.w3.org/2000/svg" width="42.577" height="44" viewBox="0 0 42.577 44">
    <defs>
        <style>
            .prefix__cls-1{fill:#fff}
        </style>
    </defs>
    <g id="prefix__Group_20" data-name="Group 20" transform="translate(707.035 306.024)">
        <path id="prefix__Path_25" d="M-360.662-200.53l-.556-.737.238-.819 1.589 1.8-.715.819-.874-.082.794-.819-.477-.164" class="prefix__cls-1" data-name="Path 25" transform="translate(-311.74 -93.695)"/>
        <path id="prefix__Path_26" d="M-369.847-188.3l-.238-.737.318-.574.4.656-.477.655" class="prefix__cls-1" data-name="Path 26" transform="translate(-303.746 -104.938)"/>
        <path id="prefix__Path_27" d="M-374-172.154a7.716 7.716 0 0 1 .4.819 6.341 6.341 0 0 0 .318.9l-.794.737-1.271-.246-.4 1.393-1.589-.737.953-1.475h1.986v-1.065l.4-.328" class="prefix__cls-1" data-name="Path 27" transform="translate(-297.206 -120.678)"/>
        <path id="prefix__Path_28" d="M-340.259-135.568h.715l-.079.656-.635-.656" class="prefix__cls-1" data-name="Path 28" transform="translate(-330.633 -153.659)"/>
        <path id="prefix__Path_29" d="M-621.812-215.13l1.589 1.393v3.032l-3.892 4.015a1.3 1.3 0 0 1-.159.492l-.556 2.458-.079 1.065a.258.258 0 0 0 .079.164v.164l-.318.328a.581.581 0 0 0-.4.082l-1.668-3.851a12.275 12.275 0 0 1-.4-2.212c-.079-.819-.238-1.8-.4-2.868l-2.383-2.13 2.145-2.622-.953-1.229a5.031 5.031 0 0 1-3.575-1.475l-.556-.41-.556-.737.953 1.721-.635.246-1.271-2.54.238-2.212-.477-1.721-1.509-.983-.318-.983a2.859 2.859 0 0 1 .715-1.393 16.786 16.786 0 0 1 1.668-1.721 14.419 14.419 0 0 1 1.827-1.475 3.321 3.321 0 0 1 1.43-.656 3.109 3.109 0 0 1 1.668.574 3.152 3.152 0 0 0 1.509.574.365.365 0 0 0-.079.246.453.453 0 0 0 .238.41l-1.35 3.114 1.668.41 1.35-1.393 2.3.164.556 1.311-1.35 1.475v.9l.715.082.477-.655 1.43-1.065v.737l.715 1.065-.794.819.477.41-1.033.082.4.819-2.145 1.147.318 1.475h-.635l-.318-1.475h-1.744l-.238.492-.794-.328-1.033 1.229.874.983-.079 1.147 1.033.737 5.322.574" class="prefix__cls-1" data-name="Path 29" transform="translate(-63.219 -67.46)"/>
        <path id="prefix__Path_30" d="M-401.391-126.093a2.322 2.322 0 0 1 1.191 1.885c.08.9.159 1.721.159 2.376a13.214 13.214 0 0 1-1.271 5.817c-.794 1.8-1.589 3.523-2.383 5.244-.159 0-.238-.164-.238-.655a15.241 15.241 0 0 1 .238-2.212 17.467 17.467 0 0 0 .238-2.868v-.737l-.159-.737-1.191-1.966-3.177-.819-.794-1.8.556-2.786a12.554 12.554 0 0 0 1.509-.328 7.483 7.483 0 0 0 1.986-.737.659.659 0 0 0 .477.164h.477c.159 0 .4-.082.635-.082a3.455 3.455 0 0 1 .874.082 3.284 3.284 0 0 1 .874.164" class="prefix__cls-1" data-name="Path 30" transform="translate(-268.866 -161.905)"/>
        <path id="prefix__Path_31" d="M-484.007-248.114c.635-.574 1.271-1.147 1.906-1.639.635-.41 1.35-.9 2.145-1.393a9.7 9.7 0 0 0 1.906 1.475 2.958 2.958 0 0 0-.794.492 6.59 6.59 0 0 0-.953 1.065l-1.43 2.54-.794.492c-.318 0-.556-.246-.794-.819-.159-.492-.238-.737-.238-.656a1.654 1.654 0 0 0-.953.246 1.033 1.033 0 0 0-.794-.246h-.318a.342.342 0 0 1-.238.082c.4-.492.874-1.065 1.35-1.639" class="prefix__cls-1" data-name="Path 31" transform="translate(-199.834 -49.47)"/>
        <path id="prefix__Path_32" d="M-391.7-215.825l-.953.164.4-1.393h.953l.159.656-.556.574" class="prefix__cls-1" data-name="Path 32" transform="translate(-283.4 -80.203)"/>
        <path id="prefix__Path_33" d="M-666.126-292.586a21.419 21.419 0 0 0-4.607-7.047 21.892 21.892 0 0 0-6.752-4.67 20.479 20.479 0 0 0-8.261-1.721 20.577 20.577 0 0 0-8.341 1.721 20.991 20.991 0 0 0-6.752 4.67 22.111 22.111 0 0 0-4.528 7.047 22.286 22.286 0 0 0-1.668 8.521 21.808 21.808 0 0 0 1.668 8.6 21.733 21.733 0 0 0 4.528 6.965 20.813 20.813 0 0 0 6.752 4.752 21.137 21.137 0 0 0 8.341 1.721 19.936 19.936 0 0 0 8.261-1.721 21.211 21.211 0 0 0 6.752-4.752 21.518 21.518 0 0 0 4.607-6.965 22.394 22.394 0 0 0 1.668-8.6 21.692 21.692 0 0 0-1.668-8.521zm-2.462 16.06a22.609 22.609 0 0 1-3.972 6.063 18.865 18.865 0 0 1-5.958 4.179 18.133 18.133 0 0 1-7.228 1.475 17.587 17.587 0 0 1-7.229-1.475 19.745 19.745 0 0 1-5.958-4.179 20.352 20.352 0 0 1-3.972-6.063 20.16 20.16 0 0 1-1.43-7.538 19.438 19.438 0 0 1 1.43-7.456 20.29 20.29 0 0 1 3.972-6.063 18.865 18.865 0 0 1 5.958-4.179 17.857 17.857 0 0 1 7.229-1.475 17.857 17.857 0 0 1 7.228 1.475 19.743 19.743 0 0 1 5.958 4.179 19.366 19.366 0 0 1 3.972 6.063 19.741 19.741 0 0 1 1.43 7.456 19.555 19.555 0 0 1-1.431 7.537z" class="prefix__cls-1" data-name="Path 33"/>
    </g>
</svg>
