<svg height="13.504" viewBox="0 0 18 13.504" width="18" xmlns="http://www.w3.org/2000/svg"><path d="m453.654 390.592a4.328 4.328 0 0 0 -.715-1.907 2.483 2.483 0 0 0 -1.8-.812c-2.519-.2-6.3-.2-6.3-.2h-.008s-3.778 0-6.3.2a2.484 2.484 0 0 0 -1.8.812 4.336 4.336 0 0 0 -.715 1.907 30.935 30.935 0 0 0 -.18 3.107v1.456a30.923 30.923 0 0 0 .18 3.108 4.319 4.319 0 0 0 .715 1.905 2.943 2.943 0 0 0 1.985.821c1.44.147 6.12.193 6.12.193s3.782-.007 6.3-.2a2.494 2.494 0 0 0 1.8-.814 4.327 4.327 0 0 0 .715-1.905 30.933 30.933 0 0 0 .18-3.108v-1.455a30.933 30.933 0 0 0 -.177-3.108zm-11.068 7.214v-6.752l5.627 3.376z" fill="#141212" opacity=".5" transform="translate(-435.834 -387.678)"/></svg>