<svg xmlns="http://www.w3.org/2000/svg" width="35.289" height="44" viewBox="0 0 35.289 44">
    <path id="prefix__Path_34" d="M-612.822-256.739l-29.923-20.546a3.073 3.073 0 0 0-1.546-.469 2.9 2.9 0 0 0-2.183.844 3.1 3.1 0 0 0-.91 2.252v37.714a3.388 3.388 0 0 0 .91 2.345 3.2 3.2 0 0 0 2.183.844 4.176 4.176 0 0 0 1.546-.375l29.923-19.983a1.426 1.426 0 0 0 .728-1.313 1.507 1.507 0 0 0-.728-1.313zm-28.468 14.166v-26.175l19.373 13.322z" data-name="Path 34" transform="translate(647.384 277.754)" style="fill:#fff"/>
</svg>
