<svg xmlns="http://www.w3.org/2000/svg" width="44" height="35.804" viewBox="0 0 44 35.804">
    <path id="prefix__Path_36" d="M64.1 68.242a18.25 18.25 0 0 1-5.184 1.427 9.059 9.059 0 0 0 3.972-5 17.937 17.937 0 0 1-5.734 2.191 9.024 9.024 0 0 0-15.618 6.172 8.838 8.838 0 0 0 .233 2.061 25.583 25.583 0 0 1-18.611-9.443 9.053 9.053 0 0 0 2.8 12.065 8.811 8.811 0 0 1-4.093-1.128v.113a9.035 9.035 0 0 0 7.245 8.858 9.087 9.087 0 0 1-2.378.317 8.516 8.516 0 0 1-1.7-.168 9.042 9.042 0 0 0 8.438 6.275 18.1 18.1 0 0 1-11.217 3.869 18.3 18.3 0 0 1-2.153-.131 25.287 25.287 0 0 0 13.828 4.08c16.615 0 25.7-13.772 25.7-25.716 0-.392-.009-.783-.028-1.165a18.529 18.529 0 0 0 4.5-4.677z" data-name="Path 36" transform="translate(-20.1 -64)" style="fill:#fff"/>
</svg>
