<svg enable-background="new 0 0 18 20" viewBox="0 0 18 20" xmlns="http://www.w3.org/2000/svg"><path d="m9 1.1c1.2 0 2.4.2 3.5.7s2 1.1 2.9 1.9 1.5 1.8 1.9 2.9.7 2.3.7 3.5-.2 2.4-.7 3.5-1.1 2-1.9 2.9-1.8 1.5-2.9 1.9-2.3.7-3.5.7-2.4-.2-3.5-.7-2.1-1.1-2.9-1.9-1.4-1.8-1.9-2.9c-.5-1.1-.7-2.2-.7-3.5s.2-2.4.7-3.5 1.1-2.1 1.9-2.9 1.8-1.4 2.9-1.9c1.1-.4 2.3-.7 3.5-.7zm0 16.9c1.1 0 2.1-.2 3.1-.6s1.8-1 2.5-1.7 1.3-1.6 1.7-2.5.6-2 .6-3.1-.2-2.1-.6-3-1-1.8-1.7-2.5-1.6-1.3-2.5-1.7-2-.6-3.1-.6-2.1.2-3.1.6-1.8 1-2.5 1.7-1.3 1.5-1.7 2.5-.6 2-.6 3.1.2 2.1.6 3.1 1 1.8 1.7 2.5c.7.6 1.6 1.2 2.5 1.6s2 .6 3.1.6zm.3-7.3.7.6v1.3l-1.7 1.6-.1.2-.2 1v.4.1.1l-.1.1c-.1 0-.2 0-.2 0l-.7-1.5c-.1-.3-.1-.6-.2-.9s-.1-.7-.2-1.2l-1-.9.9-1.1-.3-.5c-.6 0-1.1-.2-1.5-.6l-.3-.2-.2-.3.4.7-.3.1-.5-1 .1-.9-.2-.7-.6-.4-.2-.4c0-.1.1-.3.3-.6.2-.2.5-.5.7-.7.3-.2.5-.4.8-.6s.5-.3.6-.3c.2 0 .4.1.7.2s.5.2.7.2v.1c0 .1 0 .2.1.2l-.6 1.4.7.1.6-.6 1 .1.2.5-.6.6v.4h.3l.2-.3.6-.4v.3l.3.5-.4.3.2.2h-.5l.2.4-.8.4.1.6h-.3l-.1-.6h-.8l-.1.2-.3-.1-.4.5.4.4v.5l.3.3zm.5-6.1c.3-.3.5-.5.8-.7s.6-.4.9-.6c.3.3.6.5.8.6-.1.1-.2.1-.3.2s-.2.2-.4.4l-.6 1-.3.2c-.1 0-.3-.1-.3-.3s-.1-.3-.1-.3c-.2 0-.3 0-.4.1-.2 0-.3 0-.4 0h-.1-.1c.1-.2.3-.4.5-.6zm5.7 3.9c.3.1.5.4.5.8s.1.7.1 1c0 .9-.2 1.7-.5 2.4s-.7 1.4-1 2.1c-.1 0-.1-.1-.1-.2 0-.2 0-.5.1-.9s.1-.8.1-1.2v-.3l-.1-.3-.5-.9-1.3-.3-.4-.7.2-1.2c.2 0 .4-.1.6-.1s.5-.1.9-.3c0 0 .1.1.2.1s.1 0 .2 0 .2 0 .3 0h.4s.2 0 .3 0zm-2-3.3-.4.1.1-.6h.4l.1.3zm1.7 1.3c0 .1.1.2.1.3s.1.2.1.4l-.3.3-.5-.1-.2.6-.7-.3.4-.6h.9v-.4zm-1.1-.2-.1-.3.1-.2.2.3zm.5-.4-.2-.3.1-.3.7.7-.3.3h-.4l.3-.3zm.7 2.1h.3v.3z" fill="#ffa42c"/></svg>