<svg xmlns="http://www.w3.org/2000/svg" viewBox="0 0 80 80">
    <g fill="#ffa42c" >
        <path d="M70.1,6.7c2.6-0.1,4.7,1.9,4.8,4.4c0,0.1,0,0.3,0,0.4v62.7c0.1,2.6-1.9,4.7-4.5,4.8c-0.1,0-0.2,0-0.4,0H12.2c-1.3,0-2.5-0.5-3.4-1.4s-1.5-2.2-1.4-3.5V11.5c0-1.3,0.5-2.6,1.4-3.5s2.1-1.4,3.4-1.4h9.6V1.8h4.8v4.8h28.9V1.8h4.8v4.8L70.1,6.7zM70.1,21.1H12.2v53H70L70.1,21.1L70.1,21.1z M21.9,40.4c-2.6-0.1-4.6-2.3-4.4-4.8c0.1-2.6,2.3-4.6,4.8-4.4c2.6,0.1,4.6,2.3,4.4,4.8c0,1.2-0.5,2.3-1.4,3.1C24.4,40,23.1,40.4,21.9,40.4z M21.9,59.7c-2.6-0.1-4.6-2.3-4.4-4.8c0.1-2.6,2.3-4.6,4.8-4.4c2.6,0.1,4.6,2.3,4.4,4.8c0,1.2-0.5,2.3-1.4,3.1C24.4,59.2,23.1,59.7,21.9,59.7z M21.9,16.3h4.8v-4.8h-4.8C21.9,11.5,21.9,16.3,21.9,16.3z M41.1,40.4c-2.6-0.1-4.6-2.3-4.4-4.8c0.1-2.6,2.3-4.6,4.8-4.4s4.6,2.3,4.4,4.8c0,1.2-0.5,2.3-1.4,3.1C43.7,40,42.4,40.4,41.1,40.4z M41.1,59.7c-2.6-0.1-4.6-2.3-4.4-4.8c0.1-2.6,2.3-4.6,4.8-4.4s4.6,2.3,4.4,4.8c0,1.2-0.5,2.3-1.4,3.1C43.7,59.2,42.4,59.7,41.1,59.7z M55.6,16.3h4.8v-4.8h-4.8V16.3z M60.4,40.4c-2.6-0.1-4.6-2.3-4.4-4.8c0.1-2.6,2.3-4.6,4.8-4.4c2.6,0.1,4.6,2.3,4.4,4.8c0,1.2-0.5,2.3-1.4,3.1C63,40,61.7,40.4,60.4,40.4z M60.4,59.7c-2.6-0.1-4.6-2.3-4.4-4.8c0.1-2.6,2.3-4.6,4.8-4.4c2.6,0.1,4.6,2.3,4.4,4.8c0,1.2-0.5,2.3-1.4,3.1C63,59.2,61.7,59.7,60.4,59.7z"></path>
    </g>
</svg>
