<svg xmlns="http://www.w3.org/2000/svg" viewBox="0 0 18 12.6">
    <g fill="#ffa42c" transform="translate(-2.072 -7.511)">
        <path d="M4.1 8.255l6.484 5.136a1.649 1.649 0 0 0 1.093.317 1.653 1.653 0 0 0 1.093-.317l6.48-5.136c.518-.41.4-.744-.258-.744H4.356c-.656 0-.777.335-.256.744z" transform="translate(-.602)"/>
        <path d="M19.116 10.65l-7.086 5.379a1.715 1.715 0 0 1-1.917 0L3.028 10.65c-.526-.4-.956-.185-.956.475v8.826a1.2 1.2 0 0 0 1.2 1.2h15.6a1.2 1.2 0 0 0 1.2-1.2v-8.826c.001-.66-.43-.874-.956-.475z" transform="translate(0 -1.04)"/>
    </g>
</svg>
