<svg xmlns="http://www.w3.org/2000/svg" width="42.577" height="44" viewBox="0 0 42.577 44">
    <defs>
        <style>
            .prefix__cls-1{fill:#fff}
        </style>
    </defs>
    <g id="prefix__Group_23" data-name="Group 23" transform="translate(797.811 152.391)">
        <g id="prefix__Group_21" data-name="Group 21" transform="translate(-797.811 -144.115)">
            <path id="prefix__Path_38" d="M-727.836-60.215a8.243 8.243 0 0 0-2.3-5.817 7.555 7.555 0 0 0-5.64-2.376 7.919 7.919 0 0 0-5.719 2.376 8.046 8.046 0 0 0-2.3 5.817 8.439 8.439 0 0 0 2.3 5.9 7.605 7.605 0 0 0 5.719 2.376 7.74 7.74 0 0 0 5.64-2.376 8.1 8.1 0 0 0 2.3-5.9zm-4.289 3.851a4.92 4.92 0 0 1-3.733 1.639 4.8 4.8 0 0 1-3.654-1.639 5.106 5.106 0 0 1-1.589-3.851 5.147 5.147 0 0 1 1.589-3.851 5.014 5.014 0 0 1 3.733-1.557 5.022 5.022 0 0 1 3.654 1.557 5.106 5.106 0 0 1 1.589 3.851 5.147 5.147 0 0 1-1.589 3.851z" class="prefix__cls-1" data-name="Path 38" transform="translate(749.124 68.409)"/>
            <path id="prefix__Path_39" d="M-771.677 105.112a9.987 9.987 0 0 0-1.668-3.605.755.755 0 0 1-.238-.41 1.128 1.128 0 0 0-.238-.328 6.062 6.062 0 0 0-2.463-1.557 8.747 8.747 0 0 0-2.86-.492h-10.644a8.179 8.179 0 0 0-3.733.819 7.725 7.725 0 0 0-2.462 2.376 9.123 9.123 0 0 0-1.43 3.523 18.463 18.463 0 0 0-.4 4.261v8.276h26.61V109.7a20.811 20.811 0 0 0-.474-4.588zm-2.223 10.078h-21.21v-5.49a20.053 20.053 0 0 1 .238-3.2 7.22 7.22 0 0 1 .794-2.622 4.354 4.354 0 0 1 1.589-1.8 4.59 4.59 0 0 1 2.7-.655h10.565a5.091 5.091 0 0 1 2.7.655 4.6 4.6 0 0 1 1.589 1.721 5.93 5.93 0 0 1 .794 2.622 21.92 21.92 0 0 1 .238 3.277z" class="prefix__cls-1" data-name="Path 39" transform="translate(797.811 -82.252)"/>
        </g>
        <g id="prefix__Group_22" data-name="Group 22" transform="translate(-773.901 -152.391)">
            <path id="prefix__Path_40" d="M-541.829-145.508a6.794 6.794 0 0 0-1.986-4.834 6.1 6.1 0 0 0-4.687-2.048 6.263 6.263 0 0 0-4.687 2.048 6.742 6.742 0 0 0-1.986 4.834 6.846 6.846 0 0 0 1.986 4.916 6.1 6.1 0 0 0 4.687 2.048 6.263 6.263 0 0 0 4.687-2.048 6.794 6.794 0 0 0 1.986-4.916zm-3.892 2.95a3.673 3.673 0 0 1-2.78 1.229 3.555 3.555 0 0 1-2.78-1.229 4.087 4.087 0 0 1-1.192-2.95 3.775 3.775 0 0 1 1.192-2.868 3.673 3.673 0 0 1 2.78-1.229 3.555 3.555 0 0 1 2.78 1.229 3.9 3.9 0 0 1 1.191 2.868 3.832 3.832 0 0 1-1.191 2.949z" class="prefix__cls-1" data-name="Path 40" transform="translate(555.174 152.391)"/>
            <path id="prefix__Path_41" d="M-536.586-5.98a14.805 14.805 0 0 0-.556-3.523 6.457 6.457 0 0 0-1.589-2.376 5.161 5.161 0 0 0-3.1-.819l-6.672.082-6.672-.082v2.786h13.345a2.182 2.182 0 0 1 1.748.655 3.314 3.314 0 0 1 .715 1.721 13.36 13.36 0 0 1 .238 2.622c-.079.983-.079 2.048-.079 3.2v2.7h-10.565V3.77h13.266v-5.49c0-1.474-.079-2.949-.079-4.26z" class="prefix__cls-1" data-name="Path 41" transform="translate(555.174 26.464)"/>
        </g>
        <path id="prefix__Path_42" d="M-493.143 70.45v2.786h-8.023V70.45h8.023" class="prefix__cls-1" data-name="Path 42" transform="translate(-267.413 -200.882)"/>
        <path id="prefix__Path_43" d="M-663.192 184.657v-2.786h8.023v2.786h-8.023" class="prefix__cls-1" data-name="Path 43" transform="translate(-121.353 -301.323)"/>
    </g>
</svg>
