<svg height="32" viewBox="0 0 132.309 32" width="132.309" xmlns="http://www.w3.org/2000/svg"><g fill="#ff5a37"><path d="m15.433 34.917a16.531 16.531 0 0 1 -5.64-.87 9.811 9.811 0 0 1 -6.259-6.447 16.96 16.96 0 0 1 -.744-5.209v-19.391h6.9v19.221a8.628 8.628 0 0 0 1.374 5.261 5.231 5.231 0 0 0 4.471 1.818 5.115 5.115 0 0 0 4.39-1.823 8.656 8.656 0 0 0 1.349-5.259v-19.218h6.776v19.345a17.164 17.164 0 0 1 -.744 5.23 10.238 10.238 0 0 1 -2.282 3.965 10.015 10.015 0 0 1 -3.935 2.511 16.336 16.336 0 0 1 -5.656.866z" transform="translate(-2.79 -3)"/><path d="m241.91 34.4v-31.4h6.855v31.4z" transform="translate(-210.387 -3)"/><path d="m337.772 35a18.163 18.163 0 0 1 -6.723-1.129 16.773 16.773 0 0 1 -4.988-3.04l3.471-4.536a12.968 12.968 0 0 0 3.559 2.3 10.41 10.41 0 0 0 4.266.911q3.119 0 4.535-1.564a5.707 5.707 0 0 0 1.415-3.986 5.953 5.953 0 0 0 -1.374-4.173 5.2 5.2 0 0 0 -4.038-1.5 6.57 6.57 0 0 0 -3.068.756 8.6 8.6 0 0 0 -2.675 2.247l-4.441-1.388 1.261-16.898h19l-.351 5.22h-13.36l-.6 6.959a7.028 7.028 0 0 1 2.354-1.356 13.028 13.028 0 0 1 8.357.2 9.041 9.041 0 0 1 3.2 2.164 8.947 8.947 0 0 1 1.942 3.3 13.131 13.131 0 0 1 .651 4.23 11.988 11.988 0 0 1 -.846 4.577 9.958 9.958 0 0 1 -2.448 3.569 11.2 11.2 0 0 1 -3.914 2.32 15.629 15.629 0 0 1 -5.185.817z" transform="translate(-283.443 -3)"/></g><path d="m539.443 100.124a9.077 9.077 0 0 1 -3.509-.7 8.548 8.548 0 0 1 -2.975-2.069 10.161 10.161 0 0 1 -2.063-3.423 13.455 13.455 0 0 1 -.775-4.772 13.174 13.174 0 0 1 .833-4.928 9.663 9.663 0 0 1 2.21-3.4 8.876 8.876 0 0 1 3.1-1.973 9.893 9.893 0 0 1 3.47-.641 9.057 9.057 0 0 1 3.093.476 7.858 7.858 0 0 1 2.306 1.291 7.626 7.626 0 0 1 1.668 1.9 16.17 16.17 0 0 1 1.154 2.226l-2.908 1.205a7.5 7.5 0 0 0 -2.064-3.11 5 5 0 0 0 -3.325-1.069 6.052 6.052 0 0 0 -2.229.418 5.206 5.206 0 0 0 -1.939 1.371 6.956 6.956 0 0 0 -1.4 2.488 11.778 11.778 0 0 0 -.527 3.751 9.419 9.419 0 0 0 1.668 6 5.3 5.3 0 0 0 4.343 2.09 5.416 5.416 0 0 0 3.3-.953 8.024 8.024 0 0 0 2.316-3.266l2.837 1.108a13.977 13.977 0 0 1 -1.4 2.427 9.016 9.016 0 0 1 -1.822 1.885 8.127 8.127 0 0 1 -2.336 1.235 9.385 9.385 0 0 1 -3.026.433z" fill="#ffa42c" transform="translate(-460.602 -68.278)"/><path d="m698.686 100.115a9.922 9.922 0 0 1 -3.674-.7 8.923 8.923 0 0 1 -3.115-2.069 10.139 10.139 0 0 1 -2.162-3.421 12.866 12.866 0 0 1 -.815-4.772 13.1 13.1 0 0 1 .791-4.758 9.911 9.911 0 0 1 2.142-3.421 8.925 8.925 0 0 1 3.127-2.067 10.027 10.027 0 0 1 3.706-.7 9.927 9.927 0 0 1 3.674.7 8.929 8.929 0 0 1 3.122 2.07 9.917 9.917 0 0 1 2.148 3.415 14.748 14.748 0 0 1 0 9.53 9.918 9.918 0 0 1 -2.142 3.423 8.927 8.927 0 0 1 -3.122 2.07 9.924 9.924 0 0 1 -3.68.7zm0-2.916a5.946 5.946 0 0 0 2.646-.574 5.555 5.555 0 0 0 1.987-1.632 7.41 7.41 0 0 0 1.231-2.556 12.214 12.214 0 0 0 .423-3.285 11.61 11.61 0 0 0 -.4-3.081 8.085 8.085 0 0 0 -1.173-2.546 5.568 5.568 0 0 0 -1.968-1.73 5.774 5.774 0 0 0 -2.75-.632 6.039 6.039 0 0 0 -2.685.574 5.558 5.558 0 0 0 -1.987 1.632 7.427 7.427 0 0 0 -1.231 2.527 11.887 11.887 0 0 0 -.41 3.256 12.067 12.067 0 0 0 .4 3.148 7.69 7.69 0 0 0 1.173 2.546 5.643 5.643 0 0 0 4.746 2.351z" fill="#ffa42c" transform="translate(-598.467 -68.269)"/><path d="m873.63 99.632v-21.016h3.451v3.13a17.2 17.2 0 0 1 1.512-1.3 12.282 12.282 0 0 1 1.822-1.157 10.317 10.317 0 0 1 2.122-.817 9.29 9.29 0 0 1 2.394-.3 6.11 6.11 0 0 1 4.614 1.652 6.428 6.428 0 0 1 1.59 4.646v15.158h-3.412v-14.407a4.461 4.461 0 0 0 -.923-3.11 3.825 3.825 0 0 0 -2.937-.991 6.986 6.986 0 0 0 -3.509.913 17.643 17.643 0 0 0 -3.276 2.469v15.13z" fill="#ffa42c" transform="translate(-758.827 -68.233)"/></svg>