<svg xmlns="http://www.w3.org/2000/svg" viewBox="0 0 18 14.628">
    <path d="M21.574 12.058a7.348 7.348 0 0 1-2.121.581 3.7 3.7 0 0 0 1.624-2.039 7.392 7.392 0 0 1-2.345.9 3.7 3.7 0 0 0-6.292 3.368A10.485 10.485 0 0 1 4.827 11a3.7 3.7 0 0 0 1.143 4.932 3.682 3.682 0 0 1-1.67-.462v.047a3.7 3.7 0 0 0 2.96 3.621 3.713 3.713 0 0 1-.973.129 3.659 3.659 0 0 1-.695-.066 3.7 3.7 0 0 0 3.45 2.565 7.452 7.452 0 0 1-5.467 1.529 10.5 10.5 0 0 0 16.168-8.848q0-.24-.01-.478a7.479 7.479 0 0 0 1.841-1.911z" fill="#ffa42c" transform="translate(-3.574 -10.326)"/>
</svg>
