<?xml version="1.0" encoding="UTF-8"?><svg id="Ebene_1" xmlns="http://www.w3.org/2000/svg" viewBox="0 0 244.1 141.73"><defs><style>.cls-1{fill:#009899;}.cls-2{fill:#fff;}.cls-3{fill:#1d1d1b;}</style></defs><rect class="cls-1" x="102.36" width="141.73" height="141.73"/><path class="cls-3" d="M38.62,81.05c-1.23-.69-2.74-1.36-4.55-2.01-1.9-.52-3.82-.81-5.77-.86-5.21,.05-9.42,1.76-12.63,5.14-3.29,3.38-4.95,8.03-5,13.97,.05,6.13,1.83,10.88,5.35,14.26,3.4,3.45,7.59,5.17,12.57,5.17,3.93-.05,7.28-.91,10.03-2.59l2.78,6.36c-1.53,.93-3.5,1.74-5.9,2.42-2.41,.69-4.85,1.06-7.33,1.11-8.73-.12-15.56-2.71-20.49-7.78C2.6,111.24,.05,104.88,0,97.14c.05-7.29,2.58-13.45,7.61-18.49,4.98-5.09,11.88-7.68,20.7-7.78,2.66,0,5.13,.39,7.4,1.18,2.34,.76,4.35,1.69,6.04,2.78l-3.13,6.22Zm32.06,42.97c-7.69-.12-13.71-2.77-18.06-7.96-4.47-5.09-6.73-11.54-6.77-19.35,.05-7.38,2.42-13.5,7.12-18.35,4.56-4.9,10.46-7.39,17.7-7.49,7.29,.1,13.21,2.59,17.77,7.49,4.58,4.85,6.93,10.97,7.04,18.35-.05,7.81-2.25,14.26-6.62,19.35-4.39,5.18-10.45,7.84-18.17,7.96Zm0-7.31c5.21-.1,8.87-2.2,11-6.32,2.08-3.97,3.12-8.54,3.12-13.68s-1.09-9.25-3.26-12.89c-2.31-3.66-5.93-5.54-10.86-5.64-4.93,.1-8.5,1.98-10.72,5.64-2.34,3.64-3.48,7.94-3.44,12.89-.05,5.15,1.02,9.71,3.19,13.68,2.2,4.12,5.85,6.23,10.97,6.32Z"/><path class="cls-2" d="M146.17,123.12h-7.22c-9.54-11.54-19.03-23.82-28.48-36.83h-.14v36.83h-8.02v-51.36h7.33c9.54,11.45,19,23.66,28.37,36.62h.14v-36.62h8.02v51.36Zm40.46-44.48h-16.73v14.13h16.38v6.87h-16.38v16.6h19.79v6.88h-30.1v-51.36h27.05v6.88Zm22.91,44.48v-44.48h-15.36v-6.88h41.05v6.88h-15.37v44.48h-10.32Z"/></svg>