<svg xmlns="http://www.w3.org/2000/svg" viewBox="0 0 304.12 240.11"><style>.B{fill:#eff4f8}.C{fill:#bbcfe7}.D{fill:#fff}.E{fill:#1975b6}.F{fill:#d9d9d9}</style><path d="M0 119.78h152.2v120.1H0z" fill="#d5e3f0"/><path class="B" d="M151.93 120.1h152.2V240.1h-152.2z"/><path class="C" d="M151.93 0h152.2v120.02h-152.2z"/><path class="D" d="M26.14 78.48h19.13V97.6H26.14z"/><path class="E" d="M0 0h152.2v119.94H0z"/><path class="D" d="M6.83 8.4H125.6v9.04H6.83zm.1 14.66h75.13v6.74H6.92zm114.8 67.04a4.27 4.27 0 0 1-1.33 3.22 4.43 4.43 0 0 1-3.15 1.25H54.58a4.3 4.3 0 0 1-4.48-4.47V45.33a4.31 4.31 0 0 1 4.48-4.48h62.67a4.44 4.44 0 0 1 3.15 1.26 4.26 4.26 0 0 1 1.33 3.22zm-9 0V45.33h-49.2V90.1z"/><path class="C" d="M116.12 45.33V90.1H54.47V45.33z"/><path class="D" d="M58.05 50.42H70.5v12.44H58.05zm14.43 0h12.44v12.44H72.48z"/><path class="E" d="M86.82 50.42h21.32v12.44H86.82z"/><path class="D" d="M58.05 64.67H70.5V77.1H58.05zm14.68 0h21.32V77.1H72.73zm23.3 0h12.44V77.1H96.03z"/><path class="F" d="M42.88 66.4a4.85 4.85 0 0 1 4.78 4.78v28.7a4.61 4.61 0 0 1-1.42 3.4 4.67 4.67 0 0 1-3.36 1.38H28.53a4.68 4.68 0 0 1-3.37-1.38 4.61 4.61 0 0 1-1.42-3.4v-28.7a4.85 4.85 0 0 1 4.79-4.78zm2.4 4.78H26.14v26.3h19.13zm-9.57 31.1a1.77 1.77 0 0 0 1.3-.49 1.69 1.69 0 0 0 .52-1.31 1.79 1.79 0 0 0-2.685-1.55 1.79 1.79 0 0 0-.895 1.55 1.69 1.69 0 0 0 .52 1.31 1.77 1.77 0 0 0 1.24.49z"/><path class="D" d="M136.77 104.64a3.36 3.36 0 0 1-3.52 2.52l-39.4-4a2.34 2.34 0 0 1-1.82-1 2.46 2.46 0 0 1-.29-2.1l7-28.1A3.22 3.22 0 0 1 100 70a3.13 3.13 0 0 1 2.22-.59l39.4 4a2.4 2.4 0 0 1 2.12 3.1zm-5.63-.58l7-28.08-31-3.18-7 28.1z"/><path class="C" d="M94.48 100.3l6.97-28.1 38.76 3.98-6.97 28.1-38.76-3.98z"/><path class="E" d="M132.47 86.67l-31.5-3.23 1.93-7.8 31.5 3.23-1.93 7.8z"/><path class="E" d="M117.86 85.17l-7.82-.8 1.94-7.8 7.82.8-1.94 7.8zm14.6 1.5l-13.4-1.37 1.94-7.8 13.4 1.37-1.93 7.8z"/><path class="D" d="M106.57 93.18l-7.82-.8 1.93-7.8 7.82.8-1.93 7.8zm14.83 1.52L108 93.33l1.94-7.8 13.4 1.38-1.93 7.8zm9.05.93l-7.82-.8 1.94-7.8 7.82.8-1.94 7.8z"/><path class="E" d="M161.47 8.4h118.76v9.04H161.47z"/><path class="B" d="M161.47 23.06h93.92v6.74h-93.92zm18.6 26.24h75.32v9.04h-75.32z"/><path class="E" d="M171.56 49.3a.35.35 0 0 1 .07.47l-5.53 8.12a.36.36 0 0 1-.3.23.4.4 0 0 1-.35-.13l-3.76-4.16a.33.33 0 0 1-.11-.27.4.4 0 0 1 .14-.27l.62-.63a.35.35 0 0 1 .57 0l2.4 2.4a.43.43 0 0 0 .33.11.36.36 0 0 0 .3-.21l4.36-6.2a.39.39 0 0 1 .28-.2.46.46 0 0 1 .34.1z"/><path class="B" d="M180.07 65.78h75.32v9.04h-75.32z"/><path class="E" d="M171.56 65.78a.36.36 0 0 1 .07.48l-5.53 8.12a.35.35 0 0 1-.3.22.39.39 0 0 1-.35-.12l-3.76-4.16a.35.35 0 0 1-.11-.28.4.4 0 0 1 .14-.27l.62-.62a.35.35 0 0 1 .57 0l2.4 2.4a.43.43 0 0 0 .33.11.36.36 0 0 0 .3-.21l4.36-6.2a.34.34 0 0 1 .28-.2.39.39 0 0 1 .34.1z"/><path class="B" d="M180.07 81.2h75.32v9.04h-75.32z"/><path class="E" d="M171.56 81.2a.35.35 0 0 1 .07.47l-5.53 8.1a.35.35 0 0 1-.3.22.39.39 0 0 1-.35-.12l-3.76-4.1a.35.35 0 0 1-.11-.28.42.42 0 0 1 .14-.27l.62-.62a.35.35 0 0 1 .57 0l2.4 2.4a.43.43 0 0 0 .33.11.36.36 0 0 0 .3-.21l4.36-6.2a.34.34 0 0 1 .28-.2.39.39 0 0 1 .34.1zM5.66 134.8h118.76v9.04H5.66z"/><path class="B" d="M24.26 175.72h75.32v9.04H24.26z"/><path class="E" d="M15.75 175.72a.35.35 0 0 1 .07.47l-5.53 8.12a.36.36 0 0 1-.29.23.39.39 0 0 1-.35-.13l-3.76-4.16a.31.31 0 0 1-.12-.27.45.45 0 0 1 .14-.27l.62-.63a.36.36 0 0 1 .58 0l2.4 2.4a.39.39 0 0 0 .32.11.36.36 0 0 0 .3-.21l4.36-6.2a.4.4 0 0 1 .29-.2.45.45 0 0 1 .33.1z"/><path class="B" d="M24.26 192.2h75.32v9.04H24.26z"/><path class="E" d="M15.75 192.2a.36.36 0 0 1 .07.48l-5.53 8.1a.35.35 0 0 1-.29.22.38.38 0 0 1-.35-.12l-3.76-4.1a.33.33 0 0 1-.12-.28.45.45 0 0 1 .14-.27l.62-.62a.36.36 0 0 1 .58 0l2.4 2.4a.39.39 0 0 0 .32.11.36.36 0 0 0 .3-.21l4.36-6.2a.36.36 0 0 1 .29-.2.38.38 0 0 1 .33.1z"/><path class="B" d="M24.26 207.6h75.32v9.04H24.26z"/><path class="E" d="M15.75 207.6a.35.35 0 0 1 .07.47l-5.53 8.12a.35.35 0 0 1-.29.22.38.38 0 0 1-.35-.12l-3.76-4.16a.33.33 0 0 1-.12-.28.47.47 0 0 1 .14-.27l.62-.62a.36.36 0 0 1 .58 0l2.4 2.4a.39.39 0 0 0 .32.11.36.36 0 0 0 .3-.21l4.36-6.2a.36.36 0 0 1 .29-.2.38.38 0 0 1 .33.1z"/><path class="B" d="M5.8 152.27h93.92V159H5.8z"/><path class="E" d="M161.47 134.8h118.76v9.04H161.47z"/><path class="F" d="M160.4 175.72h95.24v9.04H160.4zm0 16.48h95.24v9.04H160.4zm0 15.4h95.24v9.04H160.4z"/><path class="E" d="M161.84 152.27h93.92V159h-93.92z"/></svg>