<svg enable-background="new 0 0 240 240" viewBox="0 0 240 240" xmlns="http://www.w3.org/2000/svg"><path d="m8 0h94c4.4 0 8 3.6 8 8v94c0 4.4-3.6 8-8 8h-94c-4.4 0-8-3.6-8-8v-94c0-4.4 3.6-8 8-8z" fill="#1875b6"/><path d="m8 130h94c4.4 0 8 3.6 8 8v94c0 4.4-3.6 8-8 8h-94c-4.4 0-8-3.6-8-8v-94c0-4.4 3.6-8 8-8z" fill="#a4eaff"/><path d="m26 154h58c1.1 0 2 .9 2 2s-.9 2-2 2h-58c-1.1 0-2-.9-2-2s.9-2 2-2z" fill="#53b8de"/><path d="m44 178h40c1.1 0 2 .9 2 2s-.9 2-2 2h-40c-1.1 0-2-.9-2-2s.9-2 2-2z" fill="#fff"/><path d="m26 162h21c1.1 0 2 .9 2 2s-.9 2-2 2h-21c-1.1 0-2-.9-2-2s.9-2 2-2z" fill="#53b8de"/><g fill="#fff"><path d="m30 184.8-5.4-5.4 2.8-2.8 2.6 2.6 4.6-4.6 2.8 2.8z"/><path d="m44 194h30c1.1 0 2 .9 2 2s-.9 2-2 2h-30c-1.1 0-2-.9-2-2s.9-2 2-2z"/><path d="m30 200.8-5.4-5.4 2.8-2.8 2.6 2.6 4.6-4.6 2.8 2.8z"/><path d="m44 210h22c1.1 0 2 .9 2 2s-.9 2-2 2h-22c-1.1 0-2-.9-2-2s.9-2 2-2z"/><path d="m30 216.8-5.4-5.4 2.8-2.8 2.6 2.6 4.6-4.6 2.8 2.8z"/></g><path d="m138 0h94c4.4 0 8 3.6 8 8v94c0 4.4-3.6 8-8 8h-94c-4.4 0-8-3.6-8-8v-94c0-4.4 3.6-8 8-8z" fill="#a4eaff"/><path d="m156 24h58c1.1 0 2 .9 2 2s-.9 2-2 2h-58c-1.1 0-2-.9-2-2s.9-2 2-2z" fill="#53b8de"/><path d="m174 48h40c1.1 0 2 .9 2 2s-.9 2-2 2h-40c-1.1 0-2-.9-2-2s.9-2 2-2z" fill="#fff"/><path d="m156 32h21c1.1 0 2 .9 2 2s-.9 2-2 2h-21c-1.1 0-2-.9-2-2s.9-2 2-2z" fill="#53b8de"/><g fill="#fff"><path d="m26 24h58c1.1 0 2 .9 2 2s-.9 2-2 2h-58c-1.1 0-2-.9-2-2s.9-2 2-2z"/><path d="m26 32h21c1.1 0 2 .9 2 2s-.9 2-2 2h-21c-1.1 0-2-.9-2-2s.9-2 2-2z"/><path d="m160 54.8-5.4-5.4 2.8-2.8 2.6 2.6 4.6-4.6 2.8 2.8z"/><path d="m174 64h30c1.1 0 2 .9 2 2s-.9 2-2 2h-30c-1.1 0-2-.9-2-2s.9-2 2-2z"/><path d="m160 70.8-5.4-5.4 2.8-2.8 2.6 2.6 4.6-4.6 2.8 2.8z"/><path d="m174 80h22c1.1 0 2 .9 2 2s-.9 2-2 2h-22c-1.1 0-2-.9-2-2s.9-2 2-2z"/><path d="m160 86.8-5.4-5.4 2.8-2.8 2.6 2.6 4.6-4.6 2.8 2.8z"/></g><path d="m138 130h94c4.4 0 8 3.6 8 8v94c0 4.4-3.6 8-8 8h-94c-4.4 0-8-3.6-8-8v-94c0-4.4 3.6-8 8-8z" fill="#53b8de"/><path d="m156 154h58c1.1 0 2 .9 2 2s-.9 2-2 2h-58c-1.1 0-2-.9-2-2s.9-2 2-2z" fill="#1875b6"/><path d="m174 178h40c1.1 0 2 .9 2 2s-.9 2-2 2h-40c-1.1 0-2-.9-2-2s.9-2 2-2z" fill="#fff"/><path d="m156 162h21c1.1 0 2 .9 2 2s-.9 2-2 2h-21c-1.1 0-2-.9-2-2s.9-2 2-2z" fill="#1875b6"/><path d="m160 184.8-5.4-5.4 2.8-2.8 2.6 2.6 4.6-4.6 2.8 2.8z" fill="#fff"/><path d="m174 194h30c1.1 0 2 .9 2 2s-.9 2-2 2h-30c-1.1 0-2-.9-2-2s.9-2 2-2z" fill="#fff"/><path d="m160 200.8-5.4-5.4 2.8-2.8 2.6 2.6 4.6-4.6 2.8 2.8z" fill="#fff"/><path d="m174 210h22c1.1 0 2 .9 2 2s-.9 2-2 2h-22c-1.1 0-2-.9-2-2s.9-2 2-2z" fill="#fff"/><path d="m160 216.8-5.4-5.4 2.8-2.8 2.6 2.6 4.6-4.6 2.8 2.8z" fill="#fff"/><path d="m27 45h56c1.7 0 3 1.3 3 3v36c0 1.7-1.3 3-3 3h-56c-1.7 0-3-1.3-3-3v-36c0-1.7 1.3-3 3-3z" fill="#53b8de"/><path d="m83 46c1.1 0 2 .9 2 2v36c0 1.1-.9 2-2 2h-56c-1.1 0-2-.9-2-2v-36c0-1.1.9-2 2-2zm0-2h-56c-2.2 0-4 1.8-4 4v36c0 2.2 1.8 4 4 4h56c2.2 0 4-1.8 4-4v-36c0-2.2-1.8-4-4-4z" fill="#fff"/><path d="m12 70h16c2.2 0 4 1.8 4 4v24c0 2.2-1.8 4-4 4h-16c-2.2 0-4-1.8-4-4v-24c0-2.2 1.8-4 4-4z" fill="#fff"/><path d="m62 70h36c2.2 0 4 1.8 4 4v24c0 2.2-1.8 4-4 4h-36c-2.2 0-4-1.8-4-4v-24c0-2.2 1.8-4 4-4z" fill="#fff"/><path d="m62 72h36c1.1 0 2 .9 2 2v24c0 1.1-.9 2-2 2h-36c-1.1 0-2-.9-2-2v-24c0-1.1.9-2 2-2z" fill="#53b8de"/><path d="m12 72h16c1.1 0 2 .9 2 2v20c0 1.1-.9 2-2 2h-16c-1.1 0-2-.9-2-2v-20c0-1.1.9-2 2-2z" fill="#53b8de"/><g fill="#fff"><path d="m31 50h8c1.1 0 2 .9 2 2v4c0 1.1-.9 2-2 2h-8c-1.1 0-2-.9-2-2v-4c0-1.1.9-2 2-2z"/><path d="m45 50h8c1.1 0 2 .9 2 2v4c0 1.1-.9 2-2 2h-8c-1.1 0-2-.9-2-2v-4c0-1.1.9-2 2-2z"/><path d="m57 60h8c1.1 0 2 .9 2 2v4c0 1.1-.9 2-2 2h-8c-1.1 0-2-.9-2-2v-4c0-1.1.9-2 2-2z"/><path d="m59 50h20c1.1 0 2 .9 2 2v4c0 1.1-.9 2-2 2h-20c-1.1 0-2-.9-2-2v-4c0-1.1.9-2 2-2z"/><path d="m31 60h20c1.1 0 2 .9 2 2v4c0 1.1-.9 2-2 2h-20c-1.1 0-2-.9-2-2v-4c0-1.1.9-2 2-2z"/><path d="m13 74h14c.6 0 1 .4 1 1v6c0 .6-.4 1-1 1h-14c-.6 0-1-.4-1-1v-6c0-.6.4-1 1-1z"/><path d="m63 74h23c.6 0 1 .4 1 1v6c0 .6-.4 1-1 1h-23c-.6 0-1-.4-1-1v-6c0-.6.4-1 1-1z"/><path d="m90 74h7c.6 0 1 .4 1 1v6c0 .6-.4 1-1 1h-7c-.6 0-1-.4-1-1v-6c0-.6.4-1 1-1z"/></g><path d="m19 98h2c.6 0 1 .4 1 1s-.4 1-1 1h-2c-.6 0-1-.4-1-1s.4-1 1-1z" fill="#53b8de"/><path d="m47 92h12c.6 0 1 .4 1 1s-.4 1-1 1h-12c-.6 0-1-.4-1-1s.4-1 1-1z" fill="#53b8de"/><path d="m59 92h-12c-.6 0-1 .4-1 1s.4 1 1 1h12c.6 0 1-.4 1-1s-.4-1-1-1z" fill="#fff"/></svg>