<svg id="Ebene_1" data-name="Ebene 1" xmlns="http://www.w3.org/2000/svg" viewBox="0 0 304.12 240.11"><defs><style>.cls-1{fill:#d5e3f0;}.cls-2{fill:#eff4f8;}.cls-3{fill:#bbcfe7;}.cls-4{fill:#fff;}.cls-5{fill:#1975b6;}.cls-6{fill:#d9d9d9;}</style></defs><title>Demo_kit_240x304,122px</title><rect class="cls-1" y="119.78" width="152.19" height="120.11"/><rect class="cls-2" x="151.93" y="120.09" width="152.19" height="120.02"/><rect class="cls-3" x="151.93" width="152.19" height="120.02"/><rect class="cls-4" x="26.14" y="78.48" width="19.13" height="19.13"/><rect class="cls-5" width="152.19" height="119.94"/><rect class="cls-4" x="6.83" y="8.4" width="118.76" height="9.04"/><rect class="cls-4" x="6.92" y="23.06" width="75.13" height="6.74"/><path class="cls-4" d="M121.73,90.32a4.27,4.27,0,0,1-1.33,3.22,4.43,4.43,0,0,1-3.15,1.25H54.58a4.3,4.3,0,0,1-4.48-4.47V45.55a4.31,4.31,0,0,1,4.48-4.48h62.67a4.44,4.44,0,0,1,3.15,1.26,4.26,4.26,0,0,1,1.33,3.22Zm-9,0V45.55H63.53V90.32Z" transform="translate(0 -0.22)"/><rect class="cls-3" x="62.92" y="37.11" width="44.77" height="61.65" transform="translate(153.23 -17.59) rotate(90)"/><rect class="cls-4" x="58.05" y="50.42" width="12.44" height="12.44"/><rect class="cls-4" x="72.48" y="50.42" width="12.44" height="12.44"/><rect class="cls-5" x="86.82" y="50.42" width="21.32" height="12.44"/><rect class="cls-4" x="58.05" y="64.67" width="12.44" height="12.44"/><rect class="cls-4" x="72.73" y="64.67" width="21.32" height="12.44"/><rect class="cls-4" x="96.03" y="64.67" width="12.44" height="12.44"/><path class="cls-6" d="M42.88,66.62a4.85,4.85,0,0,1,4.78,4.78v28.7a4.61,4.61,0,0,1-1.42,3.4,4.67,4.67,0,0,1-3.36,1.38H28.53a4.68,4.68,0,0,1-3.37-1.38,4.61,4.61,0,0,1-1.42-3.4V71.4a4.85,4.85,0,0,1,4.79-4.78Zm2.39,4.78H26.14V97.7H45.27ZM35.7,102.49A1.77,1.77,0,0,0,37,102a1.69,1.69,0,0,0,.52-1.31,1.79,1.79,0,1,0-3.58,0,1.69,1.69,0,0,0,.52,1.31A1.77,1.77,0,0,0,35.7,102.49Z" transform="translate(0 -0.22)"/><path class="cls-4" d="M136.77,104.86a3.36,3.36,0,0,1-3.52,2.52l-39.41-4a2.34,2.34,0,0,1-1.82-1,2.46,2.46,0,0,1-.29-2.1l7-28.09A3.22,3.22,0,0,1,100,70.22a3.13,3.13,0,0,1,2.22-.59l39.41,4a2.4,2.4,0,0,1,2.12,3.1Zm-5.63-.58,7-28.08-31-3.18-7,28.09Z" transform="translate(0 -0.22)"/><polygon class="cls-3" points="94.48 100.3 101.45 72.21 140.21 76.19 133.24 104.28 94.48 100.3"/><polygon class="cls-5" points="132.47 86.67 100.97 83.44 102.9 75.64 134.4 78.87 132.47 86.67"/><polygon class="cls-5" points="117.86 85.17 110.04 84.37 111.98 76.57 119.8 77.37 117.86 85.17"/><polygon class="cls-5" points="132.47 86.67 119.06 85.3 121 77.5 134.4 78.87 132.47 86.67"/><polygon class="cls-4" points="106.57 93.18 98.75 92.38 100.68 84.58 108.5 85.38 106.57 93.18"/><polygon class="cls-4" points="121.39 94.7 107.98 93.33 109.92 85.52 123.32 86.9 121.39 94.7"/><polygon class="cls-4" points="130.45 95.63 122.63 94.83 124.57 87.03 132.39 87.83 130.45 95.63"/><rect class="cls-5" x="161.47" y="8.4" width="118.76" height="9.04"/><rect class="cls-2" x="161.47" y="23.06" width="93.92" height="6.74"/><rect class="cls-2" x="180.07" y="49.31" width="75.32" height="9.04"/><path class="cls-5" d="M171.56,49.53a.35.35,0,0,1,.07.47l-5.53,8.12a.36.36,0,0,1-.3.23.4.4,0,0,1-.35-.13l-3.76-4.16a.33.33,0,0,1-.11-.27.4.4,0,0,1,.14-.27l.62-.63a.35.35,0,0,1,.57,0l2.39,2.4a.43.43,0,0,0,.33.11.36.36,0,0,0,.3-.21L170.29,49a.39.39,0,0,1,.28-.2.46.46,0,0,1,.34.1Z" transform="translate(0 -0.22)"/><rect class="cls-2" x="180.07" y="65.78" width="75.32" height="9.04"/><path class="cls-5" d="M171.56,66a.36.36,0,0,1,.07.48L166.1,74.6a.35.35,0,0,1-.3.22.39.39,0,0,1-.35-.12l-3.76-4.16a.35.35,0,0,1-.11-.28.4.4,0,0,1,.14-.27l.62-.62a.35.35,0,0,1,.57,0l2.39,2.39a.43.43,0,0,0,.33.11.36.36,0,0,0,.3-.21l4.36-6.2a.34.34,0,0,1,.28-.2.39.39,0,0,1,.34.1Z" transform="translate(0 -0.22)"/><rect class="cls-2" x="180.07" y="81.2" width="75.32" height="9.04"/><path class="cls-5" d="M171.56,81.42a.35.35,0,0,1,.07.47L166.1,90a.35.35,0,0,1-.3.22.39.39,0,0,1-.35-.12L161.69,86a.35.35,0,0,1-.11-.28.42.42,0,0,1,.14-.27l.62-.62a.35.35,0,0,1,.57,0l2.39,2.39a.43.43,0,0,0,.33.11.36.36,0,0,0,.3-.21l4.36-6.2a.34.34,0,0,1,.28-.2.39.39,0,0,1,.34.1Z" transform="translate(0 -0.22)"/><rect class="cls-5" x="5.66" y="134.81" width="118.76" height="9.04"/><rect class="cls-2" x="24.26" y="175.72" width="75.32" height="9.04"/><path class="cls-5" d="M15.75,175.94a.35.35,0,0,1,.07.47l-5.53,8.12a.36.36,0,0,1-.29.23.39.39,0,0,1-.35-.13l-3.76-4.16a.31.31,0,0,1-.12-.27.45.45,0,0,1,.14-.27l.62-.63a.36.36,0,0,1,.58,0l2.39,2.4a.39.39,0,0,0,.32.11.36.36,0,0,0,.3-.21l4.36-6.21a.4.4,0,0,1,.29-.2.45.45,0,0,1,.33.1Z" transform="translate(0 -0.22)"/><rect class="cls-2" x="24.26" y="192.2" width="75.32" height="9.04"/><path class="cls-5" d="M15.75,192.41a.36.36,0,0,1,.07.48L10.29,201a.35.35,0,0,1-.29.22.38.38,0,0,1-.35-.12L5.89,197a.33.33,0,0,1-.12-.28.45.45,0,0,1,.14-.27l.62-.62a.36.36,0,0,1,.58,0l2.39,2.39a.39.39,0,0,0,.32.11.36.36,0,0,0,.3-.21l4.36-6.2a.36.36,0,0,1,.29-.2.38.38,0,0,1,.33.1Z" transform="translate(0 -0.22)"/><rect class="cls-2" x="24.26" y="207.61" width="75.32" height="9.04"/><path class="cls-5" d="M15.75,207.83a.35.35,0,0,1,.07.47l-5.53,8.12a.35.35,0,0,1-.29.22.38.38,0,0,1-.35-.12l-3.76-4.16a.33.33,0,0,1-.12-.28.47.47,0,0,1,.14-.27l.62-.62a.36.36,0,0,1,.58,0l2.39,2.39a.39.39,0,0,0,.32.11.36.36,0,0,0,.3-.21l4.36-6.2a.36.36,0,0,1,.29-.2.38.38,0,0,1,.33.1Z" transform="translate(0 -0.22)"/><rect class="cls-2" x="5.8" y="152.27" width="93.92" height="6.74"/><rect class="cls-5" x="161.47" y="134.81" width="118.76" height="9.04"/><rect class="cls-6" x="160.4" y="175.72" width="95.24" height="9.04"/><rect class="cls-6" x="160.4" y="192.2" width="95.24" height="9.04"/><rect class="cls-6" x="160.4" y="207.61" width="95.24" height="9.04"/><rect class="cls-5" x="161.84" y="152.27" width="93.92" height="6.74"/></svg>