<svg viewBox="0 0 50 50" xmlns="http://www.w3.org/2000/svg"><ellipse cx="25.08" cy="25.68" fill="#2088c9" rx="23.47" ry="22.46"/><path d="m15.98 13.06-.58-2.18-6.12 1.62-2.18.58h-.02l.58 2.18h.01l1.62 6.13 2.18-.57-1.62-6.14z" fill="#fff"/><path d="m37.15 34.22.57 2.17 6.13-1.62v.01l2.17-.58.02-.01-.58-2.17h-.01l-1.62-6.14-2.18.58 1.62 6.13z" fill="#fff"/><path d="m16.81 23.86a15.1 15.1 0 0 0 -8.67 8s-.46 1.18.27 1.72a1 1 0 0 0 1 .09c1-.39 3.92-1.45 6.18-1.07z" fill="#c3e2e3" stroke="#fff" stroke-miterlimit="10"/><path d="m32.11 31.18s-.18 5.41-.37 7.21a11.91 11.91 0 0 1 -1.41 4.77c-.81 1.08-1.64 0-1.82-.4-.27-.67-.38-2.16-.67-2.82a10.38 10.38 0 0 0 -1.86-2z" fill="#8dcbcb" stroke="#fff" stroke-miterlimit="10"/><path d="m17 35.75-2.22-2.22s-4.19 5.09-1.31 15.79l4.19-8.38s-3.2-1.51-.66-5.19z" fill="#ffcf0d"/><path d="m17.64 40.94s3.44 1.82 4.55-2.55l3 .27a17.63 17.63 0 0 1 -11.74 10.66z" fill="#db9901"/><path d="m29.05 3.89 1.82 1.61 3.5 2.29 3.56-6.79s-3.93-.68-8.88 2.89z" fill="#e53c1e" stroke="#e53b20" stroke-miterlimit="10" stroke-width=".25"/><path d="m34.37 7.79s3.47 1.75 6.09 1.75c0 0 0-6.26-2.53-8.55z" fill="#e53c1e"/><circle cx="30.5" cy="15.57" fill="#ffcf0d" r="2.62"/><path d="m26.06 28.69-1.42-.69a.35.35 0 0 1 -.17-.48l10-19.74 6 1.79a18.17 18.17 0 0 1 -.3 3.86 36 36 0 0 1 -1.78 5.57c-2.44 5.9-6.28 12.33-9.1 15 0 0-4.47-.12-5.42-.73z" fill="#8dcbcb" stroke="#fff" stroke-miterlimit="10"/><path d="m17.08 23.79s4-13.45 12-19.9a14 14 0 0 1 8.85-2.89s2 1.15 2.69 8.68-8.54 21.32-8.54 21.32l-6.19 6.79-3.7-.53s-1.38 2.85-2.26 3.11-3-.27-3.05-1.89a11.2 11.2 0 0 1 1.12-3.19l-2.4-2.69z" fill="none" stroke="#fff" stroke-miterlimit="10"/><path d="m22.58 26.92 1.49.89a.19.19 0 0 0 .26-.08l9.91-19.9a.19.19 0 0 0 -.06-.23l-4.76-3.6a.18.18 0 0 0 -.22 0 16.81 16.81 0 0 0 -2.82 2.45 36.17 36.17 0 0 0 -3.38 4.67c-3.29 5.42-6.06 12.11-6.59 16a.18.18 0 0 0 0 .13 22.26 22.26 0 0 0 3.59 3.75.18.18 0 0 0 .25-.07l2.07-4a.19.19 0 0 1 .26-.01z" fill="#ececec" stroke="#fff" stroke-miterlimit="10"/><circle cx="30.55" cy="15.42" fill="#10928e" r="4.04"/><circle cx="30.55" cy="15.57" fill="#ffcf0d" r="2.62"/><g fill="#fff"><path d="m29 5.6-.19-.23.19-.19.18.24a2.69 2.69 0 0 0 -.18.18z"/><path d="m27.25 7.24-.25-.24.42-.44.22.22c-.11.16-.24.3-.39.46zm.84-.85-.21-.22c.16-.16.31-.29.45-.41l.2.23z"/><path d="m17.71 26.27-.29-.07.15-.58.3.07c-.06.19-.11.39-.16.58zm.29-1.15-.27-.12c.05-.2.11-.39.16-.58l.29.08c-.05.23-.11.42-.18.62zm.35-1.12-.29-.09c.06-.19.12-.39.17-.58l.29.09c-.05.16-.11.35-.17.58zm.35-1.15-.29-.09c.07-.19.13-.38.19-.57l.29.09c-.07.16-.13.35-.19.54zm.38-1.13-.29-.1.21-.62.28.1c-.07.21-.14.4-.2.59zm.4-1.13-.29-.1.21-.57.29.11zm.42-1.12-.28-.11c.08-.19.15-.37.22-.56l.28.12c-.07.15-.12.34-.22.52zm.45-1.1-.28-.12.24-.55.28.12zm.48-1.1-.28-.12c.09-.19.17-.37.26-.55l.27.13zm.51-1.08-.28-.19q.14-.29.27-.54l.27.13c-.09.21-.18.41-.26.57zm.53-1.07-.27-.12c.09-.18.18-.36.28-.53l.26.14zm.56-1.12-.27-.14.3-.53.26.15zm.57-1-.26-.15.31-.52.26.16zm.62-1-.25-.16c.1-.17.21-.34.32-.5l.25.16c-.08.14-.19.3-.3.5zm.66-1-.28-.19c.12-.17.23-.34.35-.5l.24.17zm.72-1-.24-.18.36-.48.24.18q-.2.23-.36.48zm.72-.95-.24-.19.38-.47.24.19c-.1.15-.27.31-.4.47zm.76-.93-.23-.19c.13-.16.27-.31.4-.46l.22.21z"/><path d="m17.49 27.43-.31-.26.09-.39.3.08-.05.2.16.13z"/><path d="m19.13 28.79-.41-.34.2-.23.41.34zm-.82-.68-.41-.34.19-.24.41.34z"/><path d="m19.92 29.44-.37-.31.19-.23.1.08s0-.07.06-.11l.26.16-.15.25z"/><path d="m20.34 28.72-.26-.15.18-.3.26.15zm.37-.6-.26-.12.19-.3.25.17z"/><path d="m21.08 27.53-.25-.16.19-.3.25.17zm.39-.58-.25-.18c.07-.1.14-.19.2-.29l.25.18c-.07.09-.13.19-.2.34zm.4-.57-.24-.19.23-.28.23.2z"/><path d="m22.32 25.86-.21-.22a.53.53 0 0 1 .35-.2v.3a1.66 1.66 0 0 0 -.14.12z"/><path d="m19.6 40.39-1.43-.22a.6.6 0 0 1 -.38-.21l-.71-.85c-.21-.11-.2-1.06-.09-1.27l1.07-2.67v-.06l4.11-7.76c.26-.74.79-.13 1 0l2.55 1.39c.3 0 .18.25 0 .44a.64.64 0 0 0 -.08.14l-3.63 7.86a.6.6 0 0 0 -.06.19c.05.55-1.72 3.16-2.35 3.02z"/></g><rect fill="#c3e2e3" height="11.92" rx=".62" transform="matrix(.89068936 .45461243 -.45461243 .89068936 17.35 -5.78)" width="1.39" x="20" y="27.22"/><rect fill="#8dcbcb" height="11.92" rx=".62" transform="matrix(.89068936 .45461243 -.45461243 .89068936 17.78 -6.26)" width="1.39" x="21.22" y="27.87"/><path d="m23.67 33.28-1.8 3.83 4 .58 3.13-3.53s-3.68.03-5.33-.88z" fill="#8dcbcb" stroke="#fff" stroke-miterlimit="10"/><path d="m20.26 31.34a23 23 0 0 1 -3.68-3.71l-.81 5 2.42 2.67z" fill="#c3e2e3" stroke="#fff" stroke-miterlimit="10"/><path d="m23.29 28.04h2.73v.35h-2.73z" fill="#fff" transform="matrix(.88474372 .46607783 -.46607783 .88474372 15.99 -8.24)"/></svg>
