<svg xmlns="http://www.w3.org/2000/svg" fill="none" viewBox="0 0 1440 410">
  <path stroke="#F16A36" stroke-width="20" d="M-1805 400H-28c43.078 0 78-34.922 78-78V113.543c0-44.182 35.817-80 80-80h1229.67c16.59 0 30.42 12.698 31.83 29.229 1.41 16.53 15.24 29.228 31.84 29.228H3239"/>
  <path stroke="#8838EC" stroke-width="20" d="M106.5-3v265c0 44.183-35.817 80-80 80H-1805"/>
  <path stroke="#F79B36" stroke-width="20" d="M-1805 313H18.782c33.137 0 60-26.863 60-60V121c0-33.137 26.863-60 60-60H3239"/>
  <path stroke="#D9D100" stroke-width="20" d="M135-2v182c0 44.183-35.817 80-80 80h-1860"/>
</svg>