<svg xmlns="http://www.w3.org/2000/svg" fill="none" viewBox="0 0 4431 440">
  <path fill="#000" d="M4333 436.315c16.47 0 29.81-13.349 29.81-29.815s-13.34-29.815-29.81-29.815-29.82 13.349-29.82 29.815 13.35 29.815 29.82 29.815Z"/>
  <path fill="#F5F5F5" stroke="#000" d="M4335.84 393.898a2.551 2.551 0 0 1 3.2-.084l.2.166v.002l11.27 10.682.01.009.13.147c.13.151.24.31.33.464.05.089.09.184.13.275l.09.25v.019c.02.058.03.116.05.174h.05v.5c0 .693-.28 1.359-.79 1.836v.001l-11.27 10.682v.001c-.95.887-2.43.923-3.4.082l-.18-.179c-.95-1.01-.93-2.625.1-3.582l6.64-6.308h-25.17c-1.4 0-2.54-1.14-2.54-2.533a2.543 2.543 0 0 1 2.54-2.534h25.17l-6.65-6.311v-.001c-1.02-.957-1.04-2.569-.09-3.578l.18-.18Z"/>
  <path fill="#000" d="M4401 436.315c16.47 0 29.81-13.349 29.81-29.815s-13.34-29.815-29.81-29.815-29.82 13.349-29.82 29.815 13.35 29.815 29.82 29.815Z"/>
  <path fill="#F5F5F5" stroke="#000" d="M4403.84 393.898a2.551 2.551 0 0 1 3.2-.084l.2.166v.002l11.27 10.682.01.009.13.147c.13.151.24.31.33.464.05.089.09.184.13.275l.09.25v.019c.02.058.03.116.05.174h.05v.5c0 .693-.28 1.359-.79 1.836v.001l-11.27 10.682v.001c-.95.887-2.43.923-3.4.082l-.18-.179c-.95-1.01-.93-2.625.1-3.582l6.64-6.308h-25.17c-1.4 0-2.54-1.14-2.54-2.533a2.543 2.543 0 0 1 2.54-2.534h25.17l-6.65-6.311v-.001c-1.02-.957-1.04-2.569-.09-3.578l.18-.18Z"/>
  <path stroke="#F79B36" stroke-width="20" d="M0 419h4272.39c7.52 0 13.61-6.091 13.61-13.605s-6.09-13.605-13.61-13.605h-515.46c-44.18 0-80-35.818-80-80V0"/>
</svg>