<svg height="37.209" viewBox="0 0 40 37.209" width="40" xmlns="http://www.w3.org/2000/svg" xmlns:xlink="http://www.w3.org/1999/xlink"><linearGradient id="a" gradientUnits="objectBoundingBox" x1=".5" x2=".5" y1="-1.372" y2="-.372"><stop offset="0" stop-color="#35b8f1"/><stop offset="1" stop-color="#28a8ea"/></linearGradient><linearGradient id="b" gradientUnits="objectBoundingBox" x1=".174" x2=".826" y1="-1.25" y2="-.12"><stop offset="0" stop-color="#1784d9"/><stop offset=".5" stop-color="#107ad5"/><stop offset="1" stop-color="#0a63c9"/></linearGradient><path d="m456.891 477.861a.893.893 0 0 0 -.426-.767l-.017-.009-13.86-8.2a1.853 1.853 0 0 0 -2.078 0l-13.86 8.2-.017.009a.9.9 0 0 0 .021 1.547l13.86 8.2a2.08 2.08 0 0 0 .186.111 1.86 1.86 0 0 0 1.706 0 2.082 2.082 0 0 0 .186-.111l13.86-8.2a.892.892 0 0 0 .439-.78z" fill="#0a2767" transform="translate(-416.891 -458.326)"/><path d="m511.186 14.057h9.1v8.338h-9.1zm26.77-8.475v-3.815a1.728 1.728 0 0 0 -1.686-1.767h-23.6a1.728 1.728 0 0 0 -1.687 1.767v3.814l13.95 3.719z" fill="#0364b8" transform="translate(-499.816)"/><path d="m511 255.5h9.3v8.372h-9.3z" fill="#0078d4" transform="translate(-499.837 -249.919)"/><path d="m946.135 255.5h-9.3v8.372l9.3 8.372h8.372v-8.372z" fill="#28a8ea" transform="translate(-916.368 -249.919)"/><path d="m936.833 638.75h9.3v8.372h-9.3z" fill="#0078d4" transform="translate(-916.368 -624.797)"/><path d="m936.833 1022h9.3v8.372h-9.3z" fill="#0364b8" transform="translate(-916.368 -999.674)"/><path d="m520.453 1025.151h9.1v7.579h-9.1z" fill="#14447d" transform="translate(-509.084 -1002.757)"/><path d="m1362.667 1022h8.372v8.372h-8.372z" fill="#0078d4" transform="translate(-1332.9 -999.674)"/><path d="m456.1 894.978-.018.009-13.86 7.8c-.06.037-.122.073-.186.1a1.933 1.933 0 0 1 -.752.186l-.757-.443a1.911 1.911 0 0 1 -.186-.107l-14.041-8.016h-.007l-.46-.257v15.78a1.907 1.907 0 0 0 1.919 1.894h26.889c.016 0 .03-.007.046-.007a2.351 2.351 0 0 0 .651-.136 1.872 1.872 0 0 0 .261-.136c.062-.035.169-.113.169-.113a1.878 1.878 0 0 0 .761-1.5v-15.782a.837.837 0 0 1 -.429.728z" fill="url(#a)" transform="translate(-416.531 -874.715)"/><path d="m414.134 836.831v.967l-14.493 9.979-15-10.62a.009.009 0 0 0 -.009-.009l-1.377-.828v-.7l.567-.009 1.2.688.028.009.1.065s14.1 8.047 14.14 8.065l.54.316c.047-.019.093-.037.149-.056.028-.019 14-7.879 14-7.879z" fill="#0a2767" opacity=".5" transform="translate(-374.878 -817.358)"/><path d="m456.106 894.978-.018.01-13.86 7.8c-.06.037-.122.073-.186.1a1.944 1.944 0 0 1 -1.706 0 2.1 2.1 0 0 1 -.186-.1l-13.86-7.8-.017-.01a.837.837 0 0 1 -.438-.728v15.78a1.906 1.906 0 0 0 1.918 1.894h26.861a1.906 1.906 0 0 0 1.918-1.894v-15.78a.837.837 0 0 1 -.426.728z" fill="#1490df" transform="translate(-416.532 -874.715)"/><path d="m1135.162 1279.629-.208.116a2.046 2.046 0 0 1 -.186.105 1.926 1.926 0 0 1 -.731.193l5.273 6.236 9.2 2.217a1.9 1.9 0 0 0 .583-.728z" opacity=".1" transform="translate(-1109.264 -1251.676)"/><path d="m1136.1 1255.442-1.147.645a2.046 2.046 0 0 1 -.186.105 1.926 1.926 0 0 1 -.731.193l2.471 6.812 12 1.638a1.88 1.88 0 0 0 .752-1.5v-.2z" opacity=".05" transform="translate(-1109.264 -1228.017)"/><path d="m427.778 911.924h26.832a1.929 1.929 0 0 0 1.149-.372l-15.228-8.92a1.9 1.9 0 0 1 -.186-.107l-14.045-8.016h-.007l-.459-.259v15.727a1.946 1.946 0 0 0 1.944 1.948z" fill="#28a8ea" transform="translate(-416.532 -874.715)"/><path d="m438.856 342.372v19.842a1.71 1.71 0 0 1 -1.07 1.581 1.6 1.6 0 0 1 -.633.13h-11.32v-22.325h1.86v-.93h9.46a1.709 1.709 0 0 1 1.703 1.702z" opacity=".1" transform="translate(-416.531 -333.225)"/><path d="m437.926 384.952v19.842a1.516 1.516 0 0 1 -.14.651 1.7 1.7 0 0 1 -1.563 1.058h-10.39v-23.257h10.391a1.562 1.562 0 0 1 .772.2 1.691 1.691 0 0 1 .93 1.506z" opacity=".2" transform="translate(-416.531 -374.874)"/><path d="m437.926 384.952v17.981a1.717 1.717 0 0 1 -1.7 1.709h-10.393v-21.4h10.391a1.562 1.562 0 0 1 .772.2 1.691 1.691 0 0 1 .93 1.51z" opacity=".2" transform="translate(-416.531 -374.874)"/><path d="m437 384.955v17.981a1.711 1.711 0 0 1 -1.7 1.709h-9.46v-21.4h9.46a1.7 1.7 0 0 1 1.7 1.7z" opacity=".2" transform="translate(-416.531 -374.878)"/><path d="m1.705 383.25h17.055a1.705 1.705 0 0 1 1.705 1.705v17.055a1.705 1.705 0 0 1 -1.705 1.705h-17.055a1.705 1.705 0 0 1 -1.705-1.705v-17.055a1.705 1.705 0 0 1 1.705-1.705z" fill="url(#b)" transform="translate(0 -374.878)"/><path d="m214.3 579.44a4.96 4.96 0 0 1 1.948-2.152 5.888 5.888 0 0 1 3.095-.776 5.481 5.481 0 0 1 2.864.736 4.916 4.916 0 0 1 1.893 2.052 6.635 6.635 0 0 1 .664 3.023 7 7 0 0 1 -.684 3.163 5.033 5.033 0 0 1 -1.953 2.127 5.7 5.7 0 0 1 -2.971.755 5.6 5.6 0 0 1 -2.927-.744 4.992 4.992 0 0 1 -1.92-2.06 6.477 6.477 0 0 1 -.672-2.987 7.193 7.193 0 0 1 .663-3.137zm2.076 5.051a3.22 3.22 0 0 0 1.1 1.416 2.862 2.862 0 0 0 1.712.515 3 3 0 0 0 1.827-.532 3.083 3.083 0 0 0 1.064-1.416 5.5 5.5 0 0 0 .34-1.975 6.012 6.012 0 0 0 -.32-2 3.163 3.163 0 0 0 -1.031-1.475 2.831 2.831 0 0 0 -1.811-.558 2.953 2.953 0 0 0 -1.752.52 3.247 3.247 0 0 0 -1.116 1.428 5.674 5.674 0 0 0 -.007 4.079z" fill="#fff" transform="translate(-208.966 -563.916)"/><path d="m1362.667 255.5h8.372v8.372h-8.372z" fill="#50d9ff" transform="translate(-1332.9 -249.919)"/></svg>