<svg class="ui5con-detail__icon" aria-hidden="true" xmlns="http://www.w3.org/2000/svg" viewBox="0 0 80 80">
  <path fill-rule="evenodd" clip-rule="evenodd" d="M27.375 34.5c0-7.456 6.044-13.5 13.5-13.5s13.5 6.044 13.5 13.5S48.331 48 40.875 48s-13.5-6.044-13.5-13.5Zm13.5-6.75a6.75 6.75 0 1 0 0 13.5 6.75 6.75 0 0 0 0-13.5ZM51 58.125C51 52.533 55.533 48 61.125 48S71.25 52.533 71.25 58.125 66.717 68.25 61.125 68.25 51 63.717 51 58.125Zm10.125-3.375a3.375 3.375 0 1 0 0 6.75 3.375 3.375 0 0 0 0-6.75ZM51 10.875C51 5.283 55.533.75 61.125.75S71.25 5.283 71.25 10.875 66.717 21 61.125 21 51 16.467 51 10.875ZM61.125 7.5a3.375 3.375 0 1 0 0 6.75 3.375 3.375 0 0 0 0-6.75Zm-60.75 27c0-5.592 4.533-10.125 10.125-10.125S20.625 28.908 20.625 34.5 16.092 44.625 10.5 44.625.375 40.092.375 34.5ZM10.5 31.125a3.375 3.375 0 1 0 0 6.75 3.375 3.375 0 0 0 0-6.75Z" fill="currentColor"/>
  <path fill-rule="evenodd" clip-rule="evenodd" d="M13.875 34.5a3.375 3.375 0 0 1 3.375-3.375h13.5a3.375 3.375 0 1 1 0 6.75h-13.5a3.375 3.375 0 0 1-3.375-3.375Zm31.589 5.845a3.375 3.375 0 0 1 4.754.432l8.437 10.125a3.375 3.375 0 0 1-5.185 4.321l-8.438-10.125a3.375 3.375 0 0 1 .432-4.753Zm12.759-27a3.375 3.375 0 0 1 .432 4.753l-8.437 10.125a3.375 3.375 0 1 1-5.186-4.321l8.438-10.125a3.375 3.375 0 0 1 4.753-.432Z" fill="currentColor"/>
</svg>
