<svg class="ui5con-detail__icon" aria-hidden="true" fill="none" xmlns="http://www.w3.org/2000/svg" viewBox="0 0 40 41">
  <path d="M18.984 18.837c-.677 0-1.015-.313-1.015-.938 0-.677.338-1.015 1.015-1.015h5c1.354 0 2.032-.677 2.032-2.032 0-1.302-.677-1.953-2.032-1.953h-1.953v-2.03c0-.574-.208-1.043-.625-1.407-.364-.417-.833-.625-1.406-.625s-1.068.208-1.484.625c-.365.364-.547.833-.547 1.406V12.9c-1.094.26-2.032.86-2.813 1.797-.781.938-1.172 2.005-1.172 3.203 0 1.355.47 2.526 1.407 3.516.99.99 2.187 1.484 3.593 1.484h2.032c.677 0 1.015.313 1.015.938 0 .677-.338 1.015-1.015 1.015h-5c-1.354 0-2.032.678-2.032 2.032 0 1.302.678 1.953 2.032 1.953h1.953v2.031c0 .573.182 1.068.547 1.485A2.18 2.18 0 0 0 20 32.9c.573 0 1.042-.182 1.406-.547.417-.416.625-.91.625-1.484v-2.031c1.094-.26 2.032-.86 2.813-1.797.781-.938 1.172-2.005 1.172-3.203 0-1.354-.495-2.526-1.485-3.516-.937-.99-2.11-1.484-3.515-1.484h-2.032ZM20 .868c2.76 0 5.338.521 7.734 1.563 2.448 1.041 4.584 2.474 6.407 4.297 1.823 1.822 3.255 3.958 4.297 6.406C39.478 15.53 40 18.108 40 20.868s-.52 5.365-1.563 7.813a20.326 20.326 0 0 1-4.296 6.328c-1.823 1.823-3.959 3.255-6.407 4.297-2.396 1.041-4.974 1.562-7.734 1.562s-5.365-.52-7.813-1.562a20.326 20.326 0 0 1-6.328-4.297 20.325 20.325 0 0 1-4.296-6.328C.52 26.233 0 23.629 0 20.868c0-2.76.52-5.338 1.563-7.734 1.041-2.448 2.473-4.584 4.296-6.406a20.325 20.325 0 0 1 6.329-4.297C14.634 1.389 17.24.868 20 .868Zm0 36.016c2.188 0 4.245-.417 6.172-1.25 1.979-.834 3.698-1.98 5.156-3.438a16.208 16.208 0 0 0 3.438-5.078 15.942 15.942 0 0 0 1.25-6.25c0-2.187-.417-4.245-1.25-6.172-.834-1.979-1.98-3.698-3.438-5.156-1.458-1.458-3.177-2.604-5.156-3.437-1.927-.834-3.985-1.25-6.172-1.25-2.188 0-4.27.416-6.25 1.25A16.209 16.209 0 0 0 8.672 9.54c-1.458 1.458-2.604 3.177-3.438 5.156-.833 1.927-1.25 3.985-1.25 6.172 0 2.188.417 4.271 1.25 6.25a16.21 16.21 0 0 0 8.516 8.516c1.98.833 4.063 1.25 6.25 1.25Z" fill="currentColor"/>
</svg>
