<svg fill="none" xmlns="http://www.w3.org/2000/svg" viewBox="0 0 40 42" aria-hidden="true">
  <path d="M15.125 34.308c-8.959 2.687-8.959-4.48-12.542-5.375m25.083 10.75v-6.934a6.037 6.037 0 0 0-1.684-4.676c5.626-.627 11.538-2.76 11.538-12.542a9.747 9.747 0 0 0-2.687-6.719 9.084 9.084 0 0 0-.161-6.754s-2.114-.627-7.006 2.651a23.972 23.972 0 0 0-12.541 0c-4.892-3.278-7.006-2.651-7.006-2.651a9.084 9.084 0 0 0-.161 6.754 9.747 9.747 0 0 0-2.687 6.773c0 9.71 5.912 11.843 11.538 12.541a6.039 6.039 0 0 0-1.684 4.623v6.934" stroke="currentColor" stroke-width="4" stroke-linecap="round" stroke-linejoin="round"/>
</svg>
