<svg version="1.1" xmlns="http://www.w3.org/2000/svg" xmlns:xlink="http://www.w3.org/1999/xlink">
  <symbol aria-hidden="true" fill="none" xmlns="http://www.w3.org/2000/svg" viewBox="0 0 68 75" id="timer">
    <path fill-rule="evenodd" clip-rule="evenodd" d="M20.375 51c0-13.048 10.577-23.625 23.625-23.625S67.625 37.952 67.625 51 57.048 74.625 44 74.625 20.375 64.048 20.375 51ZM44 34.125c-9.32 0-16.875 7.555-16.875 16.875S34.68 67.875 44 67.875 60.875 60.32 60.875 51 53.32 34.125 44 34.125Z" fill="currentColor"></path>
    <path fill-rule="evenodd" clip-rule="evenodd" d="M44 40.875a3.375 3.375 0 0 1 3.375 3.375v5.352l2.386 2.387a3.375 3.375 0 0 1-4.773 4.773l-3.374-3.376A3.375 3.375 0 0 1 40.625 51v-6.75A3.375 3.375 0 0 1 44 40.875Z" fill="currentColor"></path>
    <path fill-rule="evenodd" clip-rule="evenodd" d="M10.25 13.875a3.375 3.375 0 0 0-3.375 3.375v40.5a3.375 3.375 0 0 0 3.375 3.375h3.375a3.375 3.375 0 1 1 0 6.75H10.25C4.658 67.875.125 63.342.125 57.75v-40.5c0-5.592 4.533-10.125 10.125-10.125h40.5c5.592 0 10.125 4.533 10.125 10.125v3.375a3.375 3.375 0 1 1-6.75 0V17.25a3.375 3.375 0 0 0-3.375-3.375h-40.5Z" fill="currentColor"></path>
    <path fill-rule="evenodd" clip-rule="evenodd" d="M.125 30.75A3.375 3.375 0 0 1 3.5 27.375H17a3.375 3.375 0 1 1 0 6.75H3.5A3.375 3.375 0 0 1 .125 30.75ZM40.625.375A3.375 3.375 0 0 1 44 3.75v13.5a3.375 3.375 0 1 1-6.75 0V3.75A3.375 3.375 0 0 1 40.625.375Zm-20.25 0A3.375 3.375 0 0 1 23.75 3.75v13.5a3.375 3.375 0 1 1-6.75 0V3.75A3.375 3.375 0 0 1 20.375.375Z" fill="currentColor"></path>
  </symbol>
  <symbol fill="none" xmlns="http://www.w3.org/2000/svg" aria-hidden="true" viewBox="0 0 25 25" id="insta">
    <rect x="1.25" y="1.25" width="22.5" height="22.5" rx="5.75" stroke="currentColor" stroke-width="2.5"></rect>
    <circle cx="12.5" cy="12.5" r="5.25" stroke="currentColor" stroke-width="2.5"></circle>
    <circle cx="19.5" cy="6.5" r="1.5" fill="currentColor"></circle>
  </symbol>
  <symbol fill="none" xmlns="http://www.w3.org/2000/svg" aria-hidden="true" viewBox="0 0 18 18" id="linkedin">
    <path fill-rule="evenodd" clip-rule="evenodd" d="M0 3a3 3 0 0 1 3-3h12a3 3 0 0 1 3 3v12a3 3 0 0 1-3 3H3a3 3 0 0 1-3-3V3Zm3-1a1 1 0 0 0-1 1v12a1 1 0 0 0 1 1h12a1 1 0 0 0 1-1V3a1 1 0 0 0-1-1H3Z" fill="currentColor"></path>
    <path fill-rule="evenodd" clip-rule="evenodd" d="M5 7a1 1 0 0 1 1 1v5a1 1 0 1 1-2 0V8a1 1 0 0 1 1-1Zm0-.5a1.5 1.5 0 1 0 0-3 1.5 1.5 0 0 0 0 3ZM8 7a1 1 0 0 1 1 1v5a1 1 0 1 1-2 0V8a1 1 0 0 1 1-1Z" fill="currentColor"></path>
    <path fill-rule="evenodd" clip-rule="evenodd" d="M7 10.778A3.778 3.778 0 0 1 10.778 7 3.222 3.222 0 0 1 14 10.222V13a1 1 0 1 1-2 0v-2.778C12 9.547 11.453 9 10.778 9 9.796 9 9 9.796 9 10.778V13a1 1 0 1 1-2 0v-2.222Z" fill="currentColor"></path>
  </symbol>
  <symbol aria-hidden="true" fill="none" xmlns="http://www.w3.org/2000/svg" viewBox="0 0 40 41" id="currency">
    <path d="M18.984 18.837c-.677 0-1.015-.313-1.015-.938 0-.677.338-1.015 1.015-1.015h5c1.354 0 2.032-.677 2.032-2.032 0-1.302-.677-1.953-2.032-1.953h-1.953v-2.03c0-.574-.208-1.043-.625-1.407-.364-.417-.833-.625-1.406-.625s-1.068.208-1.484.625c-.365.364-.547.833-.547 1.406V12.9c-1.094.26-2.032.86-2.813 1.797-.781.938-1.172 2.005-1.172 3.203 0 1.355.47 2.526 1.407 3.516.99.99 2.187 1.484 3.593 1.484h2.032c.677 0 1.015.313 1.015.938 0 .677-.338 1.015-1.015 1.015h-5c-1.354 0-2.032.678-2.032 2.032 0 1.302.678 1.953 2.032 1.953h1.953v2.031c0 .573.182 1.068.547 1.485A2.18 2.18 0 0 0 20 32.9c.573 0 1.042-.182 1.406-.547.417-.416.625-.91.625-1.484v-2.031c1.094-.26 2.032-.86 2.813-1.797.781-.938 1.172-2.005 1.172-3.203 0-1.354-.495-2.526-1.485-3.516-.937-.99-2.11-1.484-3.515-1.484h-2.032ZM20 .868c2.76 0 5.338.521 7.734 1.563 2.448 1.041 4.584 2.474 6.407 4.297 1.823 1.822 3.255 3.958 4.297 6.406C39.478 15.53 40 18.108 40 20.868s-.52 5.365-1.563 7.813a20.326 20.326 0 0 1-4.296 6.328c-1.823 1.823-3.959 3.255-6.407 4.297-2.396 1.041-4.974 1.562-7.734 1.562s-5.365-.52-7.813-1.562a20.326 20.326 0 0 1-6.328-4.297 20.325 20.325 0 0 1-4.296-6.328C.52 26.233 0 23.629 0 20.868c0-2.76.52-5.338 1.563-7.734 1.041-2.448 2.473-4.584 4.296-6.406a20.325 20.325 0 0 1 6.329-4.297C14.634 1.389 17.24.868 20 .868Zm0 36.016c2.188 0 4.245-.417 6.172-1.25 1.979-.834 3.698-1.98 5.156-3.438a16.208 16.208 0 0 0 3.438-5.078 15.942 15.942 0 0 0 1.25-6.25c0-2.187-.417-4.245-1.25-6.172-.834-1.979-1.98-3.698-3.438-5.156-1.458-1.458-3.177-2.604-5.156-3.437-1.927-.834-3.985-1.25-6.172-1.25-2.188 0-4.27.416-6.25 1.25A16.209 16.209 0 0 0 8.672 9.54c-1.458 1.458-2.604 3.177-3.438 5.156-.833 1.927-1.25 3.985-1.25 6.172 0 2.188.417 4.271 1.25 6.25a16.21 16.21 0 0 0 8.516 8.516c1.98.833 4.063 1.25 6.25 1.25Z" fill="currentColor"></path>
  </symbol>
  <symbol aria-hidden="true" xmlns="http://www.w3.org/2000/svg" viewBox="0 0 80 80" id="compassrose">
    <path fill-rule="evenodd" clip-rule="evenodd" d="M6.75 40.5c0-18.64 15.11-33.75 33.75-33.75S74.25 21.86 74.25 40.5 59.14 74.25 40.5 74.25 6.75 59.14 6.75 40.5Zm33.75-27c-14.912 0-27 12.088-27 27s12.088 27 27 27 27-12.088 27-27-12.088-27-27-27Z" fill="currentColor"></path>
    <path fill-rule="evenodd" clip-rule="evenodd" d="M40.5 23.625a3.375 3.375 0 1 0 0-6.75 3.375 3.375 0 0 0 0 6.75Zm15.886.988a3.375 3.375 0 0 1 .508 4.123L46.769 45.611a3.373 3.373 0 0 1-1.158 1.158L28.736 56.894a3.375 3.375 0 0 1-4.63-4.63l10.125-16.875a3.373 3.373 0 0 1 1.158-1.158l16.875-10.125a3.375 3.375 0 0 1 4.122.507Z" fill="currentColor"></path>
  </symbol>
  <symbol aria-hidden="true" viewBox="0 0 26 26" xmlns="http://www.w3.org/2000/svg" id="calendar">
    <path fill-rule="evenodd" clip-rule="evenodd" d="M18.556 3h2.777C23.625 3 25.5 4.688 25.5 6.75v15c0 2.063-1.875 3.75-4.167 3.75H4.667C2.375 25.5.5 23.812.5 21.75v-15C.5 4.687 2.375 3 4.667 3h2.777V1.75c0-.688.625-1.25 1.39-1.25.763 0 1.388.563 1.388 1.25V3h5.556V1.75c0-.688.625-1.25 1.389-1.25s1.389.563 1.389 1.25V3ZM7.444 5.5H4.667c-.764 0-1.39.563-1.39 1.25v3.75h19.445V6.75c0-.688-.625-1.25-1.389-1.25h-2.777v1.25c0 .688-.625 1.25-1.39 1.25-.763 0-1.388-.563-1.388-1.25V5.5h-5.556v1.25c0 .688-.625 1.25-1.389 1.25s-1.389-.563-1.389-1.25V5.5ZM4.667 23h16.666c.764 0 1.39-.563 1.39-1.25V13H3.277v8.75c0 .688.625 1.25 1.389 1.25ZM13 18.625c1.15 0 2.083-.84 2.083-1.875 0-1.035-.933-1.875-2.083-1.875-1.15 0-2.083.84-2.083 1.875 0 1.035.933 1.875 2.083 1.875Zm7.639-1.875c0 1.035-.933 1.875-2.083 1.875-1.15 0-2.084-.84-2.084-1.875 0-1.035.933-1.875 2.084-1.875 1.15 0 2.083.84 2.083 1.875ZM7.444 18.625c1.15 0 2.084-.84 2.084-1.875 0-1.035-.934-1.875-2.084-1.875s-2.083.84-2.083 1.875c0 1.035.933 1.875 2.083 1.875Z" fill="currentcolor"/>
  </symbol>
  <symbol xmlns="http://www.w3.org/2000/svg" aria-hidden="true" viewBox="0 0 45 36" id="youtube">
    <path fill-rule="evenodd" clip-rule="evenodd" d="M42.75 15.752a2.25 2.25 0 0 1 2.25 2.25 43.7 43.7 0 0 1-1.68 11.936c-.75 2.653-3.238 4.334-5.872 4.784A88.873 88.873 0 0 1 22.5 36a2.25 2.25 0 0 1 0-4.5c4.71 0 9.483-.408 14.189-1.213 1.45-.248 2.152-1.048 2.3-1.574A39.233 39.233 0 0 0 40.5 18.002a2.25 2.25 0 0 1 2.25-2.25Z" fill="currentColor"></path>
    <path fill-rule="evenodd" clip-rule="evenodd" d="M42.75 20.25A2.25 2.25 0 0 0 45 18c0-3.997-.562-7.986-1.68-11.937-.75-2.654-3.237-4.334-5.872-4.785A88.869 88.869 0 0 0 22.5 0a2.25 2.25 0 0 0 0 4.5c4.71 0 9.483.408 14.189 1.213 1.45.249 2.152 1.048 2.3 1.574A39.255 39.255 0 0 1 40.5 18.002a2.249 2.249 0 0 0 2.25 2.248Z" fill="currentColor"></path>
    <path fill-rule="evenodd" clip-rule="evenodd" d="M2.25 20.25A2.25 2.25 0 0 1 0 18c0-3.997.562-7.986 1.68-11.937.75-2.654 3.237-4.334 5.872-4.785A88.868 88.868 0 0 1 22.5 0a2.25 2.25 0 0 1 0 4.5c-4.71 0-9.483.408-14.189 1.213-1.45.249-2.152 1.048-2.3 1.574A39.246 39.246 0 0 0 4.5 18a2.25 2.25 0 0 1-2.25 2.25Z" fill="currentColor"></path>
    <path fill-rule="evenodd" clip-rule="evenodd" d="M2.25 15.75A2.25 2.25 0 0 0 0 18c0 3.996.562 7.986 1.68 11.937.75 2.654 3.237 4.334 5.872 4.785A88.864 88.864 0 0 0 22.5 36a2.25 2.25 0 0 0 0-4.5 84.37 84.37 0 0 1-14.189-1.213c-1.45-.248-2.152-1.048-2.3-1.574A39.242 39.242 0 0 1 4.5 18a2.25 2.25 0 0 0-2.25-2.25Zm14.567-4.164a2.25 2.25 0 0 1 2.19-.098l9 4.5a2.25 2.25 0 0 1 0 4.024l-9 4.5A2.25 2.25 0 0 1 15.75 22.5v-9c0-.78.404-1.504 1.067-1.914Z" fill="currentColor"></path>
  </symbol>
  <symbol fill="none" xmlns="http://www.w3.org/2000/svg" viewBox="0 0 19 21" id="star">
    <mask id="a" fill="#fff">
      <path d="M11.922.997v7.407l7.045 2.29-7.045 2.289v7.407l-4.355-5.993-7.045 2.29 4.354-5.994L.522 4.7l7.045 2.29L11.922.997Z"></path>
    </mask>
    <path d="M11.922.997h7v-21.544L6.258-3.118 11.922.997Zm0 7.407h-7v5.086l4.836 1.572 2.164-6.658Zm7.045 2.29 2.163 6.657 20.49-6.657-20.49-6.658-2.163 6.658Zm-7.045 2.289L9.758 6.325 4.922 7.897v5.086h7Zm0 7.407-5.664 4.115 12.664 17.43V20.39h-7Zm-4.355-5.993 5.663-4.114-2.989-4.115L5.404 7.74l2.163 6.657Zm-7.045 2.29-5.663-4.115-12.663 17.43 20.49-6.658-2.164-6.657Zm4.354-5.994 5.663 4.115 2.99-4.114-2.99-4.115-5.663 4.115ZM.522 4.7l2.163-6.657-20.49-6.657L-5.14 8.815.522 4.7Zm7.045 2.29-2.163 6.657 4.837 1.572 2.99-4.115L7.566 6.99ZM4.922.997v7.407h14V.997h-14Zm4.836 14.065 7.046 2.289L21.13 4.036l-7.045-2.289-4.327 13.315Zm7.046-11.026-7.046 2.29 4.327 13.314 7.045-2.29-4.326-13.314ZM4.922 12.983v7.407h14v-7.407h-14Zm12.663 3.293-4.355-5.993-11.326 8.229 4.354 5.993 11.327-8.229ZM5.405 7.74l-7.046 2.29 4.326 13.314 7.045-2.29L5.404 7.74Zm.78 13.061 4.354-5.993L-.787 6.579l-4.354 5.993 11.326 8.23ZM10.54 6.58 6.185.586-5.14 8.815l4.354 5.993L10.54 6.579Zm-12.18 4.779 7.045 2.289L9.73.332 2.685-1.957-1.64 11.358Zm14.871-.254 4.355-5.993L6.258-3.118 1.904 2.875l11.326 8.23Z" fill="currentColor" mask="url(#a)"></path>
  </symbol>
  <symbol fill="none" xmlns="http://www.w3.org/2000/svg" aria-hidden="true" viewBox="0 0 61 75" id="questionmark">
    <path fill-rule="evenodd" clip-rule="evenodd" d="M13.625 10.5C13.625 4.908 18.158.375 23.75.375h27c5.592 0 10.125 4.533 10.125 10.125V51c0 5.592-4.533 10.125-10.125 10.125h-27c-5.592 0-10.125-4.533-10.125-10.125V10.5ZM23.75 7.125a3.375 3.375 0 0 0-3.375 3.375V51a3.375 3.375 0 0 0 3.375 3.375h27A3.375 3.375 0 0 0 54.125 51V10.5a3.375 3.375 0 0 0-3.375-3.375h-27Z" fill="currentColor"></path>
    <path fill-rule="evenodd" clip-rule="evenodd" d="M3.5 13.875a3.375 3.375 0 0 1 3.375 3.375v47.254a3.375 3.375 0 0 0 3.375 3.375H44a3.375 3.375 0 0 1 0 6.75H10.25C4.658 74.63.125 70.096.125 64.504V17.25A3.375 3.375 0 0 1 3.5 13.875ZM27.125 24c0-5.592 4.533-10.125 10.125-10.125S47.375 18.408 47.375 24c0 2.522-1.443 4.467-2.622 5.676-1.247 1.277-2.73 2.278-3.843 2.944a.743.743 0 0 0-.25.235.303.303 0 0 0-.035.08v1.19a3.375 3.375 0 1 1-6.75 0v-1.188c0-2.695 1.572-4.915 3.57-6.11.883-.528 1.81-1.182 2.476-1.865.64-.656.7-.984.704-.983V24a3.375 3.375 0 1 0-6.75 0 3.375 3.375 0 1 1-6.75 0ZM37.25 47.625a3.375 3.375 0 1 0 0-6.75 3.375 3.375 0 0 0 0 6.75Z" fill="currentColor"></path>
  </symbol>
  <symbol fill="none" xmlns="http://www.w3.org/2000/svg" aria-hidden="true" viewBox="0 0 18 18" id="facebook">
    <path fill-rule="evenodd" clip-rule="evenodd" d="M0 3a3 3 0 0 1 3-3h12a3 3 0 0 1 3 3v12a3 3 0 0 1-3 3H3a3 3 0 0 1-3-3V3Zm3-1a1 1 0 0 0-1 1v12a1 1 0 0 0 1 1h12a1 1 0 0 0 1-1V3a1 1 0 0 0-1-1H3Z" fill="currentColor"></path>
    <path fill-rule="evenodd" clip-rule="evenodd" d="M12 6a1 1 0 0 0-1 1v10a1 1 0 1 1-2 0V7a3 3 0 0 1 3-3h1a1 1 0 1 1 0 2h-1Z" fill="currentColor"></path>
    <path fill-rule="evenodd" clip-rule="evenodd" d="M7 10a1 1 0 0 1 1-1h4.5a1 1 0 1 1 0 2H8a1 1 0 0 1-1-1Z" fill="currentColor"></path>
  </symbol>
  <symbol aria-hidden="true" xmlns="http://www.w3.org/2000/svg" viewBox="0 0 80 80" id="book">
    <path fill-rule="evenodd" clip-rule="evenodd" d="M55.692 21.938c-4.273.003-8.698 1.422-13.323 4.497a3.375 3.375 0 0 1-3.741-.002c-4.614-3.076-9.037-4.49-13.313-4.491-3.809-.001-7.737 1.12-11.815 3.543v32.886c3.86-1.765 7.805-2.687 11.82-2.686 5.852.002 11.552 1.965 17.052 5.632a3.375 3.375 0 0 1-3.744 5.616c-4.621-3.08-9.04-4.497-13.31-4.498-4.27-.001-8.692 1.412-13.32 4.498a3.375 3.375 0 0 1-5.248-2.808v-40.5c0-1.128.564-2.182 1.503-2.808 5.503-3.67 11.21-5.627 17.064-5.626 5.193.002 10.268 1.543 15.185 4.45 4.92-2.903 9.993-4.45 15.184-4.453 5.855-.005 11.56 1.951 17.065 5.631a3.375 3.375 0 0 1 1.499 2.806v13.5a3.375 3.375 0 1 1-6.75 0V25.483c-4.077-2.429-8.002-3.549-11.808-3.546Z" fill="currentColor"></path>
    <path fill-rule="evenodd" clip-rule="evenodd" d="M54.44 58.444a10.126 10.126 0 0 1 4.529-1.069h3.563c1.571 0 3.122.366 4.528 1.069l5.324 2.662a3.375 3.375 0 0 1-1.509 6.394h-20.25a3.375 3.375 0 0 1-1.51-6.394l5.325-2.662ZM60.75 54a6.75 6.75 0 1 0 0-13.5 6.75 6.75 0 0 0 0 13.5ZM40.5 20.25a3.375 3.375 0 0 1 3.375 3.375v40.5a3.375 3.375 0 1 1-6.75 0v-40.5A3.375 3.375 0 0 1 40.5 20.25Z" fill="currentColor"></path>
  </symbol>
  <symbol fill="none" xmlns="http://www.w3.org/2000/svg" aria-hidden="true" viewBox="0 0 61 75" id="pin">
    <path fill-rule="evenodd" clip-rule="evenodd" d="M30.5 7.125c-13.323 0-23.625 10.302-23.625 23.625 0 9.661 6.015 18.98 12.616 26.2 3.24 3.543 6.491 6.44 8.935 8.45a82.766 82.766 0 0 0 2.074 1.654 82.766 82.766 0 0 0 2.074-1.653c2.444-2.011 5.695-4.908 8.935-8.452 6.601-7.22 12.616-16.538 12.616-26.199 0-13.323-10.301-23.625-23.625-23.625Zm0 64.125c-1.912 2.781-1.914 2.78-1.914 2.78l-.009-.006-.02-.015-.071-.049a55.39 55.39 0 0 1-1.163-.845 85.24 85.24 0 0 1-3.186-2.502c-2.62-2.155-6.118-5.27-9.628-9.11C7.61 53.959.125 43.027.125 30.75.125 13.698 13.448.375 30.5.375c17.051 0 30.375 13.323 30.375 30.375 0 12.276-7.485 23.208-14.384 30.754-3.51 3.839-7.009 6.954-9.628 9.109a85.24 85.24 0 0 1-3.186 2.502 55.39 55.39 0 0 1-1.163.845l-.07.05-.021.014-.007.004s-.004.003-1.916-2.778Zm0 0 1.912 2.781a3.378 3.378 0 0 1-3.826-.001l1.914-2.78Z" fill="currentColor"></path>
    <path fill-rule="evenodd" clip-rule="evenodd" d="M17 30.75c0-7.456 6.044-13.5 13.5-13.5S44 23.294 44 30.75s-6.044 13.5-13.5 13.5S17 38.206 17 30.75ZM30.5 24a6.75 6.75 0 1 0 0 13.5 6.75 6.75 0 0 0 0-13.5ZM12.222 51.603A43.724 43.724 0 0 1 30.5 47.625a43.725 43.725 0 0 1 18.283 3.98 3.375 3.375 0 1 1-2.816 6.135A36.974 36.974 0 0 0 30.5 54.375a36.976 36.976 0 0 0-15.463 3.363 3.375 3.375 0 0 1-2.815-6.135Z" fill="currentColor"></path>
  </symbol>
  <symbol xmlns="http://www.w3.org/2000/svg" aria-hidden="true" viewBox="0 0 46 36" id="mail">
    <path fill-rule="evenodd" clip-rule="evenodd" d="M.5 6.75A6.75 6.75 0 0 1 7.25 0h31.5a6.75 6.75 0 0 1 6.75 6.75v22.5A6.75 6.75 0 0 1 38.75 36H7.25A6.75 6.75 0 0 1 .5 29.25V6.75ZM7.25 4.5A2.25 2.25 0 0 0 5 6.75v22.5a2.25 2.25 0 0 0 2.25 2.25h31.5A2.25 2.25 0 0 0 41 29.25V6.75a2.25 2.25 0 0 0-2.25-2.25H7.25Z" fill="currentColor"></path>
    <path fill-rule="evenodd" clip-rule="evenodd" d="M3.092 5.558a2.25 2.25 0 0 1 3.1-.716l15.616 9.76a2.25 2.25 0 0 0 2.384 0l15.615-9.76a2.25 2.25 0 0 1 2.386 3.816l-15.615 9.76a6.75 6.75 0 0 1-7.155 0L3.807 8.657a2.25 2.25 0 0 1-.716-3.1Z" fill="currentColor"></path>
  </symbol>
  <symbol fill="none" xmlns="http://www.w3.org/2000/svg" viewBox="0 0 30 28" id="website">
    <path d="M24.844.809c1.172 0 2.168.41 2.988 1.23.82.82 1.23 1.797 1.23 2.93V7.78c0 .43-.136.782-.41 1.055a1.478 1.478 0 0 1-.996.351c-.39 0-.722-.117-.996-.351-.273-.274-.41-.625-.41-1.055V4.97c0-.39-.137-.703-.41-.938a1.356 1.356 0 0 0-.996-.41H5.214c-.39 0-.722.137-.995.41-.274.235-.41.547-.41.938v1.406h7.03c.391 0 .723.137.997.41.273.274.41.606.41.996 0 .43-.137.782-.41 1.055a1.478 1.478 0 0 1-.996.351H3.809v12.657c0 .39.136.722.41.996.273.273.605.41.996.41H8.73c.391 0 .723.137.997.41.273.235.41.567.41.996 0 .39-.137.723-.41.996a1.478 1.478 0 0 1-.997.352H5.215c-1.133 0-2.13-.41-2.988-1.23-.82-.82-1.23-1.797-1.23-2.93V4.969c0-1.133.41-2.11 1.23-2.93C3.086 1.22 4.082.81 5.215.81h19.629ZM19.336 7.78c1.367 0 2.637.274 3.809.82a9.267 9.267 0 0 1 3.046 2.11 9.944 9.944 0 0 1 2.11 3.105c.508 1.172.762 2.442.762 3.809a9.75 9.75 0 0 1-.762 3.809 9.944 9.944 0 0 1-2.11 3.105 9.764 9.764 0 0 1-3.164 2.11c-1.172.507-2.441.761-3.808.761a9.75 9.75 0 0 1-3.809-.762 9.942 9.942 0 0 1-3.105-2.109 9.942 9.942 0 0 1-2.11-3.105 9.75 9.75 0 0 1-.761-3.809c0-1.367.254-2.637.761-3.809.508-1.21 1.192-2.246 2.051-3.105a9.943 9.943 0 0 1 3.106-2.11 9.15 9.15 0 0 1 3.808-.82h.176Zm5.508 5.625c-.742-.937-1.602-1.62-2.578-2.05.195.312.351.644.468.996.157.312.313.664.47 1.054h1.64Zm-5.625-1.758a18.292 18.292 0 0 0-.88 1.758h1.817c-.312-.781-.625-1.367-.937-1.758Zm-6.973 5.977v.703l.117.703h2.285a4.276 4.276 0 0 1-.058-.703v-1.406c0-.235.02-.469.058-.703h-2.285l-.117.703v.703Zm1.406 4.219c.743.937 1.602 1.62 2.579 2.05a11.351 11.351 0 0 1-.528-.937 20.31 20.31 0 0 0-.41-1.113h-1.64Zm1.641-8.438c.156-.39.293-.742.41-1.054.156-.352.332-.684.527-.997-.976.43-1.835 1.114-2.578 2.051h1.641Zm3.926 10.196c.195-.274.351-.547.468-.82l.47-.938H18.34l.879 1.758Zm1.758-4.57c.078-.235.117-.47.117-.704v-1.406c0-.235-.04-.469-.117-.703H17.52a2.212 2.212 0 0 0-.118.703v1.406c0 .235.04.469.117.703h3.458Zm1.289 4.863c.976-.43 1.836-1.114 2.578-2.051h-1.64c-.157.39-.313.761-.47 1.113a5.253 5.253 0 0 1-.468.938Zm3.867-4.864c.039-.234.058-.468.058-.703a4.265 4.265 0 0 0 0-1.406c0-.235-.02-.469-.058-.703h-2.285c.039.234.058.468.058.703v1.406c0 .235-.02.469-.058.703h2.285Z" fill="currentColor"></path>
  </symbol>
  <symbol fill="none" xmlns="http://www.w3.org/2000/svg" aria-hidden="true" viewBox="0 0 40 42" id="github">
    <path d="M15.125 34.308c-8.959 2.687-8.959-4.48-12.542-5.375m25.083 10.75v-6.934a6.037 6.037 0 0 0-1.684-4.676c5.626-.627 11.538-2.76 11.538-12.542a9.747 9.747 0 0 0-2.687-6.719 9.084 9.084 0 0 0-.161-6.754s-2.114-.627-7.006 2.651a23.972 23.972 0 0 0-12.541 0c-4.892-3.278-7.006-2.651-7.006-2.651a9.084 9.084 0 0 0-.161 6.754 9.747 9.747 0 0 0-2.687 6.773c0 9.71 5.912 11.843 11.538 12.541a6.039 6.039 0 0 0-1.684 4.623v6.934" stroke="currentColor" stroke-width="4" stroke-linecap="round" stroke-linejoin="round"></path>
  </symbol>
  <symbol aria-hidden="true" xmlns="http://www.w3.org/2000/svg" viewBox="0 0 80 80" id="connect">
    <path fill-rule="evenodd" clip-rule="evenodd" d="M27.375 34.5c0-7.456 6.044-13.5 13.5-13.5s13.5 6.044 13.5 13.5S48.331 48 40.875 48s-13.5-6.044-13.5-13.5Zm13.5-6.75a6.75 6.75 0 1 0 0 13.5 6.75 6.75 0 0 0 0-13.5ZM51 58.125C51 52.533 55.533 48 61.125 48S71.25 52.533 71.25 58.125 66.717 68.25 61.125 68.25 51 63.717 51 58.125Zm10.125-3.375a3.375 3.375 0 1 0 0 6.75 3.375 3.375 0 0 0 0-6.75ZM51 10.875C51 5.283 55.533.75 61.125.75S71.25 5.283 71.25 10.875 66.717 21 61.125 21 51 16.467 51 10.875ZM61.125 7.5a3.375 3.375 0 1 0 0 6.75 3.375 3.375 0 0 0 0-6.75Zm-60.75 27c0-5.592 4.533-10.125 10.125-10.125S20.625 28.908 20.625 34.5 16.092 44.625 10.5 44.625.375 40.092.375 34.5ZM10.5 31.125a3.375 3.375 0 1 0 0 6.75 3.375 3.375 0 0 0 0-6.75Z" fill="currentColor"></path>
    <path fill-rule="evenodd" clip-rule="evenodd" d="M13.875 34.5a3.375 3.375 0 0 1 3.375-3.375h13.5a3.375 3.375 0 1 1 0 6.75h-13.5a3.375 3.375 0 0 1-3.375-3.375Zm31.589 5.845a3.375 3.375 0 0 1 4.754.432l8.437 10.125a3.375 3.375 0 0 1-5.185 4.321l-8.438-10.125a3.375 3.375 0 0 1 .432-4.753Zm12.759-27a3.375 3.375 0 0 1 .432 4.753l-8.437 10.125a3.375 3.375 0 1 1-5.186-4.321l8.438-10.125a3.375 3.375 0 0 1 4.753-.432Z" fill="currentColor"></path>
  </symbol>
  <symbol fill="none" aria-hidden="true" xmlns="http://www.w3.org/2000/svg"  viewBox="0 0 300 271" id="twitter">
    <path d="M236 0h46L181 115l118 156h-92.6l-72.5-94.8-83 94.8h-46l107-123L-1.1 0h94.9l65.5 86.6zm-16.1 244h25.5L80.4 26H53z" fill="currentColor" />
  </symbol>
  <symbol fill="none" aria-hidden="true" xmlns="http://www.w3.org/2000/svg" viewBox="0 0 24 26" id="pen">
    <path fill-rule="evenodd" clip-rule="evenodd" d="m19.074.369 4.015 4.08a1.289 1.289 0 0 1 0 1.793L12.402 17.099a1.255 1.255 0 0 1-.89.365h-4c-.688 0-1.25-.572-1.25-1.27v-4.063c0-.35.124-.667.359-.905L17.308.369a1.24 1.24 0 0 1 1.766 0ZM9.292 12.131l2.235 2.27 4.906-4.985-2.234-2.27-4.907 4.985Zm6.672-6.778 2.235 2.27 2.234-2.27-2.234-2.27-2.235 2.27Z" fill="currentColor"/>
    <path d="M3.152 25.4h11.234c.688 0 1.25-.571 1.25-1.27 0-.698-.562-1.27-1.25-1.27H3.152c-.406 0-.563-.317-.61-.444-.046-.127-.109-.476.266-.778l1.469-1.317a1.29 1.29 0 0 0 .11-1.794 1.243 1.243 0 0 0-1.766-.11l-1.422 1.269a3.206 3.206 0 0 0-1.016 3.571C.636 24.56 1.793 25.4 3.152 25.4Z" fill="currentColor"/>
  </symbol>
  <symbol fill="none"  aria-hidden="true" xmlns="http://www.w3.org/2000/svg" viewBox="0 0 23 23" id="info">
    <path d="M11.5 23C5.16 23 0 17.84 0 11.5S5.16 0 11.5 0 23 5.16 23 11.5 17.84 23 11.5 23Zm0-20.7c-5.074 0-9.2 4.126-9.2 9.2 0 5.074 4.126 9.2 9.2 9.2 5.074 0 9.2-4.126 9.2-9.2 0-5.074-4.126-9.2-9.2-9.2Zm0 15.525c-.633 0-1.15-.517-1.15-1.15v-4.6c0-.632.518-1.15 1.15-1.15.633 0 1.15.518 1.15 1.15v4.6c0 .633-.518 1.15-1.15 1.15Zm0-9.2c-.79 0-1.438-.647-1.438-1.438 0-.79.647-1.437 1.438-1.437.79 0 1.438.647 1.438 1.438 0 .79-.647 1.437-1.438 1.437Z" fill="currentColor"/>
  </symbol>
  <symbol id="braceLeft" viewBox="0 0 72 208" fill="none">
    <path d="M39.7404 56.7948L44.7395 56.7022L39.7404 56.7948ZM3.31832 98.8277C0.71777 99.7564 -0.637477 102.618 0.29129 105.218C1.22006 107.819 4.08113 109.174 6.68168 108.245L3.31832 98.8277ZM71.3226 0C63.8957 0 57.6007 1.72519 52.424 5.0479C47.2582 8.36366 43.5351 13.0586 40.8979 18.4765C35.7155 29.1233 34.4853 43.0685 34.7412 56.8873L44.7395 56.7022C44.4901 43.2341 45.7865 31.2818 49.8893 22.8531C51.8947 18.7331 54.5038 15.5957 57.8257 13.4635C61.1367 11.3383 65.4849 10 71.3226 10V0ZM34.7412 56.8873C35.0204 71.9614 27.4164 82.3316 19.3758 89.1407C15.3481 92.5516 11.2797 94.9992 8.21233 96.5924C6.68447 97.3859 5.42091 97.9593 4.55686 98.3279C4.12529 98.512 3.79475 98.6444 3.58232 98.7271C3.47614 98.7685 3.39961 98.7974 3.35486 98.8141C3.33249 98.8224 3.31808 98.8277 3.3119 98.8299C3.3088 98.8311 3.30777 98.8314 3.30883 98.8311C3.30936 98.8309 3.31041 98.8305 3.31199 98.8299C3.31278 98.8296 3.31437 98.8291 3.31476 98.8289C3.31647 98.8283 3.31832 98.8277 5 103.536C6.68168 108.245 6.6838 108.244 6.68605 108.244C6.68698 108.243 6.68937 108.242 6.69124 108.242C6.69497 108.24 6.69924 108.239 6.70405 108.237C6.71368 108.234 6.72547 108.229 6.73937 108.224C6.76719 108.214 6.8035 108.201 6.84804 108.184C6.93711 108.151 7.05912 108.105 7.21186 108.045C7.51727 107.926 7.94606 107.754 8.48045 107.526C9.54835 107.07 11.0433 106.39 12.8217 105.467C16.3668 103.625 21.102 100.783 25.8383 96.772C35.3258 88.7375 45.092 75.7369 44.7395 56.7022L34.7412 56.8873Z" fill="currentColor"/>
    <path d="M39.7404 150.741L44.7395 150.834L39.7404 150.741ZM3.31832 108.708C0.71777 107.78 -0.637477 104.919 0.29129 102.318C1.22006 99.7175 4.08113 98.3623 6.68168 99.2911L3.31832 108.708ZM71.3226 207.536C63.8957 207.536 57.6007 205.811 52.424 202.488C47.2582 199.172 43.5351 194.478 40.8979 189.06C35.7155 178.413 34.4853 164.468 34.7412 150.649L44.7395 150.834C44.4901 164.302 45.7865 176.254 49.8893 184.683C51.8947 188.803 54.5038 191.94 57.8257 194.073C61.1367 196.198 65.4849 197.536 71.3226 197.536V207.536ZM34.7412 150.649C35.0204 135.575 27.4164 125.205 19.3758 118.395C15.3481 114.985 11.2797 112.537 8.21233 110.944C6.68447 110.15 5.42091 109.577 4.55686 109.208C4.12529 109.024 3.79475 108.892 3.58232 108.809C3.47614 108.768 3.39961 108.739 3.35486 108.722C3.33249 108.714 3.31808 108.708 3.3119 108.706C3.3088 108.705 3.30777 108.705 3.30883 108.705C3.30936 108.705 3.31041 108.706 3.31199 108.706C3.31278 108.706 3.31437 108.707 3.31476 108.707C3.31647 108.708 3.31832 108.708 5 104C6.68168 99.2911 6.6838 99.2918 6.68605 99.2926C6.68698 99.293 6.68937 99.2938 6.69124 99.2945C6.69497 99.2958 6.69924 99.2974 6.70405 99.2991C6.71368 99.3026 6.72547 99.3068 6.73937 99.3119C6.76719 99.3221 6.8035 99.3354 6.84804 99.352C6.93711 99.3852 7.05912 99.4314 7.21186 99.4909C7.51727 99.6099 7.94606 99.7822 8.48045 100.01C9.54835 100.466 11.0433 101.146 12.8217 102.069C16.3668 103.911 21.102 106.753 25.8383 110.764C35.3258 118.799 45.092 131.799 44.7395 150.834L34.7412 150.649Z" fill="currentColor"/>
  </symbol>

  <symbol id="braceRight" viewBox="0 0 72 208" fill="none">
    <path d="M31.5819 56.7948L26.5827 56.7022L31.5819 56.7948ZM68.0039 98.8277C70.6045 99.7564 71.9597 102.618 71.031 105.218C70.1022 107.819 67.2411 109.174 64.6406 108.245L68.0039 98.8277ZM-0.000289917 0C7.42654 0 13.7216 1.72519 18.8982 5.0479C24.0641 8.36366 27.7872 13.0586 30.4244 18.4765C35.6068 29.1233 36.8369 43.0685 36.581 56.8873L26.5827 56.7022C26.8321 43.2341 25.5357 31.2818 21.433 22.8531C19.4276 18.7331 16.8184 15.5957 13.4966 13.4635C10.1856 11.3383 5.83739 10 -0.000289917 10V0ZM36.581 56.8873C36.3019 71.9614 43.9059 82.3316 51.9465 89.1407C55.9742 92.5516 60.0426 94.9992 63.1099 96.5924C64.6378 97.3859 65.9014 97.9593 66.7654 98.3279C67.197 98.512 67.5275 98.6444 67.7399 98.7271C67.8461 98.7685 67.9227 98.7974 67.9674 98.8141C67.9898 98.8224 68.0042 98.8277 68.0104 98.8299C68.0135 98.8311 68.0145 98.8314 68.0134 98.8311C68.0129 98.8309 68.0119 98.8305 68.0103 98.8299C68.0095 98.8296 68.0079 98.8291 68.0075 98.8289C68.0058 98.8283 68.0039 98.8277 66.3223 103.536C64.6406 108.245 64.6385 108.244 64.6362 108.244C64.6353 108.243 64.6329 108.242 64.631 108.242C64.6273 108.24 64.623 108.239 64.6182 108.237C64.6086 108.234 64.5968 108.229 64.5829 108.224C64.5551 108.214 64.5188 108.201 64.4742 108.184C64.3852 108.151 64.2631 108.105 64.1104 108.045C63.805 107.926 63.3762 107.754 62.8418 107.526C61.7739 107.07 60.279 106.39 58.5006 105.467C54.9554 103.625 50.2203 100.783 45.484 96.772C35.9964 88.7375 26.2302 75.7369 26.5827 56.7022L36.581 56.8873Z" fill="currentColor"/>
    <path d="M31.5819 150.741L26.5827 150.834L31.5819 150.741ZM68.0039 108.708C70.6045 107.78 71.9597 104.919 71.031 102.318C70.1022 99.7175 67.2411 98.3623 64.6406 99.2911L68.0039 108.708ZM-0.000289917 207.536C7.42654 207.536 13.7216 205.811 18.8982 202.488C24.0641 199.172 27.7872 194.478 30.4244 189.06C35.6068 178.413 36.8369 164.468 36.581 150.649L26.5827 150.834C26.8321 164.302 25.5357 176.254 21.433 184.683C19.4276 188.803 16.8184 191.94 13.4966 194.073C10.1856 196.198 5.83739 197.536 -0.000289917 197.536V207.536ZM36.581 150.649C36.3019 135.575 43.9059 125.205 51.9465 118.395C55.9742 114.985 60.0426 112.537 63.1099 110.944C64.6378 110.15 65.9014 109.577 66.7654 109.208C67.197 109.024 67.5275 108.892 67.7399 108.809C67.8461 108.768 67.9227 108.739 67.9674 108.722C67.9898 108.714 68.0042 108.708 68.0104 108.706C68.0135 108.705 68.0145 108.705 68.0134 108.705C68.0129 108.705 68.0119 108.706 68.0103 108.706C68.0095 108.706 68.0079 108.707 68.0075 108.707C68.0058 108.708 68.0039 108.708 66.3223 104C64.6406 99.2911 64.6385 99.2918 64.6362 99.2926C64.6353 99.293 64.6329 99.2938 64.631 99.2945C64.6273 99.2958 64.623 99.2974 64.6182 99.2991C64.6086 99.3026 64.5968 99.3068 64.5829 99.3119C64.5551 99.3221 64.5188 99.3354 64.4742 99.352C64.3852 99.3852 64.2631 99.4314 64.1104 99.4909C63.805 99.6099 63.3762 99.7822 62.8418 100.01C61.7739 100.466 60.279 101.146 58.5006 102.069C54.9554 103.911 50.2203 106.753 45.484 110.764C35.9964 118.799 26.2302 131.799 26.5827 150.834L36.581 150.649Z" fill="currentColor"/>
  </symbol>
  <symbol id="codeConnect" viewBox="0 0 688 78" fill="none">
    <path d="M28.7654 77.4276C19.4271 77.4276 12.282 74.3845 7.32985 68.2983C2.44849 62.1414 0.0078125 53.2599 0.0078125 41.6537C0.0078125 30.0476 2.44849 21.2014 7.32985 15.1153C12.282 8.95834 19.4271 5.87988 28.7654 5.87988C36.5473 5.87988 43.268 8.39219 48.9275 13.4168L42.4544 23.2891C38.3513 19.6091 33.8236 17.7691 28.8715 17.7691C18.2599 17.7691 12.954 25.7307 12.954 41.6537C12.954 57.5768 18.2599 65.5383 28.8715 65.5383C31.7013 65.5383 34.3188 64.9722 36.7241 63.8399C39.1295 62.7076 41.5348 60.9383 43.9401 58.5322L51.156 67.7676C47.9017 71.0937 44.506 73.5353 40.9688 75.0922C37.4316 76.6491 33.3638 77.4276 28.7654 77.4276Z" fill="currentColor"/>
    <path d="M87.3514 77.4275C82.2578 77.4275 77.7656 76.3306 73.8746 74.1367C69.9837 71.8721 66.9417 68.7583 64.7486 64.7952C62.5555 60.7614 61.459 56.126 61.459 50.889C61.459 45.5814 62.5555 40.946 64.7486 36.9829C66.9417 33.0198 69.9837 29.9414 73.8746 27.7475C77.7656 25.4829 82.2578 24.3506 87.3514 24.3506C92.445 24.3506 96.9373 25.4829 100.828 27.7475C104.719 29.9414 107.761 33.0198 109.954 36.9829C112.147 40.946 113.244 45.5814 113.244 50.889C113.244 56.126 112.147 60.7614 109.954 64.7952C107.761 68.7583 104.719 71.8721 100.828 74.1367C96.9373 76.3306 92.445 77.4275 87.3514 77.4275ZM87.3514 65.9629C91.4546 65.9629 94.6735 64.6537 97.008 62.0352C99.3426 59.346 100.51 55.6306 100.51 50.889C100.51 46.1475 99.3426 42.4675 97.008 39.849C94.6735 37.1598 91.4546 35.8152 87.3514 35.8152C83.2482 35.8152 80.0294 37.1598 77.6948 39.849C75.3603 42.4675 74.193 46.1475 74.193 50.889C74.193 55.6306 75.3603 59.346 77.6948 62.0352C80.0294 64.6537 83.2482 65.9629 87.3514 65.9629Z" fill="currentColor"/>
    <path d="M146.359 77.4273C139.709 77.4273 134.404 75.0565 130.442 70.315C126.551 65.5026 124.605 59.0273 124.605 50.8888C124.605 42.7503 126.551 36.3103 130.442 31.5688C134.404 26.7565 139.709 24.3503 146.359 24.3503C148.694 24.3503 150.993 24.7042 153.257 25.4119C155.591 26.0488 157.891 27.0749 160.154 28.4903V0.78418H172.676V76.1534H163.444L162.383 71.9073C157.148 75.5873 151.807 77.4273 146.359 77.4273ZM149.543 65.9626C153.151 65.9626 156.688 65.0073 160.154 63.0965V38.6811C156.688 36.7703 153.151 35.8149 149.543 35.8149C141.336 35.8149 137.233 40.8396 137.233 50.8888C137.233 60.938 141.336 65.9626 149.543 65.9626Z" fill="currentColor"/>
    <path d="M215.45 77.4275C206.677 77.4275 199.78 75.0567 194.757 70.3152C189.734 65.5737 187.223 59.0983 187.223 50.889C187.223 45.5814 188.319 40.946 190.512 36.9829C192.705 33.0198 195.747 29.9414 199.638 27.7475C203.529 25.4829 208.057 24.3506 213.221 24.3506C218.244 24.3506 222.595 25.4121 226.274 27.5352C230.023 29.5875 232.924 32.489 234.975 36.2398C237.027 39.9906 238.052 44.3783 238.052 49.4029C238.052 50.3229 238.017 51.2783 237.946 52.269C237.876 53.189 237.734 54.1798 237.522 55.2414H199.957C201.301 62.9552 206.501 66.8121 215.556 66.8121C220.862 66.8121 226.061 65.1844 231.155 61.929L235.824 71.1644C232.57 73.3583 229.316 74.9506 226.061 75.9414C222.807 76.9321 219.27 77.4275 215.45 77.4275ZM200.063 45.7937H225.743C224.54 38.5752 220.331 34.966 213.115 34.966C205.97 34.966 201.619 38.5752 200.063 45.7937Z" fill="currentColor"/>
    <path d="M289.853 77.4276C280.515 77.4276 273.37 74.3845 268.418 68.2983C263.536 62.1414 261.096 53.2599 261.096 41.6537C261.096 30.0476 263.536 21.2014 268.418 15.1153C273.37 8.95834 280.515 5.87988 289.853 5.87988C297.635 5.87988 304.356 8.39219 310.015 13.4168L303.542 23.2891C299.439 19.6091 294.912 17.7691 289.959 17.7691C279.348 17.7691 274.042 25.7307 274.042 41.6537C274.042 57.5768 279.348 65.5383 289.959 65.5383C292.789 65.5383 295.407 64.9722 297.812 63.8399C300.217 62.7076 302.623 60.9383 305.028 58.5322L312.244 67.7676C308.99 71.0937 305.594 73.5353 302.057 75.0922C298.519 76.6491 294.452 77.4276 289.853 77.4276Z" fill="currentColor"/>
    <path d="M348.437 77.4275C343.344 77.4275 338.852 76.3306 334.961 74.1367C331.07 71.8721 328.028 68.7583 325.835 64.7952C323.641 60.7614 322.545 56.126 322.545 50.889C322.545 45.5814 323.641 40.946 325.835 36.9829C328.028 33.0198 331.07 29.9414 334.961 27.7475C338.852 25.4829 343.344 24.3506 348.437 24.3506C353.531 24.3506 358.023 25.4829 361.914 27.7475C365.805 29.9414 368.847 33.0198 371.04 36.9829C373.233 40.946 374.33 45.5814 374.33 50.889C374.33 56.126 373.233 60.7614 371.04 64.7952C368.847 68.7583 365.805 71.8721 361.914 74.1367C358.023 76.3306 353.531 77.4275 348.437 77.4275ZM348.437 65.9629C352.541 65.9629 355.759 64.6537 358.094 62.0352C360.429 59.346 361.596 55.6306 361.596 50.889C361.596 46.1475 360.429 42.4675 358.094 39.849C355.759 37.1598 352.541 35.8152 348.437 35.8152C344.334 35.8152 341.115 37.1598 338.781 39.849C336.446 42.4675 335.279 46.1475 335.279 50.889C335.279 55.6306 336.446 59.346 338.781 62.0352C341.115 64.6537 344.334 65.9629 348.437 65.9629Z" fill="currentColor"/>
    <path d="M388.877 76.1537V25.6244H398.109L399.17 29.9767C401.859 27.9952 404.511 26.5798 407.129 25.7306C409.817 24.8106 412.647 24.3506 415.618 24.3506C421.561 24.3506 426.124 26.049 429.307 29.446C432.491 32.7721 434.083 37.549 434.083 43.7767V76.1537H421.561V45.6875C421.561 42.0783 420.853 39.5306 419.439 38.0444C418.094 36.5583 415.724 35.8152 412.329 35.8152C410.348 35.8152 408.473 36.0629 406.705 36.5583C405.007 36.9829 403.238 37.6906 401.399 38.6814V76.1537H388.877Z" fill="currentColor"/>
    <path d="M451.492 76.1537V25.6244H460.724L461.786 29.9767C464.474 27.9952 467.127 26.5798 469.744 25.7306C472.433 24.8106 475.262 24.3506 478.234 24.3506C484.176 24.3506 488.739 26.049 491.923 29.446C495.106 32.7721 496.698 37.549 496.698 43.7767V76.1537H484.176V45.6875C484.176 42.0783 483.469 39.5306 482.054 38.0444C480.71 36.5583 478.34 35.8152 474.944 35.8152C472.963 35.8152 471.088 36.0629 469.32 36.5583C467.622 36.9829 465.853 37.6906 464.014 38.6814V76.1537H451.492Z" fill="currentColor"/>
    <path d="M539.155 77.4275C530.382 77.4275 523.485 75.0567 518.462 70.3152C513.439 65.5737 510.928 59.0983 510.928 50.889C510.928 45.5814 512.024 40.946 514.217 36.9829C516.41 33.0198 519.452 29.9414 523.343 27.7475C527.234 25.4829 531.762 24.3506 536.926 24.3506C541.949 24.3506 546.3 25.4121 549.979 27.5352C553.728 29.5875 556.629 32.489 558.68 36.2398C560.732 39.9906 561.758 44.3783 561.758 49.4029C561.758 50.3229 561.722 51.2783 561.651 52.269C561.581 53.189 561.439 54.1798 561.227 55.2414H523.662C525.006 62.9552 530.206 66.8121 539.261 66.8121C544.567 66.8121 549.766 65.1844 554.86 61.929L559.529 71.1644C556.275 73.3583 553.021 74.9506 549.766 75.9414C546.512 76.9321 542.975 77.4275 539.155 77.4275ZM523.768 45.7937H549.448C548.245 38.5752 544.036 34.966 536.82 34.966C529.675 34.966 525.324 38.5752 523.768 45.7937Z" fill="currentColor"/>
    <path d="M603.15 77.4275C597.632 77.4275 592.822 76.366 588.718 74.2429C584.686 72.049 581.538 68.9706 579.274 65.0075C577.081 61.0444 575.984 56.3383 575.984 50.889C575.984 45.4398 577.081 40.7337 579.274 36.7706C581.538 32.8075 584.686 29.7644 588.718 27.6414C592.822 25.4475 597.632 24.3506 603.15 24.3506C609.729 24.3506 615.743 26.0844 621.19 29.5521L616.839 39.849C614.222 38.3629 611.887 37.3367 609.836 36.7706C607.855 36.1337 605.732 35.8152 603.469 35.8152C593.635 35.8152 588.718 40.8398 588.718 50.889C588.718 60.9383 593.635 65.9629 603.469 65.9629C605.945 65.9629 608.279 65.609 610.472 64.9014C612.665 64.1937 615.212 62.9552 618.113 61.186L622.782 71.1644C616.91 75.3398 610.366 77.4275 603.15 77.4275Z" fill="currentColor"/>
    <path d="M670.012 77.4276C656.995 77.4276 650.487 70.9522 650.487 58.0014V36.8768H635.736V25.6245H650.487V11.2937L663.01 5.87988V25.6245H682.109V36.8768H663.01V56.0906C663.01 59.6999 663.68 62.2476 665.024 63.7337C666.439 65.2199 668.846 65.963 672.242 65.963C676.416 65.963 680.449 64.7599 684.339 62.3537L687.521 72.9691C682.428 75.9414 676.591 77.4276 670.012 77.4276Z" fill="currentColor"/>
  </symbol>

  <symbol id="mastodon" viewBox="0 0 512 512" fill="none">
    <path fill="currentColor" stroke="none" stroke-linecap="round" stroke-linejoin="round" stroke-miterlimit="10" stroke-width="50" d="M451.839 183.897c0-91.111-59.709-117.825-59.709-117.825-58.584-26.902-214.185-26.622-272.206 0 0 0-59.709 26.713-59.709 117.825 0 108.451-6.188 243.148 98.984 270.988 37.961 10.027 70.582 12.185 96.827 10.685 47.617-2.624 74.331-16.967 74.331-16.967l-1.593-34.589s-34.026 10.688-72.269 9.468c-37.87-1.313-77.801-4.124-83.988-50.616-.563-4.124-.843-8.436-.843-13.029 80.237 19.589 148.661 8.531 167.504 6.28 52.586-6.28 98.422-38.713 104.233-68.333 9.189-46.68 8.438-113.887 8.438-113.887h0zM381.443 300h-43.68V194.207c0-46.586-59.992-48.367-59.992 6.468v58.584h-43.397v-58.584c0-54.835-59.991-53.054-59.991-6.468V300H130.61c0-114.449-4.874-137.382 17.247-162.784 24.277-27.09 74.801-28.87 97.297 5.718l10.873 18.278 10.873-18.278c22.591-34.777 73.207-32.62 97.296-5.718 22.216 25.59 17.247 48.428 17.247 162.784h0z"/>
  </symbol>
  <symbol id="bluesky" viewBox="0 -3.268 64 68.414">
    <path fill="currentColor" d="M13.873 3.805C21.21 9.332 29.103 20.537 32 26.55v15.882c0-.338-.13.044-.41.867-1.512 4.456-7.418 21.847-20.923 7.944-7.111-7.32-3.819-14.64 9.125-16.85-7.405 1.264-15.73-.825-18.014-9.015C1.12 23.022 0 8.51 0 6.55 0-3.268 8.579-.182 13.873 3.805zm36.254 0C42.79 9.332 34.897 20.537 32 26.55v15.882c0-.338.13.044.41.867 1.512 4.456 7.418 21.847 20.923 7.944 7.111-7.32 3.819-14.64-9.125-16.85 7.405 1.264 15.73-.825 18.014-9.015C62.88 23.022 64 8.51 64 6.55c0-9.818-8.578-6.732-13.873-2.745z"/>
  </symbol>

</svg>
