<svg class="ui5con-detail__icon" aria-hidden="true" fill="none" xmlns="http://www.w3.org/2000/svg" viewBox="0 0 68 75">
  <path fill-rule="evenodd" clip-rule="evenodd" d="M20.375 51c0-13.048 10.577-23.625 23.625-23.625S67.625 37.952 67.625 51 57.048 74.625 44 74.625 20.375 64.048 20.375 51ZM44 34.125c-9.32 0-16.875 7.555-16.875 16.875S34.68 67.875 44 67.875 60.875 60.32 60.875 51 53.32 34.125 44 34.125Z" fill="currentColor"/>
  <path fill-rule="evenodd" clip-rule="evenodd" d="M44 40.875a3.375 3.375 0 0 1 3.375 3.375v5.352l2.386 2.387a3.375 3.375 0 0 1-4.773 4.773l-3.374-3.376A3.375 3.375 0 0 1 40.625 51v-6.75A3.375 3.375 0 0 1 44 40.875Z" fill="currentColor"/>
  <path fill-rule="evenodd" clip-rule="evenodd" d="M10.25 13.875a3.375 3.375 0 0 0-3.375 3.375v40.5a3.375 3.375 0 0 0 3.375 3.375h3.375a3.375 3.375 0 1 1 0 6.75H10.25C4.658 67.875.125 63.342.125 57.75v-40.5c0-5.592 4.533-10.125 10.125-10.125h40.5c5.592 0 10.125 4.533 10.125 10.125v3.375a3.375 3.375 0 1 1-6.75 0V17.25a3.375 3.375 0 0 0-3.375-3.375h-40.5Z" fill="currentColor"/>
  <path fill-rule="evenodd" clip-rule="evenodd" d="M.125 30.75A3.375 3.375 0 0 1 3.5 27.375H17a3.375 3.375 0 1 1 0 6.75H3.5A3.375 3.375 0 0 1 .125 30.75ZM40.625.375A3.375 3.375 0 0 1 44 3.75v13.5a3.375 3.375 0 1 1-6.75 0V3.75A3.375 3.375 0 0 1 40.625.375Zm-20.25 0A3.375 3.375 0 0 1 23.75 3.75v13.5a3.375 3.375 0 1 1-6.75 0V3.75A3.375 3.375 0 0 1 20.375.375Z" fill="currentColor"/>
</svg>
