<svg fill="none" xmlns="http://www.w3.org/2000/svg" viewBox="0 0 30 28">
  <path d="M24.844.809c1.172 0 2.168.41 2.988 1.23.82.82 1.23 1.797 1.23 2.93V7.78c0 .43-.136.782-.41 1.055a1.478 1.478 0 0 1-.996.351c-.39 0-.722-.117-.996-.351-.273-.274-.41-.625-.41-1.055V4.97c0-.39-.137-.703-.41-.938a1.356 1.356 0 0 0-.996-.41H5.214c-.39 0-.722.137-.995.41-.274.235-.41.547-.41.938v1.406h7.03c.391 0 .723.137.997.41.273.274.41.606.41.996 0 .43-.137.782-.41 1.055a1.478 1.478 0 0 1-.996.351H3.809v12.657c0 .39.136.722.41.996.273.273.605.41.996.41H8.73c.391 0 .723.137.997.41.273.235.41.567.41.996 0 .39-.137.723-.41.996a1.478 1.478 0 0 1-.997.352H5.215c-1.133 0-2.13-.41-2.988-1.23-.82-.82-1.23-1.797-1.23-2.93V4.969c0-1.133.41-2.11 1.23-2.93C3.086 1.22 4.082.81 5.215.81h19.629ZM19.336 7.78c1.367 0 2.637.274 3.809.82a9.267 9.267 0 0 1 3.046 2.11 9.944 9.944 0 0 1 2.11 3.105c.508 1.172.762 2.442.762 3.809a9.75 9.75 0 0 1-.762 3.809 9.944 9.944 0 0 1-2.11 3.105 9.764 9.764 0 0 1-3.164 2.11c-1.172.507-2.441.761-3.808.761a9.75 9.75 0 0 1-3.809-.762 9.942 9.942 0 0 1-3.105-2.109 9.942 9.942 0 0 1-2.11-3.105 9.75 9.75 0 0 1-.761-3.809c0-1.367.254-2.637.761-3.809.508-1.21 1.192-2.246 2.051-3.105a9.943 9.943 0 0 1 3.106-2.11 9.15 9.15 0 0 1 3.808-.82h.176Zm5.508 5.625c-.742-.937-1.602-1.62-2.578-2.05.195.312.351.644.468.996.157.312.313.664.47 1.054h1.64Zm-5.625-1.758a18.292 18.292 0 0 0-.88 1.758h1.817c-.312-.781-.625-1.367-.937-1.758Zm-6.973 5.977v.703l.117.703h2.285a4.276 4.276 0 0 1-.058-.703v-1.406c0-.235.02-.469.058-.703h-2.285l-.117.703v.703Zm1.406 4.219c.743.937 1.602 1.62 2.579 2.05a11.351 11.351 0 0 1-.528-.937 20.31 20.31 0 0 0-.41-1.113h-1.64Zm1.641-8.438c.156-.39.293-.742.41-1.054.156-.352.332-.684.527-.997-.976.43-1.835 1.114-2.578 2.051h1.641Zm3.926 10.196c.195-.274.351-.547.468-.82l.47-.938H18.34l.879 1.758Zm1.758-4.57c.078-.235.117-.47.117-.704v-1.406c0-.235-.04-.469-.117-.703H17.52a2.212 2.212 0 0 0-.118.703v1.406c0 .235.04.469.117.703h3.458Zm1.289 4.863c.976-.43 1.836-1.114 2.578-2.051h-1.64c-.157.39-.313.761-.47 1.113a5.253 5.253 0 0 1-.468.938Zm3.867-4.864c.039-.234.058-.468.058-.703a4.265 4.265 0 0 0 0-1.406c0-.235-.02-.469-.058-.703h-2.285c.039.234.058.468.058.703v1.406c0 .235-.02.469-.058.703h2.285Z" fill="currentColor"/>
</svg>
