<svg xmlns="http://www.w3.org/2000/svg" viewBox="0 0 80 80">
    <g fill="#ffa42c">
        <path class="st0" d="M42.9,2.2c3.6,0.3,7.1,1.3,10.3,3c3.1,1.6,6,3.8,8.4,6.4c2.4,2.6,4.3,5.7,5.6,9c1.3,3.4,2,7.1,2,10.7c-0.1,1.9-0.5,3.7-1.2,5.4c-0.9,2.4-2,4.8-3.3,7.1c-1.4,2.5-2.9,5.2-4.6,7.9c-1.7,2.7-3.5,5.5-5.3,8.2c-4.3,6.3-9.1,13-14.5,20.1c-5.6-7-10.5-13.7-14.8-20c-1.8-2.6-3.6-5.3-5.4-8.1s-3.4-5.5-4.7-8.1c-1.2-2.3-2.4-4.7-3.4-7.2c-0.8-1.7-1.2-3.5-1.3-5.4c0-3.9,0.7-7.8,2.3-11.5c3-7,8.5-12.6,15.5-15.5C32.1,2.8,35.9,2,39.9,2h1.6C42,2,42.5,2.1,42.9,2.2z M40.2,71.9c3-4.1,6-8.3,8.9-12.6s5.5-8.2,7.7-11.9s4-7,5.4-9.8s2.1-5,2.1-6.4c0-3.1-0.6-6.1-1.7-8.9C61.5,19.6,60,17,58,14.8c-1.9-2.2-4.3-4-6.9-5.4c-2.7-1.4-5.6-2.3-8.7-2.6h-2.7c-3.2,0-6.4,0.6-9.4,1.9c-2.8,1.3-5.4,3.1-7.6,5.3s-4,4.9-5.3,7.8c-1.3,3-1.9,6.2-1.9,9.4c0,1.5,0.8,3.8,2.3,6.9c1.8,3.5,3.7,6.9,5.9,10.2c2.4,3.8,5,7.7,7.9,11.9C34.5,64.4,37.3,68.3,40.2,71.9zM39.9,16.6c8.1,0,14.6,6.6,14.6,14.7c0,3.9-1.5,7.6-4.3,10.3c-5.7,5.7-15,5.7-20.7,0s-5.7-15,0-20.7C32.2,18.1,36,16.5,39.9,16.6zM39.9,41c2.6,0.1,5.1-1,6.9-2.9c3.8-3.8,3.8-10,0-13.8s-10-3.8-13.8,0s-3.8,10,0.1,13.8C34.9,40,37.3,41,39.9,41L39.9,41z"></path>
    </g>
</svg>
