<svg xmlns="http://www.w3.org/2000/svg" fill="none" viewBox="0 0 4703 440">
  <path fill="#F16A36" d="M4333 436.5c16.57 0 30-13.431 30-30 0-16.569-13.43-30-30-30s-30 13.431-30 30c0 16.569 13.43 30 30 30Z"/>
  <path fill="#fff" d="M4321.09 415.602c-1.53 0-2.87-.246-4.01-.737-1.13-.491-2.02-1.252-2.65-2.285-.64-1.041-.95-2.353-.95-3.935V397.46h3.74v10.893c0 1.371.35 2.39 1.04 3.059.7.669 1.68 1.003 2.94 1.003 1.27 0 2.28-.351 3.03-1.054.75-.702 1.13-1.747 1.13-3.135V397.46h3.74v10.994c0 1.591-.33 2.92-1.01 3.986-.67 1.067-1.61 1.862-2.81 2.387-1.2.516-2.6.775-4.19.775Zm11.35-18.142h3.75v17.888h-3.75V397.46Zm13.64 6.03c1.14 0 2.13.25 2.97.749a4.923 4.923 0 0 1 1.94 2.07c.45.888.67 1.917.67 3.085 0 1.21-.25 2.285-.77 3.224-.51.931-1.26 1.663-2.26 2.196-.99.525-2.19.788-3.59.788-1.56 0-2.84-.309-3.85-.927a5.742 5.742 0 0 1-2.26-2.552l2.98-1.536c.25.423.5.779.75 1.066.27.288.59.521.98.699.4.177.88.266 1.45.266.89 0 1.61-.275 2.13-.825.53-.55.79-1.325.79-2.323 0-.914-.26-1.634-.76-2.158-.5-.534-1.2-.8-2.09-.8-.56 0-1.05.11-1.44.33-.39.211-.77.541-1.15.99l-3.22-1.485.55-8.887h10.72v2.907h-7.53l-.26 4.24c.38-.33.85-.596 1.41-.799a5.144 5.144 0 0 1 1.84-.318Z"/>
  <path fill="#F79B36" d="M4401 436.5c16.57 0 30-13.431 30-30 0-16.569-13.43-30-30-30s-30 13.431-30 30c0 16.569 13.43 30 30 30Z"/>
  <path fill="#000" d="M4402.18 419.449c-2.56 0-4.73-.516-6.53-1.55-1.8-1.033-3.16-2.485-4.09-4.357-.91-1.872-1.37-4.058-1.37-6.559 0-2.68.49-4.971 1.48-6.873.99-1.916 2.4-3.369 4.23-4.357 1.82-1.003 3.99-1.505 6.49-1.505 4.14 0 7.27 1.707 9.36 5.121l-4.4 2.987c-.66-.988-1.37-1.752-2.13-2.291-.75-.539-1.7-.808-2.83-.808-1.82 0-3.2.644-4.16 1.931-.94 1.288-1.41 3.13-1.41 5.526 0 2.501.48 4.41 1.46 5.727.98 1.303 2.37 1.955 4.15 1.955 1.2 0 2.23-.27 3.1-.809.88-.554 1.81-1.34 2.79-2.358l3.77 3.638a12.34 12.34 0 0 1-4.25 3.369c-1.64.809-3.53 1.213-5.66 1.213Z"/>
  <path fill="#F79B36" d="M4469 436.5c16.57 0 30-13.431 30-30 0-16.569-13.43-30-30-30s-30 13.431-30 30c0 16.569 13.43 30 30 30Z"/>
  <path fill="#000" d="M4468.89 419.449c-2.55 0-4.74-.554-6.58-1.662a10.727 10.727 0 0 1-4.16-4.537c-.94-1.917-1.41-4.065-1.41-6.446 0-2.321.45-4.433 1.37-6.334.92-1.902 2.31-3.414 4.15-4.537 1.84-1.123 4.1-1.685 6.76-1.685 2.8 0 5.11.562 6.92 1.685 1.83 1.108 3.17 2.605 4.02 4.492.85 1.872 1.28 3.998 1.28 6.379 0 2.381-.47 4.529-1.41 6.446-.93 1.902-2.32 3.414-4.18 4.537-1.86 1.108-4.11 1.662-6.76 1.662Zm-.07-5.009c1.87 0 3.31-.658 4.31-1.976 1.01-1.318 1.51-3.205 1.51-5.66 0-2.426-.47-4.29-1.42-5.593-.94-1.303-2.31-1.954-4.11-1.954-1.85 0-3.28.659-4.27 1.976-.98 1.303-1.48 3.16-1.48 5.571 0 1.602.23 2.98.68 4.133.46 1.138 1.1 2.006 1.91 2.605.82.599 1.78.898 2.87.898Z"/>
  <path fill="#F79B36" d="M4537 436.5c16.57 0 30-13.431 30-30 0-16.569-13.43-30-30-30s-30 13.431-30 30c0 16.569 13.43 30 30 30Z"/>
  <path fill="#000" d="M4526.65 400.133c0-1.033-.02-2.097-.07-3.19-.03-1.093-.06-1.834-.11-2.223h6.02c.06.329.12.995.18 1.999.08.988.11 1.774.11 2.358h.09c.86-1.662 1.93-2.89 3.21-3.683 1.29-.794 2.83-1.191 4.61-1.191 2.77 0 4.79.854 6.06 2.561 1.29 1.692 1.94 3.968 1.94 6.828V419h-6.29v-13.611c0-1.827-.31-3.242-.92-4.245-.62-1.004-1.67-1.505-3.17-1.505-1.02 0-1.93.269-2.74.808-.81.524-1.45 1.273-1.91 2.246-.47.959-.7 2.052-.7 3.28V419h-6.31v-18.867ZM4605 436.315c16.47 0 29.81-13.349 29.81-29.815s-13.34-29.815-29.81-29.815-29.82 13.349-29.82 29.815 13.35 29.815 29.82 29.815Z"/>
  <path fill="#F5F5F5" stroke="#000" d="M4607.66 394.078c.89-.957 2.37-1.037 3.38-.264l.2.166v.002l11.27 10.682.01.009.13.147c.13.151.24.31.33.464.05.089.09.184.13.275l.09.25v.019c.02.058.03.116.05.174h.05v.5c0 .693-.28 1.359-.79 1.836v.001l-11.27 10.682v.001c-1.01.946-2.63.924-3.58-.097-.95-1.01-.93-2.625.1-3.582l6.64-6.308h-25.17c-1.4 0-2.54-1.14-2.54-2.533a2.543 2.543 0 0 1 2.54-2.534h25.17l-6.65-6.311v-.001c-1.02-.957-1.04-2.569-.09-3.578Z"/>
  <path fill="#000" d="M4673 436.315c16.47 0 29.81-13.349 29.81-29.815s-13.34-29.815-29.81-29.815-29.82 13.349-29.82 29.815 13.35 29.815 29.82 29.815Z"/>
  <path fill="#F5F5F5" stroke="#000" d="M4675.66 394.078c.89-.957 2.37-1.037 3.38-.264l.2.166v.002l11.27 10.682.01.009.13.147c.13.151.24.31.33.464.05.089.09.184.13.275l.09.25v.019c.02.058.03.116.05.174h.05v.5c0 .693-.28 1.359-.79 1.836v.001l-11.27 10.682v.001c-1.01.946-2.63.924-3.58-.097-.95-1.01-.93-2.625.1-3.582l6.64-6.308h-25.17c-1.4 0-2.54-1.14-2.54-2.533a2.543 2.543 0 0 1 2.54-2.534h25.17l-6.65-6.311v-.001c-1.02-.957-1.04-2.569-.09-3.578Z"/>
  <path stroke="#F79B36" stroke-width="20" d="M0 419h4272.39c7.52 0 13.61-6.091 13.61-13.605s-6.09-13.605-13.61-13.605h-515.46c-44.18 0-80-35.818-80-80V0"/>
</svg>