<svg xmlns="http://www.w3.org/2000/svg" fill="none" viewBox="0 0 313 269">
  <mask id="a" fill="#fff">
    <path d="M0 0h313v269H0V0Z"/>
  </mask>
  <path fill="#000" d="M0 0v-20h-1V0h1Zm313 0h1v-20h-1V0Zm0 269v1h1v-1h-1ZM0 269h-1v1h1v-1ZM0 20h313v-40H0v40ZM312 0v269h2V0h-2Zm1 268H0v2h313v-2ZM1 269V0h-2v269h2Z" mask="url(#a)"/>
  <path fill="#F16A36" d="M41.432 101c18.464 0 33.432-14.968 33.432-33.432 0-18.464-14.968-33.432-33.432-33.432C22.968 34.136 8 49.104 8 67.568 8 86.032 22.968 101 41.432 101Z"/>
  <path fill="#fff" d="M27.59 77.861c-1.767 0-3.31-.283-4.628-.85-1.309-.566-2.33-1.445-3.062-2.636-.732-1.201-1.098-2.715-1.098-4.541V56.928h4.321v12.569c0 1.582.4 2.759 1.201 3.53.81.772 1.939 1.157 3.384 1.157 1.475 0 2.642-.405 3.501-1.215.87-.811 1.304-2.017 1.304-3.619V56.93h4.321v12.685c0 1.836-.39 3.37-1.172 4.6-.771 1.23-1.85 2.148-3.237 2.754-1.387.595-2.998.893-4.834.893Zm13.097-20.933h4.32v20.64h-4.32v-20.64Zm15.732 6.959c1.318 0 2.46.288 3.428.864a5.632 5.632 0 0 1 2.24 2.387c.518 1.026.777 2.212.777 3.56 0 1.397-.298 2.637-.893 3.72-.586 1.075-1.455 1.92-2.608 2.535-1.142.605-2.524.908-4.145.908-1.797 0-3.277-.356-4.439-1.07a6.635 6.635 0 0 1-2.607-2.944l3.442-1.772c.284.488.572.898.864 1.23.303.332.68.601 1.128.806.46.205 1.016.308 1.67.308 1.035 0 1.856-.318 2.461-.952.606-.635.908-1.529.908-2.681 0-1.055-.293-1.885-.878-2.49-.577-.616-1.377-.923-2.403-.923-.654 0-1.21.127-1.67.38-.449.245-.888.626-1.318 1.143l-3.72-1.714.63-10.254h12.377v3.355h-8.686l-.308 4.892c.44-.38.981-.688 1.626-.922a5.95 5.95 0 0 1 2.124-.367Z"/>
  <path fill="#F79B36" d="M116.296 101c18.464 0 33.432-14.968 33.432-33.432 0-18.464-14.968-33.432-33.432-33.432-18.464 0-33.432 14.968-33.432 33.432 0 18.464 14.968 33.432 33.432 33.432Z"/>
  <path fill="#000" d="M117.462 83.96c-3.006 0-5.564-.607-7.673-1.82-2.11-1.213-3.709-2.918-4.799-5.115-1.072-2.198-1.609-4.764-1.609-7.7 0-3.146.581-5.835 1.741-8.068 1.16-2.25 2.812-3.955 4.957-5.115 2.144-1.178 4.684-1.767 7.62-1.767 4.869 0 8.534 2.004 10.995 6.012l-5.168 3.507c-.773-1.16-1.608-2.057-2.505-2.69-.879-.632-1.986-.949-3.322-.949-2.127 0-3.753.756-4.878 2.268-1.107 1.511-1.661 3.674-1.661 6.486 0 2.936.571 5.177 1.714 6.724 1.16 1.53 2.786 2.294 4.878 2.294 1.406 0 2.619-.317 3.638-.95 1.037-.65 2.127-1.573 3.27-2.768l4.429 4.271a14.546 14.546 0 0 1-4.983 3.956c-1.934.949-4.148 1.423-6.644 1.423Z"/>
  <path fill="#F79B36" d="M191.16 101c18.464 0 33.432-14.968 33.432-33.432 0-18.464-14.968-33.432-33.432-33.432-18.464 0-33.432 14.968-33.432 33.432 0 18.464 14.968 33.432 33.432 33.432Z"/>
  <path fill="#000" d="M190.646 84.96c-2.988 0-5.563-.651-7.725-1.952a12.626 12.626 0 0 1-4.878-5.326c-1.108-2.25-1.661-4.773-1.661-7.567 0-2.725.536-5.203 1.608-7.436 1.09-2.232 2.716-4.008 4.878-5.326 2.162-1.319 4.808-1.978 7.936-1.978 3.288 0 5.995.66 8.122 1.978 2.144 1.3 3.717 3.058 4.719 5.273 1.002 2.198 1.503 4.694 1.503 7.489 0 2.794-.554 5.317-1.661 7.567-1.09 2.232-2.725 4.008-4.904 5.326-2.18 1.301-4.825 1.951-7.937 1.951Zm-.079-5.88c2.197 0 3.885-.774 5.063-2.32 1.177-1.548 1.766-3.763 1.766-6.645 0-2.848-.553-5.036-1.661-6.566-1.107-1.53-2.716-2.294-4.825-2.294-2.18 0-3.85.774-5.01 2.32-1.16 1.53-1.74 3.71-1.74 6.54 0 1.88.264 3.498.791 4.851.545 1.336 1.292 2.356 2.241 3.059.967.703 2.092 1.054 3.375 1.054Z"/>
  <path fill="#F79B36" d="M266.024 101c18.464 0 33.432-14.968 33.432-33.432 0-18.464-14.968-33.432-33.432-33.432-18.464 0-33.432 14.968-33.432 33.432 0 18.464 14.968 33.432 33.432 33.432Z"/>
  <path fill="#000" d="M253.043 61.284c0-1.213-.027-2.461-.079-3.745-.035-1.283-.079-2.153-.132-2.61h7.066c.071.387.141 1.169.211 2.347.088 1.16.132 2.083.132 2.768h.106c1.002-1.95 2.258-3.392 3.77-4.324 1.512-.931 3.314-1.397 5.405-1.397 3.252 0 5.625 1.002 7.119 3.005 1.512 1.987 2.268 4.659 2.268 8.016v18.088h-7.383V67.454c0-2.145-.36-3.806-1.081-4.984s-1.96-1.767-3.718-1.767c-1.195 0-2.267.317-3.216.95-.95.615-1.697 1.494-2.242 2.636-.545 1.125-.817 2.409-.817 3.85v15.293h-7.409V61.284Z"/>
  <path fill="#5FC4E8" d="M41.432 175.864c18.464 0 33.432-14.968 33.432-33.432 0-18.464-14.968-33.432-33.432-33.432C22.968 109 8 123.968 8 142.432c0 18.464 14.968 33.432 33.432 33.432Z"/>
  <path fill="#000" d="M40.265 161.527c-2.567 0-4.764-.474-6.592-1.423-1.828-.967-3.472-2.611-4.93-4.931l5.905-3.56c.809 1.319 1.68 2.259 2.61 2.822.932.562 1.987.843 3.165.843 2.004 0 3.55-.931 4.64-2.795 1.108-1.863 1.662-4.623 1.662-8.279-.774 1.283-1.855 2.268-3.244 2.953-1.388.668-2.97 1.002-4.746 1.002-2.162 0-4.06-.492-5.695-1.476-1.617-.985-2.874-2.4-3.77-4.245-.88-1.846-1.319-4.026-1.319-6.54 0-2.513.475-4.71 1.424-6.591.95-1.899 2.355-3.375 4.219-4.43 1.88-1.055 4.157-1.582 6.829-1.582 4.482 0 7.866 1.503 10.151 4.509 2.303 2.988 3.454 7.576 3.454 13.763 0 6.557-1.177 11.523-3.533 14.898-2.355 3.375-5.765 5.062-10.23 5.062Zm.58-19.327c.949 0 1.828-.211 2.636-.633.827-.439 1.495-1.116 2.004-2.03.51-.932.765-2.092.765-3.48 0-1.213-.228-2.312-.685-3.296-.458-1.002-1.108-1.784-1.952-2.347-.843-.562-1.82-.844-2.926-.844-1.67 0-2.971.554-3.903 1.661-.931 1.108-1.397 2.628-1.397 4.562 0 1.986.465 3.551 1.397 4.693.932 1.143 2.285 1.714 4.06 1.714Z"/>
  <path fill="#A5E85F" d="M116.296 175.864c18.464 0 33.432-14.968 33.432-33.432 0-18.464-14.968-33.432-33.432-33.432-18.464 0-33.432 14.968-33.432 33.432 0 18.464 14.968 33.432 33.432 33.432Z"/>
  <path fill="#000" d="M128.523 123.849v5.88L115.445 161h-7.726l14.001-31.061h-18.536v-6.09h25.339Z"/>
  <path fill="#D75FE8" d="M191.16 175.864c18.464 0 33.432-14.968 33.432-33.432 0-18.464-14.968-33.432-33.432-33.432-18.464 0-33.432 14.968-33.432 33.432 0 18.464 14.968 33.432 33.432 33.432Z"/>
  <path fill="#000" d="M203.598 154.909V161h-25.972v-5.142l12.525-13.315c1.371-1.494 2.399-2.672 3.085-3.533.703-.879 1.248-1.74 1.634-2.584.387-.862.58-1.758.58-2.69 0-1.213-.421-2.179-1.265-2.9-.844-.738-2.03-1.107-3.56-1.107a7.186 7.186 0 0 0-4.008 1.186c-1.212.773-2.522 2.004-3.928 3.691l-4.799-4.667c1.6-2.074 3.472-3.7 5.616-4.877 2.145-1.178 4.588-1.767 7.33-1.767 3.885 0 6.873.914 8.965 2.742 2.092 1.811 3.138 4.377 3.138 7.699 0 1.512-.299 2.936-.897 4.272a16.201 16.201 0 0 1-2.294 3.665c-.914 1.107-2.206 2.531-3.876 4.271l-.975 1.029-7.62 7.936h16.321Z"/>
  <path fill="#D75FE8" d="M266.024 175.864c18.464 0 33.432-14.968 33.432-33.432 0-18.464-14.968-33.432-33.432-33.432-18.464 0-33.432 14.968-33.432 33.432 0 18.464 14.968 33.432 33.432 33.432Z"/>
  <path fill="#000" d="M267.493 136.373c2.373 0 4.43.519 6.17 1.556 1.758 1.019 3.103 2.452 4.034 4.298.932 1.845 1.398 3.981 1.398 6.407 0 2.513-.537 4.746-1.609 6.697-1.054 1.934-2.619 3.454-4.693 4.562-2.057 1.089-4.544 1.634-7.462 1.634-3.234 0-5.898-.641-7.989-1.924-2.092-1.284-3.657-3.05-4.694-5.3l6.197-3.191c.509.879 1.028 1.617 1.555 2.215.545.598 1.222 1.081 2.031 1.45.826.369 1.828.554 3.005.554 1.864 0 3.34-.571 4.43-1.714 1.09-1.142 1.635-2.751 1.635-4.825 0-1.898-.527-3.393-1.582-4.482-1.037-1.108-2.479-1.662-4.324-1.662-1.178 0-2.18.229-3.006.686-.809.439-1.6 1.125-2.373 2.057l-6.698-3.085 1.134-18.457h22.28v6.038h-15.635l-.554 8.806c.791-.685 1.767-1.239 2.927-1.661 1.16-.439 2.434-.659 3.823-.659Z"/>
  <path fill="#35F2D4" d="M41.432 250.796c18.464 0 33.432-14.968 33.432-33.432 0-18.464-14.968-33.432-33.432-33.432C22.968 183.932 8 198.9 8 217.364c0 18.464 14.968 33.432 33.432 33.432Z"/>
  <path fill="#000" d="M42.954 236.459c-6.592 0-11.645-2.118-15.161-6.354l5.01-4.984a22.505 22.505 0 0 0 2.742 2.532c.914.685 2.004 1.256 3.27 1.713 1.265.457 2.715.686 4.35.686 2.461 0 4.342-.378 5.643-1.134 1.318-.773 1.977-1.872 1.977-3.296 0-1.072-.351-1.942-1.054-2.61-.686-.668-1.556-1.178-2.61-1.529-1.056-.352-2.515-.747-4.378-1.187a32.65 32.65 0 0 1-1.503-.343c-2.46-.597-4.544-1.283-6.249-2.056a10.938 10.938 0 0 1-4.245-3.375c-1.107-1.477-1.661-3.393-1.661-5.748 0-2.268.598-4.193 1.793-5.775 1.213-1.582 2.892-2.768 5.036-3.559 2.145-.809 4.614-1.213 7.41-1.213 2.917 0 5.492.43 7.725 1.292 2.232.844 4.236 2.144 6.011 3.902l-4.535 4.904c-1.335-1.248-2.768-2.214-4.297-2.9-1.53-.685-3.252-1.028-5.168-1.028-2.286 0-3.93.36-4.931 1.081-1.002.72-1.503 1.652-1.503 2.795 0 1.037.299 1.863.897 2.478.615.598 1.414 1.072 2.399 1.424.984.334 2.417.721 4.298 1.16l.58.132c2.97.686 5.352 1.389 7.145 2.109 1.793.704 3.305 1.82 4.535 3.349 1.248 1.512 1.873 3.595 1.873 6.249 0 2.268-.554 4.245-1.662 5.933-1.09 1.687-2.786 3.006-5.089 3.955-2.285.931-5.167 1.397-8.648 1.397Z"/>
  <path fill="#35F2D4" d="M116.296 250.796c18.464 0 33.432-14.968 33.432-33.432 0-18.464-14.968-33.432-33.432-33.432-18.464 0-33.432 14.968-33.432 33.432 0 18.464 14.968 33.432 33.432 33.432Z"/>
  <path fill="#000" d="M104.476 198.781h7.779v30.612h17.771v6.539h-25.55v-37.151Z"/>
  <path fill="#35F2D4" d="M191.16 250.796c18.464 0 33.432-14.968 33.432-33.432 0-18.464-14.968-33.432-33.432-33.432-18.464 0-33.432 14.968-33.432 33.432 0 18.464 14.968 33.432 33.432 33.432Z"/>
  <path fill="#000" d="M179.34 198.781h16.638c3.041 0 5.59.457 7.646 1.371 2.057.914 3.595 2.214 4.615 3.902 1.037 1.687 1.555 3.709 1.555 6.064 0 1.864-.351 3.534-1.054 5.01a10.104 10.104 0 0 1-2.875 3.692 11.253 11.253 0 0 1-4.218 2.056l10.046 15.056h-8.754l-8.622-13.553h-7.199v13.553h-7.778v-37.151Zm15.979 17.006c2.25 0 3.92-.474 5.009-1.423 1.09-.967 1.635-2.277 1.635-3.929 0-1.705-.58-2.971-1.74-3.797-1.16-.844-2.848-1.266-5.063-1.266h-8.042v10.415h8.201ZM266.092 250.657c18.387 0 33.293-14.906 33.293-33.293 0-18.388-14.906-33.294-33.293-33.294-18.388 0-33.294 14.906-33.294 33.294 0 18.387 14.906 33.293 33.294 33.293Z"/>
  <path fill="#fff" stroke="#000" d="M286.469 217.366v-.5h-.051a2.448 2.448 0 0 0-.056-.236l-.003-.01-.003-.01-.007-.019a2.848 2.848 0 0 0-.234-.558 3.195 3.195 0 0 0-.504-.668h.001l-.01-.009-12.582-11.928-.002-.002c-1.104-1.035-2.87-1.009-3.916.107-1.035 1.104-1.01 2.869.105 3.916l.001.001 7.525 7.145h-28.254a2.778 2.778 0 0 0-2.77 2.771 2.776 2.776 0 0 0 2.77 2.77h28.254l-7.525 7.145-.001.001c-1.115 1.047-1.14 2.812-.105 3.916 1.046 1.116 2.812 1.142 3.916.107l.002-.002 12.579-11.925.001-.001a2.749 2.749 0 0 0 .869-2.011Z"/>
</svg>