<svg version="1.1" xmlns="http://www.w3.org/2000/svg" xmlns:xlink="http://www.w3.org/1999/xlink">
  <symbol aria-hidden="true" fill="none" xmlns="http://www.w3.org/2000/svg" viewBox="0 0 16 16" id="timer">
    <path fill="currentColor" d="M6.5 0a.5.5 0 0 0 0 1H7v1.07A7.001 7.001 0 0 0 8 16a7 7 0 0 0 5.29-11.584l.013-.012.354-.354.353.354a.5.5 0 1 0 .707-.707l-1.414-1.415a.5.5 0 1 0-.707.707l.354.354-.354.354-.012.012A6.97 6.97 0 0 0 9 2.071V1h.5a.5.5 0 0 0 0-1zm2 5.6V9a.5.5 0 0 1-.5.5H4.5a.5.5 0 0 1 0-1h3V5.6a.5.5 0 1 1 1 0"/>
  </symbol>
  <symbol fill="none" xmlns="http://www.w3.org/2000/svg" aria-hidden="true" viewBox="0 0 16 16" id="insta">
    <path d="M8 0C5.829 0 5.556.01 4.703.048 3.85.088 3.269.222 2.76.42a3.9 3.9 0 0 0-1.417.923A3.9 3.9 0 0 0 .42 2.76C.222 3.268.087 3.85.048 4.7.01 5.555 0 5.827 0 8.001c0 2.172.01 2.444.048 3.297.04.852.174 1.433.372 1.942.205.526.478.972.923 1.417.444.445.89.719 1.416.923.51.198 1.09.333 1.942.372C5.555 15.99 5.827 16 8 16s2.444-.01 3.298-.048c.851-.04 1.434-.174 1.943-.372a3.9 3.9 0 0 0 1.416-.923c.445-.445.718-.891.923-1.417.197-.509.332-1.09.372-1.942C15.99 10.445 16 10.173 16 8s-.01-2.445-.048-3.299c-.04-.851-.175-1.433-.372-1.941a3.9 3.9 0 0 0-.923-1.417A3.9 3.9 0 0 0 13.24.42c-.51-.198-1.092-.333-1.943-.372C10.443.01 10.172 0 7.998 0zm-.717 1.442h.718c2.136 0 2.389.007 3.232.046.78.035 1.204.166 1.486.275.373.145.64.319.92.599s.453.546.598.92c.11.281.24.705.275 1.485.039.843.047 1.096.047 3.231s-.008 2.389-.047 3.232c-.035.78-.166 1.203-.275 1.485a2.5 2.5 0 0 1-.599.919c-.28.28-.546.453-.92.598-.28.11-.704.24-1.485.276-.843.038-1.096.047-3.232.047s-2.39-.009-3.233-.047c-.78-.036-1.203-.166-1.485-.276a2.5 2.5 0 0 1-.92-.598 2.5 2.5 0 0 1-.6-.92c-.109-.281-.24-.705-.275-1.485-.038-.843-.046-1.096-.046-3.233s.008-2.388.046-3.231c.036-.78.166-1.204.276-1.486.145-.373.319-.64.599-.92s.546-.453.92-.598c.282-.11.705-.24 1.485-.276.738-.034 1.024-.044 2.515-.045zm4.988 1.328a.96.96 0 1 0 0 1.92.96.96 0 0 0 0-1.92m-4.27 1.122a4.109 4.109 0 1 0 0 8.217 4.109 4.109 0 0 0 0-8.217m0 1.441a2.667 2.667 0 1 1 0 5.334 2.667 2.667 0 0 1 0-5.334"/>
  </symbol>
  <symbol fill="none" xmlns="http://www.w3.org/2000/svg" aria-hidden="true" viewBox="0 0 16 16" id="linkedin">
    <path fill="currentColor" d="M0 1.146C0 .513.526 0 1.175 0h13.65C15.474 0 16 .513 16 1.146v13.708c0 .633-.526 1.146-1.175 1.146H1.175C.526 16 0 15.487 0 14.854zm4.943 12.248V6.169H2.542v7.225zm-1.2-8.212c.837 0 1.358-.554 1.358-1.248-.015-.709-.52-1.248-1.342-1.248S2.4 3.226 2.4 3.934c0 .694.521 1.248 1.327 1.248zm4.908 8.212V9.359c0-.216.016-.432.08-.586.173-.431.568-.878 1.232-.878.869 0 1.216.662 1.216 1.634v3.865h2.401V9.25c0-2.22-1.184-3.252-2.764-3.252-1.274 0-1.845.7-2.165 1.193v.025h-.016l.016-.025V6.169h-2.4c.03.678 0 7.225 0 7.225z"/>
  </symbol>
  <symbol aria-hidden="true" fill="none" xmlns="http://www.w3.org/2000/svg" viewBox="0 0 16 16" id="currency">
    <path fill="currentColor" fill-rule="evenodd" d="M11 15a4 4 0 1 0 0-8 4 4 0 0 0 0 8m5-4a5 5 0 1 1-10 0 5 5 0 0 1 10 0"/>
    <path fill="currentColor" d="M9.438 11.944c.047.596.518 1.06 1.363 1.116v.44h.375v-.443c.875-.061 1.386-.529 1.386-1.207 0-.618-.39-.936-1.09-1.1l-.296-.07v-1.2c.376.043.614.248.671.532h.658c-.047-.575-.54-1.024-1.329-1.073V8.5h-.375v.45c-.747.073-1.255.522-1.255 1.158 0 .562.378.92 1.007 1.066l.248.061v1.272c-.384-.058-.639-.27-.696-.563h-.668zm1.36-1.354c-.369-.085-.569-.26-.569-.522 0-.294.216-.514.572-.578v1.1zm.432.746c.449.104.655.272.655.569 0 .339-.257.571-.709.614v-1.195z"/>
    <path fill="currentColor" d="M1 0a1 1 0 0 0-1 1v8a1 1 0 0 0 1 1h4.083q.088-.517.258-1H3a2 2 0 0 0-2-2V3a2 2 0 0 0 2-2h10a2 2 0 0 0 2 2v3.528c.38.34.717.728 1 1.154V1a1 1 0 0 0-1-1z"/>
    <path fill="currentColor" d="M9.998 5.083 10 5a2 2 0 1 0-3.132 1.65 6 6 0 0 1 3.13-1.567"/>
  </symbol>
  <symbol aria-hidden="true" xmlns="http://www.w3.org/2000/svg" viewBox="0 0 16 16" id="compassrose">
    <path fill="currentColor" d="M15.5 8.516a7.5 7.5 0 1 1-9.462-7.24A1 1 0 0 1 7 0h2a1 1 0 0 1 .962 1.276 7.5 7.5 0 0 1 5.538 7.24m-3.61-3.905L6.94 7.439 4.11 12.39l4.95-2.828 2.828-4.95z"/>
  </symbol>
  <symbol aria-hidden="true" viewBox="0 0 26 26" xmlns="http://www.w3.org/2000/svg" id="calendar">
    <path fill="currentColor" d="M14 0H2a2 2 0 0 0-2 2v12a2 2 0 0 0 2 2h12a2 2 0 0 0 2-2V2a2 2 0 0 0-2-2M1 3.857C1 3.384 1.448 3 2 3h12c.552 0 1 .384 1 .857v10.286c0 .473-.448.857-1 .857H2c-.552 0-1-.384-1-.857z"/>
    <path fill="currentColor" d="M6.5 7a1 1 0 1 0 0-2 1 1 0 0 0 0 2m3 0a1 1 0 1 0 0-2 1 1 0 0 0 0 2m3 0a1 1 0 1 0 0-2 1 1 0 0 0 0 2m-9 3a1 1 0 1 0 0-2 1 1 0 0 0 0 2m3 0a1 1 0 1 0 0-2 1 1 0 0 0 0 2m3 0a1 1 0 1 0 0-2 1 1 0 0 0 0 2m3 0a1 1 0 1 0 0-2 1 1 0 0 0 0 2m-9 3a1 1 0 1 0 0-2 1 1 0 0 0 0 2m3 0a1 1 0 1 0 0-2 1 1 0 0 0 0 2m3 0a1 1 0 1 0 0-2 1 1 0 0 0 0 2"/>
  </symbol>
  <symbol xmlns="http://www.w3.org/2000/svg" aria-hidden="true" viewBox="0 0 16 16" id="youtube">
    <path fill="currentColor" d="M8.051 1.999h.089c.822.003 4.987.033 6.11.335a2.01 2.01 0 0 1 1.415 1.42c.101.38.172.883.22 1.402l.01.104.022.26.008.104c.065.914.073 1.77.074 1.957v.075c-.001.194-.01 1.108-.082 2.06l-.008.105-.009.104c-.05.572-.124 1.14-.235 1.558a2.01 2.01 0 0 1-1.415 1.42c-1.16.312-5.569.334-6.18.335h-.142c-.309 0-1.587-.006-2.927-.052l-.17-.006-.087-.004-.171-.007-.171-.007c-1.11-.049-2.167-.128-2.654-.26a2.01 2.01 0 0 1-1.415-1.419c-.111-.417-.185-.986-.235-1.558L.09 9.82l-.008-.104A31 31 0 0 1 0 7.68v-.123c.002-.215.01-.958.064-1.778l.007-.103.003-.052.008-.104.022-.26.01-.104c.048-.519.119-1.023.22-1.402a2.01 2.01 0 0 1 1.415-1.42c.487-.13 1.544-.21 2.654-.26l.17-.007.172-.006.086-.003.171-.007A100 100 0 0 1 7.858 2zM6.4 5.209v4.818l4.157-2.408z"/>
  </symbol>
  <symbol fill="none" xmlns="http://www.w3.org/2000/svg" viewBox="0 0 16 16" id="star">
   <path fill="currentColor" d="M3.612 15.443c-.386.198-.824-.149-.746-.592l.83-4.73L.173 6.765c-.329-.314-.158-.888.283-.95l4.898-.696L7.538.792c.197-.39.73-.39.927 0l2.184 4.327 4.898.696c.441.062.612.636.282.95l-3.522 3.356.83 4.73c.078.443-.36.79-.746.592L8 13.187l-4.389 2.256z"/>
  </symbol>
  <symbol fill="none" xmlns="http://www.w3.org/2000/svg" aria-hidden="true" viewBox="0 0 16 16" id="questionmark">
    <path fill="currentColor" d="M9.05.435c-.58-.58-1.52-.58-2.1 0L.436 6.95c-.58.58-.58 1.519 0 2.098l6.516 6.516c.58.58 1.519.58 2.098 0l6.516-6.516c.58-.58.58-1.519 0-2.098zM5.495 6.033a.237.237 0 0 1-.24-.247C5.35 4.091 6.737 3.5 8.005 3.5c1.396 0 2.672.73 2.672 2.24 0 1.08-.635 1.594-1.244 2.057-.737.559-1.01.768-1.01 1.486v.105a.25.25 0 0 1-.25.25h-.81a.25.25 0 0 1-.25-.246l-.004-.217c-.038-.927.495-1.498 1.168-1.987.59-.444.965-.736.965-1.371 0-.825-.628-1.168-1.314-1.168-.803 0-1.253.478-1.342 1.134-.018.137-.128.25-.266.25zm2.325 6.443c-.584 0-1.009-.394-1.009-.927 0-.552.425-.94 1.01-.94.609 0 1.028.388 1.028.94 0 .533-.42.927-1.029.927"/>
  </symbol>
  <symbol fill="none" xmlns="http://www.w3.org/2000/svg" aria-hidden="true" viewBox="0 0 16 16" id="facebook">
    <path fill="currentColor" d="M16 8.049c0-4.446-3.582-8.05-8-8.05C3.58 0-.002 3.603-.002 8.05c0 4.017 2.926 7.347 6.75 7.951v-5.625h-2.03V8.05H6.75V6.275c0-2.017 1.195-3.131 3.022-3.131.876 0 1.791.157 1.791.157v1.98h-1.009c-.993 0-1.303.621-1.303 1.258v1.51h2.218l-.354 2.326H9.25V16c3.824-.604 6.75-3.934 6.75-7.951"/>
  </symbol>
  <symbol aria-hidden="true" xmlns="http://www.w3.org/2000/svg" viewBox="0 0 16 16" id="book">
    <path fill="currentColor" d="M1 2.828c.885-.37 2.154-.769 3.388-.893 1.33-.134 2.458.063 3.112.752v9.746c-.935-.53-2.12-.603-3.213-.493-1.18.12-2.37.461-3.287.811zm7.5-.141c.654-.689 1.782-.886 3.112-.752 1.234.124 2.503.523 3.388.893v9.923c-.918-.35-2.107-.692-3.287-.81-1.094-.111-2.278-.039-3.213.492zM8 1.783C7.015.936 5.587.81 4.287.94c-1.514.153-3.042.672-3.994 1.105A.5.5 0 0 0 0 2.5v11a.5.5 0 0 0 .707.455c.882-.4 2.303-.881 3.68-1.02 1.409-.142 2.59.087 3.223.877a.5.5 0 0 0 .78 0c.633-.79 1.814-1.019 3.222-.877 1.378.139 2.8.62 3.681 1.02A.5.5 0 0 0 16 13.5v-11a.5.5 0 0 0-.293-.455c-.952-.433-2.48-.952-3.994-1.105C10.413.809 8.985.936 8 1.783"/>
  </symbol>
  <symbol fill="none" xmlns="http://www.w3.org/2000/svg" aria-hidden="true" viewBox="0 0 16 16" id="pin">
    <path fill="currentColor" fill-rule="evenodd" d="M4 4a4 4 0 1 1 4.5 3.969V13.5a.5.5 0 0 1-1 0V7.97A4 4 0 0 1 4 3.999zm2.493 8.574a.5.5 0 0 1-.411.575c-.712.118-1.28.295-1.655.493a1.3 1.3 0 0 0-.37.265.3.3 0 0 0-.057.09V14l.002.008.016.033a.6.6 0 0 0 .145.15c.165.13.435.27.813.395.751.25 1.82.414 3.024.414s2.273-.163 3.024-.414c.378-.126.648-.265.813-.395a.6.6 0 0 0 .146-.15l.015-.033L12 14v-.004a.3.3 0 0 0-.057-.09 1.3 1.3 0 0 0-.37-.264c-.376-.198-.943-.375-1.655-.493a.5.5 0 1 1 .164-.986c.77.127 1.452.328 1.957.594C12.5 13 13 13.4 13 14c0 .426-.26.752-.544.977-.29.228-.68.413-1.116.558-.878.293-2.059.465-3.34.465s-2.462-.172-3.34-.465c-.436-.145-.826-.33-1.116-.558C3.26 14.752 3 14.426 3 14c0-.599.5-1 .961-1.243.505-.266 1.187-.467 1.957-.594a.5.5 0 0 1 .575.411"/>
  </symbol>
  <symbol xmlns="http://www.w3.org/2000/svg" aria-hidden="true" viewBox="0 0 16 16" id="mail">
    <path fill="currentColor" d="M.05 3.555A2 2 0 0 1 2 2h12a2 2 0 0 1 1.95 1.555L8 8.414zM0 4.697v7.104l5.803-3.558zM6.761 8.83l-6.57 4.027A2 2 0 0 0 2 14h12a2 2 0 0 0 1.808-1.144l-6.57-4.027L8 9.586zm3.436-.586L16 11.801V4.697z"/>
  </symbol>
  <symbol fill="none" xmlns="http://www.w3.org/2000/svg" viewBox="0 0 16 16" id="website">
    <path fill="currentColor" d="M0 8a8 8 0 1 1 16 0A8 8 0 0 1 0 8m7.5-6.923c-.67.204-1.335.82-1.887 1.855A8 8 0 0 0 5.145 4H7.5zM4.09 4a9.3 9.3 0 0 1 .64-1.539 7 7 0 0 1 .597-.933A7.03 7.03 0 0 0 2.255 4zm-.582 3.5c.03-.877.138-1.718.312-2.5H1.674a7 7 0 0 0-.656 2.5zM4.847 5a12.5 12.5 0 0 0-.338 2.5H7.5V5zM8.5 5v2.5h2.99a12.5 12.5 0 0 0-.337-2.5zM4.51 8.5a12.5 12.5 0 0 0 .337 2.5H7.5V8.5zm3.99 0V11h2.653c.187-.765.306-1.608.338-2.5zM5.145 12q.208.58.468 1.068c.552 1.035 1.218 1.65 1.887 1.855V12zm.182 2.472a7 7 0 0 1-.597-.933A9.3 9.3 0 0 1 4.09 12H2.255a7 7 0 0 0 3.072 2.472M3.82 11a13.7 13.7 0 0 1-.312-2.5h-2.49c.062.89.291 1.733.656 2.5zm6.853 3.472A7 7 0 0 0 13.745 12H11.91a9.3 9.3 0 0 1-.64 1.539 7 7 0 0 1-.597.933M8.5 12v2.923c.67-.204 1.335-.82 1.887-1.855q.26-.487.468-1.068zm3.68-1h2.146c.365-.767.594-1.61.656-2.5h-2.49a13.7 13.7 0 0 1-.312 2.5m2.802-3.5a7 7 0 0 0-.656-2.5H12.18c.174.782.282 1.623.312 2.5zM11.27 2.461c.247.464.462.98.64 1.539h1.835a7 7 0 0 0-3.072-2.472c.218.284.418.598.597.933M10.855 4a8 8 0 0 0-.468-1.068C9.835 1.897 9.17 1.282 8.5 1.077V4z"/>
  </symbol>
  <symbol fill="none" xmlns="http://www.w3.org/2000/svg" aria-hidden="true" viewBox="0 0 16 16" id="github">
    <path fill="currentColor" d="M8 0C3.58 0 0 3.58 0 8c0 3.54 2.29 6.53 5.47 7.59.4.07.55-.17.55-.38 0-.19-.01-.82-.01-1.49-2.01.37-2.53-.49-2.69-.94-.09-.23-.48-.94-.82-1.13-.28-.15-.68-.52-.01-.53.63-.01 1.08.58 1.23.82.72 1.21 1.87.87 2.33.66.07-.52.28-.87.51-1.07-1.78-.2-3.64-.89-3.64-3.95 0-.87.31-1.59.82-2.15-.08-.2-.36-1.02.08-2.12 0 0 .67-.21 2.2.82.64-.18 1.32-.27 2-.27s1.36.09 2 .27c1.53-1.04 2.2-.82 2.2-.82.44 1.1.16 1.92.08 2.12.51.56.82 1.27.82 2.15 0 3.07-1.87 3.75-3.65 3.95.29.25.54.73.54 1.48 0 1.07-.01 1.93-.01 2.2 0 .21.15.46.55.38A8.01 8.01 0 0 0 16 8c0-4.42-3.58-8-8-8"/>
  </symbol>
  <symbol aria-hidden="true" xmlns="http://www.w3.org/2000/svg" viewBox="0 0 16 16" id="connect">
    <path fill="currentColor" d="M6.354 5.5H4a3 3 0 0 0 0 6h3a3 3 0 0 0 2.83-4H9q-.13 0-.25.031A2 2 0 0 1 7 10.5H4a2 2 0 1 1 0-4h1.535c.218-.376.495-.714.82-1z"/>
    <path fill="currentColor" d="M9 5.5a3 3 0 0 0-2.83 4h1.098A2 2 0 0 1 9 6.5h3a2 2 0 1 1 0 4h-1.535a4 4 0 0 1-.82 1H12a3 3 0 1 0 0-6z"/>
  </symbol>
  <symbol fill="none" aria-hidden="true" xmlns="http://www.w3.org/2000/svg"  viewBox="0 0 300 271" id="twitter">
    <path fill="currentColor" d="M12.6.75h2.454l-5.36 6.142L16 15.25h-4.937l-3.867-5.07-4.425 5.07H.316l5.733-6.57L0 .75h5.063l3.495 4.633L12.601.75Zm-.86 13.028h1.36L4.323 2.145H2.865z"/>
  </symbol>
  <symbol fill="none" aria-hidden="true" xmlns="http://www.w3.org/2000/svg" viewBox="0 0 16 16" id="pen">
    <path fill="currentColor" d="M12.854.146a.5.5 0 0 0-.707 0L10.5 1.793 14.207 5.5l1.647-1.646a.5.5 0 0 0 0-.708zm.646 6.061L9.793 2.5 3.293 9H3.5a.5.5 0 0 1 .5.5v.5h.5a.5.5 0 0 1 .5.5v.5h.5a.5.5 0 0 1 .5.5v.5h.5a.5.5 0 0 1 .5.5v.207zm-7.468 7.468A.5.5 0 0 1 6 13.5V13h-.5a.5.5 0 0 1-.5-.5V12h-.5a.5.5 0 0 1-.5-.5V11h-.5a.5.5 0 0 1-.5-.5V10h-.5a.5.5 0 0 1-.175-.032l-.179.178a.5.5 0 0 0-.11.168l-2 5a.5.5 0 0 0 .65.65l5-2a.5.5 0 0 0 .168-.11z"/>
  </symbol>
  <symbol fill="none"  aria-hidden="true" xmlns="http://www.w3.org/2000/svg" viewBox="0 0 23 23" id="info">
    <path d="M11.5 23C5.16 23 0 17.84 0 11.5S5.16 0 11.5 0 23 5.16 23 11.5 17.84 23 11.5 23Zm0-20.7c-5.074 0-9.2 4.126-9.2 9.2 0 5.074 4.126 9.2 9.2 9.2 5.074 0 9.2-4.126 9.2-9.2 0-5.074-4.126-9.2-9.2-9.2Zm0 15.525c-.633 0-1.15-.517-1.15-1.15v-4.6c0-.632.518-1.15 1.15-1.15.633 0 1.15.518 1.15 1.15v4.6c0 .633-.518 1.15-1.15 1.15Zm0-9.2c-.79 0-1.438-.647-1.438-1.438 0-.79.647-1.437 1.438-1.437.79 0 1.438.647 1.438 1.438 0 .79-.647 1.437-1.438 1.437Z" fill="currentColor"/>
  </symbol>
  <symbol id="mastodon" viewBox="0 0 16 16" fill="none">
    <path fill="currentColor" d="M11.19 12.195c2.016-.24 3.77-1.475 3.99-2.603.348-1.778.32-4.339.32-4.339 0-3.47-2.286-4.488-2.286-4.488C12.062.238 10.083.017 8.027 0h-.05C5.92.017 3.942.238 2.79.765c0 0-2.285 1.017-2.285 4.488l-.002.662c-.004.64-.007 1.35.011 2.091.083 3.394.626 6.74 3.78 7.57 1.454.383 2.703.463 3.709.408 1.823-.1 2.847-.647 2.847-.647l-.06-1.317s-1.303.41-2.767.36c-1.45-.05-2.98-.156-3.215-1.928a4 4 0 0 1-.033-.496s1.424.346 3.228.428c1.103.05 2.137-.064 3.188-.189zm1.613-2.47H11.13v-4.08c0-.859-.364-1.295-1.091-1.295-.804 0-1.207.517-1.207 1.541v2.233H7.168V5.89c0-1.024-.403-1.541-1.207-1.541-.727 0-1.091.436-1.091 1.296v4.079H3.197V5.522q0-1.288.66-2.046c.456-.505 1.052-.764 1.793-.764.856 0 1.504.328 1.933.983L8 4.39l.417-.695c.429-.655 1.077-.983 1.934-.983.74 0 1.336.259 1.791.764q.662.757.661 2.046z"/>
  </symbol>
  <symbol id="bluesky" viewBox="0 -3.268 64 68.414">
    <path fill="currentColor" d="M13.873 3.805C21.21 9.332 29.103 20.537 32 26.55v15.882c0-.338-.13.044-.41.867-1.512 4.456-7.418 21.847-20.923 7.944-7.111-7.32-3.819-14.64 9.125-16.85-7.405 1.264-15.73-.825-18.014-9.015C1.12 23.022 0 8.51 0 6.55 0-3.268 8.579-.182 13.873 3.805zm36.254 0C42.79 9.332 34.897 20.537 32 26.55v15.882c0-.338.13.044.41.867 1.512 4.456 7.418 21.847 20.923 7.944 7.111-7.32 3.819-14.64-9.125-16.85 7.405 1.264 15.73-.825 18.014-9.015C62.88 23.022 64 8.51 64 6.55c0-9.818-8.578-6.732-13.873-2.745z"/>
  </symbol>
  <symbol id="download" viewBox="0 0 16 16" fill="none">
    <path fill="currentColor" d="M8 2a5.53 5.53 0 0 0-3.594 1.342c-.766.66-1.321 1.52-1.464 2.383C1.266 6.095 0 7.555 0 9.318 0 11.366 1.708 13 3.781 13h8.906C14.502 13 16 11.57 16 9.773c0-1.636-1.242-2.969-2.834-3.194C12.923 3.999 10.69 2 8 2m2.354 6.854-2 2a.5.5 0 0 1-.708 0l-2-2a.5.5 0 1 1 .708-.708L7.5 9.293V5.5a.5.5 0 0 1 1 0v3.793l1.146-1.147a.5.5 0 0 1 .708.708"/>
  </symbol>

</svg>

</svg>
