<svg id="Layer_x0020_1" xmlns="http://www.w3.org/2000/svg" width="420" height="815.015" viewBox="0 0 420 815.015">
  <g id="_809319192" transform="translate(0 0)">
    <path id="Path_32" data-name="Path 32" d="M130.491,75.1h0A52.457,52.457,0,0,1,182.8,127.411V534.928a52.453,52.453,0,0,1-52.311,52.291h0A52.448,52.448,0,0,1,78.2,534.928V127.411A52.453,52.453,0,0,1,130.491,75.1Zm0,3a49.458,49.458,0,0,0-49.306,49.306V534.928a49.316,49.316,0,0,0,98.633,0V127.411A49.462,49.462,0,0,0,130.491,78.1Z" transform="translate(79.499 76.348)" fill="#ff9216" fill-rule="evenodd"/>
    <path id="Path_33" data-name="Path 33" d="M156.465,51.1h0C213.576,51.1,260.3,97.825,260.3,154.935V556.2c0,57.11-46.725,103.815-103.835,103.815h0c-57.09,0-103.815-46.7-103.815-103.815V154.935C52.65,97.825,99.375,51.1,156.465,51.1Zm0,3c-55.437,0-100.831,45.374-100.831,100.831V556.2c0,55.437,45.394,100.831,100.831,100.831,55.457,0,100.831-45.374,100.831-100.831V154.935C257.3,99.479,211.922,54.1,156.465,54.1Z" transform="translate(53.525 51.949)" fill="#ff7b17" fill-rule="evenodd"/>
    <path id="Path_34" data-name="Path 34" d="M184.015,24h.02C271.194,24,342.5,95.307,342.5,182.486V583.751c0,87.158-71.307,158.466-158.465,158.466h-.02c-87.158,0-158.465-71.307-158.465-158.466V182.486C25.55,95.307,96.857,24,184.015,24Zm0,3C98.511,27,28.555,96.961,28.555,182.486V583.751c0,85.5,69.956,155.481,155.481,155.481,85.5,0,155.461-69.977,155.461-155.481V182.486C339.5,96.961,269.54,27,184.015,27Z" transform="translate(25.974 24.399)" fill="#ff5d17" fill-rule="evenodd"/>
    <path id="Path_35" data-name="Path 35" d="M209.99,3C96.152,3,3,96.152,3,209.99V605.024C3,718.862,96.152,812.03,209.99,812.03,323.848,812.03,417,718.862,417,605.024V209.99C417,96.152,323.848,3,209.99,3Zm0-3h0C325.5,0,420,94.5,420,209.99V605.024c0,115.491-94.5,209.99-210.01,209.99h0C94.5,815.014,0,720.516,0,605.024V209.99C0,94.5,94.5,0,209.99,0Z" transform="translate(0 0)" fill="#ff5116" fill-rule="evenodd"/>
  </g>
</svg>
