<svg height="45" viewBox="0 0 92 45" width="92" xmlns="http://www.w3.org/2000/svg" xmlns:xlink="http://www.w3.org/1999/xlink"><linearGradient id="a" gradientUnits="objectBoundingBox" x1=".5" x2=".5" y2="1"><stop offset="0" stop-color="#00aeef"/><stop offset=".212" stop-color="#0097dc"/><stop offset=".519" stop-color="#007cc5"/><stop offset=".792" stop-color="#006cb8"/><stop offset="1" stop-color="#0066b3"/></linearGradient><path d="m0 45h45.974l44.992-45h-90.966z" fill="url(#a)" fill-rule="evenodd"/><path d="m53.984 9h-8.984l.03 21.13-7.823-21.137h-7.757l-6.678 17.653c-.71-4.492-5.354-6.042-9.008-7.2-2.413-.775-4.974-1.915-4.948-3.175.02-1.034 1.37-1.993 4.053-1.85a14.653 14.653 0 0 1 6.553 1.77l3.11-5.42a24.188 24.188 0 0 0 -10.142-2.401h-.02c-3.813 0-6.988 1.235-8.956 3.27a7.547 7.547 0 0 0 -2.142 5.223 7.015 7.015 0 0 0 3.073 6.253 20.942 20.942 0 0 0 6.09 2.784c2.485.77 4.515 1.44 4.49 2.866a2.112 2.112 0 0 1 -.59 1.4 3.937 3.937 0 0 1 -2.885.906 12.37 12.37 0 0 1 -7.413-2.116l-2.767 5.488a19.229 19.229 0 0 0 9.78 2.556l.812-.006a12.2 12.2 0 0 0 7.718-2.44c.116-.093.22-.187.328-.282l-.34 1.752 7.58-.024 1.36-3.482a14.873 14.873 0 0 0 4.782.758 15.03 15.03 0 0 0 4.667-.716l.948 3.44 13.6.013.033-7.938h2.894c6.995 0 11.13-3.56 11.13-9.53-.002-6.645-4.022-9.545-12.578-9.545zm-20.694 18.062a8.128 8.128 0 0 1 -2.868-.5l2.836-8.962h.055l2.79 8.98a8.4 8.4 0 0 1 -2.814.477zm21.22-5.145h-1.974v-7.217h1.975c2.63 0 4.73.876 4.73 3.562 0 2.78-2.1 3.655-4.73 3.655" fill="#fff" fill-rule="evenodd"/><path d="m0 0h92v45h-92z" fill="none"/></svg>