<svg id="Ebene_1" data-name="Ebene 1" xmlns="http://www.w3.org/2000/svg" viewBox="0 0 57.56 50"><defs><style>.cls-1{fill:#1873b4;}.cls-2{fill:none;stroke:#bfbfbf;stroke-miterlimit:10;}.cls-3{fill:#9c9b9b;}.cls-4{fill:#d9d9d9;}.cls-5{fill:#fff;}</style></defs><title>free_open_source_50x50px-34-35</title><rect class="cls-1" x="15.96" y="3.87" width="37.62" height="35.36"/><path class="cls-2" d="M53.57.34a3.47,3.47,0,0,1,2.55,1,3.44,3.44,0,0,1,1,2.54V39.23a3.51,3.51,0,0,1-1,2.49,3.36,3.36,0,0,1-2.55,1.05H4.07a3.4,3.4,0,0,1-2.49-1.05,3.4,3.4,0,0,1-1-2.49V3.87A3.34,3.34,0,0,1,1.58,1.33a3.51,3.51,0,0,1,2.49-1Zm0,3.53H4.07V39.23h49.5ZM41.2,46.31A1.56,1.56,0,0,1,43,48.08a1.78,1.78,0,0,1-.5,1.21,1.63,1.63,0,0,1-1.27.55H16.44a1.89,1.89,0,0,1-1.76-1.76,1.65,1.65,0,0,1,.55-1.28,1.77,1.77,0,0,1,1.21-.49Z"/><polygon class="cls-3" points="16 38.72 4.07 38.72 4.07 4.39 15.96 4.39 16 38.72"/><circle class="cls-4" cx="5.98" cy="6.31" r="1.11"/><circle class="cls-4" cx="9.9" cy="6.31" r="1.11"/><circle class="cls-4" cx="13.83" cy="6.31" r="1.11"/><rect class="cls-4" x="5.18" y="19.02" width="9.43" height="2.23"/><rect class="cls-4" x="5.18" y="22.95" width="9.43" height="2.23"/><rect class="cls-4" x="5.18" y="26.88" width="9.43" height="2.23"/><rect class="cls-4" x="5.18" y="30.8" width="9.43" height="2.23"/><rect class="cls-4" x="5.18" y="34.73" width="9.43" height="2.23"/><rect class="cls-4" x="5.18" y="14.5" width="9.43" height="2.23"/><path class="cls-5" d="M27.08,8.71a7.79,7.79,0,0,1,3.1.61A8.27,8.27,0,0,1,32.72,11a7.46,7.46,0,0,1,1.74,2.54,8.3,8.3,0,0,1,.63,3.25,5.77,5.77,0,0,1-.38,2.15,9.24,9.24,0,0,1-.9,1.71A15.33,15.33,0,0,1,32.72,22a5,5,0,0,0-1.11,2l-.55,1.66c-.24.71-.49,1.5-.76,2.37H23.85l-.8-2.42c-.21-.6-.39-1.15-.56-1.63a7.06,7.06,0,0,1-.25-.79A5.2,5.2,0,0,0,21.43,22a14.55,14.55,0,0,1-1.08-1.39,9.22,9.22,0,0,1-.93-1.71A5.67,5.67,0,0,1,19,16.72a8.26,8.26,0,0,1,.63-3.25,7.46,7.46,0,0,1,1.74-2.54A8,8,0,0,1,24,9.29,8.37,8.37,0,0,1,27.08,8.71Zm4.53,12.1A18.4,18.4,0,0,0,32.9,19a4.23,4.23,0,0,0,.58-2.25A6.71,6.71,0,0,0,33,14.23a6.16,6.16,0,0,0-1.36-2.07,6.4,6.4,0,0,0-2-1.36,6.57,6.57,0,0,0-2.52-.48,6.92,6.92,0,0,0-2.55.46,5.73,5.73,0,0,0-2,1.31,6.19,6.19,0,0,0-1.86,4.63,4.15,4.15,0,0,0,.55,2.22,15,15,0,0,0,1.26,1.76,10.79,10.79,0,0,1,.71.91,8.89,8.89,0,0,1,.55,1,.31.31,0,0,0,.05.13,2.67,2.67,0,0,1,.15.45c.07.25.19.63.38,1.13s.43,1.23.73,2.17h4.08c.31-.94.55-1.66.73-2.17s.32-.88.41-1.13.14-.41.17-.48a.32.32,0,0,0,.05-.15c.17-.3.35-.59.53-.86S31.38,21.11,31.61,20.81ZM30,28.87a.7.7,0,0,1,.53.23.78.78,0,0,1,.23.58v1.61a.8.8,0,0,1-.23.58.73.73,0,0,1-.53.22h-5.8c-.47,0-.7-.26-.7-.8V29.68c0-.54.23-.81.7-.81Zm-6.09,4H30.3l-.5.51a3.73,3.73,0,0,1-2.72,1.1,3.78,3.78,0,0,1-2.77-1.1Zm3.95-1.61c.45,0,.68-.27.68-.81s-.23-.8-.68-.8-.68.26-.68.8S27.35,31.29,27.81,31.29Z"/><path class="cls-5" d="M46.69,29a.62.62,0,0,1,.47.2.71.71,0,0,1,.19.52v1.43a.74.74,0,0,1-.19.51.59.59,0,0,1-.47.21h-.57c0,.12-.09.23-.13.34l-.12.31.41.45a.72.72,0,0,1,.19.5.76.76,0,0,1-.19.51l-.94,1a.63.63,0,0,1-.46.2.62.62,0,0,1-.47-.2L44,34.5a2,2,0,0,1-.29.15l-.31.14v.63a.75.75,0,0,1-.18.5.59.59,0,0,1-.47.21H41.43a.59.59,0,0,1-.47-.21.71.71,0,0,1-.19-.5v-.63l-.31-.14a1.91,1.91,0,0,1-.28-.15l-.41.47a.66.66,0,0,1-.48.2.59.59,0,0,1-.45-.2l-.94-1a.72.72,0,0,1-.19-.51.68.68,0,0,1,.19-.5l.41-.45a2.92,2.92,0,0,0-.14-.31,3.38,3.38,0,0,1-.11-.34h-.58a.61.61,0,0,1-.47-.21.78.78,0,0,1-.18-.51V29.68a.75.75,0,0,1,.18-.52.63.63,0,0,1,.47-.2h.58a3.38,3.38,0,0,1,.11-.34c0-.1.1-.21.14-.31l-.41-.45a.76.76,0,0,1-.19-.52.67.67,0,0,1,.19-.49l.94-1a.56.56,0,0,1,.45-.2.62.62,0,0,1,.48.2l.41.45.28-.15a1.66,1.66,0,0,1,.31-.12v-.63a.73.73,0,0,1,.19-.52.62.62,0,0,1,.47-.2h1.32a.62.62,0,0,1,.47.2.77.77,0,0,1,.18.52V26a1.43,1.43,0,0,1,.31.12l.29.15.41-.45a.59.59,0,0,1,.47-.2.59.59,0,0,1,.46.2l.94,1a.71.71,0,0,1,.19.49.81.81,0,0,1-.19.52l-.41.45.12.31c0,.11.09.22.13.34Zm0,.72H45.62l-.14-.5-.09-.28-.12-.28-.22-.45.35-.38.41-.45-.93-1-.41.45-.35.36-.43-.22-.25-.13-.24-.1-.45-.18V25.37H41.43v1.14l-.45.18-.26.1-.26.13-.41.22-.35-.36-.41-.45-.92,1,.41.45.33.38-.21.45c0,.09-.08.19-.11.28s-.07.19-.09.28l-.17.5H37.48v1.43h1.05l.17.49c0,.09.06.18.09.27s.07.18.11.27l.21.47-.33.39-.41.44.92,1L39.7,34l.35-.38.41.25c.09,0,.17.09.26.12l.26.1.45.16v1.17h1.32V34.25l.45-.16.24-.1a1.92,1.92,0,0,0,.25-.12l.43-.25.35.38.41.45.93-1L45.4,33l-.35-.39.22-.47.12-.27.09-.27.14-.49h1.07Zm-4.6-1.44a1.83,1.83,0,0,1,1.4.63,2.33,2.33,0,0,1,0,3.05,1.87,1.87,0,0,1-2.8,0,2.33,2.33,0,0,1,0-3.05A1.82,1.82,0,0,1,42.09,28.24Zm0,3.59A1.2,1.2,0,0,0,43,31.4a1.44,1.44,0,0,0,.39-1,1.45,1.45,0,0,0-.39-1,1.23,1.23,0,0,0-1.85,0,1.45,1.45,0,0,0-.39,1,1.44,1.44,0,0,0,.39,1A1.2,1.2,0,0,0,42.09,31.83Z"/><path class="cls-5" d="M50.52,18.8a.42.42,0,0,1,.32.13.51.51,0,0,1,.12.35v1a.52.52,0,0,1-.12.34.43.43,0,0,1-.32.14h-.39L50,21l-.08.21.28.31a.54.54,0,0,1,0,.68l-.64.7a.43.43,0,0,1-.31.14.42.42,0,0,1-.32-.14l-.28-.32-.19.11-.21.09v.43a.53.53,0,0,1-.13.34.42.42,0,0,1-.32.14H47a.42.42,0,0,1-.32-.14.48.48,0,0,1-.13-.34v-.43l-.21-.09-.19-.11-.28.32a.42.42,0,0,1-.32.14.43.43,0,0,1-.31-.14l-.64-.7a.51.51,0,0,1,0-.68l.28-.31L44.74,21a1.55,1.55,0,0,1-.08-.23h-.39A.42.42,0,0,1,44,20.6a.52.52,0,0,1-.12-.34v-1a.51.51,0,0,1,.12-.35.41.41,0,0,1,.32-.13h.39a1.23,1.23,0,0,1,.08-.23l.09-.22-.28-.3a.56.56,0,0,1-.13-.35.49.49,0,0,1,.13-.33l.64-.7a.39.39,0,0,1,.31-.14.39.39,0,0,1,.32.14l.28.3.19-.1.21-.08v-.43a.48.48,0,0,1,.13-.35.42.42,0,0,1,.32-.14h.89a.42.42,0,0,1,.32.14.52.52,0,0,1,.13.35v.43l.21.08.19.1.28-.3a.39.39,0,0,1,.32-.14.39.39,0,0,1,.31.14l.64.7a.48.48,0,0,1,.12.33.55.55,0,0,1-.12.35l-.28.3.08.22c0,.07.06.14.09.23Zm0,.48h-.73l-.1-.33a1.39,1.39,0,0,0-.06-.19c0-.07-.05-.13-.07-.19l-.16-.31.24-.26.28-.3L49.29,17l-.28.3-.24.24-.29-.15-.17-.08-.16-.07-.31-.12v-.78H47v.78l-.31.12-.17.07-.18.08-.28.15-.23-.24L45.5,17l-.63.68.28.3.22.26-.14.31c0,.06,0,.12-.07.19a1.46,1.46,0,0,0-.07.19l-.11.33h-.71v1H45l.11.33a1.34,1.34,0,0,0,.07.18c0,.06.05.12.07.19l.14.31-.22.26-.28.31.63.68.28-.3L46,22l.28.17.18.08.17.07.31.11v.79h.89v-.79l.31-.11.16-.07.17-.08.29-.17.24.26.28.3.63-.68-.28-.31-.24-.26.16-.31c0-.07,0-.13.07-.19a1.27,1.27,0,0,0,.06-.18l.1-.33h.73Zm-3.13-1a1.24,1.24,0,0,1,1,.42,1.49,1.49,0,0,1,.39,1,1.47,1.47,0,0,1-.39,1,1.25,1.25,0,0,1-1.89,0,1.47,1.47,0,0,1-.39-1,1.49,1.49,0,0,1,.39-1A1.23,1.23,0,0,1,47.39,18.31Zm0,2.43a.8.8,0,0,0,.63-.29,1,1,0,0,0,.27-.68,1,1,0,0,0-.27-.69.82.82,0,0,0-.63-.28.8.8,0,0,0-.62.28,1,1,0,0,0-.27.69,1,1,0,0,0,.27.68A.78.78,0,0,0,47.39,20.74Z"/></svg>