<svg id="Layer_2" xmlns="http://www.w3.org/2000/svg" viewBox="0 0 675.47 925.52">
  <defs>
    <style>
      .cls-1{fill:#ffffff;stroke-width:0}
    </style>
  </defs>
  <g id="Layer_2-2">
    <g id="Flames_Type">
      <g id="Flames">
        <path class="cls-1" d="M342.31 630.65h-.06l.05-6h.07c.5-.01 11.06-.41 23.16-12.97 19.29-20 41.26-68.5 38.7-185.87-15.52-28.05-28.03-62.65-37.19-102.88-16.07-70.56-16.31-135.04-16.31-135.68v-3.67l3.59.72c1.32.27 13.27 3.45 25.83 33.36 16.48 39.23 26.47 104.76 29.7 194.8.14 3.98.26 7.89.35 11.73.26.47.53.94.79 1.4 19.77 34.73 44.4 58.75 73.23 71.39 67.17 29.45 106.07 62.98 126.88 85.92 22.73 25.05 29.37 42.98 29.64 43.73l1.46 4.02H342.32Zm16.9-6H633.3c-3.19-6.56-11.06-20.59-26.96-38.05-20.41-22.41-58.58-55.2-124.55-84.12-27.81-12.19-51.8-34.42-71.41-66.13 1.04 112.34-21.29 159.85-40.94 179.9-3.57 3.64-7.04 6.37-10.24 8.4Zm-2.4-432.22c.42 16.62 2.77 70.85 16.09 129.27 7.89 34.62 18.27 64.96 30.92 90.43-2.18-60.1-8.86-141.62-28.29-189.9-7.47-18.55-14.56-26.48-18.72-29.79Z"/>
        <path class="cls-1" d="M516.81 630.14h-298.4l-.84-.71c-.6-.5-60.19-50.82-116.23-105.77C24.1 447.91-8.45 401.6 1.85 382.11c6.38-12.06 27.62-12.86 64.93-2.45 55.33 15.44 102.4 9.58 139.92-17.4 44.57-32.05 67.88-88.68 79.58-130.55 1.18-4.22 2.27-8.38 3.27-12.45 6.55-42.28 11.57-71.85 11.66-72.37l5.95.66c-.02.35-1.78 32.46-11.72 72.89-5.11 32.99-11.14 73.68-16.49 114.34-7.17 54.51-11.72 98.27-13.52 130.08-3.18 56.08 3.23 59.66 3.97 59.88.05.01 5.67 1.23 21.49-34.42 10.05-22.65 24.27-34.76 42.25-35.99 30.06-2.06 69.7 26.27 117.82 84.19 35.49 42.72 62.75 86.6 63.02 87.04l2.83 4.58Zm-296.2-6h285.36c-17.63-27.4-111.23-168-172.42-163.83-15.59 1.07-28.09 11.98-37.17 32.43-16 36.05-23.49 39.3-28.7 37.73-5.82-1.76-11.35-10.97-8.22-65.97 1.81-31.96 6.38-75.87 13.57-130.53 3.29-24.98 6.83-49.98 10.26-73.19-13.73 37.74-36.36 79.96-73.05 106.34-39.08 28.1-87.88 34.26-145.05 18.31-41.99-11.71-54.72-6.75-58.01-.52-4.94 9.34 1.28 39.23 98.37 134.44 52.27 51.26 107.66 98.49 115.08 104.78Z"/>
        <path class="cls-1" d="M526.66 630.65H309.44l2.67-4.52c3.23-5.47 79.65-134.02 131.6-130.58 13.45.89 24.04 10.26 31.47 27.84 3.4 8.04 12.09 26.6 19.35 25.22 6.17-1.17 21.71-17.93 32.79-147.79 6.16-72.16 7.9-144.42 7.92-145.14l5.98-.27c.03.3 3.56 29.95 17.38 67.32 12.72 34.37 37.01 82.49 80.53 116.61 27.27 21.37 39.29 44.41 35.73 68.46-4.27 28.89-30.53 58.35-78.04 87.55-35.03 21.53-69.3 34.96-69.64 35.09l-.52.2Zm-206.64-6h205.51c9.11-3.65 134.1-54.83 143.4-117.73 3.22-21.76-8.05-42.91-33.49-62.86-44.67-35.02-69.53-84.26-82.52-119.4a360.667 360.667 0 0 1-12.57-41.69c-1.06 27.74-3.19 73.06-7.05 118.34-3.63 42.55-8.06 76.77-13.18 101.71-6.81 33.25-14.59 49.61-24.47 51.49-8.73 1.67-16.99-7.48-26-28.78-6.48-15.32-15.34-23.46-26.34-24.19-19.69-1.3-47.66 20.17-80.84 62.11-19.9 25.16-36.2 50.85-42.45 61.01Z"/>
        <path class="cls-1" d="M389.59 630.65H28.58l1.24-3.91c.33-1.02 8.27-25.47 35.58-59.8 25.08-31.52 71.97-77.6 152.98-118.1 31.37-15.68 61.3-44.73 89.14-86.46.26-9.97.64-20.3 1.17-31.02 3.3-67.45 12.08-126.71 26.12-176.14 11.26-39.67 25.92-73.16 43.57-99.54 30.34-45.38 58.83-54.01 60.03-54.35l4.6-1.33-.81 4.72c-.16.93-16.36 93.76-51.43 194.91-20.62 59.48-43.65 110.18-68.43 150.69-2.93 4.78-5.88 9.43-8.86 13.93-1.61 66.58 2.48 121.88 12.21 164.7 8.3 36.53 20.48 63.42 36.2 79.92 14.69 15.43 27.31 15.77 27.7 15.77h.03l.04 6h-.06Zm-352.58-6h334.83c-4.24-2.52-8.96-6.11-13.88-11.2-25.17-26.04-53.2-88.92-50.67-240.1-26.96 38.54-55.89 65.68-86.22 80.85-79.84 39.92-126.03 85.21-150.72 116.17-20.51 25.72-29.99 46.08-33.32 54.27ZM435.3 9.08c-9.19 4.43-30.39 17.45-52.4 50.61-17.19 25.91-31.5 58.83-42.52 97.84-13.8 48.85-22.45 107.43-25.71 174.12-.35 7.12-.64 14.13-.87 21.02 1.13-1.8 2.26-3.61 3.39-5.45 24.56-40.14 47.39-90.43 67.87-149.49 30.11-86.81 46.25-167.47 50.23-188.65Z"/>
      </g>
      <g id="Type">
        <path class="cls-1" d="M28.48 759.27h18.99v-58.34l-16.86 11.66v-7.91l17.69-11.92h6.56v66.51h17.49v6.82H28.48v-6.82ZM82.73 729.4c0-27.68 10.41-37.73 24.77-37.73s24.82 10.04 24.82 37.73-10.46 37.73-24.82 37.73-24.77-9.99-24.77-37.73Zm42.26 0c0-23.16-6.5-31.07-17.49-31.07s-17.43 7.91-17.43 31.07 6.5 31.12 17.43 31.12 17.49-7.91 17.49-31.12ZM189.35 736.38l-26.28-43.61h8.59l21.65 37.47 21.6-37.47h8.38l-26.28 43.61v29.71h-7.65v-29.71ZM233.35 692.77h45.53v7.13h-37.83v24.87h34.71v6.97h-34.71v27.22h39.97v7.13h-47.67v-73.32ZM313.78 692.77h8.79l28.15 73.32h-8.07l-7.75-21.23h-33.62l-7.75 21.23h-7.91l28.15-73.32Zm18.63 45.38-9.63-26.33-4.68-13.11c-.94 2.65-2.91 8.33-4.74 13.11l-9.63 26.33h28.67ZM360.79 692.77h26.64c16.03 0 25.29 7.81 25.29 21.08 0 9.84-5.93 18.63-18.84 20.76l21.39 31.48h-8.9l-20.09-30.6h-17.8v30.6h-7.7v-73.32Zm44.23 21.13c0-9.37-6.87-14.05-18.32-14.05h-18.21v28.78h18.63c12.49 0 17.9-6.5 17.9-14.73ZM422.85 755.53l5.2-5.2c4.63 5.67 10.51 9.99 21.6 9.99 10.41 0 19.05-3.95 19.05-13.74s-9.52-12.39-19.77-14.94c-11.19-2.86-23.31-6.24-23.31-20.82 0-12.65 10.15-19.15 24.3-19.15 12.23 0 19.51 4.63 24.15 10.15l-5.1 5.1c-4.22-4.79-9.89-8.48-19.46-8.48-11.34 0-16.34 5.36-16.34 12.18 0 9 8.85 11.5 18.47 14.05 11.81 3.02 24.72 6.4 24.72 21.54 0 12.91-10.3 20.92-26.7 20.92-12.02 0-20.97-4.06-26.8-11.6ZM512.77 729.4c0-22.85 14.05-37.73 35.28-37.73s35.23 14.88 35.23 37.73-14 37.73-35.23 37.73-35.28-14.83-35.28-37.73Zm62.66 0c0-18.79-10.36-30.6-27.37-30.6s-27.42 11.81-27.42 30.6 10.36 30.65 27.42 30.65 27.37-11.81 27.37-30.65ZM598.24 692.77h43.3v7.13h-35.59v26.59h34.24v6.97h-34.24v32.63h-7.7v-73.32ZM28.69 842.27c0-32.31 19.87-53.36 49.91-53.36s49.83 21.05 49.83 53.36-19.8 53.37-49.83 53.37-49.91-20.98-49.91-53.37Zm88.62 0c0-26.57-14.65-43.28-38.72-43.28S39.8 815.7 39.8 842.27s14.65 43.36 38.79 43.36 38.72-16.71 38.72-43.36ZM147.6 816.22h9.72v17.89h.22c4.12-10.67 12.95-19.36 29.96-19.36 20.68 0 34.74 16.12 34.74 40.41s-13.76 40.48-34.45 40.48c-15.38 0-25.32-7.8-29.66-18.62h-.29v48.51h-10.23V816.22Zm63.96 38.94c0-20.61-11.7-31.58-26.87-31.58s-26.94 10.97-26.94 31.58 11.7 31.65 26.94 31.65 26.87-10.97 26.87-31.65ZM235.6 855.15c0-26.65 17.15-40.41 37.25-40.41 24.73 0 34.01 19.21 34.01 37.32 0 1.84-.15 3.68-.29 5.3h-60.14c.66 18.84 10.31 29.44 27.9 29.44 10.31 0 17.45-3.09 23.33-10.31l6.48 6.55c-7.36 8.61-16.19 12.59-29.81 12.59-23.41 0-38.72-14.5-38.72-40.48Zm60.73-5.89c-1.1-16.71-9.42-25.69-23.92-25.69-13.32 0-23.78 8.76-25.76 25.69h49.68ZM324.99 816.22h9.72v17.22h.29c2.87-8.24 9.64-18.7 25.98-18.7s24.88 11.19 24.88 28.56v50.86h-10.23v-49.02c0-13.25-4.93-21.35-18.03-21.35-14.43 0-22.38 10.53-22.38 25.47v44.9h-10.23v-77.95ZM404.52 852.28v-61.83h31.06v59.4c0 12.95 5.59 19.43 18.11 19.43s18.11-6.48 18.11-19.43v-59.4h30.4v61.83c0 29.66-17.3 43.36-48.8 43.36s-48.88-13.69-48.88-43.36ZM518.5 790.45h31.06v103.71H518.5V790.45ZM562.33 871.72l24.07-11.63c2.72 8.47 6.92 11.92 14.28 11.92s11.48-5.01 11.48-13.4-3.61-12.81-10.67-12.81c-5.3 0-9.35 1.91-13.18 8.1l-25.03-11.41 5.45-52.04h67.72v22.45H593.1l-1.84 16.78c4.86-3.97 11.7-6.04 20.02-6.04 20.02 0 31.5 13.69 31.5 33.71 0 22.01-14.06 38.28-41.66 38.28-22.23 0-34.3-10.31-38.79-23.92Z"/>
      </g>
    </g>
  </g>
</svg>
