<svg enable-background="new 0 0 1920 1398" viewBox="0 0 1920 1398" xmlns="http://www.w3.org/2000/svg"><g fill="#54b9de"><path d="m728.07 1137.07c248.87-125.85 446-334.63 557.36-590.3 0 0 125.08-279.47 8.26-546.48 0 0 25.03 333.76-734.27 688.38s-525.67 709.24-525.67 709.24c43-39.41 95.61-66.83 152.55-79.5 124.94-33.62 321.59-67.85 541.77-181.34z" opacity=".6"/><path d="m749.82 1291.54c326.2 0 703.55-151.62 890.28-490.17 33.98-69.22 56.96-143.31 68.1-219.61 21.95-132.02 21.58-266.78-1.09-398.68 0 0-61.83 173.18-421.68 363.69-166.22 84.93-340.18 153.75-519.52 205.51-858.02 260.4-732.16 645.63-732.16 645.63 135.21-89.5 136.03-106.37 716.07-106.37z" opacity=".4"/><path d="m749.82 1291.54c299.88 0 707.59 16.86 919.35-160.64 129.87-108.86 248.44-252.72 250.67-471.95 0 0-177.64 117.25-279.77 142.46-141.27 34.87-395.47 88.36-628.04 75.16-789.24-44.8-978.29 521.34-978.29 521.34 108.84-100.65 241.28-106.37 716.08-106.37z" opacity=".2"/></g></svg>