<svg xmlns="http://www.w3.org/2000/svg" viewBox="0 0 764.86 808.98">
  <path d="M764.55 416.45C771.85 229.93 615.41 105.71 466 51.58 424.38 33.12 393.83 20.21 370.12 0c-3.24 70.28 190.42 131.37 233.97 233.6 29.99 62.07 26.53 95.71.65 139.95-20.44 31.85-68.66 57.24-98.59 29.86 18.03-14.31 40.75-44.5 38.21-81.79l-.34.23c-11.93 7.86-25.21 16.34-40.86 22.99 13.03-33.84 11.62-68.46 5.43-106.77-9.78 21.7-2.89 26.91-61.8 64.77 8.08-18.56 9.74-68.03-9.78-96.16 14.9 121.04-257.31 127.15-194.49 249.85 1.06-9.42 5.59-12.99 16.78-17.89 36.23-14.51 83.71 15.4 72.24 59.11-25.83 85.5-137.65 67.35-181.54 3.1-50.35-76.89-61.91-152.76 18.71-253.45 40.41-46.21 104.24-77.56 111.8-140.96C152.5 213.17-16.21 258 1.25 471.5c18.61 241.36 283.81 397.45 505.73 315.44l-.64-1.82.79 1.76c154.24-51.67 264.4-207.27 257.41-370.44ZM638.51 699.57l-.82.76c-81.36-45.27-126.58-103.35-167.01-165.71 56.84 64.4 175.05 83.2 245.07 63.67-19.69 37.83-45.93 72.19-77.24 101.28ZM518.5 775.02a377.826 377.826 0 0 1-56.6 17.23c31.52-79.55 31.24-166.56 4.99-250.16 40.25 61.16 84.82 117.86 165.08 163.34-33.55 29.79-71.71 53.2-113.47 69.59ZM267.89 127.47c-16.95 46.9-70.87 75.61-104.54 115.15-79.19 99.05-75 176.79-19.07 262.59 39.95 54.5 114.47 77.1 166.88 37.87 37.97-27.29 40.26-95.46-7.76-110.39 59.41-3.84 148.48 10.36 197.15-24.68 58.22 48.22 136.13-35.78 131.25-98.81.9-83.96-77.3-164.01-169.59-218.9-56.65-34.42-75.58-60.18-81.89-73.5 114.06 62.87 285.74 111.06 345.25 252.52 27.92 52.72-.24 252.98-156.96 268.12-44.44 5.02-87.58-10.35-122.92-40.12 7.28 89.25-62.59 168.54-165.69 177.02-106.66 14.74-204.14-54.07-244.6-152.36-83.53-221.13 86.91-291.48 232.49-394.51Zm-2.66 301.84c-5.02 1.15-9.77 2.87-14.31 5.27 5.4-10.85 22.13-31.47 37.64-41.54 3.51.05 11.28 2.36 15.39 3.74l.58-1.83-.41 1.89c5.79 1.79 11.79 3.97 17.92 3.08l-.22-1.91.38 1.89c12.9-1.39 16.52-19.31 5.93-26.09 21.32-6.73 46.24-8.86 69.46-7.37-34.18 35.72-86.19 52.73-132.37 62.87Zm-26.39-13.19Zm181.38-142.81c9.04-9.32 19.23-25.02 22.23-35.06 8.54 32.52-2.86 63.85-5.23 69.81-24.78 12.94-51.2 22.63-77.88 30.86-48.57 15.82-99.96 34.81-119.02 80.75 19.48-80.66 129.28-83.86 179.9-146.35Zm116.3 61.92c-14.88 69.32-57.74 86.35-129.91 89.34 37.97-11.07 72.51-35.72 92.08-70.47l.57-.13.03-.11c11.82-3.43 27.88-12.87 37.23-18.63Zm-164.48 25.78Zm39.5-1.82.45.32h-.08l-.37-.32Zm-102.76 66.1c36.95-11.11 72.16-30.03 98.56-58.57 27.5.08 54.85-4.24 81.6-10.36-21.83 34.49-59.16 56.91-98.78 64.97-25.59 5.74-57.75 2.9-81.59 4.02l.2-.06Zm-2.68-35.35c-2.68-.85-5.84-1.88-8.68-2.6 8.26-3.96 23.33-15.89 29.48-3.81 2.29 12.3-11.72 10.06-20.8 6.4Zm187.62-42.08c-26.2 6.33-52.92 10.98-79.89 11.63 11.74-13.75 21.98-29.67 29.18-46.3 34.89-17.51 53.28-37.59 61.41-48.54 5.01 47.35-7.83 77.24-10.7 83.2Zm-245.94 72.35c10.68-25.91 35.98-41.88 60.06-53.99 20.81-10.36 43.13-17.23 65.24-24.13 20.33-6.65 40.42-14.32 59.65-23.71-7.52 14.91-17.25 28.76-28.48 41.12-62.33-6.21-129.91 16.6-159.25 70.89.48-3.02 1.33-6.45 2.78-10.17Zm367.96 176c-58.98-7.05-108.29-31.82-146.77-73.68 142.51 82.81 292.47-68.61 271.68-213.31 27.38 88.86 22.05 196.15-20.52 280.61-10.14 2.61-53.23 12.5-104.39 6.38ZM7.72 438.69c8.61 136.8 132.39 263.79 273.18 242.76 85.05-8.35 155.77-60.62 169.42-142.83 6.72 103.96-56.42 201.46-149.62 254.51-89.82-18.64-171.79-72.37-225.69-146.64-44.66-64.76-68.36-120.95-67.29-207.8Zm401.66 265.77c33.87-45.54 52.6-116.24 47.98-168.5 28.89 86.22 29.91 176.14-3.92 258.06-47.28 9.23-93.9 9.77-141.88.88 40.84-25.59 73.74-56 97.83-90.44Z" fill="#ffffff"/>
</svg>
