<svg data-name="Group 1282" xmlns="http://www.w3.org/2000/svg" viewBox="0 0 76.624 65.326">
  <path data-name="Path 2525" d="M72.864 61.109a1.2 1.2 0 0 0 1.21-1.269c0-.9-.543-1.33-1.657-1.33h-1.8v4.712h.677v-2.054h.832l.019.025 1.291 2.029h.724l-1.389-2.1Zm-.783-.472h-.785v-1.593h.995c.514 0 1.1.084 1.1.757 0 .774-.593.836-1.314.836" fill="#0a66c2"/>
  <path data-name="Path 2520" d="M55.204 55.204h-9.6V40.17c0-3.585-.064-8.2-4.993-8.2-5 0-5.765 3.906-5.765 7.939v15.294h-9.6V24.287h9.216v4.225h.129a10.1 10.1 0 0 1 9.093-4.994c9.73 0 11.524 6.4 11.524 14.726Zm-40.79-35.143a5.571 5.571 0 1 1 5.57-5.572 5.571 5.571 0 0 1-5.57 5.572m4.8 35.143h-9.61V24.287h9.61ZM59.99.004H4.78a4.728 4.728 0 0 0-4.781 4.67v55.439a4.731 4.731 0 0 0 4.781 4.675h55.21a4.741 4.741 0 0 0 4.8-4.675V4.67A4.738 4.738 0 0 0 59.99 0" fill="#0a66c2"/>
  <path data-name="Path 2526" d="M72.163 56.411a4.418 4.418 0 1 0 .085 0h-.085m0 8.33a3.874 3.874 0 1 1 3.809-3.938v.065a3.791 3.791 0 0 1-3.708 3.871h-.1" fill="#0a66c2"/>
</svg>
