<svg viewBox="0 0 194 60" xmlns="http://www.w3.org/2000/svg"><g fill="#fff"><path d="m.2 30.5c.1-.8.2-1.7.4-2.5.7-3.2 2.2-6.1 4.4-8.4.7-.7 1.4-1.4 2.2-2 3-2.3 6.2-4.3 9.3-6.4 1.2-.8 2.4-1.7 3.6-2.6-.3 1.5-1.1 2.8-2.3 3.9-1.6 1.6-3.4 3.2-5 4.8-2.5 2.3-4.1 5.2-4.7 8.7-1.1 5.9 2.1 12.1 6.6 14.2 2.6 1.2 5.3 1.3 7.8-.3 1.8-1.2 2.6-3.4 2.2-5.2-.7-2.5-3.9-3.8-6.2-2.4-.2.1-.4.3-.6.4-.8-1.3-.5-3.1.7-4.5 1.3-1.5 2.9-2.6 4.7-3.5 2.2-1.1 4.4-2.1 6.3-3.7 1.5-1.2 2.7-2.6 3.2-4.6.9 2.1.6 4.1 0 6.2 2-1 3.6-2.2 4.8-4.1.4 2.5.2 4.8-.7 7.2 1.2-.6 2.1-1.1 3.1-1.6.3 1.4-.5 3-2.7 5.5 1.2 1.1 2.5 1.3 4 .8 2.7-.9 5-3.9 5.2-6.8.3-3.6-1.1-6.6-3.3-9.3-2.5-3.1-5.7-5.5-9-7.6-2.1-1.3-4.1-2.6-5.6-4.6-.4-.5-.6-1.1-1-1.7 5.2 2.5 10.3 4.9 15.2 7.5 4.1 2.3 7.7 5.6 10.1 10 1.7 3 2.7 6.3 3 9.7.8 7.2-.7 13.9-5 19.9-4.7 6.3-10.8 10.2-18.5 11.5-1.2.2-2.4.3-3.6.5-.7 0-1.3 0-2 0-.1 0-.3-.1-.4-.1-1.7-.2-3.4-.3-5-.7-10.4-2.7-17.4-9.2-20.6-19.4-.6-1.8-.8-3.7-.8-5.5.1-1.3.1-2.3.2-3.3zm21.2-2.1v.2c.6.2 1.2.4 1.8.5.3 0 .6-.2.8-.4.1-.1.1-.6-.1-.8s-.6-.3-.8-.3c-.5.3-1.1.6-1.7.8z"/><path d="m193.8 39.5c-.1.6-.2 1.1-.4 1.7 0 .1-.1.2-.1.4-.4 1-.9 1.9-1.7 2.7-1.1 1.2-2.6 1.9-4.1 2.3-4.1 1-8 .4-11.5-2.1-.3-.2-.6-.4-.9-.7.9-1.2 1.8-2.3 2.6-3.5 1 .6 1.9 1.2 2.8 1.6 1.4.7 2.9.9 4.4.7 2.5-.3 3.9-2.5 3.4-5.2-.6-3.1-3.8-4.4-6.8-2.6-.4.2-.8.5-1.1.9-.5.7-1 .7-1.7.4-.8-.3-1.6-.5-2.4-.8.3-4.3.6-8.7 1-13h14.8c-.1 1.3-.2 2.6-.3 4-3.5 0-6.9 0-10.3 0-.2 1.7-.3 3.4-.5 5.2 2.1-1.5 4.3-1.6 6.6-1.2 2.1.3 4 1.5 5 3.3 1.4 1.9 1.6 3.9 1.2 5.9z"/><path d="m156.5 22.3h5.3v.8 14.5c0 1.1-.2 2.3-.5 3.4-1 3.5-3.5 5.3-6.9 5.8-2 .3-3.9.3-5.9-.3-3.6-1-6-3.7-6.2-7.5s-.1-7.6-.1-11.4c0-1.8 0-3.5 0-5.4h5.4v.9 13.3c0 .9.1 1.9.3 2.7.5 2.3 1.9 3.3 4.3 3.3s3.7-1.2 4.1-3.4c.1-.6.2-1.2.2-1.8 0-4.7 0-9.4 0-14.1 0-.2 0-.4 0-.8z"/><path d="m82.3 34.3c0 3.1-.6 5.9-2.2 8.4-3.8 5.8-12 5.9-16 .1-3.1-4.6-3.1-12.3.1-16.8 2.2-3.1 5.3-4.5 9.1-4.1 3.6.4 6.1 2.5 7.7 5.7.9 2.1 1.3 4.4 1.3 6.7zm-18.2.1c.1.9.1 1.9.3 2.8.4 2.2 1.1 4.2 2.7 5.7 3.6 3.5 9.5 2.2 11.6-2.6 1.7-3.9 1.7-8 0-11.9-1.2-2.7-3.3-4.4-6.4-4.5-3.2-.1-5.4 1.4-6.8 4.1-1.1 2.1-1.4 4.2-1.4 6.4z"/><path d="m166.7 22.3h5.3v24.2c-1.8 0-3.5 0-5.3 0 0-8 0-16.1 0-24.2z"/><path d="m86.5 29.3h2.3v2.3c.5-.4 1-.8 1.4-1.1 3-2.6 9.1-2.2 10.9 3.4.9 2.7.9 5.5 0 8.3-1.7 5.2-7.5 5.9-10.7 3.5-.5-.4-1-.7-1.6-1.2v4.4s0 2.9 0 4.4c-.8 0-1.5 0-2.3 0 0-8.1 0-16 0-24zm2.3 8.6c0 .7.1 1.5 0 2.2-.4 1.9.7 3 2.2 3.9.2.1.4.3.7.4 2.6 1.3 5.6.5 6.8-1.8 1.4-2.9 1.4-6 .1-8.9-.8-1.8-2.3-2.6-4.3-2.7-2.2 0-3.7 1.3-5.1 2.7-.1.1-.2.5-.2.7-.2 1.1-.2 2.3-.2 3.5z"/><path d="m119.5 38.4c-4.1 0-8.2 0-12.2 0-.5 2.1 1.1 5.2 3.1 6.1 2.6 1.2 5.3.3 7.6-2.6.5.3.9.7 1.4 1.1-1.3 2-3 3.5-5.5 3.9-5.7.8-8.7-3.2-9.1-7.8-.2-2.4.1-4.7 1.5-6.8 2.4-3.7 7.5-4.5 10.6-1.7 1.8 1.7 2.4 3.8 2.6 6.2.1.5 0 1 0 1.6zm-12.2-1.9h9.9c.1-3-1.8-5.4-4.4-5.6-3-.1-5.3 2.1-5.5 5.6z"/><path d="m126 31.8c.7-.5 1.3-1 1.9-1.4 1.9-1.3 4-1.8 6.2-1.4s3.5 1.9 3.6 4.1c.1 1.2 0 2.4 0 3.5v8.9.9c-.8 0-1.5 0-2.3 0 0-.3 0-.6 0-.9 0-3.6 0-7.2 0-10.8 0-3.2-1.6-4.3-4.7-3.7-1.8.3-3.2 1.5-4.5 2.7-.1.2-.1.6-.1.9v11 .9c-.8 0-1.5 0-2.3 0 0-5.7 0-11.4 0-17.2h2.3c-.1.8-.1 1.6-.1 2.5z"/></g></svg>