<?xml version="1.0" encoding="utf-8"?>
<!-- Generator: Adobe Illustrator 23.0.3, SVG Export Plug-In . SVG Version: 6.00 Build 0)  -->
<svg version="1.1" id="Ebene_1" xmlns="http://www.w3.org/2000/svg" xmlns:xlink="http://www.w3.org/1999/xlink" x="0px" y="0px"
	 viewBox="0 0 977 240" style="enable-background:new 0 0 977 240;" xml:space="preserve">
<style type="text/css">
	.st0{fill:#010811;}
	.st1{fill:#1C98D5;}
</style>
<g>
	<path class="st0" d="M338.83,119.49L338.83,119.49c-1.63-0.64-3.29-1.27-4.89-1.87c-10.1-3.83-19.64-7.44-19.64-13.21
		c0-3.97,1.97-7.04,5.85-9.1c3.28-1.74,7.93-2.7,13.09-2.7c7.96,0,15.7,1.99,19.25,3.95c1.27,0.69,3.04,1,4.23,1
		c3.54,0,6.11-2.68,6.11-6.37c0-2.3-1.38-4.32-3.78-5.55c-7.15-3.68-15.96-5.63-25.48-5.63c-9.13,0-17.35,2.18-23.14,6.15
		c-6.63,4.54-10.14,11.32-10.14,19.63c0,6.1,3.62,11.34,11.07,16.03c6.4,4.03,14.72,7.05,22.02,9.57c8.53,2.9,18.32,7.15,18.32,14.3
		c0,4.33-2.16,7.69-6.41,9.99c-3.4,1.84-8.15,2.89-13.03,2.89c-7.39,0-14.85-2.31-22.13-6.86c-1.77-1.18-3.51-1.8-5.04-1.8
		c-3.14,0-6.52,2.22-6.52,7.11c0,2.12,1.14,3.94,3.29,5.26c10.16,6.15,19.44,8.89,30.08,8.89c8.99,0,17.22-2.11,23.19-5.95
		c7.24-4.65,11.07-11.78,11.07-20.61C366.2,130.28,352.28,124.8,338.83,119.49z"/>
	<path class="st0" d="M389.07,80.45c-4.3,0-6.77,2.37-6.77,6.49v76.27c0,4.13,2.34,6.31,6.77,6.31c4.43,0,6.76-2.18,6.76-6.31V86.94
		C395.83,82.75,393.43,80.45,389.07,80.45z"/>
	<path class="st0" d="M617.11,92.74c-3.28-4.18-7.35-7.41-12.08-9.6c-4.92-2.27-10.58-3.43-16.82-3.43
		c-10.95,0-20.92,4.86-28.07,13.69c-6.94,8.56-10.76,20.16-10.76,32.66v71.48c0,4.2,2.3,6.34,6.83,6.34c4.07,0,6.71-2.43,6.71-6.18
		v-36.54c6.57,7.02,14.44,10.17,25.3,10.17c6.23,0,11.88-1.14,16.81-3.39c4.73-2.16,8.79-5.34,12.08-9.46
		c6.32-7.91,9.66-19.12,9.66-32.41C626.76,112.31,623.42,100.79,617.11,92.74z M613.57,126.06c0,19.69-9.96,32.42-25.37,32.42
		c-15.68,0-25.42-12.42-25.42-32.42c0-16.54,8.73-33.29,25.42-33.29C605.73,92.78,613.57,109.49,613.57,126.06z"/>
	<path class="st0" d="M648.49,47.9c-4.43,0-6.96,2.35-6.96,6.46v108.87c0,4.18,2.28,6.31,6.77,6.31c4.49,0,6.77-2.12,6.77-6.31
		V54.36C655.06,50.08,652.85,47.9,648.49,47.9z"/>
	<path class="st0" d="M682.36,80.45c-4.45,0-7,2.3-7,6.3v76.46c0,4.12,2.35,6.31,6.8,6.31c4.4,0,6.73-2.18,6.73-6.31V86.75
		C688.89,82.57,686.7,80.45,682.36,80.45z"/>
	<path class="st0" d="M760.44,80.45c-4.43,0-6.97,2.3-6.97,6.3v76.46c0,4.12,2.34,6.31,6.77,6.31c4.43,0,6.76-2.18,6.76-6.31V86.75
		C767.01,82.57,764.8,80.45,760.44,80.45z"/>
	<path class="st0" d="M851.43,147.66c-0.03,0-0.06,0-0.08,0c-2.18,0.03-4.46,1.11-6.97,3.31c-6.86,5.8-12.35,7.75-21.76,7.75
		c-13.62,0-26.99-13.2-27.36-26.83h53.62c8.14,0,9.69-4.6,9.69-13.1c0-11.52-3.36-21.27-9.72-28.19
		c-6.64-7.23-16.34-11.05-28.05-11.05c-12,0-22.19,4.99-29.47,14.43c-6.41,8.32-10.09,19.84-10.09,31.61
		c0,12.58,3.72,23.99,10.46,32.11c7.41,8.91,18.09,13.62,30.91,13.62c7.5,0,13.72-1,19.04-3.07c5.51-2.14,10.07-5.42,13.93-10.03
		c1.31-1.48,1.9-3.44,1.9-4.74c0.01-1.59-0.56-3-1.64-4.07C854.72,148.31,853.11,147.66,851.43,147.66z M795.43,119.61
		c0.26-15.69,11.3-27.45,25.87-27.45c14.01,0,23.85,11.26,24.08,27.45H795.43z"/>
	<path class="st0" d="M524.36,87.46c-5.54-4.99-13.15-7.74-21.43-7.74c-5.91,0-11.56,1.34-16.34,3.87
		c-4.82,2.55-8.79,6.33-11.49,10.94c-0.02,0.03-0.05,0.08-0.1,0.16c-0.13,0.2-0.35,0.54-0.63,1.02c-0.31-0.56-0.53-0.92-0.64-1.1
		l-0.05-0.08c-2.7-4.61-6.67-8.39-11.49-10.94c-4.78-2.53-10.43-3.87-16.34-3.87c-8.28,0-15.89,2.75-21.43,7.74
		c-5.67,5.11-8.79,12.29-8.79,20.2v55.36c0,4.08,2.22,6.14,6.6,6.14c4.42,0,6.76-2.12,6.76-6.14v-50.41
		c0-12.05,6.87-19.83,17.51-19.83c13.57,0,20.49,10.82,21.33,21.55v48.69c0,3.37,1.45,5.41,4.29,6.06c0.66,0.16,1.41,0.24,2.23,0.24
		l0.05,0l0.03,0c0.81,0,1.56-0.08,2.22-0.24c2.85-0.65,4.3-2.69,4.3-6.06v-48.69c0.84-10.73,7.76-21.55,21.33-21.55
		c10.63,0,17.51,7.78,17.51,19.83v50.41c0,4.02,2.34,6.14,6.76,6.14c4.38,0,6.6-2.07,6.6-6.14v-55.36
		C533.14,99.74,530.02,92.57,524.36,87.46z"/>
	<path class="st0" d="M740,48.09c-10.79,0-17.73,2.09-22.52,6.79c-5.49,5.38-8.13,14.16-8.29,27.58l-0.01,0v80.87
		c0,3.96,2.36,6.14,6.64,6.14c4.45,0,6.9-2.18,6.9-6.14V95.56h9.21c5.03,0,7.58-2.22,7.58-6.61c0-2.94-1.26-6.45-7.27-6.45
		c-4.69,0.14-7.64,0.15-9.52,0.15v-0.03c0-6.77,0.59-11.1,1.91-14.04c1.22-2.71,3.14-4.43,6.43-5.74c2.86-1.15,6.28-1.14,10.24-1.13
		c0.34,0,0.68,0,1.02,0c3.82,0,6.92-2.92,6.92-6.51C749.24,50.48,746.13,48.09,740,48.09z"/>
	<path class="st0" d="M905.76,80.2c-11.05,0-17.8,1.96-22.58,6.56c-5.62,5.41-8.24,14.48-8.24,28.54v48.12
		c0,3.9,2.52,6.14,6.91,6.14c4.39,0,6.62-2.07,6.62-6.14V115.3c0-12.89,2.03-17.84,8.34-20.37c2.86-1.15,6.29-1.14,10.24-1.13
		c0.34,0,0.68,0,1.02,0c3.82,0,6.92-2.92,6.92-6.51C915,82.59,911.89,80.2,905.76,80.2z"/>
	<path class="st1" d="M205.75,118.02c-1.83,0-73.74,0-76.25,0c-15.01,0-24.27-9.36-24.27-19.2s9.26-19.2,24.27-19.2
		c1.86,0,49.52,0,74.71,0c3.36,8.23,11.45,14.04,20.88,14.04c12.43,0,22.54-10.11,22.54-22.54s-10.11-22.54-22.54-22.54
		c-9.46,0-17.57,5.85-20.91,14.13c-23.54,0-69.88,0-74.66,0c-24.82,0-41.38,16.44-41.38,36.12s16.56,36.11,41.38,36.11
		c1.83,0,73.74,0,76.25,0c15.07,0,24.27,9.26,24.27,19.1s-9.19,19.1-24.27,19.1c-1.96,0-51.32,0-74.72,0
		c-3.35-8.25-11.45-14.09-20.89-14.09c-12.43,0-22.54,10.11-22.54,22.54s10.11,22.54,22.54,22.54c9.44,0,17.54-5.83,20.89-14.08
		c21.43,0,69.64,0,74.71,0c24.69,0,41.38-16.34,41.38-36.02S230.44,118.02,205.75,118.02z M225.09,62.25c4.89,0,8.86,3.98,8.86,8.86
		s-3.98,8.86-8.86,8.86c-4.89,0-8.86-3.98-8.86-8.86S220.2,62.25,225.09,62.25z M110.14,190.44c-4.89,0-8.86-3.98-8.86-8.86
		c0-4.89,3.98-8.86,8.86-8.86s8.86,3.98,8.86,8.86C119.01,186.47,115.03,190.44,110.14,190.44z"/>
</g>
</svg>
