<svg class="ui5con-detail__icon" aria-hidden="true" xmlns="http://www.w3.org/2000/svg" viewBox="0 0 80 80">
  <path fill-rule="evenodd" clip-rule="evenodd" d="M55.692 21.938c-4.273.003-8.698 1.422-13.323 4.497a3.375 3.375 0 0 1-3.741-.002c-4.614-3.076-9.037-4.49-13.313-4.491-3.809-.001-7.737 1.12-11.815 3.543v32.886c3.86-1.765 7.805-2.687 11.82-2.686 5.852.002 11.552 1.965 17.052 5.632a3.375 3.375 0 0 1-3.744 5.616c-4.621-3.08-9.04-4.497-13.31-4.498-4.27-.001-8.692 1.412-13.32 4.498a3.375 3.375 0 0 1-5.248-2.808v-40.5c0-1.128.564-2.182 1.503-2.808 5.503-3.67 11.21-5.627 17.064-5.626 5.193.002 10.268 1.543 15.185 4.45 4.92-2.903 9.993-4.45 15.184-4.453 5.855-.005 11.56 1.951 17.065 5.631a3.375 3.375 0 0 1 1.499 2.806v13.5a3.375 3.375 0 1 1-6.75 0V25.483c-4.077-2.429-8.002-3.549-11.808-3.546Z" fill="currentColor"/>
  <path fill-rule="evenodd" clip-rule="evenodd" d="M54.44 58.444a10.126 10.126 0 0 1 4.529-1.069h3.563c1.571 0 3.122.366 4.528 1.069l5.324 2.662a3.375 3.375 0 0 1-1.509 6.394h-20.25a3.375 3.375 0 0 1-1.51-6.394l5.325-2.662ZM60.75 54a6.75 6.75 0 1 0 0-13.5 6.75 6.75 0 0 0 0 13.5ZM40.5 20.25a3.375 3.375 0 0 1 3.375 3.375v40.5a3.375 3.375 0 1 1-6.75 0v-40.5A3.375 3.375 0 0 1 40.5 20.25Z" fill="currentColor"/>
</svg>
