<svg class="ui5con-detail__icon" aria-hidden="true" xmlns="http://www.w3.org/2000/svg" viewBox="0 0 80 80">
  <path fill-rule="evenodd" clip-rule="evenodd" d="M6.75 40.5c0-18.64 15.11-33.75 33.75-33.75S74.25 21.86 74.25 40.5 59.14 74.25 40.5 74.25 6.75 59.14 6.75 40.5Zm33.75-27c-14.912 0-27 12.088-27 27s12.088 27 27 27 27-12.088 27-27-12.088-27-27-27Z" fill="currentColor"/>
  <path fill-rule="evenodd" clip-rule="evenodd" d="M40.5 23.625a3.375 3.375 0 1 0 0-6.75 3.375 3.375 0 0 0 0 6.75Zm15.886.988a3.375 3.375 0 0 1 .508 4.123L46.769 45.611a3.373 3.373 0 0 1-1.158 1.158L28.736 56.894a3.375 3.375 0 0 1-4.63-4.63l10.125-16.875a3.373 3.373 0 0 1 1.158-1.158l16.875-10.125a3.375 3.375 0 0 1 4.122.507Z" fill="currentColor"/>
</svg>
