<svg width="533" height="534" viewBox="0 0 533 534" fill="none" xmlns="http://www.w3.org/2000/svg">
<path d="M193.472 183.503L175.294 172.782C173.863 171.938 172.16 171.695 170.558 172.106C168.956 172.516 167.587 173.547 166.751 174.971L145.541 211.141C144.706 212.565 144.473 214.266 144.894 215.87C145.315 217.473 146.355 218.848 147.785 219.692L165.963 230.413C167.663 231.416 169.687 231.705 171.591 231.217C173.494 230.729 175.121 229.504 176.113 227.812L196.119 193.696C196.617 192.857 196.942 191.928 197.078 190.962C197.214 189.995 197.158 189.01 196.912 188.063C196.666 187.116 196.235 186.225 195.645 185.443C195.054 184.66 194.316 184.001 193.472 183.503Z" fill="#A9B4BE"/>
<path d="M189.456 181.131L194.386 184.039L166.877 230.948L161.948 228.041L189.456 181.131Z" fill="#767B7F"/>
<path d="M223.449 186.23L203.996 174.757C203.362 174.383 202.661 174.137 201.933 174.033C201.206 173.929 200.466 173.969 199.756 174.151C199.046 174.333 198.379 174.654 197.794 175.094C197.21 175.534 196.718 176.085 196.348 176.717L162.264 234.841C161.428 236.265 161.196 237.966 161.616 239.57C162.037 241.173 163.077 242.548 164.508 243.392L183.396 254.532C184.677 255.288 186.202 255.505 187.636 255.138C189.07 254.77 190.296 253.847 191.044 252.572L225.458 193.886C225.828 193.255 226.07 192.556 226.169 191.829C226.269 191.103 226.224 190.363 226.037 189.652C225.851 188.941 225.526 188.273 225.082 187.686C224.638 187.099 224.083 186.604 223.449 186.23Z" fill="#A9B4BE"/>
<path d="M224.887 187.074L236.504 193.926C239.483 195.683 240.488 199.511 238.748 202.477L204.997 260.033C203.258 262.998 199.434 263.979 196.455 262.222L184.838 255.37C181.859 253.613 180.855 249.785 182.594 246.819L216.345 189.263C218.084 186.298 221.908 185.317 224.887 187.074Z" fill="#767B7F"/>
<path d="M218.127 206.974L222.454 209.526C223.088 209.9 223.302 210.716 222.932 211.347L218.434 219.017C218.064 219.649 217.25 219.857 216.615 219.483L212.288 216.931C211.654 216.557 211.44 215.742 211.81 215.11L216.308 207.44C216.678 206.809 217.493 206.6 218.127 206.974Z" fill="#45484A"/>
<path d="M204.677 229.913L209.004 232.465C209.638 232.839 209.852 233.654 209.482 234.286L204.984 241.956C204.614 242.587 203.799 242.796 203.165 242.422L198.838 239.87C198.204 239.496 197.99 238.68 198.36 238.049L202.858 230.379C203.228 229.747 204.043 229.539 204.677 229.913Z" fill="#45484A"/>
<path d="M103.934 321.199C117.142 333.222 130.843 337.97 142.539 334.557C151.385 331.975 159.472 324.426 164.724 313.829C169.796 303.594 171.535 292.118 169.573 282.352C164.214 255.829 138.621 229.425 82.9676 233.559C88.0852 216.039 98.876 201.108 113.265 194.463C118.463 192.036 136.797 184.843 153.477 193.61C154.082 193.928 154.788 193.994 155.439 193.793C156.09 193.592 156.633 193.14 156.949 192.537C157.264 191.934 157.326 191.229 157.12 190.577C156.915 189.925 156.459 189.379 155.854 189.06C137.075 179.195 116.829 187.132 111.075 189.797C94.5084 197.489 82.3509 215.136 77.2103 235.517C77.1376 235.712 77.0867 235.914 77.0585 236.121C73.5815 250.372 73.5386 265.908 77.8558 280.244C82.311 295.052 92.0428 310.346 103.863 321.135L103.934 321.199ZM148.977 255.931C156.99 263.161 162.448 272.787 164.527 283.353C168.26 301.801 156.388 325.133 141.059 329.626C131.167 332.503 119.208 328.172 107.362 317.389L107.28 317.315C96.1102 307.147 86.947 292.717 82.7474 278.755C78.831 265.775 78.6953 251.76 81.5824 238.813C105.35 236.784 125.649 240.469 140.316 249.453C143.401 251.333 146.301 253.502 148.977 255.931Z" fill="#767B7F"/>
<path d="M335.536 269.919L295.519 246.317C293.668 245.226 291.464 244.911 289.391 245.442C287.317 245.973 285.546 247.307 284.465 249.151C283.384 250.994 283.083 253.195 283.627 255.27C284.172 257.346 285.518 259.125 287.369 260.217L327.386 283.819L335.536 269.919Z" fill="#F58B00"/>
<path d="M317.109 300.686L277.08 277.077C275.229 275.985 273.024 275.67 270.951 276.202C268.878 276.733 267.106 278.067 266.025 279.91C264.945 281.753 264.643 283.955 265.188 286.03C265.732 288.105 267.078 289.884 268.929 290.976L308.959 314.586L317.109 300.686Z" fill="#F58B00"/>
<path d="M376.353 263.625L344.165 244.641C343.234 244.092 342.204 243.731 341.135 243.578C340.067 243.425 338.98 243.484 337.936 243.752C336.893 244.019 335.914 244.49 335.055 245.136C334.196 245.783 333.474 246.593 332.93 247.521L288.546 323.208C287.447 325.082 287.141 327.319 287.695 329.428C288.248 331.538 289.616 333.346 291.498 334.456L323.685 353.44L376.353 263.625Z" fill="#A9B4BE"/>
<path d="M369.86 259.788L384.009 268.133C387.927 270.444 389.248 275.479 386.961 279.38L342.573 355.074C340.285 358.975 335.255 360.264 331.338 357.954L317.189 349.609C313.271 347.298 311.95 342.262 314.237 338.361L358.625 262.668C360.912 258.767 365.942 257.477 369.86 259.788Z" fill="#767B7F"/>
<path d="M370.925 281.183L393.43 294.457C397.348 296.767 398.669 301.803 396.381 305.704L368.969 352.449C366.682 356.35 361.652 357.64 357.734 355.329L335.229 342.056C331.311 339.745 329.99 334.709 332.277 330.808L359.689 284.063C361.977 280.162 367.007 278.873 370.925 281.183Z" fill="#A9B4BE"/>
<path d="M398.8 297.626L404.91 301.23C408.828 303.54 410.149 308.576 407.862 312.477L380.45 359.222C378.162 363.123 373.132 364.413 369.214 362.102L363.104 358.498C359.187 356.188 357.865 351.152 360.153 347.251L387.565 300.506C389.852 296.605 394.883 295.315 398.8 297.626Z" fill="#767B7F"/>
<path d="M134.702 401.869C135.162 402.277 135.752 402.509 136.366 402.522C136.979 402.536 137.576 402.33 138.049 401.942C138.522 401.555 138.84 401.01 138.946 400.407C139.052 399.804 138.939 399.181 138.628 398.651C115.631 360.341 120.373 320.073 139.224 306.489C146.637 301.147 156.936 299.541 169.006 301.835C190.967 305.983 214.978 322.314 227.447 341.486C234.963 353.041 235.934 362.132 236.874 370.929C237.814 379.725 238.794 389.004 246.484 399.776C258.067 415.993 278.802 427.758 303.408 432.086C328.407 436.474 353.733 432.349 372.952 420.714C392.656 408.788 420.637 380.128 411.8 353.955C407.152 340.18 394.636 332.312 387.578 328.847C386.961 328.548 386.253 328.506 385.609 328.729C384.965 328.953 384.437 329.423 384.143 330.037C383.848 330.651 383.81 331.359 384.038 332.004C384.265 332.649 384.739 333.179 385.355 333.477C391.705 336.604 402.936 343.619 406.969 355.607C411.245 368.291 404.895 381.254 398.817 389.891C391.141 400.493 381.45 409.477 370.294 416.334C352.144 427.319 328.086 431.222 304.294 427.051C281.027 422.961 261.484 411.954 250.695 396.836C243.782 387.158 242.917 379.034 242.002 370.429C241.043 361.467 239.963 351.314 231.77 338.718C218.591 318.455 193.172 301.218 169.955 296.798C156.467 294.233 144.8 296.148 136.213 302.332C125.527 310.031 118.949 324.767 118.151 342.774C117.317 361.817 123.024 382.605 134.231 401.292C134.36 401.505 134.519 401.7 134.702 401.869Z" fill="#767B7F"/>
<path d="M320.369 112.209L329.443 184.26C329.457 184.399 329.434 184.539 329.375 184.665C329.317 184.792 329.226 184.901 329.111 184.981C328.996 185.06 328.863 185.108 328.724 185.118C328.585 185.128 328.446 185.101 328.322 185.039L302.872 171.96C302.771 171.907 302.659 171.878 302.544 171.874C302.43 171.871 302.316 171.892 302.211 171.938C302.106 171.984 302.013 172.052 301.937 172.139C301.862 172.225 301.806 172.327 301.775 172.437L289.693 214.479C289.646 214.652 289.541 214.804 289.395 214.908C289.249 215.013 289.071 215.063 288.893 215.051C288.714 215.039 288.546 214.964 288.417 214.841C288.288 214.718 288.206 214.553 288.185 214.375L278.602 142.04C278.585 141.901 278.606 141.76 278.663 141.632C278.72 141.504 278.811 141.394 278.926 141.313C279.04 141.233 279.175 141.185 279.314 141.175C279.454 141.165 279.593 141.193 279.718 141.256L305.451 154.683C305.553 154.735 305.665 154.764 305.78 154.767C305.894 154.771 306.008 154.749 306.114 154.703C306.22 154.657 306.314 154.589 306.39 154.503C306.467 154.417 306.524 154.316 306.557 154.206L318.861 112.096C318.909 111.923 319.015 111.771 319.162 111.667C319.308 111.563 319.487 111.513 319.666 111.526C319.845 111.54 320.013 111.615 320.141 111.74C320.27 111.865 320.351 112.031 320.369 112.209Z" fill="#F58B00"/>
</svg>
