<svg fill="none" xmlns="http://www.w3.org/2000/svg" viewBox="0 0 18 18" aria-hidden="true">
  <path fill-rule="evenodd" clip-rule="evenodd" d="M0 3a3 3 0 0 1 3-3h12a3 3 0 0 1 3 3v12a3 3 0 0 1-3 3H3a3 3 0 0 1-3-3V3Zm3-1a1 1 0 0 0-1 1v12a1 1 0 0 0 1 1h12a1 1 0 0 0 1-1V3a1 1 0 0 0-1-1H3Z" fill="currentColor"/>
  <path fill-rule="evenodd" clip-rule="evenodd" d="M12 6a1 1 0 0 0-1 1v10a1 1 0 1 1-2 0V7a3 3 0 0 1 3-3h1a1 1 0 1 1 0 2h-1Z" fill="currentColor"/>
  <path fill-rule="evenodd" clip-rule="evenodd" d="M7 10a1 1 0 0 1 1-1h4.5a1 1 0 1 1 0 2H8a1 1 0 0 1-1-1Z" fill="currentColor"/>
</svg>
