<svg fill="none" xmlns="http://www.w3.org/2000/svg" viewBox="0 0 18 18" aria-hidden="true">
  <path fill-rule="evenodd" clip-rule="evenodd" d="M0 3a3 3 0 0 1 3-3h12a3 3 0 0 1 3 3v12a3 3 0 0 1-3 3H3a3 3 0 0 1-3-3V3Zm3-1a1 1 0 0 0-1 1v12a1 1 0 0 0 1 1h12a1 1 0 0 0 1-1V3a1 1 0 0 0-1-1H3Z" fill="currentColor"/>
  <path fill-rule="evenodd" clip-rule="evenodd" d="M5 7a1 1 0 0 1 1 1v5a1 1 0 1 1-2 0V8a1 1 0 0 1 1-1Zm0-.5a1.5 1.5 0 1 0 0-3 1.5 1.5 0 0 0 0 3ZM8 7a1 1 0 0 1 1 1v5a1 1 0 1 1-2 0V8a1 1 0 0 1 1-1Z" fill="currentColor"/>
  <path fill-rule="evenodd" clip-rule="evenodd" d="M7 10.778A3.778 3.778 0 0 1 10.778 7 3.222 3.222 0 0 1 14 10.222V13a1 1 0 1 1-2 0v-2.778C12 9.547 11.453 9 10.778 9 9.796 9 9 9.796 9 10.778V13a1 1 0 1 1-2 0v-2.222Z" fill="currentColor"/>
</svg>
