<svg xmlns="http://www.w3.org/2000/svg" viewBox="0 0 46 36" aria-hidden="true">
  <path fill-rule="evenodd" clip-rule="evenodd" d="M.5 6.75A6.75 6.75 0 0 1 7.25 0h31.5a6.75 6.75 0 0 1 6.75 6.75v22.5A6.75 6.75 0 0 1 38.75 36H7.25A6.75 6.75 0 0 1 .5 29.25V6.75ZM7.25 4.5A2.25 2.25 0 0 0 5 6.75v22.5a2.25 2.25 0 0 0 2.25 2.25h31.5A2.25 2.25 0 0 0 41 29.25V6.75a2.25 2.25 0 0 0-2.25-2.25H7.25Z" fill="currentColor"/>
  <path fill-rule="evenodd" clip-rule="evenodd" d="M3.092 5.558a2.25 2.25 0 0 1 3.1-.716l15.616 9.76a2.25 2.25 0 0 0 2.384 0l15.615-9.76a2.25 2.25 0 0 1 2.386 3.816l-15.615 9.76a6.75 6.75 0 0 1-7.155 0L3.807 8.657a2.25 2.25 0 0 1-.716-3.1Z" fill="currentColor"/>
</svg>
