<svg class="ui5con-detail__icon" viewBox="0 0 61 75" fill="none" xmlns="http://www.w3.org/2000/svg" aria-hidden="true">
  <path fill-rule="evenodd" clip-rule="evenodd" d="M30.5 7.125c-13.323 0-23.625 10.302-23.625 23.625 0 9.661 6.015 18.98 12.616 26.2 3.24 3.543 6.491 6.44 8.935 8.45a82.766 82.766 0 0 0 2.074 1.654 82.766 82.766 0 0 0 2.074-1.653c2.444-2.011 5.695-4.908 8.935-8.452 6.601-7.22 12.616-16.538 12.616-26.199 0-13.323-10.301-23.625-23.625-23.625Zm0 64.125c-1.912 2.781-1.914 2.78-1.914 2.78l-.009-.006-.02-.015-.071-.049a55.39 55.39 0 0 1-1.163-.845 85.24 85.24 0 0 1-3.186-2.502c-2.62-2.155-6.118-5.27-9.628-9.11C7.61 53.959.125 43.027.125 30.75.125 13.698 13.448.375 30.5.375c17.051 0 30.375 13.323 30.375 30.375 0 12.276-7.485 23.208-14.384 30.754-3.51 3.839-7.009 6.954-9.628 9.109a85.24 85.24 0 0 1-3.186 2.502 55.39 55.39 0 0 1-1.163.845l-.07.05-.021.014-.007.004s-.004.003-1.916-2.778Zm0 0 1.912 2.781a3.378 3.378 0 0 1-3.826-.001l1.914-2.78Z" fill="currentColor"/>
  <path fill-rule="evenodd" clip-rule="evenodd" d="M17 30.75c0-7.456 6.044-13.5 13.5-13.5S44 23.294 44 30.75s-6.044 13.5-13.5 13.5S17 38.206 17 30.75ZM30.5 24a6.75 6.75 0 1 0 0 13.5 6.75 6.75 0 0 0 0-13.5ZM12.222 51.603A43.724 43.724 0 0 1 30.5 47.625a43.725 43.725 0 0 1 18.283 3.98 3.375 3.375 0 1 1-2.816 6.135A36.974 36.974 0 0 0 30.5 54.375a36.976 36.976 0 0 0-15.463 3.363 3.375 3.375 0 0 1-2.815-6.135Z" fill="currentColor"/>
</svg>
