<svg class="ui5con-detail__icon" viewBox="0 0 61 75" fill="none" xmlns="http://www.w3.org/2000/svg" aria-hidden="true">
  <path fill-rule="evenodd" clip-rule="evenodd" d="M13.625 10.5C13.625 4.908 18.158.375 23.75.375h27c5.592 0 10.125 4.533 10.125 10.125V51c0 5.592-4.533 10.125-10.125 10.125h-27c-5.592 0-10.125-4.533-10.125-10.125V10.5ZM23.75 7.125a3.375 3.375 0 0 0-3.375 3.375V51a3.375 3.375 0 0 0 3.375 3.375h27A3.375 3.375 0 0 0 54.125 51V10.5a3.375 3.375 0 0 0-3.375-3.375h-27Z" fill="currentColor"/>
  <path fill-rule="evenodd" clip-rule="evenodd" d="M3.5 13.875a3.375 3.375 0 0 1 3.375 3.375v47.254a3.375 3.375 0 0 0 3.375 3.375H44a3.375 3.375 0 0 1 0 6.75H10.25C4.658 74.63.125 70.096.125 64.504V17.25A3.375 3.375 0 0 1 3.5 13.875ZM27.125 24c0-5.592 4.533-10.125 10.125-10.125S47.375 18.408 47.375 24c0 2.522-1.443 4.467-2.622 5.676-1.247 1.277-2.73 2.278-3.843 2.944a.743.743 0 0 0-.25.235.303.303 0 0 0-.035.08v1.19a3.375 3.375 0 1 1-6.75 0v-1.188c0-2.695 1.572-4.915 3.57-6.11.883-.528 1.81-1.182 2.476-1.865.64-.656.7-.984.704-.983V24a3.375 3.375 0 1 0-6.75 0 3.375 3.375 0 1 1-6.75 0ZM37.25 47.625a3.375 3.375 0 1 0 0-6.75 3.375 3.375 0 0 0 0 6.75Z" fill="currentColor"/>
</svg>
