<svg fill="none" xmlns="http://www.w3.org/2000/svg" viewBox="0 0 19 21">
  <mask id="a" fill="#fff">
    <path d="M11.922.997v7.407l7.045 2.29-7.045 2.289v7.407l-4.355-5.993-7.045 2.29 4.354-5.994L.522 4.7l7.045 2.29L11.922.997Z"/>
  </mask>
  <path d="M11.922.997h7v-21.544L6.258-3.118 11.922.997Zm0 7.407h-7v5.086l4.836 1.572 2.164-6.658Zm7.045 2.29 2.163 6.657 20.49-6.657-20.49-6.658-2.163 6.658Zm-7.045 2.289L9.758 6.325 4.922 7.897v5.086h7Zm0 7.407-5.664 4.115 12.664 17.43V20.39h-7Zm-4.355-5.993 5.663-4.114-2.989-4.115L5.404 7.74l2.163 6.657Zm-7.045 2.29-5.663-4.115-12.663 17.43 20.49-6.658-2.164-6.657Zm4.354-5.994 5.663 4.115 2.99-4.114-2.99-4.115-5.663 4.115ZM.522 4.7l2.163-6.657-20.49-6.657L-5.14 8.815.522 4.7Zm7.045 2.29-2.163 6.657 4.837 1.572 2.99-4.115L7.566 6.99ZM4.922.997v7.407h14V.997h-14Zm4.836 14.065 7.046 2.289L21.13 4.036l-7.045-2.289-4.327 13.315Zm7.046-11.026-7.046 2.29 4.327 13.314 7.045-2.29-4.326-13.314ZM4.922 12.983v7.407h14v-7.407h-14Zm12.663 3.293-4.355-5.993-11.326 8.229 4.354 5.993 11.327-8.229ZM5.405 7.74l-7.046 2.29 4.326 13.314 7.045-2.29L5.404 7.74Zm.78 13.061 4.354-5.993L-.787 6.579l-4.354 5.993 11.326 8.23ZM10.54 6.58 6.185.586-5.14 8.815l4.354 5.993L10.54 6.579Zm-12.18 4.779 7.045 2.289L9.73.332 2.685-1.957-1.64 11.358Zm14.871-.254 4.355-5.993L6.258-3.118 1.904 2.875l11.326 8.23Z" fill="currentColor" mask="url(#a)"/>
</svg>
