<svg viewBox="0 0 45 36" xmlns="http://www.w3.org/2000/svg" aria-hidden="true">
  <path fill-rule="evenodd" clip-rule="evenodd" d="M42.75 15.752a2.25 2.25 0 0 1 2.25 2.25 43.7 43.7 0 0 1-1.68 11.936c-.75 2.653-3.238 4.334-5.872 4.784A88.873 88.873 0 0 1 22.5 36a2.25 2.25 0 0 1 0-4.5c4.71 0 9.483-.408 14.189-1.213 1.45-.248 2.152-1.048 2.3-1.574A39.233 39.233 0 0 0 40.5 18.002a2.25 2.25 0 0 1 2.25-2.25Z" fill="currentColor"/>
  <path fill-rule="evenodd" clip-rule="evenodd" d="M42.75 20.25A2.25 2.25 0 0 0 45 18c0-3.997-.562-7.986-1.68-11.937-.75-2.654-3.237-4.334-5.872-4.785A88.869 88.869 0 0 0 22.5 0a2.25 2.25 0 0 0 0 4.5c4.71 0 9.483.408 14.189 1.213 1.45.249 2.152 1.048 2.3 1.574A39.255 39.255 0 0 1 40.5 18.002a2.249 2.249 0 0 0 2.25 2.248Z" fill="currentColor"/>
  <path fill-rule="evenodd" clip-rule="evenodd" d="M2.25 20.25A2.25 2.25 0 0 1 0 18c0-3.997.562-7.986 1.68-11.937.75-2.654 3.237-4.334 5.872-4.785A88.868 88.868 0 0 1 22.5 0a2.25 2.25 0 0 1 0 4.5c-4.71 0-9.483.408-14.189 1.213-1.45.249-2.152 1.048-2.3 1.574A39.246 39.246 0 0 0 4.5 18a2.25 2.25 0 0 1-2.25 2.25Z" fill="currentColor"/>
  <path fill-rule="evenodd" clip-rule="evenodd" d="M2.25 15.75A2.25 2.25 0 0 0 0 18c0 3.996.562 7.986 1.68 11.937.75 2.654 3.237 4.334 5.872 4.785A88.864 88.864 0 0 0 22.5 36a2.25 2.25 0 0 0 0-4.5 84.37 84.37 0 0 1-14.189-1.213c-1.45-.248-2.152-1.048-2.3-1.574A39.242 39.242 0 0 1 4.5 18a2.25 2.25 0 0 0-2.25-2.25Zm14.567-4.164a2.25 2.25 0 0 1 2.19-.098l9 4.5a2.25 2.25 0 0 1 0 4.024l-9 4.5A2.25 2.25 0 0 1 15.75 22.5v-9c0-.78.404-1.504 1.067-1.914Z" fill="currentColor"/>
</svg>
