<svg viewBox="0 0 132 32" xmlns="http://www.w3.org/2000/svg"><g fill="#fff"><path d="m132 17.9c-.1.6-.2 1.1-.4 1.7 0 .1-.1.2-.1.4-.4 1-.9 1.9-1.7 2.7-1.1 1.2-2.6 1.9-4.1 2.3-4.1 1-8 .4-11.5-2.1-.3-.2-.6-.4-.9-.7.9-1.2 1.8-2.3 2.6-3.4 1 .6 1.9 1.2 2.8 1.6 1.4.7 2.9.9 4.4.7 2.5-.3 3.9-2.5 3.4-5.1-.6-3.1-3.8-4.3-6.8-2.6-.4.2-.8.5-1.1.9-.5.7-1 .7-1.7.4-.8-.3-1.6-.5-2.4-.8.3-4.2.6-8.6 1-12.8h14.8c-.1 1.3-.2 2.6-.3 3.9-3.5 0-6.9 0-10.3 0-.2 1.7-.3 3.3-.5 5.1 2.1-1.5 4.3-1.6 6.6-1.2 2.1.3 4 1.5 5 3.3 1.3 1.7 1.5 3.7 1.2 5.7z"/><path d="m94.8.9h5.3v.8 14.3c0 1.1-.2 2.3-.5 3.3-1 3.4-3.5 5.2-6.9 5.7-2 .3-3.9.3-5.9-.3-3.6-1-6-3.6-6.2-7.4s-.1-7.5-.1-11.2c0-1.8 0-3.4 0-5.3h5.4v.9 13.1c0 .9.1 1.9.3 2.7.5 2.3 1.9 3.3 4.3 3.3s3.7-1.2 4.1-3.3c.1-.6.2-1.2.2-1.8 0-4.6 0-9.3 0-13.9 0-.3 0-.5 0-.9z"/><path d="m20.6 12.7c0 3.1-.6 5.8-2.2 8.3-3.8 5.7-12 5.8-16 .1-3.1-4.6-3.1-12.2.1-16.6 2.2-3.1 5.3-4.4 9.1-4 3.6.4 6.1 2.5 7.7 5.6 1 2.1 1.4 4.3 1.3 6.6zm-18.1.1c.1.9.1 1.9.3 2.8.4 2.2 1.1 4.1 2.7 5.6 3.6 3.4 9.5 2.2 11.6-2.6 1.7-3.8 1.7-7.9 0-11.7-1.2-2.7-3.3-4.3-6.4-4.4-3.2-.1-5.4 1.4-6.8 4-1.1 2-1.4 4.1-1.4 6.3z"/><path d="m104.9.9h5.3v23.8c-1.8 0-3.5 0-5.3 0 0-7.9 0-15.9 0-23.8z"/><path d="m24.9 7.8h2.3v2.3c.5-.4 1-.8 1.4-1.1 3-2.6 9.1-2.2 10.9 3.3.9 2.7.9 5.4 0 8.2-1.7 5.1-7.5 5.8-10.7 3.4-.5-.4-1-.7-1.6-1.2v4.3s0 2.9 0 4.3c-.8 0-1.5 0-2.3 0 0-7.9 0-15.7 0-23.5zm2.1 8.4c0 .7.1 1.5 0 2.2-.4 1.9.7 3 2.2 3.8.2.1.4.3.7.4 2.6 1.3 5.6.5 6.8-1.8 1.4-2.9 1.4-5.9.1-8.8-.8-1.7-2.3-2.5-4.3-2.6-2.2 0-3.7 1.3-5.1 2.7-.1.1-.2.5-.2.7-.2 1.1-.2 2.2-.2 3.4z"/><path d="m57.8 16.7c-4.1 0-8.2 0-12.2 0-.5 2.1 1.1 5.1 3.1 6 2.6 1.2 5.3.3 7.6-2.6.5.3.9.7 1.4 1.1-1.3 2-3 3.4-5.5 3.8-5.7.8-8.7-3.2-9.1-7.7-.2-2.4.1-4.6 1.5-6.7 2.4-3.6 7.5-4.4 10.6-1.7 1.8 1.7 2.4 3.7 2.6 6.1.1.6 0 1.1 0 1.7zm-12.2-1.9h9.9c.1-3-1.8-5.3-4.4-5.5-3-.1-5.3 2.2-5.5 5.5z"/><path d="m64.3 10.2c.7-.5 1.3-1 1.9-1.4 1.9-1.3 4-1.8 6.2-1.4s3.5 1.9 3.6 4c.1 1.2 0 2.4 0 3.4v8.8.9c-.8 0-1.5 0-2.3 0 0-.3 0-.6 0-.9 0-3.5 0-7.1 0-10.6 0-3.2-1.6-4.2-4.7-3.6-1.8.3-3.2 1.5-4.5 2.7-.1.2-.1.6-.1.9v10.8.9c-.8 0-1.5 0-2.3 0 0-5.6 0-11.2 0-16.9h2.3c-.1.7-.1 1.5-.1 2.4z"/></g></svg>