<svg xmlns="http://www.w3.org/2000/svg" fill="none" viewBox="0 0 101 101">
  <path fill="#000" d="M50.5.25c6.901 0 13.411 1.302 19.531 3.906 6.12 2.604 11.393 6.185 15.82 10.742 4.558 4.558 8.139 9.896 10.743 16.016 2.604 5.99 3.906 12.435 3.906 19.336 0 6.901-1.302 13.411-3.906 19.531-2.604 5.99-6.185 11.263-10.742 15.82-4.428 4.558-9.701 8.139-15.82 10.743-6.12 2.604-12.631 3.906-19.532 3.906s-13.411-1.302-19.531-3.906c-5.99-2.604-11.263-6.185-15.82-10.742-4.558-4.558-8.139-9.831-10.743-15.82C1.802 63.661.5 57.15.5 50.25s1.302-13.346 3.906-19.336c2.604-6.12 6.185-11.458 10.742-16.016 4.558-4.557 9.831-8.138 15.82-10.742C37.089 1.552 43.6.25 50.5.25ZM20.227 81.695c1.432-5.468 4.296-9.96 8.593-13.476 4.427-3.646 9.57-5.469 15.43-5.469h12.5c5.86 0 11.003 1.823 15.43 5.469 4.427 3.515 7.356 8.008 8.789 13.476a44.04 44.04 0 0 0 9.765-14.062C93.078 62.294 94.25 56.5 94.25 50.25c0-6.12-1.172-11.784-3.516-16.992-2.213-5.339-5.338-9.961-9.375-13.867-3.906-4.037-8.528-7.162-13.867-9.375C62.284 7.672 56.62 6.5 50.5 6.5c-5.99 0-11.654 1.172-16.992 3.516-5.339 2.213-10.026 5.338-14.063 9.375-3.906 3.906-7.03 8.528-9.375 13.867C7.857 38.466 6.75 44.13 6.75 50.25c0 6.25 1.172 12.044 3.516 17.383 2.474 5.338 5.794 10.026 9.96 14.062ZM50.5 25.25c5.208 0 9.635 1.823 13.281 5.469C67.427 34.365 69.25 38.792 69.25 44s-1.823 9.635-5.469 13.281c-3.646 3.646-8.073 5.469-13.281 5.469s-9.635-1.823-13.281-5.469C33.573 53.635 31.75 49.208 31.75 44s1.823-9.635 5.469-13.281c3.646-3.646 8.073-5.469 13.281-5.469ZM38 44c0 3.385 1.237 6.315 3.71 8.79 2.475 2.473 5.405 3.71 8.79 3.71 3.516 0 6.445-1.237 8.79-3.71C61.762 50.314 63 47.384 63 44c0-3.385-1.237-6.315-3.71-8.79-2.345-2.473-5.274-3.71-8.79-3.71-3.385 0-6.315 1.237-8.79 3.71C39.238 37.686 38 40.616 38 44Zm12.5 50c4.688 0 9.115-.651 13.281-1.953 4.167-1.432 8.008-3.32 11.524-5.664-.651-5.078-2.735-9.245-6.25-12.5C65.669 70.628 61.568 69 56.75 69h-12.5c-4.688 0-8.79 1.628-12.305 4.883-3.385 3.255-5.403 7.357-6.054 12.305 3.515 2.474 7.356 4.427 11.523 5.859C41.581 93.349 45.943 94 50.5 94Z"/>
</svg>
