<svg xmlns="http://www.w3.org/2000/svg" viewBox="0 0 96 96" fill="#1873b4"><path d="M2.2 33.7c0 .1-.1.1 0 0-.1.1-.1.1 0 0v.7c-.2.7-.3 1.3-.4 2l2 .4c.4-1.9.9-3.7 1.5-5.6l-1.9-.6-1.2 3.1zM2 48l.1-3.3-2-.1v.1c0 .5-.1 1-.1 1.5v2.1l2-.1c0 1.5 0 .6 0-.2zm2.3 20c.8 1.8 1.8 3.6 2.8 5.3l1.7-1.1c-1-1.6-1.9-3.3-2.7-5.1zm7.2-51.1c-.1 0-.1 0 0 0l-.1.1 1.5 1.3c1.2-1.5 2.6-2.9 4-4.2l-1.4-1.5c-1.6 1.5-2.8 2.9-4 4.3zm-.9 61.2c.1.1.2.3.3.4v.4l2.8 3 1.4-1.4c-1.4-1.3-2.7-2.8-3.9-4.2zM6.3 24.2c0 .1 0 .1 0 0l-.1.1v.1l-1.3 2.5 1.8.9c.8-1.7 1.8-3.4 2.8-5l-1.7-1.1-1.5 2.5zM.8 56.5c0 .2.1.4.1.6v.6c.1.6.3 1.2.5 1.7v.2c.1.2.1.3.2.5l1.9-.6c-.6-1.8-1-3.7-1.4-5.6zM94 34.4l-.3-1.1c-.1-.4 0 0 0-.1l-1.5-4-1.8.8c.8 1.8 1.4 3.6 2 5.4zm0 11.9l2-.1v-2.3l-.3-2.1-2 .3c0 .4.2 2.3.3 4.2zm-4.7-22.9l-2.5-3.8c-.9-1.2 0 0 0-.1l-1.6 1.2c1.2 1.5 2.3 3.1 3.2 4.7zm-52.7-20l-.5-1.9c-.2.1-.4.1-.6.2s0 0-.1 0a25.33 25.33 0 0 0-3.6 1.2c-.2.1-.4.2-.7.3l.7 1.9c1.1-.6 3-1.2 4.8-1.7zM48 2h1.6l.1-2h-2.8l.2 2c-2.9.1-1 0 .9 0zm13.4-.1c-.3-.1-.5-.1-.8-.2s0 0-.1 0h-.1l-2.7-.6c-.9-.2 0 0-.1 0h-.1c-.4-.1-.7-.1-1.1-.2l-.3 2c1.9.3 3.8.7 5.6 1.3zM93 57.7l2 .4c.1-.4.2-.8.2-1.2v-.3c0-.2 0-.4.1-.7l-2-.2c.4-1.8.1.2-.3 2zM74.3 85.8l1.1 1.6c1.6-1.1 3.2-2.4 4.7-3.7l-1.3-1.5c-1.4 1.3-3 2.5-4.5 3.6zM71.1 5.9c-.1 0-.1 0 0 0-.1 0-.1-.1 0 0-.1-.1-.1-.1 0 0l-.1-.1h-.1c-.3-.1-.5-.3-.8-.4H70s-.1 0-.1-.1 0 0-.1 0h-.1l-1.4-.6-.8 1.8c1.8.8 3.5 1.6 5.1 2.6l1-1.7-2.5-1.5zM81.9 14c-.1 0-.1 0 0 0-.1 0-.1-.1 0 0-.1-.1-.1-.1 0 0l-.1-.1h-.5c-.1 0-.1-.1-.1-.1l-2.7-2.3c-.1-.1-.2-.1-.3-.2l-.2-.2h-.1l-1.2 1.6 4.3 3.8zm7.3 54.5l1.8.9 1.1-2.5.9-2.3-1.9-.7c-.3 1.2-1.1 2.9-1.9 4.6zM64.1 91.1l.7 1.9c.1 0 .2-.1.2-.1.4-.1.7-.3 1.1-.4.1 0 .1 0 .2-.1h.3l2.4-1.2-.9-1.8c-.4.2-2.2 1-4 1.7zm18.7-13l1.5 1.3c1.3-1.5 2.4-3 3.5-4.6l-1.7-1.1c-.9 1.4-2 2.9-3.3 4.4zM53 93.7l.2 2h.2c1-.1 2.1-.3 3.1-.5h.4c.4-.1.7-.2 1.1-.2l-.5-1.9-4.5.6zm-23.3-1.3c.1 0 .2.1.3.1h.1l4.9 1.6.5-1.9c-1.8-.5-3.7-1.1-5.4-1.9zm-10.4-6l4.3 2.9h.1l1-1.7c-1.7-.9-3.3-2-4.8-3.2zm2-78.3c-.1.1-.1.1 0 0l-.1.1h-.1c-.2.1-.4.3-.6.4l1.2 1.6c1.5-1.1 3.2-2.2 4.9-3.1l-1-1.8-4.3 2.8zm19.9 87.4c.5.1 1.1.1 1.6.2h.7l2.2.1v-2c-1.9 0-3.8-.2-5.7-.5zM70 49v-2H49V26h-2v21H26v2h21v21h2V49z"/></svg>