<svg viewBox="0 0 96 96" xmlns="http://www.w3.org/2000/svg"><g fill="#1873b4"><path d="m2.2 33.7c0 .1-.1.1 0 0-.1.1-.1.1 0 0v.1.1.1.1.1.1.1c-.2.7-.3 1.3-.4 2l2 .4c.4-1.9.9-3.7 1.5-5.6l-1.9-.6c-1.1 2.5-1.1 2.8-1.2 3.1z"/><path d="m2 48c0-1.1 0-2.2.1-3.3l-2-.1v.1c0 .5-.1 1-.1 1.5v.1.1.1.1.1.1.2.4.3.6l2-.1c0 1.5 0 .6 0-.2z"/><path d="m4.3 68c.8 1.8 1.8 3.6 2.8 5.3l1.7-1.1c-1-1.6-1.9-3.3-2.7-5.1z"/><path d="m11.5 16.9c-.1 0-.1 0 0 0-.1.1-.1.1-.1.1l1.5 1.3c1.2-1.5 2.6-2.9 4-4.2l-1.4-1.5c-1.6 1.5-2.8 2.9-4 4.3z"/><path d="m10.6 78.1c.1.1.2.3.3.4v.1.1.1.1c.9 1 1.8 2 2.8 3l1.4-1.4c-1.4-1.3-2.7-2.8-3.9-4.2z"/><path d="m6.3 24.2c0 .1 0 .1 0 0-.1.1-.1.1-.1.1v.1c-.4.8-.9 1.6-1.3 2.5l1.8.9c.8-1.7 1.8-3.4 2.8-5l-1.7-1.1c-.6 1.1-1.1 1.8-1.5 2.5z"/><path d="m.8 56.5c0 .2.1.4.1.6v.1.1.1.1.1.1c.1.6.3 1.2.5 1.7v.1.1c.1.2.1.3.2.5l1.9-.6c-.6-1.8-1-3.7-1.4-5.6z"/><path d="m94 34.4c-.1-.4-.2-.7-.3-1.1s0 0 0-.1c-.5-1.4-1-2.7-1.5-4l-1.8.8c.8 1.8 1.4 3.6 2 5.4z"/><path d="m94 46.3 2-.1c0-.2 0-.4 0-.6v-.1s0 0 0-.1 0 0 0-.1v-.1-.1c0-.1 0-.3 0-.4v-.1-.1s0 0 0-.1 0 0 0-.1 0 0 0-.1 0 0 0-.1 0 0 0-.1 0 0 0-.1c-.1-.7-.2-1.4-.3-2.1l-2 .3c0 .4.2 2.3.3 4.2z"/><path d="m89.3 23.4c-.8-1.3-1.6-2.6-2.5-3.8s0 0 0-.1l-1.6 1.2c1.2 1.5 2.3 3.1 3.2 4.7z"/><path d="m36.6 3.4-.5-1.9c-.2.1-.4.1-.6.2s0 0-.1 0c-1.2.3-2.4.7-3.6 1.2-.2.1-.4.2-.7.3l.7 1.9c1.1-.6 3-1.2 4.8-1.7z"/><path d="m48 2h1.6l.1-2c-.2 0-.5 0-.7 0s0 0-.1 0 0 0-.1 0 0 0-.1 0 0 0-.1 0 0 0-.1 0 0 0-.1 0 0 0-.1 0 0 0-.1 0 0 0-.1 0 0 0-.1 0 0 0-.1 0 0 0-.1 0 0 0-.1 0 0 0-.1 0 0 0-.1 0 0 0-.1 0 0 0-.1 0 0 0-.1 0 0 0-.1 0c-.1 0-.1 0-.2 0l.2 2c-2.9.1-1 0 .9 0z"/><path d="m61.4 1.9c-.3-.1-.5-.1-.8-.2s0 0-.1 0 0 0-.1 0c-.9-.2-1.8-.4-2.7-.6s0 0-.1 0 0 0-.1 0c-.4-.1-.7-.1-1.1-.2l-.3 2c1.9.3 3.8.7 5.6 1.3z"/><path d="m93 57.7 2 .4c.1-.4.2-.8.2-1.2s0 0 0-.1 0 0 0-.1 0 0 0-.1c0-.2 0-.4.1-.7l-2-.2c.4-1.8.1.2-.3 2z"/><path d="m74.3 85.8 1.1 1.6c1.6-1.1 3.2-2.4 4.7-3.7l-1.3-1.5c-1.4 1.3-3 2.5-4.5 3.6z"/><path d="m71.1 5.9c-.1 0-.1 0 0 0-.1 0-.1-.1 0 0-.1-.1-.1-.1 0 0-.1-.1-.1-.1-.1-.1s0 0 0 0 0 0-.1 0c-.3-.1-.5-.3-.8-.4h-.1s-.1 0-.1-.1 0 0-.1 0 0 0-.1 0c-.5-.2-.9-.4-1.4-.6l-.8 1.8c1.8.8 3.5 1.6 5.1 2.6l1-1.7c-1.6-1-2.1-1.3-2.5-1.5z"/><path d="m81.9 14c-.1 0-.1 0 0 0-.1 0-.1-.1 0 0-.1-.1-.1-.1 0 0-.1-.1-.1-.1-.1-.1s0 0-.1 0 0 0-.1 0 0 0-.1 0 0 0-.1 0 0 0-.1 0-.1-.1-.1-.1c-.9-.8-1.8-1.6-2.7-2.3-.1-.1-.2-.1-.3-.2s-.1-.1-.1-.1-.1-.1-.1-.1 0 0-.1 0l-1.2 1.6c1.5 1.2 3 2.4 4.3 3.8z"/><path d="m89.2 68.5 1.8.9c.4-.8.8-1.6 1.1-2.5.3-.8.6-1.5.9-2.3l-1.9-.7c-.3 1.2-1.1 2.9-1.9 4.6z"/><path d="m64.1 91.1.7 1.9c.1 0 .2-.1.2-.1.4-.1.7-.3 1.1-.4.1 0 .1 0 .2-.1h.1.1.1c.8-.4 1.6-.8 2.4-1.2l-.9-1.8c-.4.2-2.2 1-4 1.7z"/><path d="m82.8 78.1 1.5 1.3c1.3-1.5 2.4-3 3.5-4.6l-1.7-1.1c-.9 1.4-2 2.9-3.3 4.4z"/><path d="m53 93.7.2 2h.1.1c1-.1 2.1-.3 3.1-.5h.1.1.1.1c.4-.1.7-.2 1.1-.2l-.5-1.9c-.7.1-2.6.4-4.5.6z"/><path d="m29.7 92.4c.1 0 .2.1.3.1h.1c1.6.6 3.2 1.2 4.9 1.6l.5-1.9c-1.8-.5-3.7-1.1-5.4-1.9z"/><path d="m19.3 86.4c1.4 1 2.8 2 4.3 2.9h.1l1-1.7c-1.7-.9-3.3-2-4.8-3.2z"/><path d="m21.3 8.1c-.1.1-.1.1 0 0-.1.1-.1.1-.1.1s0 0-.1 0c-.2.1-.4.3-.6.4l1.2 1.6c1.5-1.1 3.2-2.2 4.9-3.1l-1-1.8c-1.9 1.3-3.1 2-4.3 2.8z"/><path d="m41.2 95.5c.5.1 1.1.1 1.6.2h.1.1.1.1.1.1.1c.7 0 1.5.1 2.2.1v-2c-1.9 0-3.8-.2-5.7-.5z"/><path d="m70 49v-2h-21v-21h-2v21h-21v2h21v21h2v-21z"/></g></svg>