<svg width="64" height="69" viewBox="0 0 64 69" fill="none" xmlns="http://www.w3.org/2000/svg">
<path d="M13.873 7.07317C21.21 12.6002 29.103 23.8052 32 29.8182V45.7002C32 45.3622 31.87 45.7442 31.59 46.5672C30.078 51.0232 24.172 68.4142 10.667 54.5112C3.556 47.1912 6.848 39.8712 19.792 37.6612C12.387 38.9252 4.062 36.8362 1.778 28.6462C1.12 26.2902 0 11.7782 0 9.81817C0 0.00016737 8.579 3.08617 13.873 7.07317ZM50.127 7.07317C42.79 12.6002 34.897 23.8052 32 29.8182V45.7002C32 45.3622 32.13 45.7442 32.41 46.5672C33.922 51.0232 39.828 68.4142 53.333 54.5112C60.444 47.1912 57.152 39.8712 44.208 37.6612C51.613 38.9252 59.938 36.8362 62.222 28.6462C62.88 26.2902 64 11.7782 64 9.81817C64 0.00016737 55.422 3.08617 50.127 7.07317Z" fill="#1875B6"/>
</svg>
