<svg xmlns="http://www.w3.org/2000/svg" viewBox="0 0 50 50"><path d="M1.18 11.85a.85.85 0 0 1-1-.95V1.34a.85.85 0 0 1 1-.95h9.55a.85.85 0 0 1 1 1v9.5a.85.85 0 0 1-1 .95zm17.2 7.76a.85.85 0 0 1 1 1V30a.85.85 0 0 1-1 .95H1.18a.85.85 0 0 1-1-.95v-9.43a.85.85 0 0 1 1-1zm-3.82 19a.85.85 0 0 1 1 1v9.5a.85.85 0 0 1-1 1H1.18a.85.85 0 0 1-1-1v-9.55a.85.85 0 0 1 1-1zm8.6-27.7a.85.85 0 0 1-1 .95h-5.7a.84.84 0 0 1-1-.95V1.34a.84.84 0 0 1 1-.95h5.73a.85.85 0 0 1 1 1zm0 9.55a.85.85 0 0 1 1-1H41.3a.85.85 0 0 1 1 1V30a.84.84 0 0 1-1 .95H24.1a.84.84 0 0 1-1-.95zm10.5 18.14a.85.85 0 0 1 1 1V49a.85.85 0 0 1-1 1H24.1a.85.85 0 0 1-1-1v-9.45a.85.85 0 0 1 1-1zm-5.73-26.76a.84.84 0 0 1-1-.95V1.34a.84.84 0 0 1 1-.95h9.55a.85.85 0 0 1 1 1v9.5a.85.85 0 0 1-1 .95zM52.76 38.6a.85.85 0 0 1 1 1V49a.85.85 0 0 1-1 1H39.38a.85.85 0 0 1-1-1v-9.45a.85.85 0 0 1 1-1zm0-19.1a.85.85 0 0 1 1 1V30a.84.84 0 0 1-1 .95H47a.85.85 0 0 1-1-.95v-9.55a.85.85 0 0 1 1-1z" fill="#1873b4"/></svg>