<svg viewBox="0 0 50 50" xmlns="http://www.w3.org/2000/svg"><path d="m21.85 38.67h5.15l-9 8.71a9.81 9.81 0 0 1 -7.12 2.79 11.12 11.12 0 0 1 -3.79-.67 9.38 9.38 0 0 1 -3.29-2.12l-1.26-1.38a9.5 9.5 0 0 1 0-13.84l11.46-11.23a9.24 9.24 0 0 1 3.34-2.12 10.89 10.89 0 0 1 3.79-.67 10.23 10.23 0 0 1 7.24 2.79l1.26 1.34.23.22-2.52 2.45-3-2.45a6.07 6.07 0 0 0 -3.22-.78 5.93 5.93 0 0 0 -4.48 1.78l-11.57 11.16a6.34 6.34 0 0 0 0 8.93l1.38 1.23a6.19 6.19 0 0 0 4.48 1.79 6.89 6.89 0 0 0 4.6-1.79zm24.83-34.37a9 9 0 0 1 2.18 3.23 10.15 10.15 0 0 1 .69 3.69 10.62 10.62 0 0 1 -.69 3.78 9.06 9.06 0 0 1 -2.18 3.29l-13.57 13.02a9.89 9.89 0 0 1 -7.11 2.9 10.18 10.18 0 0 1 -7.13-2.9l-1.27-1.23a4.33 4.33 0 0 1 -.58-.67l-.46-.67 2.44-2.34 2.42 2.34.11.11a6.21 6.21 0 0 0 4.47 1.79 6.87 6.87 0 0 0 4.59-1.79l13.41-13.17a5.94 5.94 0 0 0 0-8.82l-1.23-1.33a6.31 6.31 0 0 0 -4.6-1.79 6.15 6.15 0 0 0 -4.48 1.79l-8.62 8.47h-5.18l11.11-10.93a10.15 10.15 0 0 1 3.38-2.18 10.29 10.29 0 0 1 3.79-.72 10 10 0 0 1 7.24 2.9z" fill="#1873b4"/></svg>