<svg viewBox="0 0 64 64" xmlns="http://www.w3.org/2000/svg"><path d="m64 16a3.8 3.8 0 0 1 -1.18 2.88 3.92 3.92 0 0 1 -2.82 1.12v4a4 4 0 0 1 4 4v8a3.8 3.8 0 0 1 -1.18 2.87 3.92 3.92 0 0 1 -2.82 1.13v4a4 4 0 0 1 4 4v8a3.8 3.8 0 0 1 -1.18 2.87 4 4 0 0 1 -2.82 1.13 3.79 3.79 0 0 1 -1.19 2.88 4 4 0 0 1 -2.81 1.12h-48a3.88 3.88 0 0 1 -2.88-1.17 3.93 3.93 0 0 1 -1.12-2.83v-8h-4v-4h4v-4h-4v-4h4v-16h-4v-4h4v-4h-4v-4h4v-8a4 4 0 0 1 1.13-2.8 3.77 3.77 0 0 1 2.87-1.2h47.94a3.8 3.8 0 0 1 2.81 1.2 3.79 3.79 0 0 1 1.19 2.8 3.85 3.85 0 0 1 2.81 1.18 3.85 3.85 0 0 1 1.18 2.82zm-8-12h-48v8h4v4h-4v4h4v4h-4v16h4v4h-4v4h4v4h-4v8h47.94v-56zm-23.64 44a16.36 16.36 0 0 1 -6.62-1.27 15.35 15.35 0 0 1 -5.18-3.62 15.91 15.91 0 0 1 -3.38-5.49 20.21 20.21 0 0 1 -1.18-7.04 20.57 20.57 0 0 1 1.27-7.37 17.63 17.63 0 0 1 3.42-5.68 14.25 14.25 0 0 1 5.18-3.62 17.07 17.07 0 0 1 6.62-1.27 14.15 14.15 0 0 1 10.67 4.07 14.82 14.82 0 0 1 3.94 10.79 14.8 14.8 0 0 1 -.82 4.94 14.22 14.22 0 0 1 -2.18 4.06 10.54 10.54 0 0 1 -3.32 2.8 8.63 8.63 0 0 1 -4.3 1.07 2.88 2.88 0 0 1 -3.13-2.54c-1.66 1.66-3 2.54-3.81 2.54a6 6 0 0 1 -4.81-2.31 9.84 9.84 0 0 1 -2-6.56 14.09 14.09 0 0 1 .62-4.12 14.79 14.79 0 0 1 1.75-3.81 9.49 9.49 0 0 1 2.68-2.82 6 6 0 0 1 3.43-1.06 3.65 3.65 0 0 1 1.69.62 9.22 9.22 0 0 1 2.44 2.54l.37-2.54h4l-2.63 15a1.76 1.76 0 0 0 -.11.88c0 .41.33.62 1 .62q2.24 0 4.19-2.81a11.16 11.16 0 0 0 1.93-6.44 11.75 11.75 0 0 0 -3.19-8.75 11.45 11.45 0 0 0 -8.42-3.19 13.06 13.06 0 0 0 -5.31 1.07 11.77 11.77 0 0 0 -4.17 3.05 15.81 15.81 0 0 0 -3.81 10.74q-.1 6.73 3.72 10.52a12.54 12.54 0 0 0 9.36 3.81 17.22 17.22 0 0 0 10.73-3.81h4a17.53 17.53 0 0 1 -6 5 18.34 18.34 0 0 1 -8.64 2zm-2.25-10.65c.33 0 .73-.32 1.18-.94a10.59 10.59 0 0 0 1.27-2.54 22.56 22.56 0 0 0 1.07-3.51 18 18 0 0 0 .47-3.94c0-2.24-.75-3.38-2.25-3.38a2.71 2.71 0 0 0 -2 .94 7.74 7.74 0 0 0 -1.44 2.38 18.09 18.09 0 0 0 -.87 3.06 15.91 15.91 0 0 0 -.31 3q.01 4.94 2.88 4.93z" fill="#1873b4"/></svg>