<svg viewBox="0 0 48 48" xmlns="http://www.w3.org/2000/svg"><path d="m0 0h48v48h-48z" fill="none"/><g fill="#1875b6"><path clip-rule="evenodd" d="m24 .59c-13.25 0-24 10.74-24 24 0 10.6 6.88 19.6 16.41 22.77 1.2.22 1.64-.52 1.64-1.15 0-.57-.02-2.46-.03-4.47-6.68 1.45-8.09-2.83-8.09-2.83-1.09-2.77-2.66-3.51-2.66-3.51-2.18-1.49.16-1.46.16-1.46 2.41.17 3.68 2.47 3.68 2.47 2.14 3.67 5.61 2.61 6.98 1.99.22-1.55.84-2.61 1.52-3.21-5.33-.61-10.93-2.66-10.93-11.86 0-2.62.94-4.76 2.47-6.44-.25-.6-1.07-3.05.23-6.35 0 0 2.02-.64 6.6 2.46 1.91-.53 3.97-.8 6.01-.81 2.04.01 4.09.28 6.01.81 4.58-3.11 6.59-2.46 6.59-2.46 1.31 3.31.48 5.75.24 6.35 1.54 1.68 2.47 3.82 2.47 6.44 0 9.22-5.61 11.25-10.96 11.84.86.74 1.63 2.21 1.63 4.44 0 3.21-.03 5.8-.03 6.59 0 .64.43 1.39 1.65 1.15 9.54-3.16 16.41-12.16 16.41-22.76 0-13.25-10.75-24-24-24z" fill-rule="evenodd"/><path d="m9.09 35.05c-.05.12-.24.16-.41.07-.17-.08-.27-.24-.22-.36s.24-.16.41-.07c.18.08.28.24.22.36zm-.3-.22"/><path d="m10.06 36.14c-.11.11-.34.06-.49-.11-.16-.17-.19-.39-.07-.5s.33-.06.49.11.19.39.07.5zm-.23-.25"/><path d="m11.01 37.52c-.15.1-.39.01-.54-.21-.15-.21-.15-.47 0-.57s.39-.01.54.2c.15.22.15.47 0 .58zm0 0"/><path d="m12.3 38.85c-.13.15-.41.11-.62-.09-.21-.19-.27-.47-.14-.61.13-.15.42-.1.62.09.22.19.28.47.14.61zm0 0"/><path d="m14.09 39.63c-.06.19-.33.27-.6.19s-.45-.3-.39-.49.33-.28.6-.19c.27.08.45.3.39.49zm0 0"/><path d="m16.06 39.77c.01.2-.22.36-.51.37s-.52-.15-.52-.35.23-.36.51-.37c.28 0 .52.16.52.35zm0 0"/><path d="m17.89 39.46c.03.19-.16.39-.45.44-.28.05-.54-.07-.57-.26-.03-.2.17-.4.45-.45.27-.04.53.07.57.27zm0 0"/></g></svg>