<svg width="512" height="512" viewBox="0 0 512 512" fill="none" xmlns="http://www.w3.org/2000/svg">
<path d="M451.839 183.897C451.839 92.786 392.13 66.072 392.13 66.072C333.546 39.17 177.945 39.45 119.924 66.072C119.924 66.072 60.2151 92.785 60.2151 183.897C60.2151 292.348 54.0271 427.045 159.199 454.885C197.16 464.912 229.781 467.07 256.026 465.57C303.643 462.946 330.357 448.603 330.357 448.603L328.764 414.014C328.764 414.014 294.738 424.702 256.495 423.482C218.625 422.169 178.694 419.358 172.507 372.866C171.944 368.742 171.664 364.43 171.664 359.837C251.901 379.426 320.325 368.368 339.168 366.117C391.754 359.837 437.59 327.404 443.401 297.784C452.59 251.104 451.839 183.897 451.839 183.897ZM381.443 300H337.763V194.207C337.763 147.621 277.771 145.84 277.771 200.675V259.259H234.374V200.675C234.374 145.84 174.383 147.621 174.383 194.207V300H130.61C130.61 185.551 125.736 162.618 147.857 137.216C172.134 110.126 222.658 108.346 245.154 142.934L256.027 161.212L266.9 142.934C289.491 108.157 340.107 110.314 364.196 137.216C386.412 162.806 381.443 185.644 381.443 300Z" fill="#1875B6"/>
</svg>
