<svg viewBox="0 0 64 64" xmlns="http://www.w3.org/2000/svg"><g fill="#1873b4"><path d="m29.73 22.43a.36.36 0 0 1 -.18.12.29.29 0 0 0 -.19.11.62.62 0 0 1 -.19.14h.46l.37.2a.91.91 0 0 0 .33 0c.24-.07.32-.2.23-.38a.61.61 0 0 0 -.83-.19z"/><path d="m54.05 6.55c-.59-2.33-4.07-3.2-6-3.2a48.14 48.14 0 0 1 -4.95-.44l-2.56-2.19a10.46 10.46 0 0 1 -.72 3.21c-.59 1.16-2.58 2.48-5.39 3.07a8.15 8.15 0 0 1 -6.43-1.61c-1-.88-4.52-5.39-4.52-5.39a33 33 0 0 1 -2.19 2.58c-.72.7-1.9.59-3.36.73a12.5 12.5 0 0 0 -4.93 1.78 6.44 6.44 0 0 0 -3.22 3.35 100.88 100.88 0 0 0 -3.34 12.81c2 1.76 8.15 1.17 8.15 1.17l1-2.59s0 1.18-.14 2.59a28.85 28.85 0 0 0 1 6.12c.3 1.29 2.34 6.69 2.34 8a48.86 48.86 0 0 1 -1.6 8.3 49.8 49.8 0 0 0 -2 7c-.28 2.05-1.05 9.62-1.05 9.62a68.07 68.07 0 0 0 12.24 2.46 133.83 133.83 0 0 0 20.41-.82 4 4 0 0 0 3.21-2.49c.14-2-1.46-14.12-2.48-16.8s-1-9.61-1.3-11.79 1.61-5 2.19-6a10.7 10.7 0 0 0 .88-2.59l1.16.43c3.63.58 7.27-1.29 7.13-2s-2.94-13.04-3.53-15.31zm-11.76 21.65a11.07 11.07 0 0 1 -2.43 3.54 11 11 0 0 1 -3.59 2.39 11.23 11.23 0 0 1 -4.39.86 10.74 10.74 0 0 1 -3.64-.61 11 11 0 0 1 -3.12-1.68 10.52 10.52 0 0 1 -2.4-2.58 11.06 11.06 0 0 1 -1.53-3.12 9.18 9.18 0 0 1 -.28-1.15 7.15 7.15 0 0 1 -.09-1.73 12.34 12.34 0 0 1 .28-2 5.59 5.59 0 0 1 .89-2 9.46 9.46 0 0 1 1.6-1.8 20.55 20.55 0 0 1 1.85-1.37c.62-.39 1.23-.77 1.82-1.12a7.45 7.45 0 0 0 1.54-1.13 3.15 3.15 0 0 1 -.46 1 6.2 6.2 0 0 1 -.81.89l-1 .84a7 7 0 0 0 -1 1 5.89 5.89 0 0 0 -1.47 2.5 9.6 9.6 0 0 0 -.26 1.84 5 5 0 0 0 .31 1.67 5.88 5.88 0 0 0 .89 1.56 4.82 4.82 0 0 0 1.36 1.19 3.41 3.41 0 0 0 1.73.47 2.57 2.57 0 0 0 1.59-.47 2.41 2.41 0 0 0 .82-1.07 2 2 0 0 0 0-1.2 1.3 1.3 0 0 0 -.81-.81 1.78 1.78 0 0 0 -1.36 0 3 3 0 0 0 -.52.32 1.18 1.18 0 0 1 -.09-1 2.66 2.66 0 0 1 .7-1.05 6.77 6.77 0 0 1 1.91-1.29 9.12 9.12 0 0 0 2-1.19 5.26 5.26 0 0 0 1-1.06 1.59 1.59 0 0 0 .38-1 2.59 2.59 0 0 1 .19 1.73 7.32 7.32 0 0 1 -.23.8 3.48 3.48 0 0 0 .93-.54c.21-.17.41-.35.61-.54a5.84 5.84 0 0 0 .42-.56 8 8 0 0 1 .07 1.3 4.63 4.63 0 0 1 -.12.9 3.68 3.68 0 0 1 -.23.71l.35-.17a2.19 2.19 0 0 1 .44-.2 4.21 4.21 0 0 1 .51-.29 2.06 2.06 0 0 1 -.18.91 3.66 3.66 0 0 1 -.42.68 4.05 4.05 0 0 1 -.56.61 1.2 1.2 0 0 0 1.07.46 2.37 2.37 0 0 0 1.23-.46 3.59 3.59 0 0 0 1-1.15 3.11 3.11 0 0 0 .42-1.66 6.85 6.85 0 0 0 -.07-.78 4.07 4.07 0 0 0 -.47-1.48 9.09 9.09 0 0 0 -1.47-1.91 13.43 13.43 0 0 0 -2.93-2.2 8.66 8.66 0 0 1 -1.5-1 5.09 5.09 0 0 1 -.75-.79 1.64 1.64 0 0 1 -.33-.66 7.64 7.64 0 0 0 1.81 1c.74.29 1.53.64 2.39 1a25.4 25.4 0 0 1 2.59 1.45 10.06 10.06 0 0 1 2.36 2 10.61 10.61 0 0 1 1.71 2.9 11.2 11.2 0 0 1 -.26 8.34z"/></g></svg>