<svg viewBox="0 0 48 48" xmlns="http://www.w3.org/2000/svg"><path d="m0 0h48v48h-48z" fill="none"/><path d="m10.08 30.33c0 2.78-2.27 5.04-5.04 5.04s-5.04-2.26-5.04-5.04 2.27-5.04 5.04-5.04h5.04z" fill="#e01e5a"/><path d="m12.63 30.33c0-2.78 2.27-5.04 5.04-5.04s5.04 2.27 5.04 5.04v12.63c0 2.78-2.27 5.04-5.04 5.04s-5.04-2.27-5.04-5.04z" fill="#e01e5a"/><path d="m17.67 10.08c-2.78 0-5.04-2.27-5.04-5.04s2.26-5.04 5.04-5.04 5.04 2.27 5.04 5.04v5.04z" fill="#36c5f0"/><path d="m17.67 12.63c2.78 0 5.04 2.27 5.04 5.04s-2.27 5.04-5.04 5.04h-12.63c-2.77 0-5.04-2.27-5.04-5.04s2.27-5.04 5.04-5.04z" fill="#36c5f0"/><path d="m37.92 17.67c0-2.78 2.27-5.04 5.04-5.04 2.78 0 5.04 2.27 5.04 5.04s-2.27 5.04-5.04 5.04h-5.04z" fill="#2eb67d"/><path d="m35.37 17.67c0 2.78-2.27 5.04-5.04 5.04-2.78 0-5.04-2.27-5.04-5.04v-12.63c0-2.78 2.27-5.04 5.04-5.04 2.78 0 5.04 2.27 5.04 5.04z" fill="#2eb67d"/><g fill="#ecb22e"><path d="m30.33 37.92c2.78 0 5.04 2.27 5.04 5.04 0 2.78-2.27 5.04-5.04 5.04-2.78 0-5.04-2.27-5.04-5.04v-5.04z"/><path d="m30.33 35.37c-2.78 0-5.04-2.27-5.04-5.04 0-2.78 2.27-5.04 5.04-5.04h12.63c2.78 0 5.04 2.27 5.04 5.04 0 2.78-2.27 5.04-5.04 5.04z"/></g></svg>