<svg viewBox="0 0 64 64" xmlns="http://www.w3.org/2000/svg"><path d="m20.13 58c24.15 0 37.36-20 37.36-37.36 0-.57 0-1.13 0-1.7a26.76 26.76 0 0 0 6.51-6.79 26.06 26.06 0 0 1 -7.54 2.06 13.17 13.17 0 0 0 5.77-7.21 26.35 26.35 0 0 1 -8.34 3.19 13.14 13.14 0 0 0 -22.37 12 37.28 37.28 0 0 1 -27.07-13.8 13.15 13.15 0 0 0 4.07 17.53 13 13 0 0 1 -6-1.64v.17a13.14 13.14 0 0 0 10.57 12.87 13.16 13.16 0 0 1 -5.92.22 13.14 13.14 0 0 0 12.26 9.12 26.27 26.27 0 0 1 -16.3 5.63 25.17 25.17 0 0 1 -3.13-.19 37.1 37.1 0 0 0 20.13 5.9" fill="#1da1f2"/></svg>