<svg enable-background="new 0 0 50 50" viewBox="0 0 50 50" xmlns="http://www.w3.org/2000/svg"><path d="m0 0h50v50h-50z" fill="none"/><path d="m16.977 26.829c.871 0 1.7.168 2.488.503.787.335 1.474.797 2.061 1.382.586.587 1.047 1.274 1.382 2.061.335.788.503 1.617.503 2.488v6.434h-19.303v-6.434c0-.871.167-1.7.503-2.488.335-.787.796-1.474 1.382-2.061.586-.586 1.265-1.047 2.036-1.382.77-.334 1.609-.503 2.513-.503h3.217zm3.217-6.435c0 .905-.168 1.743-.503 2.513-.335.771-.796 1.45-1.382 2.036-.587.587-1.274 1.048-2.061 1.382-.788.335-1.617.503-2.488.503-.905 0-1.743-.167-2.513-.503-.771-.334-1.45-.796-2.036-1.382-.587-.586-1.048-1.264-1.382-2.036-.335-.77-.503-1.609-.503-2.513 0-.871.167-1.7.503-2.488.335-.787.796-1.474 1.382-2.061.586-.586 1.265-1.047 2.036-1.382.77-.334 1.609-.503 2.513-.503.871 0 1.7.168 2.488.503.787.335 1.474.797 2.061 1.382.586.587 1.047 1.274 1.382 2.061.335.788.503 1.617.503 2.488z" fill="#004289"/><circle cx="29.459" cy="23.683" fill="#fbba00" r="8.115"/><path d="m39.836 21.477c-1.08-4.472-4.674-8.013-9.155-9.023l.439-1.951c5.219 1.176 9.403 5.3 10.659 10.506z" fill="#cd554d"/><path d="m34.885 14.311 1.131-1.646c-1.464-1.012-3.117-1.762-4.896-2.163l-.439 1.951c1.527.345 2.947.989 4.204 1.858z" fill="#af1280"/><path d="m36.016 12.665-1.131 1.646c1.238.856 2.315 1.933 3.166 3.176l1.651-1.125c-.991-1.446-2.244-2.7-3.686-3.697z" fill="#cd554d"/><path d="m38.051 17.488c.82 1.197 1.435 2.543 1.784 3.989l1.943-.469c-.406-1.684-1.122-3.251-2.077-4.646z" fill="#e58727"/><path d="m42.778 18.81c-1.08-4.472-4.674-8.013-9.155-9.023l.439-1.951c5.219 1.176 9.403 5.3 10.659 10.506z" fill="#cd554d"/><path d="m37.828 11.645 1.131-1.646c-1.464-1.012-3.117-1.762-4.896-2.163l-.439 1.951c1.526.344 2.947.989 4.204 1.858z" fill="#af1280"/><path d="m38.959 9.999-1.131 1.646c1.238.856 2.315 1.933 3.166 3.176l1.651-1.125c-.992-1.447-2.245-2.7-3.686-3.697z" fill="#cd554d"/><path d="m40.994 14.821c.82 1.197 1.435 2.543 1.784 3.989l1.943-.469c-.406-1.684-1.122-3.251-2.077-4.646z" fill="#e58727"/><path d="m46.088 16.328c-1.08-4.472-4.674-8.013-9.155-9.023l.439-1.951c5.219 1.176 9.403 5.3 10.659 10.506z" fill="#cd554d"/><path d="m41.138 9.162 1.131-1.646c-1.464-1.012-3.117-1.762-4.896-2.163l-.439 1.951c1.527.345 2.947.989 4.204 1.858z" fill="#af1280"/><path d="m42.269 7.516-1.131 1.646c1.238.856 2.315 1.933 3.166 3.176l1.651-1.125c-.992-1.447-2.245-2.7-3.686-3.697z" fill="#cd554d"/><path d="m44.304 12.338c.82 1.197 1.435 2.543 1.784 3.989l1.943-.469c-.406-1.684-1.122-3.251-2.077-4.646z" fill="#e58727"/><path d="m41.532 39.278c-.029-.939-.436-2.135-.436-2.135-.047-.13-.128-.277-.182-.406-.421-.985-.997-1.845-1.731-2.58-.734-.734-1.594-1.31-2.58-1.73s-2.023-.629-3.114-.629h-4.027-4.025c-1.133 0-2.182.21-3.147.629-.965.42-1.814.996-2.547 1.73-.735.735-1.311 1.594-1.731 2.58-.052.124-.159.381-.167.399h-.003s-.47 1.269-.47 2.834v2.384.167l24.17.003c.001.001.012-2.524-.01-3.246z" fill="#e58727"/><path d="m17.373 42.354s0-1.788 0-2.384c0-1.565.47-2.834.47-2.834l23.253.006s.407 1.197.436 2.135c.022.722.011 8.627.011 8.627h-24.17z" fill="#cd554d"/><path d="m17.384 42.468h24.159v5.436h-24.159z" fill="#af1280"/><path d="m27.158 3.722h-1.203-7.452-1.203c-.982 0-1.778.796-1.778 1.778v.304 3.124.351c0 .982.796 1.778 1.778 1.778h1.279v2.426h.001v1.577l2.029-4.003h6.549c.982 0 1.778-.796 1.778-1.778v-.351-3.124-.304c0-.982-.796-1.778-1.778-1.778z" fill="#004289"/></svg>