<svg viewBox="0 0 48 48" xmlns="http://www.w3.org/2000/svg"><path d="m41.44 26.21h.28c.19.19.28.31.28.37v17.64a2.88 2.88 0 0 1 -2.78 3h-36.22a2.88 2.88 0 0 1 -2.17-.84 2.93 2.93 0 0 1 -.83-2.16v-30a3 3 0 0 1 .85-2.22 2.9 2.9 0 0 1 2.15-.78h18v3h-18v19.86l3.36-3.49a3.11 3.11 0 0 1 -.36-1.4 2.88 2.88 0 0 1 2.77-3h.23a2.89 2.89 0 0 1 3 2.81v.23a3.11 3.11 0 0 1 -.37 1.4l5 5a3.12 3.12 0 0 1 1.37-.4l4.3-9.56a3.09 3.09 0 0 1 -.45-4.67 3 3 0 0 1 5.15 2.17 3.39 3.39 0 0 1 -.84 2.16l3.66 9.9h.18a2.88 2.88 0 0 1 1.58.48l9.76-9.5zm-2.44 4.38-6.37 6.19a4.39 4.39 0 0 1 .37 1.41 3.05 3.05 0 0 1 -3.11 3 3.09 3.09 0 0 1 -2.05-.84 3 3 0 0 1 -.84-2.16 2.89 2.89 0 0 1 1.41-2.53l-3.66-9.66a1.63 1.63 0 0 1 -.75.18.18.18 0 0 1 -.14 0 .15.15 0 0 0 -.14 0l-4.22 9.48a3.25 3.25 0 0 1 1.09 1 2.74 2.74 0 0 1 .41 1.5 2.87 2.87 0 0 1 -2.77 3h-.23a2.89 2.89 0 0 1 -3-2.77v-.23a3 3 0 0 1 .46-1.59l-4.86-4.85a3 3 0 0 1 -3.19 0l-4.41 4.44v8.07h36zm-7.59-10.38 2.44-7.43-6.29-4.57h7.78l2.44-7.43 2.44 7.43h7.78l-6.38 4.64 2.45 7.42-6.29-4.59z" fill="#1873b4"/></svg>