<svg viewBox="0 0 48 48" xmlns="http://www.w3.org/2000/svg"><path d="m44.35 39.56a3.48 3.48 0 0 1 .65 2.07v3.18a3.19 3.19 0 0 1 -.88 2.19 3.07 3.07 0 0 1 -2.3 1h-35.62a3.05 3.05 0 0 1 -2.2-1 3 3 0 0 1 -1-2.25v-3.12a3.46 3.46 0 0 1 .76-2.07l14.24-18.23v-18.23h-1.48a1.35 1.35 0 0 1 -1.52-1.1 2.29 2.29 0 0 1 0-.37 1.32 1.32 0 0 1 1-1.63 1.11 1.11 0 0 1 .48 0h1.52a2.86 2.86 0 0 1 2.11.89 2.88 2.88 0 0 1 .89 2.11v18.39a3.19 3.19 0 0 1 -.65 1.87l-13.76 17.62a2.82 2.82 0 0 0 -.59 1.77v2.35h36v-2.35a2.83 2.83 0 0 0 -.66-1.77l-13.77-17.62a3.36 3.36 0 0 1 -.57-1.87v-18.39a3 3 0 0 1 .85-2.09 2.85 2.85 0 0 1 2.15-.91h1.5a1.49 1.49 0 0 1 1 .42 1.38 1.38 0 0 1 .5 1.09 1.41 1.41 0 0 1 -.47 1.09 1.58 1.58 0 0 1 -1 .42h-1.53v18.23zm-23.35-12.56h6l8.64 12.55a1.5 1.5 0 0 1 .14 1.6 1.33 1.33 0 0 1 -1.31.84h-21a1.39 1.39 0 0 1 -1.41-.84 1.5 1.5 0 0 1 .19-1.6zm-1.52 12a1.54 1.54 0 0 0 1-.43 1.38 1.38 0 0 0 .52-1.07 1.36 1.36 0 0 0 -.46-1.07 1.54 1.54 0 0 0 -1-.43 1.32 1.32 0 0 0 -1.54 1.13 1.15 1.15 0 0 0 0 .37 1.35 1.35 0 0 0 1.11 1.5 2.29 2.29 0 0 0 .37 0zm6-6a1.32 1.32 0 0 0 -1.48 1.13 1.21 1.21 0 0 0 0 .38 1.31 1.31 0 0 0 1.1 1.49 1.15 1.15 0 0 0 .37 0 1.49 1.49 0 0 0 1-.42 1.41 1.41 0 0 0 .53-1.07 1.44 1.44 0 0 0 -.46-1.09 1.55 1.55 0 0 0 -1-.41z" fill="#1873b4"/></svg>