<svg viewBox="0 0 64 64" xmlns="http://www.w3.org/2000/svg"><path d="m11.65 31.87 3.14 2.46v6.27l-1.11.87 1.11.85v6.25l-3.12 2.43h-11.58v-3.2h1.52v-12.72h-1.52v-3.2zm-6 8h5v-4.79h-5zm5 3.19h-5v4.77h5z"/><path d="m26.41 47.8v-12.74h-1.52v-3.19h7.22v3.19h-1.6v13.49l-3.12 2.45h-7l-3.09-2.45v-13.49h-1.58v-3.19h7.28v3.19h-1.58v12.74z"/><path d="m49.13 31.87h14.87v3.4l-8.92 12.54h4.21v-2.51h4.71v5.7h-14.87v-3.36l9.12-12.55h-4.48v2.51h-4.56z"/><path d="m33.3 31.87h14.86v3.4l-8.91 12.54h4.21v-2.51h4.7v5.7h-14.86v-3.36l9.12-12.55h-4.48v2.51h-4.56z"/><path d="m0 13.12 52.68-.14 10.76 17.21-63.37-.28z"/><g fill="#ff6801"><path d="m9.8 26.26v-8.86h-1.05v-2.23h4.89v2.23h-1.07v9.38l-2.11 1.72h-4.73l-2.1-1.72v-9.38h-1.08v-2.23h4.9v2.23h-1v8.86z"/><path d="m15.74 17.4h-1.2v-2.23h5.46v2.23h-1.18v8.87h1.18v2.23h-5.46v-2.23h1.2z"/><path d="m21.13 15.16h9.79v2.24h-6.77v2.6h4.45l2.28 1.7v5.06l-2.28 1.72h-5.16l-2.28-1.71v-2.28h3v1.74h3.73v-3.94h-6.8z"/></g><g fill="#ffa522"><path d="m35.54 27.27v-1h1.61v2.23h-5.48v-1.23h.6v-4.86h-.6v-1.23h5.48v2.19h-1.61v-1h-1.63v1.82h2.09v1.22h-2.09v1.82z"/><path d="m42.28 25.61h-2v1.66h.61v1.23h-2.77v-1.23h.59v-4.86h-.59v-1.24h4.56l1.23 1v2.39l-.45.33.45.32v2.1h.61v1.19h-2.86v-1.23h.62zm0-3.2h-2v2h2z"/><path d="m49.43 21.18 1.26.94v1.69h-1.64v-1.4h-2.22v2h2.57l1.29 1v2.28l-1.26.95h-3l-1.25-1v-1.33h1.64v1h2.22v-1.73h-2.63l-1.21-.92v-2.54l1.25-.94z"/></g></svg>