<?xml version="1.0" encoding="utf-8"?>
<!-- Generator: Adobe Illustrator 25.2.0, SVG Export Plug-In . SVG Version: 6.00 Build 0)  -->
<svg version="1.1" id="Ebene_1" xmlns="http://www.w3.org/2000/svg" xmlns:xlink="http://www.w3.org/1999/xlink" x="0px" y="0px"
	 viewBox="0 0 1077.2 651.5" style="enable-background:new 0 0 1077.2 651.5;" xml:space="preserve">
<style type="text/css">
	.st0{fill:#FFFFFF;}
	.st1{fill:none;stroke:#FFFFFF;stroke-width:65.8014;stroke-linecap:round;stroke-linejoin:round;stroke-miterlimit:10;}
	.st2{fill:none;stroke:#FFFFFF;stroke-width:71.7264;stroke-linecap:round;stroke-linejoin:round;stroke-miterlimit:10;}
</style>
<g>
	<path class="st0" d="M7,619c3-3.7,8.5-4.2,12.1-1.2c7.3,6,19.9,13.1,31.7,12.9c8.3,0,15.8-2.5,20.8-6.2c5-3.7,7.1-7.9,7.1-12
		c0-2.2-0.5-3.7-1.5-5.4c-1-1.7-2.5-3.4-5-5c-4.8-3.2-13-6-22.8-7.9h-0.3c-7.8-1.5-15.1-3.5-21.4-6.5s-11.8-7.2-15.4-13.1
		c-2.5-4-3.8-8.7-3.8-13.7c0-10,5.6-18.7,13.3-24.4c7.8-5.7,17.9-8.9,28.7-8.9c15.9,0,27.7,7.9,36.2,13.4c3.8,2.7,5,8,2.3,11.9
		c-2.5,4-7.8,5.2-11.8,2.5c-8.5-5.7-16.6-10.7-26.7-10.7c-7.5,0-14.1,2.3-18.6,5.7c-4.5,3.4-6.3,7-6.3,10.5c0,2,0.3,3.4,1.2,4.7
		c0.8,1.3,2.3,2.8,4.5,4.4c4.3,3,11.8,5.7,20.7,7.4h0.3c8.5,1.7,16.3,3.9,22.9,7c6.8,3.4,12.8,7.7,16.6,13.9c2.5,4,4,9,4,14.2
		c0,10.7-6,19.9-14.3,25.9c-8.1,6-18.9,9.5-30.7,9.5c-17.9-0.2-33-9.2-42.5-16.7C4.6,628.2,4.1,622.7,7,619z"/>
	<path class="st0" d="M223.9,545.5c10.3,11,16.8,25.8,16.8,42.3c0,16.6-6.5,31.5-16.8,42.3c-9.8,10.9-24.4,17.9-39.7,17.9
		c-15.9,0-30.5-7-40.7-17.9c-10.3-10.9-16.4-25.8-16.4-42.3c0-16.6,6.1-31.3,16.4-42.3c10.1-11.1,24.7-17.9,40.7-17.9
		C199.5,527.6,214.1,534.5,223.9,545.5z M221.7,587.9c0-11.4-4.5-21.9-11.3-29.3c-7-7.5-16.3-11.9-26.2-11.9
		c-10.6,0-19.9,4.4-26.9,11.9c-7,7.4-11.3,17.9-11.3,29.3s4.3,21.9,11.3,29.1c7,7.5,16.3,12.1,26.9,12.1c10,0,19.3-4.5,26.2-12.1
		C217.2,609.8,221.7,599.2,221.7,587.9z"/>
	<path class="st0" d="M283.4,638.8V538.6c0-5.1,4-9.3,9.1-9.3c5.1,0,9.3,4.2,9.3,9.3v90.7h45c4.8,0,9.1,4.3,9.1,9.5
		c0,5.1-4.3,9.3-9.1,9.3H293c-0.3,0-0.3,0-0.3,0c-0.2,0-0.2,0-0.2,0C287.4,648.1,283.4,643.9,283.4,638.8z"/>
	<path class="st0" d="M432.6,648.1c-26.7,0-48-22.1-48-49.1v-60.5c0-5.3,4-9.3,9.1-9.3c5,0,9.3,4.1,9.3,9.3V599
		c0,16.6,13.3,30.2,29.6,30.2c16.4,0,29.5-13.6,29.5-30.2v-60.5c0-5.3,4.2-9.3,9.3-9.3c5.2,0,9.1,4.1,9.1,9.3V599
		C480.5,626,459.1,648.1,432.6,648.1z"/>
	<path class="st0" d="M596.5,548.1h-26.4v90.7c0,5.3-4,9.3-9.1,9.3c-5,0-9.1-4.1-9.1-9.3v-90.7h-26.2c-5.1,0-9.1-4.4-9.1-9.5
		c0-5.3,4-9.3,9.1-9.3h70.9c5,0,9.1,4.1,9.1,9.3C605.6,543.7,601.5,548.1,596.5,548.1z"/>
	<path class="st0" d="M645.1,538.6c0-5.3,4-9.3,9.1-9.3c5,0,9.3,4.1,9.3,9.3v100.2c0,5.3-4.3,9.3-9.3,9.3c-5.2,0-9.1-4.1-9.1-9.3
		V538.6z"/>
	<path class="st0" d="M797.1,545.5c10.3,11,16.8,25.8,16.8,42.3c0,16.6-6.5,31.5-16.8,42.3c-9.8,10.9-24.4,17.9-39.7,17.9
		c-15.9,0-30.5-7-40.7-17.9c-10.3-10.9-16.4-25.8-16.4-42.3c0-16.6,6.1-31.3,16.4-42.3c10.1-11.1,24.7-17.9,40.7-17.9
		C772.7,527.6,787.3,534.5,797.1,545.5z M794.9,587.9c0-11.4-4.5-21.9-11.3-29.3c-7-7.5-16.3-11.9-26.2-11.9
		c-10.6,0-19.9,4.4-26.9,11.9c-7,7.4-11.3,17.9-11.3,29.3s4.3,21.9,11.3,29.1c7,7.5,16.3,12.1,26.9,12.1c10,0,19.3-4.5,26.2-12.1
		C790.5,609.8,794.9,599.2,794.9,587.9z"/>
	<path class="st0" d="M871.4,638.7c0,5.1-4.1,9.4-9,9.4c-5.2,0-9.1-4.3-9.1-9.4V539c0,0,0,0,0-0.2c-0.2-2.9,1.2-6,3.7-7.9
		c4.1-2.9,9.8-2,12.6,2.1l53.6,76.7V539c0-5,4-9.3,9-9.3c5,0,9.1,4.3,9.1,9.3v99.7c0,5.1-4.2,9.4-9.1,9.4c-2.7,0-5.2-1.4-6.8-3.4
		c-0.3-0.3-0.7-0.7-0.8-1l-53.1-76.1V638.7z"/>
	<path class="st0" d="M988.3,619c3-3.7,8.5-4.2,12.1-1.2c7.3,6,19.9,13.1,31.7,12.9c8.3,0,15.8-2.5,20.8-6.2c5-3.7,7.1-7.9,7.1-12
		c0-2.2-0.5-3.7-1.5-5.4c-1-1.7-2.5-3.4-5-5c-4.8-3.2-13-6-22.8-7.9h-0.3c-7.8-1.5-15.1-3.5-21.4-6.5c-6.3-3-11.8-7.2-15.4-13.1
		c-2.5-4-3.8-8.7-3.8-13.7c0-10,5.6-18.7,13.3-24.4c7.8-5.7,17.9-8.9,28.7-8.9c15.9,0,27.7,7.9,36.2,13.4c3.8,2.7,5,8,2.3,11.9
		c-2.5,4-7.8,5.2-11.8,2.5c-8.5-5.7-16.6-10.7-26.7-10.7c-7.5,0-14.1,2.3-18.6,5.7c-4.5,3.4-6.3,7-6.3,10.5c0,2,0.3,3.4,1.2,4.7
		c0.8,1.3,2.3,2.8,4.5,4.4c4.3,3,11.8,5.7,20.7,7.4h0.3c8.5,1.7,16.3,3.9,22.9,7c6.8,3.4,12.8,7.7,16.6,13.9c2.5,4,4,9,4,14.2
		c0,10.7-6,19.9-14.3,25.9c-8.1,6-18.9,9.5-30.7,9.5c-17.9-0.2-33-9.2-42.5-16.7C986,628.2,985.5,622.7,988.3,619z"/>
</g>
<g>
	<polyline class="st1" points="629.7,441.4 629.7,36.6 865.5,36.6 	"/>
	<line class="st1" x1="865.5" y1="250.3" x2="649.4" y2="250.3"/>
	<line class="st1" x1="1042.1" y1="37.2" x2="1042.1" y2="441.7"/>
	<polyline class="st2" points="44.1,439.5 249.9,39.8 456.3,439.5 	"/>
</g>
</svg>
