<svg id="Layer_2" xmlns="http://www.w3.org/2000/svg" viewBox="0 0 533.38 152.14">
  <defs>
    <style>
      .cls-1{stroke-width:0;fill:#272525}
    </style>
  </defs>
  <path d="M110.64 9.9c-.84-1.96-2.02-3.71-3.5-5.19a17.059 17.059 0 0 0-5.21-3.53C99.88.4 97.84 0 95.85 0H15.99c-2.01 0-4.04.4-6.09 1.2-1.96.84-3.71 2.01-5.19 3.5a16.657 16.657 0 0 0-3.52 5.24C.41 11.93.01 13.96.01 15.98v79.87c0 2 .4 4.04 1.21 6.16.86 1.94 2.03 3.66 3.49 5.12 1.48 1.49 3.23 2.66 5.24 3.52 1.99.79 4.03 1.18 6.04 1.18h76.33l-5.69-10.7H15.99c-.68 0-1.35-.13-2.03-.42-.64-.26-1.19-.63-1.67-1.11l-.47-.56a5.236 5.236 0 0 1-1.12-3.21V15.99c0-.68.14-1.35.42-2.03.24-.58.63-1.14 1.16-1.68.54-.54 1.1-.93 1.68-1.17.68-.27 1.34-.42 2.03-.42h79.87c.69 0 1.35.14 1.97.39.52.24.92.46 1.23.72l.56.47c.49.49.85 1.04 1.12 1.68.28.68.42 1.34.42 2.02v29.99l10.7 19.35V15.99c0-2.02-.4-4.06-1.2-6.09Z" fill="#922428" stroke-width="0"/>
  <path class="cls-1" d="M211.14 35.13c-.25-.18-.66-.49-1.07-.57-.44-.14-.95-.21-1.49-.21h-3.81c-.6 0-1.09.07-1.36.17-.58.12-.99.42-1.45.79-.37.38-.56.84-.72 1.24-.15.45-.22.96-.22 1.5v47.73c0 .55.07 1.05.26 1.59.12.31.31.78.91 1.35.25.18.66.48 1.05.55.46.15.95.22 1.54.22h3.81c1.2 0 2.12-.32 2.76-.95.63-.63.95-1.56.95-2.76V38.05c0-.55-.07-1.05-.26-1.6-.13-.32-.31-.77-.89-1.33ZM184.83 35.29a2.82 2.82 0 0 0-1.32-.74c-.49-.16-1.04-.2-1.43-.2h-39.09c-1.38 0-2.68.1-3.91.29-1.18.14-2.4.42-3.75.87-1.33.46-2.39.93-3.27 1.43-1 .5-1.99 1.15-3.25 2.17-.84.65-1.66 1.43-2.41 2.3-.83.94-1.42 1.92-1.92 2.82-.47.94-.84 1.95-1.1 2.97-.25.96-.38 2.06-.38 3.26v22.91c0 1.18.13 2.29.38 3.31.27 1.02.64 2 1.11 2.95a13.92 13.92 0 0 0 1.86 2.75c.69.84 1.56 1.67 2.58 2.47 1.07.85 2.07 1.52 3.02 2.02.99.55 2.06 1.01 3.37 1.46 1.14.39 2.37.7 3.75.92 1.43.16 2.67.24 3.91.24h39.09c.45 0 1.81 0 2.58-.8.56-.42.78-.98.95-1.41.15-.45.22-.95.22-1.5v-25.1l-.03-.34c-.06-.34-.12-.72-.34-1.25-.13-.25-.31-.57-.63-.89-.33-.33-.71-.58-1.2-.77-.46-.16-.97-.23-1.56-.23l-23.57.05c-.39 0-.93.04-1.42.2-.5.11-.93.35-1.14.59-.57.42-.8.99-.96 1.41-.15.45-.23.96-.23 1.51v1.9c0 .59.07 1.1.26 1.65.14.36.34.77.74 1.12.41.45.88.64 1.2.77.46.16.95.23 1.56.23h16v13.49h-31.52c-.62 0-1.23-.04-1.81-.12-.64-.09-1.13-.21-1.65-.41a6.24 6.24 0 0 1-1.46-.64c-.42-.21-.88-.51-1.32-.87-.44-.36-.8-.72-1.06-1-.31-.39-.58-.77-.82-1.2-.19-.35-.33-.74-.42-1.06-.08-.47-.16-.98-.16-1.44V50.47c0-.46.08-.96.13-1.27.13-.51.27-.91.42-1.18.23-.38.49-.8.85-1.21.31-.39.71-.74 1.06-1.05.44-.36.93-.64 1.31-.87.48-.23.96-.48 1.47-.64.52-.16 1.08-.33 1.65-.4.57-.08 1.19-.12 1.81-.12h39.09c.59 0 1.09-.07 1.65-.26.32-.13.74-.33 1.12-.7.4-.41.6-.81.76-1.25.15-.45.22-.95.22-1.5v-1.95c0-.55-.07-1.05-.26-1.6-.14-.34-.33-.75-.75-1.17ZM110.92 84.64 87.09 41.13c-.04-.12-.13-.32-.25-.57l-.74-1.46c-1.49-2.82-1.86-3.46-2.2-3.79l-.3-.25c-.15-.12-.35-.29-.63-.42l-.36-.14c-.23-.05-.57-.14-1-.14H77.8c-.44 0-.78.08-1 .14l-.36.14c-.28.14-.48.31-.74.51l-.29.27c-.48.58-2.6 4.68-2.62 4.74L49.36 82.55l-.15.31c-.07.15-.14.3-.21.42l-.15.32c-.06.19-.12.35-.19.48l-.36 1.77c0 .55.07 1.05.26 1.59.13.33.33.75.91 1.3.25.18.66.49 1.06.55.45.15.96.22 1.54.22h2.83c.86 0 1.74-.33 2.37-.84.39-.25.76-.61 1.25-1.18.3-.35.63-.74 1.02-1.33l2.56-4.82c4.71-8.85 9.81-18.43 14.87-28l2.75-5.19L81 50.6c5.92 11.1 11.8 22.17 16.86 31.68L100 86.3c.3.45.64.85 1 1.27.42.49.79.84.92.89.35.36.8.64 1.61.92.34.06.68.12 1.01.12h2.84c1.24 0 2.16-.31 2.81-.96.38-.38.56-.83.72-1.26.15-.45.22-.95.22-1.5 0-.23 0-.47-.13-.91-.01-.06-.03-.14-.06-.25ZM384.68 42.94l.37-.37c.21-.29.36-.57.55-1.05.15-.45.23-.96.23-1.51v-1.95c0-.55-.08-1.06-.27-1.61-.11-.27-.26-.6-.51-.95l-.38-.38c-.26-.19-.66-.48-1.05-.55-.45-.14-.96-.21-1.54-.21h-55.31c-.39 0-.94.03-1.43.2-.5.12-.95.37-1.34.77-.4.4-.63.9-.76 1.24-.15.46-.23.96-.23 1.51v1.95c0 1.13.35 2.11 1 2.76.4.4.87.6 1.16.7.53.21 1.16.25 1.59.25h22.03v42.07c0 1.22.31 2.12.96 2.76.95.95 2.31.95 2.76.95h3.81c.45 0 1.81 0 2.76-.95.66-.66 1-1.59 1-2.76V43.74h21.99c.58 0 1.09-.07 1.66-.27.25-.1.59-.26.94-.51ZM445.71 84.31c-.08-.29-.2-.57-.34-.85-.1-.26-.23-.54-.43-.94l-23.13-41.84c-.08-.14-.2-.37-.38-.72l-.53-1c-1.46-2.75-1.8-3.34-2.13-3.67-.27-.27-.59-.5-.92-.68l-.38-.14c-.23-.05-.56-.13-.98-.13h-3.81c-.4 0-.74.08-.96.14l-.34.13c-.4.2-.72.47-.94.68-.38.38-1.31 2.01-2.77 4.84l-23.42 42.38c-.16.32-.33.7-.38.85-.19.38-.32.72-.33.82-.1.23-.21.57-.25.98-.05.28-.05.51-.05.67 0 .55.07 1.06.17 1.3.1.52.36 1 .79 1.43.4.38.92.66 1.26.72.44.14.94.22 1.49.22h2.88c.83 0 1.62-.29 2.37-.84.38-.25.75-.6 1.17-1.09.32-.37.64-.79 1.04-1.41 5.43-10.13 11.42-21.46 17.42-32.82l2.79-5.19 9.43 17.72c3.84 7.23 7.51 14.14 10.87 20.42.32.48.64.9.96 1.27.42.48.78.83 1.04.99.4.33.78.57 1.48.81.34.06.68.12 1.02.12h2.88c.77 0 1.91-.1 2.75-.94.41-.4.65-.92.76-1.19l.09-.34c.06-.36.12-.77.12-1.24v-.86l-.27-.62ZM311.29 35.13c-.25-.18-.65-.48-1.06-.56-.44-.14-.95-.21-1.49-.21h-3.81c-.59 0-1.09.07-1.36.17-.57.12-.98.41-1.24.61l-.38.38c-.2.28-.36.57-.56 1.07-.14.44-.21.94-.21 1.49v47.73c0 .54.07 1.05.25 1.59.13.33.31.77.94 1.36.24.18.64.47 1.03.53.45.15.95.22 1.54.22h3.81c1.2 0 2.13-.33 2.75-.94.64-.63.96-1.56.96-2.77V38.07c0-.55-.08-1.05-.29-1.67-.13-.3-.31-.72-.87-1.26ZM289.65 81.13c-.41-.41-.83-.61-1.25-.77-.46-.16-.95-.23-1.56-.23h-39.09c-.61 0-1.23-.04-1.8-.12-.64-.09-1.13-.21-1.65-.41a6.24 6.24 0 0 1-1.46-.64c-.23-.12-.45-.25-.66-.39l-.68-.54c-.34-.24-.7-.59-1.03-.94a8.8 8.8 0 0 1-.76-1.09c-.19-.43-.37-.83-.46-1.31-.12-.46-.18-.92-.18-1.31V38.06c0-.55-.08-1.05-.18-1.31-.1-.52-.38-1.04-.79-1.46-.39-.38-.91-.66-1.25-.72-.45-.14-.95-.21-1.49-.21h-3.81c-.58 0-1.09.07-1.36.17-.51.1-.97.36-1.24.64-.54.42-.77.98-.93 1.4-.15.45-.22.96-.22 1.5v35.32c0 .96.11 1.99.38 3.31.27 1.02.64 2 1.11 2.95.48.92 1.07 1.79 1.86 2.75.7.85 1.57 1.68 2.77 2.63 1.03.8 1.99 1.42 2.84 1.85.96.55 1.99 1 3.35 1.48 1.13.39 2.37.7 3.75.92 1.43.16 2.67.24 3.91.24h39.09c1.26 0 2.17-.31 2.81-.95.38-.39.57-.84.73-1.26.15-.45.23-.95.23-1.5V83.9c0-.59-.08-1.09-.26-1.65-.14-.34-.33-.75-.7-1.11Z"/>
  <text class="cls-1" transform="translate(97.67 111.72)" font-family="Montserrat-Regular,Montserrat" font-size="23" letter-spacing=".13em" fill="#272525"><tspan x="0" y="0">BERLIN • BERN • ZÜRICH</tspan></text>
</svg>