<svg xmlns="http://www.w3.org/2000/svg" xml:space="preserve" fill-rule="evenodd" stroke-linecap="round" stroke-linejoin="round" stroke-miterlimit="1.5" clip-rule="evenodd" viewBox="0 0 9567 2481">
  <g transform="matrix(1.00306 0 0 .99865 9.878 -3.41)">
    <clipPath id="a">
      <path d="M2478.68 247.608c0-137.124-110.84-248.452-247.36-248.452H247.213C110.691-.844-.147 110.484-.147 247.608V2235.23c0 137.12 110.838 248.45 247.36 248.45H2231.32c136.52 0 247.36-111.33 247.36-248.45V247.608Z"/>
    </clipPath>
    <g clip-path="url(#a)">
      <path fill="#0d0d0d" d="M-12.103-10.304h2503.602v2502.956H-12.103z"/>
      <path fill="#b00" d="M2293.275 1749.024c1.788 8.194-225.8-107.151-228.888-117.28-29.348-96.088-76.328-187.547-134.537-272.796-279.986-410.112-769.018-510.186-1109.165-234.988a853.135 853.135 0 0 1 31.87-30.356c375.86-339.918 939.562-237.168 1258.043 229.302 89.388 130.92 150.013 276.664 182.677 426.118Z"/>
      <circle cx="1246.6" cy="2207.78" r="948.535" fill="#1a1a1a" stroke="#333" stroke-width="8.15" transform="matrix(2.38896 .64012 -.38618 1.44126 -1035.81 -1198.042)"/>
      <path fill="#800" d="M170.195 1739.71h-.288c55.788-358.184 214.753-681.09 465.407-887.216 513.615-422.372 1218.965-195.5 1574.145 506.312a1775.443 1775.443 0 0 1 29.68 61.583c-330.57-591.436-945.56-773.506-1397.109-402.171-207.747 170.839-346.034 430.149-406.908 721.491h-.696c.046.33.07.671.07 1.012 0 17.043-59.23 30.881-132.186 30.881-72.954 0-132.184-13.838-132.184-30.881 0-.34.023-.681.07-1.012Z"/>
    </g>
  </g>
  <path d="m2886.197 1731.558 329.536-702.208h152.035l330.269 702.208h-172.303l-68.225-148.667h-331.022l-66.997 148.667h-173.293Zm292.455-267.44h225.453l-86.774-188.192a1496.381 1496.381 0 0 1-8.832-18.81 843.493 843.493 0 0 1-9.458-21.266c-3.05-7.123-5.523-13.493-7.417-19.11-2.058 5.617-4.573 11.987-7.54 19.11a618.816 618.816 0 0 1-9.332 21.267 1496.381 1496.381 0 0 1-8.832 18.809l-87.268 188.192Zm894.161 279.478c-53.973 0-103.026-7.724-147.153-23.173-44.127-15.448-81.91-37.267-113.347-65.455-31.433-28.189-55.023-61.444-70.764-99.764l145.113-43.938c18.541 32.301 44.375 58.684 77.501 79.098 33.123 20.44 70.662 30.647 112.611 30.647 43.75 0 78.793-7.499 105.12-22.521 26.332-15.022 39.499-36.941 39.499-65.757 0-19.662-7.726-36.088-23.176-49.255-15.451-13.166-36.343-24.527-62.675-34.057-26.328-9.53-55.891-18.809-88.687-27.837-31.556-8.828-63.487-18.559-95.794-29.192-32.304-10.633-61.825-23.75-88.564-39.374-26.742-15.624-48.268-35.236-64.584-58.835-16.319-23.624-24.477-52.64-24.477-87.074 0-34.433 11.372-66.032 34.119-94.798 22.743-28.74 55.687-51.788 98.825-69.067 43.142-17.28 95.322-25.931 156.544-25.931 50.434 0 95.1 6.946 133.992 20.815 38.895 13.869 71.051 32.728 96.471 56.528 25.42 23.8 43.2 50.66 53.339 80.553l-143.383 38.521c-11.535-20.94-29.149-38.546-52.841-52.816-23.692-14.27-55.851-21.417-96.48-21.417-37.82 0-67.217 6.044-88.19 18.107-20.97 12.063-31.458 29.166-31.458 51.311 0 15.123 7.089 27.938 21.26 38.471 14.175 10.533 33.374 19.938 57.604 28.239 24.226 8.3 51.503 16.753 81.824 25.38 34.198 9.555 68.252 20.238 102.16 32s64.85 26.183 92.825 43.236c27.975 17.054 50.347 38.22 67.117 63.5 16.77 25.28 25.157 56.202 25.157 92.792 0 44.74-13.658 82.81-40.975 114.209-27.314 31.398-64.315 55.399-110.998 71.976-46.683 16.577-99.194 24.878-157.535 24.878Zm458.577-12.038V1029.35h373.29c70.371 0 125.932 9.154 166.682 27.437 40.746 18.307 69.794 41.856 87.142 70.672 17.345 28.816 26.019 58.985 26.019 90.484 0 31.5-8.467 60.215-25.401 86.171-16.937 25.957-44.48 45.845-82.63 59.688 31.392 8.953 57.266 21.894 77.62 38.822 20.358 16.928 35.417 36.038 45.181 57.33 9.762 21.292 14.645 42.81 14.645 64.553 0 24.753-5.111 49.38-15.327 73.933-10.216 24.552-26.634 46.822-49.254 66.86-22.62 20.038-52.573 36.089-89.862 48.152-37.285 12.062-83.041 18.106-137.267 18.106H4531.39Zm160.196-121.782h240.78c31.07 0 55.38-4.39 72.931-13.142 17.555-8.752 29.851-19.687 36.894-32.803 7.045-13.116 10.565-26.207 10.565-39.324 0-15.975-4.138-31.273-12.42-45.894-8.278-14.62-23.664-26.558-46.163-35.863-22.496-9.304-55.048-13.943-97.652-13.943h-204.935v180.969Zm0-298.138h193.56c46.81 0 81.42-7.448 103.832-22.32 22.413-14.872 33.621-34.734 33.621-59.537 0-12.64-2.843-25.08-8.529-37.318-5.682-12.238-16.767-22.345-33.247-30.345s-40.79-11.988-72.927-11.988h-216.31v161.508Zm650.658 419.92V1029.35h393.823c71.938 0 128.828 10.157 170.669 30.446 41.871 20.314 71.753 46.998 89.706 80.102 17.923 33.104 26.854 68.616 26.854 106.535 0 26.559-6.242 53.393-18.757 80.503-12.546 27.136-31.582 51.537-57.168 73.23-25.586 21.694-57.817 37.669-96.598 47.901l170.576 283.491h-179.723l-163.901-266.036h-175.273v266.036h-160.208Zm160.208-388.22h236.087c29.974 0 53.738-4.59 71.259-13.794 17.49-9.204 29.943-21.116 37.298-35.762 7.385-14.646 11.093-30.17 11.093-46.546 0-14.973-3.46-29.794-10.383-44.44-6.921-14.646-19.097-26.86-36.525-36.615-17.46-9.756-41.686-14.646-72.742-14.646h-236.087v191.803Zm999.228 400.258c-72.618 0-134.575-10.96-185.84-32.853-51.297-21.894-90.418-53.719-117.364-95.45-26.977-41.731-40.42-92.315-40.42-151.777V1029.35h160.194v434.166c0 53.443 14.585 92.64 43.756 117.62 29.14 24.978 75.709 37.467 139.675 37.467 40.543 0 74.41-5.191 101.604-15.599 27.193-10.382 47.588-26.985 61.185-49.756 13.596-22.772 20.395-52.69 20.395-89.732V1029.35h160.162v434.166c0 49.68-8.93 92.265-26.823 127.701-17.86 35.437-42.582 64.428-74.101 86.974-31.489 22.546-68.045 39.073-109.546 49.606-41.531 10.533-85.844 15.8-132.876 15.8Zm853.282 0c-63.595 0-117.734-10.282-162.449-30.847-44.714-20.564-80.807-48.251-108.34-83.086-27.533-34.834-47.743-73.857-60.567-117.043-12.855-43.186-19.282-87.25-19.282-132.166 0-45.041 6.705-89.08 20.086-132.165 13.38-43.086 34.177-82.033 62.328-116.868 28.151-34.834 64.367-62.546 108.68-83.186 44.282-20.615 97.34-30.922 159.143-30.922 51.636 0 94.99 5.943 130.095 17.806 35.073 11.862 63.687 27.11 85.782 45.718 22.125 18.609 39.708 38.12 52.749 58.534l-77.038 32.753a297.123 297.123 0 0 0-43.787-44.54c-16.285-13.442-36.247-24.126-59.949-32.1-23.701-7.976-52.965-11.963-87.852-11.963-46.97 0-87.019 8.702-120.114 26.082-33.096 17.38-59.95 40.452-80.56 69.217-20.612 28.766-35.63 60.691-45.117 95.802-9.486 35.11-14.214 70.396-14.214 105.832 0 37.017 4.913 73.18 14.74 108.517 9.826 35.336 25.246 67.11 46.26 95.375 21.012 28.263 47.958 50.709 80.837 67.386 32.91 16.653 72.433 25.004 118.57 25.004 51.234 0 92.364-9.179 123.389-27.511 31.056-18.333 55.839-40.728 74.38-67.137l79.509 24.427c-13.999 24.502-33.312 47.174-57.879 67.939-24.597 20.79-54.973 37.518-91.159 50.158-36.185 12.664-78.953 18.984-128.24 18.984Zm806.311 0c-65.912 0-121.72-10.608-167.362-31.85-45.672-21.242-82.383-49.48-110.133-84.766-27.718-35.286-47.959-74.309-60.659-117.119-12.7-42.81-19.066-85.945-19.066-129.407 0-43.461 6.365-86.597 19.066-129.406 12.7-42.81 32.94-81.833 60.66-117.119 27.749-35.286 64.46-63.524 110.132-84.766 45.642-21.242 101.45-31.85 167.362-31.85 66.191 0 122.154 10.608 167.795 31.85 45.673 21.242 82.383 49.48 110.133 84.766 27.718 35.286 47.866 74.309 60.443 117.119 12.577 42.81 18.85 85.945 18.85 129.406 0 43.462-6.273 86.598-18.85 129.407-12.577 42.81-32.725 81.833-60.443 117.119-27.75 35.286-64.46 63.524-110.133 84.766-45.641 21.242-101.604 31.85-167.795 31.85Zm0-66.86c49.844 0 91.778-8.928 125.77-26.76 33.99-17.83 61.4-41.404 82.197-70.721 20.797-29.318 35.846-61.368 45.116-96.153 9.27-34.76 13.906-68.992 13.906-102.648 0-36.89-4.635-72.929-13.906-108.09-9.27-35.16-24.32-66.985-45.116-95.475-20.797-28.464-48.206-51.16-82.198-68.039-33.991-16.878-75.925-25.33-125.769-25.33-49.442 0-91.19 8.929-125.243 26.76-34.054 17.831-61.494 41.405-82.29 70.722-20.828 29.317-35.939 61.418-45.333 96.303-9.425 34.885-14.122 69.268-14.122 103.15 0 36.79 4.697 72.778 14.122 108.014 9.394 35.21 24.505 67.01 45.332 95.375 20.797 28.364 48.237 50.935 82.29 67.713 34.054 16.778 75.802 25.18 125.244 25.18Zm580.144 54.822V1029.35h86.926l403.356 527.334c6.18 8.25 12.299 16.602 18.356 25.078a914.01 914.01 0 0 1 18.324 26.735c-.278-8.678-.618-17.355-1.05-25.982a542.23 542.23 0 0 1-.588-25.18V1029.35h86.524v702.208h-83.65l-407.497-528.662a12256.66 12256.66 0 0 0-17.707-24.502 2113.13 2113.13 0 0 1-18.139-25.33c.557 7.7.958 15.875 1.236 24.503.278 8.652.433 17.078.433 25.33v528.661h-86.524Z"/>
</svg>