<svg id="Ebene_1" data-name="Ebene 1" xmlns="http://www.w3.org/2000/svg" viewBox="0 0 523.02 190.78"><defs><style>.cls-1{fill:#1f1918;}.cls-2{fill:#f07d00;}</style></defs><path class="cls-1" d="M306.21,534.07q-16.71,0-26.56-9.56t-9.85-25.82q0-15.44,9.1-25.4t23.28-10q13.59,0,29.5,10.14V451.1a95.57,95.57,0,0,0-16.08-5.81,63.17,63.17,0,0,0-14.69-1.56q-23.51,0-37.91,15.33t-14.4,40.33q0,24.76,14.8,39.52t39.7,14.75A88.13,88.13,0,0,0,334,547.78V527q-15.68,7-27.77,7" transform="translate(-248.6 -364)"/><path class="cls-1" d="M475.53,552.76a63.62,63.62,0,0,0,16.82,2q16,0,26.22-8.35a26.39,26.39,0,0,0,10.19-21.37q0-18.19-26.51-33.18l-7.49-4.26q-8.53-4.72-11.92-8.06c-2.26-2.24-3.39-4.58-3.39-7a8,8,0,0,1,3.74-6.87q3.75-2.59,9.85-2.59,11.86,0,30.54,11.29V453.61q-16.37-8.76-31.92-8.76-15,0-24.49,7.72a24.53,24.53,0,0,0-9.5,19.94A27.65,27.65,0,0,0,464,490q6.27,8,26.56,19.3,10.14,5.78,13.19,8.82a10.39,10.39,0,0,1,3.06,7.66q0,4.5-4.73,7.72a19.53,19.53,0,0,1-11.29,3.23q-6.35,0-15.61-3.86A95.5,95.5,0,0,1,457,522.75v22.58a112.69,112.69,0,0,0,18.55,7.43" transform="translate(-248.6 -364)"/><path class="cls-1" d="M396.71,464.21q13.25,0,21.49,9.91t8.24,25.7q0,15.56-8.81,25.46t-22.76,9.91a75.61,75.61,0,0,1-22-3.23V474.58q12.11-10.36,23.85-10.37m-44.82,82.85q6.67,3.35,18,5.53a114.2,114.2,0,0,0,21.61,2.19q25.58,0,40.85-15.15t15.26-40.74q0-23.85-12.79-39.06t-33-15.21q-15.45,0-29,9.91V392l-21,17.45Z" transform="translate(-248.6 -364)"/><path class="cls-2" d="M639.62,545.87a94.74,94.74,0,0,0,127-117.59c-15,42.83-96,110.46-127,117.59m-40.5-141.22a94.66,94.66,0,0,0,3,112.24c-6.2-27.77-6.9-88.25-3-112.24m139.11-18.07A94.65,94.65,0,0,0,613.93,388c47.44-11,102.26-4.74,124.3-1.38" transform="translate(-248.6 -364)"/><path class="cls-2" d="M626.05,418.56c-2.07,6.59-4.14,23.63-4.14,43.3s1.8,41.28,4.14,49.6,4,10.28,11.91,8.3,44.73-28.32,57.18-39.87c15.69-14.61,31.21-30.84,52.49-59,7.76-11.37-4.87-13.35-4.87-13.35s-24.44-5.77-58.8-5.05c-24.53,1.08-41.13,3.07-47.26,4.87s-8.57,4.6-10.65,11.18" transform="translate(-248.6 -364)"/></svg>