<svg xmlns="http://www.w3.org/2000/svg" xml:space="preserve" id="Layer_1" x="0" y="0" version="1.1" viewBox="0 0 429.74 133.52"><style>.st0{fill:#424241}</style><path d="M18.23 42.34h12.64v56.62H18.23V42.34zM80.99 42.34h12.64v56.62H80.99L54.02 63.48v35.48H41.38V42.34h11.83l27.78 36.45V42.34zM126.94 53.28v45.68H114.3V53.28H98.26V42.34h44.71v10.94h-16.03zM188.49 42.34V53.6H160.3v11.66h25.35v10.77H160.3v11.74h29.08v11.18h-41.72V42.33h40.83v.01zM233.23 70.12h12.72v20.09c-5.62 6.26-13.39 9.4-23.33 9.4-8.32 0-15.3-2.75-20.94-8.26s-8.46-12.46-8.46-20.86 2.88-15.4 8.63-21.02 12.69-8.42 20.82-8.42 15.19 2.67 21.18 8.02l-6.56 9.48c-2.54-2.21-4.87-3.74-7.01-4.58-2.13-.84-4.44-1.26-6.92-1.26-4.81 0-8.86 1.63-12.15 4.9s-4.94 7.57-4.94 12.92 1.58 9.63 4.74 12.84 6.93 4.82 11.3 4.82 8.02-.84 10.94-2.51V70.12h-.02zM300.17 61.13c0 9.07-3.59 14.93-10.77 17.58l14.34 20.25h-15.55L275.63 80.9h-8.75v18.06h-12.64V42.34h21.46c8.8 0 15.08 1.49 18.83 4.46 3.76 2.97 5.64 7.75 5.64 14.33zm-15.23 6.73c1.57-1.4 2.35-3.63 2.35-6.68s-.81-5.14-2.43-6.28c-1.62-1.13-4.46-1.7-8.5-1.7h-9.48v16.77h9.23c4.32-.01 7.26-.71 8.83-2.11zM332.6 53.28v45.68h-12.64V53.28h-16.04V42.34h44.71v10.94H332.6zM399.25 61.13c0 9.07-3.59 14.93-10.77 17.58l14.34 20.25h-15.56L374.7 80.9h-8.75v18.06h-12.64V42.34h21.46c8.8 0 15.08 1.49 18.83 4.46 3.78 2.97 5.65 7.75 5.65 14.33zm-15.23 6.73c1.57-1.4 2.35-3.63 2.35-6.68s-.81-5.14-2.43-6.28c-1.62-1.13-4.46-1.7-8.5-1.7h-9.48v16.77h9.23c4.32-.01 7.27-.71 8.83-2.11zM421.84 44.8c2.13 2.14 3.2 4.72 3.2 7.73s-1.07 5.59-3.2 7.75c-2.13 2.15-4.72 3.23-7.78 3.23s-5.63-1.07-7.75-3.2-3.17-4.7-3.17-7.72c0-3.01 1.07-5.6 3.2-7.76s4.71-3.24 7.75-3.24 5.61 1.07 7.75 3.21zm-1.47 13.77c1.62-1.68 2.42-3.7 2.42-6.06s-.85-4.4-2.55-6.09c-1.7-1.7-3.74-2.55-6.14-2.55-2.39 0-4.45.86-6.15 2.58-1.71 1.72-2.56 3.77-2.56 6.15s.84 4.43 2.52 6.12 3.74 2.55 6.18 2.55 4.52-.88 6.21-2.64h-3.52l-2.64-3.79h-1.33v3.79h-3.33V46.32h4.88c1.94 0 3.32.33 4.15 1s1.24 1.74 1.24 3.21c0 1.8-.82 3.05-2.46 3.76l3.08 4.28zm-4.34-6.84c.28-.25.42-.66.42-1.21 0-.56-.15-.94-.44-1.15s-.8-.32-1.53-.32h-1.67v3.06h1.61c.79 0 1.33-.13 1.61-.38z" class="st0"/><path d="M119.13 127.51h-4.9v-11.18h4.35c.76 0 1.41.09 1.96.27s.96.43 1.22.74c.51.58.77 1.23.77 1.95 0 .88-.28 1.53-.83 1.95-.2.15-.34.24-.42.28s-.21.1-.4.18c.69.15 1.25.46 1.66.94s.62 1.06.62 1.77c0 .78-.27 1.47-.8 2.06-.62.7-1.7 1.04-3.23 1.04zm-3-6.54h2.4c1.37 0 2.05-.46 2.05-1.39 0-.53-.17-.92-.5-1.15-.33-.23-.84-.35-1.54-.35h-2.42l.01 2.89zm0 4.8h2.96c.69 0 1.22-.11 1.59-.33s.55-.63.55-1.24c0-.99-.79-1.49-2.38-1.49h-2.72v3.06zM144.28 119.96c0 1.84-.81 3.01-2.42 3.49l2.93 4.06h-2.4l-2.67-3.76h-2.48v3.76h-1.89v-11.18h4.16c1.71 0 2.93.29 3.66.86s1.11 1.5 1.11 2.77zm-2.51 1.59c.38-.33.58-.86.58-1.59s-.2-1.23-.59-1.5c-.4-.27-1.1-.41-2.11-.41h-2.4v4h2.35c1.06-.01 1.78-.17 2.17-.5zM156.71 116.33h1.89v11.18h-1.89v-11.18zM179.92 117.79c1.08.98 1.62 2.33 1.62 4.07 0 1.74-.52 3.12-1.57 4.13-1.05 1.01-2.65 1.52-4.8 1.52h-3.71v-11.18h3.84c2 0 3.54.49 4.62 1.46zm-.29 4.12c0-2.56-1.47-3.84-4.4-3.84h-1.89v7.66h2.1c1.35 0 2.39-.32 3.11-.97.72-.64 1.08-1.59 1.08-2.85zM201.5 122.07h1.89v3.82c-1.06 1.16-2.57 1.74-4.53 1.74-1.65 0-3.04-.54-4.15-1.63s-1.67-2.46-1.67-4.13.57-3.05 1.7-4.16c1.14-1.11 2.51-1.66 4.12-1.66s2.95.47 4.02 1.41l-1.01 1.44c-.44-.37-.88-.63-1.32-.78-.44-.14-.96-.22-1.54-.22-1.13 0-2.08.37-2.85 1.1s-1.15 1.69-1.15 2.88.37 2.14 1.12 2.86c.75.72 1.65 1.08 2.71 1.08s1.95-.23 2.66-.69v-3.06zM215.79 116.33h1.89v11.18h-1.89v-11.18zM238.92 116.33h1.89v11.18h-2.05l-6.34-8.16v8.16h-1.89v-11.18h1.89l6.5 8.35v-8.35zM261.46 122.07h1.89v3.82c-1.06 1.16-2.57 1.74-4.53 1.74-1.65 0-3.04-.54-4.15-1.63-1.12-1.09-1.67-2.46-1.67-4.13s.57-3.05 1.7-4.16c1.14-1.11 2.51-1.66 4.12-1.66s2.95.47 4.02 1.41l-1.01 1.44c-.44-.37-.88-.63-1.32-.78-.44-.14-.96-.22-1.54-.22-1.13 0-2.08.37-2.85 1.1-.77.73-1.15 1.69-1.15 2.88s.37 2.14 1.12 2.86c.75.72 1.65 1.08 2.71 1.08s1.95-.23 2.66-.69v-3.06zM294.99 125.8c.65 0 1.21-.11 1.68-.33s.96-.57 1.47-1.05l1.22 1.25c-1.18 1.31-2.62 1.97-4.31 1.97s-3.09-.54-4.21-1.63-1.67-2.46-1.67-4.13.57-3.05 1.7-4.16c1.14-1.11 2.57-1.66 4.3-1.66s3.18.64 4.34 1.92l-1.2 1.31c-.53-.51-1.04-.87-1.51-1.07s-1.03-.3-1.67-.3c-1.13 0-2.08.37-2.85 1.1-.77.73-1.15 1.66-1.15 2.8s.38 2.08 1.14 2.85 1.68 1.13 2.72 1.13zM311.28 127.51v-11.18h1.89v9.39h5.1v1.79h-6.99zM339.08 125.97c-1.13 1.1-2.53 1.66-4.19 1.66s-3.06-.55-4.19-1.66c-1.13-1.1-1.7-2.48-1.7-4.13s.57-3.02 1.7-4.13c1.13-1.1 2.53-1.66 4.19-1.66s3.06.55 4.19 1.66c1.13 1.1 1.7 2.48 1.7 4.13-.01 1.65-.57 3.03-1.7 4.13zm-1.39-7c-.76-.79-1.7-1.18-2.81-1.18s-2.04.4-2.81 1.18-1.14 1.75-1.14 2.87.38 2.08 1.14 2.87 1.7 1.18 2.81 1.18 2.05-.39 2.81-1.18c.76-.79 1.14-1.75 1.14-2.87.01-1.12-.38-2.08-1.14-2.87zM355.45 124.95c.51.6 1.21.9 2.08.9.88 0 1.57-.3 2.08-.9.51-.6.77-1.41.77-2.43v-6.19h1.88v6.27c0 1.61-.44 2.85-1.33 3.72-.89.87-2.02 1.3-3.41 1.3s-2.52-.43-3.41-1.3-1.33-2.11-1.33-3.72v-6.27h1.89v6.19c.01 1.03.26 1.84.78 2.43zM383.48 117.79c1.08.98 1.62 2.33 1.62 4.07 0 1.74-.52 3.12-1.57 4.13-1.05 1.01-2.65 1.52-4.8 1.52h-3.71v-11.18h3.84c2 0 3.54.49 4.62 1.46zm-.29 4.12c0-2.56-1.47-3.84-4.4-3.84h-1.89v7.66h2.1c1.35 0 2.39-.32 3.11-.97.72-.64 1.08-1.59 1.08-2.85zM400.6 117.8c-.55 0-1 .11-1.35.34-.35.22-.53.56-.53 1.02s.18.8.53 1.04 1.1.5 2.25.78 2.01.67 2.59 1.17.87 1.24.87 2.22-.37 1.77-1.1 2.38c-.74.61-1.7.91-2.9.91-1.75 0-3.3-.6-4.66-1.81l1.18-1.42c1.13.98 2.3 1.47 3.52 1.47.61 0 1.09-.13 1.45-.39.36-.26.54-.61.54-1.04 0-.43-.17-.77-.5-1.01s-.92-.46-1.74-.66-1.45-.38-1.87-.54c-.43-.17-.81-.38-1.14-.65-.66-.5-.99-1.27-.99-2.3s.38-1.83 1.13-2.39 1.68-.84 2.79-.84c.71 0 1.42.12 2.13.35.7.24 1.31.57 1.82.99l-1.01 1.42c-.33-.3-.78-.54-1.34-.74-.56-.2-1.12-.3-1.67-.3z"/><path fill="#37b18c" d="M24.64 4.33 7.2 27.4h34.87z"/></svg>