<svg version="1.1" id="Ebene_1" xmlns="http://www.w3.org/2000/svg" x="0" y="0" viewBox="0 0 283.5 89.4" style="enable-background:new 0 0 283.5 89.4;" xml:space="preserve">
  <style>
    .st0{fill:#878887;}
	.st1{fill:#333366;}
  </style>
  <path class="st0" d="M14.3 72.4h2.3l4.9 10.9 4-10.9h3l4 10.9 4.9-10.9h2.2L33.9 85H31l-4-10.8L23 85h-3zM40 72.4h2.2l4.9 10.9 4-10.9h3.1l3.9 10.9L63 72.4h2.3L59.6 85h-3l-4-10.8-4 10.8h-2.9zM65.6 72.4h2.2l4.9 10.9 4-10.9h3.1l4 10.9 4.9-10.9h2.2L85.2 85h-2.9l-4.1-10.8-4 10.8h-2.9zM95.6 81.9h2.8V85h-2.8zM103.1 87.7c1.7 0 2.1-.3 2.1-1.5V72.5h2.1v14c0 1.8-1.2 2.9-3.3 2.9h-.8l-.1-1.7zm2.1-20.5h2.1v2.3h-2.1v-2.3zM111.1 80.7h2v.6c0 1.6.8 2.2 3 2.2h4.5c3.2 0 4.2-.1 4.2-2v-.1c0-1.2-.3-1.9-2.9-1.9h-6.5c-3 0-4.1-1-4.1-3.3v-.7c0-2 1.2-3.2 6.4-3.2h3.2c4.8 0 5.4 1.4 5.4 3.2v.7h-2v-.1c0-1.9-1.3-2-3.6-2H117c-3 0-3.7.3-3.7 1.7v.5c0 1 .3 1.6 2.6 1.6h5.6c3.2 0 5.3.3 5.3 3.7v.1c0 3.5-3.2 3.6-5.8 3.6h-3.9c-3.1 0-6.1 0-6.1-3.8l.1-.8zM130.4 77.5h6.9v2h-6.9zM140.9 80.7h2v.6c0 1.6.8 2.2 3 2.2h4.5c3.2 0 4.2-.1 4.2-2v-.1c0-1.2-.4-1.9-2.9-1.9h-6.5c-3 0-4.1-1-4.1-3.3v-.7c0-2 1.2-3.2 6.4-3.2h3.2c4.8 0 5.4 1.4 5.4 3.2v.7h-2v-.1c0-1.9-1.3-2-3.6-2h-3.7c-3 0-3.7.3-3.7 1.7v.5c0 1 .4 1.6 2.6 1.6h5.6c3.2 0 5.3.3 5.3 3.7v.1c0 3.5-3.2 3.6-5.8 3.6h-3.9c-3.1 0-6.1 0-6.1-3.8l.1-.8zM159.7 77.3c0-4.1 2.9-5.1 6.9-5.1h3c4 0 6.9 1 6.9 5.1v2.8c0 4.1-2.9 5.1-6.9 5.1h-3c-4 0-6.9-1-6.9-5.1v-2.8zm14.8.2c0-2.9-1.7-3.5-4.2-3.5H166c-2.5 0-4.2.6-4.2 3.5V80c0 2.9 1.7 3.5 4.2 3.5h4.3c2.5 0 4.2-.6 4.2-3.5v-2.5zM181.6 74.2h-2.7v-1.7h2.7v-1.1c0-3 1.8-4.2 4.1-4.2h4v1.7h-3.8c-1.6 0-2.2.9-2.2 2v1.6h6v1.7h-6V85h-2.1V74.2zM193.5 74.2h-2.8v-1.7h2.8v-3h2.1v3h8.4v1.7h-8.4v6.2c0 2.3.8 3.1 3.1 3.1h.7c2.8 0 3.2-.6 3.2-3.2v-.9h1.7v1.4c0 2.5-.2 4.5-4.8 4.5h-1.2c-4 0-4.9-1.9-4.9-4l.1-7.1zM209.5 81.9h2.8V85h-2.8zM218.2 77.3c0-4.6 3.2-5.1 6.3-5.1h3.5c3.9 0 5.5 1.6 5.5 4.3v.3h-2v-.3c0-2.1-1.4-2.6-3.5-2.6h-3.9c-2 0-3.9.3-3.9 3.4V80c0 2.8 1.7 3.4 4.3 3.4h3.6c2 0 3.6-.6 3.6-2.6v-.4h2v.4c0 3.2-1.6 4.4-5.5 4.4h-4.8c-1.9 0-5.3-.5-5.3-5.1l.1-2.8zM236.6 77.3c0-4.1 2.9-5.1 6.9-5.1h3c4 0 6.9 1 6.9 5.1v2.8c0 4.1-2.9 5.1-6.9 5.1h-3c-4 0-6.9-1-6.9-5.1v-2.8zm14.8.2c0-2.9-1.7-3.5-4.2-3.5h-4.3c-2.5 0-4.2.6-4.2 3.5V80c0 2.9 1.7 3.5 4.2 3.5h4.3c2.5 0 4.2-.6 4.2-3.5v-2.5zM257.1 72.4h2v1.5c.9-1.3 2.1-1.7 4.2-1.7h3.4c1.9 0 3.4.8 4.1 2.3.8-1.7 2.5-2.3 4.6-2.3h2.6c3.4 0 5.5 1.5 5.5 4.3V85h-2.1v-8.2c0-1.4-.6-2.9-4-2.9h-1.5c-3.8 0-4.3 1.6-4.3 3.6V85h-2.1v-7.6c0-2.4-.8-3.4-4.1-3.4h-2.1c-2.7 0-4 1.1-4 3.2V85h-2.1l-.1-12.6zM14.3 59.5h269.1v1.4H14.3z"/>
  <path class="st1" d="M5.7 6.3h5.8V0H5.7v6.3zM0 60.9h2.3c5.9 0 9.2-3.2 9.2-8V14.4H5.7V52c0 3.4-1.2 4.2-5.7 4.2v4.7z"/>
  <path class="st0" d="M38.7 45.8c-.3.9-2.2 1.2-5.2 1.2H22.8c-4.6 0-5.3-1.5-5.3-3.9v-1.4c0-3.3 3-3.6 3.8-3.6h1l16.4 7.7zm7.2 3.3 1.2-2.1-4.7-2.2c.1-.5.2-1 .2-1.5v-4.4h-2.9v4.7L21.8 35c-1.1-.5-1.1-1.2-1.1-2.5s.5-2.2 3-2.2H34c1.7 0 3 .6 3 2.5v1.5h3v-1.7c0-2.9-1.5-4.7-6-4.7H22.7c-3 0-5.2 1.2-5.2 4.2s.4 3.2 2.5 4.5v.1c-4.6 0-5.7 1.9-5.7 5.7 0 4.8 1.7 6.8 8.4 6.8H34c3.1 0 6.2-.3 7.6-2.2l4.3 2.1z"/>
  <path class="st1" d="M221.9 49.4h5.8l-.1-30.2H244v-4.7h-16.4v-4.2c0-3 1.7-5.5 6-5.5H244V0h-10.9c-6.3 0-11.3 3.2-11.3 11.4v3h-7.5v4.7h7.5l.1 30.3zm-14.5-14.3c0 8-4.7 9.6-11.5 9.6h-11.8c-6.8 0-11.5-1.5-11.5-9.6v-6.9c0-8 4.7-9.6 11.5-9.6h11.8c6.8 0 11.5 1.5 11.5 9.6v6.9zm-40.6.4c0 11.3 8 14 19 14h8.3c11 0 19-2.6 19-14v-7.6c0-11.3-8-14-19-14h-8.3c-11 0-19 2.6-19 14v7.6zm-47.4 3.6c0 10.3 8 10.3 16.6 10.3h10.7c7.1 0 16-.3 16-10v-.1c0-9.3-5.9-10.2-14.6-10.2h-15.3c-6.1 0-7-1.6-7-4.5v-1.3c0-3.9 1.8-4.7 10.1-4.7H146c6.4 0 9.9.1 9.9 5.4v.3h5.4v-1.8c0-4.9-1.8-8.6-14.9-8.6h-8.9c-14.3 0-17.5 3.1-17.5 8.7v2c0 6.5 3 9.2 11.2 9.2H149c6.9 0 7.9 1.8 7.9 5.1v.3c0 5.1-2.8 5.5-11.5 5.5H133c-5.9 0-8.2-1.8-8.2-6V37h-5.4v2.1zm-24.2-5.4h18.9v-5.4H95.2v5.4zm-47.3 5.4c0 10.3 8 10.3 16.6 10.3h10.7c7.1 0 16-.3 16-10v-.1c0-9.3-5.9-10.2-14.7-10.2H61.2c-6.1 0-7-1.6-7-4.5v-1.3c0-3.9 1.8-4.7 10.1-4.7h10.1c6.3 0 9.8.1 9.8 5.4v.3h5.4v-1.8c0-4.9-1.8-8.6-14.9-8.6h-8.9c-14.3 0-17.5 3.1-17.5 8.7v2c0 6.5 3 9.2 11.2 9.2h17.9c6.9 0 7.9 1.8 7.9 5.1v.3c0 5.1-2.8 5.5-11.5 5.5H61.5c-5.9 0-8.2-1.8-8.2-6V37h-5.4v2.1zM260.5 19.2h23v-4.8h-23V6.3h-5.9v8.1h-7.5v4.8h7.5v30.2h5.9"/>
</svg>