<svg xmlns="http://www.w3.org/2000/svg" id="Layer_1" data-name="Layer 1" viewBox="0 0 155.27 40.72">
  <defs>
    <style>
      .cls-1{fill:#8b8b8d}.cls-1,.cls-2,.cls-3,.cls-4{stroke-width:0}.cls-2{fill:#1e396b}.cls-3{fill:#8f98ab}.cls-4{fill:#f04e57}
    </style>
  </defs>
  <path d="M73.3 31.82c.13-.27.31-.49.53-.66.22-.17.49-.3.79-.38.3-.08.63-.12 1-.12.28 0 .55.03.83.08.28.05.52.15.74.3s.4.35.54.62c.14.26.21.61.21 1.03v3.34c0 .31.15.46.45.46.09 0 .17-.02.24-.05v.65c-.09.02-.17.03-.24.04-.07 0-.16.01-.26.01-.2 0-.35-.03-.47-.08a.559.559 0 0 1-.27-.23.774.774 0 0 1-.13-.35c-.02-.13-.03-.28-.03-.44h-.02c-.14.2-.28.38-.42.54-.14.16-.3.29-.48.4-.17.11-.37.19-.6.24-.22.06-.49.09-.8.09-.29 0-.57-.03-.82-.1s-.48-.18-.67-.33c-.19-.15-.34-.34-.45-.57s-.16-.51-.16-.82c0-.44.1-.78.29-1.03.19-.25.45-.44.77-.57s.68-.22 1.09-.27c.4-.05.81-.1 1.23-.15.16-.02.3-.04.43-.06.12-.02.22-.07.3-.13.08-.06.14-.14.19-.25.05-.11.07-.24.07-.41 0-.26-.04-.47-.13-.64-.09-.17-.2-.3-.35-.4s-.33-.16-.52-.2-.41-.05-.64-.05c-.49 0-.89.12-1.19.35-.31.23-.47.6-.49 1.12h-.77c.02-.37.1-.68.23-.95Zm3.84 1.88c-.05.09-.14.15-.28.2a3.9 3.9 0 0 1-.37.09c-.33.06-.66.11-1.01.15-.35.05-.66.11-.94.2-.28.09-.52.22-.7.38-.18.17-.27.4-.27.71 0 .2.04.37.12.52.08.15.18.28.31.39a1.581 1.581 0 0 0 .97.34c.29 0 .57-.04.84-.13s.5-.22.7-.39a1.842 1.842 0 0 0 .66-1.45v-1h-.02ZM80.14 30.85v1.09h.02c.15-.38.41-.69.78-.92.37-.23.78-.35 1.23-.35s.81.06 1.1.17c.3.11.53.27.71.48.18.21.31.46.38.76s.11.64.11 1.01v4.05h-.77v-3.93c0-.27-.02-.52-.07-.75-.05-.23-.13-.43-.26-.6-.12-.17-.29-.3-.49-.4-.21-.1-.47-.15-.77-.15s-.58.05-.82.16-.44.26-.61.45-.3.42-.39.68c-.09.26-.14.55-.15.86v3.67h-.77v-6.29h.77ZM92.25 28.43c.39 0 .74.06 1.05.19.31.13.58.3.8.52s.39.47.51.76c.12.29.18.6.18.93 0 .51-.11.96-.32 1.33s-.57.66-1.05.85v.02c.24.07.43.16.59.3.15.13.28.29.38.48.1.18.17.38.21.6.05.22.07.44.09.66 0 .14.02.3.02.49s.02.38.04.57c.02.2.05.38.1.55.05.18.11.32.2.45h-1.91c-.11-.28-.17-.61-.19-.99-.02-.38-.06-.75-.11-1.1-.07-.46-.2-.79-.42-1-.21-.21-.56-.32-1.04-.32h-1.91v3.4h-1.91v-8.71h4.69Zm-.69 3.94c.44 0 .77-.1.99-.29s.33-.51.33-.95-.11-.73-.33-.92-.55-.29-.99-.29h-2.1v2.45h2.1ZM97.41 34.99c.11.2.24.37.42.49.18.13.38.22.62.28.24.06.48.09.73.09.17 0 .35-.01.55-.04.2-.03.38-.08.55-.16.17-.08.31-.19.43-.34a.85.85 0 0 0 .17-.54c0-.24-.08-.43-.23-.57-.15-.15-.35-.27-.59-.37-.24-.1-.52-.18-.83-.26-.31-.07-.62-.15-.94-.24-.33-.08-.64-.18-.95-.3a3.17 3.17 0 0 1-.83-.46c-.24-.19-.44-.42-.59-.7s-.23-.62-.23-1.02c0-.45.1-.84.29-1.16.19-.33.44-.6.75-.82.31-.22.66-.38 1.05-.49.39-.11.78-.16 1.17-.16.46 0 .89.05 1.31.15s.79.27 1.12.49c.32.23.58.52.77.87.19.35.29.78.29 1.29h-1.85c-.02-.26-.07-.48-.16-.65-.09-.17-.22-.3-.37-.4-.15-.1-.33-.17-.53-.21-.2-.04-.42-.06-.65-.06-.15 0-.31.02-.46.05-.15.03-.3.09-.42.17s-.23.18-.31.3c-.08.12-.12.28-.12.46 0 .17.03.31.1.41.06.11.19.2.38.29.19.09.46.18.79.27.34.09.78.2 1.32.34.16.03.39.09.68.18.29.09.57.22.86.41.28.19.53.44.74.75.21.31.31.71.31 1.2 0 .4-.08.77-.23 1.11-.15.34-.38.64-.69.88-.31.25-.68.44-1.13.58-.45.14-.97.21-1.57.21-.48 0-.94-.06-1.4-.18-.45-.12-.85-.3-1.19-.55a2.63 2.63 0 0 1-.82-.96c-.2-.39-.3-.85-.29-1.39h1.85c0 .29.05.54.16.74ZM109.03 30.76c-.11-.18-.26-.34-.43-.48-.17-.14-.36-.25-.58-.32s-.44-.12-.68-.12c-.43 0-.8.08-1.1.25-.3.17-.54.39-.73.67-.19.28-.32.6-.41.96s-.13.73-.13 1.11.04.72.13 1.07c.09.35.22.66.41.93.19.28.43.5.73.66.3.17.67.25 1.1.25.59 0 1.04-.18 1.37-.54.33-.36.53-.83.6-1.41h1.85c-.05.54-.17 1.04-.38 1.48-.2.44-.47.81-.8 1.12-.33.31-.72.54-1.17.71-.45.16-.94.24-1.47.24-.67 0-1.27-.12-1.8-.35-.53-.23-.98-.55-1.35-.96s-.65-.88-.84-1.43c-.2-.55-.29-1.14-.29-1.77s.1-1.25.29-1.81c.19-.56.48-1.04.84-1.46s.81-.74 1.35-.98c.53-.24 1.13-.35 1.8-.35.48 0 .93.07 1.36.21s.81.34 1.15.6c.34.26.62.59.84.98.22.39.36.84.41 1.34h-1.85c-.03-.22-.11-.42-.22-.6ZM117.75 32.07c-.09-.17-.21-.32-.36-.43s-.32-.2-.52-.25c-.2-.05-.4-.08-.62-.08-.17 0-.34.02-.52.05-.17.04-.34.1-.48.18s-.26.2-.35.34c-.09.14-.13.31-.13.51 0 .17.04.32.13.43.09.12.19.22.32.3s.27.15.43.2c.15.05.3.1.43.13l1.02.23c.22.03.44.09.65.18.22.09.41.2.57.34.17.14.3.31.41.51.11.2.16.44.16.72 0 .34-.08.63-.23.87-.15.24-.35.44-.59.59-.24.15-.51.26-.81.32s-.6.1-.89.1c-.74 0-1.34-.17-1.8-.52s-.72-.91-.79-1.68h.77c.03.52.22.91.57 1.18s.77.4 1.29.4c.19 0 .38-.02.58-.06.2-.04.38-.11.55-.21.17-.1.31-.22.42-.37.11-.15.16-.34.16-.55 0-.19-.04-.34-.12-.47s-.18-.23-.31-.32-.28-.16-.44-.21c-.17-.06-.34-.11-.51-.15l-.99-.22c-.25-.06-.48-.14-.69-.23-.21-.09-.4-.19-.56-.32-.16-.13-.28-.28-.37-.46s-.13-.41-.13-.68c0-.32.07-.59.21-.82s.33-.41.56-.55c.23-.14.48-.24.76-.3.28-.07.56-.1.84-.1.32 0 .61.04.88.12s.51.21.72.38c.21.17.37.38.49.63s.19.55.21.89h-.77c0-.24-.06-.44-.15-.62ZM123.84 30.93c.37.18.68.42.93.72s.44.65.57 1.05.19.83.19 1.29-.06.88-.19 1.29c-.13.4-.32.75-.57 1.05s-.56.54-.93.71c-.37.17-.8.26-1.27.26s-.9-.09-1.27-.26-.68-.41-.93-.71-.44-.65-.57-1.05c-.13-.4-.2-.83-.2-1.29s.07-.88.2-1.29.32-.75.57-1.05c.25-.3.56-.54.93-.72.37-.18.79-.27 1.27-.27s.9.09 1.27.27Zm-2.24.61c-.28.15-.51.36-.69.61-.18.25-.32.54-.42.86s-.14.65-.14.98.05.66.14.98.23.61.42.86c.18.25.41.46.69.61s.6.23.96.23.69-.08.96-.23.51-.36.69-.61c.18-.25.32-.54.41-.86s.14-.65.14-.98-.05-.66-.14-.98-.23-.61-.41-.86c-.18-.25-.41-.46-.69-.61s-.6-.23-.96-.23-.69.08-.96.23ZM127.38 28.43v8.71h-.77v-8.71h.77ZM133.16 37.14v-1.13h-.02c-.2.42-.5.75-.88.97-.39.22-.81.34-1.29.34-.4 0-.74-.05-1.02-.16s-.51-.27-.68-.47c-.18-.2-.3-.45-.38-.74-.08-.29-.12-.63-.12-1v-4.08h.77v4.1c.02.57.15 1 .4 1.29.25.29.68.44 1.29.44.33 0 .62-.07.85-.21.24-.14.43-.33.59-.57.15-.24.27-.51.34-.81s.11-.62.11-.93v-3.3h.77v6.29h-.71ZM137.73 30.85v.65h-1.28v4.24c0 .25.03.45.1.59.07.14.24.22.52.24.22 0 .44-.01.66-.04v.65c-.11 0-.23 0-.34.01-.11 0-.23.01-.34.01-.51 0-.87-.1-1.07-.3-.2-.2-.3-.57-.29-1.1v-4.3h-1.1v-.65h1.1v-1.89h.77v1.89h1.28ZM139.53 28.43v1.23h-.77v-1.23h.77Zm0 2.42v6.29h-.77v-6.29h.77ZM144.85 30.93c.37.18.68.42.93.72s.44.65.57 1.05.19.83.19 1.29-.06.88-.19 1.29c-.13.4-.32.75-.57 1.05s-.56.54-.93.71c-.37.17-.8.26-1.27.26s-.9-.09-1.27-.26-.68-.41-.93-.71-.44-.65-.57-1.05c-.13-.4-.2-.83-.2-1.29s.07-.88.2-1.29.32-.75.57-1.05c.25-.3.56-.54.93-.72.37-.18.79-.27 1.27-.27s.9.09 1.27.27Zm-2.23.61c-.28.15-.51.36-.69.61-.18.25-.32.54-.42.86s-.14.65-.14.98.05.66.14.98.23.61.42.86c.18.25.41.46.69.61s.6.23.96.23.69-.08.96-.23.51-.36.69-.61c.18-.25.32-.54.41-.86s.14-.65.14-.98-.05-.66-.14-.98-.23-.61-.41-.86c-.18-.25-.41-.46-.69-.61s-.6-.23-.96-.23-.69.08-.96.23ZM148.37 30.85v1.09h.02c.15-.38.41-.69.78-.92.37-.23.78-.35 1.23-.35s.81.06 1.1.17c.3.11.53.27.71.48.18.21.31.46.38.76s.11.64.11 1.01v4.05h-.77v-3.93c0-.27-.02-.52-.07-.75-.05-.23-.13-.43-.26-.6-.12-.17-.29-.3-.49-.4-.21-.1-.47-.15-.77-.15s-.58.05-.82.16-.44.26-.61.45-.3.42-.39.68c-.09.26-.14.55-.15.86v3.67h-.77v-6.29h.77Z" class="cls-1"/>
  <path d="m62.62 19.28-8.67 1.55 1.79.7 7.17-1.36M60.96 14.11l-18.63 2.24 1.93.74 16.95-2.21" class="cls-4"/>
  <path d="m59.67 10.07-29.22 1.69 11.88 4.59 18.63-2.24-1.29-4.04zM62.06 17.52l-.85-2.64-16.95 2.21 9.69 3.74 8.67-1.55-.56-1.76zM55.74 21.53l8.68 3.35-1.51-4.71-7.17 1.36z" class="cls-2"/>
  <path d="m22.02 12.25-5.71 7.22 26.02-3.12-11.88-4.59-8.43.49zM15.23 20.87l-6.14 8.01 44.86-8.05-9.69-3.74-29.03 3.78zM7.74 30.63 0 40.72l64.42-15.84-8.68-3.35-48 9.1z" class="cls-3"/>
  <path d="m0 0 30.45 11.76 29.22-1.69L0 0z" class="cls-4"/>
  <path d="M76.3 12.48v2.31h.05c.16-.39.38-.74.65-1.07.27-.33.59-.61.94-.84.35-.23.73-.41 1.13-.54.4-.13.82-.19 1.25-.19.22 0 .47.04.75.12v3.18c-.16-.03-.35-.06-.58-.09-.22-.02-.44-.04-.65-.04-.63 0-1.16.1-1.59.31-.43.21-.78.49-1.05.85s-.45.78-.57 1.26c-.11.48-.17 1-.17 1.57v5.61h-3.42V12.47h3.25ZM88.98 15.39c-.41-.45-1.03-.67-1.87-.67-.55 0-1 .09-1.36.28-.36.18-.65.41-.87.69-.22.27-.37.56-.46.87-.09.3-.14.58-.16.82h5.56c-.16-.87-.45-1.53-.86-1.97Zm-3.87 6.55c.51.5 1.25.75 2.22.75.69 0 1.28-.17 1.78-.52s.8-.71.91-1.1h3.01c-.48 1.49-1.22 2.56-2.21 3.2-1 .64-2.2.96-3.61.96-.98 0-1.86-.16-2.65-.47-.79-.31-1.45-.76-2-1.34a5.88 5.88 0 0 1-1.26-2.07c-.3-.8-.45-1.69-.45-2.65s.15-1.8.46-2.6c.31-.8.74-1.5 1.3-2.08a6.08 6.08 0 0 1 2.01-1.39c.78-.34 1.64-.51 2.59-.51 1.06 0 1.98.21 2.77.61.79.41 1.43.96 1.94 1.65s.87 1.48 1.1 2.36c.23.88.31 1.81.24 2.77h-8.98c.05 1.11.33 1.91.84 2.41ZM96.91 24.93l-4.26-12.45h3.59l2.62 8.5h.05l2.63-8.5h3.39l-4.21 12.45h-3.81zM118.88 12.48v2.29h-2.5v6.17c0 .58.1.96.29 1.16.19.19.58.29 1.16.29.19 0 .38 0 .55-.02.18-.02.34-.04.5-.07v2.65c-.29.05-.61.08-.96.1-.35.01-.7.02-1.04.02-.53 0-1.03-.04-1.51-.11-.47-.07-.89-.21-1.25-.42s-.65-.5-.85-.89c-.21-.39-.31-.89-.31-1.52v-7.35h-2.07v-2.29h2.07V8.76h3.42v3.73h2.5ZM123.28 12.48v2.31h.05c.16-.39.38-.74.65-1.07.27-.33.59-.61.94-.84.35-.23.73-.41 1.13-.54.4-.13.82-.19 1.25-.19.22 0 .47.04.75.12v3.18c-.16-.03-.35-.06-.58-.09-.22-.02-.44-.04-.65-.04-.63 0-1.16.1-1.59.31-.43.21-.78.49-1.05.85s-.45.78-.57 1.26c-.11.48-.17 1-.17 1.57v5.61h-3.42V12.47h3.25ZM136.19 18.84c-.14.13-.33.23-.54.3-.22.07-.45.13-.7.18-.25.05-.51.09-.78.12s-.55.07-.82.12c-.26.05-.51.11-.76.19s-.47.19-.65.32c-.19.14-.33.31-.45.52-.11.21-.17.47-.17.8s.06.56.17.77c.11.21.26.37.46.49.19.12.42.2.68.25.26.05.52.07.79.07.67 0 1.2-.11 1.57-.34.37-.23.64-.49.82-.81.18-.31.28-.63.33-.95.04-.32.06-.58.06-.77v-1.28Zm-7.9-2.53c.05-.8.25-1.47.6-2s.8-.95 1.35-1.28c.55-.32 1.16-.55 1.84-.69.68-.14 1.37-.21 2.06-.21.63 0 1.26.05 1.9.13.64.09 1.23.26 1.76.52s.96.61 1.3 1.07c.34.46.51 1.06.51 1.82v6.48c0 .56.03 1.1.1 1.61s.18.9.34 1.16h-3.47c-.06-.19-.12-.39-.16-.59-.04-.2-.07-.41-.08-.61-.55.56-1.19.96-1.93 1.18-.74.22-1.49.34-2.26.34-.59 0-1.15-.07-1.66-.22-.51-.14-.96-.37-1.35-.67-.39-.31-.69-.69-.9-1.16-.22-.47-.33-1.02-.33-1.66 0-.71.12-1.29.37-1.75.25-.46.57-.82.96-1.1.39-.27.84-.48 1.35-.61.51-.14 1.02-.24 1.53-.32.51-.08 1.02-.15 1.52-.19.5-.05.94-.12 1.32-.22.39-.1.69-.24.92-.42.22-.19.33-.45.31-.81 0-.37-.06-.66-.18-.88-.12-.22-.28-.39-.48-.51-.2-.12-.43-.2-.7-.24-.27-.04-.55-.06-.86-.06-.67 0-1.2.14-1.59.43-.39.29-.61.77-.67 1.44h-3.42ZM146.76 14.72c-.55 0-1 .12-1.37.37-.37.25-.67.57-.9.96-.23.39-.4.83-.49 1.3a6.998 6.998 0 0 0 0 2.78c.1.47.25.89.47 1.26.22.38.51.69.88.93.37.24.82.36 1.35.36.82 0 1.45-.23 1.89-.69.44-.46.72-1.07.83-1.84h3.3c-.22 1.65-.87 2.91-1.93 3.78-1.06.87-2.42 1.3-4.07 1.3-.93 0-1.79-.16-2.56-.47-.78-.31-1.44-.75-1.99-1.31s-.97-1.23-1.28-2.01c-.31-.78-.46-1.63-.46-2.56s.14-1.86.42-2.69c.28-.83.69-1.54 1.24-2.14.55-.6 1.21-1.07 2-1.41.79-.34 1.69-.51 2.7-.51.74 0 1.45.1 2.13.29.68.19 1.29.49 1.83.88s.97.88 1.31 1.47c.34.59.53 1.28.58 2.08h-3.35c-.22-1.43-1.07-2.14-2.53-2.14Z" class="cls-2"/>
  <path fill="#f0575f" stroke-width="0" d="M110.9 20.3v-3.49h-5.27l-1.19 3.49h6.46z"/>
  <path d="M153.98 11.6h.13c.04 0 .08-.01.11-.03.03-.02.06-.04.07-.07.02-.03.03-.07.03-.13 0-.04-.01-.08-.03-.11a.156.156 0 0 0-.08-.06l-.1-.03H153.71v.43h.27Zm-.27.84h-.24v-1.48h.56c.18 0 .31.03.4.1.09.07.14.18.14.32 0 .13-.04.23-.11.29-.07.06-.17.1-.27.11l.41.65h-.27l-.38-.63h-.23v.63Zm1.28-.76c0-.16-.03-.31-.08-.45a.907.907 0 0 0-.22-.35c-.09-.1-.2-.17-.32-.23-.12-.05-.26-.08-.4-.08s-.28.03-.4.08-.23.13-.33.23c-.09.1-.16.21-.22.35-.05.14-.08.28-.08.45 0 .15.02.3.07.43s.12.25.2.35c.09.1.2.18.32.24a1.057 1.057 0 0 0 .83.01c.12-.05.23-.13.32-.23s.17-.21.22-.35c.05-.13.08-.28.08-.45Zm.28 0c0 .2-.03.38-.1.55-.07.16-.17.3-.29.42-.12.12-.26.21-.42.27-.16.06-.32.1-.5.1a1.317 1.317 0 0 1-.95-.38c-.11-.12-.21-.26-.27-.42-.06-.16-.1-.34-.1-.53 0-.2.04-.38.11-.55.07-.16.16-.3.29-.42.12-.12.26-.21.42-.27.16-.06.33-.1.5-.1s.34.03.5.1c.16.06.3.15.42.27.12.12.21.26.29.42.07.16.1.35.1.55Z" class="cls-2"/>
</svg>