<?xml version="1.0" encoding="utf-8"?>
<!-- Generator: Adobe Illustrator 23.0.3, SVG Export Plug-In . SVG Version: 6.00 Build 0)  -->
<svg version="1.1" id="Ebene_1" xmlns="http://www.w3.org/2000/svg" xmlns:xlink="http://www.w3.org/1999/xlink" x="0px" y="0px"
	 viewBox="0 0 600 122.03" style="enable-background:new 0 0 600 122.03;" xml:space="preserve">
<style type="text/css">
	.st0{fill:#646363;}
</style>
<g>
	<path class="st0" d="M72.94,11.87h30.03V69.9c0,5.76-0.9,11.19-2.69,16.3c-1.8,5.11-4.61,9.58-8.44,13.41
		c-3.83,3.83-7.85,6.51-12.06,8.07c-5.85,2.17-12.87,3.25-21.06,3.25c-4.74,0-9.91-0.33-15.52-0.99c-5.6-0.66-10.29-1.98-14.05-3.95
		c-3.77-1.97-7.21-4.77-10.33-8.4c-3.12-3.63-5.26-7.37-6.41-11.22c-1.86-6.2-2.79-11.69-2.79-16.47V11.87h30.03v59.41
		c0,5.31,1.47,9.46,4.42,12.45c2.95,2.99,7.03,4.48,12.26,4.48c5.18,0,9.25-1.47,12.19-4.42c2.95-2.94,4.42-7.11,4.42-12.51V11.87z"
		/>
	<path class="st0" d="M123.11,11.87h28.11l36.68,53.89V11.87h28.37v97.4h-28.37l-36.48-53.48v53.48h-28.3V11.87z"/>
	<path class="st0" d="M237.46,11.87h30.16v97.4h-30.16V11.87z"/>
	<path class="st0" d="M281.35,60.64c0-15.9,4.43-28.28,13.29-37.14c8.86-8.86,21.2-13.29,37.01-13.29c16.21,0,28.7,4.35,37.47,13.06
		c8.77,8.7,13.16,20.9,13.16,36.58c0,11.39-1.91,20.72-5.75,28.01s-9.37,12.95-16.61,17.01c-7.24,4.05-16.27,6.08-27.08,6.08
		c-10.99,0-20.08-1.75-27.27-5.25c-7.2-3.5-13.04-9.04-17.51-16.61C283.58,81.5,281.35,72.02,281.35,60.64z M311.44,60.77
		c0,9.83,1.83,16.9,5.48,21.19c3.66,4.3,8.63,6.45,14.92,6.45c6.47,0,11.47-2.1,15.02-6.31c3.54-4.21,5.31-11.76,5.31-22.66
		c0-9.17-1.85-15.87-5.55-20.1c-3.7-4.23-8.72-6.35-15.05-6.35c-6.07,0-10.94,2.15-14.62,6.44
		C313.28,43.74,311.44,50.85,311.44,60.77z"/>
	<path class="st0" d="M394.8,109.27v-97.4h50.16c9.3,0,16.41,0.8,21.33,2.39s8.88,4.55,11.89,8.87c3.01,4.32,4.52,9.58,4.52,15.78
		c0,5.41-1.15,10.07-3.46,13.99c-2.31,3.92-5.47,7.1-9.51,9.54c-2.57,1.55-6.09,2.83-10.57,3.85c3.58,1.2,6.2,2.4,7.84,3.59
		c1.11,0.8,2.71,2.51,4.81,5.12c2.1,2.62,3.51,4.63,4.22,6.05l14.57,28.23H456.6l-16.09-29.77c-2.04-3.85-3.85-6.36-5.45-7.51
		c-2.17-1.51-4.63-2.26-7.38-2.26h-2.66v39.54H394.8z M425.03,51.34h12.69c1.37,0,4.03-0.44,7.97-1.33c1.99-0.4,3.62-1.42,4.88-3.06
		c1.26-1.64,1.89-3.52,1.89-5.65c0-3.14-0.99-5.56-2.99-7.24c-1.99-1.68-5.74-2.52-11.23-2.52h-13.22V51.34z"/>
	<path class="st0" d="M545.26,73.99V53.73h46.51v41.52c-8.9,6.07-16.78,10.2-23.62,12.39c-6.85,2.19-14.96,3.29-24.35,3.29
		c-11.56,0-20.99-1.97-28.27-5.91c-7.29-3.94-12.94-9.81-16.94-17.61c-4.01-7.8-6.01-16.74-6.01-26.84
		c0-10.63,2.19-19.88,6.58-27.74c4.38-7.86,10.8-13.83,19.26-17.91c6.6-3.15,15.48-4.72,26.65-4.72c10.76,0,18.82,0.98,24.15,2.92
		c5.34,1.95,9.77,4.97,13.29,9.07c3.52,4.1,6.17,9.29,7.94,15.58l-29.03,5.18c-1.2-3.68-3.22-6.49-6.08-8.44
		c-2.86-1.95-6.5-2.92-10.93-2.92c-6.6,0-11.86,2.29-15.78,6.87c-3.92,4.59-5.88,11.84-5.88,21.76c0,10.54,1.98,18.07,5.95,22.59
		c3.96,4.52,9.49,6.78,16.57,6.78c3.37,0,6.58-0.49,9.64-1.46c3.06-0.97,6.55-2.64,10.5-4.98v-9.17H545.26z"/>
</g>
</svg>
