<svg xmlns="http://www.w3.org/2000/svg" width="44" height="33.976" viewBox="0 0 44 33.976">
    <path id="prefix__Path_35" d="M-664.257-249.053a2.394 2.394 0 0 0-1.966-.845h-38.428a2.613 2.613 0 0 0-1.966.761 2.791 2.791 0 0 0-.819 2.028v28.309a2.843 2.843 0 0 0 .819 2.028 2.622 2.622 0 0 0 1.966.845h38.428a2.674 2.674 0 0 0 1.966-.845 2.741 2.741 0 0 0 .819-1.944v-28.314a2.843 2.843 0 0 0-.819-2.023zm-4.67 2.028L-685.4-232.91l-16.551-14.115zm2.7 26.792l-11.471-12-1.475 1.606 11.635 11.832h-35.806l11.717-11.832-1.639-1.606-11.389 12v-25.44l19.255 15.551 19.173-15.551z" data-name="Path 35" transform="translate(707.438 249.898)" style="fill:#fff"/>
</svg>
