<?xml version="1.0" encoding="UTF-8" standalone="no"?>
<svg
   xmlns:dc="http://purl.org/dc/elements/1.1/"
   xmlns:cc="http://creativecommons.org/ns#"
   xmlns:rdf="http://www.w3.org/1999/02/22-rdf-syntax-ns#"
   xmlns:svg="http://www.w3.org/2000/svg"
   xmlns="http://www.w3.org/2000/svg"
   viewBox="0 0 205.33333 62.666668"
   height="62.666668"
   width="205.33333"
   xml:space="preserve"
   id="svg2"
   version="1.1"><metadata
     id="metadata8"><rdf:RDF><cc:Work
         rdf:about=""><dc:format>image/svg+xml</dc:format><dc:type
           rdf:resource="http://purl.org/dc/dcmitype/StillImage" /></cc:Work></rdf:RDF></metadata><defs
     id="defs6" /><g
     transform="matrix(1.3333333,0,0,-1.3333333,0,62.666667)"
     id="g10"><g
       transform="scale(0.1)"
       id="g12"><path
         id="path14"
         style="fill:#e65917;fill-opacity:1;fill-rule:nonzero;stroke:none"
         d="m 386.316,121.168 c 0,7.695 -0.675,9.316 -12.019,9.316 v 4.321 h 23.094 V 47.7031 c 0,-7.6953 0.539,-9.4531 12.019,-9.4531 v -4.3203 c -5.808,0.1367 -11.613,0.2734 -17.555,0.2734 -5.945,0 -11.75,-0.1367 -17.558,-0.2734 V 38.25 c 11.344,0 12.019,1.6211 12.019,9.3203 v 73.5977" /><path
         id="path16"
         style="fill:#e65917;fill-opacity:1;fill-rule:nonzero;stroke:none"
         d="m 434.672,65.3945 c 0,-12.2851 0.133,-27.9531 17.285,-27.9531 14.18,0 14.449,9.5899 16.07,15.9375 0,2.1602 2.161,2.1602 4.59,2.1602 1.891,0 4.321,0 4.184,-2.2969 -2.156,-14.5859 -12.692,-20.3906 -26.738,-20.3906 -22.821,0 -27.547,15.9336 -27.547,36.3242 0,18.6367 10.668,29.168 29.035,29.168 20.66,0 27.277,-13.3672 26.332,-32.9493 z m 30.922,4.5938 c 0.676,12.0156 -1.891,24.0351 -15.395,24.0351 -13.504,0 -15.801,-12.289 -15.527,-24.0351 h 30.922" /><path
         id="path18"
         style="fill:#e65917;fill-opacity:1;fill-rule:nonzero;stroke:none"
         d="M 511.309,91.8633 V 52.9727 c 0,-6.4805 0.406,-14.8555 8.914,-14.8555 2.297,0 4.32,0.543 6.48,1.3516 l 2.297,1.082 1.621,-3.7813 c -4.051,-2.0273 -10.805,-3.9179 -15.933,-3.9179 -13.911,0 -14.45,9.7226 -14.45,20.7968 v 38.2149 h -10.535 v 5.1328 h 10.535 v 18.2309 l 11.071,4.726 V 96.9961 h 15.261 v -5.1328 h -15.261" /><path
         id="path20"
         style="fill:#e65917;fill-opacity:1;fill-rule:nonzero;stroke:none"
         d="m 583.949,80.9258 c -4.457,10.9375 -3.781,12.289 -14.449,12.289 v 4.0508 c 5.402,-0.1328 10.668,-0.1328 16.07,-0.2695 5.266,0.1367 10.668,0.1367 15.934,0.2695 v -4.0508 c -2.43,-0.2695 -8.102,0 -8.375,-3.6445 -0.133,-0.6758 0.137,-1.4844 0.406,-2.4336 l 15.938,-44.0195 14.851,42.2656 c 0.543,1.2149 0.813,2.2969 0.813,3.1055 0.269,5.2656 -6.891,4.7265 -10.129,4.7265 v 4.0508 c 4.187,-0.1328 8.238,-0.1328 12.422,-0.2695 4.05,0.1367 8.238,0.1367 12.289,0.2695 v -4.0508 c -6.617,-0.539 -7.965,-4.1875 -11.207,-12.8281 L 610.551,34.6094 c -4.863,-12.6953 -9.86,-34.167994 -27.414,-34.167994 -4.86,0 -9.856,1.757814 -10.938,7.699224 -0.269,1.48437 0.406,4.05077 1.485,4.72657 6.347,4.0508 8.781,-4.32423 14.179,-5.40236 9.723,-1.89062 15.395,20.52736 17.555,26.73826 h -4.32 l -17.149,46.7227" /><path
         id="path22"
         style="fill:#e65917;fill-opacity:1;fill-rule:nonzero;stroke:none"
         d="m 708.105,65.668 c 0,-20.5274 -7.292,-32.6797 -30.656,-32.8125 -23.363,0.1328 -30.652,12.2851 -30.652,32.8125 0,22.2812 9.586,32.6797 30.652,32.6797 21.067,0 30.656,-10.3985 30.656,-32.6797 z m -49.156,0 c 0,-13.9102 0.809,-28.2227 18.5,-28.2227 17.692,0 18.5,14.3125 18.5,28.2227 0,13.7734 -0.808,28.0898 -18.5,28.0898 -17.691,0 -18.5,-14.3164 -18.5,-28.0898" /><path
         id="path24"
         style="fill:#e65917;fill-opacity:1;fill-rule:nonzero;stroke:none"
         d="m 773.344,41.7656 c -4.184,-5.4023 -14.313,-8.9101 -20.93,-8.9101 -12.152,0 -20.258,3.6445 -20.258,17.0117 v 33.625 c 0,7.6992 -0.539,9.4531 -12.015,9.4531 v 4.0508 H 743.23 V 57.0273 c 0,-10.6679 0.813,-18.5039 13.641,-18.5039 15.664,0 16.473,10.5352 16.473,23.0938 v 21.875 c 0,7.4297 -0.539,9.4531 -11.344,9.4531 v 4.0508 h 22.418 V 47.707 c 0,-7.6953 0.543,-9.4531 12.02,-9.4531 v -4.3203 c -4.188,0.1367 -8.102,0.1367 -12.153,0.2695 -3.648,-0.1328 -7.293,-0.1328 -10.941,-0.2695 v 7.832" /><path
         id="path26"
         style="fill:#e65917;fill-opacity:1;fill-rule:nonzero;stroke:none"
         d="m 827.102,90.3789 c 3.375,4.5938 7.832,7.9688 13.64,7.9688 7.156,0 12.153,-3.7813 12.153,-11.3438 -0.27,-4.457 0.136,-7.293 -5.266,-7.1562 -4.996,-0.1368 -4.727,2.6992 -4.996,6.4843 -0.27,3.5078 -2.16,5.668 -5.672,5.668 -8.102,0 -9.184,-10.5312 -9.184,-16.2031 V 47.8438 c 0,-8.3711 0.809,-9.5899 13.235,-9.5899 v -4.3203 c -7.024,0.1367 -12.828,0.1367 -18.77,0.2695 -5.945,-0.1328 -11.75,-0.1328 -17.554,-0.2695 v 4.3203 c 10.937,0.2695 12.015,1.3516 12.015,9.5899 v 35.5156 c 0,8.6406 -0.945,9.1836 -12.015,9.5859 v 4.0508 h 22.414 v -6.6172" /><path
         id="path28"
         style="fill:#e65917;fill-opacity:1;fill-rule:nonzero;stroke:none"
         d="m 928.422,44.1953 17.828,52.8008 h 9.449 L 971.094,43.6563 983.52,85.25 c 0.406,1.3516 0.675,2.5664 0.539,3.5078 -0.27,4.461 -6.348,3.5117 -9.317,4.3242 v 4.1875 c 4.321,-0.1367 8.778,-0.1367 13.098,-0.2734 4.32,0.1367 8.644,0.1367 12.96,0.2734 V 93.082 C 992.297,92 991.488,89.9766 988.648,81.7383 L 972.176,34.2031 h -9.723 L 947.465,84.9805 930.043,34.2031 h -9.992 l -10.399,34.5703 c -7.293,24.0391 -6.484,23.0938 -16.746,24.1719 v 4.3242 c 5.403,-0.1367 10.668,-0.1367 16.071,-0.2734 5.265,0.1367 10.668,0.1367 15.933,0.2734 V 93.082 c -7.156,-0.4062 -8.777,-0.9453 -9.047,-4.457 0,-3.7812 2.028,-10.3984 2.969,-13.9102 l 9.59,-30.5195" /><path
         id="path30"
         style="fill:#e65917;fill-opacity:1;fill-rule:nonzero;stroke:none"
         d="m 1071.81,65.668 c 0,-20.5274 -7.29,-32.6758 -30.65,-32.8125 -23.36,0.1367 -30.66,12.2851 -30.66,32.8125 0,22.2851 9.59,32.6797 30.66,32.6797 21.06,0 30.65,-10.3946 30.65,-32.6797 z m -49.15,0 c 0,-13.9063 0.8,-28.2227 18.5,-28.2227 17.69,0 18.5,14.3164 18.5,28.2227 0,13.7773 -0.81,28.0898 -18.5,28.0898 -17.7,0 -18.5,-14.3125 -18.5,-28.0898" /><path
         id="path32"
         style="fill:#e65917;fill-opacity:1;fill-rule:nonzero;stroke:none"
         d="m 1105.72,90.3828 c 3.38,4.5899 7.83,7.9649 13.64,7.9649 7.16,0 12.16,-3.7813 12.16,-11.3438 -0.27,-4.457 0.13,-7.2891 -5.27,-7.1562 -5,-0.1329 -4.73,2.6992 -5,6.4843 -0.27,3.5118 -2.16,5.668 -5.67,5.668 -8.1,0 -9.18,-10.5312 -9.18,-16.2031 V 47.8438 c 0,-8.3711 0.81,-9.5899 13.23,-9.5899 v -4.3203 c -7.02,0.1367 -12.83,0.1367 -18.77,0.2695 -5.94,-0.1328 -11.75,-0.1328 -17.56,-0.2695 v 4.3203 c 10.94,0.2734 12.02,1.3516 12.02,9.5899 v 35.5156 c 0,8.6406 -0.94,9.1836 -12.02,9.5898 V 97 h 22.42 v -6.6172" /><path
         id="path34"
         style="fill:#e65917;fill-opacity:1;fill-rule:nonzero;stroke:none"
         d="m 1162.45,70.5313 c 5.94,5.4023 14.18,11.8828 17.96,19.1757 1.08,2.0235 2.7,4.8594 2.29,7.293 h 22.56 v -3.6484 c -15.13,0.2695 -18.91,-6.4805 -33.09,-20.3907 l 18.37,-19.8515 c 12.15,-13.0977 14.58,-14.7188 20.66,-14.7188 v -4.457 c -3.24,0.1367 -6.62,0.1367 -9.86,0.2695 -3.24,-0.1328 -6.62,-0.1328 -9.86,-0.2695 -9.72,12.1562 -18.36,22.8242 -29.03,32.1406 V 47.707 c 0,-7.6953 0.54,-9.4531 12.02,-9.4531 v -4.3203 c -5.81,0.1367 -11.62,0.1367 -17.56,0.2695 -5.94,-0.1328 -11.75,-0.1328 -17.55,-0.2695 v 4.3203 c 11.48,0.2734 12.02,2.1641 12.02,9.4531 v 73.328 c 0,8.508 -0.95,9.047 -12.02,9.453 v 4.321 h 23.09 V 70.5313" /><path
         id="path36"
         style="fill:#e65917;fill-opacity:1;fill-rule:nonzero;stroke:none"
         d="m 1291.62,97 v -5.1328 h -16.34 v -44.293 c 0,-8.1015 0.94,-9.3164 12.96,-9.3164 v -4.3203 c -6.75,0.1328 -12.56,0.1328 -18.5,0.2695 -5.94,-0.1367 -11.75,-0.1367 -17.55,-0.2695 v 4.3203 c 9.85,0.6719 12.01,-0.1367 12.01,9.3164 v 44.293 h -11.61 V 97 h 11.61 v 16.609 c 0,12.696 6.62,21.2 19.85,21.2 8.24,0 14.18,-2.563 15.4,-11.477 0,-1.891 0.54,-5.402 -2.97,-4.859 h -4.86 c -3.24,-0.543 -2.7,2.699 -2.43,4.32 -0.14,0.27 0.67,8.102 -6.08,7.832 -8.51,-0.539 -7.83,-8.777 -7.83,-13.371 V 97 h 16.34" /><path
         id="path38"
         style="fill:#e65917;fill-opacity:1;fill-rule:nonzero;stroke:none"
         d="m 1319.24,121.172 c 0,7.699 -0.68,9.32 -12.02,9.32 v 4.317 h 23.09 V 47.7109 c 0,-7.6992 0.54,-9.4531 12.02,-9.4531 v -4.3203 c -5.81,0.1328 -11.61,0.2695 -17.55,0.2695 -5.95,0 -11.75,-0.1367 -17.56,-0.2695 v 4.3203 c 11.34,0 12.02,1.6211 12.02,9.3164 v 73.5978" /><path
         id="path40"
         style="fill:#e65917;fill-opacity:1;fill-rule:nonzero;stroke:none"
         d="m 1417.29,65.6719 c 0,-20.5274 -7.29,-32.6797 -30.66,-32.8164 -23.36,0.1367 -30.65,12.289 -30.65,32.8164 0,22.2812 9.59,32.6797 30.65,32.6797 21.07,0 30.66,-10.3985 30.66,-32.6797 z m -49.15,0 c 0,-13.9102 0.81,-28.2227 18.49,-28.2227 17.7,0 18.51,14.3125 18.51,28.2227 0,13.7734 -0.81,28.0859 -18.51,28.0859 -17.68,0 -18.49,-14.3125 -18.49,-28.0859" /><path
         id="path42"
         style="fill:#e65917;fill-opacity:1;fill-rule:nonzero;stroke:none"
         d="M 1462.24,44.2031 1480.06,97 h 9.46 l 15.39,-53.3398 12.43,41.5937 c 0.4,1.3516 0.67,2.5664 0.54,3.5117 -0.27,4.4571 -6.35,3.5078 -9.32,4.3203 v 4.1836 c 4.32,-0.1328 8.78,-0.1328 13.1,-0.2695 4.32,0.1367 8.64,0.1367 12.96,0.2695 v -4.1836 c -8.51,-1.082 -9.32,-3.1054 -12.16,-11.3437 L 1505.99,34.207 h -9.72 l -14.99,50.7774 -17.42,-50.7774 h -9.99 l -10.4,34.5703 c -7.29,24.0391 -6.49,23.0938 -16.75,24.1719 v 4.3203 c 5.41,-0.1328 10.67,-0.1328 16.07,-0.2695 5.27,0.1367 10.67,0.1367 15.94,0.2695 v -4.1836 c -7.16,-0.4062 -8.78,-0.9453 -9.05,-4.457 0,-3.7812 2.03,-10.3984 2.97,-13.9101 l 9.59,-30.5157" /><path
         id="path44"
         style="fill:#231f20;fill-opacity:1;fill-rule:nonzero;stroke:none"
         d="m 519.672,239.449 v -43.633 c -22.746,-11.562 -43.258,-14.543 -68.617,-14.543 -64.145,0 -81.297,30.95 -81.297,91.364 0,58.922 21.258,89.504 83.16,89.504 18.273,0 52.957,-3.356 66.754,-17.157 v -39.527 h -19.391 c -2.613,17.898 2.239,44.75 -42.511,44.75 -49.973,0 -54.821,-36.547 -54.821,-77.57 0,-41.02 4.473,-79.43 55.192,-79.43 41.394,0 39.156,18.273 42.886,46.242 h 18.645" /><path
         id="path46"
         style="fill:#231f20;fill-opacity:1;fill-rule:nonzero;stroke:none"
         d="m 609.844,222.293 c 0,-21.254 1.492,-26.105 33.191,-26.105 V 184.254 C 627,184.629 610.961,185 594.555,185 c -16.41,0 -32.446,-0.371 -48.481,-0.746 v 11.934 c 31.699,0 33.192,4.851 33.192,26.105 v 98.082 c 0,24.238 -3.356,24.238 -33.192,26.477 v 11.558 h 63.77 z M 572.18,423.301 c 0,13.797 7.832,24.613 20.883,24.613 13.054,0 20.886,-10.816 20.886,-24.613 0,-13.801 -7.832,-24.613 -20.886,-24.613 -13.051,0 -20.883,10.812 -20.883,24.613" /><path
         id="path48"
         style="fill:#231f20;fill-opacity:1;fill-rule:nonzero;stroke:none"
         d="m 719.363,337.527 c 17.528,17.903 35.055,24.614 59.297,24.614 19.02,0 36.172,-2.985 49.227,-27.969 14.914,19.391 35.801,27.969 60.039,27.969 39.531,0 52.582,-16.782 52.582,-54.075 v -85.402 c 0,-21.254 1.121,-26.476 32.074,-26.476 v -11.934 c -14.918,0.375 -30.953,0.375 -47.363,0.746 -16.406,-0.371 -32.446,-0.371 -45.496,-0.746 v 11.934 c 26.851,0.375 30.578,5.593 30.207,26.476 v 77.57 c 0,24.985 -4.477,45.496 -34.309,45.496 -35.43,0 -44.754,-19.765 -44.754,-51.835 v -71.231 c 0,-20.137 1.492,-26.476 29.465,-26.476 v -11.934 c -12.309,0.375 -28.344,0.375 -44.754,0.746 -16.406,-0.371 -32.445,-0.371 -45.121,-0.746 v 11.934 c 27.969,0.375 30.203,6.714 29.832,26.476 v 73.469 c 0,26.851 -1.117,51.09 -34.684,49.972 -38.41,-1.492 -44.375,-22.375 -44.375,-54.82 v -68.621 c 0,-20.137 1.118,-26.476 30.208,-26.476 v -11.934 c -13.055,0.375 -29.09,0.375 -45.497,0.746 -16.41,-0.371 -32.445,-0.371 -47.734,-0.746 v 11.934 c 29.832,0 32.816,5.968 32.441,26.476 v 98.453 c 0,23.496 -2.609,25.36 -32.441,26.481 v 10.812 h 61.156 v -20.883" /><path
         id="path50"
         style="fill:#231f20;fill-opacity:1;fill-rule:nonzero;stroke:none"
         d="M 1031.25,344.242 V 236.84 c 0,-17.902 1.12,-41.024 24.62,-41.024 6.34,0 11.93,1.493 17.9,3.727 l 6.34,2.984 4.47,-10.441 c -11.19,-5.594 -29.83,-10.813 -44,-10.813 -38.42,0 -39.91,26.848 -39.91,57.43 v 105.539 h -29.084 v 14.168 h 29.084 v 50.344 l 30.58,13.055 V 358.41 h 42.14 v -14.168 h -42.14" /><path
         id="path52"
         style="fill:#e65917;fill-opacity:1;fill-rule:nonzero;stroke:none"
         d="m 280.082,409.594 c 2.875,0 5.731,-0.078 8.574,-0.223 -30.289,33.024 -73.781,53.738 -122.121,53.738 -10.722,0 -21.191,-1.054 -31.344,-3 -26.699,-29.414 -42.9722,-68.468 -42.9722,-111.32 0,-31.047 8.5582,-60.086 23.4182,-84.922 9.863,82.082 79.699,145.727 164.445,145.727 v 0" /><path
         id="path54"
         style="fill:#e65917;fill-opacity:1;fill-rule:nonzero;stroke:none"
         d="m 12.7734,340.277 c -1.4375,2.493 -2.80074,5.004 -4.09762,7.536 -13.45312,-42.743 -9.64453,-90.762 14.52342,-132.625 5.3594,-9.286 11.5117,-17.825 18.2735,-25.649 38.8242,-8.414 80.7773,-2.98 117.8903,18.445 26.887,15.524 47.754,37.457 61.836,62.743 -76.019,-32.5 -166.0506,-3.84 -208.4256,69.55 v 0" /><path
         id="path56"
         style="fill:#e65917;fill-opacity:1;fill-rule:nonzero;stroke:none"
         d="m 206.457,143.441 c -1.437,-2.492 -2.934,-4.929 -4.48,-7.316 43.746,9.719 83.429,37.027 107.597,78.891 5.364,9.285 9.684,18.879 13.074,28.648 -12.121,37.828 -37.804,71.445 -74.918,92.871 -26.886,15.524 -56.316,22.633 -85.253,22.18 66.156,-49.582 86.351,-141.883 43.98,-215.274 v 0" /></g></g></svg>