<svg height="1000pt" preserveAspectRatio="xMidYMid meet" viewBox="0 0 1000 1000" width="1000pt" xmlns="http://www.w3.org/2000/svg"><path d="m4890 9992c0-20 42-129 66-171 159-277 492-564 1069-921 365-226 711-479 970-709 124-111 409-408 500-521 325-406 525-833 574-1225 16-129 6-404-18-513-62-281-197-535-386-727-228-232-505-359-761-349-143 6-301 72-386 161l-28 29 82 79c195 191 317 389 376 610 22 83 40 245 28 245-4 0-31-15-59-34-144-93-391-219-454-232l-31-6 35 86c42 105 76 238 99 383 23 143 27 482 8 618-7 55-13 105-14 110 0 6-17-16-39-48-140-211-454-473-739-617-48-23-59-22-44 7 14 26 58 184 72 258 31 168 34 400 6 534-22 106-65 243-74 237-4-3-9-21-10-41-4-57-59-197-113-286-123-205-333-415-604-604-210-146-387-247-765-433-146-72-314-162-375-200-368-233-586-465-672-715-25-73-28-96-28-207 0-105 4-136 23-192 13-37 27-70 32-73s31 11 57 31c189 146 453 172 714 73 199-76 327-210 390-408 28-86 34-266 12-366-81-380-392-661-818-741-122-23-348-22-480 1-531 93-1011 489-1295 1070-81 166-107 231-154 387-72 239-91 371-91 643 0 330 34 554 123 815 181 525 483 940 1052 1441 527 464 682 634 802 874 39 77 83 195 97 257l9 40-21-19c-77-69-108-95-205-170-142-111-397-283-727-490-797-500-1095-718-1444-1057-554-539-848-1097-955-1811-34-228-41-330-41-610 1-540 75-958 251-1413 24-63 50-128 58-145 8-18 29-66 47-107 44-101 176-357 234-455 102-171 293-450 376-550 10-11 55-65 100-120 325-391 805-791 1259-1052 595-342 1304-566 1960-618 41-3 98-8 125-10 66-6 543-6 575-1 14 2 68 7 120 11 650 42 1403 275 1997 618 223 129 510 326 677 467 143 120 368 335 486 465 238 260 488 609 640 890 24 44 52 96 63 115 60 108 227 496 270 630 61 187 80 252 111 375 33 135 69 302 80 375 7 50 26 180 31 215 2 17 7 64 11 105 3 41 8 86 11 100 8 43 11 631 3 720-5 47-11 123-15 170-3 47-8 94-10 105s-7 44-10 74c-6 55-21 164-30 216-140 788-442 1437-930 2002-92 108-324 341-421 424-27 24-70 61-95 82-24 21-114 91-199 155-493 373-982 640-1940 1062-667 293-905 413-1112 556-80 56-88 60-88 46zm-612-4612c67-41 89-116 52-177-48-79-118-85-319-24-74 23-148 41-165 41-29 0-27 2 32 40 35 22 91 55 125 72 139 70 216 84 275 48z" transform="matrix(.1 0 0 -.1 0 1000)"/></svg>