<svg class="ui5con-header__logo" aria-hidden="true" xmlns="http://www.w3.org/2000/svg" viewBox="0 0 230 38">
  <style>
    @keyframes wave1 {
      0%, 100% {
        opacity: 1;
      }
      3.75% {
        opacity: 0;
      }
      7.5% {
        opacity: 1;
      }
      16.5% {
        opacity: 1;
      }
      20.25% {
        opacity: 0;
      }
      24% {
        opacity: 1;
      }
    }
    @keyframes wave2 {
      0%, 100% {
        opacity: 1;
      }
      5.41% {
        opacity: 0;
      }
      9.16% {
        opacity: 1;
      }
      18.16% {
        opacity: 1;
      }
      21.91% {
        opacity: 0;
      }
      26.66% {
        opacity: 1;
      }
    }
    @keyframes wave3 {
      0%, 100% {
        opacity: 1;
      }
      7.07% {
        opacity: 0;
      }
      10.82% {
        opacity: 1;
      }
      19.82% {
        opacity: 1;
      }
      23.57% {
        opacity: 0;
      }
      28.32% {
        opacity: 1;
      }
    }
    .Wave1 {
      animation: wave1 5s ease-out 2s infinite;
    }
    .Wave2 {
      animation: wave2 5s ease-out 2s infinite;
    }

    .Wave3 {
      animation: wave3 5s ease-out 2s infinite;
    }
    .onair {
      fill: #fff;
      position: relative;
      transform: translate(109px, 12px);
    }
  </style>
  <g fill="#f16a36">
    <path d="M0 27.3V10.9h5.9v16.3a7.46 7.46 0 0 0 1.2 4.5 4.49 4.49 0 0 0 3.8 1.5 4.28 4.28 0 0 0 3.7-1.5 7.11 7.11 0 0 0 1.2-4.5V10.9h5.8v16.4a16.33 16.33 0 0 1-.6 4.4 9 9 0 0 1-2 3.4 7.54 7.54 0 0 1-3.4 2.1 14.22 14.22 0 0 1-4.8.7 14.22 14.22 0 0 1-4.8-.7 8.34 8.34 0 0 1-5.3-5.5 13.16 13.16 0 0 1-.7-4.4zM26.8 37.5V10.9h5.8v26.6zM36.3 34.5l3-3.8a12.09 12.09 0 0 0 3 2 9.12 9.12 0 0 0 3.6.8c1.8 0 3.1-.4 3.9-1.3a4.87 4.87 0 0 0 1.2-3.4 4.82 4.82 0 0 0-1.2-3.5 4.25 4.25 0 0 0-3.4-1.3 5.87 5.87 0 0 0-2.6.6 7 7 0 0 0-2.3 1.9l-3.8-1.2L38.8 11H55l-.3 4.3H43.3l-.5 6a8.64 8.64 0 0 1 2-1.2 10.61 10.61 0 0 1 3.4-.5 9.37 9.37 0 0 1 3.7.7 7.37 7.37 0 0 1 4.4 4.7 9 9 0 0 1 .5 3.6 10.85 10.85 0 0 1-.7 3.9 9.1 9.1 0 0 1-2.1 3 11.26 11.26 0 0 1-3.3 2 13.16 13.16 0 0 1-4.4.7 14.24 14.24 0 0 1-5.7-1 20.86 20.86 0 0 1-4.3-2.7z"></path>
  </g>
  <g fill="#f79b36">
    <path d="M59.2 28.5a10.76 10.76 0 0 1 .7-4.2 8.25 8.25 0 0 1 1.9-2.9 10.7 10.7 0 0 1 2.6-1.7 7.89 7.89 0 0 1 3-.5 7.44 7.44 0 0 1 2.6.4 8 8 0 0 1 2 1.1 6.89 6.89 0 0 1 1.4 1.6 11.48 11.48 0 0 1 1 1.9l-2.5 1a5.78 5.78 0 0 0-1.8-2.6 4.29 4.29 0 0 0-2.8-.9 4 4 0 0 0-1.9.4 6.54 6.54 0 0 0-1.7 1.2 7.2 7.2 0 0 0-1.2 2.1 11.19 11.19 0 0 0-.5 3.2 8.31 8.31 0 0 0 1.4 5.1 4.92 4.92 0 0 0 3.7 1.8 4.65 4.65 0 0 0 2.8-.8 7.25 7.25 0 0 0 2-2.8l2.4.9a11.18 11.18 0 0 1-1.2 2.1 6.09 6.09 0 0 1-1.6 1.6 8 8 0 0 1-2 1.1 7.44 7.44 0 0 1-2.6.4 7.73 7.73 0 0 1-3-.6 6.42 6.42 0 0 1-2.5-1.8 7.87 7.87 0 0 1-1.8-2.9 29.56 29.56 0 0 1-.4-4.2zM77.1 28.5a11.45 11.45 0 0 1 .7-4.1 7.87 7.87 0 0 1 1.8-2.9 8 8 0 0 1 2.7-1.8 8.57 8.57 0 0 1 6.3 0 8 8 0 0 1 2.7 1.8 7.87 7.87 0 0 1 1.8 2.9 11.45 11.45 0 0 1 .7 4.1 11.45 11.45 0 0 1-.7 4.1 7.87 7.87 0 0 1-1.8 2.9 8 8 0 0 1-2.7 1.8 8.57 8.57 0 0 1-6.3 0 8 8 0 0 1-2.7-1.8 7.87 7.87 0 0 1-1.8-2.9 12.44 12.44 0 0 1-.7-4.1zm3 0a12.28 12.28 0 0 0 .3 2.7 6.36 6.36 0 0 0 1 2.2 5 5 0 0 0 1.7 1.5 4 4 0 0 0 2.4.5 5.91 5.91 0 0 0 2.3-.5 3.87 3.87 0 0 0 1.7-1.4 9.06 9.06 0 0 0 1.1-2.2 12.61 12.61 0 0 0 .4-2.8 11.33 11.33 0 0 0-.3-2.6 8.75 8.75 0 0 0-1-2.2 5 5 0 0 0-1.7-1.5 3.87 3.87 0 0 0-2.4-.5 5.91 5.91 0 0 0-2.3.5 3.87 3.87 0 0 0-1.7 1.4 8.58 8.58 0 0 0-1.1 2.1 8.87 8.87 0 0 0-.4 2.8zM98 37.5V19.6h2.9v2.7a6.83 6.83 0 0 1 1.3-1.1 8.57 8.57 0 0 1 1.6-1 12.66 12.66 0 0 1 1.8-.7 7.46 7.46 0 0 1 2.1-.3 5.74 5.74 0 0 1 4 1.4 5.54 5.54 0 0 1 1.4 4v12.9h-2.9V25.2a4.14 4.14 0 0 0-.8-2.7 3.14 3.14 0 0 0-2.5-.8 6.07 6.07 0 0 0-3 .8 15.06 15.06 0 0 0-2.8 2.1v12.9z"></path>
  </g>
  <g class="onair" fill="#fff">
    <path class="Wave1" d="M113.8 8.5a3.84 3.84 0 0 0-.9-1.5 3 3 0 0 0-1.6-.8.47.47 0 0 1-.5-.44V5.6c0-.3.3-.4.5-.4a4.43 4.43 0 0 1 2.2 1 3.76 3.76 0 0 1 1.2 2 .5.5 0 0 1-.3.6c-.2.2-.5 0-.6-.3.1.1.1 0 0 0z"></path>
    <path class="Wave2" d="M116.5 7.9a5.7 5.7 0 0 0-1.7-2.8 5 5 0 0 0-3-1.4.47.47 0 0 1-.5-.44V3.2c0-.3.3-.4.5-.4a7.05 7.05 0 0 1 3.6 1.7 6.55 6.55 0 0 1 2 3.4.5.5 0 0 1-.3.6c-.3-.2-.6-.3-.6-.6z"></path>
    <path class="Wave3" d="M119.1 7.2a8.13 8.13 0 0 0-2.6-4.2 9 9 0 0 0-4.4-2.1.47.47 0 0 1-.5-.44V.4c0-.3.3-.4.5-.4a9.55 9.55 0 0 1 7.8 7 .5.5 0 0 1-.3.6c-.2.1-.5-.1-.5-.4z"></path>
  </g>
  <path d="M125 20h2.54v7.486h9.397V20h2.54v18h-2.54v-8.214h-9.397V38H125V20ZM149.047 31.114 142.337 20h2.821l5.173 9.109L155.477 20h2.82l-6.71 11.114V38h-2.54v-6.886ZM161.145 20h6.924c4.233 0 6.349 1.473 6.349 4.42 0 1.048-.285 1.955-.855 2.721-.562.758-1.382 1.256-2.46 1.495.856.11 1.586.362 2.192.754a3.742 3.742 0 0 1 1.391 1.494c.32.605.481 1.286.481 2.044 0 1.167-.299 2.13-.896 2.888-.588.758-1.381 1.311-2.379 1.66-.998.35-2.126.524-3.382.524h-7.365V20Zm6.844 7.64c1.372 0 2.361-.248 2.967-.742.615-.494.922-1.205.922-2.133 0-.886-.32-1.529-.962-1.929-.633-.409-1.582-.613-2.847-.613h-4.385v5.417h4.305Zm.387 8.137c1.355 0 2.397-.226 3.128-.677.74-.46 1.11-1.248 1.11-2.363 0-.997-.388-1.734-1.163-2.21-.776-.477-1.867-.716-3.275-.716h-4.492v5.966h4.692ZM178.869 20h7.232c1.408 0 2.607.213 3.596.639.989.417 1.738 1.026 2.245 1.827.517.792.776 1.741.776 2.848 0 .801-.165 1.563-.495 2.287-.321.716-.824 1.333-1.51 1.852-.686.52-1.551.873-2.594 1.06L193.493 38h-2.967l-4.893-7.218h-4.224V38h-2.54V20Zm7.058 8.61c.954 0 1.747-.14 2.38-.421.641-.29 1.114-.677 1.417-1.163.303-.494.454-1.056.454-1.686 0-1.03-.379-1.806-1.136-2.325-.758-.528-1.832-.792-3.222-.792h-4.411v6.387h4.518ZM197.263 20h2.579v18h-2.579V20ZM204.614 20h5.962c1.881 0 3.525.315 4.933.945a7.19 7.19 0 0 1 3.301 2.926c.793 1.311 1.19 2.96 1.19 4.944 0 1.942-.379 3.602-1.136 4.982-.749 1.38-1.774 2.427-3.075 3.143-1.301.707-2.771 1.06-4.411 1.06h-6.764V20Zm6.484 15.777c1.238 0 2.334-.264 3.288-.792.953-.536 1.702-1.324 2.245-2.363.544-1.048.816-2.317.816-3.807 0-2.24-.619-3.897-1.858-4.97-1.239-1.081-2.928-1.622-5.066-1.622h-3.369v13.554h3.944Z" fill="#EBE4DA"></path>
</svg>