<svg xmlns="http://www.w3.org/2000/svg" viewBox="0 0 50 50"><path d="M46.23 4.22a3.08 3.08 0 0 1 2.42 1 3.6 3.6 0 0 1 .87 2.51v33.6a2.93 2.93 0 0 1-.92 2.22 3.06 3.06 0 0 1-2.18.87H31.55a7.8 7.8 0 0 0-4.06 1.16 19.83 19.83 0 0 0-2.7 1.83 8.85 8.85 0 0 0-1.12-.82 14.19 14.19 0 0 0-1.88-1 16.31 16.31 0 0 0-2.22-.82 7.74 7.74 0 0 0-2.22-.34H3.15c-2.06 0-3.1-1-3.1-3.1v-34a3.55 3.55 0 0 1 .73-2.09 2.7 2.7 0 0 1 2.37-1H4.2a2.31 2.31 0 0 1 1.25 1.19 6.85 6.85 0 0 1 .78 1.88h-3.1v30.92H18.8a3.89 3.89 0 0 1 1.73.38 6.12 6.12 0 0 1 1.36.92 5.87 5.87 0 0 1 .91 1 7.28 7.28 0 0 0 .63.77V10.4a3.79 3.79 0 0 0-.92-2.07 2.45 2.45 0 0 0-2-1 2.33 2.33 0 0 0-.29-1.06 3.7 3.7 0 0 0-.72-1 8.48 8.48 0 0 0-.82-.73 1.56 1.56 0 0 0-.48-.29 8.77 8.77 0 0 1 4.2.87 4.74 4.74 0 0 1 2 1.64 6.18 6.18 0 0 1 1.74-1.64 6.62 6.62 0 0 1 3.77-.87zm-36.9 2.9a2.5 2.5 0 0 0-.87-1.88 4.08 4.08 0 0 0-1.55-1h7.93a4 4 0 0 1 2.36 1 3.11 3.11 0 0 1 1.4 2.07v18.55L14 19.78l-4.67 6.08zm37.1.2h-17.2A2.22 2.22 0 0 0 27 8.52a7.66 7.66 0 0 0-.63 2l-.1 30.82a3.86 3.86 0 0 0 .58-.77 6 6 0 0 1 .78-1 5.79 5.79 0 0 1 1.06-.92 2.63 2.63 0 0 1 1.45-.38h16.28z" fill="#1873b4"/></svg>