<svg xmlns="http://www.w3.org/2000/svg" width="172" height="134" fill="none">
  <path fill="#D5DADD" d="M88.933 65.321c26.112 0 47.28-4.406 47.28-9.841s-21.168-9.841-47.28-9.841c-26.113 0-47.28 4.406-47.28 9.84 0 5.436 21.168 9.842 47.28 9.842Z"/>
  <path fill="#D5DADD" d="M91.715 60.307h-5.563V133.9h5.563V60.307Z"/>
  <path fill="#FFB8B8" d="M121.446 50.823a4.713 4.713 0 0 1 4.96-2.512 4.708 4.708 0 0 1 1.832.718c.175.117.341.245.498.385l20.419-4.836 1.506-4.997 8.146 1.337-1.665 8.395a4.764 4.764 0 0 1-4.238 3.804l-23.102 2.035a4.42 4.42 0 0 1-.233.4 4.708 4.708 0 0 1-7.372.614 4.727 4.727 0 0 1-.751-5.343Z"/>
  <path fill="#E6E6E6" d="M165.725 86.37h-20.543c0 .59-21.171 1.069-21.171 1.069a5.53 5.53 0 0 0-.903.856 5.315 5.315 0 0 0-1.241 3.423v.855a5.352 5.352 0 0 0 5.349 5.349h38.508a5.353 5.353 0 0 0 5.349-5.349v-.855a5.355 5.355 0 0 0-5.348-5.349Z"/>
  <path fill="#E6E6E6" d="M148.941 97.71h-5.562v35.943h5.562V97.711Z"/>
  <path fill="#E6E6E6" d="M127.547 133.457c0 .601 8.429.232 18.826.232 10.398 0 18.827.369 18.827-.232s-8.429-5.367-18.827-5.367c-10.397 0-18.826 4.766-18.826 5.367Z"/>
  <path fill="#FFB8B8" d="m132.997 128.817-5.245-.001-2.496-13.605h7.742l-.001 13.606Z"/>
  <path fill="#45484A" d="M134.334 133.901H117.42v-.214a6.574 6.574 0 0 1 1.928-4.655 6.57 6.57 0 0 1 4.655-1.928h10.331v6.797ZM125.15 120.38l-10.458-23.451a8.596 8.596 0 0 1 3.773-11.033l22.683-12.163 10.351-.88 9.548-.869.069.117c.088.149 2.141 3.695.753 7.583-1.052 2.949-3.79 5.252-8.138 6.847-10.146 3.72-21.868 6.9-26.436 8.094a1.476 1.476 0 0 0-.947.753 1.512 1.512 0 0 0-.084 1.198l9.716 21.828a1.918 1.918 0 0 1-.18 1.691 1.927 1.927 0 0 1-1.45.888l-7.259.529a1.91 1.91 0 0 1-1.232-.302 1.919 1.919 0 0 1-.709-.83Z"/>
  <path fill="#FFB8B8" d="m136.419 128.817-5.245-.001-2.496-13.605h7.742l-.001 13.606Z"/>
  <path fill="#45484A" d="M137.758 133.901h-16.914v-.214a6.574 6.574 0 0 1 1.928-4.655 6.57 6.57 0 0 1 4.655-1.928h10.331v6.797ZM128.999 121.662l-10.458-23.45a8.596 8.596 0 0 1 3.774-11.033l22.683-12.163 10.351-.88 7.478-.65-.001-.102c.088.148 2.141 3.694.753 7.582-1.052 2.95-1.651 5.253-5.998 6.847-10.147 3.72-21.868 6.9-26.437 8.095a1.473 1.473 0 0 0-.946.753 1.487 1.487 0 0 0-.084 1.197l9.716 21.828a1.924 1.924 0 0 1-.18 1.691 1.922 1.922 0 0 1-1.45.889l-7.26.529a1.927 1.927 0 0 1-1.941-1.133Z"/>
  <path fill="#FF721A" d="M148.708 73.915c-.501-.355-7.702 3.423-8.985.428 5.99-14.976 1.862-21.443 5.531-30.03a10.7 10.7 0 0 1 7.089-6.068l9.52-.48.049.023a11.123 11.123 0 0 1 6.084 11.805c-.034 9.346-5.626 16.474-3.67 23.253a2.183 2.183 0 0 1-.207 1.705 2.083 2.083 0 0 1-1.333.988l-12.571-1.677a2.123 2.123 0 0 1-1.718-.333l.211.386Z"/>
  <path fill="#FFB8B8" d="M158.687 34.209c5.804 0 10.509-4.706 10.509-10.51 0-5.804-4.705-10.509-10.509-10.509s-10.509 4.705-10.509 10.51c0 5.803 4.705 10.509 10.509 10.509Z"/>
  <path fill="#45484A" d="M162.035 33.347c-.558.244-1.701-4.205-1.189-5.095.762-1.323.717-1.314 1.222-2.19.506-.875.619-2.074-.036-2.844s-2.17-.668-2.469.298c.192-1.835-1.622-3.31-3.42-3.724-1.797-.414-3.693-.157-5.501-.526-2.098-.428-4.28-2.186-3.443-4.493.144-.384.359-.737.634-1.041.967-1.088 2.319-1.552 3.642-2 2.751-.934 5.578-1.88 8.481-1.777a12.317 12.317 0 0 1 10.888 7.962c.2.561.355 1.137.464 1.723.996 5.359-2.116 10.644-7.17 12.685l-2.103 1.022Z"/>
  <path fill="#E6E6E6" d="M6.803 83.273H22.86c0 .689 17.554 1.247 17.554 1.247.387.291.74.626 1.052.997a6.188 6.188 0 0 1 1.446 3.989v.997a6.235 6.235 0 0 1-6.232 6.233H6.803A6.238 6.238 0 0 1 .57 90.503v-.997a6.241 6.241 0 0 1 6.233-6.233Z"/>
  <path fill="#E6E6E6" d="M24.653 96.487h-5.86v33.826h5.86V96.487Z"/>
  <path fill="#E6E6E6" d="M43.877 133.208c0 .701-9.822.271-21.939.271-12.116 0-21.938.43-21.938-.271 0-.7 9.822-6.254 21.938-6.254 12.117 0 21.939 5.554 21.939 6.254Z"/>
  <path fill="#9F616A" d="M48.231 128.932h4.824l2.295-18.607-7.12.001.001 18.606Z"/>
  <path fill="#45484A" d="m47.002 127.358 9.5-.001a6.057 6.057 0 0 1 6.055 6.055v.196l-15.555.001v-6.251Z"/>
  <path fill="#9F616A" d="M62.49 128.932h4.823l2.295-18.607-7.12.001.001 18.606Z"/>
  <path fill="#45484A" d="m61.258 127.358 9.5-.001a6.057 6.057 0 0 1 6.055 6.055v.196l-15.555.001v-6.251Z"/>
  <path fill="#9F616A" d="M45.698 70.044a3.67 3.67 0 0 0-4.73-3.043L35.6 60.565l-4.706 2.31 7.71 8.982a3.687 3.687 0 0 0 7.095-1.813Z"/>
  <path fill="#E6E6E6" d="m27.644 31.87 3.15 1.293.762 8.896 8.434 23.068-7.163 2.385-7.96-15.474 2.777-20.168Z"/>
  <path fill="#9F616A" d="M19.468 21.586a8.388 8.388 0 1 0 0-16.775 8.388 8.388 0 0 0 0 16.775Z"/>
  <path fill="#45484A" d="M18.175 9.295s.369-5.096 4.91-3.018c4.54 2.078 4.244-3.65 2.872-4.661C24.585.604 24.628.353 19.609 1.03 14.59 1.708 4.847 2.855 7.997 12.946c3.15 10.092 7.79 7.464 7.79 7.464s-4.29-9.05-1.753-7.32l2.538 1.73 1.339-.283.264-5.242ZM5.701 70.892s-2.814 14.881 7.894 16.776c10.708 1.895 26.165 3.227 26.165 3.227l6.942 32.386 9.325-.833s-1.24-38.985-4.29-42.035c-3.05-3.05-17.552-11.975-17.552-11.975L5.7 70.891Z"/>
  <path fill="#45484A" d="m26.614 64.655 4.684 4.698S65.113 74.8 66.418 82.61c1.969 11.792 4.295 37.433 4.295 37.433l-10.167-.762-3.987-29.148-16.267-3.7-18.507-10.086 4.83-11.692Z"/>
  <path fill="#FAC580" d="m26.354 28.629-2.72-3.607-8.822-.144A17.186 17.186 0 0 0 5.7 40.048V62.87s.125 3.037-.54 10.011c-.572 6.017 31.45-3.526 31.45-3.526l-4.157-33.867s.334-5.395-6.1-6.858Z"/>
  <path fill="#D5DADD" d="M117.43 25.285a34.939 34.939 0 0 1-.293-7.571l.293-4.183c-1.615 3.214-1.25 7.443 0 11.754ZM118.689 25.986a25.71 25.71 0 0 1-.141-4.507l.141-2.49c-.777 1.913-.602 4.43 0 6.997Z"/>
  <path fill="#00144A" d="M124.286 29.063v1.4a.423.423 0 0 1-.42.42h-.699a.14.14 0 0 0-.13.086.14.14 0 0 0-.01.053v11.475a.423.423 0 0 1-.42.42h-8.536a.421.421 0 0 1-.42-.42V31.022a.141.141 0 0 0-.14-.14h-.839a.42.42 0 0 1-.42-.42v-1.399a.422.422 0 0 1 .42-.42h11.194a.423.423 0 0 1 .42.42Z"/>
  <path fill="#FF721A" d="M123.039 31.177h-9.375v.42h9.375v-.42ZM123.027 37.354a12.05 12.05 0 0 1-9.515 0v-2.957a14.942 14.942 0 0 1 9.515 0v2.957Z"/>
  <path fill="#D5DADD" d="M59.667 34.7a34.933 34.933 0 0 1-.294-7.572l.294-4.183c-1.615 3.214-1.25 7.444 0 11.755ZM60.925 35.398a25.681 25.681 0 0 1-.14-4.507l.14-2.49c-.777 1.913-.601 4.43 0 6.997Z"/>
  <path fill="#00144A" d="M66.522 38.477v1.4a.422.422 0 0 1-.42.42h-.7a.139.139 0 0 0-.14.14V51.91a.421.421 0 0 1-.419.42h-8.536a.42.42 0 0 1-.42-.42V40.436a.14.14 0 0 0-.14-.14h-.839a.42.42 0 0 1-.42-.42v-1.399a.418.418 0 0 1 .42-.42h11.195a.422.422 0 0 1 .42.42Z"/>
  <path fill="#FF721A" d="M65.276 40.59H55.9v.42h9.376v-.42ZM65.263 46.767a12.05 12.05 0 0 1-9.515 0V43.81a14.943 14.943 0 0 1 9.515 0v2.957Z"/>
  <path fill="#FFB8B8" d="m138.837 59.312-18.26-14.405a4.45 4.45 0 0 1-.443.131 4.716 4.716 0 0 1-3.773-.724 4.671 4.671 0 0 1-1.979-3.309 4.71 4.71 0 0 1 7.266-4.478 4.708 4.708 0 0 1 1.991 2.852 4.5 4.5 0 0 1 .098.621l18.177 10.486 4.523-2.604 5.011 6.56-7.023 5.006a4.684 4.684 0 0 1-5.588-.136Z"/>
  <path fill="#FF721A" d="M153.676 56.486 143.258 49.4l4.896-6.934a4.78 4.78 0 0 1 8.482 4.126l-2.96 9.893Z"/>
  <path fill="#9F616A" d="M59.95 42.928a3.667 3.667 0 0 0-5.2 2.142l-8.35.726-.797 5.182 11.778-1.191a3.687 3.687 0 0 0 2.57-6.858Z"/>
  <path fill="#FAC580" d="M10.073 35.33 7.711 37.09s-1.31 3.172 1.258 7.382c2.568 4.21 18.844 13.085 18.844 13.085l26.35-6.729-3.755-7.367-19.2.537S20.35 30.466 10.073 35.33Z"/>
</svg>
