<svg width="261" height="261" viewBox="0 0 261 261" fill="none" xmlns="http://www.w3.org/2000/svg">
<mask id="mask0_509_5615" style="mask-type:alpha" maskUnits="userSpaceOnUse" x="2" y="2" width="257" height="257">
<circle cx="130.5" cy="130.5" r="127.505" fill="#EBF8FF"/>
</mask>
<g mask="url(#mask0_509_5615)">
<path d="M51.0381 144.705C51.0381 144.705 68.819 160.838 74.5343 168.268C80.2496 175.698 117.293 211.361 130.629 217.305C144.176 223.037 149.68 219.216 153.49 213.696C153.49 213.696 161.11 215.607 164.709 209.875C168.308 204.144 166.614 200.535 166.614 200.535C166.614 200.535 174.235 202.445 177.833 198.624C181.643 194.803 175.928 187.374 175.928 187.374C175.928 187.374 183.548 193.105 189.052 187.374C194.767 181.642 189.052 174.212 185.242 170.391C181.432 166.57 136.344 134.515 136.344 134.515C136.344 134.515 138.249 116.047 128.935 109.254C119.41 102.461 78.1328 102.461 78.1328 102.461L51.0381 144.705Z" fill="#F58B00"/>
<path d="M78.3445 102.247L51.0381 144.703C51.0381 144.703 59.7169 152.558 66.9139 159.775" fill="#CC7400"/>
<path d="M187.359 102.247C187.359 102.247 178.256 108.403 173.388 109.04C168.519 109.677 157.3 113.498 136.556 115.409C115.811 117.319 96.9722 124.749 95.2787 128.57C93.3736 132.391 93.3736 143.642 106.498 141.731C119.622 139.821 117.717 134.089 127.242 134.089C136.768 134.089 139.943 136.424 139.943 136.424L185.453 169.54L221.227 137.91L187.359 102.247Z" fill="#D5DADD"/>
<path d="M188.206 101.611L211.067 145.978L220.592 138.761L188.206 101.611Z" fill="white"/>
<path d="M318.81 -21.9365L183.829 94.6289C182.633 95.662 182.528 97.4797 183.598 98.6432L225.19 143.879C226.088 144.855 227.541 145.071 228.679 144.391C240.709 137.209 304.749 98.9021 316.164 90.5727C374.058 48.3283 318.81 -21.9365 318.81 -21.9365Z" fill="#45484A"/>
<path d="M153.278 169.754C153.278 169.754 172.329 186.312 175.927 188.222L153.278 169.754Z" fill="#CC7400"/>
<path fill-rule="evenodd" clip-rule="evenodd" d="M152.478 169.058C152.861 168.615 153.53 168.567 153.971 168.951L153.278 169.753L152.585 170.555C152.143 170.171 152.095 169.501 152.478 169.058ZM153.278 169.753C152.585 170.555 152.585 170.555 152.585 170.555L152.801 170.742C152.942 170.864 153.148 171.043 153.413 171.272C153.941 171.729 154.7 172.384 155.623 173.176C157.467 174.76 159.964 176.892 162.574 179.084C165.183 181.276 167.91 183.532 170.213 185.362C172.479 187.162 174.428 188.626 175.432 189.159C175.949 189.434 176.59 189.236 176.863 188.718C177.137 188.2 176.939 187.558 176.423 187.283C175.628 186.861 173.846 185.54 171.528 183.698C169.247 181.885 166.536 179.644 163.933 177.457C161.331 175.271 158.84 173.144 157 171.564C156.079 170.773 155.322 170.12 154.795 169.664C154.531 169.436 154.325 169.258 154.185 169.136L153.971 168.951C153.971 168.951 153.971 168.951 153.278 169.753Z" fill="#CC7400"/>
<path d="M142.271 185.249C142.271 185.249 156.876 196.712 167.46 200.958L142.271 185.249Z" fill="#CC7400"/>
<path fill-rule="evenodd" clip-rule="evenodd" d="M141.437 184.596C141.798 184.134 142.463 184.053 142.923 184.414L142.271 185.25L141.619 186.086C141.158 185.725 141.077 185.057 141.437 184.596ZM142.271 185.25C141.619 186.086 141.618 186.086 141.619 186.086L141.63 186.095L141.663 186.121L141.79 186.219C141.901 186.305 142.065 186.432 142.277 186.594C142.7 186.919 143.316 187.386 144.088 187.96C145.631 189.107 147.799 190.682 150.301 192.39C155.285 195.793 161.662 199.776 167.067 201.944C167.61 202.162 168.226 201.897 168.443 201.353C168.66 200.809 168.396 200.191 167.854 199.973C162.675 197.896 156.457 194.025 151.492 190.635C149.019 188.946 146.875 187.389 145.349 186.255C144.586 185.688 143.978 185.226 143.562 184.907C143.353 184.748 143.193 184.624 143.085 184.54L142.963 184.445L142.933 184.422L142.923 184.414L142.271 185.25Z" fill="#CC7400"/>
<path d="M130.417 199.049C130.417 199.049 148.41 213.272 152.643 213.696L130.417 199.049Z" fill="#CC7400"/>
<path fill-rule="evenodd" clip-rule="evenodd" d="M129.586 198.392C129.948 197.931 130.613 197.852 131.073 198.215L130.417 199.049L129.762 199.882C129.303 199.519 129.224 198.852 129.586 198.392ZM130.417 199.049C129.762 199.882 129.762 199.882 129.762 199.882L129.815 199.924L129.968 200.044C130.102 200.149 130.298 200.303 130.549 200.499C131.052 200.89 131.774 201.45 132.653 202.122C134.411 203.466 136.802 205.264 139.327 207.076C141.849 208.887 144.519 210.722 146.834 212.135C147.991 212.841 149.075 213.452 150.017 213.903C150.928 214.339 151.814 214.68 152.538 214.752C153.12 214.811 153.638 214.385 153.697 213.802C153.755 213.218 153.33 212.698 152.749 212.64C152.415 212.607 151.812 212.41 150.929 211.987C150.077 211.579 149.06 211.009 147.935 210.322C145.686 208.949 143.064 207.149 140.559 205.35C138.057 203.554 135.684 201.77 133.936 200.434C133.063 199.766 132.346 199.211 131.848 198.823C131.599 198.629 131.405 198.476 131.273 198.373L131.123 198.255L131.073 198.215L130.417 199.049Z" fill="#CC7400"/>
<path d="M18.96 51.2363L85.4754 99.997C86.6894 100.887 86.9826 102.577 86.1392 103.824L55.5833 148.992C54.7824 150.175 53.2184 150.566 51.9549 149.898L18.96 132.444V51.2363Z" fill="white"/>
<path d="M-52.1543 -21.9365L81.9546 93.1925C83.034 94.1191 83.247 95.7078 82.45 96.886L48.6534 146.844C47.8452 148.038 46.2616 148.424 44.9949 147.734L-52.1543 94.8185V-21.9365Z" fill="#A9B4BE"/>
<path d="M126.183 214.757V206.266L120.256 211.573L126.183 214.757Z" fill="#4A5055"/>
<path d="M90.8334 207.326C87.0232 204.567 86.1765 199.26 88.7166 195.439L96.1253 185.037C98.8771 181.216 104.169 180.367 107.979 182.914C111.789 185.674 112.636 190.981 110.096 194.802L102.687 205.204C99.9355 209.237 94.6436 210.086 90.8334 207.326Z" fill="#D5DADD"/>
<path d="M102.899 213.059C99.7238 210.512 99.0888 205.842 101.629 202.658L108.191 194.379C110.731 191.195 115.388 190.558 118.563 193.105C121.738 195.652 122.373 200.323 119.833 203.507L113.271 211.786C110.943 214.97 106.286 215.607 102.899 213.059Z" fill="#D5DADD"/>
<path d="M81.7302 198.199C78.1317 196.076 77.0733 191.619 79.1901 188.01L84.482 178.882C86.5988 175.273 91.0441 174.211 94.6426 176.334C98.2411 178.457 99.2995 182.915 97.1827 186.524L91.8908 195.652C89.774 199.261 85.3288 200.322 81.7302 198.199Z" fill="#D5DADD"/>
<path d="M114.33 217.305C112.001 215.606 111.155 212.422 112.848 209.875L118.775 200.534C120.469 198.199 123.644 197.35 126.184 199.048C128.512 200.747 129.359 203.931 127.666 206.478L121.527 215.819C120.045 218.154 116.658 218.791 114.33 217.305Z" fill="#D5DADD"/>
<path fill-rule="evenodd" clip-rule="evenodd" d="M121.478 197.953C121.964 198.278 122.096 198.937 121.771 199.425L113.304 212.162C112.98 212.649 112.323 212.781 111.837 212.456C111.35 212.131 111.219 211.472 111.543 210.984L120.01 198.247C120.334 197.759 120.992 197.628 121.478 197.953Z" fill="#767B7F"/>
<path fill-rule="evenodd" clip-rule="evenodd" d="M111.13 192.026C111.607 192.364 111.721 193.027 111.383 193.505L102.704 205.818C102.367 206.296 101.707 206.41 101.229 206.072C100.752 205.733 100.639 205.071 100.976 204.592L109.655 192.28C109.992 191.801 110.653 191.687 111.13 192.026Z" fill="#767B7F"/>
<path fill-rule="evenodd" clip-rule="evenodd" d="M98.1933 183.092C98.6796 183.418 98.8111 184.077 98.4868 184.564L90.0197 197.301C89.6955 197.789 89.0383 197.921 88.552 197.596C88.0656 197.27 87.9342 196.611 88.2584 196.124L96.7255 183.387C97.0498 182.899 97.7069 182.767 98.1933 183.092Z" fill="#767B7F"/>
<path d="M25.3663 128.93C22.755 128.978 20.5985 126.895 20.5497 124.276C20.501 121.658 22.5783 119.495 25.1897 119.446C27.801 119.397 29.9575 121.48 30.0063 124.099C30.0551 126.718 27.9777 128.881 25.3663 128.93Z" fill="white"/>
<path d="M38.1085 135.805C35.4972 135.854 33.3407 133.771 33.2919 131.152C33.2431 128.533 35.3205 126.371 37.9319 126.322C40.5432 126.273 42.6997 128.356 42.7485 130.975C42.7972 133.594 40.7199 135.757 38.1085 135.805Z" fill="white"/>
</g>
</svg>
