<svg xmlns="http://www.w3.org/2000/svg" fill="none" viewBox="0 0 1238 1002">
  <path fill="#F58B01" d="M973.5 776h-709L72 1002h1095L973.5 776Z"/>
  <path fill="#fff" d="M974 31H264v745h710V31Z"/>
  <path fill="#E6E6E6" d="M1054.66 775.579h-36.61V30.821H219.913v744.758h-36.581V0h871.328v775.579Z"/>
  <path fill="#EEE" d="M1040.04 775.579h-47.594V55.471H245.552V775.58h-47.593V15.41h842.081v760.17Z"/>
  <path fill="#fff" d="M227.244 40.062v735.517h18.308V55.472h746.894v720.107h18.304V40.062H227.244Z"/>
  <path fill="#EDEEEF" d="M15.423 0v810.17l248.807-31.807V31.807L15.423 0Z"/>
  <path fill="#D5DADD" d="m15.423 810.17-14.49-2.124V2.154L15.423 0v810.17Z"/>
  <path fill="#EDEEEF" d="M973.765 31.807v746.556l248.805 31.807V0L973.765 31.807Z"/>
  <path fill="#D5DADD" d="m1222.57 810.17 14.49-2.124V2.154L1222.57 0v810.17Z"/>
  <path fill="#EAECEE" d="M45.555 356.937h-3.344c-7.465 0-13.51 7.363-13.51 16.449 0 9.087 6.045 16.45 13.51 16.45h2.905c6.08-1.621 10.606-8.579 10.606-16.45 0-7.87-4.323-14.659-10.167-16.449Z"/>
  <path fill="#D5DADD" d="M44.745 356.937c7.464 0 13.51 7.363 13.51 16.449 0 9.087-6.046 16.45-13.51 16.45-7.465 0-13.512-7.363-13.512-16.45 0-9.086 6.047-16.449 13.512-16.449Z"/>
  <path fill="url(#a)" d="M87.44 373.386a6.185 6.185 0 0 1-6.18 6.182H55.42s2.262 0 2.262-6.182c0-6.181-2.297-6.181-2.263-6.181h25.84a6.184 6.184 0 0 1 6.182 6.181Z"/>
  <path fill="#EAECEE" d="M1192.44 356.937h3.35c7.46 0 13.51 7.363 13.51 16.449 0 9.087-6.05 16.45-13.51 16.45h-2.91c-6.08-1.621-10.6-8.579-10.6-16.45 0-7.87 4.32-14.659 10.16-16.449Z"/>
  <path fill="#D5DADD" d="M1193.25 356.937c-7.46 0-13.51 7.363-13.51 16.449 0 9.087 6.05 16.45 13.51 16.45 7.47 0 13.51-7.363 13.51-16.45 0-9.086-6.04-16.449-13.51-16.449Z"/>
  <path fill="url(#b)" d="M1150.56 373.386a6.184 6.184 0 0 0 6.18 6.182h25.84s-2.3 0-2.3-6.182c0-6.181 2.3-6.181 2.3-6.181h-25.84c-3.41 0-6.18 2.77-6.18 6.181Z"/>
  <defs>
    <linearGradient id="a" x1="71.464" x2="71.464" y1="367.408" y2="379.365" gradientUnits="userSpaceOnUse">
      <stop stop-color="#767B7F"/>
      <stop offset="1" stop-color="#8D8D8D"/>
    </linearGradient>
    <linearGradient id="b" x1="1166.57" x2="1166.57" y1="367.408" y2="379.365" gradientUnits="userSpaceOnUse">
      <stop stop-color="#767B7F"/>
      <stop offset="1" stop-color="#8D8D8D"/>
    </linearGradient>
  </defs>
</svg>
