<svg xmlns="http://www.w3.org/2000/svg" fill="none" viewBox="0 0 106 216">
  <path fill="#00144A" d="M52.73 215.518c18.474 0 51.447-4.245 52.404-12.05 1.03-7.942-26.055-13.556-52.404-10.544-26.349-2.875-53.434 2.739-52.403 10.544 1.03 7.942 34.003 12.05 52.403 12.05Z"/>
  <path fill="#E1E1E1" d="M43.825 63.014V20.371l-8.331 1.849-8.331-1.849v42.663C4.92 65.63 6.049 81.11 6.049 93.522V197.73c0 10.208 29.425 9.756 29.425 9.756s29.425.452 29.425-9.756V93.521c0-12.41 1.128-27.89-21.094-30.487l.02-.02Z"/>
  <path fill="#F79C37" d="M35.495.623H20.277l6.234 13.1h17.968l6.213-13.1H35.495Z"/>
  <path fill="#6D6D6D" d="M50.69 20.371c0 4.367-3.561 7.907-7.954 7.907H28.251c-4.393 0-7.955-3.54-7.955-7.907s3.562-7.907 7.955-7.907h14.485c4.393 0 7.955 3.54 7.955 7.907Z"/>
  <path fill="#D5DADD" d="M24.748 17.655s-5.54 10.465 8.588 9.147c0 0-3.68-6.334 0-10.386 0 0-4.828-1.553-8.588 1.24Z"/>
  <path fill="#fff" d="M28.509 29.694h5.738l-2.75 33.734-2.988-33.734Z"/>
  <path fill="#E66500" d="M61.239 117.341s-20.857-5.803-51.51 0c0 0 20.244 18.568 51.51 0Z"/>
  <path fill="#FF961E" d="M9.73 117.343s8.37 7.651 22.637 8.202c.08-3.659.139-7.258.218-10.7-6.728.196-14.406.905-22.856 2.498Z"/>
  <path fill="#F79C37" d="M35.494 121.825s-17.889.256-25.765-4.484v80.369c0 2.951 10.132 6.098 25.191 6.098h1.128c1.979 0 8.885-.099 15.277-1.298 6.846-1.299 9.914-3.344 9.914-4.8v-80.369c-7.876 4.74-25.745 4.484-25.745 4.484Z"/>
  <path fill="#fff" d="M55.361 157.626c0 10.917-8.905 19.748-19.867 19.748-10.983 0-19.868-8.851-19.868-19.748v-43.371c0-10.917 8.905-19.748 19.867-19.748 10.983 0 19.868 8.851 19.868 19.748v43.371ZM13.113 94.761S15.41 80.658 28.51 80.658c0 0 2.117-8.458-4.195-9.146-6.313-.689-14.901 10.425-11.2 23.25Z"/>
  <path fill="#6D6D6D" d="M85.182 99.087c-4.967 0-13.832.61-14.09 1.731-.276 1.141 7.006 1.947 14.09 1.514 7.084.413 14.366-.393 14.09-1.514-.278-1.141-9.143-1.731-14.09-1.731Z"/>
  <path fill="#F2F2F2" d="M99.271 100.819s-4.967 1.633-14.09 1.515c-10.467.118-14.088-1.515-14.088-1.515-14.723 59.422 14.089 55.763 14.089 55.763s28.812 3.659 14.09-55.763Z"/>
  <path fill="#F7F7F7" d="M87.695 199.244c-.237-24.685 2.573-43.233 2.573-43.233l-5.106.59-5.105-.59s2.81 18.568 2.572 43.233c0 0-13.337 1.377-13.337 3.659 0 2.281 9.42 3.206 15.87 3.422 6.431-.236 15.871-1.141 15.871-3.422 0-2.282-13.338-3.659-13.338-3.659Z"/>
  <path fill="#FCF2F0" d="M85.18 102.354c-4.61.039-7.836-.236-10.072-.59-.791 3.678-2.75 13.336-3.047 20.751-.356 9.343-.356 24.351 6.728 24.449 6.372.098 6.748-37.156 6.768-44.63h-.396l.02.02Z"/>
  <path fill="#E66500" d="M70.064 121.707s14.347-2.439 30.217-.196c0 0-14.584 8.3-30.217.196Z"/>
  <path fill="#F79C37" d="M100.122 121.59c-13.931 4.642-27.724.826-30.059.118-1.425 15.401 1.405 23.328 4.61 27.4 3.424 4.327 7.778 4.799 9.5 4.799h.514l.495-.039.455.039h.554c1.721 0 6.075-.472 9.498-4.799 3.226-4.091 6.075-12.058 4.611-27.577-.06 0-.099.059-.159.079l-.019-.02Z"/>
  <path fill="#6D6D6D" d="M81.362 156.304s.792.472 3.82.255l-.317 38.789-3.503-39.044ZM83.262 200.621s-10.409 1.436-11.2 2.675c-.792 1.22 20.204 3.954 11.2-2.675Z"/>
</svg>
