<svg xmlns="http://www.w3.org/2000/svg" width="127" height="126" fill="none">
  <path fill="#CC7400" fill-rule="evenodd" d="M33.586 32.224c5.308 4.076 12.438 16.485 2.976 37.887-4.657 10.53-6.59 24.415-.079 35.056 9.986 16.329 35.543 24.901 52.115 17.681.606-1.69 10.418-4.863 10.868-6.701-8.935 4.043-16.238 4.62-19.993 4.846-18.245 1.096-45.15-16.774-27.976-46.703 5.779-10.064 9.063-20.508 2.799-32.9-9.364-18.518-18.596-17.244-20.71-9.166Z" clip-rule="evenodd"/>
  <path fill="#00144A" fill-rule="evenodd" d="M79.783.016a8.407 8.407 0 0 1 4.188.833c1.966.943 3.552 2.592 4.558 4.517 2.015 3.87 1.529 8.453-1.859 11.403a1.335 1.335 0 0 1-.235.165l-26.5 14.544a1.3 1.3 0 0 1-1.24.025 1.307 1.307 0 0 1-.73-1.006L54.787 8.766a1.335 1.335 0 0 1 .932-1.476C62.606 5.176 69.492 3.054 76.387.964c.886-.268 1.773-.54 2.659-.791.243-.07.486-.144.737-.157Z" clip-rule="evenodd"/>
  <path fill="#00144A" fill-rule="evenodd" d="M56.11 8.576c23.54-7.23 23.738-7.221 23.738-7.221 6.875-.437 11.763 9.33 5.94 14.404L59.286 30.303 56.109 8.571v.005Z" clip-rule="evenodd"/>
  <path fill="#45484A" fill-rule="evenodd" d="M21.734 13.814C66.327.119 66.702.139 66.702.139c13.02-.828 22.28 17.668 11.243 27.284l-50.193 27.55-6.018-41.16Z" clip-rule="evenodd"/>
  <path fill="#FF721A" fill-rule="evenodd" d="M41.352 7.715c3.94-1.204 7.303-2.234 10.171-3.108 13.592 3.339 16.259 17.99 15.385 29.147l-9.623 5.283c2.843-16.312-1.422-26.962-15.933-31.322Z" clip-rule="evenodd"/>
  <path fill="#FF721A" fill-rule="evenodd" d="M63.107 17.453c13.453-6.017 13.626-5.51 13.626-5.51 5.291-2.642 9.957 6.8 4.59 9.528l-13.192 6.714-5.024-10.736v.004Z" clip-rule="evenodd"/>
  <path fill="#CC7400" fill-rule="evenodd" d="M62.275 17.676c-1.88 1.443-2.081 4.888-.458 7.69 1.624 2.807 4.464 3.907 6.343 2.465 1.875-1.442 2.081-4.888.458-7.69-1.624-2.807-4.464-3.911-6.34-2.465h-.003Z" clip-rule="evenodd"/>
  <path fill="#A9B4BE" fill-rule="evenodd" d="M18.559 12.587c-1.83.635-6.582 1.566-7.991 2.827-5.733 5.123-4.67 14.866-1.39 24.312 3.162 9.088 7.893 17.17 15.27 18.035 2.172.255 6.809-1.838 8.919-2.572 9.269-3.223 13.469-15.372 9.376-27.135-4.088-11.762-14.92-18.69-24.188-15.467h.004Z" clip-rule="evenodd"/>
  <path fill="#00144A" fill-rule="evenodd" d="M11.846 13.501a15.59 15.59 0 0 1 4.575-.853c4.612-.165 9.075 1.694 12.636 4.546 4.039 3.235 6.994 7.731 8.688 12.599 1.694 4.867 2.16 10.225 1.001 15.27-1.026 4.462-3.35 8.658-7.088 11.403a15.685 15.685 0 0 1-4.117 2.168c-1.476.51-3.013.8-4.575.853-4.612.165-9.075-1.694-12.636-4.546-4.04-3.235-6.994-7.732-8.688-12.599C-.052 37.475-.522 32.117.64 27.072c1.027-4.463 3.351-8.658 7.09-11.403a15.68 15.68 0 0 1 4.116-2.168Z" clip-rule="evenodd"/>
  <path fill="#00144A" fill-rule="evenodd" d="M12.287 14.767C3.018 17.99-1.182 30.14 2.91 41.902c4.092 11.766 14.92 18.69 24.188 15.467 9.269-3.223 13.469-15.372 9.376-27.139-4.092-11.762-14.92-18.69-24.188-15.467v.004Z" clip-rule="evenodd"/>
  <path fill="#00144A" fill-rule="evenodd" d="M37.053 49.88c-1.875 3.825-6.29 6.323-10.534 5.894-4.052-.412-7.827-2.221-10.905-4.85-3.38-2.886-5.873-6.702-7.328-10.89-2.72-7.826-1.735-17.305 4.274-23.388 2.814-2.852 8.358-4.06 12.038-2.378 6.343 2.893 10.922 9.059 13.147 15.53 1.17 3.4 1.752 7.01 1.607 10.603-.127 3.264-.857 6.537-2.3 9.475v.004Z" clip-rule="evenodd"/>
  <path fill="#fff" fill-rule="evenodd" d="M35.849 49.29c2.584-5.266 2.98-12.22.626-19.056-2.394-6.953-7.093-12.307-12.438-14.747-3.165-1.446-8.11-.35-10.53 2.102-5.04 5.107-6.845 13.708-3.96 22.008 2.93 8.433 9.854 14.108 17.103 14.841 3.701.375 7.575-1.838 9.195-5.147h.004Z" clip-rule="evenodd"/>
  <path fill="#00144A" fill-rule="evenodd" d="M90.242 20.429c20.957-11.77 21.147-11.8 21.147-11.8 6.388-1.792 12.545 6.817 7.884 12.954L96.709 41.118l-6.467-20.693v.004Z" clip-rule="evenodd"/>
  <path fill="#45484A" fill-rule="evenodd" d="M58.79 32.398c39.696-22.293 40.054-22.346 40.054-22.346 12.096-3.4 23.76 12.912 14.936 24.538L71.038 71.591 58.789 32.398Z" clip-rule="evenodd"/>
  <path fill="#FF721A" fill-rule="evenodd" d="M72.809 24.384c3.595-2.15 5.963-3.378 8.965-4.945 14.449.414 20.504 11.437 19.755 25.758l-8.114 7.006c1.324-7.218-.007-13.957-3.212-18.687-4.28-6.313-11.294-9.985-17.394-9.132Z" clip-rule="evenodd"/>
  <path fill="#A9B4BE" fill-rule="evenodd" d="M54.614 30.876c-1.645 1.266-6.096 3.87-7.163 5.572-4.344 6.932-.783 15.781 4.892 23.541 5.46 7.468 12.22 13.415 19.729 11.565 2.213-.544 6.252-4.208 8.148-5.667 8.325-6.413 9.343-19.444 2.27-29.113-7.072-9.669-19.551-12.306-27.876-5.898Z" clip-rule="evenodd"/>
  <path fill="#00144A" fill-rule="evenodd" d="M48.163 34.15a18.05 18.05 0 0 1 7.37-3.384c4.055-.845 8.279-.305 12.083 1.29 4.138 1.735 7.678 4.649 10.32 8.259 2.831 3.87 4.583 8.477 4.908 13.275.301 4.442-.647 8.96-3.004 12.767a18.492 18.492 0 0 1-4.439 4.93 18.049 18.049 0 0 1-7.369 3.383c-4.055.845-8.28.305-12.084-1.29-4.137-1.735-7.678-4.649-10.32-8.259-2.83-3.874-4.582-8.477-4.908-13.275-.3-4.442.647-8.96 3.005-12.768a18.475 18.475 0 0 1 4.438-4.925v-.004Z" clip-rule="evenodd"/>
  <path fill="#00144A" fill-rule="evenodd" d="M48.981 35.212c-8.325 6.413-9.343 19.445-2.27 29.113 7.067 9.67 19.55 12.307 27.876 5.898 8.325-6.413 9.343-19.444 2.27-29.113-7.072-9.669-19.55-12.306-27.876-5.898Z" clip-rule="evenodd"/>
  <path fill="#00144A" fill-rule="evenodd" d="M82.528 59.297c-1.005 5.457-4.03 8.536-9.433 9.76-8.23 1.862-16.589-1.814-21.505-8.532-4.715-6.445-5.865-15.084-2.519-22.403.223-.482.462-.96.722-1.426 2.275-4.084 6.408-6.623 11.131-6.269 6.854.516 12.999 4.406 17.013 9.892 3.96 5.415 5.811 12.339 4.591 18.982v-.004Z" clip-rule="evenodd"/>
  <path fill="#fff" fill-rule="evenodd" d="M81.207 59.06c1.076-5.845-.326-12.443-4.352-17.95-4.134-5.65-10.11-8.897-16.028-9.342-4.089-.31-7.769 1.83-9.858 5.584-3.718 6.677-3.306 15.53 1.706 22.383 4.933 6.747 12.928 9.644 20.124 8.016 4.921-1.113 7.513-3.804 8.412-8.692h-.004Z" clip-rule="evenodd"/>
  <path fill="#fff" fill-rule="evenodd" d="M55.228 51.833c.276-13.938 16.428-15.405 19.807-3.528.94 3.306.28 7.67-2.164 10.572-3.56 4.228-17.898 5.708-17.643-7.044Z" clip-rule="evenodd"/>
  <path fill="#fff" fill-rule="evenodd" d="M62.02 50.173a2.445 2.445 0 0 0 2.44-2.44 2.445 2.445 0 0 0-2.44-2.44 2.445 2.445 0 0 0-2.44 2.44 2.445 2.445 0 0 0 2.44 2.44ZM13.062 36.655c.276-13.939 16.428-15.406 19.807-3.528.94 3.305.28 7.67-2.163 10.571-3.561 4.228-17.9 5.708-17.648-7.043h.004Z" clip-rule="evenodd"/>
  <path fill="#fff" fill-rule="evenodd" d="M19.85 34.994a2.445 2.445 0 0 0 2.44-2.44 2.445 2.445 0 0 0-2.44-2.44 2.445 2.445 0 0 0-2.44 2.44 2.445 2.445 0 0 0 2.44 2.44Z" clip-rule="evenodd"/>
  <path fill="#00144A" fill-rule="evenodd" d="M64.027 20.696c-.762.585-.845 1.978-.185 3.116.66 1.137 1.809 1.582 2.567.997.759-.585.845-1.978.186-3.116-.66-1.137-1.805-1.582-2.568-.997ZM16.771 13.419a.28.28 0 0 1 .334.218.28.28 0 0 1-.218.334c-3.895.816-7.139 3.235-9.447 6.425-2.489 3.445-3.89 7.785-3.849 11.989.033 3.511.96 7.192 2.535 10.617 1.607 3.499 3.894 6.726 6.594 9.223 2.914 2.695 6.306 4.546 9.858 4.974 3.14.38 6.413-.35 9.582-2.6a.284.284 0 1 1 .33.462c-3.297 2.336-6.701 3.099-9.978 2.699-3.672-.445-7.175-2.35-10.175-5.127-2.758-2.551-5.086-5.84-6.726-9.405-1.608-3.495-2.552-7.253-2.589-10.847-.04-4.328 1.397-8.787 3.957-12.327 2.386-3.297 5.745-5.799 9.788-6.648l.004.013ZM52.809 31.965a.283.283 0 1 1 .284.49c-2.766 1.612-5.003 4.097-6.561 6.986-1.616 3-2.498 6.43-2.465 9.776.041 4.253 1.57 8.622 4.084 12.422 2.098 3.169 4.88 5.938 8.054 7.908 3.165 1.962 6.721 3.124 10.377 3.091 3.14-.032 6.36-.947 9.47-3.008a.284.284 0 0 1 .392.078.284.284 0 0 1-.078.392c-3.21 2.122-6.532 3.07-9.78 3.099-3.767.037-7.426-1.158-10.678-3.173-3.244-2.012-6.087-4.839-8.226-8.074-2.572-3.886-4.134-8.366-4.175-12.73-.033-3.442.87-6.97 2.53-10.053 1.603-2.98 3.92-5.543 6.776-7.208l-.004.004ZM81.722 9.437a.279.279 0 0 1-.35-.19.278.278 0 0 1 .193-.35c4.793-1.413 6.096-3.33 6.1-3.338a.284.284 0 1 1 .465.326c-.004.004-1.417 2.085-6.404 3.556l-.004-.004Z" clip-rule="evenodd"/>
  <path fill="#FF721A" fill-rule="evenodd" d="M59.04 122.475c19.877 5.832 38.423 2.209 54.805-9.648 20.52-14.85 13.877-33.956 1.434-56.351-1.042-1.875-2.027-4.212-2.934-7.427-2.362-8.362-2.263-11.494-1.183-15.863 1.414-5.72-1.805-7.22-4.587-7.282-4.575-.107-10.357 5.255-10.023 13.72.684 17.194 6.371 19.704 14.251 31.977 9.397 14.631 10.394 28.986-6.631 41.036-8.234 5.828-15.072 9.01-22.119 10.407-6.668 1.323-13.572.906-23.022-.569h.008Z" clip-rule="evenodd"/>
  <path fill="#00144A" fill-rule="evenodd" d="M104.988 33.723c-1.187 0-2.283 1.31-2.452 2.93-.169 1.616.655 2.93 1.842 2.93s2.283-1.31 2.452-2.93c.169-1.616-.655-2.93-1.842-2.93Z" clip-rule="evenodd"/>
</svg>
