<svg fill="none" xmlns="http://www.w3.org/2000/svg" viewBox="0 0 472 472">
  <mask id="a" style="mask-type:alpha" maskUnits="userSpaceOnUse" x="0" y="0" width="472" height="472">
    <circle cx="236" cy="236" r="235.468" fill="#EBF8FF"/>
  </mask>
  <g mask="url(#a)">
    <path d="M87.774 259.38s32.837 29.794 43.392 43.515 78.965 79.582 103.592 90.559c25.019 10.585 35.183 3.528 42.219-6.664 0 0 14.073 3.528 20.718-7.057 6.646-10.585 3.519-17.249 3.519-17.249s14.073 3.528 20.718-3.529c7.037-7.056-3.518-20.777-3.518-20.777s14.073 10.585 24.237 0c10.554-10.585 0-24.306-7.037-31.362-7.036-7.057-90.301-66.253-90.301-66.253s3.518-34.107-13.682-46.652c-17.591-12.545-93.82-12.545-93.82-12.545L87.774 259.38Z" fill="#F58B00"/>
    <path d="M138.202 180.975 87.774 259.38s16.028 14.506 29.319 27.835" fill="#CC7400"/>
    <path d="M339.524 180.975s-16.809 11.368-25.8 12.545c-8.991 1.176-29.71 8.232-68.019 11.76-38.31 3.529-73.101 17.25-76.229 24.306-3.518 7.057-3.518 27.834 20.719 24.306 24.236-3.528 20.718-14.113 38.309-14.113 17.591 0 23.455 4.312 23.455 4.312l84.047 61.157 66.064-58.412-62.546-65.861Z" fill="#D5DADD"/>
    <path d="m341.087 179.798 42.219 81.934 17.591-13.329-59.81-68.605Z" fill="#fff"/>
    <path d="M582.28-48.364 331.154 168.501a2.8 2.8 0 0 0-.231 4.015l79.77 86.757c.897.976 2.301 1.221 3.44.542 16.915-10.094 141.564-84.571 163.261-100.403 106.915-78.015 4.886-207.776 4.886-207.776Z" fill="#45484A"/>
    <path d="M276.586 305.64s35.182 30.578 41.828 34.106Z" fill="#CC7400"/>
    <path fill-rule="evenodd" clip-rule="evenodd" d="M275.109 304.356a1.952 1.952 0 0 1 2.758-.197l-1.281 1.481-1.28 1.481a1.965 1.965 0 0 1-.197-2.765Zm1.477 1.284-1.28 1.481.399.346 1.13.978a1605.324 1605.324 0 0 0 16.918 14.428c4.819 4.047 9.855 8.213 14.108 11.592 4.184 3.324 7.784 6.029 9.639 7.014a1.953 1.953 0 0 0 2.642-.815 1.964 1.964 0 0 0-.813-2.65c-1.468-.779-4.758-3.22-9.04-6.622-4.213-3.346-9.218-7.486-14.026-11.525a1555.55 1555.55 0 0 1-12.804-10.883 1646.587 1646.587 0 0 1-4.072-3.508c-.486-.421-.867-.75-1.125-.975l-.395-.342c-.001-.001 0 0-1.281 1.481Z" fill="#CC7400"/>
    <path d="M256.259 334.258s26.973 21.17 46.519 29.01Z" fill="#CC7400"/>
    <path fill-rule="evenodd" clip-rule="evenodd" d="M254.72 333.05a1.95 1.95 0 0 1 2.744-.336l-1.205 1.544-1.204 1.543c-.85-.667-1-1.899-.335-2.751Zm1.539 1.208-1.204 1.543.021.017.061.047.234.183a278.322 278.322 0 0 0 4.244 3.214 355.478 355.478 0 0 0 11.474 8.181c9.204 6.284 20.981 13.64 30.963 17.645a1.953 1.953 0 0 0 2.541-1.092 1.962 1.962 0 0 0-1.089-2.548c-9.563-3.837-21.046-10.985-30.215-17.246a350.362 350.362 0 0 1-11.346-8.089 293.902 293.902 0 0 1-4.18-3.166l-.225-.175-.057-.044-.017-.014-1.205 1.544Z" fill="#CC7400"/>
    <path d="M234.367 359.74s33.228 26.266 41.046 27.05Z" fill="#CC7400"/>
    <path fill-rule="evenodd" clip-rule="evenodd" d="M232.833 358.527a1.95 1.95 0 0 1 2.745-.326l-1.21 1.539-1.21 1.539a1.962 1.962 0 0 1-.325-2.752Zm1.535 1.213-1.21 1.539.098.078.282.222a526.444 526.444 0 0 0 4.959 3.836 521.598 521.598 0 0 0 12.324 9.15c4.658 3.343 9.589 6.732 13.865 9.342 2.136 1.304 4.137 2.431 5.877 3.264 1.683.806 3.318 1.435 4.656 1.569a1.957 1.957 0 0 0 2.14-1.755 1.959 1.959 0 0 0-1.751-2.145c-.616-.062-1.73-.425-3.361-1.206-1.573-.754-3.45-1.807-5.529-3.076-4.154-2.535-8.995-5.86-13.621-9.181a512.657 512.657 0 0 1-12.23-9.08 508.377 508.377 0 0 1-4.919-3.805l-.277-.218-.093-.073-1.21 1.539Z" fill="#CC7400"/>
    <path d="m28.534 86.769 124.678 91.398a2.8 2.8 0 0 1 .664 3.827l-58.9 87.066a2.8 2.8 0 0 1-3.628.906l-62.814-33.227V86.769Z" fill="#fff"/>
    <path d="m-102.797-48.363 249.269 213.991a2.8 2.8 0 0 1 .495 3.693l-64.805 95.794a2.8 2.8 0 0 1-3.658.89l-181.301-98.751V-48.363Z" fill="#A9B4BE"/>
    <path d="M226.549 388.75v-15.682l-10.945 9.801 10.945 5.881Z" fill="#4A5055"/>
    <path d="M161.267 375.029c-7.036-5.096-8.6-14.897-3.909-21.953l13.682-19.21c5.082-7.056 14.855-8.624 21.891-3.92 7.037 5.096 8.601 14.897 3.91 21.954l-13.682 19.209c-5.082 7.449-14.855 9.017-21.892 3.92Z" fill="#D5DADD"/>
    <path d="M183.549 385.613c-5.864-4.704-7.037-13.329-2.346-19.209l12.118-15.289c4.691-5.881 13.292-7.057 19.155-2.352 5.864 4.704 7.037 13.329 2.346 19.209l-12.119 15.289c-4.3 5.881-12.9 7.057-19.154 2.352ZM144.457 358.172c-6.646-3.921-8.6-12.153-4.691-18.818l9.773-16.857c3.909-6.664 12.118-8.625 18.764-4.704 6.645 3.92 8.6 12.153 4.691 18.817l-9.773 16.857c-3.909 6.665-12.119 8.625-18.764 4.705Z" fill="#D5DADD"/>
    <path d="M204.658 393.454c-4.3-3.136-5.864-9.016-2.737-13.721l10.946-17.249c3.127-4.312 8.991-5.88 13.682-2.744 4.3 3.136 5.864 9.017 2.736 13.721l-11.336 17.249c-2.737 4.312-8.991 5.489-13.291 2.744Z" fill="#D5DADD"/>
    <path fill-rule="evenodd" clip-rule="evenodd" d="M217.861 357.717a1.963 1.963 0 0 1 .542 2.718l-15.636 23.522a1.952 1.952 0 0 1-2.711.544 1.964 1.964 0 0 1-.542-2.719l15.637-23.521a1.95 1.95 0 0 1 2.71-.544ZM198.75 346.77a1.963 1.963 0 0 1 .468 2.732L183.19 372.24a1.95 1.95 0 0 1-2.724.469 1.964 1.964 0 0 1-.468-2.732l16.028-22.738a1.95 1.95 0 0 1 2.724-.469ZM174.86 330.275c.898.6 1.141 1.817.542 2.718l-15.636 23.522a1.952 1.952 0 0 1-2.711.543 1.963 1.963 0 0 1-.542-2.718l15.637-23.522a1.95 1.95 0 0 1 2.71-.543Z" fill="#767B7F"/>
    <path d="M40.367 230.249c-4.823.09-8.805-3.757-8.895-8.593-.09-4.837 3.746-8.83 8.569-8.921 4.822-.09 8.805 3.757 8.895 8.594.09 4.836-3.747 8.83-8.57 8.92ZM63.896 242.948c-4.822.09-8.805-3.757-8.895-8.594-.09-4.836 3.746-8.83 8.569-8.92 4.822-.09 8.805 3.757 8.895 8.593.09 4.837-3.746 8.83-8.569 8.921Z" fill="#fff"/>
  </g>
</svg>
