<svg xmlns="http://www.w3.org/2000/svg" width="1017" height="590" fill="none">
  <path fill="#FAC580" d="M84.58 105.302c29.079 0 52.651-23.573 52.651-52.651C137.231 23.573 113.659 0 84.581 0 55.502 0 31.93 23.573 31.93 52.65c0 29.079 23.572 52.652 52.65 52.652Z"/>
  <path fill="#E6E6E6" d="M508.198 590c280.671 0 508.202-9.224 508.202-20.603 0-11.378-227.531-20.602-508.202-20.602C227.528 548.795 0 558.019 0 569.397 0 580.776 227.528 590 508.198 590Z"/>
  <path fill="#FF721A" d="M129.338 311.2c71.431 0 129.338-57.906 129.338-129.338 0-71.431-57.907-129.338-129.338-129.338S0 110.431 0 181.862C0 253.294 57.907 311.2 129.338 311.2Z"/>
  <path fill="#45484A" d="M141.804 571.434h-26.492l12.077-409.051 14.415 409.051Z"/>
  <path fill="#45484A" d="m129.727 239.908 28.439-39.346-28.829 49.085-3.116-5.454 3.506-4.285ZM126.61 279.645l-28.438-39.346L127 289.384l3.117-5.454-3.507-4.285ZM525.427 571.796c133.067 0 240.939-107.872 240.939-240.939S658.494 89.918 525.427 89.918 284.488 197.79 284.488 330.857 392.36 571.796 525.427 571.796Z"/>
  <path fill="#fff" d="M525.427 551.85c122.051 0 220.994-98.942 220.994-220.993 0-122.052-98.943-220.994-220.994-220.994s-220.993 98.942-220.993 220.994c0 122.051 98.942 220.993 220.993 220.993Z"/>
  <path fill="#45484A" d="M524.628 361.173c16.303 0 29.519-13.216 29.519-29.519 0-16.303-13.216-29.519-29.519-29.519-16.303 0-29.519 13.216-29.519 29.519 0 16.303 13.216 29.519 29.519 29.519ZM531.013 121.033h-12.765v23.935h12.765v-23.935ZM531.013 518.342h-12.765v23.934h12.765v-23.934ZM337.943 338.036v-12.765h-23.934v12.765h23.934Z"/>
  <path fill="#45484A" d="m525.066 354.116 17.306-25.997 131.565 114.558-148.871-88.561ZM556.542 31.679h-62.23v71.803h62.23V31.679Z"/>
  <path fill="#45484A" d="M525.426 51.624c39.656 0 71.803-8.93 71.803-19.945 0-11.016-32.147-19.946-71.803-19.946s-71.803 8.93-71.803 19.946c0 11.015 32.147 19.945 71.803 19.945Z"/>
  <path fill="#00144A" d="M746.699 338.036v-12.765h-23.934v12.765h23.934Z"/>
  <path fill="#FFB8B8" d="m671.305 373.54-3.989 5.584s-18.349 21.541-19.147 11.17c-.798-10.372 13.563-17.552 13.563-17.552l7.978-4.787 1.595 5.585ZM784.871 392.382l3.34 5.995s11.616 25.803 1.901 22.085c-9.716-3.717-10.059-19.769-10.059-19.769l-.912-9.259 5.73.948Z"/>
  <path fill="#00144A" d="M766.91 286.073c13.417 0 24.293-10.876 24.293-24.293 0-13.416-10.876-24.293-24.293-24.293-13.416 0-24.293 10.877-24.293 24.293 0 13.417 10.877 24.293 24.293 24.293Z"/>
  <path fill="#FFB8B8" d="m764.65 461.297 3.192 20.743v6.383h18.349v-7.978s.798-14.361-2.393-18.35c-3.191-3.989-19.148-.798-19.148-.798ZM731.939 461.297l3.192 20.743v6.383h18.349v-7.978s.798-14.361-2.393-18.35c-3.191-3.989-19.148-.798-19.148-.798Z"/>
  <path fill="#FF721A" d="M744.287 294.678s-7.058 3.72-2.237 12.181c4.82 8.462 33.104 96.004 33.104 96.004l16.317-4.632-14.39-55.364-8.24-34.797-24.554-13.392Z"/>
  <path fill="#FFB8B8" d="M764.25 286.977c10.134 0 18.35-8.216 18.35-18.35 0-10.134-8.216-18.35-18.35-18.35-10.134 0-18.35 8.216-18.35 18.35 0 10.134 8.216 18.35 18.35 18.35Z"/>
  <path fill="#FFB8B8" d="m772.626 271.42-2.393 37.497-16.754-11.967s5.584-22.339 3.989-23.935l15.158-1.595Z"/>
  <path fill="#FF721A" d="m772.626 305.726-18.049-13.366s-8.279-3.388-10.672.601c-2.394 3.989-14.361 63.027-7.978 74.196 0 0 34.305 7.18 41.486 3.191l3.191-20.743s3.989-12.765-2.393-20.743l-5.585-23.136Z"/>
  <path fill="#FF721A" d="M748.693 293.758s-6.383-4.787-11.967 3.191c-5.585 7.979-72.601 71.006-72.601 71.006l11.169 12.765 43.88-36.7 27.923-22.338 1.596-27.924Z"/>
  <path fill="#00144A" d="M777.813 369.949s-39.491-7.579-43.48-1.995l-.798 8.776s-8.776 16.754-3.989 43.88c4.787 27.125 1.596 43.879 1.596 43.879s21.54-2.393 37.497 0c15.956 2.394 18.349 0 18.349 0l-9.175-94.54ZM787.787 485.232l-23.137.798 7.979 59.836s-6.383 25.53.797 27.125a80.92 80.92 0 0 0 15.159 1.596s7.18 7.18 15.158 6.383a44.683 44.683 0 0 0 15.158-4.787s1.596-4.787-3.989-6.383c-5.584-1.595-20.743-6.382-23.934-23.136l-3.191-61.432Z"/>
  <path fill="#00144A" d="m755.076 485.232-23.137.798 7.979 59.836s-6.383 25.53.797 27.125a80.92 80.92 0 0 0 15.159 1.596s7.18 7.18 15.158 6.383a44.688 44.688 0 0 0 15.159-4.787s1.595-4.787-3.99-6.383c-5.584-1.595-20.743-6.382-23.934-23.136l-3.191-61.432ZM775.408 246.264c5.551 0 10.052-4.501 10.052-10.053 0-5.551-4.501-10.052-10.052-10.052-5.552 0-10.053 4.501-10.053 10.052 0 5.552 4.501 10.053 10.053 10.053Z"/>
  <path fill="#00144A" d="M788.812 230.766a10.05 10.05 0 0 0-2.584-6.727 10.047 10.047 0 0 0-6.421-3.271 10.052 10.052 0 1 1 0 19.996 10.053 10.053 0 0 0 9.005-9.998ZM764.084 266.681c9.253 0 16.753-4.501 16.753-10.053 0-5.551-7.5-10.052-16.753-10.052s-16.754 4.501-16.754 10.052c0 5.552 7.501 10.053 16.754 10.053Z"/>
  <path fill="#F16A36" d="M603.002 469.417v-17.416h6.333v17.31a7.862 7.862 0 0 0 1.289 4.779 4.826 4.826 0 0 0 1.846 1.282 4.874 4.874 0 0 0 2.234.311 4.648 4.648 0 0 0 2.185-.311 4.594 4.594 0 0 0 1.786-1.282 7.494 7.494 0 0 0 1.289-4.779V452h6.226v17.417a17.137 17.137 0 0 1-.644 4.673 9.546 9.546 0 0 1-2.147 3.611 8.114 8.114 0 0 1-3.65 2.23 15.42 15.42 0 0 1-5.153.743 15.417 15.417 0 0 1-5.153-.743 8.965 8.965 0 0 1-3.561-2.239 8.824 8.824 0 0 1-2.129-3.602 13.833 13.833 0 0 1-.752-4.673h.001Zm28.771 10.832v-28.248H638v28.248h-6.227Zm10.198-3.186 3.222-4.035c.961.864 2.046 1.58 3.22 2.124a9.88 9.88 0 0 0 3.865.849c1.932 0 3.327-.424 4.187-1.38a5.136 5.136 0 0 0 1.288-3.611 5.08 5.08 0 0 0-1.289-3.717 4.564 4.564 0 0 0-1.667-1.096 4.605 4.605 0 0 0-1.983-.284 6.345 6.345 0 0 0-2.791.637 7.482 7.482 0 0 0-2.469 2.018l-4.08-1.275 1.181-15.187h17.392l-.322 4.567h-12.239l-.536 6.372a9.283 9.283 0 0 1 2.147-1.274 11.514 11.514 0 0 1 3.65-.531 10.153 10.153 0 0 1 3.972.743 7.932 7.932 0 0 1 2.942 1.959 7.809 7.809 0 0 1 1.782 3.033 9.469 9.469 0 0 1 .536 3.823 11.41 11.41 0 0 1-.751 4.142 9.67 9.67 0 0 1-2.255 3.185 12.1 12.1 0 0 1-3.542 2.124 14.277 14.277 0 0 1-4.724.744 15.452 15.452 0 0 1-6.119-1.062 22.447 22.447 0 0 1-4.617-2.868Z"/>
</svg>
