<svg xmlns="http://www.w3.org/2000/svg" fill="none" viewBox="0 0 225 155">
  <path fill="#00144A" d="M113.087 154.473c29.204 0 81.33-4.806 82.843-13.641 1.628-8.991-41.189-15.347-82.843-11.936-41.654-3.256-84.472 3.1-82.843 11.936 1.629 8.99 53.755 13.641 82.843 13.641Z"/>
  <path fill="#FFC378" d="m112.537 125.289-90.2-15.312c6.67 37.209 90.2 34.579 90.2 34.579s83.531 2.63 90.2-34.579l-90.2 15.312Z"/>
  <path fill="#E66500" d="M224.271 97.6c0-20.042-50.021-36.291-111.734-36.291C50.824 61.309.804 77.559.804 97.6s50.02 36.292 111.733 36.292 111.734-16.25 111.734-36.292Z"/>
  <path fill="#D5DADD" d="M112.538 131.181c-65.23 0-109.03-17.371-109.03-33.58 0-16.21 43.8-33.58 109.03-33.58S221.567 81.39 221.567 97.6c0 16.209-43.819 33.58-109.029 33.58Z"/>
  <path fill="#FFC378" d="M112.537 127.96c-64.783 0-104.556-17.677-104.556-30.359 0-12.682 39.773-30.359 104.556-30.359 64.783 0 104.556 17.677 104.556 30.359 0 12.682-39.773 30.359-104.556 30.359Z"/>
  <path fill="#D5DADD" d="M203.347 94.624c-8.418-31.399-46.117-79.333-90.444-79.292-40.85.04-82.026 47.914-90.444 79.292-2.908 10.867 44.998 22.55 90.627 22.57 41.42 0 93.169-11.703 90.261-22.57Z"/>
  <path fill="#fff" d="M94.888 28.055S53.651 48.688 37.689 94.624c0 0 13.299 7.646 18.626 5.444 5.328-2.202 7.808-45.039 38.573-72.013Z"/>
  <path fill="#fff" d="M103.977 31.847s-18.748 9.5-30.765 40.655c0 0 19.439-3.996 30.765-40.655Z"/>
  <path fill="#E66500" d="M125.449 12.947c0 6.85-5.53 12.396-12.363 12.396-6.832 0-12.362-5.545-12.362-12.396 0-6.85 5.53-12.396 12.362-12.396 6.833 0 12.363 5.546 12.363 12.396Z"/>
  <path fill="#fff" d="M105.869 19.492S94.543 4.18 115.751 1.712c0 0-10.065 6.464-9.882 17.78Z"/>
</svg>
