<svg xmlns="http://www.w3.org/2000/svg" fill="none" viewBox="0 0 900 635">
  <path fill="#E66500" d="M100.334 507.842c-19.317 0-38-6.899-52.68-19.454-4.898-4.192-10.116-11.48-15.51-21.66a49.542 49.542 0 0 1-1.571-42.766 56.802 56.802 0 0 1-9.387 7.7l-1.716 1.142-.1-2.058a82.01 82.01 0 0 1-.097-3.965c0-7.615 5.76-15.343 3.104-22.383-11.197-29.669-46.71-59.154 4.759-105.071 4.761-4.248-1.6-12.74-1.6-19.167 0-62.982 68.433-157.46 114.244-114.221 26.741 25.239 82.452 43.168 108.464 78.274l.344 1.04-1.015.411a61.216 61.216 0 0 1-16.266 4.326 77.545 77.545 0 0 0 18.138 1.52l.943-.033.23.917a114.736 114.736 0 0 1 3.406 27.766l-.004 1.012a50.596 50.596 0 0 0 16.712 37.723 81.25 81.25 0 0 1 26.506 59.951c0 13.352-9.075 30.878-16.687 43.23a24.45 24.45 0 0 1-17.946 11.495 23.88 23.88 0 0 1-19.267-6.224 78.955 78.955 0 0 0 13.923 19.711l1.039 1.071-1.29.751a81.004 81.004 0 0 1-40.832 11.027l-.84-.002c-21.782 0-42.457 8.438-56.724 23.152a81.676 81.676 0 0 1-58.28 24.785Z"/>
  <path fill="#00144A" d="M71.749 634.82a1.462 1.462 0 0 1-1.441-1.253c-.062-.435-6.129-44.187-.68-102.335 5.031-53.701 21.19-131.05 69.594-194.575a1.45 1.45 0 0 1 .965-.563 1.47 1.47 0 0 1 1.079.285 1.466 1.466 0 0 1 .562.966 1.47 1.47 0 0 1-.287 1.079c-47.986 62.977-64.014 139.758-69.01 193.08-5.417 57.81.602 101.22.663 101.652a1.457 1.457 0 0 1-.84 1.532c-.19.087-.396.132-.605.132Z"/>
  <path fill="#00144A" d="M115.946 424.655a1.457 1.457 0 0 1-.858-2.637 200.907 200.907 0 0 1 44.356-22.58c24.472-8.959 61.686-17.082 99.996-4.889a1.456 1.456 0 0 1 .228 2.684 1.455 1.455 0 0 1-1.112.094c-37.525-11.942-74.064-3.954-98.109 4.849a197.645 197.645 0 0 0-43.645 22.2 1.455 1.455 0 0 1-.856.279Z"/>
  <path fill="#E66500" d="M702.334 507.841a81.058 81.058 0 0 1-52.681-19.453c-4.897-4.192-10.115-11.48-15.509-21.661a49.536 49.536 0 0 1-1.571-42.765 56.796 56.796 0 0 1-9.387 7.7l-1.716 1.142-.099-2.058a82.169 82.169 0 0 1-.098-3.965c0-7.615 5.76-15.343 3.103-22.383-11.196-29.669-46.708-59.154 4.76-105.071 4.761-4.248-1.599-12.74-1.599-19.167 0-62.982 89.015-171.942 114.243-114.221 31.113 71.185 84.717 63.571 108.464 78.274l.344 1.04-1.015.411a61.216 61.216 0 0 1-16.266 4.326 77.545 77.545 0 0 0 18.138 1.52l.943-.033.23.917a114.736 114.736 0 0 1 3.406 27.766l-.004 1.012a50.596 50.596 0 0 0 16.712 37.723 81.257 81.257 0 0 1 19.568 27.183 81.26 81.26 0 0 1 6.938 32.768c0 13.352-9.075 30.878-16.687 43.23a24.45 24.45 0 0 1-17.946 11.495 23.874 23.874 0 0 1-19.267-6.224 78.955 78.955 0 0 0 13.923 19.711l1.039 1.07-1.29.752a81.004 81.004 0 0 1-40.832 11.027l-.84-.002c-21.782 0-42.457 8.438-56.724 23.152a81.676 81.676 0 0 1-58.28 24.784Z"/>
  <path fill="#00144A" d="M673.749 634.82a1.459 1.459 0 0 1-1.441-1.253c-.062-.435-6.129-44.187-.68-102.335 5.031-53.701 21.19-131.05 69.594-194.575a1.45 1.45 0 0 1 .965-.563 1.47 1.47 0 0 1 1.079.285 1.466 1.466 0 0 1 .562.966 1.47 1.47 0 0 1-.287 1.079c-47.986 62.977-64.014 139.758-69.011 193.08-5.416 57.81.603 101.22.664 101.652a1.466 1.466 0 0 1-.343 1.161 1.447 1.447 0 0 1-1.102.503Z"/>
  <path fill="#00144A" d="M713.946 427.655a1.457 1.457 0 0 1-.858-2.637 200.907 200.907 0 0 1 44.356-22.58c24.472-8.959 61.686-17.082 99.996-4.889a1.456 1.456 0 0 1 .228 2.684 1.455 1.455 0 0 1-1.112.094c-37.525-11.942-74.064-3.954-98.109 4.849a197.645 197.645 0 0 0-43.645 22.2 1.455 1.455 0 0 1-.856.279ZM647.226 261.479a1.457 1.457 0 0 1 2.568-1.046 200.915 200.915 0 0 1 25.715 42.615c10.699 23.764 21.48 60.295 12.078 99.385a1.472 1.472 0 0 1-.656.903 1.467 1.467 0 0 1-1.103.174 1.472 1.472 0 0 1-.902-.656 1.467 1.467 0 0 1-.174-1.103c9.209-38.288-1.389-74.157-11.901-97.506a197.661 197.661 0 0 0-25.286-41.932 1.45 1.45 0 0 1-.339-.834ZM48.225 252.479a1.458 1.458 0 0 1 2.569-1.046 200.933 200.933 0 0 1 25.715 42.615c10.699 23.764 21.48 60.295 12.078 99.385a1.454 1.454 0 0 1-.656.903 1.46 1.46 0 0 1-2.005-.482 1.462 1.462 0 0 1-.174-1.103c9.21-38.288-1.39-74.157-11.901-97.506a197.626 197.626 0 0 0-25.286-41.932 1.454 1.454 0 0 1-.34-.834Z"/>
  <path fill="#D5DADD" d="M450.6 105.109a15.66 15.66 0 0 0-13.584-4.547 15.67 15.67 0 0 0-11.603 8.399c-23.719 16.508-38.756 38.626-44.43 66.798l-42.078-38.178a15.298 15.298 0 1 0-12.641 12.759c7.725 13.112 43.555 71.097 65.669 57.822 18.588-11.159 51.599-66.446 61.297-84.782a15.667 15.667 0 0 0-2.63-18.271Z"/>
  <path fill="#FF961E" d="M451.946 130.428c2.113-5.727 3.806-12.04 1.974-17.863-2.015-6.404-8.207-10.99-14.827-12.105-6.62-1.116-13.5.881-19.192 4.44-5.692 3.56-10.322 8.588-14.434 13.894l1.101-1.753-16.062 21.043 40.768 28.324a124.355 124.355 0 0 0 20.672-35.98Z"/>
  <path fill="#D5DADD" d="m393.337 613.598-19.464-.001-9.26-75.08 28.728.001-.004 75.08Z"/>
  <path fill="#00144A" d="m394.023 633.903-59.857-.002v-.757a23.296 23.296 0 0 1 23.298-23.297h.001l10.934-8.295 20.4 8.296h5.225l-.001 24.055Z"/>
  <path fill="#D5DADD" d="m678.864 337.172 8.17 17.666-64.254 39.926-12.06-26.075 68.144-31.517Z"/>
  <path fill="#00144A" d="m697.005 328.024 25.128 54.327-.687.318a23.302 23.302 0 0 1-30.926-11.364l-.001-.002-12.118-6.44-1.036-21.998-2.193-4.743 21.833-10.098ZM423.95 274.237l-11.83 14.488c.269 3.923-.968 6.165-4.642 5.684 0 0 .549 7.183-3.953 4.841-4.501-2.343-3.397 4.16-3.397 4.16l-3.364 4.12s-.105 7.005-3.423 4.191c-3.317-2.814-4.381 5.366-4.381 5.366l-4.222 5.17-43.038 52.705 24.126 193.715 28.198-1.77 6.873-169.825c1.753-4.683 4.414-7.136 8.483-6.134 1.822.399 2.888-.696 3.558-2.573l3.242-2.344 42.433-30.684 56.05 96.058 139.361-73.498-13-25-97.768 32.346-2.564-30.587c-3.34-1.945-2.779-4.27-.566-6.755l-.64-7.633c3.315-2.034 1.672-5.258-.726-8.663-5.007-3.698-4.516-7.909-1.039-12.4 0 0 4.391-57.451-16.899-65.379-21.29-7.927-96.872 20.401-96.872 20.401Z"/>
  <path fill="#FF961E" d="m465.743 85.656-26.719 1.25-14 20.001a111.042 111.042 0 0 0-7.641 68.494l9.641 46.506-2.555 34.486c-6.844 5.521-7.413 12.012-1.445 19.514-7.347 25.35 55.172 13.941 113 5 .2-12.078-2.93-24.376-11-37l7.781-100.757-28.781-34.243L481.996 94.4l-16.253-8.744Z"/>
  <path fill="#D5DADD" d="M490.748 113.291a15.677 15.677 0 0 0-7.56 12.167 15.673 15.673 0 0 0 5.494 13.229c3.224 20.916 23.248 41.064 54.737 58.65l-46.861 32.128a15.303 15.303 0 0 0-17.463 4.316 15.298 15.298 0 0 0 5.953 24.031 15.298 15.298 0 0 0 21.006-13.103c14.541-4.488 79.231-25.965 71.42-50.546-6.566-20.662-52.739-65.544-68.341-79.213a15.667 15.667 0 0 0-18.385-1.659ZM445.701 80.584c19.321 0 34.984-15.663 34.984-34.984s-15.663-34.984-34.984-34.984-34.984 15.663-34.984 34.984 15.663 34.984 34.984 34.984Z"/>
  <path fill="#00144A" d="M482.051 23.335c-1.658-2.152-3.556-4.128-4.999-6.43-1.39-2.215-2.339-4.702-3.906-6.797-4.634-6.194-13.25-7.46-20.947-8.232L436.952.348a35.255 35.255 0 0 0-8.62-.156A17.889 17.889 0 0 0 415.33 9.38c-1.489 2.818-2.484 6.33-5.388 7.644a34.782 34.782 0 0 1-4.172 1.037c-1.372.425-2.751 1.521-2.7 2.957.095 2.658 4.785 4.18 3.64 6.58-1.01 2.12-5.056.616-5.63 3.817a3.353 3.353 0 0 0 .672 2.635c1.305 1.672 3.446 2.106 5.454 2.475l-3.565 5.098a52.766 52.766 0 0 0 36.265 1.408 11.154 11.154 0 0 1 14.598 11.788l-.016.145a3.13 3.13 0 0 0 1.255 2.954c1.809 1.23 3.647-.496 4.467-2.202.834-1.736 1.388-3.842 3.407-4.45a3.923 3.923 0 0 1 4.345 1.82c1.57 2.464.925 5.404.022 8.012a43.269 43.269 0 0 1-9.937 16.053c7.6-.503 5.376.259 12.977-.244l2.12.33c5.086-3.173 7.607-9.21 8.948-15.053 3.042-13.254 8.258-28.076-.041-38.848Z"/>
  <path fill="#FF961E" d="M511.712 110.427c-5.052-3.427-10.773-6.587-16.866-6.207-6.701.417-12.639 5.325-15.313 11.484-2.673 6.158-2.388 13.316-.3 19.697 2.088 6.381 5.856 12.082 10.019 17.349l-1.437-1.49 16.568 20.647 37.289-32.769a124.374 124.374 0 0 0-29.96-28.711Z"/>
  <path fill="#6D6D6D" d="m525.899 634.086-271.75.308a1.186 1.186 0 0 1-.842-.349 1.179 1.179 0 0 1-.349-.842 1.193 1.193 0 0 1 1.191-1.191l271.75-.307a1.19 1.19 0 0 1 0 2.381ZM779.899 634.086l-156.75.308a1.19 1.19 0 0 1-1.1-1.647 1.179 1.179 0 0 1 .644-.644 1.19 1.19 0 0 1 .456-.091l156.75-.307a1.19 1.19 0 0 1 0 2.381ZM156.899 634.086l-146.75.308a1.188 1.188 0 0 1-1.1-.735 1.196 1.196 0 0 1 .258-1.298 1.186 1.186 0 0 1 .842-.349l146.75-.307a1.187 1.187 0 0 1 1.194 1.191 1.193 1.193 0 0 1-1.194 1.19Z"/>
</svg>
