<svg fill="none" xmlns="http://www.w3.org/2000/svg" viewBox="0 0 343 212">
  <rect x="122.312" width="206.14" height="135.228" rx="6.596" fill="#A9B4BE"/>
  <rect x="36.559" width="85.754" height="135.228" rx="6.596" fill="#A9B4BE"/>
  <rect x="135.506" y="18.141" width="171.509" height="98.947" rx="6.596" fill="#fff"/>
  <rect x="49.75" y="18.141" width="59.368" height="98.947" rx="6.596" fill="#00144A"/>
  <mask id="a" style="mask-type:alpha" maskUnits="userSpaceOnUse" x="49" y="18" width="61" height="100">
    <rect x="49.754" y="18.141" width="59.368" height="98.947" rx="6.596" fill="#fff"/>
  </mask>
  <g mask="url(#a)">
    <path d="M156.902 57.215c1.165-29.76-23.795-49.58-47.634-58.216-6.641-2.945-11.515-5.005-15.298-8.23-.517 11.214 30.382 20.96 37.331 37.272 4.785 9.903 4.232 15.27.103 22.33-3.261 5.081-10.955 9.132-15.73 4.764 2.877-2.284 6.502-7.1 6.096-13.05l-.054.036c-1.903 1.255-4.022 2.608-6.519 3.669 2.079-5.4 1.854-10.923.866-17.036-1.56 3.463-.461 4.294-9.86 10.334 1.289-2.96 1.554-10.854-1.561-15.342 2.378 19.312-41.054 20.287-31.03 39.864.168-1.503.891-2.072 2.676-2.854 5.781-2.315 13.356 2.457 11.526 9.43-4.12 13.643-21.962 10.747-28.965.495-8.033-12.268-9.878-24.373 2.986-40.438 6.447-7.373 16.631-12.375 17.837-22.49C59.248 24.78 32.33 31.933 35.117 65.998c2.97 38.509 45.282 63.414 80.69 50.329l-.102-.291.126.281c24.61-8.244 42.186-33.07 41.071-59.104l.001.001Zm-20.11 45.173-.131.121c-12.981-7.223-20.196-16.49-26.646-26.44 9.069 10.276 27.929 13.275 39.101 10.16a59.765 59.765 0 0 1-12.324 16.159Zm-19.148 12.038a60.332 60.332 0 0 1-9.03 2.749c5.029-12.692 4.984-26.575.796-39.914 6.422 9.759 13.533 18.805 26.339 26.062a60.435 60.435 0 0 1-18.105 11.103ZM77.659 11.108c-2.705 7.483-11.308 12.064-16.68 18.372-12.635 15.804-11.966 28.207-3.042 41.897C64.31 80.073 76.2 83.68 84.563 77.42c6.058-4.354 6.423-15.23-1.238-17.613 9.479-.612 23.69 1.653 31.455-3.937 9.29 7.693 21.72-5.71 20.942-15.766.143-13.396-12.334-26.168-27.059-34.926C99.625-.315 96.604-4.425 95.597-6.55c18.199 10.031 45.591 17.72 55.086 40.29 4.455 8.412-.038 40.364-25.043 42.78-7.091.8-13.974-1.652-19.613-6.402 1.162 14.24-9.986 26.891-26.436 28.244-17.018 2.352-32.57-8.627-39.026-24.31C27.237 38.772 54.43 27.547 77.659 11.109Zm-.424 48.159a9.274 9.274 0 0 0-2.284.84c.862-1.73 3.531-5.02 6.006-6.627.56.008 1.8.377 2.455.597l.093-.292-.066.301c.924.286 1.882.634 2.86.492l-.035-.305.06.302c2.058-.222 2.636-3.081.946-4.163 3.402-1.074 7.378-1.414 11.083-1.176-5.454 5.7-13.752 8.413-21.12 10.031h.002Zm24.729-24.89c1.442-1.487 3.068-3.992 3.546-5.594 1.363 5.189-.456 10.187-.834 11.138-3.954 2.065-8.17 3.611-12.426 4.924C84.5 47.37 76.301 50.4 73.26 57.73c3.108-12.87 20.627-13.38 28.704-23.35v-.002Zm18.556 9.88c-2.375 11.06-9.213 13.777-20.728 14.254 6.058-1.767 11.569-5.7 14.692-11.244l.091-.02.004-.018c1.886-.547 4.449-2.054 5.941-2.973Zm-19.941 3.822.071.051h-.012l-.059-.05ZM84.183 58.626c5.895-1.773 11.513-4.792 15.726-9.345 4.387.012 8.751-.677 13.019-1.653-3.483 5.503-9.439 9.08-15.76 10.366-4.084.916-9.215.462-13.018.641l.031-.01h.002Zm-.428-5.64c-.427-.136-.931-.3-1.384-.415 1.318-.632 3.722-2.536 4.703-.608.365 1.962-1.87 1.605-3.319 1.02v.003Zm29.936-6.714c-4.181 1.01-8.444 1.751-12.747 1.855 1.873-2.194 3.507-4.734 4.656-7.387 5.567-2.794 8.501-5.998 9.798-7.745.799 7.555-1.249 12.324-1.707 13.275v.002Zm-39.24 11.543c1.703-4.134 5.74-6.682 9.582-8.614 3.32-1.653 6.882-2.75 10.41-3.85 3.243-1.061 6.448-2.285 9.517-3.783-1.2 2.379-2.753 4.589-4.544 6.56-9.945-.99-20.728 2.65-25.41 11.311.077-.481.213-1.029.444-1.622v-.002Zm58.708 28.081c-9.41-1.124-17.278-5.077-23.417-11.755 22.738 13.212 46.664-10.947 43.347-34.035 4.369 14.178 3.518 31.297-3.274 44.772-1.618.417-8.493 1.995-16.656 1.018Zm-97.01-25.132c1.373 21.826 21.122 42.088 43.586 38.733 13.57-1.333 24.853-9.672 27.031-22.79 1.072 16.588-9.002 32.144-23.872 40.608-14.331-2.974-27.41-11.546-36.01-23.396C39.76 83.586 35.978 74.62 36.148 60.764Zm64.085 42.404c5.404-7.266 8.393-18.547 7.655-26.885 4.61 13.757 4.773 28.104-.625 41.174-7.544 1.473-14.982 1.559-22.637.141 6.516-4.083 11.765-8.935 15.609-14.43h-.002Z" fill="#F58B00"/>
  </g>
  <path d="M153.646 41.228h135.228M153.646 57.72h75.86M153.646 95.648h28.036M260.84 95.648h28.035M206.418 95.648h28.035" stroke="#F58B00" stroke-width="6.596" stroke-linecap="round"/>
  <path stroke="#00144A" stroke-width="3.298" stroke-linecap="round" stroke-dasharray="9.89 9.89" d="M122.311 6.596v122.035"/>
  <rect x="122.312" width="206.14" height="135.228" rx="6.596" fill="#00144A" fill-opacity=".18"/>
  <rect x="36.559" width="85.754" height="135.228" rx="6.596" fill="#00144A" fill-opacity=".18"/>
  <g filter="url(#b)">
    <rect x="100.732" y="45.768" width="212.133" height="139.159" rx="6.788" transform="rotate(-7.735 100.732 45.768)" fill="#A9B4BE"/>
    <rect x="13.287" y="57.645" width="88.247" height="139.159" rx="6.788" transform="rotate(-7.735 13.287 57.645)" fill="#A9B4BE"/>
    <rect x="116.699" y="62.438" width="176.494" height="101.824" rx="6.788" transform="rotate(-7.735 116.699 62.438)" fill="#fff"/>
    <rect x="29.254" y="74.316" width="61.094" height="101.824" rx="6.788" transform="rotate(-7.735 29.254 74.316)" fill="#00144A"/>
    <mask id="c" style="mask-type:alpha" maskUnits="userSpaceOnUse" x="30" y="66" width="73" height="109">
      <rect x="29.252" y="74.315" width="61.094" height="101.824" rx="6.788" transform="rotate(-7.735 29.252 74.315)" fill="#fff"/>
    </mask>
    <g mask="url(#c)">
      <path d="M143.918 99.319c-2.935-30.508-31.132-47.26-56.637-52.766-7.18-2.083-12.435-3.508-16.74-6.273 1.027 11.506 33.885 17.166 43.23 32.836 6.25 9.436 6.431 14.985 3.198 22.755-2.622 5.633-9.906 10.83-15.38 7.037 2.617-2.727 5.646-8.14 4.409-14.152l-.05.045c-1.768 1.543-3.741 3.216-6.14 4.644 1.372-5.794.377-11.395-1.476-17.491-1.112 3.746.124 4.442-8.623 11.903.904-3.198.08-11.283-3.717-15.429 5.1 19.364-39.053 26.374-26.121 44.948-.036-1.556.622-2.237 2.335-3.281 5.573-3.162 13.96.655 13.06 8.02-2.314 14.482-20.908 14-29.468 4.517-9.891-11.397-13.449-23.486-2.557-41.65 5.553-8.41 15.245-14.922 15.074-25.404-18.468 20.194-44.926 31.216-37.367 65.566 8.362 38.857 54.958 58.391 89.252 40.144l-.145-.282.168.269c23.952-11.815 38.436-39.565 33.693-65.958l.002.002Zm-14.25 48.848-.116.142c-14.238-5.568-22.879-14.018-30.834-23.27 10.67 9.222 30.318 9.668 41.279 4.943a61.536 61.536 0 0 1-10.329 18.185Zm-17.858 14.927a62.1 62.1 0 0 1-8.827 4.055c3.37-13.64 1.401-27.79-4.717-40.811 7.9 9.061 16.405 17.301 30.468 22.927a62.183 62.183 0 0 1-16.924 13.829ZM56.726 63.279c-1.72 8.005-9.859 13.867-14.463 21.044-10.695 17.866-8.295 30.421 2.7 43.144 7.705 7.984 20.328 10.015 27.988 2.474 5.575-5.279 4.44-16.421-3.702-17.789 9.581-1.938 24.386-1.596 31.53-8.372 10.538 6.558 21.357-8.83 19.171-18.977-1.71-13.68-16.201-24.975-32.43-31.866-9.977-4.348-13.626-8.121-14.947-10.149 19.946 7.708 48.943 11.755 61.751 33.455 5.708 7.96 5.552 41.164-19.611 47.091-7.12 1.798-14.478.251-20.886-3.811 3.157 14.359-6.458 28.804-23.045 32.462-17.027 4.755-34.407-4.286-43.162-19.383-18.477-34.131 7.698-49.344 29.107-69.323Zm6.238 49.167a9.574 9.574 0 0 0-2.212 1.173c.64-1.884 2.905-5.609 5.206-7.59.573-.069 1.888.135 2.587.269l.054-.311-.025.317c.981.163 2.006.385 2.984.105l-.079-.306.104.299c2.068-.511 2.261-3.507.388-4.376 3.32-1.566 7.328-2.463 11.138-2.734-4.771 6.567-12.857 10.484-20.146 13.154h.001ZM84.733 83.64c1.265-1.716 2.576-4.496 2.842-6.195 2.108 5.102.946 10.45.692 11.473-3.746 2.653-7.83 4.813-11.989 6.742-7.553 3.647-15.494 7.872-17.58 15.768 1.387-13.554 19.18-16.5 26.035-27.787v-.001Zm20.29 7.504c-.889 11.607-7.486 15.325-19.161 17.406 5.933-2.64 11.007-7.414 13.423-13.5l.09-.034.003-.018c1.847-.82 4.251-2.71 5.645-3.854Zm-19.804 6.66.08.042-.013.002-.067-.044ZM69.96 110.83c5.766-2.624 11.076-6.48 14.74-11.707 4.477-.595 8.831-1.902 13.048-3.489-2.79 6.094-8.367 10.567-14.635 12.754-4.037 1.499-9.332 1.748-13.186 2.457l.031-.015h.002Zm-1.217-5.692c-.455-.079-.992-.177-1.47-.231 1.256-.827 3.444-3.101 4.712-1.271.644 1.95-1.684 1.895-3.243 1.501v.001Zm29.595-10.992c-4.123 1.609-8.367 2.956-12.741 3.657 1.606-2.496 2.92-5.313 3.724-8.177 5.29-3.62 7.838-7.294 8.919-9.255 1.861 7.593.433 12.74.097 13.773v.002ZM59.924 111.35c1.165-4.452 4.928-7.609 8.578-10.111 3.157-2.146 6.637-3.757 10.082-5.368 3.16-1.531 6.26-3.223 9.18-5.176-.894 2.592-2.17 5.06-3.724 7.32-10.279.367-20.77 5.571-24.343 15.053a8.104 8.104 0 0 1 .227-1.717v-.001Zm63.755 20.503c-9.751.156-18.321-2.784-25.507-8.744 25.016 10.323 46.068-17.626 39.488-40.709 6.418 13.852 7.922 31.426 2.862 46.108-1.592.648-8.384 3.21-16.843 3.345ZM21.275 119.663c4.425 22.066 27.37 39.992 49.81 33.459 13.654-3.238 24.004-13.305 24.408-26.982 3.391 16.765-4.727 34.023-18.718 44.714-15.025-1.048-29.549-7.978-39.96-18.87-8.697-9.549-13.794-18.167-15.54-32.321Zm71.223 34.363c4.504-8.158 5.989-20.074 4.082-28.475 6.606 13.39 8.759 27.997 5.065 42.072-7.488 2.547-15.061 3.665-23.064 3.279 6.08-5.066 10.76-10.74 13.918-16.876h-.001Z" fill="#F58B00"/>
    </g>
    <path d="m138.393 83.468 137.892-18.73M140.676 100.284l77.354-10.507M145.93 138.962l28.587-3.883M255.234 124.114l28.588-3.883M199.742 131.651l28.588-3.883" stroke="#F58B00" stroke-width="6.788" stroke-linecap="round"/>
  </g>
  <defs>
    <filter id="b" x=".562" y="7.884" width="341.829" height="203.774" filterUnits="userSpaceOnUse" color-interpolation-filters="sRGB">
      <feFlood flood-opacity="0" result="BackgroundImageFix"/>
      <feColorMatrix in="SourceAlpha" values="0 0 0 0 0 0 0 0 0 0 0 0 0 0 0 0 0 0 127 0" result="hardAlpha"/>
      <feOffset dy="3.394"/>
      <feGaussianBlur stdDeviation="6.788"/>
      <feColorMatrix values="0 0 0 0 0 0 0 0 0 0 0 0 0 0 0 0 0 0 0.2 0"/>
      <feBlend in2="BackgroundImageFix" result="effect1_dropShadow_21_339"/>
      <feColorMatrix in="SourceAlpha" values="0 0 0 0 0 0 0 0 0 0 0 0 0 0 0 0 0 0 127 0" result="hardAlpha"/>
      <feOffset/>
      <feGaussianBlur stdDeviation="1.697"/>
      <feColorMatrix values="0 0 0 0 1 0 0 0 0 1 0 0 0 0 1 0 0 0 0.6 0"/>
      <feBlend in2="effect1_dropShadow_21_339" result="effect2_dropShadow_21_339"/>
      <feBlend in="SourceGraphic" in2="effect2_dropShadow_21_339" result="shape"/>
    </filter>
  </defs>
</svg>
