<svg width="733" height="91" viewBox="0 0 733 91" fill="none" xmlns="http://www.w3.org/2000/svg">
<path d="M238.405 4.07031H214.086V79.7656H238.405V4.07031Z" fill="#6D6D6D"/>
<path d="M161.928 90.0397C167.628 90.0397 172.249 85.44 172.249 79.766C172.249 74.0919 167.628 69.4922 161.928 69.4922C156.228 69.4922 151.607 74.0919 151.607 79.766C151.607 85.44 156.228 90.0397 161.928 90.0397Z" fill="#D5DADD"/>
<path d="M164.816 79.7651C164.816 81.3396 163.511 82.6386 161.93 82.6386C160.348 82.6386 159.043 81.3396 159.043 79.7651C159.043 78.1906 160.348 76.8916 161.93 76.8916C163.511 76.8916 164.816 78.1906 164.816 79.7651Z" fill="#00144A"/>
<path d="M186.84 90.0397C192.54 90.0397 197.161 85.44 197.161 79.766C197.161 74.0919 192.54 69.4922 186.84 69.4922C181.14 69.4922 176.52 74.0919 176.52 79.766C176.52 85.44 181.14 90.0397 186.84 90.0397Z" fill="#D5DADD"/>
<path d="M189.726 79.7651C189.726 81.3396 188.421 82.6386 186.84 82.6386C185.258 82.6386 183.953 81.3396 183.953 79.7651C183.953 78.1906 185.258 76.8916 186.84 76.8916C188.421 76.8916 189.726 78.1906 189.726 79.7651Z" fill="#00144A"/>
<path d="M53.6607 79.766C53.6607 85.4343 49.0342 90.0397 43.3401 90.0397C37.646 90.0397 33.0195 85.4343 33.0195 79.766C33.0195 74.0977 37.646 69.4922 43.3401 69.4922C49.0342 69.4922 53.6607 74.0977 53.6607 79.766Z" fill="#D5DADD"/>
<path d="M46.2654 79.7651C46.2654 81.3396 44.9605 82.6386 43.3788 82.6386C41.7971 82.6386 40.4922 81.3396 40.4922 79.7651C40.4922 78.1906 41.7971 76.8916 43.3788 76.8916C44.9605 76.8916 46.2654 78.1906 46.2654 79.7651Z" fill="#00144A"/>
<path d="M78.5728 79.766C78.5728 85.4343 73.9463 90.0397 68.2522 90.0397C62.5581 90.0397 57.9316 85.4343 57.9316 79.766C57.9316 74.0977 62.5581 69.4922 68.2522 69.4922C73.9463 69.4922 78.5728 74.0977 78.5728 79.766Z" fill="#D5DADD"/>
<path d="M71.1794 79.7651C71.1794 81.3396 69.8745 82.6386 68.2928 82.6386C66.7111 82.6386 65.4062 81.3396 65.4062 79.7651C65.4062 78.1906 66.7111 76.8916 68.2928 76.8916C69.8745 76.8916 71.1794 78.1906 71.1794 79.7651Z" fill="#00144A"/>
<path d="M216.655 1H6.17114C2.91718 1 0.279297 3.6259 0.279297 6.8651V77.5613C0.279297 80.8005 2.91718 83.4264 6.17114 83.4264H216.655C219.909 83.4264 222.547 80.8005 222.547 77.5613V6.8651C222.547 3.6259 219.909 1 216.655 1Z" fill="#F79C37"/>
<path d="M222.547 8.71484H0.279297V42.1341H222.547V8.71484Z" fill="#00144A"/>
<path d="M76.6353 16.2725H64.1795C62.3232 16.2725 60.8184 17.7705 60.8184 19.6183V32.0177C60.8184 33.8656 62.3232 35.3636 64.1795 35.3636H76.6353C78.4916 35.3636 79.9965 33.8656 79.9965 32.0177V19.6183C79.9965 17.7705 78.4916 16.2725 76.6353 16.2725Z" fill="#D5DADD"/>
<path d="M104.354 16.2725H91.8982C90.042 16.2725 88.5371 17.7705 88.5371 19.6183V32.0177C88.5371 33.8656 90.042 35.3636 91.8982 35.3636H104.354C106.21 35.3636 107.715 33.8656 107.715 32.0177V19.6183C107.715 17.7705 106.21 16.2725 104.354 16.2725Z" fill="#D5DADD"/>
<path d="M130.926 16.2725H118.471C116.614 16.2725 115.109 17.7705 115.109 19.6183V32.0177C115.109 33.8656 116.614 35.3636 118.471 35.3636H130.926C132.783 35.3636 134.287 33.8656 134.287 32.0177V19.6183C134.287 17.7705 132.783 16.2725 130.926 16.2725Z" fill="#D5DADD"/>
<path d="M222.547 53.8643H0.279297V62.6816H222.547V53.8643Z" fill="#E66500"/>
<path d="M12.7734 42.1347V16.1551C12.7734 12.573 15.6996 9.66016 19.2979 9.66016H39.0296C42.628 9.66016 45.5541 12.573 45.5541 16.1551V42.0954H12.813L12.7734 42.1347Z" fill="#00144A"/>
<path d="M35.4322 16.2725H22.9764C21.1201 16.2725 19.6152 17.7705 19.6152 19.6183V32.0177C19.6152 33.8656 21.1201 35.3636 22.9764 35.3636H35.4322C37.2885 35.3636 38.7933 33.8656 38.7933 32.0177V19.6183C38.7933 17.7705 37.2885 16.2725 35.4322 16.2725Z" fill="#D5DADD"/>
<path d="M45.5146 53.8643H12.7734V62.6816H45.5146V53.8643Z" fill="#E66500"/>
<path d="M157.817 16.2725H145.361C143.505 16.2725 142 17.7705 142 19.6183V32.0177C142 33.8656 143.505 35.3636 145.361 35.3636H157.817C159.673 35.3636 161.178 33.8656 161.178 32.0177V19.6183C161.178 17.7705 159.673 16.2725 157.817 16.2725Z" fill="#D5DADD"/>
<path d="M209.181 42.1347V16.1551C209.181 12.573 206.255 9.66016 202.657 9.66016H182.925C179.327 9.66016 176.4 12.573 176.4 16.1551V42.0954H209.142L209.181 42.1347Z" fill="#00144A"/>
<path d="M199.02 16.2725H186.564C184.708 16.2725 183.203 17.7705 183.203 19.6183V32.0177C183.203 33.8656 184.708 35.3636 186.564 35.3636H199.02C200.876 35.3636 202.381 33.8656 202.381 32.0177V19.6183C202.381 17.7705 200.876 16.2725 199.02 16.2725Z" fill="#D5DADD"/>
<path d="M209.183 53.8643H176.441V62.6816H209.183V53.8643Z" fill="#E66500"/>
<path d="M470.36 4.07031H446.041V79.7656H470.36V4.07031Z" fill="#6D6D6D"/>
<path d="M393.844 90.0397C399.544 90.0397 404.164 85.44 404.164 79.766C404.164 74.0919 399.544 69.4922 393.844 69.4922C388.144 69.4922 383.523 74.0919 383.523 79.766C383.523 85.44 388.144 90.0397 393.844 90.0397Z" fill="#D5DADD"/>
<path d="M396.73 79.7651C396.73 81.3396 395.425 82.6386 393.844 82.6386C392.262 82.6386 390.957 81.3396 390.957 79.7651C390.957 78.1906 392.262 76.8916 393.844 76.8916C395.425 76.8916 396.73 78.1906 396.73 79.7651Z" fill="#00144A"/>
<path d="M418.756 90.0397C424.456 90.0397 429.077 85.44 429.077 79.766C429.077 74.0919 424.456 69.4922 418.756 69.4922C413.056 69.4922 408.436 74.0919 408.436 79.766C408.436 85.44 413.056 90.0397 418.756 90.0397Z" fill="#D5DADD"/>
<path d="M421.644 79.7651C421.644 81.3396 420.339 82.6386 418.758 82.6386C417.176 82.6386 415.871 81.3396 415.871 79.7651C415.871 78.1906 417.176 76.8916 418.758 76.8916C420.339 76.8916 421.644 78.1906 421.644 79.7651Z" fill="#00144A"/>
<path d="M285.618 79.766C285.618 85.4343 280.991 90.0397 275.297 90.0397C269.603 90.0397 264.977 85.4343 264.977 79.766C264.977 74.0977 269.603 69.4922 275.297 69.4922C280.991 69.4922 285.618 74.0977 285.618 79.766Z" fill="#D5DADD"/>
<path d="M278.183 79.7651C278.183 81.3396 276.878 82.6386 275.297 82.6386C273.715 82.6386 272.41 81.3396 272.41 79.7651C272.41 78.1906 273.715 76.8916 275.297 76.8916C276.878 76.8916 278.183 78.1906 278.183 79.7651Z" fill="#00144A"/>
<path d="M300.207 90.0397C305.907 90.0397 310.528 85.44 310.528 79.766C310.528 74.0919 305.907 69.4922 300.207 69.4922C294.507 69.4922 289.887 74.0919 289.887 79.766C289.887 85.44 294.507 90.0397 300.207 90.0397Z" fill="#D5DADD"/>
<path d="M303.093 79.7651C303.093 81.3396 301.789 82.6386 300.207 82.6386C298.625 82.6386 297.32 81.3396 297.32 79.7651C297.32 78.1906 298.625 76.8916 300.207 76.8916C301.789 76.8916 303.093 78.1906 303.093 79.7651Z" fill="#00144A"/>
<path d="M448.571 1H238.087C234.833 1 232.195 3.6259 232.195 6.8651V77.5613C232.195 80.8005 234.833 83.4264 238.087 83.4264H448.571C451.825 83.4264 454.463 80.8005 454.463 77.5613V6.8651C454.463 3.6259 451.825 1 448.571 1Z" fill="#F79C37"/>
<path d="M454.463 8.71484H232.195V42.1341H454.463V8.71484Z" fill="#00144A"/>
<path d="M308.551 16.2725H296.096C294.239 16.2725 292.734 17.7705 292.734 19.6183V32.0177C292.734 33.8656 294.239 35.3636 296.096 35.3636H308.551C310.408 35.3636 311.912 33.8656 311.912 32.0177V19.6183C311.912 17.7705 310.408 16.2725 308.551 16.2725Z" fill="#D5DADD"/>
<path d="M336.27 16.2725H323.814C321.958 16.2725 320.453 17.7705 320.453 19.6183V32.0177C320.453 33.8656 321.958 35.3636 323.814 35.3636H336.27C338.126 35.3636 339.631 33.8656 339.631 32.0177V19.6183C339.631 17.7705 338.126 16.2725 336.27 16.2725Z" fill="#D5DADD"/>
<path d="M362.844 16.2725H350.388C348.532 16.2725 347.027 17.7705 347.027 19.6183V32.0177C347.027 33.8656 348.532 35.3636 350.388 35.3636H362.844C364.701 35.3636 366.205 33.8656 366.205 32.0177V19.6183C366.205 17.7705 364.701 16.2725 362.844 16.2725Z" fill="#D5DADD"/>
<path d="M454.463 53.8643H232.195V62.6816H454.463V53.8643Z" fill="#E66500"/>
<path d="M244.691 42.1347V16.1551C244.691 12.573 247.618 9.66016 251.216 9.66016H270.948C274.546 9.66016 277.472 12.573 277.472 16.1551V42.0954H244.731L244.691 42.1347Z" fill="#00144A"/>
<path d="M267.348 16.2725H254.892C253.036 16.2725 251.531 17.7705 251.531 19.6183V32.0177C251.531 33.8656 253.036 35.3636 254.892 35.3636H267.348C269.205 35.3636 270.709 33.8656 270.709 32.0177V19.6183C270.709 17.7705 269.205 16.2725 267.348 16.2725Z" fill="#D5DADD"/>
<path d="M389.731 16.2725H377.275C375.419 16.2725 373.914 17.7705 373.914 19.6183V32.0177C373.914 33.8656 375.419 35.3636 377.275 35.3636H389.731C391.587 35.3636 393.092 33.8656 393.092 32.0177V19.6183C393.092 17.7705 391.587 16.2725 389.731 16.2725Z" fill="#D5DADD"/>
<path d="M441.097 42.1347V16.1551C441.097 12.573 438.171 9.66016 434.573 9.66016H414.841C411.243 9.66016 408.316 12.573 408.316 16.1551V42.0954H441.058L441.097 42.1347Z" fill="#00144A"/>
<path d="M430.934 16.2725H418.478C416.622 16.2725 415.117 17.7705 415.117 19.6183V32.0177C415.117 33.8656 416.622 35.3636 418.478 35.3636H430.934C432.79 35.3636 434.295 33.8656 434.295 32.0177V19.6183C434.295 17.7705 432.79 16.2725 430.934 16.2725Z" fill="#D5DADD"/>
<path d="M441.097 53.8643H408.355V62.6816H441.097V53.8643Z" fill="#E66500"/>
<path d="M665.184 79.766C665.184 85.4343 660.558 90.0397 654.864 90.0397C649.169 90.0397 644.543 85.4343 644.543 79.766C644.543 74.0977 649.169 69.4922 654.864 69.4922C660.558 69.4922 665.184 74.0977 665.184 79.766Z" fill="#D5DADD"/>
<path d="M657.752 79.7651C657.752 81.3396 656.447 82.6386 654.865 82.6386C653.283 82.6386 651.979 81.3396 651.979 79.7651C651.979 78.1906 653.283 76.8916 654.865 76.8916C656.447 76.8916 657.752 78.1906 657.752 79.7651Z" fill="#00144A"/>
<path d="M679.776 90.0397C685.475 90.0397 690.096 85.44 690.096 79.766C690.096 74.0919 685.475 69.4922 679.776 69.4922C674.076 69.4922 669.455 74.0919 669.455 79.766C669.455 85.44 674.076 90.0397 679.776 90.0397Z" fill="#D5DADD"/>
<path d="M682.662 79.7651C682.662 81.3396 681.357 82.6386 679.775 82.6386C678.194 82.6386 676.889 81.3396 676.889 79.7651C676.889 78.1906 678.194 76.8916 679.775 76.8916C681.357 76.8916 682.662 78.1906 682.662 79.7651Z" fill="#00144A"/>
<path d="M516.071 90.0397C521.771 90.0397 526.391 85.44 526.391 79.766C526.391 74.0919 521.771 69.4922 516.071 69.4922C510.371 69.4922 505.75 74.0919 505.75 79.766C505.75 85.44 510.371 90.0397 516.071 90.0397Z" fill="#D5DADD"/>
<path d="M518.918 79.7651C518.918 81.3396 517.613 82.6386 516.031 82.6386C514.449 82.6386 513.145 81.3396 513.145 79.7651C513.145 78.1906 514.449 76.8916 516.031 76.8916C517.613 76.8916 518.918 78.1906 518.918 79.7651Z" fill="#00144A"/>
<path d="M540.981 90.0397C546.681 90.0397 551.301 85.44 551.301 79.766C551.301 74.0919 546.681 69.4922 540.981 69.4922C535.281 69.4922 530.66 74.0919 530.66 79.766C530.66 85.44 535.281 90.0397 540.981 90.0397Z" fill="#D5DADD"/>
<path d="M543.828 79.7651C543.828 81.3396 542.523 82.6386 540.941 82.6386C539.36 82.6386 538.055 81.3396 538.055 79.7651C538.055 78.1906 539.36 76.8916 540.941 76.8916C542.523 76.8916 543.828 78.1906 543.828 79.7651Z" fill="#00144A"/>
<path d="M664 1.0003H471.151C467.276 1.0003 464.152 4.10999 464.152 7.96757V76.42C464.152 80.2776 467.276 83.3873 471.151 83.3873H715.286C733.792 83.3873 733.001 69.6102 733.001 69.6102C733.001 31.7035 702.119 0.960938 664.039 0.960938L664 1.0003Z" fill="#F79C37"/>
<path d="M727.227 42.1341H693.458C682.544 42.1341 672.659 35.6786 668.348 25.6803L662.18 11.3915C662.18 9.9351 663.366 8.71484 664.869 8.71484H695.83C695.83 8.71484 716.788 17.8864 727.227 42.1341Z" fill="#D5DADD"/>
<path d="M464.152 42.1344H590.53C594.01 42.1344 596.817 39.3396 596.817 35.8757V14.9345C596.817 11.4706 594.01 8.67578 590.53 8.67578H464.152V42.0951V42.1344Z" fill="#00144A"/>
<path d="M529.712 16.2725H517.256C515.399 16.2725 513.895 17.7705 513.895 19.6183V32.0177C513.895 33.8656 515.399 35.3636 517.256 35.3636H529.712C531.568 35.3636 533.073 33.8656 533.073 32.0177V19.6183C533.073 17.7705 531.568 16.2725 529.712 16.2725Z" fill="#D5DADD"/>
<path d="M557.432 16.2725H544.976C543.12 16.2725 541.615 17.7705 541.615 19.6183V32.0177C541.615 33.8656 543.12 35.3636 544.976 35.3636H557.432C559.288 35.3636 560.793 33.8656 560.793 32.0177V19.6183C560.793 17.7705 559.288 16.2725 557.432 16.2725Z" fill="#D5DADD"/>
<path d="M584.438 16.2725H571.982C570.126 16.2725 568.621 17.7705 568.621 19.6183V32.0177C568.621 33.8656 570.126 35.3636 571.982 35.3636H584.438C586.294 35.3636 587.799 33.8656 587.799 32.0177V19.6183C587.799 17.7705 586.294 16.2725 584.438 16.2725Z" fill="#D5DADD"/>
<path d="M732.645 62.6816H464.152V53.8643H731.143C732.171 57.7612 732.606 62.6816 732.606 62.6816H732.645Z" fill="#E66500"/>
<path d="M650.712 8.71514H652.254C655.141 8.71514 657.75 10.4865 658.858 13.1632L666.608 32.4511C668.466 37.096 665.026 42.1344 660.004 42.1344H650.672C646.758 42.1344 643.555 38.9854 643.555 35.0491V15.7611C643.555 11.8642 646.718 8.67578 650.672 8.67578L650.712 8.71514Z" fill="#D5DADD"/>
<path d="M631.258 8.71484H609.667C605.955 8.71484 602.945 11.7108 602.945 15.4066V66.5393C602.945 70.235 605.955 73.231 609.667 73.231H631.258C634.97 73.231 637.98 70.235 637.98 66.5393V15.4066C637.98 11.7108 634.97 8.71484 631.258 8.71484Z" fill="#E66500"/>
<path d="M626.71 16.2725H614.254C612.397 16.2725 610.893 17.7705 610.893 19.6183V32.0177C610.893 33.8656 612.397 35.3636 614.254 35.3636H626.71C628.566 35.3636 630.071 33.8656 630.071 32.0177V19.6183C630.071 17.7705 628.566 16.2725 626.71 16.2725Z" fill="#D5DADD"/>
<path d="M636.794 53.8643H604.053V62.6816H636.794V53.8643Z" fill="#E66500"/>
<path d="M504.761 42.1347V16.1551C504.761 12.573 501.835 9.66016 498.237 9.66016H478.505C474.907 9.66016 471.98 12.573 471.98 16.1551V42.0954H504.722L504.761 42.1347Z" fill="#00144A"/>
<path d="M494.598 16.2725H482.142C480.286 16.2725 478.781 17.7705 478.781 19.6183V32.0177C478.781 33.8656 480.286 35.3636 482.142 35.3636H494.598C496.455 35.3636 497.959 33.8656 497.959 32.0177V19.6183C497.959 17.7705 496.455 16.2725 494.598 16.2725Z" fill="#D5DADD"/>
<path d="M504.761 53.8643H472.02V62.6816H504.761V53.8643Z" fill="#E66500"/>
</svg>
