<svg xmlns="http://www.w3.org/2000/svg" width="1185" height="548" fill="none">
  <path fill="#E6E6E6" d="m465.212 464.215-371.04 77.883c-13.204 2.757-26.155-5.715-28.944-18.936l-60.2-286.793c-2.762-13.227 5.69-26.192 18.888-28.977l371.04-77.883c13.204-2.758 26.155 5.715 28.944 18.936l60.2 286.793c2.762 13.227-5.689 26.192-18.888 28.977ZM24.778 211.499c-10.937 2.31-17.936 13.048-15.65 24.009l60.2 286.793c2.314 10.955 13.04 17.973 23.983 15.69l371.039-77.883c10.937-2.31 17.936-13.048 15.65-24.009l-60.2-286.793c-2.314-10.956-13.04-17.973-23.982-15.69l-371.04 77.883Z"/>
  <path fill="#fff" d="m464.58 462.304-370.595 77.79c-12.247 2.557-24.256-5.298-26.844-17.556L7.031 236.171c-2.56-12.264 5.278-24.284 17.52-26.868l370.594-77.79c12.247-2.556 24.256 5.298 26.844 17.556l60.11 286.367c2.56 12.264-5.278 24.285-17.519 26.868Z"/>
  <path fill="#FF721A" d="M144.433 396.671c24.593-5.162 40.299-29.502 35.08-54.366-5.219-24.863-29.387-40.834-53.98-35.672-24.593 5.163-40.298 29.503-35.08 54.366 5.22 24.864 29.387 40.835 53.98 35.672Z"/>
  <path fill="#00144A" d="M417.15 388.889a22.28 22.28 0 0 1-4.901 1.634l-299.56 62.879a22.31 22.31 0 0 1-11.118-.494l.557-1.314 23.321-55.144 34.559-81.697.505-1.196 5.438-12.854a5.815 5.815 0 0 1 9.348-1.962l33.711 31.83 19.836 18.742 47.342 44.706 38.621-90.286a5.816 5.816 0 0 1 7.642-3.065 5.68 5.68 0 0 1 1.693 1.105l45.972 43.064 2.642 2.473 44.392 41.579Z"/>
  <path fill="#00144A" d="m412.582 391.475-299.47 62.861c-12.419 2.621-24.612-5.352-27.24-17.804a1.93 1.93 0 0 1-.009-.041L49.94 265.344c-2.602-12.464 5.347-24.672 17.774-27.295l299.469-62.86c12.432-2.595 24.62 5.386 27.249 17.844l35.925 171.147c2.626 12.445-5.307 24.664-17.719 27.284l-.055.011ZM68 239.417c-11.67 2.464-19.14 13.936-16.697 25.641l35.925 171.147c2.44 11.698 13.888 19.206 25.556 16.771l299.511-62.869c11.668-2.434 19.148-13.894 16.707-25.592L393.067 193.32c-2.47-11.7-13.923-19.2-25.598-16.763l-299.47 62.86Z"/>
  <rect width="384.178" height="305.273" x="847.548" y="2.724" fill="#fff" stroke="#E6E6E6" stroke-width="4" rx="21" transform="rotate(29.392 847.548 2.724)"/>
  <rect width="319.25" height="198.624" x="859.455" y="47.733" fill="#F2F2F2" rx="23" transform="rotate(29.392 859.455 47.733)"/>
  <path fill="#E6E6E6" d="M951.563 545.488H572.437c-13.489-.014-24.423-10.966-24.437-24.478V227.967c.014-13.512 10.948-24.465 24.437-24.479h379.126c13.489.014 24.423 10.967 24.437 24.479V521.01c-.014 13.512-10.948 24.464-24.437 24.478ZM572.437 207.685c-11.178.014-20.234 9.085-20.248 20.282V521.01c.014 11.197 9.07 20.268 20.248 20.282h379.126c11.178-.014 20.234-9.085 20.248-20.282V227.967c-.014-11.197-9.07-20.268-20.248-20.282H572.437Z"/>
  <path fill="#fff" d="M951.336 543.488H572.664c-12.51-.014-22.65-10.168-22.664-22.696V228.185c.014-12.529 10.154-22.683 22.664-22.697h378.672c12.51.014 22.65 10.168 22.664 22.697v292.607c-.014 12.528-10.154 22.682-22.664 22.696Z"/>
  <path fill="#FF721A" d="M651.5 413.488c25.129 0 45.5-20.595 45.5-46s-20.371-46-45.5-46-45.5 20.595-45.5 46 20.371 46 45.5 46Z"/>
  <path fill="#00144A" d="M920 461.896c-1.68.397-3.403.592-5.132.592H608.779c-3.772 0-7.481-.948-10.779-2.768l.816-1.171 34.151-49.177 50.605-72.855.74-1.067 7.962-11.463a5.816 5.816 0 0 1 9.552 0l26.454 38.077 15.562 22.416 37.149 53.479 56.344-80.427a5.818 5.818 0 0 1 8.109-1.43 5.679 5.679 0 0 1 1.429 1.43l36.145 51.589 2.078 2.963L920 461.896Z"/>
  <path fill="#00144A" d="M914.998 463.488H609.002c-12.693.014-22.988-10.294-23.002-23.019V265.55c.014-12.733 10.302-23.048 23.002-23.062h305.996c12.7.014 22.988 10.329 23.002 23.062v174.877c.014 12.718-10.26 23.047-22.946 23.061h-.056ZM609.002 243.886c-11.926.014-21.594 9.707-21.608 21.664v174.877c-.014 11.95 9.647 21.65 21.566 21.664h306.038c11.919.014 21.594-9.665 21.608-21.615V265.55c-.014-11.957-9.682-21.65-21.608-21.664H609.002Z"/>
</svg>
