<svg xmlns="http://www.w3.org/2000/svg" xml:space="preserve" fill-rule="evenodd" stroke-linejoin="round" stroke-miterlimit="2" clip-rule="evenodd" viewBox="0 0 1434 863">
  <path fill="#3b4673" d="M297.852 0h833.181l294.361.281.04 563.651c0 162.609-131.814 294.423-294.401 294.423H297.852c-162.587 0-294.401-131.814-294.401-294.423V294.401C3.451 131.814 135.265 0 297.852 0Z"/>
  <path fill="#fff" fill-rule="nonzero" d="M301.091 485.17h-36.024c-24.48 0-43.794-7.14-57.9-21.441-14.062-14.279-21.093-33.81-21.093-58.593V277.618c0-24.761 7.031-44.292 21.093-58.594 14.106-14.279 33.42-21.441 57.9-21.441h119.531c3.754 0 5.642 2.257 5.642 6.771v274.045c0 4.514-1.888 6.771-5.642 6.771h-16.406c-4.124 0-6.164-2.257-6.164-6.771V455.83h-2.257c-9.787 19.575-29.34 29.34-58.68 29.34Zm60.937-80.642V228.052c0-3.407-1.888-5.121-5.642-5.121h-89.062c-17.318 0-30.469 4.904-39.497 14.67-9.028 9.787-13.542 23.502-13.542 41.146v125.26c0 17.665 4.514 31.38 13.542 41.146 9.028 9.787 22.179 14.67 39.497 14.67h36.631c18.056 0 32.227-4.796 42.535-14.41 10.352-9.592 15.538-23.22 15.538-40.885Zm146.576 55.295h89.67c17.296 0 30.556-4.796 39.757-14.41 9.201-9.592 13.802-23.394 13.802-41.406V273.712c0-17.643-4.601-31.272-13.802-40.886-9.201-9.592-22.461-14.409-39.757-14.409h-37.24c-18.055 0-32.269 4.817-42.621 14.409-10.308 9.614-15.451 23.243-15.451 40.886v180.989c0 3.429 1.866 5.122 5.642 5.122Zm-33.854 18.576V95.5c0-4.514 1.866-6.771 5.642-6.771h16.406c4.102 0 6.164 2.257 6.164 6.771v126.91h2.257c10.525-19.553 30.078-29.34 58.68-29.34h37.153c24.479 0 43.75 7.161 57.812 21.441 14.106 14.301 21.181 33.658 21.181 58.072v132.553c0 24.782-7.075 44.314-21.181 58.593-14.062 14.301-33.333 21.441-57.812 21.441h-120.66c-3.776 0-5.642-2.257-5.642-6.771Zm393.536 6.771h-36.024c-24.479 0-43.794-7.14-57.899-21.441-14.063-14.279-21.094-33.81-21.094-58.593V277.618c0-24.761 7.031-44.292 21.094-58.594 14.105-14.279 33.42-21.441 57.899-21.441h119.531c3.754 0 5.643 2.257 5.643 6.771v274.045c0 4.514-1.889 6.771-5.643 6.771h-16.406c-4.123 0-6.163-2.257-6.163-6.771V455.83h-2.257c-9.788 19.575-29.341 29.34-58.681 29.34Zm60.938-80.642V228.052c0-3.407-1.888-5.121-5.643-5.121h-89.062c-17.318 0-30.469 4.904-39.497 14.67-9.027 9.787-13.541 23.502-13.541 41.146v125.26c0 17.665 4.514 31.38 13.541 41.146 9.028 9.787 22.179 14.67 39.497 14.67h36.632c18.055 0 32.226-4.796 42.535-14.41 10.351-9.592 15.538-23.22 15.538-40.885Zm134.766 164.67h-16.407c-3.776 0-5.642-2.083-5.642-6.25V204.354c0-4.514 1.866-6.771 5.642-6.771h16.407c4.101 0 6.163 2.257 6.163 6.771v22.57h2.257c10.525-19.553 30.078-29.341 58.68-29.341h38.282c24.066 0 43.055 7.162 56.944 21.441 13.932 14.302 20.92 33.833 20.92 58.594v127.518c0 24.783-6.988 44.314-20.92 58.593-13.889 14.301-32.878 21.441-56.944 21.441h-38.282c-28.602 0-48.155-9.765-58.68-29.34h-2.257v107.118c0 4.167-2.062 6.25-6.163 6.25Zm64.236-109.375h37.239c17.296 0 30.556-4.796 39.757-14.41 9.202-9.592 13.802-23.394 13.802-41.406v-125.26c0-17.991-4.6-31.793-13.802-41.407-9.201-9.592-22.461-14.409-39.757-14.409h-37.239c-18.056 0-32.27 4.817-42.622 14.409-10.308 9.614-15.451 23.243-15.451 40.886v126.302c0 17.665 5.143 31.293 15.451 40.885 10.352 9.614 24.566 14.41 42.622 14.41Z"/>
  <path fill="#fff" fill-rule="nonzero" d="M1070.03 364.948v349.045c0 4.514-2.062 6.771-6.163 6.771h-16.32c-3.776 0-5.642-2.257-5.642-6.771V364.948c0-4.514 1.866-6.771 5.642-6.771h16.32c4.101 0 6.163 2.257 6.163 6.771ZM260.515 720.047v4.948c0 1.562-.781 2.343-2.344 2.343h-31.076c-9.332 0-16.71-2.712-22.136-8.159-5.382-5.491-8.073-12.978-8.073-22.483v-48.698c0-9.483 2.691-16.949 8.073-22.396 5.426-5.49 12.804-8.246 22.136-8.246h31.076c1.563 0 2.344.781 2.344 2.343v5.209c0 1.454-.781 2.17-2.344 2.17h-30.208c-6.598 0-11.632 1.888-15.104 5.642-3.429 3.711-5.122 8.941-5.122 15.712v47.83c0 6.771 1.693 12.044 5.122 15.799 3.472 3.71 8.506 5.555 15.104 5.555h30.208c1.563 0 2.344.825 2.344 2.431Zm70.087 7.291h-18.577c-9.331 0-16.71-2.712-22.135-8.159-5.382-5.491-8.073-12.978-8.073-22.483v-48.698c0-9.483 2.691-16.949 8.073-22.396 5.425-5.49 12.804-8.246 22.135-8.246h18.577c9.309 0 16.688 2.756 22.135 8.246 5.49 5.447 8.247 12.913 8.247 22.396v48.698c0 9.505-2.757 16.992-8.247 22.483-5.447 5.447-12.826 8.159-22.135 8.159Zm-17.709-9.722h16.841c6.597 0 11.653-1.823 15.191-5.469 3.515-3.646 5.295-8.854 5.295-15.625v-48.35c0-6.706-1.78-11.893-5.295-15.539-3.538-3.689-8.594-5.555-15.191-5.555h-16.841c-6.597 0-11.632 1.866-15.104 5.555-3.429 3.646-5.121 8.833-5.121 15.539v48.35c0 6.771 1.692 11.979 5.121 15.625 3.472 3.646 8.507 5.469 15.104 5.469Zm86.432 9.722h-6.25c-1.454 0-2.17-.868-2.17-2.604V619.96c0-1.736.716-2.604 2.17-2.604h6.25c1.562 0 2.344.868 2.344 2.604v8.594h.868c4.036-7.466 11.545-11.198 22.482-11.198h14.236c9.202 0 16.45 2.756 21.789 8.246 5.316 5.447 7.986 12.913 7.986 22.396v76.736c0 1.736-.738 2.604-2.17 2.604h-6.25c-1.628 0-2.431-.868-2.431-2.604v-76.302c0-6.771-1.736-12.001-5.208-15.712-3.429-3.754-8.42-5.642-15.018-5.642h-14.062c-6.901 0-12.327 1.866-16.32 5.555-3.949 3.646-5.902 8.833-5.902 15.539v76.562c0 1.736-.782 2.604-2.344 2.604ZM522.85 617.356h19.618c1.736 0 2.604.781 2.604 2.343v5.035c0 1.563-.868 2.344-2.604 2.344H522.85c-1.28 0-1.91.651-1.91 1.91v95.746c0 1.736-.824 2.604-2.43 2.604h-6.25c-1.563 0-2.344-.868-2.344-2.604v-95.746c0-1.259-.651-1.91-1.91-1.91h-13.802c-1.628 0-2.43-.781-2.43-2.344v-5.035c0-1.562.802-2.343 2.43-2.343h13.802c1.259 0 1.91-.63 1.91-1.91v-9.462c0-20.139 9.136-30.208 27.43-30.208h5.122c1.736 0 2.604.781 2.604 2.344v4.947c0 1.628-.868 2.431-2.604 2.431h-4.08c-6.489 0-11.024 1.736-13.628 5.208-2.561 3.429-3.82 8.638-3.82 15.625v9.115c0 1.28.63 1.91 1.91 1.91Zm39.447 107.639v-19.011c0-10.069 4.296-18.338 12.934-24.826l42.447-32.292c7.336-5.599 11.025-12.804 11.025-21.615v-8.333c0-13.824-6.836-20.746-20.486-20.746h-15.539c-13.498 0-20.225 6.922-20.225 20.746v9.636c0 1.736-.825 2.604-2.431 2.604h-6.25c-1.562 0-2.344-.868-2.344-2.604v-9.896c0-9.31 2.713-16.624 8.16-21.962 5.491-5.317 12.891-7.986 22.222-7.986h17.535c9.31 0 16.667 2.647 22.049 7.899 5.382 5.208 8.073 12.565 8.073 22.049v9.028c0 11.241-4.514 20.29-13.542 27.17l-42.882 32.986c-6.076 4.644-9.115 10.33-9.115 17.1v12.5h63.803c1.605 0 2.43.782 2.43 2.344v5.209c0 1.562-.825 2.343-2.43 2.343h-72.83c-1.736 0-2.604-.781-2.604-2.343Zm135.589-7.379h19.879c6.597 0 11.588-1.823 15.017-5.469 3.472-3.646 5.208-8.941 5.208-15.885v-76.563c0-6.879-1.736-12.152-5.208-15.798-3.429-3.646-8.42-5.469-15.017-5.469h-19.879c-6.597 0-11.632 1.823-15.104 5.469-3.429 3.646-5.121 8.919-5.121 15.798v76.563c0 6.944 1.692 12.239 5.121 15.885 3.472 3.646 8.507 5.469 15.104 5.469Zm20.747 9.722h-21.615c-9.331 0-16.732-2.712-22.222-8.159-5.447-5.491-8.16-12.978-8.16-22.483v-77.344c0-9.483 2.713-16.949 8.16-22.396 5.49-5.49 12.891-8.246 22.222-8.246h21.615c9.31 0 16.666 2.756 22.048 8.246 5.382 5.447 8.073 12.913 8.073 22.396v77.344c0 9.505-2.691 16.992-8.073 22.483-5.382 5.447-12.738 8.159-22.048 8.159Zm57.499-2.343v-19.011c0-10.069 4.297-18.338 12.934-24.826l42.448-32.292c7.335-5.599 11.024-12.804 11.024-21.615v-8.333c0-13.824-6.836-20.746-20.486-20.746h-15.538c-13.498 0-20.226 6.922-20.226 20.746v9.636c0 1.736-.824 2.604-2.43 2.604h-6.25c-1.563 0-2.344-.868-2.344-2.604v-9.896c0-9.31 2.713-16.624 8.16-21.962 5.49-5.317 12.89-7.986 22.222-7.986h17.535c9.309 0 16.666 2.647 22.048 7.899 5.382 5.208 8.073 12.565 8.073 22.049v9.028c0 11.241-4.514 20.29-13.542 27.17l-42.881 32.986c-6.077 4.644-9.115 10.33-9.115 17.1v12.5h63.802c1.606 0 2.431.782 2.431 2.344v5.209c0 1.562-.825 2.343-2.431 2.343h-72.83c-1.736 0-2.604-.781-2.604-2.343Zm165.798-35.591v-92.1l-54.34 92.1h54.34Zm8.16 37.934h-5.816c-1.563 0-2.344-.868-2.344-2.604v-25.608h-62.5c-2.214 0-3.299-.998-3.299-3.038v-3.906c0-1.259.521-2.908 1.563-4.948l56.424-95.312c1.323-2.127 3.059-3.212 5.208-3.212h10.156c2.018 0 3.038 1.085 3.038 3.212v97.482h16.146c1.563 0 2.344.738 2.344 2.17v5.122c0 1.628-.781 2.43-2.344 2.43H952.52v25.608c0 1.736-.824 2.604-2.43 2.604Z"/>
</svg>