<svg fill="none" xmlns="http://www.w3.org/2000/svg" viewBox="0 0 261 353">
  <path d="M130.5 222C58.427 222 0 280.651 0 353h261c0-72.349-58.427-131-130.5-131Z" fill="#F58B00"/>
  <path d="M244.5 113.5C211.3-14.1 157-5.333 134 15l8 218.5c21.333 5.333 68.3 11.3 85.5-7.5 17.2-18.8 24.806-82.5 17-112.5ZM21.067 113.5c33.2-127.6 87.5-118.833 110.5-98.5l-8 218.5c-21.333 5.333-68.3 11.3-85.5-7.5-17.2-18.8-24.805-82.5-17-112.5Z" fill="#45484A"/>
  <path d="M93.198 183h74.604L176 255H85l8.198-72Z" fill="#A9B4BE"/>
  <ellipse cx="132" cy="110" rx="83" ry="95" fill="#D5DADD"/>
  <path d="M111.535 64.474c20.4-6.8 26.5-33.5 27-46-62.4-36.8-76.334 23.666-75.5 58.5 7.666-1.334 28.1-5.7 48.5-12.5Z" fill="#45484A"/>
  <path d="M152.097 79.723c-19.898-11.11-22.681-47.518-21.585-64.333 68.261-43.279 74.684 39.185 69.362 85.827-7.635-2.536-27.879-10.385-47.777-21.494Z" fill="#45484A"/>
  <path d="M131.904 254.847c1.362 1.292.354 3.579-1.519 3.445l-71.014-5.079a2 2 0 0 1-1.687-2.802l19.372-43.93a2 2 0 0 1 3.207-.644l51.641 49.01Z" fill="#CC7400"/>
  <path d="M130.559 254.847c-1.362 1.292-.354 3.579 1.519 3.445l71.014-5.079a2 2 0 0 0 1.687-2.802l-19.372-43.93a2 2 0 0 0-3.207-.644l-51.641 49.01Z" fill="#CC7400"/>
</svg>
