<svg fill="none" xmlns="http://www.w3.org/2000/svg" viewBox="0 0 311 239">
  <path d="M18.439 148.369c-5.43.787-11.754 1.926-14.239 6.804-2.254 4.417.121 10.176 4.277 12.884 4.156 2.709 9.522 2.884 14.394 1.925-4.706 1.266-5.67 8.324-2.421 11.943 3.25 3.619 8.796 4.206 13.567 3.242 4.772-.965 9.211-3.175 13.953-4.299-3.18 1.074-2.935 6.199-.21 8.166 2.726 1.968 6.424 1.657 9.746 1.097a99.883 99.883 0 0 0 37.013-14.386c9.42-6.055 18.626-15.923 16.543-26.915-1.71-9.022-10.851-15.099-19.977-16.272-9.775-1.258-18.73 2.267-28.15 4.074-4.48.856-8.903 3.121-13.256 4.518a191.277 191.277 0 0 1-14.696 4.059 198.43 198.43 0 0 1-16.54 3.141l-.004.019Z" fill="#D5DADD"/>
  <path d="M21.97 170.71a104.074 104.074 0 0 0 27.108-11.287c.721-.427.06-1.543-.661-1.116a103.188 103.188 0 0 1-26.779 11.157c-.818.21-.466 1.46.34 1.258l-.007-.012ZM47.581 181.909c4.566-2.545 9.127-5.07 13.693-7.615.735-.404.067-1.531-.662-1.116l-13.692 7.615c-.735.404-.067 1.531.661 1.116Z" fill="#83888B"/>
  <path d="M79.62 158.667c3.605 10.218 12.503 17.639 21.791 23.223 25.613 15.397 57.232 20.487 86.414 13.904 29.182-6.582 55.588-24.75 72.155-49.652 11.475-17.245 18.328-38.041 16.62-58.675-1.708-20.634-12.685-40.848-30.496-51.384-23.249-13.766-53.873-9.068-77.14 4.725-19.877 11.784-33.762 29.129-49.512 45.52-4.991 5.196-10.468 9.82-15.635 14.83-6.468 6.267-12.197 13.425-17.176 20.917-7.009 10.56-11.385 24.164-7.003 36.597l-.019-.005Z" fill="#A9B4BE"/>
  <path d="M230.937 41.62c-14.55 1.784-27.333 10.578-37.929 20.703-10.409 9.95-19.467 21.627-24.587 35.072-5.132 13.452-6.065 28.809-.723 42.149 9.561 23.826 47.762 37.743 71.342 27.493 9.543-4.15 13.706-10.25 19.551-18.855 12.428-18.297 15.443-27.511 18.414-42.827 2.489-12.842 1.291-26.644-4.415-38.487-4.404-9.128-12.825-18.648-22.264-22.57-6.078-2.526-12.846-3.476-19.389-2.677Z" fill="#F58B00"/>
  <path d="M251.489 79.053a6.114 6.114 0 0 0 2.148-8.375c-1.72-2.902-5.472-3.858-8.379-2.135a6.114 6.114 0 0 0-2.148 8.376c1.72 2.902 5.472 3.858 8.379 2.135Z" fill="#00144A"/>
  <path d="M245.85 80.694a2.596 2.596 0 0 0 .912-3.557 2.596 2.596 0 0 0-3.558-.906 2.596 2.596 0 0 0-.912 3.556 2.596 2.596 0 0 0 3.558.907Z" fill="#A9B4BE"/>
  <path d="M264.195 77.716s6.605 17.097 32.853.09c0 0-34.518-14.713-32.853-.09Z" fill="#00144A"/>
  <path d="m288.881 55.506 14.81 5.49-10.716 38.284-20.921-7.755 16.827-36.02Z" fill="#A9B4BE"/>
  <path d="M264.117 75.588s.491-18.321 30.921-11.1c0 0-27.588 25.436-30.921 11.1Z" fill="#00144A"/>
  <path d="M268.059 59.307c-4.908-12.964-17.458-24.106-30.746-28.082-5.111-1.526-12.597-3.606-17.929-3.915-14.059-.81-26.257 2.011-39.475 6.864-13.226 4.841-23.258 14.794-33.382 23.909 2.461 1.849 31.761 7.081 44.086 6.585 13.191-13.366 31.986-21.525 50.632-19.413 9.337 1.064 22.254 7.237 26.802 14.06l.012-.008Z" fill="#83888B"/>
  <path d="M190.623 64.66s-22.195.204-44.085-6.584L134.123 70.64s30.812 5.975 52.456-1.733l4.044-4.246ZM177.267 48.922c.117-.021.234-.042.359-.051l-.465.065c.515-.063.839-.174 1.317-.408.169-.1.363-.183.546-.259l-.584.249c.615-.251 1.296-.363 1.88-.693.228-.135.444-.263.687-.375 1.004-.498 1.736-1.646 1.693-2.787a11.08 11.08 0 0 1-.001-.632c.022-.127.003-.05-.033.246.059-.23.061-.473-.012-.706a1.525 1.525 0 0 0-.418-.676l-.221-.21a8.55 8.55 0 0 0-.72-.53c-.928-.633-2.267-.617-3.216-.055-.361.214-.761.58-1.083.886a3.61 3.61 0 0 0-.853 1.137c-.259.576-.505 1.175-.674 1.794-.083.325-.176.689-.183 1.033-.007.345.089.645.174.951.251.808.991 1.18 1.795 1.028l.012-.007ZM191.81 41.922l1.203-.875c.5-.362 1.022-.687 1.301-1.258l.305-.635a2.22 2.22 0 0 0 .245-.956l-.066-.496a1.49 1.49 0 0 0-.362-.693.866.866 0 0 0-.37-.349.905.905 0 0 0-.436-.243.934.934 0 0 0-.479-.122 1.473 1.473 0 0 0-.754.042l-.653.16c-.523.131-.898.402-1.286.762l-.269.257-1.094 1.005a1.78 1.78 0 0 0-.45.72 1.725 1.725 0 0 0-.179.82l.078.57c.065.303.202.562.412.778.099.168.24.295.416.401.215.198.461.311.76.377.54.117 1.197.101 1.661-.239l.017-.026ZM190.262 49.86c2.296-1.36.188-4.943-2.119-3.575-2.308 1.368-.188 4.943 2.119 3.575Z" fill="#D5DADD"/>
  <path d="M122.414 79.188A161.559 161.559 0 0 1 87.686 42.91c-5.155-7.435-12.443-16.442-21.122-13.875-8.709 2.569-9.818 15.355-4.745 22.87-2.06-5.831-10.7-7.227-15.528-3.344-4.828 3.884-5.94 11.077-4.116 17.001 1.815 5.912 6.006 10.79 10.35 15.186-2.442-4.065-9.622-.862-10.05 3.867-.436 4.717 3.22 8.776 6.953 11.703a58.818 58.818 0 0 0 17.949 9.563c-3.197-2.953-8.662 1.746-7.875 6.031.786 4.284 4.877 7.048 8.679 9.188 12.137 6.83 25.242 12.47 39.094 13.89 12.053 1.237 28.402-.446 36.688-10.579 7.023-8.59 3.703-20.437-2.358-28.55-5.113-6.844-12.466-11.549-19.184-16.662l-.007-.012Z" fill="#83888B"/>
  <path d="M80.134 74.856A158.327 158.327 0 0 1 61.578 49.94c-.426-.72-1.556-.05-1.117.662A159.651 159.651 0 0 0 79.23 75.797c.564.622 1.468-.319.904-.941ZM70.014 93.73c-5.361-4.523-10.73-9.059-16.08-13.59-.638-.529-1.55.4-.903.942 5.361 4.523 10.73 9.059 16.08 13.59.638.529 1.549-.4.903-.942ZM70.71 106.078c-.45.008-.903-.016-1.35-.058-.051-.003-.109-.018-.159-.02.089.012-.038-.01-.07-.008l-.322-.051a11.852 11.852 0 0 1-1.951-.497l-.309-.11s-.186-.067-.083-.031c-.046-.022-.103-.036-.149-.058a8.304 8.304 0 0 1-.628-.293c-.298-.147-.725-.072-.89.252-.148.299-.074.725.251.889a12.765 12.765 0 0 0 5.683 1.285c.338-.006.667-.298.648-.66-.02-.361-.29-.655-.66-.647l-.011.007Z" fill="#D5DADD"/>
</svg>
