<svg fill="none" xmlns="http://www.w3.org/2000/svg" viewBox="0 0 266 208">
  <path d="m126.497 133.935-28.218-24.381 112.585 12.963 27.08 23.711-111.447-12.293Z" fill="#D5DADD"/>
  <path d="m98.297 109.584 28.143 24.276-11.838 29.522-27.539-25.669 11.234-28.129Z" fill="#D5DADD"/>
  <path d="m126.426 133.898 111.484 12.331-11.463 28.704-111.844-11.459 11.823-29.576Z" fill="#A9B4BE"/>
  <path d="m162.337 107.519-28.218-24.38 74.776 9.43 27.285 23.699-73.843-8.749Z" fill="#F58B00"/>
  <path d="m134.138 83.17 28.142 24.276-11.524 29.092-27.852-25.238 11.234-28.13Z" fill="#F58B00"/>
  <path d="m162.265 107.483 73.964 8.759-11.463 28.705-74.08-8.339 11.579-29.125Z" fill="#CC7400"/>
  <path fill-rule="evenodd" clip-rule="evenodd" d="m164.168 86.78-17.511-6.993-2.208 5.529h.001c-.501 1.258 3.011 3.843 7.846 5.774s9.162 2.477 9.665 1.219l.014-.038 2.193-5.492Z" fill="#CC7400"/>
  <ellipse cx="155.413" cy="83.283" rx="9.428" ry="2.453" transform="rotate(21.77 155.413 83.283)" fill="#F58B00"/>
  <path fill-rule="evenodd" clip-rule="evenodd" d="m188.382 90.039-17.51-6.993-2.208 5.529c-.502 1.258 3.01 3.844 7.846 5.775 4.835 1.93 9.162 2.477 9.664 1.219l.008-.02 2.2-5.51Z" fill="#CC7400"/>
  <ellipse cx="179.627" cy="86.542" rx="9.428" ry="2.453" transform="rotate(21.77 179.627 86.542)" fill="#F58B00"/>
  <path fill-rule="evenodd" clip-rule="evenodd" d="m211.733 92.421-17.51-6.993-2.208 5.53h.001c-.502 1.258 3.01 3.843 7.845 5.774 4.836 1.93 9.163 2.476 9.665 1.218l.014-.037 2.193-5.492Z" fill="#CC7400"/>
  <ellipse cx="202.978" cy="88.924" rx="9.428" ry="2.453" transform="rotate(21.77 202.978 88.924)" fill="#F58B00"/>
  <path fill-rule="evenodd" clip-rule="evenodd" d="m225.544 106.764-17.511-6.993-2.208 5.53c-.502 1.258 3.01 3.843 7.846 5.774 4.835 1.931 9.162 2.477 9.665 1.219l.006-.017 2.202-5.513Z" fill="#CC7400"/>
  <ellipse cx="216.788" cy="103.268" rx="9.428" ry="2.453" transform="rotate(21.77 216.788 103.268)" fill="#F58B00"/>
  <path fill-rule="evenodd" clip-rule="evenodd" d="m202.916 104.485-17.511-6.993-2.208 5.529c-.502 1.258 3.011 3.844 7.846 5.775 4.835 1.931 9.162 2.476 9.665 1.218l.007-.018 2.201-5.511Z" fill="#CC7400"/>
  <ellipse cx="194.16" cy="100.989" rx="9.428" ry="2.453" transform="rotate(21.77 194.16 100.989)" fill="#F58B00"/>
  <path fill-rule="evenodd" clip-rule="evenodd" d="m178.703 101.226-17.511-6.992-2.208 5.529c-.502 1.258 3.011 3.843 7.846 5.774s9.162 2.477 9.665 1.219l.004-.012 2.204-5.518Z" fill="#CC7400"/>
  <ellipse cx="169.947" cy="97.73" rx="9.428" ry="2.453" transform="rotate(21.77 169.947 97.73)" fill="#F58B00"/>
  <path fill-rule="evenodd" clip-rule="evenodd" d="m128.332 113.192-17.511-6.993-2.208 5.529v.001c-.502 1.258 3.01 3.843 7.846 5.774 4.835 1.931 9.162 2.477 9.664 1.219l.005-.012 2.204-5.518Z" fill="#A9B4BE"/>
  <ellipse cx="119.576" cy="109.696" rx="9.428" ry="2.453" transform="rotate(21.77 119.576 109.696)" fill="#D5DADD"/>
  <path fill-rule="evenodd" clip-rule="evenodd" d="m142.864 127.639-17.51-6.993-2.204 5.519-.005.01c-.502 1.258 3.011 3.843 7.846 5.774s9.162 2.477 9.665 1.219l2.208-5.529Z" fill="#A9B4BE"/>
  <ellipse cx="134.109" cy="124.142" rx="9.428" ry="2.453" transform="rotate(21.77 134.109 124.142)" fill="#D5DADD"/>
  <path d="m66.844 76.385-37.283.765 61.877-43.03 36.134-.648-60.728 42.913Z" fill="#A9B4BE"/>
  <path d="m29.596 77.162 37.158-.793 10.43 28.296-37.113.917-10.475-28.42Z" fill="#767B7F"/>
  <path d="M66.766 76.407 127.59 33.42l10.69 29.002-61.098 42.243-10.416-28.258Z" fill="#D5DADD"/>
  <path fill-rule="evenodd" clip-rule="evenodd" d="m54.328 59.746-17.691 6.521 2.059 5.587c.469 1.271 4.809.842 9.694-.959 4.886-1.8 8.466-4.29 7.998-5.562l-.006-.014-2.054-5.573Z" fill="#767B7F"/>
  <ellipse cx="45.481" cy="63.008" rx="9.428" ry="2.453" transform="rotate(-20.234 45.481 63.008)" fill="#D5DADD"/>
  <path fill-rule="evenodd" clip-rule="evenodd" d="m74.503 45.965-17.691 6.521 2.059 5.587c.468 1.27 4.809.841 9.694-.96 4.885-1.8 8.466-4.29 7.998-5.561a.545.545 0 0 0-.009-.022l-2.051-5.565Z" fill="#767B7F"/>
  <ellipse cx="65.657" cy="49.226" rx="9.428" ry="2.453" transform="rotate(-20.234 65.657 49.226)" fill="#D5DADD"/>
  <path fill-rule="evenodd" clip-rule="evenodd" d="M93.45 32.109 75.757 38.63l2.059 5.586c.469 1.272 4.809.842 9.694-.958 4.886-1.801 8.466-4.291 7.998-5.562l-.005-.014-2.055-5.573Z" fill="#767B7F"/>
  <ellipse cx="84.603" cy="35.37" rx="9.428" ry="2.453" transform="rotate(-20.234 84.603 35.37)" fill="#D5DADD"/>
  <path fill-rule="evenodd" clip-rule="evenodd" d="m113.311 33.526-17.692 6.521 2.06 5.587v-.001h.001c.469 1.272 4.809.842 9.694-.958 4.886-1.801 8.466-4.291 7.998-5.562a5.003 5.003 0 0 0-.018-.044l-2.043-5.543Z" fill="#767B7F"/>
  <ellipse cx="104.465" cy="36.787" rx="9.428" ry="2.453" transform="rotate(-20.234 104.465 36.787)" fill="#D5DADD"/>
  <path fill-rule="evenodd" clip-rule="evenodd" d="m94.97 46.975-17.69 6.521 2.047 5.555.01.032c.469 1.27 4.809.841 9.694-.96 4.886-1.8 8.466-4.29 7.998-5.561l-2.058-5.587Z" fill="#767B7F"/>
  <ellipse cx="86.124" cy="50.236" rx="9.428" ry="2.453" transform="rotate(-20.234 86.124 50.236)" fill="#D5DADD"/>
  <path fill-rule="evenodd" clip-rule="evenodd" d="m74.795 60.757-17.692 6.52 2.06 5.587c.468 1.271 4.809.842 9.694-.96 4.885-1.8 8.466-4.29 7.997-5.561l-.006-.017-2.053-5.57Z" fill="#83888B"/>
  <ellipse cx="65.949" cy="64.017" rx="9.428" ry="2.453" transform="rotate(-20.234 65.949 64.017)" fill="#D5DADD"/>
  <path fill="#D5DADD" d="m54.488 122.726 12.913 12.616-31.23 31.962-12.912-12.616z"/>
  <path fill="#EAECEE" d="m67.4 135.343 24.878 24.308-31.23 31.961-24.877-24.307z"/>
  <path fill="#A9B4BE" d="m76.86 144.585 15.419 15.066-31.23 31.962-15.42-15.066z"/>
  <path fill="#A9B4BE" d="m58.274 144.683 11.906 11.633-13.848 14.174-11.907-11.634z"/>
  <path d="M69.037 168.726c-3.7 4.036-9.261 4.957-12.424 2.059-3.162-2.899-2.727-8.52.972-12.555s9.26-4.957 12.423-2.059c3.162 2.899 2.727 8.52-.971 12.555Z" fill="#A9B4BE"/>
  <path fill-rule="evenodd" clip-rule="evenodd" d="M58.607 168.61c1.497 1.373 5.177 1.481 8.255-1.877 3.078-3.358 2.65-7.015 1.153-8.387-1.498-1.372-5.178-1.481-8.255 1.877-3.078 3.358-2.65 7.015-1.153 8.387Zm-1.993 2.175c3.162 2.898 8.724 1.977 12.423-2.059 3.698-4.035 4.133-9.656.971-12.555-3.162-2.898-8.724-1.976-12.423 2.059s-4.134 9.656-.971 12.555Z" fill="#D5DADD"/>
  <path fill-rule="evenodd" clip-rule="evenodd" d="m86.717 159.716-19.252-18.811-25.732 26.336 19.252 18.81 25.732-26.335ZM67.4 135.343l-31.229 31.962 24.878 24.308 31.23-31.962L67.4 135.343Z" fill="#D5DADD"/>
</svg>
