<svg fill="none" xmlns="http://www.w3.org/2000/svg" viewBox="0 0 449 449">
  <path fill-rule="evenodd" clip-rule="evenodd" d="M8.98 84.487c-5.096 0-9.17 4.234-8.974 9.325l1.887 49.068h.001l9.814 264.729a4.843 4.843 0 0 0 4.876 4.7h409.395a4.863 4.863 0 0 0 3.511-1.489 4.877 4.877 0 0 0 1.364-3.562l-8.98-264.378h-.001l-.954-49.585a8.98 8.98 0 0 0-8.978-8.808H8.979Z" fill="#A9B4BE"/>
  <path d="M20.036 120.422h419.98l8.98 264.378a4.877 4.877 0 0 1-2.968 4.664 4.866 4.866 0 0 1-1.907.387H34.725a4.842 4.842 0 0 1-4.875-4.7l-9.814-264.729Z" fill="#83888B"/>
  <path d="M69.788 185.877c-.186-5.085 3.886-9.308 8.974-9.308h305.434a8.98 8.98 0 0 1 8.974 8.652l6.081 166.202c.186 5.085-3.886 9.308-8.974 9.308H84.842a8.98 8.98 0 0 1-8.974-8.652l-6.08-166.202ZM78.465 157.955h123.253a6.372 6.372 0 0 0 4.639-1.955 6.379 6.379 0 0 0 1.78-4.71 7.015 7.015 0 0 0-7.015-6.664H77.903a6.373 6.373 0 0 0-6.013 4.127 6.382 6.382 0 0 0-.405 2.537 7.017 7.017 0 0 0 6.98 6.665Z" fill="#fff"/>
  <path d="M100.388 204.957a2.393 2.393 0 0 0-1.748.723 2.382 2.382 0 0 0-.672 1.768l.456 13.61a2.63 2.63 0 0 0 2.596 2.525h16.239a2.377 2.377 0 0 0 1.761-.734 2.386 2.386 0 0 0 .659-1.791l-.456-13.61a2.626 2.626 0 0 0-2.595-2.491h-16.24ZM141.882 205.028a2.419 2.419 0 0 0-2.455 2.49l.491 13.61a2.633 2.633 0 0 0 2.595 2.526h16.24a2.429 2.429 0 0 0 1.749-.746 2.403 2.403 0 0 0 .671-1.78l-.456-13.61a2.668 2.668 0 0 0-2.631-2.49h-16.204ZM183.867 205.167a2.425 2.425 0 0 0-2.267 1.567 2.412 2.412 0 0 0-.153.959l.456 13.61a2.664 2.664 0 0 0 2.595 2.526h16.24a2.457 2.457 0 0 0 2.455-2.526l-.491-13.61a2.628 2.628 0 0 0-2.595-2.526h-16.24ZM225.36 205.238a2.456 2.456 0 0 0-2.455 2.525l.491 13.61a2.63 2.63 0 0 0 2.596 2.526h16.239a2.433 2.433 0 0 0 1.75-.746 2.416 2.416 0 0 0 .671-1.78l-.456-13.61a2.663 2.663 0 0 0-2.596-2.525h-16.24ZM267.732 205.693a2.429 2.429 0 0 0-1.75.746 2.416 2.416 0 0 0-.67 1.78l.456 13.61a2.665 2.665 0 0 0 2.63 2.49h16.24a2.407 2.407 0 0 0 1.737-.733 2.42 2.42 0 0 0 .683-1.757l-.491-13.61a2.633 2.633 0 0 0-2.595-2.526h-16.24ZM326.096 224.39a2.378 2.378 0 0 0 1.748-.722 2.396 2.396 0 0 0 .673-1.768l-.456-13.61a2.632 2.632 0 0 0-2.596-2.526h-16.24a2.382 2.382 0 0 0-2.277 1.561 2.384 2.384 0 0 0-.143.965l.456 13.61a2.634 2.634 0 0 0 2.595 2.49h16.24ZM366.396 208.219a2.63 2.63 0 0 0-2.596-2.525h-16.239a2.385 2.385 0 0 0-2.42 2.525l.456 13.61a2.664 2.664 0 0 0 2.595 2.526h16.24a2.429 2.429 0 0 0 1.749-.746 2.403 2.403 0 0 0 .671-1.78l-.456-13.61ZM118.945 260.448a2.445 2.445 0 0 0 1.738-.756 2.456 2.456 0 0 0 .682-1.769l-.491-13.61a2.63 2.63 0 0 0-2.596-2.526h-16.24a2.464 2.464 0 0 0-1.738.756 2.46 2.46 0 0 0-.682 1.77l.456 13.61a2.667 2.667 0 0 0 2.631 2.525h16.24ZM160.401 260.519a2.433 2.433 0 0 0 1.75-.746 2.425 2.425 0 0 0 .671-1.78l-.456-13.61a2.634 2.634 0 0 0-2.596-2.526h-16.24a2.425 2.425 0 0 0-2.267 1.567 2.412 2.412 0 0 0-.153.959l.456 13.61a2.666 2.666 0 0 0 2.595 2.526h16.24ZM202.421 260.695a2.445 2.445 0 0 0 1.738-.756 2.44 2.44 0 0 0 .682-1.769l-.491-13.61a2.63 2.63 0 0 0-2.596-2.526h-16.24a2.432 2.432 0 0 0-1.749.746 2.418 2.418 0 0 0-.671 1.78l.491 13.61a2.63 2.63 0 0 0 2.596 2.525h16.24ZM243.878 260.766a2.45 2.45 0 0 0 1.762-.744 2.458 2.458 0 0 0 .693-1.782l-.491-13.61a2.636 2.636 0 0 0-.793-1.781 2.633 2.633 0 0 0-1.802-.745h-16.24a2.382 2.382 0 0 0-2.277 1.562 2.38 2.38 0 0 0-.143.964l.456 13.61a2.666 2.666 0 0 0 2.596 2.526h16.239ZM286.286 261.186a2.426 2.426 0 0 0 1.736-.733 2.418 2.418 0 0 0 .684-1.757l-.491-13.61a2.595 2.595 0 0 0-2.595-2.526h-16.24a2.433 2.433 0 0 0-1.75.746 2.416 2.416 0 0 0-.671 1.78l.491 13.61a2.597 2.597 0 0 0 2.596 2.49h16.24ZM310.839 242.63a2.41 2.41 0 0 0-1.749.746 2.418 2.418 0 0 0-.671 1.779l.456 13.61a2.668 2.668 0 0 0 2.63 2.491h16.206a2.429 2.429 0 0 0 2.288-1.534c.119-.305.176-.63.167-.957l-.491-13.61a2.632 2.632 0 0 0-2.596-2.525h-16.24ZM368.045 245.086a2.63 2.63 0 0 0-2.596-2.526h-16.24a2.429 2.429 0 0 0-1.749.746 2.416 2.416 0 0 0-.671 1.78l.456 13.61a2.666 2.666 0 0 0 2.631 2.49h16.24a2.426 2.426 0 0 0 1.736-.733 2.418 2.418 0 0 0 .684-1.757l-.491-13.61ZM122.591 279.847a2.63 2.63 0 0 0-2.596-2.526h-16.099a2.429 2.429 0 0 0-1.75.746 2.416 2.416 0 0 0-.67 1.78l.455 13.61a2.668 2.668 0 0 0 2.631 2.525h16.24a2.44 2.44 0 0 0 1.739-.756 2.454 2.454 0 0 0 .681-1.769l-.631-13.61ZM164.085 279.917a2.669 2.669 0 0 0-2.595-2.526h-16.24a2.433 2.433 0 0 0-1.75.746 2.416 2.416 0 0 0-.671 1.78l.456 13.61a2.667 2.667 0 0 0 2.596 2.525h16.24a2.423 2.423 0 0 0 2.267-1.567c.115-.306.167-.632.153-.958l-.456-13.61ZM206.07 280.093a2.632 2.632 0 0 0-2.596-2.525h-16.24a2.41 2.41 0 0 0-1.749.746 2.418 2.418 0 0 0-.671 1.779l.491 13.61a2.594 2.594 0 0 0 2.595 2.491h16.24a2.423 2.423 0 0 0 2.421-2.491l-.491-13.61ZM247.703 280.164a2.633 2.633 0 0 0-2.595-2.525h-16.24a2.383 2.383 0 0 0-2.42 2.525l.455 13.61a2.632 2.632 0 0 0 2.596 2.491h16.24a2.396 2.396 0 0 0 1.748-.723 2.386 2.386 0 0 0 .672-1.768l-.456-13.61ZM289.793 280.582a2.592 2.592 0 0 0-2.595-2.49h-16.24a2.421 2.421 0 0 0-2.42 2.49l.491 13.645a2.595 2.595 0 0 0 2.596 2.491h16.239a2.423 2.423 0 0 0 2.421-2.491l-.492-13.645ZM329.465 296.788a2.417 2.417 0 0 0 2.455-2.49l-.492-13.645a2.626 2.626 0 0 0-2.595-2.491h-16.24a2.396 2.396 0 0 0-1.748.723 2.38 2.38 0 0 0-.672 1.768l.456 13.645a2.627 2.627 0 0 0 2.596 2.49h16.24ZM350.93 278.092a2.416 2.416 0 0 0-1.75.745 2.432 2.432 0 0 0-.671 1.78l.456 13.61a2.668 2.668 0 0 0 2.631 2.491h16.24a2.421 2.421 0 0 0 2.42-2.491l-.491-13.61a2.63 2.63 0 0 0-2.596-2.525H350.93ZM124.204 315.485a2.628 2.628 0 0 0-2.595-2.526h-16.24a2.425 2.425 0 0 0-2.267 1.568 2.404 2.404 0 0 0-.153.958l.456 13.61a2.665 2.665 0 0 0 2.63 2.491h16.24a2.426 2.426 0 0 0 1.736-.734c.226-.232.403-.507.52-.809a2.4 2.4 0 0 0 .164-.948l-.491-13.61ZM165.697 315.555a2.63 2.63 0 0 0-2.596-2.525h-16.239a2.382 2.382 0 0 0-2.42 2.525l.455 13.61a2.632 2.632 0 0 0 2.596 2.491h16.24a2.388 2.388 0 0 0 2.42-2.491l-.456-13.61ZM207.682 315.732a2.63 2.63 0 0 0-2.595-2.526h-16.24a2.429 2.429 0 0 0-1.749.746 2.403 2.403 0 0 0-.671 1.78l.456 13.61a2.665 2.665 0 0 0 2.631 2.49h16.099a2.423 2.423 0 0 0 2.42-2.49l-.351-13.61ZM249.176 315.802a2.63 2.63 0 0 0-2.596-2.525h-16.239a2.382 2.382 0 0 0-2.421 2.525l.456 13.61a2.632 2.632 0 0 0 2.596 2.491h16.239a2.389 2.389 0 0 0 2.421-2.491l-.456-13.61ZM291.548 316.292a2.596 2.596 0 0 0-2.596-2.49h-16.24a2.42 2.42 0 0 0-2.42 2.49l.491 13.61a2.595 2.595 0 0 0 2.596 2.526h16.415a2.429 2.429 0 0 0 1.75-.746 2.416 2.416 0 0 0 .67-1.78l-.666-13.61Z" fill="#D5DADD"/>
  <path d="M18.152 71.354c-.196-5.091 3.878-9.325 8.973-9.325h402.961a8.98 8.98 0 0 1 8.979 8.807l.953 49.586H20.038l-1.886-49.068Z" fill="#F58B00"/>
  <path d="M109.68 94.991h-.386a6.662 6.662 0 0 1-6.629-6.419l-.246-6.805a10.517 10.517 0 0 0-3.788 8.594 11.364 11.364 0 0 0 11.084 11.014 10.539 10.539 0 0 0 4.089-.896 10.521 10.521 0 0 0 6.258-10.118 11.46 11.46 0 0 0-4.42-8.594l.246 6.805a6.17 6.17 0 0 1-3.777 5.937 6.175 6.175 0 0 1-2.431.482ZM342.403 94.673h-.385a6.736 6.736 0 0 1-6.63-6.384l-.21-6.384a10.525 10.525 0 0 0-3.718 8.489 11.33 11.33 0 0 0 11.084 11.014 10.523 10.523 0 0 0 10.522-11.014 11.576 11.576 0 0 0-4.489-8.665l.21 6.56a6.142 6.142 0 0 1-3.9 5.969c-.79.308-1.636.45-2.484.415Z" fill="#00144A"/>
  <path d="M102.667 88.571a6.66 6.66 0 0 0 6.629 6.42h.386a6.175 6.175 0 0 0 6.208-6.42l-.246-6.805-.701-19.853-.702-20.135a6.66 6.66 0 0 0-6.629-6.419h-.21a6.178 6.178 0 0 0-5.808 3.973 6.188 6.188 0 0 0-.401 2.446l.702 20.135.701 19.853.071 6.805ZM335.389 88.29a6.737 6.737 0 0 0 6.665 6.455h.385a6.134 6.134 0 0 0 5.797-4c.292-.784.42-1.62.377-2.454l-.211-6.56-.701-19.748-.702-20.486a6.7 6.7 0 0 0-6.664-6.419h-.386a6.14 6.14 0 0 0-6.173 6.42l.701 20.485.702 19.923.21 6.385Z" fill="#D5DADD"/>
</svg>
