<svg width="464" height="265" viewBox="0 0 464 265" fill="none" xmlns="http://www.w3.org/2000/svg">
<ellipse cx="236.089" cy="234.856" rx="224.568" ry="15.5" transform="rotate(-3.63286 236.089 234.856)" fill="#D5DADD"/>
<g clip-path="url(#clip0_1144_4606)">
<path d="M18.4299 182.144C18.4299 182.144 11.6206 162.71 35.8267 140.9L33.1584 106.061C33.1584 106.061 56.893 44.942 70.23 38.5354C83.551 32.1301 221.963 17.2115 221.963 17.2115C221.963 17.2115 255.857 22.4266 334.073 76.5457L436.844 97.7834C436.844 97.7834 456.874 111.402 450.265 149.07L18.4299 182.144Z" fill="#F79C37"/>
<mask id="mask0_1144_4606" style="mask-type:alpha" maskUnits="userSpaceOnUse" x="17" y="17" width="435" height="166">
<path d="M18.4299 182.144C18.4299 182.144 11.6206 162.71 35.8267 140.9L33.1584 106.061C33.1584 106.061 56.893 44.942 70.23 38.5354C83.551 32.1301 221.963 17.2115 221.963 17.2115C221.963 17.2115 255.857 22.4266 334.073 76.5457L436.844 97.7834C436.844 97.7834 456.874 111.402 450.265 149.07L18.4299 182.144Z" fill="#F79C37"/>
</mask>
<g mask="url(#mask0_1144_4606)">
<path d="M348.933 125.632C350.536 84.5916 316.175 57.2594 283.357 45.3492C274.215 41.2874 267.505 38.4468 262.297 34C261.585 49.4637 304.123 62.9054 313.688 85.3991C320.275 99.0564 319.515 106.458 313.831 116.192C309.341 123.2 298.75 128.787 292.176 122.762C296.136 119.614 301.126 112.971 300.569 104.766L300.494 104.817C297.874 106.546 294.957 108.412 291.519 109.875C294.381 102.429 294.071 94.812 292.712 86.3826C290.564 91.1573 292.077 92.3037 279.137 100.634C280.912 96.5503 281.277 85.6653 276.989 79.4759C280.262 106.108 220.471 107.453 234.27 134.451C234.503 132.378 235.498 131.592 237.955 130.514C245.913 127.322 256.342 133.903 253.823 143.52C248.149 162.333 223.588 158.339 213.948 144.202C202.889 127.284 200.349 110.59 218.058 88.4355C226.934 78.2679 240.954 71.37 242.614 57.42C214.497 80.9039 177.44 90.7679 181.275 137.744C185.363 190.851 243.614 225.195 292.358 207.151L292.218 206.75L292.391 207.138C326.27 195.769 350.466 161.532 348.931 125.629L348.933 125.632ZM321.249 187.927C321.189 187.982 321.128 188.039 321.068 188.094C303.198 178.133 293.265 165.354 284.385 151.633C296.87 165.803 322.834 169.939 338.214 165.642C333.889 173.966 328.126 181.526 321.249 187.927ZM294.888 204.528C290.847 206.114 286.702 207.382 282.456 208.319C289.38 190.816 289.318 171.671 283.552 153.276C292.393 166.733 302.183 179.209 319.812 189.216C312.443 195.771 304.061 200.922 294.888 204.528ZM239.842 62.0473C236.119 72.3667 224.276 78.6838 216.88 87.3838C199.486 109.178 200.407 126.283 212.691 145.162C221.466 157.153 237.835 162.126 249.346 153.494C257.687 147.49 258.19 132.49 247.642 129.205C260.691 128.36 280.255 131.484 290.946 123.775C303.734 134.384 320.847 115.902 319.775 102.033C319.972 83.5597 302.796 65.9462 282.524 53.8687C270.081 46.2953 265.923 40.6273 264.537 37.6965C289.591 51.5298 327.3 62.1331 340.371 93.2586C346.504 104.859 340.318 148.922 305.895 152.253C296.134 153.358 286.658 149.976 278.896 143.426C280.495 163.063 265.148 180.509 242.502 182.375C219.074 185.619 197.663 170.478 188.776 148.851C170.429 100.196 207.866 84.717 239.842 62.0473ZM239.258 128.461C238.155 128.714 237.112 129.093 236.115 129.621C237.301 127.233 240.976 122.696 244.382 120.481C245.153 120.492 246.86 121 247.763 121.304L247.89 120.901L247.8 121.317C249.072 121.711 250.39 122.19 251.736 121.995L251.688 121.574L251.771 121.99C254.605 121.684 255.4 117.741 253.074 116.25C257.757 114.769 263.23 114.3 268.331 114.628C260.823 122.487 249.399 126.23 239.256 128.461H239.258ZM273.301 94.1365C275.287 92.0858 277.525 88.6314 278.184 86.4223C280.06 93.5776 277.556 100.471 277.035 101.783C271.593 104.63 265.789 106.762 259.929 108.573C249.261 112.054 237.973 116.232 233.787 126.34C238.065 108.593 262.183 107.888 273.301 94.1387V94.1365ZM298.847 107.761C295.578 123.013 286.164 126.76 270.312 127.418C278.652 124.983 286.239 119.559 290.537 111.913L290.662 111.884L290.669 111.86C293.265 111.105 296.793 109.028 298.847 107.761ZM271.395 113.033L271.494 113.103H271.476L271.395 113.033ZM248.824 127.577C256.94 125.132 264.674 120.969 270.472 114.69C276.513 114.707 282.52 113.757 288.396 112.41C283.601 119.999 275.401 124.932 266.699 126.705C261.078 127.968 254.014 127.344 248.778 127.59L248.822 127.577H248.824ZM248.235 119.799C247.646 119.612 246.952 119.385 246.329 119.227C248.143 118.355 251.453 115.73 252.804 118.388C253.307 121.095 250.229 120.602 248.235 119.796V119.799ZM289.446 110.54C283.691 111.933 277.822 112.956 271.898 113.099C274.477 110.073 276.726 106.57 278.307 102.911C285.971 99.0586 290.01 94.6404 291.796 92.2311C292.896 102.649 290.076 109.226 289.446 110.538V110.54ZM235.425 126.459C237.771 120.758 243.328 117.244 248.617 114.58C253.188 112.3 258.091 110.788 262.947 109.27C267.413 107.807 271.825 106.119 276.049 104.053C274.397 107.334 272.26 110.381 269.794 113.101C256.103 111.735 241.259 116.753 234.815 128.699C234.92 128.034 235.107 127.28 235.425 126.461V126.459ZM316.247 165.184C303.292 163.633 292.461 158.183 284.009 148.973C315.311 167.193 348.25 133.876 343.683 102.038C349.697 121.59 348.527 145.197 339.176 163.781C336.949 164.355 327.484 166.531 316.247 165.184ZM182.696 130.525C184.587 160.625 211.776 188.567 242.7 183.94C261.381 182.102 276.915 170.602 279.913 152.513C281.389 175.387 267.52 196.84 247.049 208.513C227.32 204.411 209.315 192.589 197.476 176.247C187.667 161.998 182.461 149.635 182.696 130.525ZM270.92 189.003C278.36 178.982 282.474 163.426 281.459 151.928C287.805 170.899 288.029 190.684 280.598 208.709C270.213 210.739 259.973 210.858 249.434 208.902C258.405 203.272 265.631 196.581 270.923 189.003H270.92Z" fill="#E66500"/>
</g>
<path d="M455.747 154.554C456.094 159.081 450.908 163.174 444.171 163.69L24.6521 195.82C17.9153 196.336 12.1672 193.081 11.8205 188.554C11.4737 184.026 16.6591 179.934 23.3959 179.418L442.915 147.288C449.652 146.772 455.4 150.027 455.747 154.554Z" fill="#E66500"/>
<path d="M145.217 200.943C146.628 173.944 125.882 150.913 98.8809 149.503C71.8794 148.092 48.8468 168.836 47.4361 195.836C46.0254 222.835 66.7708 245.866 93.7723 247.276C120.774 248.686 143.806 227.942 145.217 200.943Z" fill="#00144A"/>
<path d="M61.3615 201.058C59.8826 181.75 74.345 164.907 93.6552 163.428C112.965 161.949 129.809 176.41 131.287 195.703C132.764 214.996 118.304 231.87 99.0103 233.348C79.7161 234.826 62.8403 220.367 61.3615 201.058Z" fill="#6D6D6D"/>
<path d="M71.2016 200.305C70.139 186.43 80.5172 174.332 94.3929 173.269C108.269 172.206 120.368 182.583 121.431 196.458C122.493 210.333 112.115 222.431 98.2395 223.494C84.3638 224.557 72.2643 214.18 71.2016 200.305Z" fill="white"/>
<path d="M425.754 180.444C427.72 153.479 407.453 130.027 380.487 128.061C353.52 126.095 330.065 146.36 328.099 173.325C326.132 200.289 346.399 223.742 373.366 225.708C400.332 227.674 423.787 207.409 425.754 180.444Z" fill="#00144A"/>
<path d="M341.962 179.568C340.483 160.259 354.946 143.417 374.24 141.939C393.534 140.461 410.41 154.92 411.887 174.213C413.365 193.505 398.905 210.38 379.595 211.859C360.285 213.338 343.441 198.877 341.962 179.568Z" fill="#6D6D6D"/>
<path d="M351.802 178.815C350.74 164.94 361.118 152.841 374.993 151.779C388.869 150.716 400.969 161.093 402.031 174.968C403.094 188.842 392.716 200.941 378.84 202.004C364.964 203.067 352.865 192.689 351.802 178.815Z" fill="white"/>
<path d="M454.271 121.008C454.823 126.263 451.293 131.092 446.364 131.805C441.436 132.519 437.001 128.855 436.449 123.6L434.698 107.045C434.146 101.79 437.676 96.9605 442.605 96.2475C447.533 95.5344 451.968 99.1979 452.52 104.453L454.271 121.008Z" fill="#6D6D6D"/>
<path d="M41.9229 129.274C42.2519 132.936 39.5571 136.183 35.8949 136.512C32.234 136.857 28.9859 134.146 28.6569 130.484L27.5947 118.939C27.2657 115.277 29.9445 112.031 33.6227 111.701C37.2837 111.356 40.5318 114.067 40.8608 117.728L41.9229 129.274Z" fill="#00144A"/>
<path d="M194.031 106.305C194.268 109.391 191.966 112.074 188.879 112.311L161.176 114.432C158.089 114.669 155.406 112.368 155.169 109.281C154.933 106.194 157.234 103.511 160.321 103.275L188.025 101.153C191.112 100.917 193.795 103.218 194.031 106.305Z" fill="#E66500"/>
<path d="M123.289 116.305C123.525 119.391 121.224 122.074 118.137 122.311L90.4338 124.432C87.3467 124.669 84.6637 122.368 84.4273 119.281C84.1909 116.194 86.4922 113.511 89.5792 113.275L117.282 111.153C120.369 110.917 123.052 113.218 123.289 116.305Z" fill="#E66500"/>
<path d="M213.471 28.1791C198.132 29.5641 163.339 34.7678 133.789 39.3919C136.068 47.8206 142.899 72.8161 146.316 82.5808C148.694 89.3524 151.975 94.179 154.347 97.0699L243.567 90.2368C238.492 76.346 219.778 40.2128 213.472 28.1951L213.471 28.1791Z" fill="white"/>
<path d="M297.979 67.3111C285.068 56.899 240.59 35.1102 225.168 29.2891C227.915 35.1753 232.528 44.9293 238.092 56.1304C244.346 68.7342 251.81 82.1509 255.849 89.2805L276.896 87.6685C292.17 86.4987 322.542 87.1158 297.979 67.3111Z" fill="white"/>
<path d="M129.905 58.3512C127.175 49.0999 124.966 43.9163 123.274 41.038C101.495 44.4849 84.7415 47.2558 84.7415 47.2558C67.4788 94.2625 85.5626 102.322 85.5626 102.322L138.348 98.2789C139.377 91.6506 135.392 76.9971 129.905 58.3512Z" fill="white"/>
</g>
<defs>
<clipPath id="clip0_1144_4606">
<rect width="448" height="220" fill="white" transform="translate(0 34.2109) rotate(-4.37962)"/>
</clipPath>
</defs>
</svg>
