<svg fill="none" xmlns="http://www.w3.org/2000/svg" viewBox="0 0 872 1005">
  <path d="M457.5 779H416l-50.5 226h124l-32-226Z" fill="#F58B01"/>
  <path d="M828 34H81v745h747V34Z" fill="#fff"/>
  <path d="M871.664 778.578h-36.615V33.82H36.913v744.758H.332V2.999h871.332v775.579Z" fill="#E6E6E6"/>
  <path d="M857.039 778.578h-47.593V58.47H62.552v720.108H14.959V18.409h842.08v760.169Z" fill="#EEE"/>
  <path d="M44.244 43.06v735.518h18.308V58.471h746.894v720.107h18.308V43.061H44.244Z" fill="#fff"/>
  <path d="M394.029 808.527V1.641L45.501 33.177V776.99l348.528 31.536Z" fill="#EDEEEF" stroke="#D5DADD" stroke-width="3"/>
  <path d="m414.501 3.503-17.473-1.838v806.84l17.473-1.813V3.503Z" fill="#D5DADD" stroke="#D5DADD" stroke-width="3"/>
  <path d="M479.356 808.53V1.638L834.5 33.178V776.99L479.356 808.53Z" fill="#EDEEEF" stroke="#D5DADD" stroke-width="3"/>
  <path d="m458.499 3.506 17.858-1.844v806.846l-17.858-1.818V3.506Z" fill="#D5DADD" stroke="#D5DADD" stroke-width="3"/>
  <path d="m516.724 380.862-3.336.236c-7.446.527-12.956 8.3-12.314 17.363.642 9.064 7.193 15.982 14.64 15.454l2.897-.205c5.95-2.047 9.974-9.308 9.417-17.158-.556-7.851-5.348-14.318-11.304-15.69Z" fill="#EAECEE"/>
  <path d="M515.915 380.919c7.446-.527 13.998 6.39 14.64 15.454.642 9.063-4.869 16.836-12.315 17.363-7.446.528-13.998-6.39-14.64-15.453-.642-9.064 4.869-16.836 12.315-17.364Z" fill="#D5DADD"/>
  <path d="M559.668 394.31a6.185 6.185 0 0 1-5.729 6.603l-25.776 1.826s2.258-.16 1.821-6.326c-.437-6.166-2.728-6.003-2.695-6.006l25.776-1.826a6.185 6.185 0 0 1 6.603 5.729Z" fill="url(#a)"/>
  <path d="m358.106 380.862 3.336.236c7.446.527 12.957 8.3 12.314 17.363-.642 9.064-7.193 15.982-14.64 15.454l-2.897-.205c-5.95-2.047-9.974-9.308-9.417-17.158.556-7.851 5.349-14.318 11.304-15.69Z" fill="#EAECEE"/>
  <path d="M358.915 380.919c-7.446-.527-13.997 6.39-14.64 15.454-.642 9.063 4.869 16.836 12.315 17.363 7.446.528 13.998-6.39 14.64-15.453.642-9.064-4.869-16.836-12.315-17.364Z" fill="#D5DADD"/>
  <path d="M315.163 394.31a6.184 6.184 0 0 0 5.729 6.603l25.775 1.826s-2.258-.16-1.821-6.326c.437-6.166 2.728-6.003 2.695-6.006l-25.776-1.826a6.184 6.184 0 0 0-6.602 5.729Z" fill="url(#b)"/>
  <defs>
    <linearGradient id="a" x1="543.308" y1="389.475" x2="544.153" y2="401.403" gradientUnits="userSpaceOnUse">
      <stop stop-color="#767B7F"/>
      <stop offset="1" stop-color="#8D8D8D"/>
    </linearGradient>
    <linearGradient id="b" x1="331.522" y1="389.475" x2="330.677" y2="401.403" gradientUnits="userSpaceOnUse">
      <stop stop-color="#767B7F"/>
      <stop offset="1" stop-color="#8D8D8D"/>
    </linearGradient>
  </defs>
</svg>
