<svg xmlns="http://www.w3.org/2000/svg" width="113" height="115" fill="none">
  <g clip-path="url(#a)">
    <path fill="#00144A" d="M113 56.5c0-8.225-1.411-16.038-4.058-23.088a57.75 57.75 0 0 0-.775-1.95c-.028-.068-.055-.134-.084-.2a57.307 57.307 0 0 0-.837-1.896l-.027-.057a54.07 54.07 0 0 0-1.92-3.751l-.091-.162a54.625 54.625 0 0 0-1.027-1.734 52.763 52.763 0 0 0-2.447-3.648 51.679 51.679 0 0 0-4.005-4.807l-.046-.049a49.184 49.184 0 0 0-2.528-2.48 48.939 48.939 0 0 0-2.066-1.79l-.013-.012a47.675 47.675 0 0 0-5.148-3.659 47.724 47.724 0 0 0-11.83-5.208v-.003l-.24-.066a48.646 48.646 0 0 0-2.022-.524l-.412-.098c-.306-.07-.613-.135-.92-.2l-.321-.068c-.418-.085-.84-.165-1.264-.24l-.167-.028a51.79 51.79 0 0 0-1.56-.245L68.96.504a53.685 53.685 0 0 0-3.46-.36l-.438-.028c-.438-.027-.879-.05-1.32-.068L63.254.03C62.677.011 62.095 0 61.51 0a57.233 57.233 0 0 0-2.347.052c-.505.02-1.009.047-1.511.08-.12.009-.24.015-.361.023-.612.044-1.224.099-1.833.161-.129.014-.257.03-.385.043-.508.056-1.017.119-1.523.187l-.423.058a61.599 61.599 0 0 0-1.885.297 62.347 62.347 0 0 0-2.195.426c-.594.126-1.186.259-1.776.402l-.051.012a62.89 62.89 0 0 0-1.906.497c-.07.019-.138.04-.208.058a63.062 63.062 0 0 0-1.897.563 64.971 64.971 0 0 0-3.758 1.307l-.136.052c-.86.33-1.712.68-2.556 1.045l-.004.002c-.389.168-.774.34-1.16.515-.007.004-.014.008-.022.01-.556.255-1.106.519-1.654.787-.043.022-.087.04-.13.062l-.182.092-.18.092-.188.098c-.05.024-.098.05-.147.075-.296.15-.592.3-.885.455-.09.048-.181.092-.271.14l-.114.06-.064.036-.085.046-.01.005c-.508.274-1.013.552-1.513.838l-.021.013a5.023 5.023 0 0 0-.021.012h-.002a67.197 67.197 0 0 0-3.533 2.176l-.07.046a66.47 66.47 0 0 0-2.521 1.754l-.052.037a64.624 64.624 0 0 0-3.199 2.497l-.17.142c-.24.2-.477.401-.712.604l-.082.07c-.48.416-.955.838-1.422 1.267l-.093.086c-.215.198-.429.398-.64.599l-.238.226c-.647.62-1.28 1.253-1.899 1.897l-.264.276c-.181.191-.36.383-.54.577l-.285.313c-.343.376-.68.756-1.013 1.14-.062.07-.125.141-.186.213a60.827 60.827 0 0 0-.8.952c-.15.182-.3.364-.447.549-.118.146-.233.294-.35.44-.23.292-.457.584-.68.88-.125.164-.25.327-.373.493a64.814 64.814 0 0 0-.742 1.025c-.12.17-.24.338-.358.508-.199.286-.395.574-.588.863-.11.166-.219.334-.328.501a53.842 53.842 0 0 0-1.074 1.714c-.087.144-.175.288-.26.433a55.72 55.72 0 0 0-.569.987 70.267 70.267 0 0 0-.61 1.116c-.08.152-.16.302-.238.454a54.138 54.138 0 0 0-1.607 3.37l-.17.394c-.157.369-.31.739-.458 1.11l-.119.306a49.27 49.27 0 0 0-.334.88l-.15.407c-.107.3-.213.603-.315.906-.033.096-.068.193-.1.29a54.609 54.609 0 0 0-.475 1.516c-.09.3-.176.6-.26.902l-.104.378c-.104.389-.206.78-.301 1.171l-.018.072a51.53 51.53 0 0 0-.538 2.532L.76 48c-.074.415-.144.831-.208 1.25l-.033.233c-.051.35-.099.7-.143 1.052l-.046.377c-.04.352-.078.705-.112 1.058-.007.079-.017.157-.023.236a49.144 49.144 0 0 0-.16 2.618c-.004.122-.01.245-.012.367-.012.435-.02.871-.02 1.308 0 16.337 6.074 31.349 16.337 41.947a51.585 51.585 0 0 0 1.859 1.828 56.382 56.382 0 0 0 1.943 1.731c.596.505 1.202.998 1.82 1.476a52.573 52.573 0 0 0 2.955 2.124c.594.395 1.198.774 1.808 1.144a48.843 48.843 0 0 0 3.925 2.151c.796.391 1.604.761 2.424 1.111a48.15 48.15 0 0 0 1.585.639c.72.278 1.447.544 2.184.79.854.285 1.72.549 2.597.79 4.383 1.206 9.038 1.849 13.914 1.849.458 0 .915-.007 1.37-.018.15-.004.297-.01.446-.015.308-.01.616-.021.923-.036l.525-.03a60.149 60.149 0 0 0 2.224-.175c.178-.018.355-.035.532-.054.29-.032.579-.066.867-.102.163-.02.325-.039.487-.06.347-.046.692-.096 1.037-.149l.307-.045a54.43 54.43 0 0 0 1.329-.224l.39-.075c.313-.058.626-.118.938-.182.17-.035.34-.073.51-.109.271-.059.542-.118.813-.18.181-.042.363-.084.544-.128.26-.062.518-.126.777-.191.183-.047.367-.093.55-.143.259-.068.517-.139.776-.211.177-.049.354-.098.531-.149.28-.081.558-.165.836-.25.152-.047.305-.091.457-.138.418-.132.835-.267 1.251-.407.123-.042.245-.087.367-.129.3-.103.601-.207.9-.316.177-.064.353-.131.528-.197.243-.091.486-.182.728-.276.19-.073.378-.149.567-.224a58.579 58.579 0 0 0 1.914-.803c.195-.086.39-.171.582-.258.218-.098.434-.199.651-.301.19-.088.38-.176.57-.266.233-.112.465-.227.698-.342a62.246 62.246 0 0 0 1.623-.828c.201-.107.4-.217.6-.325.19-.104.38-.207.57-.313.205-.115.411-.233.617-.351.178-.102.358-.205.536-.31a50.861 50.861 0 0 0 1.135-.682c.21-.13.42-.259.63-.391.16-.101.32-.204.48-.307.215-.139.431-.278.645-.419.136-.09.271-.183.407-.274a62.315 62.315 0 0 0 2.42-1.711c.106-.078.212-.155.317-.234.23-.172.456-.347.683-.523l.36-.279a69.126 69.126 0 0 0 1.684-1.371l.316-.27c.23-.197.46-.394.688-.594l.226-.2a63.193 63.193 0 0 0 3.272-3.119l.162-.165c.232-.24.46-.48.689-.723l.2-.215a65.737 65.737 0 0 0 1.53-1.707l.113-.13a60.649 60.649 0 0 0 2.323-2.888c.448-.59.888-1.185 1.313-1.791l.077-.11c.21-.3.417-.603.621-.908l.09-.134c.206-.308.41-.62.61-.931l.049-.077a58.293 58.293 0 0 0 3.505-6.325c.013-.027.027-.054.039-.082.165-.349.327-.699.484-1.052l.026-.059a54.81 54.81 0 0 0 2.854-7.994l.026-.094c.102-.378.2-.758.293-1.138v-.001c.982-4 1.509-8.141 1.509-12.373v.002Z"/>
    <path fill="#FF721A" d="M90.97 62.845c-2.346-2.538-6.395-1.872-9.85-1.822-5.82.084-11.636-2.295-15.73-6.431-1.238-1.25-2.618-2.776-4.369-2.607-1.456.14-2.704 1.478-4.148 1.245-1.246-.2-1.99-1.462-2.529-2.602a74.04 74.04 0 0 1-3.28-8.163c-.75-2.247-.905-5.513 1.37-6.178 1.894-.554 4.256 1.338 5.725.019 2.117-1.902-2.3-5.588-.719-7.953.576-.86 1.73-1.1 2.534-1.755 1.9-1.547 1.205-4.545 1.754-6.932.938-4.082 5.415-6.053 8.643-8.721 2.776-2.295 4.744-5.477 5.726-8.938l.001-.003c-.08-.023-.161-.044-.241-.066a48.646 48.646 0 0 0-1.212-.325c-.268-.07-.539-.134-.809-.199l-.413-.098c-.305-.07-.612-.135-.92-.2l-.32-.068c-.42-.085-.84-.165-1.264-.24L70.752.78C70.235.69 69.715.61 69.19.535l-.23-.033a53.677 53.677 0 0 0-3.46-.36l-.44-.028a60.19 60.19 0 0 0-1.32-.068l-.486-.019c-.578-.018-1.16-.029-1.745-.029a57.223 57.223 0 0 0-2.348.052 56.5 56.5 0 0 0-1.51.08c-.12.009-.241.015-.361.023-.612.044-1.224.099-1.834.161-.128.014-.256.03-.384.043-.508.056-1.017.119-1.523.187l-.423.058A61.599 61.599 0 0 0 51.242.9a62.33 62.33 0 0 0-2.195.427c-.594.125-1.186.258-1.776.401l-.052.012c-.638.155-1.272.322-1.905.497-.07.019-.138.04-.208.058a63.13 63.13 0 0 0-1.734.512l-.163.051a64.942 64.942 0 0 0-3.758 1.307l-.136.052c-.86.33-1.712.68-2.557 1.045l-.004.002c-.388.168-.774.34-1.159.516l-.022.01c-.556.254-1.106.518-1.654.786-.042.022-.086.04-.129.062l-.182.092-.18.092-.189.098c-.049.024-.098.05-.147.076-.296.15-.591.3-.885.454-.09.048-.18.092-.27.14l-.115.061-.064.035-.084.046-.01.005a68.67 68.67 0 0 0-1.534.85l-.022.013h-.001c-.732 1.01-1.359 2.08-1.785 3.252-.473 1.304-.638 2.772-.421 4.142l.114-.165-.114.17c.214 1.348.797 2.6 1.82 3.507.945.837 2.165 1.306 3.13 2.12 2.488 2.095 2.67 5.88 1.992 9.061-.678 3.181-2.013 6.293-1.842 9.541.171 3.248 2.636 6.743 5.876 6.46 1.193-.103 2.305-.702 3.5-.78 1.196-.079 2.628.725 2.503 1.916-.125 1.197-1.698 2.412-.855 3.27.483.491 1.295.218 1.983.233 2.099.044 2.906 2.8 2.7 4.889-.488 4.962-3.173 9.402-4.707 14.147-1.533 4.745-1.593 10.678 2.192 13.924 2.843 2.44 6.998 2.616 10.22 4.528 1.154.686 2.145 1.57 3.014 2.579h.003-.003c1.595 1.847 2.776 4.113 3.77 6.366a69.612 69.612 0 0 1 4.168 12.553c.136.592.34 1.234.608 1.837a59.894 59.894 0 0 0 4.815-1.498c-.24-1.32-.773-2.61-.645-3.942.291-3.06 3.901-5.032 4.12-8.099.128-1.806-.972-3.445-1.451-5.192a7.995 7.995 0 0 1-.27-2.551c.2-3.718 2.853-7.275 5.811-9.792 3.631-3.09 7.993-5.539 10.507-9.589 1.635-2.632 2.217-6.367.113-8.642l-.003.001ZM109.074 50.005a56.77 56.77 0 0 1-.387 13.257c-.091.621.858.89.952.263a58.07 58.07 0 0 0-1.417-23.817 56.518 56.518 0 0 0-2.443-7.034c1.011.347 2.104.64 3.162.739a55.715 55.715 0 0 0-.858-2.15 57.325 57.325 0 0 0-.838-1.897l-.027-.057c-.3-.646-.611-1.284-.933-1.913l-.007-.013a54.942 54.942 0 0 0-.979-1.825l-.091-.16a56.588 56.588 0 0 0-1.027-1.735 53.147 53.147 0 0 0-2.372-3.545l-.076-.103a51.866 51.866 0 0 0-1.933-2.471 50.22 50.22 0 0 0-2.072-2.337l-.046-.048a49.184 49.184 0 0 0-2.528-2.48 48.813 48.813 0 0 0-2.065-1.791l-.014-.011a47.677 47.677 0 0 0-5.148-3.66c-1.209 1.722-2.413 3.656-1.96 5.671.509 2.27 2.918 3.609 3.869 5.733.914 2.042.355 4.526 1.323 6.543.986 2.055 3.269 3.091 5.382 3.945a339.065 339.065 0 0 0 7.967 3.095 56.42 56.42 0 0 1 4.566 17.802v-.001Z"/>
    <path fill="#CC7400" d="M72.342 91.196a56.522 56.522 0 0 1-3.189.328l-.4.03c-1.22.082-2.44.127-3.659.129h-.005c-.598 0-1.196-.01-1.794-.028l-.246-.009a51.385 51.385 0 0 1-1.605-.081l-.236-.016a51.145 51.145 0 0 1-1.78-.154h-.002c1.594 1.848 2.776 4.114 3.77 6.366a69.63 69.63 0 0 1 4.167 12.553c.136.593.34 1.234.609 1.837a59.894 59.894 0 0 0 4.815-1.498c-.24-1.32-.773-2.61-.646-3.942.292-3.06 3.902-5.031 4.12-8.098.129-1.807-.972-3.446-1.45-5.192a7.993 7.993 0 0 1-.27-2.552c-.578.098-1.158.186-1.738.267l-.461.06ZM28.32 11.853c-.473 1.304-.638 2.772-.421 4.141l.114-.165c.278-.413.56-.824.848-1.23l.148-.205c.25-.35.505-.7.762-1.047l.301-.402c.245-.325.494-.648.744-.97l.203-.26c.311-.394.627-.785.946-1.172l.28-.337c.256-.307.515-.611.775-.913l.262-.305c.336-.385.676-.767 1.02-1.146.061-.068.124-.134.186-.202.295-.323.593-.642.893-.959l.28-.295c.358-.373.718-.744 1.082-1.11-.79.344-1.574.702-2.35 1.075l-.213.101a69.305 69.305 0 0 0-1.792.904c-.21.11-.422.217-.632.33l-.084.045c-.523.281-1.042.569-1.557.864l-.009.004-.001.001c-.732 1.01-1.359 2.08-1.785 3.252v.001Z"/>
    <path fill="#fff" d="M90.151 11.284c-.48-.41-1.18.283-.697.697a57.043 57.043 0 0 1 13.18 16.376 55.6 55.6 0 0 1 1.874 3.846 56.422 56.422 0 0 1 4.566 17.802 56.77 56.77 0 0 1-.387 13.258c-.092.62.858.888.951.262a58.036 58.036 0 0 0-1.417-23.817 57.484 57.484 0 0 0-9.718-19.581 57.86 57.86 0 0 0-8.352-8.842v-.002Z"/>
  </g>
  <defs>
    <clipPath id="a">
      <path fill="#fff" d="M0 0h113v114.082H0z"/>
    </clipPath>
  </defs>
</svg>
