<svg fill="none" xmlns="http://www.w3.org/2000/svg" viewBox="0 0 433 722">
  <path fill-rule="evenodd" clip-rule="evenodd" d="M172.979 314.679a2.5 2.5 0 0 0-4.959.642c9.878 76.387 39.118 151.719 87.124 212.412-20.476 23.714-38.187 50.933-55.311 78.305-2.808 4.488-5.6 8.98-8.385 13.461l-.007.011c-21.658 34.845-42.935 69.077-68.441 96.349V722c.659 0 1.318-.259 1.809-.774 26.695-27.977 48.754-63.473 70.875-99.07 2.792-4.492 5.584-8.986 8.387-13.466 16.975-27.132 34.345-53.804 54.254-76.991.82 1.008 1.644 2.011 2.474 3.01l1.807 2.177c13.545 16.32 29.467 35.505 47.819 50.561 19.189 15.742 41.326 27.218 66.524 26.05 20.208-.936 44.582-9.761 52.507-31.243 6.117-16.58 3.823-35.934-3.338-53.158-7.164-17.231-19.344-32.695-33.522-41.498-19.759-12.268-38.149-16.964-55.898-14.927-17.714 2.032-34.461 10.732-51.028 24.636-9.643 8.093-18.65 17.038-27.173 26.603-47.044-59.779-75.782-133.939-85.518-209.231Zm91.666 216.835a369.46 369.46 0 0 1-2.984-3.639c8.545-9.643 17.565-18.632 27.224-26.738 16.11-13.521 31.965-21.615 48.382-23.499 16.382-1.879 33.653 2.388 52.692 14.208 13.13 8.152 24.699 22.711 31.542 39.169 6.845 16.465 8.814 34.467 3.264 49.509-6.861 18.598-28.511 27.073-48.048 27.979-23.452 1.087-44.4-9.564-63.12-24.922-17.971-14.743-33.619-33.595-47.231-49.994v-.001l-.99-1.192-.731-.88Z" fill="#767B7F"/>
  <path d="m52.168 144.425 79.881-31.86 58.346 194.067a9.999 9.999 0 0 1-5.872 12.167L158.696 329.1a10 10 0 0 1-12.57-4.661L52.168 144.425Z" fill="#A9B4BE"/>
  <path d="m115.33 119.233 17.184-6.853 58.346 194.066a10 10 0 0 1-5.872 12.168l-6.816 2.719-62.842-202.1Z" fill="#767B7F"/>
  <path d="M31.674 112.085a2 2 0 0 1 .948-2.928l90.675-36.165a2 2 0 0 1 2.712 1.519l6.505 37.869-80.345 32.045-20.495-32.34Z" fill="#F58B00"/>
  <path d="m103.763 80.783 19.534-7.791a2 2 0 0 1 2.712 1.519l6.505 37.869-17.184 6.853-11.567-38.45Z" fill="#C97701"/>
  <path fill-rule="evenodd" clip-rule="evenodd" d="M121.876 69.252a52.842 52.842 0 0 0-3.784-20.023C107.248 22.04 76.417 8.79 49.229 19.634 22.04 30.478 8.79 61.31 19.635 88.499a52.846 52.846 0 0 0 11.034 17.131l91.207-36.377Z" fill="#767B7F"/>
</svg>
