<svg width="175" height="327" viewBox="0 0 175 327" fill="none" xmlns="http://www.w3.org/2000/svg">
<rect x="76" y="167" width="24" height="160" fill="#D5DADD"/>
<rect width="175" height="218" rx="10" fill="#F79C37"/>
<path d="M52.8418 66.5615H93.0225C100.47 66.5615 106.67 67.7676 111.621 70.1797C116.615 72.5918 120.317 75.9772 122.729 80.3359C125.184 84.6947 126.411 89.8151 126.411 95.6973C126.411 101.156 125.205 106.171 122.793 110.741C120.423 115.312 116.784 118.972 111.875 121.723C107.008 124.473 100.978 125.849 93.7842 125.849H71.5674V156H52.8418V66.5615ZM91.4355 110.106C96.8099 110.106 100.83 108.858 103.496 106.361C106.204 103.822 107.559 100.352 107.559 95.9512C107.559 91.5078 106.162 88.1436 103.369 85.8584C100.576 83.5732 96.429 82.4307 90.9277 82.4307H71.5674V110.106H91.4355Z" fill="white"/>
</svg>
