<svg fill="none" xmlns="http://www.w3.org/2000/svg" viewBox="100 100 370 400">
  <path d="m339.528 182.837 18.178-10.721a6.266 6.266 0 0 1 4.736-.677 6.198 6.198 0 0 1 3.807 2.866l21.21 36.17a6.223 6.223 0 0 1 .647 4.729 6.3 6.3 0 0 1-2.891 3.822l-18.178 10.721a7.45 7.45 0 0 1-5.628.804 7.357 7.357 0 0 1-4.522-3.405l-20.006-34.117a7.353 7.353 0 0 1-.959-2.734 7.42 7.42 0 0 1 1.433-5.518 7.494 7.494 0 0 1 2.173-1.94Z" fill="#A9B4BE"/>
  <path d="m343.544 180.465-4.93 2.908 27.509 46.909 4.929-2.907-27.508-46.91Z" fill="#767B7F"/>
  <path d="m309.551 185.565 19.453-11.473a5.627 5.627 0 0 1 2.063-.724 5.584 5.584 0 0 1 2.177.118 5.546 5.546 0 0 1 3.408 2.566l34.084 58.124a6.223 6.223 0 0 1 .648 4.729 6.298 6.298 0 0 1-2.892 3.822l-18.888 11.14a5.608 5.608 0 0 1-4.24.606 5.548 5.548 0 0 1-3.408-2.566l-34.414-58.686a5.571 5.571 0 0 1-.579-4.234 5.644 5.644 0 0 1 2.588-3.422Z" fill="#A9B4BE"/>
  <path d="m308.113 186.408-11.617 6.852c-2.979 1.757-3.984 5.585-2.244 8.551l33.751 57.556c1.739 2.965 5.563 3.946 8.542 2.189l11.617-6.852c2.979-1.757 3.983-5.585 2.244-8.551l-33.751-57.556c-1.739-2.965-5.563-3.946-8.542-2.189Z" fill="#767B7F"/>
  <path d="m314.873 206.309-4.327 2.552a1.334 1.334 0 0 0-.478 1.821l4.498 7.669c.37.632 1.184.841 1.819.467l4.327-2.553a1.333 1.333 0 0 0 .478-1.82l-4.498-7.67a1.325 1.325 0 0 0-1.819-.466ZM328.323 229.248l-4.327 2.552a1.334 1.334 0 0 0-.478 1.821l4.498 7.669c.37.632 1.185.841 1.819.467l4.327-2.553a1.333 1.333 0 0 0 .478-1.82l-4.498-7.67a1.324 1.324 0 0 0-1.819-.466Z" fill="#45484A"/>
  <path d="M429.066 320.533c-13.208 12.023-26.909 16.772-38.605 13.358-8.846-2.582-16.933-10.131-22.185-20.727-5.072-10.235-6.811-21.712-4.849-31.478 5.359-26.522 30.952-52.927 86.605-48.793-5.117-17.52-15.908-32.451-30.297-39.096-5.198-2.427-23.532-9.62-40.212-.853a2.578 2.578 0 0 1-1.962.184 2.557 2.557 0 0 1-1.681-3.217 2.596 2.596 0 0 1 1.266-1.516c18.779-9.866 39.025-1.929 44.779.736 16.567 7.692 28.724 25.339 33.865 45.72.072.195.123.398.151.604 3.477 14.251 3.52 29.787-.797 44.123-4.455 14.808-14.187 30.102-26.007 40.891l-.071.064Zm-45.043-65.268a49.941 49.941 0 0 0-15.55 27.422c-3.733 18.448 8.139 41.78 23.468 46.273 9.892 2.877 21.851-1.454 33.697-12.237l.082-.074c11.17-10.168 20.333-24.598 24.533-38.559 3.916-12.981 4.052-26.996 1.165-39.943-23.768-2.029-44.067 1.656-58.734 10.641a57.078 57.078 0 0 0-8.661 6.477Z" fill="#767B7F"/>
  <path d="m197.465 269.254 40.017-23.602a8.1 8.1 0 0 1 6.128-.875 8.012 8.012 0 0 1 4.926 3.708 8.056 8.056 0 0 1 .838 6.12 8.15 8.15 0 0 1-3.742 4.946l-40.017 23.602-8.15-13.899ZM215.891 300.021l40.029-23.609a8.102 8.102 0 0 1 6.129-.875 8.012 8.012 0 0 1 4.926 3.708 8.056 8.056 0 0 1 .837 6.12 8.143 8.143 0 0 1-3.741 4.946l-40.03 23.61-8.15-13.9Z" fill="#F58B00"/>
  <path d="m156.648 262.96 32.188-18.984a8.274 8.274 0 0 1 3.03-1.063 8.193 8.193 0 0 1 6.08 1.558 8.137 8.137 0 0 1 2.125 2.385l44.384 75.688a8.179 8.179 0 0 1 .851 6.219 8.277 8.277 0 0 1-3.803 5.028l-32.187 18.984-52.668-89.815Z" fill="#A9B4BE"/>
  <path d="m163.14 259.123-14.149 8.345c-3.918 2.31-5.239 7.346-2.952 11.247l44.388 75.694c2.288 3.901 7.318 5.19 11.235 2.879l14.149-8.345c3.918-2.31 5.239-7.346 2.952-11.247l-44.388-75.694c-2.287-3.901-7.317-5.19-11.235-2.879Z" fill="#767B7F"/>
  <path d="m162.075 280.518-22.505 13.274c-3.918 2.31-5.239 7.346-2.951 11.247l27.412 46.746c2.287 3.901 7.317 5.19 11.235 2.879l22.505-13.273c3.918-2.311 5.239-7.347 2.952-11.247l-27.412-46.746c-2.288-3.901-7.318-5.19-11.236-2.88Z" fill="#A9B4BE"/>
  <path d="m134.201 296.961-6.11 3.603c-3.918 2.311-5.239 7.346-2.952 11.247l27.412 46.746c2.288 3.901 7.318 5.19 11.236 2.88l6.11-3.604c3.917-2.311 5.239-7.346 2.951-11.247l-27.412-46.746c-2.287-3.901-7.318-5.19-11.235-2.879Z" fill="#767B7F"/>
  <path d="M398.299 401.204c-.46.408-1.05.64-1.664.653a2.56 2.56 0 0 1-2.58-2.115 2.587 2.587 0 0 1 .318-1.756c22.997-38.31 18.255-78.578-.596-92.162-7.413-5.342-17.712-6.948-29.782-4.654-21.961 4.148-45.972 20.479-58.441 39.651-7.516 11.555-8.487 20.647-9.427 29.443-.94 8.797-1.92 18.075-9.61 28.847-11.583 16.217-32.318 27.982-56.924 32.31-24.999 4.389-50.325.263-69.544-11.372-19.704-11.926-47.685-40.586-38.848-66.759 4.648-13.775 17.164-21.643 24.222-25.108a2.58 2.58 0 0 1 1.969-.118 2.554 2.554 0 0 1 1.466 1.308c.295.614.333 1.322.105 1.967a2.6 2.6 0 0 1-1.317 1.474c-6.35 3.126-17.581 10.141-21.614 22.129-4.276 12.684 2.074 25.647 8.152 34.284a99.582 99.582 0 0 0 28.523 26.443c18.15 10.985 42.208 14.888 66 10.717 23.267-4.09 42.81-15.097 53.599-30.215 6.913-9.678 7.778-17.802 8.693-26.407.958-8.962 2.039-19.115 10.232-31.711 13.179-20.263 38.598-37.5 61.815-41.92 13.488-2.565 25.155-.65 33.742 5.534 10.686 7.7 17.264 22.435 18.062 40.442.834 19.043-4.873 39.831-16.08 58.518a2.668 2.668 0 0 1-.471.577Z" fill="#767B7F"/>
  <path d="m212.631 111.543-9.074 72.05a.777.777 0 0 0 .332.721.773.773 0 0 0 .789.059l25.45-13.08a.778.778 0 0 1 .935.179.775.775 0 0 1 .162.298l12.082 42.042a.777.777 0 0 0 .8.572.768.768 0 0 0 .708-.676l9.583-72.335a.772.772 0 0 0-1.116-.784l-25.733 13.428a.781.781 0 0 1-.939-.18.786.786 0 0 1-.167-.298l-12.304-42.109a.78.78 0 0 0-.805-.57.762.762 0 0 0-.703.683Z" fill="#F58B00"/>
</svg>
