<svg fill="none" xmlns="http://www.w3.org/2000/svg" viewBox="0 0 244 204">
  <path d="m179.907 134.007 6.583-31.648-36.209 22.238 7.242 25.879c.927 3.313 5.08 4.399 7.511 1.964l10.727-10.747a15.282 15.282 0 0 0 4.146-7.686Z" fill="#F58B00"/>
  <path fill-rule="evenodd" clip-rule="evenodd" d="m180.436 106.077-5.2 24.999a15.283 15.283 0 0 1-4.146 7.685l-10.727 10.747a4.437 4.437 0 0 1-2.733 1.302 5.007 5.007 0 0 1-.107-.334l-7.242-25.879 30.155-18.52Z" fill="#CC7400"/>
  <path d="M152.381 35.915c-38.57 27.648-55.565 65.199-58.375 82.319-.497 16.946 14.581 26.098 23.331 26.851 14.16-1.585 37.66-15.279 63.22-36.225 33.625-27.555 68.948-93.429 59.395-103.467-9.027-9.486-43.16-1.313-87.571 30.522Z" fill="#fff"/>
  <path fill-rule="evenodd" clip-rule="evenodd" d="M209.89 6.588c-15.021 4.776-34.516 14.69-56.635 30.546-38.181 27.37-54.959 64.481-57.752 81.244-.203 7.925 3.203 14.02 7.726 18.259 4.527 4.243 10.095 6.552 14.09 6.94 6.753-.794 15.894-4.479 26.604-10.644 10.752-6.189 22.949-14.798 35.683-25.233 16.613-13.614 33.74-36.795 45.531-57.875 5.891-10.532 10.409-20.468 12.861-28.35 1.227-3.949 1.915-7.314 2.025-9.947.112-2.697-.394-4.299-1.158-5.101-1.855-1.95-5.196-3.176-10.18-3.244-4.947-.067-11.28 1.016-18.795 3.405ZM228.726.184c5.343.072 9.654 1.381 12.312 4.175 1.625 1.707 2.104 4.36 1.982 7.294-.125 2.998-.892 6.642-2.158 10.712-2.535 8.153-7.158 18.29-13.107 28.925-11.888 21.255-29.234 44.788-46.247 58.73-12.826 10.51-25.159 19.222-36.088 25.513-10.89 6.269-20.523 10.215-27.916 11.043l-.148.016-.148-.012c-4.745-.409-11.01-3.048-16.03-7.754-5.06-4.743-8.935-11.663-8.671-20.636l.003-.1.016-.098c2.876-17.526 20.097-55.423 58.981-83.296 22.292-15.98 42.069-26.069 57.474-30.967C216.678 1.282 223.347.11 228.726.184Z" fill="#A9B4BE"/>
  <path d="M170.894 114.282c2.144-25.759-16.193-40.28-30.03-46.322-1.059-.462-1.661.787-.707 1.44 10.053 6.877 22.133 17.173 23.395 29.486 1.521 14.846 6.094 15.396 7.342 15.396Z" fill="#D5DADD"/>
  <path fill-rule="evenodd" clip-rule="evenodd" d="m146.414 110.09 33.937-23.749.74-.504a21.753 21.753 0 0 0 8.643-24.031l33.121-23.194c8.941-8.598 14.693-23.911 16.481-33.805.217.187.422.383.616.586 9.553 10.038-25.77 75.912-59.395 103.467-25.56 20.946-49.06 34.64-63.22 36.225-8.75-.753-23.829-9.905-23.33-26.85 1.808-11.021 9.494-30.506 25.029-50.367l14.336-12.822c-4.962 21.836-6.929 43.88 13.042 55.044Z" fill="#D5DADD"/>
  <path fill-rule="evenodd" clip-rule="evenodd" d="M197.365 9.707c9.451 1.361 22.071 5.143 28.614 13.715 4.756 6.232 5.861 12.578 5.428 17.765 8.565-17.195 12.603-31.53 8.545-35.794-5.63-5.916-21.024-4.963-42.587 4.314Z" fill="#A9B4BE"/>
  <path d="M231.407 41.186c8.564-17.194 12.602-31.53 8.545-35.793a8.713 8.713 0 0 0-.616-.586c.498 6.875-4.584 16.92-9.633 25.1a24.613 24.613 0 0 1 1.704 11.28Z" fill="#45484A"/>
  <path fill-rule="evenodd" clip-rule="evenodd" d="M133.082 140.22c4.181-7.852 1.163-19.941-7.853-29.054-8.05-8.138-18.525-11.52-26.297-9.234-2.617 6.404-4.22 11.999-4.926 16.302-.497 16.946 14.581 26.098 23.331 26.851 4.414-.494 9.736-2.165 15.745-4.865Z" fill="#0070F2"/>
  <ellipse cx="106.841" cy="129.866" rx="15.131" ry="7.185" transform="rotate(49.245 106.841 129.866)" fill="#A9B4BE"/>
  <path d="m82.6 66.493 7.99-7.368a26.075 26.075 0 0 1 14.229-6.675l30.829-4.111c-.067 13.35-21.524 31.158-26.059 33.174l-25.208-7.401c-3.353-.985-4.35-5.25-1.781-7.62Z" fill="#F58B00"/>
  <ellipse cx="162.257" cy="99.817" rx="6.574" ry="22.754" transform="rotate(50.927 162.257 99.817)" fill="#F58B00"/>
  <ellipse cx="208.039" cy="54.634" rx="17.476" ry="21.806" transform="rotate(32.437 208.039 54.634)" fill="#CC7400"/>
  <ellipse cx="211.676" cy="56.916" rx="12.845" ry="15.897" transform="rotate(32.437 211.676 56.916)" fill="#A9B4BE"/>
  <path fill-rule="evenodd" clip-rule="evenodd" d="m224.077 55.858-21.689-7.969a19.33 19.33 0 0 1 3.704-3.449l18.147 6.668c.181 1.511.129 3.117-.162 4.75ZM218.518 66.438l-20.725-7.615c.232-2.896 1.235-5.957 3.04-8.797a.57.57 0 0 0 .02-.033l22.613 8.309a20.428 20.428 0 0 1-2.216 4.7 20.612 20.612 0 0 1-2.732 3.436Z" fill="#D5DADD"/>
  <path fill-rule="evenodd" clip-rule="evenodd" d="M202.461 69.844c6.456.561 13.171-2.62 17.071-8.756 3.36-5.288 3.846-11.536 1.838-16.751 5.082 4.19 5.756 12.642 1.34 19.591-4.709 7.41-13.424 10.305-19.464 6.466a10.56 10.56 0 0 1-.785-.55Z" fill="#CC7400"/>
  <path d="M.067 169.981c47.173 0 95.464-44.709 99.888-48.873 4.423-4.164 11.385-3.953 15.549.47 4.164 4.424 3.954 11.385-.47 15.549-34.95 36.329-35.387 54.552-36.887 66.552-30.835 0-74.188-5.268-78.08-33.698Z" fill="#D5DADD"/>
  <path d="M76.611 155.908c18.318-7.896 53.462-26.44 43.988-36.862-13.521-14.873-36.785 27.654-43.988 36.862Z" fill="#A9B4BE"/>
  <path d="M125.173 111.124c9.016 9.114 12.034 21.203 7.853 29.054-6.009 2.7-11.331 4.371-15.745 4.865-2.223-.191-4.854-.924-7.534-2.19l1.081-1.243c2.4.868 4.499.828 5.836-.324 3.006-2.591 1.021-9.823-4.435-16.153-5.455-6.33-12.315-9.362-15.321-6.771-1.43 1.232-1.73 3.513-1.066 6.248l-1.055 1c-.608-2.278-.915-4.751-.837-7.417.707-4.304 2.31-9.898 4.926-16.302 7.772-2.286 18.247 1.096 26.297 9.233Z" fill="#F58B00"/>
  <path fill-rule="evenodd" clip-rule="evenodd" d="m82.607 66.486-.007.007c-2.57 2.368-1.572 6.634 1.78 7.618l25.209 7.402c4.459-1.982 25.276-19.23 26.038-32.497-19.486 26.141-41.24 23.639-53.02 17.47Z" fill="#CC7400"/>
</svg>
