<svg fill="none" xmlns="http://www.w3.org/2000/svg" viewBox="0 0 229 185">
  <path d="M56.862 26.634a5.095 5.095 0 0 0-3.91 6.045l17.304 80.392a5.095 5.095 0 0 0 6.052 3.901l57.007-12.272a5.085 5.085 0 0 0 3.903-6.043l-15.682-72.849-17.855-9.252-46.82 10.078Z" fill="#767B7F"/>
  <path d="M52.779 23.998a5.095 5.095 0 0 0-3.91 6.045l17.304 80.392a5.095 5.095 0 0 0 6.052 3.9l57.007-12.271a5.096 5.096 0 0 0 3.203-2.213 5.093 5.093 0 0 0 .7-3.83l-15.682-72.85-17.855-9.251-46.82 10.078Z" fill="#D5DADD"/>
  <path d="m102.283 26.437 15.82-.206-.659-3.058-15.161 3.264Z" fill="#45484A"/>
  <path d="m102.284 26.437 15.161-3.264-17.855-9.252 2.694 12.516Z" fill="#767B7F"/>
  <path d="m11.954 69.441-4.049 3.924L18.691 84.49l4.048-3.923L11.954 69.44Z" fill="#D5DADD"/>
  <path d="m75.345 161.211 51.661-37.934a4.926 4.926 0 0 0 1.055-6.887l-55.19-75.151a4.927 4.927 0 0 0-6.888-1.055L14.322 78.117a4.926 4.926 0 0 0-1.055 6.887l55.19 75.152a4.928 4.928 0 0 0 6.888 1.055Z" fill="#767B7F"/>
  <path d="m26.332 63.87-4.655 3.18 8.742 12.794 4.656-3.18-8.743-12.794Z" fill="#D5DADD"/>
  <path d="m73.108 162.839 51.34-38.105a4.915 4.915 0 0 0 1.017-6.876l-55.44-74.684a4.915 4.915 0 0 0-6.877-1.017l-51.34 38.105a4.915 4.915 0 0 0-1.017 6.876l55.44 74.684a4.915 4.915 0 0 0 6.877 1.017Z" fill="#D5DADD"/>
  <path d="M65.594 64.736 35.366 87.172l7.99 10.763 30.228-22.436-7.99-10.763Z" fill="#fff"/>
  <path fill-rule="evenodd" clip-rule="evenodd" d="M164.234 6.708c-.757-1.428-2.883-1.138-3.229.44l-37.889 172.405c-.318 1.445 1.202 2.6 2.509 1.907l100.921-53.498c.847-.449 1.17-1.5.72-2.347L164.234 6.708Zm5.917 67.498c.346-1.578 2.472-1.868 3.229-.44l22.351 42.165c.45.847.127 1.898-.72 2.347l-35.787 18.97c-1.307.693-2.826-.462-2.509-1.907l13.436-61.135Z" fill="#CC7400"/>
  <path d="M124.883 181.658h-4.053l1.661-5.574 2.392 5.574ZM162.812 5.79h-4.053l1.661 5.573 2.392-5.574Z" fill="#00A58A"/>
  <path fill-rule="evenodd" clip-rule="evenodd" d="M160.357 6.715c-.757-1.428-2.882-1.138-3.229.44l-37.889 172.406c-.318 1.445 1.202 2.599 2.509 1.907l100.921-53.498c.847-.449 1.17-1.5.72-2.347L160.357 6.715Zm5.917 67.499c.347-1.579 2.472-1.868 3.229-.44l22.352 42.164a1.736 1.736 0 0 1-.721 2.347l-35.787 18.97c-1.307.693-2.826-.461-2.509-1.906l13.436-61.135Z" fill="#A9B4BE"/>
  <path fill-rule="evenodd" clip-rule="evenodd" d="M173.841 33.518a.63.63 0 0 1-.127.086l-6.515 3.409a.656.656 0 0 1-.886-.278.65.65 0 0 1 .277-.885l6.516-3.407a.654.654 0 0 1 .885.276.653.653 0 0 1-.15.8ZM177.35 40.136a.626.626 0 0 1-.127.086l-6.515 3.41a.656.656 0 0 1-.886-.279.645.645 0 0 1 .277-.885l6.516-3.407a.655.655 0 0 1 .735 1.075ZM181.444 47.86a.582.582 0 0 1-.127.086l-11.414 5.97a.655.655 0 0 1-.885-.277.65.65 0 0 1 .276-.885l11.415-5.97a.654.654 0 0 1 .885.277.653.653 0 0 1-.15.8ZM185.524 55.556a.626.626 0 0 1-.127.086l-6.515 3.409a.656.656 0 0 1-.886-.278.649.649 0 0 1 .277-.885l6.516-3.407a.655.655 0 0 1 .735 1.075ZM189.032 62.174a.626.626 0 0 1-.127.086l-6.515 3.408a.656.656 0 0 1-.886-.277.649.649 0 0 1 .277-.885l6.516-3.408a.655.655 0 0 1 .735 1.076ZM192.54 68.792a.6.6 0 0 1-.127.086l-6.516 3.408a.656.656 0 0 1-.886-.278.65.65 0 0 1 .277-.885l6.517-3.407a.654.654 0 0 1 .885.277.653.653 0 0 1-.15.799ZM196.048 75.41a.634.634 0 0 1-.127.085l-6.515 3.409a.656.656 0 0 1-.609-1.163l6.516-3.407a.654.654 0 0 1 .735 1.075ZM200.142 83.133a.626.626 0 0 1-.127.086L188.6 89.19a.653.653 0 0 1-.884-.277.648.648 0 0 1 .276-.885l11.415-5.97a.655.655 0 0 1 .735 1.076ZM204.222 90.83a.592.592 0 0 1-.126.086l-6.516 3.408a.655.655 0 0 1-.885-.278.647.647 0 0 1 .276-.884l6.517-3.408a.653.653 0 0 1 .884.277.653.653 0 0 1-.15.799ZM207.73 97.448a.575.575 0 0 1-.127.086l-6.515 3.408a.656.656 0 0 1-.886-.277.648.648 0 0 1 .277-.885l6.516-3.408a.654.654 0 0 1 .885.277.653.653 0 0 1-.15.799ZM211.238 104.065a.59.59 0 0 1-.127.086l-6.515 3.409a.656.656 0 0 1-.886-.278.65.65 0 0 1 .277-.885l6.516-3.407a.654.654 0 0 1 .885.277.653.653 0 0 1-.15.798ZM214.746 110.683a.63.63 0 0 1-.127.086l-6.516 3.408a.654.654 0 0 1-.885-.277.648.648 0 0 1 .277-.885l6.516-3.408a.655.655 0 0 1 .735 1.076ZM218.84 118.406a.596.596 0 0 1-.126.086l-11.414 5.971a.654.654 0 0 1-.885-.277.65.65 0 0 1 .276-.885l11.415-5.97a.653.653 0 0 1 .884.276.653.653 0 0 1-.15.799Z" fill="#fff"/>
  <path d="m65.148 156.869 19.415-32.147 15.707 18.849-35.122 13.298Z" fill="#767B7F"/>
  <path fill-rule="evenodd" clip-rule="evenodd" d="M189.517 69.145 173.864 50.36l-89.223 74.35c-1.613 1.345.583 6.639 4.905 11.826 4.323 5.187 9.134 8.302 10.748 6.958l.013-.012 89.21-74.338Z" fill="#F58B00"/>
  <path fill-rule="evenodd" clip-rule="evenodd" d="m90.935 138.115 92.101-76.748 6.481 7.778-89.21 74.338-.013.012c-1.442 1.201-5.44-1.16-9.36-5.38Z" fill="#CC7400"/>
  <path fill-rule="evenodd" clip-rule="evenodd" d="m195.194 64.415-15.653-18.784-5.676 4.73c-1.613 1.346.583 6.64 4.906 11.827 4.322 5.187 9.134 8.302 10.747 6.957a.32.32 0 0 0 .02-.017l5.656-4.713Z" fill="#A9B4BE"/>
  <path fill-rule="evenodd" clip-rule="evenodd" d="m206.879 54.679-15.652-18.784-11.669 9.724a.18.18 0 0 0-.016.013c-1.613 1.344.583 6.639 4.905 11.826s9.134 8.302 10.748 6.957l11.684-9.736Z" fill="#D5DADD"/>
  <ellipse cx="199.052" cy="45.287" rx="12.225" ry="3.802" transform="rotate(50.196 199.052 45.287)" fill="#767B7F"/>
  <path fill-rule="evenodd" clip-rule="evenodd" d="M73.924 142.338a35.8 35.8 0 0 0 3.232 4.523 35.828 35.828 0 0 0 3.868 3.997l-15.876 6.011 8.776-14.531Z" fill="#45484A"/>
</svg>
