<svg viewBox="0 0 24 30" xmlns="http://www.w3.org/2000/svg">
	<g fill="none" fill-rule="evenodd">
		<path d="m0 0h24v24h-24z"/>
		<path d="m18.1893398 4.75h-3.1893398c-.4142136 0-.75-.33578644-.75-.75s.3357864-.75.75-.75h5c.4142136 0 .75.33578644.75.75v5c0 .41421356-.3357864.75-.75.75s-.75-.33578644-.75-.75v-3.18933983l-8.7196699 8.71966993c-.2928932.2928932-.76776697.2928932-1.06066019 0-.29289321-.2928932-.29289321-.767767 0-1.0606602zm-7.1893609.25000427v.00009455c.2622794-.00370928.5062386.1340902.6384608.36063231s.1322222.50672868 0 .7332708c-.1322222.22654211-.3761814.36434158-.6384608.36063231-1.81439151 0-3.16529428.00487996-4.11648983.11221741-.95119556.10733744-1.44234235.30708879-1.72726466.59232318-.2849223.2852344-.48413591.77635828-.59090632 1.72726082-.10677041.95090253-.11079221 2.30107505-.11079221 4.11357165 0 1.8119875.00627633 3.1617236.115054 4.1121898.10877768.9504662.3095331 1.4424919.59658631 1.7287153.2870532.2862235.77890545.4849931 1.72871919.5923232.94981374.1073316 2.29780743.1122174 4.10507172.1122174 1.8070461 0 3.1554034-.0054327 4.1050717-.1136355.9496683-.1082029 1.4412587-.308027 1.7287192-.5951669.2874532-.287198.4878159-.7788309.5965863-1.7287153.1087995-.9498116.115054-2.298966.115054-4.1078989-.0037093-.2622789.1340905-.5062375.3606331-.6384594s.5067298-.1322219.7332724 0c.2265427.1322219.3643424.3761805.3606332.6384594 0 1.8103147.0000872 3.1802689-.1250031 4.2726978-.1250903 1.0924288-.3858891 1.9661537-1.0127953 2.5923457-.6269061.6261921-1.5018838.8869321-2.5937333 1.0113385-1.0918494.1243773-2.4602067.1235773-4.2684164.1235773-1.80799154 0-3.17671241.0026036-4.2684164-.120741-1.09170398-.1233446-1.96501626-.3829137-2.59235151-1.0085021-.62734252-.6255957-.89054857-1.4994078-1.01563162-2.5923457-.12508305-1.092938-.1235776-2.4649285-.1235776-4.2783705 0-1.8130057-.00191999-3.18455989.12074125-4.27698872.12261761-1.09250155.37978005-1.96574644 1.00566803-2.59234575.62588798-.62659932 1.50079298-.88661207 2.59373333-1.00995667 1.09301307-.12334439 2.46471574-.12074099 4.27983452-.12074099z"
			  fill="#1873b4"/>
	</g>
</svg>