<svg width="1487" height="316" viewBox="0 0 1487 316" fill="none" xmlns="http://www.w3.org/2000/svg">
<g clip-path="url(#clip0_1342_2330)">
<g clip-path="url(#clip1_1342_2330)">
<path d="M1140.89 48.149C1150.16 48.149 1157.67 40.6336 1157.67 31.3629C1157.67 22.0921 1150.16 14.5767 1140.89 14.5767C1131.63 14.5767 1124.12 22.0921 1124.12 31.3629C1124.12 40.6336 1131.63 48.149 1140.89 48.149Z" fill="#183248"/>
<path d="M1311.11 223.636C1309.84 220.16 1308.95 216.496 1308.47 212.696C1306.72 198.766 1310.89 185.456 1319 175.271C1313.64 170.933 1308.23 166.73 1302.71 162.634C1302.44 162.446 1302.2 162.257 1301.93 162.069C1299.45 160.236 1296.95 158.431 1294.44 156.653C1291.48 154.551 1288.49 152.476 1285.48 150.456C1285.42 150.429 1285.37 150.375 1285.31 150.348C1276.11 175.379 1263.86 196.368 1253.89 211.134C1270.56 221.049 1290.43 225.818 1311.11 223.636Z" fill="#183248"/>
<path d="M1179.58 193.458C1181.23 197.338 1185.4 199.682 1189.71 198.847C1194.66 197.877 1197.89 193.108 1196.92 188.15C1195.95 183.193 1191.16 179.959 1186.23 180.929C1184.65 181.226 1183.27 181.953 1182.14 182.923C1174.66 179.986 1166.77 177.992 1158.58 177.049C1163.97 164.925 1168.3 151.156 1169.57 136.714C1190.89 151.426 1210.47 168.643 1227.72 188.097C1231.92 162.958 1232.62 139.705 1231.52 119.416C1228.18 117.772 1224.84 116.183 1221.48 114.62C1217.92 112.976 1214.34 111.36 1210.74 109.797C1159.01 87.5951 1102.8 74.662 1044.35 72.8298C1052.21 86.194 1068.47 90.3165 1068.47 90.3165C1087.64 95.3011 1106.16 102.037 1123.88 110.363C1126.81 120.117 1133.22 145.848 1131.15 177.885C1116.8 180.444 1103.74 186.13 1092.59 194.213C1090.87 193.351 1088.85 193 1086.8 193.404C1081.85 194.374 1078.62 199.171 1079.59 204.101C1080.56 209.032 1085.32 212.292 1090.28 211.322C1094.18 210.568 1096.98 207.415 1097.52 203.67C1107.67 200.167 1118.23 197.446 1129.13 195.587C1128.13 201.703 1126.81 207.981 1125.04 214.34C1125.01 214.34 1124.96 214.34 1124.93 214.34C1119.98 215.31 1116.74 220.106 1117.71 225.037C1118.68 229.968 1123.45 233.228 1128.4 232.258C1133.36 231.288 1136.59 226.492 1135.62 221.561C1135.32 220.079 1134.68 218.786 1133.79 217.681C1137.66 212.804 1144.02 204.209 1150.35 193.135C1160.2 192.515 1169.95 192.623 1179.53 193.431L1179.58 193.458Z" fill="#183248"/>
<path d="M1486.68 160.883C1483.66 136.768 1461.66 119.658 1437.57 122.676C1436.71 122.784 1435.87 122.946 1435.04 123.107C1401.38 87.2716 1369.48 51.5977 1323.81 40.4698C1322.79 40.2273 1321.77 39.9848 1320.75 39.7692C1273.33 29.5035 1224.41 23.8722 1174.55 23.2256C1170.51 13.0138 1160.01 6.41247 1148.62 7.8405C1147.84 7.94828 1147.06 8.083 1146.31 8.24466C1141.11 2.3978 1133.22 -0.862432 1124.88 0.188386C1112.06 1.80503 1102.8 12.9868 1103.36 25.6775C1062.79 31.6591 1036.62 50.3313 1044.35 72.8296C1102.77 74.6618 1159.01 87.5949 1210.68 109.77C1217.71 112.788 1224.63 116.021 1231.49 119.389C1233.11 149.135 1230.87 185.24 1219.38 224.39C1194.61 226.599 1175.55 234.521 1166.15 239.236C1164.13 237.593 1161.44 236.811 1158.69 237.323C1153.74 238.293 1150.51 243.089 1151.48 248.02C1152.44 252.951 1157.24 256.211 1162.16 255.241C1166.53 254.406 1169.54 250.58 1169.54 246.295C1189.01 241.122 1202.9 241.742 1202.9 241.742C1193.61 246.646 1183.86 257.935 1178.59 264.644C1177.7 264.564 1176.81 264.537 1175.9 264.725C1170.94 265.695 1167.71 270.464 1168.68 275.422C1169.65 280.38 1174.44 283.613 1179.37 282.643C1184.3 281.673 1187.55 276.904 1186.58 271.946C1186.48 271.434 1186.32 270.949 1186.15 270.464C1205.78 254.945 1222.12 248.505 1222.12 248.505C1222.31 254.702 1221.83 264.105 1221.4 270.761C1217.09 272.162 1214.4 276.554 1215.26 281.134C1216.23 286.092 1221.02 289.325 1225.95 288.355C1230.87 287.385 1234.13 282.616 1233.16 277.658C1232.79 275.665 1231.74 273.967 1230.34 272.674C1238.92 253.355 1239.44 236.003 1239.35 230.695C1247.59 220.672 1270.4 190.737 1285.29 150.321C1296.89 158.081 1308.09 166.433 1318.97 175.244C1310.86 185.429 1306.72 198.739 1308.44 212.669C1311 233.012 1325.4 248.963 1343.87 254.46C1327.75 257.854 1315.41 263.162 1308.41 266.665C1306.4 265.022 1303.7 264.24 1300.96 264.752C1296 265.722 1292.77 270.491 1293.74 275.449C1294.71 280.407 1299.5 283.64 1304.43 282.67C1308.79 281.835 1311.81 278.009 1311.81 273.725C1331.27 268.551 1345.17 269.171 1345.17 269.171C1335.88 274.075 1326.13 285.364 1320.85 292.073C1319.96 291.993 1319.08 291.966 1318.16 292.154C1313.21 293.124 1309.98 297.92 1310.95 302.851C1311.91 307.809 1316.71 311.042 1321.63 310.072C1326.56 309.102 1329.82 304.306 1328.85 299.375C1328.74 298.863 1328.58 298.378 1328.42 297.893C1348.05 282.374 1364.39 275.934 1364.39 275.934C1364.58 282.131 1364.09 291.535 1363.66 298.19C1359.35 299.591 1356.66 303.983 1357.52 308.563C1358.49 313.521 1363.29 316.754 1368.21 315.784C1373.17 314.814 1376.4 310.045 1375.43 305.087C1375.05 303.094 1374 301.396 1372.6 300.103C1379.28 285.068 1381.08 271.192 1381.51 263.27C1385.2 262.139 1439.18 245.002 1477.15 193.997C1478.22 192.65 1479.25 191.276 1480.19 189.821C1480.24 189.74 1480.3 189.659 1480.38 189.578H1480.35C1485.49 181.279 1487.94 171.283 1486.65 160.856L1486.68 160.883ZM1142.97 48.0141C1133.79 49.1727 1125.41 42.6522 1124.26 33.4643C1123.1 24.2764 1129.61 15.8968 1138.79 14.7382C1147.98 13.5796 1156.35 20.1 1157.51 29.288C1158.66 38.4759 1152.15 46.8555 1142.97 48.0141Z" fill="#FFB174"/>
</g>
<path d="M0.0286041 311.739V292.145C0.0286041 290.372 1.45881 288.942 3.20366 288.913C10.8124 288.799 16.476 288.284 20.1659 287.34C24.3421 286.281 26.9737 284.479 28.0606 281.934C29.119 279.388 29.6625 275.984 29.6625 271.751V92.3741C29.6625 90.5721 31.1213 89.1419 32.8947 89.1419H60.5549C62.357 89.1419 63.7872 90.6007 63.7872 92.3741V264.428C63.7872 276.098 62.8146 285.309 60.8982 292.117C58.9817 298.896 55.5778 303.93 50.7437 307.22C45.9096 310.509 39.3593 312.626 31.0927 313.57C23.5698 314.428 14.3021 314.914 3.28947 315C1.48741 315 0 313.541 0 311.739H0.0286041ZM29.0332 45.1487V18.2323C29.0332 16.4302 30.492 15 32.2654 15H61.5275C63.3295 15 64.7597 16.4588 64.7597 18.2323V45.1487C64.7597 46.9508 63.3009 48.381 61.5275 48.381H32.2654C30.4634 48.381 29.0332 46.9222 29.0332 45.1487Z" fill="#183248"/>
<path d="M160.04 253.902C153.604 253.902 146.682 253.673 139.273 253.272C131.865 252.843 124.628 252.328 117.534 251.67C111.585 251.156 106.178 250.526 101.287 249.84C99.6854 249.611 98.5126 248.238 98.5126 246.636V226.184C98.5126 224.296 100.086 222.809 101.974 222.952C104.72 223.152 107.695 223.381 110.927 223.696C115.532 224.125 120.423 224.439 125.572 224.64C130.721 224.868 135.784 225.069 140.704 225.269C145.624 225.469 150.486 225.584 155.206 225.584C165.503 225.584 172.969 224.954 177.603 223.667C182.208 222.408 185.212 220.235 186.613 217.145C188.015 214.085 188.701 210.109 188.701 205.217C188.701 199.697 188.215 195.664 187.243 193.118C186.27 190.572 184.497 188.884 181.922 188.026C179.348 187.168 175.372 186.424 170.023 185.795L130.063 181.018C119.765 179.96 111.985 177.586 106.722 173.867C101.459 170.177 97.9119 165.057 96.0812 158.593C94.2506 152.128 93.3352 144.233 93.3352 134.88C93.3352 124.068 94.9085 115.429 97.9977 108.965C101.087 102.5 105.492 97.6659 111.184 94.4909C116.876 91.3158 123.799 89.1991 131.951 88.1407C140.103 87.0824 149.027 86.5389 158.667 86.5389C164.674 86.5389 170.967 86.7391 177.517 87.1682C184.067 87.5973 190.389 88.1693 196.51 88.9131C201.459 89.5137 205.892 90.143 209.783 90.8295C211.327 91.087 212.443 92.46 212.443 94.0332V114.399C212.443 116.344 210.755 117.832 208.839 117.632C204.72 117.174 200.315 116.802 195.709 116.459C189.703 116.03 183.724 115.658 177.832 115.343C171.939 115.029 166.276 114.886 160.927 114.886C153.003 114.886 146.424 115.257 141.276 116.001C136.127 116.745 132.294 118.432 129.834 121.093C127.346 123.753 126.144 128.244 126.144 134.622C126.144 139.514 126.516 143.146 127.26 145.606C128.003 148.038 129.605 149.725 132.094 150.698C134.554 151.642 138.387 152.443 143.535 153.101L186.699 158.192C194.851 159.05 201.459 160.681 206.493 163.141C211.527 165.572 215.303 169.92 217.763 176.184C220.223 182.449 221.453 191.945 221.453 204.645C221.453 215.257 220.109 223.781 217.42 230.246C214.731 236.711 210.698 241.716 205.349 245.206C199.971 248.696 193.478 251.041 185.87 252.214C178.261 253.387 169.594 253.959 159.954 253.959L160.04 253.902Z" fill="#183248"/>
<path d="M248.312 181.133V159.308C248.312 157.506 249.771 156.076 251.545 156.076H326.545C328.347 156.076 329.777 157.534 329.777 159.308V181.133C329.777 182.935 328.318 184.365 326.545 184.365H251.545C249.743 184.365 248.312 182.906 248.312 181.133Z" fill="#183248"/>
<path d="M427.088 253.902C420.652 253.902 413.73 253.673 406.322 253.272C398.913 252.843 391.676 252.328 384.582 251.67C378.633 251.156 373.227 250.526 368.335 249.84C366.733 249.611 365.561 248.238 365.561 246.636V226.184C365.561 224.296 367.134 222.809 369.022 222.952C371.768 223.152 374.743 223.381 377.975 223.696C382.58 224.125 387.471 224.439 392.62 224.64C397.769 224.868 402.803 225.069 407.752 225.269C412.672 225.469 417.506 225.584 422.254 225.584C432.552 225.584 440.017 224.954 444.651 223.667C449.256 222.408 452.26 220.235 453.661 217.145C455.063 214.085 455.749 210.109 455.749 205.217C455.749 199.697 455.263 195.664 454.291 193.118C453.318 190.572 451.545 188.884 448.97 188.026C446.396 187.168 442.42 186.424 437.042 185.795L397.111 181.018C386.814 179.96 379.005 177.586 373.77 173.867C368.507 170.177 364.96 165.057 363.129 158.593C361.299 152.128 360.383 144.233 360.383 134.88C360.383 124.068 361.928 115.429 365.046 108.965C368.164 102.5 372.569 97.6659 378.261 94.4909C383.953 91.3158 390.875 89.1991 399.027 88.1407C407.18 87.0824 416.104 86.5389 425.772 86.5389C431.779 86.5389 438.072 86.7391 444.622 87.1682C451.173 87.5973 457.494 88.1693 463.644 88.9131C468.593 89.5137 473.026 90.143 476.917 90.8295C478.461 91.087 479.577 92.46 479.577 94.0332V114.399C479.577 116.344 477.889 117.832 475.973 117.632C471.854 117.174 467.477 116.802 462.843 116.459C456.836 116.03 450.858 115.658 444.966 115.343C439.045 115.029 433.41 114.886 428.061 114.886C420.109 114.886 413.558 115.257 408.41 116.001C403.261 116.745 399.457 118.432 396.968 121.093C394.508 123.753 393.278 128.244 393.278 134.622C393.278 139.514 393.65 143.146 394.422 145.606C395.166 148.038 396.768 149.725 399.256 150.698C401.716 151.642 405.549 152.443 410.698 153.101L453.862 158.192C462.014 159.05 468.621 160.681 473.656 163.141C478.69 165.572 482.466 169.92 484.926 176.184C487.386 182.449 488.616 191.945 488.616 204.645C488.616 215.257 487.271 223.781 484.582 230.246C481.894 236.711 477.86 241.716 472.511 245.206C467.134 248.696 460.641 251.041 453.032 252.214C445.423 253.387 436.756 253.959 427.117 253.959L427.088 253.902Z" fill="#183248"/>
<path d="M589.159 253.902C575.429 253.902 563.987 253.043 554.863 251.356C545.738 249.668 538.53 246.951 533.267 243.232C528.003 239.542 524.142 234.479 521.682 228.129C519.193 221.779 517.592 213.799 516.848 204.273C516.104 194.72 515.704 183.278 515.704 169.92C515.704 156.562 516.076 145.435 516.848 135.881C517.592 126.327 519.193 118.375 521.682 112.025C524.142 105.675 528.003 100.612 533.267 96.8936C538.53 93.2037 545.709 90.5435 554.863 88.9417C563.987 87.3398 575.429 86.5389 589.159 86.5389C602.889 86.5389 614.645 87.3398 623.799 88.9417C632.923 90.5149 640.103 93.1751 645.366 96.8936C650.629 100.612 654.491 105.646 656.951 112.025C659.411 118.375 661.041 126.327 661.785 135.881C662.529 145.435 662.9 156.791 662.9 169.92C662.9 183.049 662.529 194.748 661.785 204.273C661.041 213.827 659.411 221.779 656.951 228.129C654.462 234.479 650.629 239.542 645.366 243.232C640.103 246.951 632.923 249.64 623.799 251.356C614.674 253.043 603.118 253.902 589.159 253.902ZM589.159 225.584C599.027 225.584 606.665 224.954 612.042 223.667C617.391 222.408 621.224 219.863 623.484 216.03C625.744 212.225 627.145 206.59 627.66 199.182C628.175 191.773 628.461 181.991 628.461 169.92C628.461 157.849 628.175 148.124 627.66 140.801C627.117 133.478 625.744 127.929 623.484 124.096C621.224 120.263 617.42 117.775 612.042 116.63C606.665 115.458 599.027 114.886 589.159 114.886C579.291 114.886 571.997 115.486 566.619 116.63C561.241 117.775 557.437 120.292 555.177 124.096C552.918 127.9 551.516 133.478 551.001 140.801C550.458 148.124 550.2 157.82 550.2 169.92C550.2 182.019 550.486 191.773 551.001 199.182C551.516 206.59 552.918 212.225 555.177 216.03C557.437 219.834 561.241 222.38 566.619 223.667C571.997 224.954 579.491 225.584 589.159 225.584Z" fill="#183248"/>
<path d="M710.526 248.124V120.664C710.526 118.862 709.068 117.431 707.294 117.431H681.236C679.434 117.431 678.003 115.973 678.003 114.199V92.3741C678.003 90.5721 679.462 89.1419 681.236 89.1419H707.294C709.096 89.1419 710.526 87.6831 710.526 85.9096V69.4336C710.526 59.0503 711.27 50.4977 712.786 43.833C714.273 37.1682 716.819 31.905 720.366 28.0721C723.913 24.2391 728.633 21.4359 734.525 19.6339C740.418 17.8318 747.683 16.659 756.264 16.1442C764.045 15.6579 773.026 15.4005 783.267 15.3432C785.069 15.3432 786.527 16.8021 786.527 18.6041V37.5687C786.527 39.3421 785.069 40.8009 783.295 40.8009C775.772 40.8581 769.594 41.1156 764.788 41.5732C759.325 42.1167 755.12 43.1178 752.231 44.6053C749.342 46.0927 747.397 48.381 746.424 51.4417C745.452 54.5309 744.966 58.5069 744.966 63.3696V85.9096C744.966 87.7117 746.424 89.1419 748.198 89.1419H783.267C785.069 89.1419 786.499 90.6007 786.499 92.3741V114.199C786.499 116.001 785.04 117.431 783.267 117.431H748.198C746.396 117.431 744.966 118.89 744.966 120.664V248.124C744.966 249.926 743.507 251.356 741.733 251.356H713.759C711.957 251.356 710.526 249.897 710.526 248.124Z" fill="#183248"/>
<path d="M871.424 85.8524V45.2632C871.424 43.4611 869.966 42.0309 868.192 42.0309H840.532C838.73 42.0309 837.3 43.4897 837.3 45.2632V85.8524C837.3 87.6545 835.841 89.0847 834.067 89.0847H807.694C805.892 89.0847 804.462 90.5435 804.462 92.3169V114.142C804.462 115.944 805.921 117.374 807.694 117.374H834.067C835.87 117.374 837.3 118.833 837.3 120.606V248.066C837.3 249.868 838.759 251.299 840.532 251.299H868.192C869.994 251.299 871.424 249.84 871.424 248.066V120.606C871.424 118.804 872.883 117.374 874.657 117.374H952.574C963.759 117.374 972.855 108.307 972.855 97.0938V92.3169C972.855 90.5149 971.396 89.0847 969.622 89.0847H874.685C872.883 89.0847 871.453 87.6259 871.453 85.8238L871.424 85.8524Z" fill="#183248"/>
</g>
<defs>
<clipPath id="clip0_1342_2330">
<rect width="1487" height="316" fill="white"/>
</clipPath>
<clipPath id="clip1_1342_2330">
<rect width="444" height="316" fill="white" transform="translate(1043)"/>
</clipPath>
</defs>
</svg>
