<?xml version="1.0" encoding="UTF-8" standalone="no"?>
<!DOCTYPE svg PUBLIC "-//W3C//DTD SVG 1.1//EN" "http://www.w3.org/Graphics/SVG/1.1/DTD/svg11.dtd">
<svg width="100%" height="100%" viewBox="0 0 158 33" version="1.1" xmlns="http://www.w3.org/2000/svg" xmlns:xlink="http://www.w3.org/1999/xlink" xml:space="preserve" xmlns:serif="http://www.serif.com/" style="fill-rule:evenodd;clip-rule:evenodd;stroke-linejoin:round;stroke-miterlimit:2;">
    <g transform="matrix(1,0,0,1,-9,-9)">
        <path d="M146.32,31.59C146.32,35.66 149.41,37.94 154.38,37.94C158.74,37.94 162.29,36.45 162.29,32.31C162.29,28.9 159.75,28.1 156.66,27.16C153.68,26.25 152.2,25.96 152.2,24.69C152.2,23.64 153.14,23.13 154.27,23.13C155.79,23.13 156.56,23.96 156.56,25.42L162.04,25.42C162.04,22.08 159.57,19.5 154.49,19.5C149.77,19.5 146.76,21.21 146.76,24.83C146.76,28.21 149.3,28.97 152.17,29.95C155.47,31.08 156.85,31.22 156.85,32.56C156.85,33.72 155.91,34.19 154.56,34.19C152.93,34.19 151.77,33.46 151.77,31.61L146.32,31.59ZM134.67,23.42C136.77,23.42 138.26,24.76 138.26,27.01L131,27.01C131,24.66 132.56,23.42 134.67,23.42M138.04,31.95C137.64,33.08 136.73,33.95 134.81,33.95C131.98,33.95 131,32.17 131,30.07L143.52,30.07C143.7,29.02 143.7,28.22 143.7,27.49C143.7,23.21 140.18,19.51 134.7,19.51C128.64,19.51 125.41,23.61 125.41,28.73C125.41,33.88 128.71,37.95 134.85,37.95C139.86,37.95 142.91,35.26 143.49,31.96L138.04,31.96L138.04,31.95ZM116.26,22.48C115.43,20.88 113.18,19.54 110.93,19.54C105.89,19.54 102.4,23.5 102.4,28.72C102.4,33.95 105.88,37.9 110.93,37.9C113.18,37.9 115.43,36.59 116.26,35L116.26,37.47L121.81,37.47L121.81,12.06L116.26,12.06L116.26,22.48ZM112.09,33.18C109.59,33.18 107.92,31.15 107.92,28.72C107.92,26.32 109.59,24.26 112.09,24.26C114.6,24.26 116.26,26.33 116.26,28.72C116.26,31.15 114.6,33.18 112.09,33.18M93.22,22.48C92.39,20.88 90.14,19.54 87.88,19.54C82.84,19.54 79.35,23.5 79.35,28.72C79.35,33.95 82.83,37.9 87.88,37.9C90.13,37.9 92.38,36.59 93.22,35L93.22,37.47L98.77,37.47L98.77,19.97L93.22,19.97L93.22,22.48ZM89.04,33.18C86.54,33.18 84.87,31.15 84.87,28.72C84.87,26.32 86.54,24.26 89.04,24.26C91.54,24.26 93.21,26.33 93.21,28.72C93.22,31.15 91.55,33.18 89.04,33.18M58.92,19.97L66.72,37.46L71.15,37.46L79.06,19.97L73.25,19.97L68.97,30.97L64.72,19.97L58.92,19.97ZM50.54,22.48C49.71,20.88 47.46,19.54 45.21,19.54C40.16,19.54 36.68,23.5 36.68,28.72C36.68,33.95 40.16,37.9 45.21,37.9C47.46,37.9 49.71,36.59 50.54,35L50.54,37.47L56.09,37.47L56.09,12.06L50.54,12.06L50.54,22.48ZM46.36,33.18C43.86,33.18 42.19,31.15 42.19,28.72C42.19,26.32 43.86,24.26 46.36,24.26C48.87,24.26 50.53,26.33 50.53,28.72C50.54,31.15 48.87,33.18 46.36,33.18M27.53,22.48C26.69,20.88 24.44,19.54 22.19,19.54C17.14,19.54 13.66,23.5 13.66,28.72C13.66,33.95 17.14,37.9 22.19,37.9C24.44,37.9 26.69,36.59 27.53,35L27.53,37.47L33.08,37.47L33.08,19.97L27.53,19.97L27.53,22.48ZM23.36,33.18C20.86,33.18 19.19,31.15 19.19,28.72C19.19,26.32 20.86,24.26 23.36,24.26C25.86,24.26 27.53,26.33 27.53,28.72C27.53,31.15 25.86,33.18 23.36,33.18" style="fill:rgb(19,165,56);fill-rule:nonzero;"/>
    </g>
</svg>
