<svg xmlns="http://www.w3.org/2000/svg" viewBox="0 0 148.23 20">
  <path d="M69.35.69h-4v18.6h4V.69zM11.16 7.11l2.29 5.13H9.11l-1.32 3.32h6.95L16.53 20h3.82L13.02 2.47l-1.86 4.64zm30.04 6.15L34.29.69h-3.47v18.6h3.39V7.04l5.34 10.44h3.29l5.37-10.46V19.3h3.39V.69h-3.47L41.2 13.26zM8.01 0 0 20h3.48l7.97-20H8.01zm132.21 0h-3.46l7.98 20h3.48l-8-20zm-44.9 10.57c-.55-.47-1.29-.91-2.22-1.32-.91-.4-2.06-.8-3.4-1.19-.74-.2-1.35-.4-1.82-.6-.46-.2-.83-.41-1.11-.63-.26-.21-.45-.42-.54-.62-.11-.2-.15-.4-.15-.61 0-.53.21-.94.65-1.26.46-.34 1.11-.51 1.92-.51.33 0 .76.04 1.28.12.52.08 1.07.2 1.65.34.56.14 1.14.33 1.72.55.57.22 1.09.48 1.55.76l.28.18 1.61-3.21-.2-.15a9.83 9.83 0 0 0-1.96-1.14c-.69-.29-1.4-.54-2.12-.72-.71-.18-1.41-.31-2.07-.39-.67-.08-1.28-.13-1.82-.13-1.06 0-2.01.14-2.85.44-.85.28-1.56.68-2.14 1.19-.59.51-1.02 1.11-1.32 1.78-.29.67-.44 1.39-.44 2.14 0 .64.09 1.26.29 1.83.2.6.59 1.18 1.16 1.7.57.53 1.35 1.02 2.34 1.48.98.46 2.27.88 3.84 1.27.6.14 1.13.28 1.58.41.42.12.76.27 1.02.44.24.15.42.34.53.55.12.21.18.48.18.8 0 .62-.21 1.11-.63 1.51-.42.4-1.19.6-2.27.6-.96 0-2.05-.18-3.23-.53-1.19-.35-2.42-.91-3.67-1.66l-.27-.16-1.73 3.2.21.15c1.31.95 2.73 1.66 4.21 2.1 1.48.45 2.96.67 4.4.67 1.07 0 2.05-.13 2.92-.4.87-.27 1.62-.66 2.25-1.15a5.3 5.3 0 0 0 1.46-1.86c.34-.73.51-1.56.51-2.48 0-.69-.12-1.34-.35-1.9-.23-.58-.65-1.11-1.21-1.59h-.02zm39.46 1.67 2.29-5.13-1.86-4.64L127.87 20h3.82l1.79-4.44h6.95l-1.32-3.32h-4.34zm-28.69-8.16h6.37V19.6h3.99V4.08h6.28V.4h-16.64v3.68z" fill="#ffffff"/>
</svg>